M48
; DRILL file KiCad 10.0.4 date 2026-06-29T17:59:17
; FORMAT={-:-/ absolute / metric / decimal}
; #@! TF.CreationDate,2026-06-29T17:59:17+02:00
; #@! TF.GenerationSoftware,Kicad,Pcbnew,10.0.4
; #@! TF.FileFunction,MixedPlating,1,2
FMAT,2
METRIC
; #@! TA.AperFunction,Plated,PTH,ViaDrill
T1C0.300
; #@! TA.AperFunction,Plated,PTH,ComponentDrill
T2C0.300
; #@! TA.AperFunction,Plated,PTH,ViaDrill
T3C0.400
; #@! TA.AperFunction,Plated,PTH,ComponentDrill
T4C0.760
; #@! TA.AperFunction,Plated,PTH,ComponentDrill
T5C0.800
; #@! TA.AperFunction,Plated,PTH,ComponentDrill
T6C0.900
; #@! TA.AperFunction,Plated,PTH,ComponentDrill
T7C1.000
; #@! TA.AperFunction,Plated,PTH,ComponentDrill
T8C1.100
; #@! TA.AperFunction,Plated,PTH,ComponentDrill
T9C1.200
; #@! TA.AperFunction,Plated,PTH,ComponentDrill
T10C1.300
; #@! TA.AperFunction,Plated,PTH,ComponentDrill
T11C1.400
; #@! TA.AperFunction,NonPlated,NPTH,ComponentDrill
T12C0.700
; #@! TA.AperFunction,NonPlated,NPTH,ComponentDrill
T13C3.200
%
G90
G05
T1
X95.5Y-80.5
X96.0Y-122.0
X99.0Y-104.5
X108.5Y-122.0
X119.5Y-42.5
X119.5Y-44.0
X122.025Y-68.0
X122.025Y-126.0
X123.0Y-44.5
X123.5Y-43.0
X138.5Y-107.0
X145.5Y-99.0
X146.5Y-45.5
X146.5Y-47.0
X146.5Y-48.5
X147.5Y-58.5
X150.5Y-109.0
X155.0Y-64.5
X155.0Y-69.0
X156.5Y-62.5
X157.0Y-64.5
X158.5Y-70.1
X162.0Y-70.1
X163.5Y-65.5
X164.0Y-49.0
X166.5Y-64.5
X167.5Y-104.5
X169.0Y-74.0
X169.5Y-40.5
X170.0Y-43.0
X170.0Y-44.5
X171.0Y-131.0
X172.0Y-134.0
X173.0Y-46.5
X175.5Y-48.0
X176.0Y-42.5
X176.0Y-89.5
X176.0Y-127.5
X177.55Y-44.5
X180.0Y-70.0
X181.7Y-62.3
X181.7Y-134.6
X182.0Y-84.5
X182.0Y-128.5
X182.5Y-70.0
X183.0Y-129.5
X190.5Y-126.5
T2
X156.1Y-41.27
X156.1Y-42.67
X156.8Y-40.57
X156.8Y-41.97
X156.8Y-43.37
X157.475Y-41.27
X157.475Y-42.67
X158.2Y-40.57
X158.2Y-41.97
X158.2Y-43.37
X158.9Y-41.27
X158.9Y-42.67
T3
X192.3Y-94.0
X192.8Y-103.5
T4
X196.99Y-66.665
X196.99Y-69.205
X196.99Y-71.745
X196.99Y-74.285
X196.99Y-83.665
X196.99Y-86.205
X196.99Y-88.745
X196.99Y-91.285
X199.53Y-67.935
X199.53Y-70.475
X199.53Y-73.015
X199.53Y-75.555
X199.53Y-84.935
X199.53Y-87.475
X199.53Y-90.015
X199.53Y-92.555
T5
X185.0Y-94.46
X185.0Y-97.0
X185.0Y-99.54
T6
X91.0Y-79.5
X91.0Y-86.5
X91.0Y-101.5
X91.0Y-108.5
X91.0Y-121.5
X91.0Y-128.5
T7
X61.0Y-109.5
X61.0Y-117.0
X194.8Y-43.25
X194.8Y-46.75
X194.8Y-51.75
X194.8Y-55.25
X194.8Y-61.0
X194.8Y-64.5
X194.8Y-68.0
X194.8Y-108.5
X194.8Y-112.0
X194.8Y-115.5
T8
X65.0Y-53.0
X65.0Y-63.0
X91.0Y-53.0
X91.0Y-63.0
X196.3Y-124.0
X196.3Y-134.0
T9
X71.0Y-101.5
X71.0Y-108.5
X71.0Y-120.5
X71.0Y-125.0
X71.0Y-129.5
T10
X60.5Y-78.0
X60.5Y-98.0
X71.0Y-79.5
X71.0Y-86.5
T11
X49.8Y-44.88
X49.8Y-52.5
X49.8Y-60.12
X49.8Y-79.88
X49.8Y-87.5
X49.8Y-95.12
X49.8Y-111.07
X49.8Y-118.69
X49.8Y-126.31
X49.8Y-133.93
T12
X84.0Y-33.4
X84.0Y-34.7
X84.0Y-36.0
X84.0Y-37.3
X84.0Y-138.7
X84.0Y-140.0
X84.0Y-141.3
T13
X205.88Y-65.395
X205.88Y-76.825
X205.88Y-82.395
X205.88Y-93.825
M30
