M48
; DRILL file KiCad 10.0.4 date 2026-06-25T12:03:32
; FORMAT={-:-/ absolute / metric / decimal}
; #@! TF.CreationDate,2026-06-25T12:03:32+02:00
; #@! TF.GenerationSoftware,Kicad,Pcbnew,10.0.4
; #@! TF.FileFunction,MixedPlating,1,2
FMAT,2
METRIC
; #@! TA.AperFunction,Plated,PTH,ComponentDrill
T1C0.700
; #@! TA.AperFunction,Plated,PTH,ComponentDrill
T2C0.800
; #@! TA.AperFunction,Plated,PTH,ComponentDrill
T3C0.900
; #@! TA.AperFunction,Plated,PTH,ComponentDrill
T4C1.000
; #@! TA.AperFunction,Plated,PTH,ComponentDrill
T5C1.100
; #@! TA.AperFunction,Plated,PTH,ComponentDrill
T6C1.200
; #@! TA.AperFunction,Plated,PTH,ComponentDrill
T7C1.300
; #@! TA.AperFunction,Plated,PTH,ComponentDrill
T8C1.400
%
G90
G05
T1
X194.8Y-76.82
X194.8Y-79.36
X194.8Y-81.91
X194.8Y-84.45
X194.8Y-93.82
X194.8Y-96.36
X194.8Y-98.91
X194.8Y-101.45
X196.8Y-75.55
X196.8Y-78.09
X196.8Y-80.64
X196.8Y-83.18
X196.8Y-92.55
X196.8Y-95.09
X196.8Y-97.64
X196.8Y-100.18
T2
X161.46Y-94.0
X164.0Y-94.0
X166.54Y-94.0
T3
X127.8Y-79.0
X127.8Y-86.0
X127.8Y-101.0
X127.8Y-108.0
X127.8Y-121.0
X127.8Y-128.0
T4
X71.05Y-71.5
X78.55Y-71.5
X194.8Y-43.25
X194.8Y-46.75
X194.8Y-51.75
X194.8Y-55.25
X194.8Y-61.0
X194.8Y-64.5
X194.8Y-68.0
X194.8Y-108.5
X194.8Y-112.0
X194.8Y-115.5
T5
X101.8Y-52.5
X101.8Y-62.5
X127.8Y-52.5
X127.8Y-62.5
X196.3Y-124.0
X196.3Y-134.0
T6
X107.8Y-101.0
X107.8Y-108.0
X107.8Y-120.0
X107.8Y-124.5
X107.8Y-129.0
T7
X64.8Y-44.88
X84.8Y-44.88
X107.8Y-79.0
X107.8Y-86.0
T8
X49.8Y-44.88
X49.8Y-52.5
X49.8Y-60.12
X49.8Y-79.88
X49.8Y-87.5
X49.8Y-95.12
X49.8Y-111.07
X49.8Y-118.69
X49.8Y-126.31
X49.8Y-133.93
M30
