M48
; DRILL file KiCad 10.0.4 date 2026-07-09T13:00:24
; FORMAT={-:-/ absolute / metric / decimal}
; #@! TF.CreationDate,2026-07-09T13:00:24+02:00
; #@! TF.GenerationSoftware,Kicad,Pcbnew,10.0.4
; #@! TF.FileFunction,MixedPlating,1,2
FMAT,2
METRIC
; #@! TA.AperFunction,Plated,PTH,ComponentDrill
T1C0.200
; #@! TA.AperFunction,Plated,PTH,ViaDrill
T2C0.300
; #@! TA.AperFunction,Plated,PTH,ComponentDrill
T3C0.600
; #@! TA.AperFunction,Plated,PTH,ComponentDrill
T4C0.760
; #@! TA.AperFunction,Plated,PTH,ComponentDrill
T5C0.800
; #@! TA.AperFunction,Plated,PTH,ComponentDrill
T6C1.000
; #@! TA.AperFunction,Plated,PTH,ComponentDrill
T7C1.170
; #@! TA.AperFunction,Plated,PTH,ComponentDrill
T8C1.300
; #@! TA.AperFunction,NonPlated,NPTH,ComponentDrill
T9C0.650
; #@! TA.AperFunction,NonPlated,NPTH,ComponentDrill
T10C0.700
; #@! TA.AperFunction,NonPlated,NPTH,ComponentDrill
T11C3.200
%
G90
G05
T1
X151.8Y-40.96
X151.8Y-42.36
X152.5Y-40.26
X152.5Y-41.66
X152.5Y-43.06
X153.2Y-40.96
X153.2Y-42.36
X153.9Y-40.26
X153.9Y-41.66
X153.9Y-43.06
X154.6Y-40.96
X154.6Y-42.36
T2
X98.9Y-118.0
X100.0Y-76.3
X100.8Y-97.9
X101.0Y-83.7
X101.4Y-126.8
X101.8Y-105.8
X104.4Y-83.9
X105.1Y-106.4
X105.4Y-127.3
X106.8Y-127.3
X106.9Y-106.4
X107.2Y-83.9
X117.7Y-42.5
X118.6Y-71.6
X123.1Y-43.5
X123.7Y-128.0
X124.2Y-37.4
X124.2Y-48.1
X124.2Y-64.4
X124.7Y-44.8
X125.0Y-64.4
X125.788Y-64.535
X125.8Y-45.5
X126.0Y-78.6
X126.796Y-78.676
X129.3Y-78.2
X129.321Y-77.0
X131.3Y-51.4
X131.4Y-46.9
X131.7Y-44.1
X131.784Y-42.184
X138.6Y-52.0
X139.1Y-49.0
X139.2Y-46.8
X140.8Y-65.7
X140.9Y-61.1
X141.8Y-38.2
X142.06Y-63.6
X142.4Y-127.9
X142.636Y-64.464
X143.4Y-76.0
X143.844Y-41.444
X144.0Y-42.3
X144.4Y-43.2
X144.459Y-46.759
X146.4Y-54.5
X147.5Y-54.8
X147.524Y-55.624
X150.2Y-57.2
X150.5Y-107.4
X151.5Y-54.8
X152.7Y-55.5
X154.1Y-56.4
X155.3Y-59.4
X155.3Y-62.4
X155.3Y-72.8
X155.935Y-54.7
X155.935Y-55.5
X155.935Y-56.3
X155.935Y-57.1
X156.7Y-53.8
X157.2Y-63.9
X157.9Y-54.2
X157.9Y-58.3
X158.711Y-70.889
X158.736Y-60.964
X158.8Y-116.1
X161.0Y-118.4
X165.3Y-72.8
X165.3Y-74.8
X165.4Y-65.2
X165.5Y-35.1
X165.5Y-62.8
X165.7Y-36.6
X165.7Y-120.7
X165.9Y-45.3
X166.689Y-45.432
X167.5Y-45.4
X168.3Y-45.4
X168.9Y-50.4
X169.2Y-45.3
X169.2Y-49.3
X169.8Y-48.1
X170.3Y-126.9
X170.405Y-126.107
X170.7Y-46.8
X174.0Y-85.5
X176.5Y-126.1
X176.5Y-126.9
X177.8Y-130.9
X179.6Y-41.4
X179.6Y-45.2
X179.6Y-51.3
X179.6Y-55.3
X180.2Y-38.4
X180.3Y-42.0
X180.3Y-52.0
X180.9Y-42.7
X180.9Y-52.6
X181.4Y-53.9
X181.5Y-44.0
X184.07Y-133.47
X187.7Y-125.543
X188.7Y-54.5
X189.9Y-47.1
X190.142Y-126.963
X190.2Y-128.35
X190.4Y-125.35
X190.504Y-126.25
T4
X186.11Y-75.34
X186.11Y-77.88
X186.11Y-80.42
X186.11Y-82.96
X186.11Y-92.34
X186.11Y-94.88
X186.11Y-97.42
X186.11Y-99.96
X188.65Y-76.61
X188.65Y-79.15
X188.65Y-81.69
X188.65Y-84.23
X188.65Y-93.61
X188.65Y-96.15
X188.65Y-98.69
X188.65Y-101.23
T5
X43.8Y-72.7
X45.2Y-65.2
T6
X67.1Y-57.3
X67.1Y-63.3
X86.05Y-76.95
X86.05Y-88.95
X86.05Y-98.95
X86.05Y-110.95
X86.05Y-118.95
X86.05Y-130.95
X100.7Y-51.3
X100.7Y-69.3
X133.9Y-36.68
X133.9Y-39.22
X133.9Y-41.76
X133.9Y-44.3
X133.9Y-46.84
X133.9Y-49.38
X133.9Y-51.92
X133.9Y-54.46
X133.9Y-57.0
X133.9Y-59.54
X136.44Y-36.68
X136.44Y-39.22
X136.44Y-41.76
X136.44Y-44.3
X136.44Y-46.84
X136.44Y-49.38
X136.44Y-51.92
X136.44Y-54.46
X136.44Y-57.0
X136.44Y-59.54
X176.1Y-93.82
X176.1Y-96.36
X176.1Y-98.9
X194.8Y-43.25
X194.8Y-46.75
X194.8Y-51.75
X194.8Y-55.25
X194.8Y-61.0
X194.8Y-64.5
X194.8Y-68.0
X194.8Y-108.5
X194.8Y-112.0
X194.8Y-115.5
T7
X54.1Y-50.1
X54.1Y-67.9
X59.1Y-50.1
X59.1Y-67.9
T8
X44.6Y-87.0
X44.6Y-92.08
X44.6Y-97.16
X44.7Y-108.9
X44.7Y-113.98
X44.7Y-119.06
X44.7Y-124.14
X44.9Y-46.82
X44.9Y-51.9
X44.9Y-56.98
X73.8Y-89.0
X73.8Y-111.0
X73.8Y-131.0
X73.85Y-76.95
X73.85Y-98.95
X73.85Y-118.95
X88.0Y-83.0
X88.0Y-105.0
X88.0Y-125.0
T9
X193.7Y-124.21
X193.7Y-129.99
T10
X83.5Y-33.2
X83.5Y-34.5
X83.5Y-35.8
X83.5Y-37.1
X83.5Y-138.5
X83.5Y-139.8
X83.5Y-141.1
T11
X44.5Y-37.0
X45.9Y-136.6
X194.5Y-137.9
X195.0Y-74.07
X195.0Y-85.5
X195.0Y-91.07
X195.0Y-102.5
X195.5Y-36.2
T3
X192.62Y-122.78G85X193.72Y-122.78
G05
X192.62Y-131.42G85X193.72Y-131.42
G05
X197.05Y-122.78G85X197.65Y-122.78
G05
X197.05Y-131.42G85X197.65Y-131.42
G05
M30
