G04 #@! TF.GenerationSoftware,KiCad,Pcbnew,10.0.4*
G04 #@! TF.CreationDate,2026-06-29T18:56:28+02:00*
G04 #@! TF.ProjectId,pumpengruppe-rs485,70756d70-656e-4677-9275-7070652d7273,A-preliminary*
G04 #@! TF.SameCoordinates,Original*
G04 #@! TF.FileFunction,Copper,L2,Bot*
G04 #@! TF.FilePolarity,Positive*
%FSLAX46Y46*%
G04 Gerber Fmt 4.6, Leading zero omitted, Abs format (unit mm)*
G04 Created by KiCad (PCBNEW 10.0.4) date 2026-06-29 18:56:28*
%MOMM*%
%LPD*%
G01*
G04 APERTURE LIST*
G04 #@! TA.AperFunction,ComponentPad*
%ADD10C,2.800000*%
G04 #@! TD*
G04 #@! TA.AperFunction,ComponentPad*
%ADD11C,3.000000*%
G04 #@! TD*
G04 #@! TA.AperFunction,ComponentPad*
%ADD12R,3.000000X3.000000*%
G04 #@! TD*
G04 #@! TA.AperFunction,ComponentPad*
%ADD13C,2.000000*%
G04 #@! TD*
G04 #@! TA.AperFunction,ComponentPad*
%ADD14C,2.600000*%
G04 #@! TD*
G04 #@! TA.AperFunction,HeatsinkPad*
%ADD15C,0.600000*%
G04 #@! TD*
G04 #@! TA.AperFunction,ComponentPad*
%ADD16C,2.400000*%
G04 #@! TD*
G04 #@! TA.AperFunction,ComponentPad*
%ADD17C,1.600000*%
G04 #@! TD*
G04 #@! TA.AperFunction,ComponentPad*
%ADD18R,1.500000X1.500000*%
G04 #@! TD*
G04 #@! TA.AperFunction,ComponentPad*
%ADD19C,1.500000*%
G04 #@! TD*
G04 #@! TA.AperFunction,ViaPad*
%ADD20C,0.600000*%
G04 #@! TD*
G04 #@! TA.AperFunction,Conductor*
%ADD21C,0.800000*%
G04 #@! TD*
G04 #@! TA.AperFunction,Conductor*
%ADD22C,0.200000*%
G04 #@! TD*
G04 #@! TA.AperFunction,Conductor*
%ADD23C,1.500000*%
G04 #@! TD*
G04 #@! TA.AperFunction,Conductor*
%ADD24C,0.400000*%
G04 #@! TD*
G04 APERTURE END LIST*
D10*
G04 #@! TO.P,X1,1,L*
G04 #@! TO.N,L_IN*
X49800000Y-44880000D03*
G04 #@! TO.P,X1,2,N*
G04 #@! TO.N,N*
X49800000Y-52500000D03*
G04 #@! TO.P,X1,3,PE*
G04 #@! TO.N,PE*
X49800000Y-60120000D03*
G04 #@! TD*
D11*
G04 #@! TO.P,F1,1,1*
G04 #@! TO.N,L_IN*
X60500000Y-78000000D03*
G04 #@! TO.P,F1,2,2*
G04 #@! TO.N,L_FUSED*
X60500000Y-98000000D03*
G04 #@! TD*
D12*
G04 #@! TO.P,PSU1,1,AC/L*
G04 #@! TO.N,L_FUSED*
X64000000Y-58000000D03*
D11*
G04 #@! TO.P,PSU1,2,AC/N*
G04 #@! TO.N,N*
X64000000Y-68750000D03*
G04 #@! TO.P,PSU1,3,-Vout*
G04 #@! TO.N,GND*
X102500000Y-68750000D03*
G04 #@! TO.P,PSU1,4,+Vout*
G04 #@! TO.N,+5V*
X102500000Y-60750000D03*
G04 #@! TD*
D10*
G04 #@! TO.P,X2,1,L_SW*
G04 #@! TO.N,L_PUMP*
X49800000Y-79880000D03*
G04 #@! TO.P,X2,2,N*
G04 #@! TO.N,N*
X49800000Y-87500000D03*
G04 #@! TO.P,X2,3,PE*
G04 #@! TO.N,PE*
X49800000Y-95120000D03*
G04 #@! TD*
G04 #@! TO.P,X3,1,L_AUF*
G04 #@! TO.N,L_OPEN*
X49800000Y-111070000D03*
G04 #@! TO.P,X3,2,L_ZU*
G04 #@! TO.N,L_CLOSE*
X49800000Y-118690000D03*
G04 #@! TO.P,X3,3,N*
G04 #@! TO.N,N*
X49800000Y-126310000D03*
G04 #@! TO.P,X3,4,PE*
G04 #@! TO.N,PE*
X49800000Y-133930000D03*
G04 #@! TD*
G04 #@! TO.P,K1,1,COM*
G04 #@! TO.N,L_FUSED*
X71000000Y-79500000D03*
G04 #@! TO.P,K1,2,NO*
G04 #@! TO.N,L_PUMP*
X71000000Y-86500000D03*
D13*
G04 #@! TO.P,K1,A1,A1*
G04 #@! TO.N,+5V*
X91000000Y-79500000D03*
G04 #@! TO.P,K1,A2,A2*
G04 #@! TO.N,PUMP_COIL_L*
X91000000Y-86500000D03*
G04 #@! TD*
D14*
G04 #@! TO.P,K2,1,COM*
G04 #@! TO.N,L_FUSED*
X71000000Y-101500000D03*
G04 #@! TO.P,K2,2,NO*
G04 #@! TO.N,MIX_L_EN*
X71000000Y-108500000D03*
D13*
G04 #@! TO.P,K2,A1,A1*
G04 #@! TO.N,+5V*
X91000000Y-101500000D03*
G04 #@! TO.P,K2,A2,A2*
G04 #@! TO.N,MIX_ENABLE_COIL_L*
X91000000Y-108500000D03*
G04 #@! TD*
G04 #@! TO.P,K3,A1,A1*
G04 #@! TO.N,+5V*
X91000000Y-121500000D03*
G04 #@! TO.P,K3,A2,A2*
G04 #@! TO.N,MIX_DIR_COIL_L*
X91000000Y-128500000D03*
D14*
G04 #@! TO.P,K3,C,COM*
G04 #@! TO.N,MIX_L_EN*
X71000000Y-120500000D03*
G04 #@! TO.P,K3,NC,NC_ZU*
G04 #@! TO.N,L_CLOSE*
X71000000Y-125000000D03*
G04 #@! TO.P,K3,NO,NO_AUF*
G04 #@! TO.N,L_OPEN*
X71000000Y-129500000D03*
G04 #@! TD*
D15*
G04 #@! TO.P,U1,39,GND*
G04 #@! TO.N,GND*
X156100000Y-41270000D03*
X156100000Y-42670000D03*
X156800000Y-40570000D03*
X156800000Y-41970000D03*
X156800000Y-43370000D03*
X157475000Y-41270000D03*
X157475000Y-42670000D03*
X158200000Y-40570000D03*
X158200000Y-41970000D03*
X158200000Y-43370000D03*
X158900000Y-41270000D03*
X158900000Y-42670000D03*
G04 #@! TD*
D13*
G04 #@! TO.P,X4,1,+*
G04 #@! TO.N,RTD_VL_P*
X194800000Y-46750000D03*
G04 #@! TO.P,X4,2,-*
G04 #@! TO.N,RTD_VL_N*
X194800000Y-43250000D03*
G04 #@! TD*
G04 #@! TO.P,X5,1,+*
G04 #@! TO.N,RTD_RL_P*
X194800000Y-55250000D03*
G04 #@! TO.P,X5,2,-*
G04 #@! TO.N,RTD_RL_N*
X194800000Y-51750000D03*
G04 #@! TD*
G04 #@! TO.P,J3,1,D+*
G04 #@! TO.N,RS485_A*
X194800000Y-68000000D03*
G04 #@! TO.P,J3,2,D-*
G04 #@! TO.N,RS485_B*
X194800000Y-64500000D03*
G04 #@! TO.P,J3,3,GND*
G04 #@! TO.N,RS485_GND*
X194800000Y-61000000D03*
G04 #@! TD*
G04 #@! TO.P,J4,1,D+*
G04 #@! TO.N,RS485_A*
X194800000Y-115500000D03*
G04 #@! TO.P,J4,2,D-*
G04 #@! TO.N,RS485_B*
X194800000Y-112000000D03*
G04 #@! TO.P,J4,3,GND*
G04 #@! TO.N,RS485_GND*
X194800000Y-108500000D03*
G04 #@! TD*
D16*
G04 #@! TO.P,X6,SH,SHIELD*
G04 #@! TO.N,GND*
X196300000Y-134000000D03*
X196300000Y-124000000D03*
G04 #@! TD*
D17*
G04 #@! TO.P,JP1,1,1*
G04 #@! TO.N,RS485_TERM*
X176000000Y-99040000D03*
G04 #@! TO.P,JP1,2,2*
G04 #@! TO.N,RS485_B*
X176000000Y-96500000D03*
G04 #@! TO.P,JP1,3,PARK_NC*
G04 #@! TO.N,N/C*
X176000000Y-93960000D03*
G04 #@! TD*
D13*
G04 #@! TO.P,RV1,1,1*
G04 #@! TO.N,L_FUSED*
X61000000Y-109500000D03*
G04 #@! TO.P,RV1,2,2*
G04 #@! TO.N,N*
X61000000Y-117000000D03*
G04 #@! TD*
D18*
G04 #@! TO.P,J1,1,BUS_5V*
G04 #@! TO.N,BUS_5V*
X188650000Y-84230000D03*
D19*
G04 #@! TO.P,J1,2,BUS_5V*
X186110000Y-82960000D03*
G04 #@! TO.P,J1,3,3*
G04 #@! TO.N,N/C*
X188650000Y-81690000D03*
G04 #@! TO.P,J1,4,RS485_A*
G04 #@! TO.N,RS485_A*
X186110000Y-80420000D03*
G04 #@! TO.P,J1,5,RS485_B*
G04 #@! TO.N,RS485_B*
X188650000Y-79150000D03*
G04 #@! TO.P,J1,6,6*
G04 #@! TO.N,N/C*
X186110000Y-77880000D03*
G04 #@! TO.P,J1,7,RS485_GND*
G04 #@! TO.N,RS485_GND*
X188650000Y-76610000D03*
G04 #@! TO.P,J1,8,RS485_GND*
X186110000Y-75340000D03*
G04 #@! TD*
D18*
G04 #@! TO.P,J2,1,BUS_5V*
G04 #@! TO.N,BUS_5V*
X188650000Y-101230000D03*
D19*
G04 #@! TO.P,J2,2,BUS_5V*
X186110000Y-99960000D03*
G04 #@! TO.P,J2,3,3*
G04 #@! TO.N,N/C*
X188650000Y-98690000D03*
G04 #@! TO.P,J2,4,RS485_A*
G04 #@! TO.N,RS485_A*
X186110000Y-97420000D03*
G04 #@! TO.P,J2,5,RS485_B*
G04 #@! TO.N,RS485_B*
X188650000Y-96150000D03*
G04 #@! TO.P,J2,6,6*
G04 #@! TO.N,N/C*
X186110000Y-94880000D03*
G04 #@! TO.P,J2,7,RS485_GND*
G04 #@! TO.N,RS485_GND*
X188650000Y-93610000D03*
G04 #@! TO.P,J2,8,RS485_GND*
X186110000Y-92340000D03*
G04 #@! TD*
D20*
G04 #@! TO.N,+5V*
X169000000Y-74000000D03*
X156500000Y-62500000D03*
X168500000Y-83500000D03*
X147500000Y-58500000D03*
X123500000Y-43000000D03*
X119500000Y-42500000D03*
G04 #@! TO.N,GND*
X180000000Y-70000000D03*
X108500000Y-122000000D03*
X138500000Y-107000000D03*
X122025000Y-126000000D03*
X122025000Y-68000000D03*
X182500000Y-70000000D03*
X171000000Y-132000000D03*
X162000000Y-70100000D03*
X163500000Y-65500000D03*
X166500000Y-64500000D03*
X155000000Y-64500000D03*
X150500000Y-109000000D03*
X157000000Y-64500000D03*
G04 #@! TO.N,+3V3*
X181700000Y-62300000D03*
X175500000Y-48000000D03*
G04 #@! TO.N,PUMP_DRV*
X95500000Y-80500000D03*
X146500000Y-45500000D03*
G04 #@! TO.N,MIX_ENABLE_DRV*
X146500000Y-47000000D03*
X99000000Y-104500000D03*
G04 #@! TO.N,MIX_DIR_DRV*
X96000000Y-122000000D03*
X146500000Y-48500000D03*
G04 #@! TO.N,RS485_DE*
X164000000Y-49000000D03*
X145500000Y-99000000D03*
G04 #@! TO.N,SPI_SCK*
X170000000Y-44500000D03*
X173000000Y-46500000D03*
G04 #@! TO.N,SPI_MISO*
X170000000Y-43000000D03*
X177550000Y-44500000D03*
X176000000Y-42500000D03*
G04 #@! TO.N,UART_RX*
X172000000Y-134000000D03*
X176000000Y-127500000D03*
X167500000Y-104500000D03*
X169500000Y-40500000D03*
G04 #@! TO.N,RS485_A*
X170500000Y-110000000D03*
X168500000Y-110000000D03*
G04 #@! TO.N,USB_VBUS*
X181700000Y-134600000D03*
X183000000Y-129500000D03*
G04 #@! TO.N,USB_CC1*
X182000000Y-128500000D03*
X190500000Y-126500000D03*
G04 #@! TO.N,BUS_5V*
X174000000Y-85500000D03*
G04 #@! TO.N,RGB_DOUT_4*
X123000000Y-44500000D03*
X155000000Y-69000000D03*
X158500000Y-70100000D03*
X119500000Y-44000000D03*
G04 #@! TD*
G04 #@! TO.N,+5V*
D21*
X168500000Y-74500000D02*
X169000000Y-74000000D01*
X183000000Y-68000000D02*
X183000000Y-35000000D01*
X151500000Y-62500000D02*
X147500000Y-58500000D01*
X184000000Y-68000000D02*
X183000000Y-68000000D01*
X120000000Y-43000000D02*
X119500000Y-42500000D01*
X184000000Y-82500000D02*
X184000000Y-68000000D01*
X183000000Y-35000000D02*
X91000000Y-35000000D01*
X91000000Y-35000000D02*
X91000000Y-49250000D01*
X156500000Y-62500000D02*
X151500000Y-62500000D01*
X168500000Y-83500000D02*
X168500000Y-74500000D01*
X168500000Y-83500000D02*
X183000000Y-83500000D01*
X91000000Y-49250000D02*
X102500000Y-60750000D01*
X183000000Y-83500000D02*
X184000000Y-82500000D01*
X123500000Y-43000000D02*
X120000000Y-43000000D01*
G04 #@! TO.N,GND*
D22*
X163500000Y-68600000D02*
X163500000Y-65500000D01*
D21*
X196300000Y-124000000D02*
X196300000Y-134000000D01*
X122025000Y-126000000D02*
X122025000Y-139000000D01*
X122025000Y-139000000D02*
X171000000Y-139000000D01*
X171000000Y-139000000D02*
X196300000Y-139000000D01*
X196300000Y-139000000D02*
X196300000Y-134000000D01*
D22*
X150500000Y-109000000D02*
X142000000Y-109000000D01*
X171000000Y-132000000D02*
X171000000Y-129500000D01*
X165500000Y-65500000D02*
X166500000Y-64500000D01*
X162000000Y-70100000D02*
X163500000Y-68600000D01*
D21*
X171000000Y-132000000D02*
X171000000Y-139000000D01*
X140000000Y-107000000D02*
X138500000Y-107000000D01*
X108500000Y-122000000D02*
X108500000Y-134000000D01*
X108500000Y-134000000D02*
X113500000Y-139000000D01*
D22*
X171000000Y-129500000D02*
X150500000Y-109000000D01*
X163500000Y-65500000D02*
X165500000Y-65500000D01*
X142000000Y-109000000D02*
X140000000Y-107000000D01*
D21*
X113500000Y-139000000D02*
X122025000Y-139000000D01*
D22*
X180000000Y-70000000D02*
X182500000Y-70000000D01*
X155000000Y-64500000D02*
X157000000Y-64500000D01*
G04 #@! TO.N,L_IN*
D23*
X60500000Y-55580000D02*
X60500000Y-78000000D01*
X49800000Y-44880000D02*
X60500000Y-55580000D01*
G04 #@! TO.N,PE*
X43000000Y-127130000D02*
X49800000Y-133930000D01*
X43000000Y-101920000D02*
X43000000Y-127130000D01*
X46850000Y-92170000D02*
X49800000Y-95120000D01*
X49800000Y-95120000D02*
X43000000Y-101920000D01*
X49800000Y-60120000D02*
X46850000Y-63070000D01*
X46850000Y-63070000D02*
X46850000Y-92170000D01*
G04 #@! TO.N,L_PUMP*
X49800000Y-79880000D02*
X56420000Y-86500000D01*
X56420000Y-86500000D02*
X71000000Y-86500000D01*
G04 #@! TO.N,L_CLOSE*
X56110000Y-125000000D02*
X71000000Y-125000000D01*
X71000000Y-125000000D02*
X70500000Y-125000000D01*
X49800000Y-118690000D02*
X56110000Y-125000000D01*
G04 #@! TO.N,MIX_L_EN*
X71000000Y-108500000D02*
X71000000Y-120500000D01*
G04 #@! TO.N,+3V3*
D22*
X175500000Y-48000000D02*
X180000000Y-48000000D01*
D24*
X181700000Y-49700000D02*
X181700000Y-62300000D01*
D22*
X180000000Y-48000000D02*
X181700000Y-49700000D01*
G04 #@! TO.N,PUMP_DRV*
X111500000Y-80500000D02*
X95500000Y-80500000D01*
X146500000Y-45500000D02*
X111500000Y-80500000D01*
G04 #@! TO.N,MIX_ENABLE_DRV*
X99000000Y-94500000D02*
X146500000Y-47000000D01*
X99000000Y-104500000D02*
X99000000Y-94500000D01*
G04 #@! TO.N,MIX_DIR_DRV*
X96000000Y-122000000D02*
X146500000Y-71500000D01*
X146500000Y-71500000D02*
X146500000Y-48500000D01*
G04 #@! TO.N,RS485_DE*
X164000000Y-49000000D02*
X162325735Y-47325735D01*
X159100000Y-85400000D02*
X145500000Y-99000000D01*
X162325735Y-47325735D02*
X161825735Y-47325735D01*
X161825735Y-47325735D02*
X159100000Y-50051471D01*
X159100000Y-50051471D02*
X159100000Y-85400000D01*
G04 #@! TO.N,SPI_SCK*
X172000000Y-46500000D02*
X170000000Y-44500000D01*
X173000000Y-46500000D02*
X172000000Y-46500000D01*
G04 #@! TO.N,SPI_MISO*
X176000000Y-42500000D02*
X170500000Y-42500000D01*
X176000000Y-42950000D02*
X176000000Y-42500000D01*
X177550000Y-44500000D02*
X176000000Y-42950000D01*
X170500000Y-42500000D02*
X170000000Y-43000000D01*
G04 #@! TO.N,UART_RX*
X167500000Y-42500000D02*
X167500000Y-104500000D01*
X169500000Y-40500000D02*
X167500000Y-42500000D01*
X176000000Y-127500000D02*
X176000000Y-113000000D01*
X176000000Y-113000000D02*
X167500000Y-104500000D01*
X172000000Y-134000000D02*
X172000000Y-131500000D01*
X172000000Y-131500000D02*
X176000000Y-127500000D01*
G04 #@! TO.N,RS485_A*
X187160000Y-96370000D02*
X186110000Y-97420000D01*
X189700000Y-83180000D02*
X189700000Y-90674925D01*
X187160000Y-93214925D02*
X187160000Y-96370000D01*
X170500000Y-110000000D02*
X168500000Y-110000000D01*
X186110000Y-97814925D02*
X188475075Y-100180000D01*
X186110000Y-97420000D02*
X186110000Y-97814925D01*
X189700000Y-90674925D02*
X187160000Y-93214925D01*
X189700000Y-110400000D02*
X194800000Y-115500000D01*
X187600000Y-83180000D02*
X189700000Y-83180000D01*
X186110000Y-80420000D02*
X187600000Y-81910000D01*
X188475075Y-100180000D02*
X189700000Y-100180000D01*
X187600000Y-81910000D02*
X187600000Y-83180000D01*
X189700000Y-100180000D02*
X189700000Y-110400000D01*
G04 #@! TO.N,RS485_B*
X188650000Y-96150000D02*
X193050000Y-100550000D01*
X193050000Y-100550000D02*
X193050000Y-110250000D01*
X190100000Y-94700000D02*
X188650000Y-96150000D01*
X188650000Y-79150000D02*
X190100000Y-80600000D01*
X190100000Y-80600000D02*
X190100000Y-94700000D01*
X193050000Y-110250000D02*
X194800000Y-112000000D01*
G04 #@! TO.N,USB_VBUS*
D21*
X183000000Y-129500000D02*
X183000000Y-133300000D01*
X183000000Y-133300000D02*
X181700000Y-134600000D01*
G04 #@! TO.N,USB_CC1*
D22*
X182000000Y-128500000D02*
X182000000Y-128300000D01*
X183800000Y-126500000D02*
X190500000Y-126500000D01*
X182000000Y-128300000D02*
X183800000Y-126500000D01*
G04 #@! TO.N,BUS_5V*
D21*
X183000000Y-85500000D02*
X183000000Y-96850000D01*
X183000000Y-85500000D02*
X183570000Y-85500000D01*
X186270000Y-84230000D02*
X188650000Y-84230000D01*
X183825000Y-97675000D02*
X186110000Y-99960000D01*
X183000000Y-96850000D02*
X183825000Y-97675000D01*
X174000000Y-85500000D02*
X183000000Y-85500000D01*
X183570000Y-85500000D02*
X185000000Y-85500000D01*
X187380000Y-101230000D02*
X188650000Y-101230000D01*
X185000000Y-85500000D02*
X186270000Y-84230000D01*
X183825000Y-97675000D02*
X187380000Y-101230000D01*
X183570000Y-85500000D02*
X186110000Y-82960000D01*
G04 #@! TO.N,RGB_DOUT_4*
D22*
X156100000Y-70100000D02*
X155000000Y-69000000D01*
X120000000Y-44500000D02*
X119500000Y-44000000D01*
X158500000Y-70100000D02*
X156100000Y-70100000D01*
X123000000Y-44500000D02*
X120000000Y-44500000D01*
G04 #@! TD*
M02*
