G04 #@! TF.GenerationSoftware,KiCad,Pcbnew,10.0.4*
G04 #@! TF.CreationDate,2026-06-26T22:22:03+02:00*
G04 #@! TF.ProjectId,pumpengruppe-rs485,70756d70-656e-4677-9275-7070652d7273,A-preliminary*
G04 #@! TF.SameCoordinates,Original*
G04 #@! TF.FileFunction,Paste,Top*
G04 #@! TF.FilePolarity,Positive*
%FSLAX46Y46*%
G04 Gerber Fmt 4.6, Leading zero omitted, Abs format (unit mm)*
G04 Created by KiCad (PCBNEW 10.0.4) date 2026-06-26 22:22:03*
%MOMM*%
%LPD*%
G01*
G04 APERTURE LIST*
G04 Aperture macros list*
%AMRoundRect*
0 Rectangle with rounded corners*
0 $1 Rounding radius*
0 $2 $3 $4 $5 $6 $7 $8 $9 X,Y pos of 4 corners*
0 Add a 4 corners polygon primitive as box body*
4,1,4,$2,$3,$4,$5,$6,$7,$8,$9,$2,$3,0*
0 Add four circle primitives for the rounded corners*
1,1,$1+$1,$2,$3*
1,1,$1+$1,$4,$5*
1,1,$1+$1,$6,$7*
1,1,$1+$1,$8,$9*
0 Add four rect primitives between the rounded corners*
20,1,$1+$1,$2,$3,$4,$5,0*
20,1,$1+$1,$4,$5,$6,$7,0*
20,1,$1+$1,$6,$7,$8,$9,0*
20,1,$1+$1,$8,$9,$2,$3,0*%
G04 Aperture macros list end*
%ADD10RoundRect,0.225000X-0.225000X-0.250000X0.225000X-0.250000X0.225000X0.250000X-0.225000X0.250000X0*%
%ADD11R,1.600000X0.850000*%
%ADD12R,1.500000X0.900000*%
%ADD13R,0.900000X1.500000*%
%ADD14R,0.900000X0.900000*%
%ADD15R,2.000000X1.200000*%
%ADD16R,2.500000X3.500000*%
%ADD17R,1.500000X0.550000*%
%ADD18R,1.500000X0.600000*%
%ADD19R,0.450000X1.200000*%
%ADD20R,1.000000X0.400000*%
%ADD21R,0.800000X0.800000*%
%ADD22R,1.200000X1.600000*%
%ADD23R,1.800000X2.500000*%
%ADD24R,1.200000X1.200000*%
%ADD25R,0.800000X0.550000*%
%ADD26R,0.800000X0.650000*%
%ADD27R,1.200000X0.900000*%
%ADD28RoundRect,0.200000X-0.200000X-0.275000X0.200000X-0.275000X0.200000X0.275000X-0.200000X0.275000X0*%
G04 APERTURE END LIST*
D10*
G04 #@! TO.C,C81*
X120475000Y-123225000D03*
X122025000Y-123225000D03*
G04 #@! TD*
G04 #@! TO.C,C62*
X155950000Y-61000000D03*
X157500000Y-61000000D03*
G04 #@! TD*
D11*
G04 #@! TO.C,D77*
X112500000Y-103150000D03*
X112500000Y-104900000D03*
X116000000Y-104900000D03*
X116000000Y-103150000D03*
G04 #@! TD*
D12*
G04 #@! TO.C,U1*
X150250000Y-34250000D03*
X150250000Y-35520000D03*
X150250000Y-36790000D03*
X150250000Y-38060000D03*
X150250000Y-39330000D03*
X150250000Y-40600000D03*
X150250000Y-41870000D03*
X150250000Y-43140000D03*
X150250000Y-44410000D03*
X150250000Y-45680000D03*
X150250000Y-46950000D03*
X150250000Y-48220000D03*
X150250000Y-49490000D03*
X150250000Y-50760000D03*
D13*
X153290000Y-52010000D03*
X154560000Y-52010000D03*
X155830000Y-52010000D03*
X157100000Y-52010000D03*
X158370000Y-52010000D03*
X159640000Y-52010000D03*
X160910000Y-52010000D03*
X162180000Y-52010000D03*
X163450000Y-52010000D03*
X164720000Y-52010000D03*
D12*
X167750000Y-50760000D03*
X167750000Y-49490000D03*
X167750000Y-48220000D03*
X167750000Y-46950000D03*
X167750000Y-45680000D03*
X167750000Y-44410000D03*
X167750000Y-43140000D03*
X167750000Y-41870000D03*
X167750000Y-40600000D03*
X167750000Y-39330000D03*
X167750000Y-38060000D03*
X167750000Y-36790000D03*
X167750000Y-35520000D03*
X167750000Y-34250000D03*
D14*
X156100000Y-40570000D03*
X156100000Y-41970000D03*
X156100000Y-43370000D03*
X157500000Y-40570000D03*
X157500000Y-41970000D03*
X157500000Y-43370000D03*
X158900000Y-40570000D03*
X158900000Y-41970000D03*
X158900000Y-43370000D03*
G04 #@! TD*
D15*
G04 #@! TO.C,U5*
X135200000Y-38700000D03*
D16*
X139800000Y-41000000D03*
D15*
X135200000Y-41000000D03*
X135200000Y-43300000D03*
G04 #@! TD*
D17*
G04 #@! TO.C,U2*
X186100000Y-46500000D03*
X186100000Y-45500000D03*
X186100000Y-39500000D03*
X175900000Y-39500000D03*
X175900000Y-40500000D03*
X175900000Y-41500000D03*
X175900000Y-46500000D03*
G04 #@! TD*
G04 #@! TO.C,U3*
X186100000Y-56500000D03*
X186100000Y-55500000D03*
X186100000Y-49500000D03*
X175900000Y-49500000D03*
X175900000Y-50500000D03*
X175900000Y-51500000D03*
X175900000Y-56500000D03*
G04 #@! TD*
D18*
G04 #@! TO.C,U4*
X142800000Y-102595000D03*
X142800000Y-103865000D03*
X142800000Y-105135000D03*
X142800000Y-106405000D03*
X148200000Y-106405000D03*
X148200000Y-105135000D03*
X148200000Y-103865000D03*
X148200000Y-102595000D03*
G04 #@! TD*
D19*
G04 #@! TO.C,X6*
X194300000Y-132000000D03*
X194300000Y-130500000D03*
X194300000Y-129000000D03*
X194300000Y-127500000D03*
X194300000Y-126000000D03*
X198300000Y-132000000D03*
X198300000Y-130500000D03*
X198300000Y-129000000D03*
X198300000Y-127500000D03*
X198300000Y-126000000D03*
G04 #@! TD*
D20*
G04 #@! TO.C,U6*
X184500000Y-126500000D03*
X184500000Y-125500000D03*
X184500000Y-124500000D03*
X184500000Y-123500000D03*
X178500000Y-126000000D03*
X178500000Y-125000000D03*
X178500000Y-124000000D03*
X178500000Y-123000000D03*
G04 #@! TD*
D21*
G04 #@! TO.C,R1*
X177300000Y-132000000D03*
X175700000Y-132000000D03*
G04 #@! TD*
G04 #@! TO.C,R2*
X184500000Y-132000000D03*
X182900000Y-132000000D03*
G04 #@! TD*
G04 #@! TO.C,R3*
X187300000Y-103000000D03*
X185700000Y-103000000D03*
G04 #@! TD*
D22*
G04 #@! TO.C,R40*
X75050000Y-41000000D03*
X71950000Y-41000000D03*
G04 #@! TD*
D23*
G04 #@! TO.C,F2*
X182600000Y-88000000D03*
X178400000Y-88000000D03*
G04 #@! TD*
D24*
G04 #@! TO.C,D4*
X135700000Y-125000000D03*
X139300000Y-125000000D03*
G04 #@! TD*
D21*
G04 #@! TO.C,R4*
X98350000Y-81450000D03*
X99950000Y-81450000D03*
G04 #@! TD*
G04 #@! TO.C,R7*
X103150000Y-81450000D03*
X104750000Y-81450000D03*
G04 #@! TD*
D25*
G04 #@! TO.C,Q1*
X100000000Y-84500000D03*
X100000000Y-86400000D03*
D26*
X101900000Y-85450000D03*
G04 #@! TD*
D24*
G04 #@! TO.C,D1*
X100200000Y-78450000D03*
X103800000Y-78450000D03*
G04 #@! TD*
D21*
G04 #@! TO.C,R10*
X99150000Y-89450000D03*
X100750000Y-89450000D03*
G04 #@! TD*
G04 #@! TO.C,D10*
X105150000Y-89450000D03*
X106750000Y-89450000D03*
G04 #@! TD*
G04 #@! TO.C,R5*
X98900000Y-103000000D03*
X100500000Y-103000000D03*
G04 #@! TD*
G04 #@! TO.C,R8*
X103900000Y-103000000D03*
X105500000Y-103000000D03*
G04 #@! TD*
D25*
G04 #@! TO.C,Q2*
X100750000Y-106050000D03*
X100750000Y-107950000D03*
D26*
X102650000Y-107000000D03*
G04 #@! TD*
D24*
G04 #@! TO.C,D2*
X100200000Y-98500000D03*
X103800000Y-98500000D03*
G04 #@! TD*
D21*
G04 #@! TO.C,R11*
X99900000Y-111000000D03*
X101500000Y-111000000D03*
G04 #@! TD*
G04 #@! TO.C,D11*
X105900000Y-111000000D03*
X107500000Y-111000000D03*
G04 #@! TD*
G04 #@! TO.C,R6*
X98250000Y-122000000D03*
X99850000Y-122000000D03*
G04 #@! TD*
G04 #@! TO.C,R9*
X104250000Y-122000000D03*
X105850000Y-122000000D03*
G04 #@! TD*
D25*
G04 #@! TO.C,Q3*
X101100000Y-125050000D03*
X101100000Y-126950000D03*
D26*
X103000000Y-126000000D03*
G04 #@! TD*
D24*
G04 #@! TO.C,D3*
X100250000Y-118000000D03*
X103850000Y-118000000D03*
G04 #@! TD*
D21*
G04 #@! TO.C,R12*
X100250000Y-133000000D03*
X101850000Y-133000000D03*
G04 #@! TD*
G04 #@! TO.C,D12*
X106250000Y-133000000D03*
X107850000Y-133000000D03*
G04 #@! TD*
G04 #@! TO.C,R20*
X175000000Y-74500000D03*
X176600000Y-74500000D03*
G04 #@! TD*
G04 #@! TO.C,D20*
X181000000Y-72500000D03*
X182600000Y-72500000D03*
G04 #@! TD*
G04 #@! TO.C,R21*
X175000000Y-79500000D03*
X176600000Y-79500000D03*
G04 #@! TD*
G04 #@! TO.C,D21*
X181000000Y-79500000D03*
X182600000Y-79500000D03*
G04 #@! TD*
G04 #@! TO.C,R30*
X157500000Y-99000000D03*
X159100000Y-99000000D03*
G04 #@! TD*
G04 #@! TO.C,D30*
X163900000Y-99000000D03*
X165500000Y-99000000D03*
G04 #@! TD*
G04 #@! TO.C,R31*
X157400000Y-103500000D03*
X159000000Y-103500000D03*
G04 #@! TD*
G04 #@! TO.C,D31*
X163900000Y-103500000D03*
X165500000Y-103500000D03*
G04 #@! TD*
G04 #@! TO.C,R32*
X167900000Y-132000000D03*
X169500000Y-132000000D03*
G04 #@! TD*
D22*
G04 #@! TO.C,R41*
X70050000Y-41000000D03*
X66950000Y-41000000D03*
G04 #@! TD*
D27*
G04 #@! TO.C,D40*
X62500000Y-43400000D03*
X62500000Y-41600000D03*
G04 #@! TD*
D24*
G04 #@! TO.C,D41*
X57000000Y-40700000D03*
X57000000Y-44300000D03*
G04 #@! TD*
G04 #@! TO.C,D50*
X165900000Y-118500000D03*
X169500000Y-118500000D03*
G04 #@! TD*
G04 #@! TO.C,D51*
X165900000Y-125000000D03*
X169500000Y-125000000D03*
G04 #@! TD*
G04 #@! TO.C,D52*
X165900000Y-112500000D03*
X169500000Y-112500000D03*
G04 #@! TD*
D11*
G04 #@! TO.C,D82*
X112500000Y-127150000D03*
X112500000Y-128900000D03*
X116000000Y-128900000D03*
X116000000Y-127150000D03*
G04 #@! TD*
D10*
G04 #@! TO.C,C71*
X120475000Y-75225000D03*
X122025000Y-75225000D03*
G04 #@! TD*
G04 #@! TO.C,C72*
X120475000Y-80025000D03*
X122025000Y-80025000D03*
G04 #@! TD*
D11*
G04 #@! TO.C,D78*
X112500000Y-107950000D03*
X112500000Y-109700000D03*
X116000000Y-109700000D03*
X116000000Y-107950000D03*
G04 #@! TD*
G04 #@! TO.C,D71*
X112500000Y-74350000D03*
X112500000Y-76100000D03*
X116000000Y-76100000D03*
X116000000Y-74350000D03*
G04 #@! TD*
D10*
G04 #@! TO.C,C61*
X167000000Y-71000000D03*
X168550000Y-71000000D03*
G04 #@! TD*
D11*
G04 #@! TO.C,D65*
X112500000Y-45550000D03*
X112500000Y-47300000D03*
X116000000Y-47300000D03*
X116000000Y-45550000D03*
G04 #@! TD*
D10*
G04 #@! TO.C,C75*
X120475000Y-94425000D03*
X122025000Y-94425000D03*
G04 #@! TD*
G04 #@! TO.C,C66*
X120475000Y-51225000D03*
X122025000Y-51225000D03*
G04 #@! TD*
D11*
G04 #@! TO.C,D67*
X112500000Y-55150000D03*
X112500000Y-56900000D03*
X116000000Y-56900000D03*
X116000000Y-55150000D03*
G04 #@! TD*
D10*
G04 #@! TO.C,C73*
X120475000Y-84825000D03*
X122025000Y-84825000D03*
G04 #@! TD*
D11*
G04 #@! TO.C,D63*
X160250000Y-71125000D03*
X160250000Y-72875000D03*
X163750000Y-72875000D03*
X163750000Y-71125000D03*
G04 #@! TD*
G04 #@! TO.C,D75*
X112500000Y-93550000D03*
X112500000Y-95300000D03*
X116000000Y-95300000D03*
X116000000Y-93550000D03*
G04 #@! TD*
D28*
G04 #@! TO.C,R60*
X170850000Y-57000000D03*
X172500000Y-57000000D03*
G04 #@! TD*
D11*
G04 #@! TO.C,D60*
X150250000Y-61125000D03*
X150250000Y-62875000D03*
X153750000Y-62875000D03*
X153750000Y-61125000D03*
G04 #@! TD*
D10*
G04 #@! TO.C,C82*
X120475000Y-128025000D03*
X122025000Y-128025000D03*
G04 #@! TD*
D11*
G04 #@! TO.C,D76*
X112500000Y-98350000D03*
X112500000Y-100100000D03*
X116000000Y-100100000D03*
X116000000Y-98350000D03*
G04 #@! TD*
G04 #@! TO.C,D66*
X112500000Y-50350000D03*
X112500000Y-52100000D03*
X116000000Y-52100000D03*
X116000000Y-50350000D03*
G04 #@! TD*
D10*
G04 #@! TO.C,C70*
X120475000Y-70425000D03*
X122025000Y-70425000D03*
G04 #@! TD*
D11*
G04 #@! TO.C,D70*
X112500000Y-69550000D03*
X112500000Y-71300000D03*
X116000000Y-71300000D03*
X116000000Y-69550000D03*
G04 #@! TD*
D10*
G04 #@! TO.C,C63*
X166725000Y-61000000D03*
X168275000Y-61000000D03*
G04 #@! TD*
G04 #@! TO.C,C65*
X120475000Y-46425000D03*
X122025000Y-46425000D03*
G04 #@! TD*
G04 #@! TO.C,C60*
X156000000Y-71000000D03*
X157550000Y-71000000D03*
G04 #@! TD*
D11*
G04 #@! TO.C,D69*
X112500000Y-64750000D03*
X112500000Y-66500000D03*
X116000000Y-66500000D03*
X116000000Y-64750000D03*
G04 #@! TD*
D10*
G04 #@! TO.C,C78*
X120475000Y-108825000D03*
X122025000Y-108825000D03*
G04 #@! TD*
G04 #@! TO.C,C83*
X120475000Y-132825000D03*
X122025000Y-132825000D03*
G04 #@! TD*
D11*
G04 #@! TO.C,D83*
X112500000Y-131950000D03*
X112500000Y-133700000D03*
X116000000Y-133700000D03*
X116000000Y-131950000D03*
G04 #@! TD*
D10*
G04 #@! TO.C,C79*
X120475000Y-113625000D03*
X122025000Y-113625000D03*
G04 #@! TD*
D11*
G04 #@! TO.C,D81*
X112500000Y-122350000D03*
X112500000Y-124100000D03*
X116000000Y-124100000D03*
X116000000Y-122350000D03*
G04 #@! TD*
D10*
G04 #@! TO.C,C76*
X120475000Y-99225000D03*
X122025000Y-99225000D03*
G04 #@! TD*
G04 #@! TO.C,C74*
X120475000Y-89625000D03*
X122025000Y-89625000D03*
G04 #@! TD*
G04 #@! TO.C,C69*
X120475000Y-65625000D03*
X122025000Y-65625000D03*
G04 #@! TD*
G04 #@! TO.C,C77*
X120475000Y-104025000D03*
X122025000Y-104025000D03*
G04 #@! TD*
D11*
G04 #@! TO.C,D62*
X150250000Y-71125000D03*
X150250000Y-72875000D03*
X153750000Y-72875000D03*
X153750000Y-71125000D03*
G04 #@! TD*
G04 #@! TO.C,D61*
X160250000Y-61125000D03*
X160250000Y-62875000D03*
X163750000Y-62875000D03*
X163750000Y-61125000D03*
G04 #@! TD*
D10*
G04 #@! TO.C,C80*
X120475000Y-118425000D03*
X122025000Y-118425000D03*
G04 #@! TD*
D11*
G04 #@! TO.C,D68*
X112500000Y-59950000D03*
X112500000Y-61700000D03*
X116000000Y-61700000D03*
X116000000Y-59950000D03*
G04 #@! TD*
G04 #@! TO.C,D80*
X112500000Y-117550000D03*
X112500000Y-119300000D03*
X116000000Y-119300000D03*
X116000000Y-117550000D03*
G04 #@! TD*
D10*
G04 #@! TO.C,C67*
X120475000Y-56025000D03*
X122025000Y-56025000D03*
G04 #@! TD*
D11*
G04 #@! TO.C,D74*
X112500000Y-88750000D03*
X112500000Y-90500000D03*
X116000000Y-90500000D03*
X116000000Y-88750000D03*
G04 #@! TD*
G04 #@! TO.C,D79*
X112500000Y-112750000D03*
X112500000Y-114500000D03*
X116000000Y-114500000D03*
X116000000Y-112750000D03*
G04 #@! TD*
D10*
G04 #@! TO.C,C64*
X120475000Y-41625000D03*
X122025000Y-41625000D03*
G04 #@! TD*
G04 #@! TO.C,C68*
X120475000Y-60825000D03*
X122025000Y-60825000D03*
G04 #@! TD*
D11*
G04 #@! TO.C,D73*
X112500000Y-83950000D03*
X112500000Y-85700000D03*
X116000000Y-85700000D03*
X116000000Y-83950000D03*
G04 #@! TD*
G04 #@! TO.C,D72*
X112500000Y-79150000D03*
X112500000Y-80900000D03*
X116000000Y-80900000D03*
X116000000Y-79150000D03*
G04 #@! TD*
G04 #@! TO.C,D64*
X112500000Y-40750000D03*
X112500000Y-42500000D03*
X116000000Y-42500000D03*
X116000000Y-40750000D03*
G04 #@! TD*
M02*
