G04 #@! TF.GenerationSoftware,KiCad,Pcbnew,10.0.4*
G04 #@! TF.CreationDate,2026-06-25T12:03:32+02:00*
G04 #@! TF.ProjectId,pumpengruppe-rs485,70756d70-656e-4677-9275-7070652d7273,A-preliminary*
G04 #@! TF.SameCoordinates,Original*
G04 #@! TF.FileFunction,Copper,L1,Top*
G04 #@! TF.FilePolarity,Positive*
%FSLAX46Y46*%
G04 Gerber Fmt 4.6, Leading zero omitted, Abs format (unit mm)*
G04 Created by KiCad (PCBNEW 10.0.4) date 2026-06-25 12:03:32*
%MOMM*%
%LPD*%
G01*
G04 APERTURE LIST*
G04 #@! TA.AperFunction,ComponentPad*
%ADD10C,2.800000*%
G04 #@! TD*
G04 #@! TA.AperFunction,ComponentPad*
%ADD11C,3.000000*%
G04 #@! TD*
G04 #@! TA.AperFunction,ComponentPad*
%ADD12C,2.400000*%
G04 #@! TD*
G04 #@! TA.AperFunction,ComponentPad*
%ADD13C,2.000000*%
G04 #@! TD*
G04 #@! TA.AperFunction,ComponentPad*
%ADD14C,2.600000*%
G04 #@! TD*
G04 #@! TA.AperFunction,SMDPad,CuDef*
%ADD15R,2.000000X1.000000*%
G04 #@! TD*
G04 #@! TA.AperFunction,SMDPad,CuDef*
%ADD16R,1.200000X2.000000*%
G04 #@! TD*
G04 #@! TA.AperFunction,SMDPad,CuDef*
%ADD17R,3.500000X2.500000*%
G04 #@! TD*
G04 #@! TA.AperFunction,SMDPad,CuDef*
%ADD18R,1.500000X0.550000*%
G04 #@! TD*
G04 #@! TA.AperFunction,SMDPad,CuDef*
%ADD19R,1.500000X0.600000*%
G04 #@! TD*
G04 #@! TA.AperFunction,ComponentPad*
%ADD20C,1.200000*%
G04 #@! TD*
G04 #@! TA.AperFunction,SMDPad,CuDef*
%ADD21R,0.450000X1.200000*%
G04 #@! TD*
G04 #@! TA.AperFunction,SMDPad,CuDef*
%ADD22R,1.000000X0.400000*%
G04 #@! TD*
G04 #@! TA.AperFunction,SMDPad,CuDef*
%ADD23R,0.800000X0.800000*%
G04 #@! TD*
G04 #@! TA.AperFunction,ComponentPad*
%ADD24C,1.600000*%
G04 #@! TD*
G04 #@! TA.AperFunction,SMDPad,CuDef*
%ADD25R,1.200000X1.600000*%
G04 #@! TD*
G04 #@! TA.AperFunction,SMDPad,CuDef*
%ADD26R,1.800000X2.500000*%
G04 #@! TD*
G04 #@! TA.AperFunction,SMDPad,CuDef*
%ADD27R,1.200000X1.200000*%
G04 #@! TD*
G04 #@! TA.AperFunction,SMDPad,CuDef*
%ADD28R,0.800000X0.550000*%
G04 #@! TD*
G04 #@! TA.AperFunction,SMDPad,CuDef*
%ADD29R,0.800000X0.650000*%
G04 #@! TD*
G04 #@! TA.AperFunction,SMDPad,CuDef*
%ADD30R,0.900000X1.200000*%
G04 #@! TD*
G04 APERTURE END LIST*
D10*
G04 #@! TO.P,X1,1,L*
G04 #@! TO.N,L_IN*
X49800000Y-44880000D03*
G04 #@! TO.P,X1,2,N*
G04 #@! TO.N,N*
X49800000Y-52500000D03*
G04 #@! TO.P,X1,3,PE*
G04 #@! TO.N,PE*
X49800000Y-60120000D03*
G04 #@! TD*
D11*
G04 #@! TO.P,F1,1,1*
G04 #@! TO.N,L_IN*
X64800000Y-44880000D03*
G04 #@! TO.P,F1,2,2*
G04 #@! TO.N,L_FUSED*
X84800000Y-44880000D03*
G04 #@! TD*
D12*
G04 #@! TO.P,PSU1,1,L*
G04 #@! TO.N,L_FUSED*
X101800000Y-52500000D03*
G04 #@! TO.P,PSU1,2,N*
G04 #@! TO.N,N*
X101800000Y-62500000D03*
G04 #@! TO.P,PSU1,3,+5V*
G04 #@! TO.N,+5V*
X127800000Y-52500000D03*
G04 #@! TO.P,PSU1,4,GND*
G04 #@! TO.N,GND*
X127800000Y-62500000D03*
G04 #@! TD*
D10*
G04 #@! TO.P,X2,1,L_SW*
G04 #@! TO.N,L_PUMP*
X49800000Y-79880000D03*
G04 #@! TO.P,X2,2,N*
G04 #@! TO.N,N*
X49800000Y-87500000D03*
G04 #@! TO.P,X2,3,PE*
G04 #@! TO.N,PE*
X49800000Y-95120000D03*
G04 #@! TD*
G04 #@! TO.P,X3,1,L_AUF*
G04 #@! TO.N,L_OPEN*
X49800000Y-111070000D03*
G04 #@! TO.P,X3,2,L_ZU*
G04 #@! TO.N,L_CLOSE*
X49800000Y-118690000D03*
G04 #@! TO.P,X3,3,N*
G04 #@! TO.N,N*
X49800000Y-126310000D03*
G04 #@! TO.P,X3,4,PE*
G04 #@! TO.N,PE*
X49800000Y-133930000D03*
G04 #@! TD*
G04 #@! TO.P,K1,1,COM*
G04 #@! TO.N,L_FUSED*
X107800000Y-79000000D03*
G04 #@! TO.P,K1,2,NO*
G04 #@! TO.N,L_PUMP*
X107800000Y-86000000D03*
D13*
G04 #@! TO.P,K1,A1,A1*
G04 #@! TO.N,+5V*
X127800000Y-79000000D03*
G04 #@! TO.P,K1,A2,A2*
G04 #@! TO.N,PUMP_COIL_L*
X127800000Y-86000000D03*
G04 #@! TD*
D14*
G04 #@! TO.P,K2,1,COM*
G04 #@! TO.N,L_FUSED*
X107800000Y-101000000D03*
G04 #@! TO.P,K2,2,NO*
G04 #@! TO.N,MIX_L_EN*
X107800000Y-108000000D03*
D13*
G04 #@! TO.P,K2,A1,A1*
G04 #@! TO.N,+5V*
X127800000Y-101000000D03*
G04 #@! TO.P,K2,A2,A2*
G04 #@! TO.N,MIX_ENABLE_COIL_L*
X127800000Y-108000000D03*
G04 #@! TD*
G04 #@! TO.P,K3,A1,A1*
G04 #@! TO.N,+5V*
X127800000Y-121000000D03*
G04 #@! TO.P,K3,A2,A2*
G04 #@! TO.N,MIX_DIR_COIL_L*
X127800000Y-128000000D03*
D14*
G04 #@! TO.P,K3,C,COM*
G04 #@! TO.N,MIX_L_EN*
X107800000Y-120000000D03*
G04 #@! TO.P,K3,NC,NC_ZU*
G04 #@! TO.N,L_CLOSE*
X107800000Y-124500000D03*
G04 #@! TO.P,K3,NO,NO_AUF*
G04 #@! TO.N,L_OPEN*
X107800000Y-129000000D03*
G04 #@! TD*
D15*
G04 #@! TO.P,U1,1,3V3*
G04 #@! TO.N,+3V3*
X146000000Y-50500000D03*
G04 #@! TO.P,U1,2,GND*
G04 #@! TO.N,GND*
X146000000Y-53000000D03*
G04 #@! TO.P,U1,3,GPIO_PUMP*
G04 #@! TO.N,PUMP_DRV*
X172000000Y-42500000D03*
G04 #@! TO.P,U1,4,GPIO_MIX_ENABLE*
G04 #@! TO.N,MIX_ENABLE_DRV*
X172000000Y-45000000D03*
G04 #@! TO.P,U1,5,GPIO_MIX_DIR*
G04 #@! TO.N,MIX_DIR_DRV*
X172000000Y-47500000D03*
G04 #@! TO.P,U1,6,MOSI*
G04 #@! TO.N,SPI_MOSI*
X146000000Y-55500000D03*
G04 #@! TO.P,U1,7,MISO*
G04 #@! TO.N,SPI_MISO*
X146000000Y-58000000D03*
G04 #@! TO.P,U1,8,SCK*
G04 #@! TO.N,SPI_SCK*
X146000000Y-60500000D03*
G04 #@! TO.P,U1,9,TX*
G04 #@! TO.N,UART_TX*
X172000000Y-54500000D03*
G04 #@! TO.P,U1,10,RX*
G04 #@! TO.N,UART_RX*
X172000000Y-57000000D03*
G04 #@! TO.P,U1,11,GPIO_RS485_DE*
G04 #@! TO.N,RS485_DE*
X172000000Y-59500000D03*
G04 #@! TD*
D16*
G04 #@! TO.P,U5,1,GND*
G04 #@! TO.N,GND*
X137000000Y-59800000D03*
G04 #@! TO.P,U5,2,OUT*
G04 #@! TO.N,+3V3*
X139300000Y-59800000D03*
G04 #@! TO.P,U5,3,IN*
G04 #@! TO.N,+5V*
X141600000Y-59800000D03*
D17*
G04 #@! TO.P,U5,4,TAB*
G04 #@! TO.N,+3V3*
X139300000Y-55200000D03*
G04 #@! TD*
D18*
G04 #@! TO.P,U2,1,RTD+*
G04 #@! TO.N,RTD_VL_P*
X146700000Y-96000000D03*
G04 #@! TO.P,U2,2,RTD-*
G04 #@! TO.N,RTD_VL_N*
X146700000Y-97000000D03*
G04 #@! TO.P,U2,8,GND*
G04 #@! TO.N,GND*
X146700000Y-103000000D03*
G04 #@! TO.P,U2,9,SCK*
G04 #@! TO.N,SPI_SCK*
X156900000Y-103000000D03*
G04 #@! TO.P,U2,10,MOSI*
G04 #@! TO.N,SPI_MOSI*
X156900000Y-102000000D03*
G04 #@! TO.P,U2,11,MISO*
G04 #@! TO.N,SPI_MISO*
X156900000Y-101000000D03*
G04 #@! TO.P,U2,16,VCC*
G04 #@! TO.N,+3V3*
X156900000Y-96000000D03*
G04 #@! TD*
G04 #@! TO.P,U3,1,RTD+*
G04 #@! TO.N,RTD_RL_P*
X146700000Y-114000000D03*
G04 #@! TO.P,U3,2,RTD-*
G04 #@! TO.N,RTD_RL_N*
X146700000Y-115000000D03*
G04 #@! TO.P,U3,8,GND*
G04 #@! TO.N,GND*
X146700000Y-121000000D03*
G04 #@! TO.P,U3,9,SCK*
G04 #@! TO.N,SPI_SCK*
X156900000Y-121000000D03*
G04 #@! TO.P,U3,10,MOSI*
G04 #@! TO.N,SPI_MOSI*
X156900000Y-120000000D03*
G04 #@! TO.P,U3,11,MISO*
G04 #@! TO.N,SPI_MISO*
X156900000Y-119000000D03*
G04 #@! TO.P,U3,16,VCC*
G04 #@! TO.N,+3V3*
X156900000Y-114000000D03*
G04 #@! TD*
D13*
G04 #@! TO.P,X4,1,+*
G04 #@! TO.N,RTD_VL_P*
X194800000Y-46750000D03*
G04 #@! TO.P,X4,2,-*
G04 #@! TO.N,RTD_VL_N*
X194800000Y-43250000D03*
G04 #@! TD*
G04 #@! TO.P,X5,1,+*
G04 #@! TO.N,RTD_RL_P*
X194800000Y-55250000D03*
G04 #@! TO.P,X5,2,-*
G04 #@! TO.N,RTD_RL_N*
X194800000Y-51750000D03*
G04 #@! TD*
D19*
G04 #@! TO.P,U4,1,RO*
G04 #@! TO.N,UART_RX*
X169100000Y-104595000D03*
G04 #@! TO.P,U4,2,~{RE}*
G04 #@! TO.N,RS485_DE*
X169100000Y-105865000D03*
G04 #@! TO.P,U4,3,DE*
X169100000Y-107135000D03*
G04 #@! TO.P,U4,4,DI*
G04 #@! TO.N,UART_TX*
X169100000Y-108405000D03*
G04 #@! TO.P,U4,5,GND*
G04 #@! TO.N,GND*
X174500000Y-108405000D03*
G04 #@! TO.P,U4,6,A*
G04 #@! TO.N,RS485_A*
X174500000Y-107135000D03*
G04 #@! TO.P,U4,7,B*
G04 #@! TO.N,RS485_B*
X174500000Y-105865000D03*
G04 #@! TO.P,U4,8,VCC*
G04 #@! TO.N,+3V3*
X174500000Y-104595000D03*
G04 #@! TD*
D20*
G04 #@! TO.P,J1,1,BUS_5V*
G04 #@! TO.N,BUS_5V*
X194800000Y-84450000D03*
G04 #@! TO.P,J1,2,BUS_5V*
X196800000Y-83180000D03*
G04 #@! TO.P,J1,3,3*
G04 #@! TO.N,N/C*
X194800000Y-81910000D03*
G04 #@! TO.P,J1,4,4*
G04 #@! TO.N,RS485_A*
X196800000Y-80640000D03*
G04 #@! TO.P,J1,5,5*
G04 #@! TO.N,RS485_B*
X194800000Y-79360000D03*
G04 #@! TO.P,J1,6,6*
G04 #@! TO.N,N/C*
X196800000Y-78090000D03*
G04 #@! TO.P,J1,7,7*
G04 #@! TO.N,RS485_GND*
X194800000Y-76820000D03*
G04 #@! TO.P,J1,8,8*
X196800000Y-75550000D03*
G04 #@! TD*
G04 #@! TO.P,J2,1,BUS_5V*
G04 #@! TO.N,BUS_5V*
X194800000Y-101450000D03*
G04 #@! TO.P,J2,2,BUS_5V*
X196800000Y-100180000D03*
G04 #@! TO.P,J2,3,3*
G04 #@! TO.N,N/C*
X194800000Y-98910000D03*
G04 #@! TO.P,J2,4,4*
G04 #@! TO.N,RS485_A*
X196800000Y-97640000D03*
G04 #@! TO.P,J2,5,5*
G04 #@! TO.N,RS485_B*
X194800000Y-96360000D03*
G04 #@! TO.P,J2,6,6*
G04 #@! TO.N,N/C*
X196800000Y-95090000D03*
G04 #@! TO.P,J2,7,7*
G04 #@! TO.N,RS485_GND*
X194800000Y-93820000D03*
G04 #@! TO.P,J2,8,8*
X196800000Y-92550000D03*
G04 #@! TD*
D13*
G04 #@! TO.P,J3,1,D+*
G04 #@! TO.N,RS485_A*
X194800000Y-68000000D03*
G04 #@! TO.P,J3,2,D-*
G04 #@! TO.N,RS485_B*
X194800000Y-64500000D03*
G04 #@! TO.P,J3,3,GND*
G04 #@! TO.N,RS485_GND*
X194800000Y-61000000D03*
G04 #@! TD*
G04 #@! TO.P,J4,1,D+*
G04 #@! TO.N,RS485_A*
X194800000Y-115500000D03*
G04 #@! TO.P,J4,2,D-*
G04 #@! TO.N,RS485_B*
X194800000Y-112000000D03*
G04 #@! TO.P,J4,3,GND*
G04 #@! TO.N,RS485_GND*
X194800000Y-108500000D03*
G04 #@! TD*
D21*
G04 #@! TO.P,X6,A4,VBUS*
G04 #@! TO.N,USB_VBUS*
X194300000Y-132000000D03*
G04 #@! TO.P,X6,A5,CC1*
G04 #@! TO.N,USB_CC1*
X194300000Y-130500000D03*
G04 #@! TO.P,X6,A6,D+*
G04 #@! TO.N,USB_D+*
X194300000Y-129000000D03*
G04 #@! TO.P,X6,A7,D-*
G04 #@! TO.N,USB_D-*
X194300000Y-127500000D03*
G04 #@! TO.P,X6,A8,SBU1*
G04 #@! TO.N,GND*
X194300000Y-126000000D03*
G04 #@! TO.P,X6,B4,VBUS*
G04 #@! TO.N,USB_VBUS*
X198300000Y-132000000D03*
G04 #@! TO.P,X6,B5,CC2*
G04 #@! TO.N,USB_CC2*
X198300000Y-130500000D03*
G04 #@! TO.P,X6,B6,D+*
G04 #@! TO.N,USB_D+*
X198300000Y-129000000D03*
G04 #@! TO.P,X6,B7,D-*
G04 #@! TO.N,USB_D-*
X198300000Y-127500000D03*
G04 #@! TO.P,X6,B8,SBU2*
G04 #@! TO.N,GND*
X198300000Y-126000000D03*
D12*
G04 #@! TO.P,X6,S1,SHIELD*
X196300000Y-134000000D03*
G04 #@! TO.P,X6,S2,SHIELD*
X196300000Y-124000000D03*
G04 #@! TD*
D22*
G04 #@! TO.P,U6,1,VBUS*
G04 #@! TO.N,USB_VBUS*
X167300000Y-130500000D03*
G04 #@! TO.P,U6,2,D+*
G04 #@! TO.N,USB_D+*
X167300000Y-131500000D03*
G04 #@! TO.P,U6,3,D-*
G04 #@! TO.N,USB_D-*
X167300000Y-132500000D03*
G04 #@! TO.P,U6,4,GND*
G04 #@! TO.N,GND*
X167300000Y-133500000D03*
G04 #@! TO.P,U6,5,TXD*
G04 #@! TO.N,UART_RX*
X173300000Y-131000000D03*
G04 #@! TO.P,U6,6,RXD*
G04 #@! TO.N,UART_TX*
X173300000Y-132000000D03*
G04 #@! TO.P,U6,7,DTR*
G04 #@! TO.N,N/C*
X173300000Y-133000000D03*
G04 #@! TO.P,U6,8,RTS*
X173300000Y-134000000D03*
G04 #@! TD*
D23*
G04 #@! TO.P,R1,1,1*
G04 #@! TO.N,USB_CC1*
X182000000Y-125500000D03*
G04 #@! TO.P,R1,2,2*
G04 #@! TO.N,GND*
X183600000Y-125500000D03*
G04 #@! TD*
G04 #@! TO.P,R2,1,1*
G04 #@! TO.N,USB_CC2*
X184300000Y-133500000D03*
G04 #@! TO.P,R2,2,2*
G04 #@! TO.N,GND*
X185900000Y-133500000D03*
G04 #@! TD*
G04 #@! TO.P,R3,1,1*
G04 #@! TO.N,RS485_A*
X170000000Y-124500000D03*
G04 #@! TO.P,R3,2,2*
G04 #@! TO.N,RS485_TERM*
X171600000Y-124500000D03*
G04 #@! TD*
D24*
G04 #@! TO.P,JP1,1,1*
G04 #@! TO.N,RS485_TERM*
X161460000Y-94000000D03*
G04 #@! TO.P,JP1,2,2*
G04 #@! TO.N,RS485_B*
X164000000Y-94000000D03*
G04 #@! TO.P,JP1,3,PARK_NC*
G04 #@! TO.N,N/C*
X166540000Y-94000000D03*
G04 #@! TD*
D25*
G04 #@! TO.P,R40,1,1*
G04 #@! TO.N,L_FUSED*
X67250000Y-60500000D03*
G04 #@! TO.P,R40,2,2*
G04 #@! TO.N,LED230_DROP*
X70350000Y-60500000D03*
G04 #@! TD*
D26*
G04 #@! TO.P,F2,1,BUS*
G04 #@! TO.N,BUS_5V*
X178200000Y-90500000D03*
G04 #@! TO.P,F2,2,LOCAL_5V*
G04 #@! TO.N,+5V*
X182400000Y-90500000D03*
G04 #@! TD*
D27*
G04 #@! TO.P,D4,1,K*
G04 #@! TO.N,+5V*
X176000000Y-52500000D03*
G04 #@! TO.P,D4,2,A*
G04 #@! TO.N,USB_VBUS*
X179600000Y-52500000D03*
G04 #@! TD*
D23*
G04 #@! TO.P,R4,1,1*
G04 #@! TO.N,PUMP_DRV*
X134200000Y-82500000D03*
G04 #@! TO.P,R4,2,2*
G04 #@! TO.N,PUMP_GATE*
X135800000Y-82500000D03*
G04 #@! TD*
G04 #@! TO.P,R7,1,1*
G04 #@! TO.N,PUMP_GATE*
X139000000Y-82500000D03*
G04 #@! TO.P,R7,2,2*
G04 #@! TO.N,GND*
X140600000Y-82500000D03*
G04 #@! TD*
D28*
G04 #@! TO.P,Q1,1,G*
G04 #@! TO.N,PUMP_GATE*
X135850000Y-85550000D03*
G04 #@! TO.P,Q1,2,S*
G04 #@! TO.N,GND*
X135850000Y-87450000D03*
D29*
G04 #@! TO.P,Q1,3,D*
G04 #@! TO.N,PUMP_COIL_L*
X137750000Y-86500000D03*
G04 #@! TD*
D27*
G04 #@! TO.P,D1,1,K*
G04 #@! TO.N,+5V*
X135000000Y-79500000D03*
G04 #@! TO.P,D1,2,A*
G04 #@! TO.N,PUMP_COIL_L*
X138600000Y-79500000D03*
G04 #@! TD*
D23*
G04 #@! TO.P,R10,1,1*
G04 #@! TO.N,+5V*
X135000000Y-90500000D03*
G04 #@! TO.P,R10,2,2*
G04 #@! TO.N,LED_PUMP_A*
X136600000Y-90500000D03*
G04 #@! TD*
G04 #@! TO.P,D10,1,A*
G04 #@! TO.N,LED_PUMP_A*
X141000000Y-90500000D03*
G04 #@! TO.P,D10,2,K*
G04 #@! TO.N,PUMP_COIL_L*
X142600000Y-90500000D03*
G04 #@! TD*
G04 #@! TO.P,R5,1,1*
G04 #@! TO.N,MIX_ENABLE_DRV*
X134000000Y-104500000D03*
G04 #@! TO.P,R5,2,2*
G04 #@! TO.N,MIX_ENABLE_GATE*
X135600000Y-104500000D03*
G04 #@! TD*
G04 #@! TO.P,R8,1,1*
G04 #@! TO.N,MIX_ENABLE_GATE*
X139000000Y-104500000D03*
G04 #@! TO.P,R8,2,2*
G04 #@! TO.N,GND*
X140600000Y-104500000D03*
G04 #@! TD*
D28*
G04 #@! TO.P,Q2,1,G*
G04 #@! TO.N,MIX_ENABLE_GATE*
X135850000Y-107550000D03*
G04 #@! TO.P,Q2,2,S*
G04 #@! TO.N,GND*
X135850000Y-109450000D03*
D29*
G04 #@! TO.P,Q2,3,D*
G04 #@! TO.N,MIX_ENABLE_COIL_L*
X137750000Y-108500000D03*
G04 #@! TD*
D27*
G04 #@! TO.P,D2,1,K*
G04 #@! TO.N,+5V*
X135000000Y-101500000D03*
G04 #@! TO.P,D2,2,A*
G04 #@! TO.N,MIX_ENABLE_COIL_L*
X138600000Y-101500000D03*
G04 #@! TD*
D23*
G04 #@! TO.P,R11,1,1*
G04 #@! TO.N,+5V*
X135000000Y-112500000D03*
G04 #@! TO.P,R11,2,2*
G04 #@! TO.N,LED_OPEN_A*
X136600000Y-112500000D03*
G04 #@! TD*
G04 #@! TO.P,D11,1,A*
G04 #@! TO.N,LED_OPEN_A*
X141000000Y-112500000D03*
G04 #@! TO.P,D11,2,K*
G04 #@! TO.N,MIX_ENABLE_COIL_L*
X142600000Y-112500000D03*
G04 #@! TD*
G04 #@! TO.P,R6,1,1*
G04 #@! TO.N,MIX_DIR_DRV*
X133000000Y-124500000D03*
G04 #@! TO.P,R6,2,2*
G04 #@! TO.N,MIX_DIR_GATE*
X134600000Y-124500000D03*
G04 #@! TD*
G04 #@! TO.P,R9,1,1*
G04 #@! TO.N,MIX_DIR_GATE*
X139000000Y-124500000D03*
G04 #@! TO.P,R9,2,2*
G04 #@! TO.N,GND*
X140600000Y-124500000D03*
G04 #@! TD*
D28*
G04 #@! TO.P,Q3,1,G*
G04 #@! TO.N,MIX_DIR_GATE*
X135850000Y-127550000D03*
G04 #@! TO.P,Q3,2,S*
G04 #@! TO.N,GND*
X135850000Y-129450000D03*
D29*
G04 #@! TO.P,Q3,3,D*
G04 #@! TO.N,MIX_DIR_COIL_L*
X137750000Y-128500000D03*
G04 #@! TD*
D27*
G04 #@! TO.P,D3,1,K*
G04 #@! TO.N,+5V*
X135000000Y-121500000D03*
G04 #@! TO.P,D3,2,A*
G04 #@! TO.N,MIX_DIR_COIL_L*
X138600000Y-121500000D03*
G04 #@! TD*
D23*
G04 #@! TO.P,R12,1,1*
G04 #@! TO.N,+5V*
X135000000Y-135500000D03*
G04 #@! TO.P,R12,2,2*
G04 #@! TO.N,LED_CLOSE_A*
X136600000Y-135500000D03*
G04 #@! TD*
G04 #@! TO.P,D12,1,A*
G04 #@! TO.N,LED_CLOSE_A*
X141000000Y-135500000D03*
G04 #@! TO.P,D12,2,K*
G04 #@! TO.N,MIX_DIR_COIL_L*
X142600000Y-135500000D03*
G04 #@! TD*
G04 #@! TO.P,R20,1,1*
G04 #@! TO.N,+5V*
X175000000Y-74500000D03*
G04 #@! TO.P,R20,2,2*
G04 #@! TO.N,LED_5V_A*
X176600000Y-74500000D03*
G04 #@! TD*
G04 #@! TO.P,D20,1,A*
G04 #@! TO.N,LED_5V_A*
X181000000Y-74500000D03*
G04 #@! TO.P,D20,2,K*
G04 #@! TO.N,GND*
X182600000Y-74500000D03*
G04 #@! TD*
G04 #@! TO.P,R21,1,1*
G04 #@! TO.N,+3V3*
X175000000Y-79500000D03*
G04 #@! TO.P,R21,2,2*
G04 #@! TO.N,LED_3V3_A*
X176600000Y-79500000D03*
G04 #@! TD*
G04 #@! TO.P,D21,1,A*
G04 #@! TO.N,LED_3V3_A*
X181000000Y-79500000D03*
G04 #@! TO.P,D21,2,K*
G04 #@! TO.N,GND*
X182600000Y-79500000D03*
G04 #@! TD*
G04 #@! TO.P,R30,1,1*
G04 #@! TO.N,+3V3*
X164000000Y-116500000D03*
G04 #@! TO.P,R30,2,2*
G04 #@! TO.N,LED_TX_A*
X165600000Y-116500000D03*
G04 #@! TD*
G04 #@! TO.P,D30,1,A*
G04 #@! TO.N,LED_TX_A*
X170000000Y-116500000D03*
G04 #@! TO.P,D30,2,K*
G04 #@! TO.N,UART_TX*
X171600000Y-116500000D03*
G04 #@! TD*
G04 #@! TO.P,R31,1,1*
G04 #@! TO.N,+3V3*
X164000000Y-121500000D03*
G04 #@! TO.P,R31,2,2*
G04 #@! TO.N,LED_RX_A*
X165600000Y-121500000D03*
G04 #@! TD*
G04 #@! TO.P,D31,1,A*
G04 #@! TO.N,LED_RX_A*
X170000000Y-121500000D03*
G04 #@! TO.P,D31,2,K*
G04 #@! TO.N,UART_RX*
X171600000Y-121500000D03*
G04 #@! TD*
G04 #@! TO.P,R32,1,BUS_COM*
G04 #@! TO.N,RS485_GND*
X186000000Y-112500000D03*
G04 #@! TO.P,R32,2,LOCAL_GND*
G04 #@! TO.N,GND*
X187600000Y-112500000D03*
G04 #@! TD*
D25*
G04 #@! TO.P,R41,1,1*
G04 #@! TO.N,LED230_DROP*
X74250000Y-60500000D03*
G04 #@! TO.P,R41,2,2*
G04 #@! TO.N,LED230_A*
X77350000Y-60500000D03*
G04 #@! TD*
D30*
G04 #@! TO.P,D40,1,A*
G04 #@! TO.N,LED230_A*
X81900000Y-60500000D03*
G04 #@! TO.P,D40,2,K*
G04 #@! TO.N,N*
X83700000Y-60500000D03*
G04 #@! TD*
D27*
G04 #@! TO.P,D41,1,A*
G04 #@! TO.N,N*
X81000000Y-65500000D03*
G04 #@! TO.P,D41,2,K*
G04 #@! TO.N,LED230_A*
X84600000Y-65500000D03*
G04 #@! TD*
D13*
G04 #@! TO.P,RV1,1,1*
G04 #@! TO.N,L_FUSED*
X71050000Y-71500000D03*
G04 #@! TO.P,RV1,2,2*
G04 #@! TO.N,N*
X78550000Y-71500000D03*
G04 #@! TD*
D27*
G04 #@! TO.P,D50,1,A*
G04 #@! TO.N,RS485_A*
X180000000Y-107500000D03*
G04 #@! TO.P,D50,2,K*
G04 #@! TO.N,RS485_GND*
X183600000Y-107500000D03*
G04 #@! TD*
G04 #@! TO.P,D51,1,A*
G04 #@! TO.N,RS485_B*
X180000000Y-112500000D03*
G04 #@! TO.P,D51,2,K*
G04 #@! TO.N,RS485_GND*
X183600000Y-112500000D03*
G04 #@! TD*
G04 #@! TO.P,D52,1,A*
G04 #@! TO.N,RS485_A*
X180000000Y-117500000D03*
G04 #@! TO.P,D52,2,K*
G04 #@! TO.N,RS485_B*
X183600000Y-117500000D03*
G04 #@! TD*
M02*
