G04 #@! TF.GenerationSoftware,KiCad,Pcbnew,10.0.4*
G04 #@! TF.CreationDate,2026-06-25T10:54:04+02:00*
G04 #@! TF.ProjectId,pumpengruppe-rs485,70756d70-656e-4677-9275-7070652d7273,A-preliminary*
G04 #@! TF.SameCoordinates,Original*
G04 #@! TF.FileFunction,Legend,Top*
G04 #@! TF.FilePolarity,Positive*
%FSLAX46Y46*%
G04 Gerber Fmt 4.6, Leading zero omitted, Abs format (unit mm)*
G04 Created by KiCad (PCBNEW 10.0.4) date 2026-06-25 10:54:04*
%MOMM*%
%LPD*%
G01*
G04 APERTURE LIST*
%ADD10C,0.250000*%
%ADD11C,0.350000*%
%ADD12C,0.220000*%
%ADD13C,0.180000*%
%ADD14C,0.150000*%
%ADD15C,0.120000*%
%ADD16C,0.100000*%
G04 APERTURE END LIST*
D10*
X74000000Y-5000000D02*
X74000000Y-7750000D01*
X74000000Y-8750000D02*
X74000000Y-11500000D01*
X74000000Y-12500000D02*
X74000000Y-15250000D01*
X74000000Y-16250000D02*
X74000000Y-19000000D01*
X74000000Y-20000000D02*
X74000000Y-22750000D01*
X74000000Y-23750000D02*
X74000000Y-26500000D01*
X74000000Y-27500000D02*
X74000000Y-30250000D01*
X74000000Y-31250000D02*
X74000000Y-34000000D01*
X74000000Y-35000000D02*
X74000000Y-37750000D01*
X74000000Y-38750000D02*
X74000000Y-41500000D01*
X74000000Y-42500000D02*
X74000000Y-45250000D01*
X74000000Y-46250000D02*
X74000000Y-49000000D01*
X74000000Y-50000000D02*
X74000000Y-52750000D01*
X74000000Y-53750000D02*
X74000000Y-56500000D01*
X74000000Y-57500000D02*
X74000000Y-60250000D01*
X74000000Y-61250000D02*
X74000000Y-64000000D01*
X74000000Y-65000000D02*
X74000000Y-67750000D01*
X74000000Y-68750000D02*
X74000000Y-71500000D01*
X74000000Y-72500000D02*
X74000000Y-75250000D01*
X74000000Y-76250000D02*
X74000000Y-79000000D01*
X74000000Y-80000000D02*
X74000000Y-82750000D01*
X74000000Y-83750000D02*
X74000000Y-86500000D01*
X74000000Y-87500000D02*
X74000000Y-90250000D01*
X74000000Y-91250000D02*
X74000000Y-94000000D01*
X74000000Y-95000000D02*
X74000000Y-97750000D01*
X74000000Y-98750000D02*
X74000000Y-101500000D01*
X74000000Y-102500000D02*
X74000000Y-105000000D01*
X88000000Y-5000000D02*
X88000000Y-7750000D01*
X88000000Y-8750000D02*
X88000000Y-11500000D01*
X88000000Y-12500000D02*
X88000000Y-15250000D01*
X88000000Y-16250000D02*
X88000000Y-19000000D01*
X88000000Y-20000000D02*
X88000000Y-22750000D01*
X88000000Y-23750000D02*
X88000000Y-26500000D01*
X88000000Y-27500000D02*
X88000000Y-30250000D01*
X88000000Y-31250000D02*
X88000000Y-34000000D01*
X88000000Y-35000000D02*
X88000000Y-37750000D01*
X88000000Y-38750000D02*
X88000000Y-41500000D01*
X88000000Y-42500000D02*
X88000000Y-45250000D01*
X88000000Y-46250000D02*
X88000000Y-49000000D01*
X88000000Y-50000000D02*
X88000000Y-52750000D01*
X88000000Y-53750000D02*
X88000000Y-56500000D01*
X88000000Y-57500000D02*
X88000000Y-60250000D01*
X88000000Y-61250000D02*
X88000000Y-64000000D01*
X88000000Y-65000000D02*
X88000000Y-67750000D01*
X88000000Y-68750000D02*
X88000000Y-71500000D01*
X88000000Y-72500000D02*
X88000000Y-75250000D01*
X88000000Y-76250000D02*
X88000000Y-79000000D01*
X88000000Y-80000000D02*
X88000000Y-82750000D01*
X88000000Y-83750000D02*
X88000000Y-86500000D01*
X88000000Y-87500000D02*
X88000000Y-90250000D01*
X88000000Y-91250000D02*
X88000000Y-94000000D01*
X88000000Y-95000000D02*
X88000000Y-97750000D01*
X88000000Y-98750000D02*
X88000000Y-101500000D01*
X88000000Y-102500000D02*
X88000000Y-105000000D01*
D11*
X26928571Y-4655371D02*
X27071428Y-4512514D01*
X27071428Y-4512514D02*
X27357143Y-4369657D01*
X27357143Y-4369657D02*
X28071428Y-4369657D01*
X28071428Y-4369657D02*
X28357143Y-4512514D01*
X28357143Y-4512514D02*
X28500000Y-4655371D01*
X28500000Y-4655371D02*
X28642857Y-4941085D01*
X28642857Y-4941085D02*
X28642857Y-5226800D01*
X28642857Y-5226800D02*
X28500000Y-5655371D01*
X28500000Y-5655371D02*
X26785714Y-7369657D01*
X26785714Y-7369657D02*
X28642857Y-7369657D01*
X29642857Y-4369657D02*
X31500000Y-4369657D01*
X31500000Y-4369657D02*
X30500000Y-5512514D01*
X30500000Y-5512514D02*
X30928571Y-5512514D01*
X30928571Y-5512514D02*
X31214286Y-5655371D01*
X31214286Y-5655371D02*
X31357143Y-5798228D01*
X31357143Y-5798228D02*
X31500000Y-6083942D01*
X31500000Y-6083942D02*
X31500000Y-6798228D01*
X31500000Y-6798228D02*
X31357143Y-7083942D01*
X31357143Y-7083942D02*
X31214286Y-7226800D01*
X31214286Y-7226800D02*
X30928571Y-7369657D01*
X30928571Y-7369657D02*
X30071428Y-7369657D01*
X30071428Y-7369657D02*
X29785714Y-7226800D01*
X29785714Y-7226800D02*
X29642857Y-7083942D01*
X33357143Y-4369657D02*
X33642857Y-4369657D01*
X33642857Y-4369657D02*
X33928571Y-4512514D01*
X33928571Y-4512514D02*
X34071429Y-4655371D01*
X34071429Y-4655371D02*
X34214286Y-4941085D01*
X34214286Y-4941085D02*
X34357143Y-5512514D01*
X34357143Y-5512514D02*
X34357143Y-6226800D01*
X34357143Y-6226800D02*
X34214286Y-6798228D01*
X34214286Y-6798228D02*
X34071429Y-7083942D01*
X34071429Y-7083942D02*
X33928571Y-7226800D01*
X33928571Y-7226800D02*
X33642857Y-7369657D01*
X33642857Y-7369657D02*
X33357143Y-7369657D01*
X33357143Y-7369657D02*
X33071429Y-7226800D01*
X33071429Y-7226800D02*
X32928571Y-7083942D01*
X32928571Y-7083942D02*
X32785714Y-6798228D01*
X32785714Y-6798228D02*
X32642857Y-6226800D01*
X32642857Y-6226800D02*
X32642857Y-5512514D01*
X32642857Y-5512514D02*
X32785714Y-4941085D01*
X32785714Y-4941085D02*
X32928571Y-4655371D01*
X32928571Y-4655371D02*
X33071429Y-4512514D01*
X33071429Y-4512514D02*
X33357143Y-4369657D01*
X37500000Y-4369657D02*
X38500000Y-7369657D01*
X38500000Y-7369657D02*
X39500000Y-4369657D01*
X42642857Y-6512514D02*
X44071429Y-6512514D01*
X42357143Y-7369657D02*
X43357143Y-4369657D01*
X43357143Y-4369657D02*
X44357143Y-7369657D01*
X47071429Y-7083942D02*
X46928572Y-7226800D01*
X46928572Y-7226800D02*
X46500000Y-7369657D01*
X46500000Y-7369657D02*
X46214286Y-7369657D01*
X46214286Y-7369657D02*
X45785715Y-7226800D01*
X45785715Y-7226800D02*
X45500000Y-6941085D01*
X45500000Y-6941085D02*
X45357143Y-6655371D01*
X45357143Y-6655371D02*
X45214286Y-6083942D01*
X45214286Y-6083942D02*
X45214286Y-5655371D01*
X45214286Y-5655371D02*
X45357143Y-5083942D01*
X45357143Y-5083942D02*
X45500000Y-4798228D01*
X45500000Y-4798228D02*
X45785715Y-4512514D01*
X45785715Y-4512514D02*
X46214286Y-4369657D01*
X46214286Y-4369657D02*
X46500000Y-4369657D01*
X46500000Y-4369657D02*
X46928572Y-4512514D01*
X46928572Y-4512514D02*
X47071429Y-4655371D01*
D10*
X92999997Y-6817000D02*
X93285711Y-6912238D01*
X93285711Y-6912238D02*
X93761902Y-6912238D01*
X93761902Y-6912238D02*
X93952378Y-6817000D01*
X93952378Y-6817000D02*
X94047616Y-6721761D01*
X94047616Y-6721761D02*
X94142854Y-6531285D01*
X94142854Y-6531285D02*
X94142854Y-6340809D01*
X94142854Y-6340809D02*
X94047616Y-6150333D01*
X94047616Y-6150333D02*
X93952378Y-6055095D01*
X93952378Y-6055095D02*
X93761902Y-5959857D01*
X93761902Y-5959857D02*
X93380949Y-5864619D01*
X93380949Y-5864619D02*
X93190473Y-5769380D01*
X93190473Y-5769380D02*
X93095235Y-5674142D01*
X93095235Y-5674142D02*
X92999997Y-5483666D01*
X92999997Y-5483666D02*
X92999997Y-5293190D01*
X92999997Y-5293190D02*
X93095235Y-5102714D01*
X93095235Y-5102714D02*
X93190473Y-5007476D01*
X93190473Y-5007476D02*
X93380949Y-4912238D01*
X93380949Y-4912238D02*
X93857140Y-4912238D01*
X93857140Y-4912238D02*
X94142854Y-5007476D01*
X94999997Y-5864619D02*
X95666664Y-5864619D01*
X95952378Y-6912238D02*
X94999997Y-6912238D01*
X94999997Y-6912238D02*
X94999997Y-4912238D01*
X94999997Y-4912238D02*
X95952378Y-4912238D01*
X97761902Y-6912238D02*
X96809521Y-6912238D01*
X96809521Y-6912238D02*
X96809521Y-4912238D01*
X98142855Y-4912238D02*
X98809521Y-6912238D01*
X98809521Y-6912238D02*
X99476188Y-4912238D01*
X103095236Y-4817000D02*
X101380951Y-7388428D01*
X105285713Y-5864619D02*
X105952380Y-5864619D01*
X106238094Y-6912238D02*
X105285713Y-6912238D01*
X105285713Y-6912238D02*
X105285713Y-4912238D01*
X105285713Y-4912238D02*
X106238094Y-4912238D01*
X106999999Y-6817000D02*
X107285713Y-6912238D01*
X107285713Y-6912238D02*
X107761904Y-6912238D01*
X107761904Y-6912238D02*
X107952380Y-6817000D01*
X107952380Y-6817000D02*
X108047618Y-6721761D01*
X108047618Y-6721761D02*
X108142856Y-6531285D01*
X108142856Y-6531285D02*
X108142856Y-6340809D01*
X108142856Y-6340809D02*
X108047618Y-6150333D01*
X108047618Y-6150333D02*
X107952380Y-6055095D01*
X107952380Y-6055095D02*
X107761904Y-5959857D01*
X107761904Y-5959857D02*
X107380951Y-5864619D01*
X107380951Y-5864619D02*
X107190475Y-5769380D01*
X107190475Y-5769380D02*
X107095237Y-5674142D01*
X107095237Y-5674142D02*
X106999999Y-5483666D01*
X106999999Y-5483666D02*
X106999999Y-5293190D01*
X106999999Y-5293190D02*
X107095237Y-5102714D01*
X107095237Y-5102714D02*
X107190475Y-5007476D01*
X107190475Y-5007476D02*
X107380951Y-4912238D01*
X107380951Y-4912238D02*
X107857142Y-4912238D01*
X107857142Y-4912238D02*
X108142856Y-5007476D01*
X108999999Y-6912238D02*
X108999999Y-4912238D01*
X108999999Y-4912238D02*
X109761904Y-4912238D01*
X109761904Y-4912238D02*
X109952380Y-5007476D01*
X109952380Y-5007476D02*
X110047618Y-5102714D01*
X110047618Y-5102714D02*
X110142856Y-5293190D01*
X110142856Y-5293190D02*
X110142856Y-5578904D01*
X110142856Y-5578904D02*
X110047618Y-5769380D01*
X110047618Y-5769380D02*
X109952380Y-5864619D01*
X109952380Y-5864619D02*
X109761904Y-5959857D01*
X109761904Y-5959857D02*
X108999999Y-5959857D01*
X110809523Y-4912238D02*
X112047618Y-4912238D01*
X112047618Y-4912238D02*
X111380951Y-5674142D01*
X111380951Y-5674142D02*
X111666666Y-5674142D01*
X111666666Y-5674142D02*
X111857142Y-5769380D01*
X111857142Y-5769380D02*
X111952380Y-5864619D01*
X111952380Y-5864619D02*
X112047618Y-6055095D01*
X112047618Y-6055095D02*
X112047618Y-6531285D01*
X112047618Y-6531285D02*
X111952380Y-6721761D01*
X111952380Y-6721761D02*
X111857142Y-6817000D01*
X111857142Y-6817000D02*
X111666666Y-6912238D01*
X111666666Y-6912238D02*
X111095237Y-6912238D01*
X111095237Y-6912238D02*
X110904761Y-6817000D01*
X110904761Y-6817000D02*
X110809523Y-6721761D01*
X112809523Y-5102714D02*
X112904761Y-5007476D01*
X112904761Y-5007476D02*
X113095237Y-4912238D01*
X113095237Y-4912238D02*
X113571428Y-4912238D01*
X113571428Y-4912238D02*
X113761904Y-5007476D01*
X113761904Y-5007476D02*
X113857142Y-5102714D01*
X113857142Y-5102714D02*
X113952380Y-5293190D01*
X113952380Y-5293190D02*
X113952380Y-5483666D01*
X113952380Y-5483666D02*
X113857142Y-5769380D01*
X113857142Y-5769380D02*
X112714285Y-6912238D01*
X112714285Y-6912238D02*
X113952380Y-6912238D01*
X117761904Y-4817000D02*
X116047619Y-7388428D01*
X121095238Y-6912238D02*
X120428571Y-5959857D01*
X119952381Y-6912238D02*
X119952381Y-4912238D01*
X119952381Y-4912238D02*
X120714286Y-4912238D01*
X120714286Y-4912238D02*
X120904762Y-5007476D01*
X120904762Y-5007476D02*
X121000000Y-5102714D01*
X121000000Y-5102714D02*
X121095238Y-5293190D01*
X121095238Y-5293190D02*
X121095238Y-5578904D01*
X121095238Y-5578904D02*
X121000000Y-5769380D01*
X121000000Y-5769380D02*
X120904762Y-5864619D01*
X120904762Y-5864619D02*
X120714286Y-5959857D01*
X120714286Y-5959857D02*
X119952381Y-5959857D01*
X121857143Y-6817000D02*
X122142857Y-6912238D01*
X122142857Y-6912238D02*
X122619048Y-6912238D01*
X122619048Y-6912238D02*
X122809524Y-6817000D01*
X122809524Y-6817000D02*
X122904762Y-6721761D01*
X122904762Y-6721761D02*
X123000000Y-6531285D01*
X123000000Y-6531285D02*
X123000000Y-6340809D01*
X123000000Y-6340809D02*
X122904762Y-6150333D01*
X122904762Y-6150333D02*
X122809524Y-6055095D01*
X122809524Y-6055095D02*
X122619048Y-5959857D01*
X122619048Y-5959857D02*
X122238095Y-5864619D01*
X122238095Y-5864619D02*
X122047619Y-5769380D01*
X122047619Y-5769380D02*
X121952381Y-5674142D01*
X121952381Y-5674142D02*
X121857143Y-5483666D01*
X121857143Y-5483666D02*
X121857143Y-5293190D01*
X121857143Y-5293190D02*
X121952381Y-5102714D01*
X121952381Y-5102714D02*
X122047619Y-5007476D01*
X122047619Y-5007476D02*
X122238095Y-4912238D01*
X122238095Y-4912238D02*
X122714286Y-4912238D01*
X122714286Y-4912238D02*
X123000000Y-5007476D01*
X124714286Y-5578904D02*
X124714286Y-6912238D01*
X124238095Y-4817000D02*
X123761905Y-6245571D01*
X123761905Y-6245571D02*
X125000000Y-6245571D01*
X126047619Y-5769380D02*
X125857143Y-5674142D01*
X125857143Y-5674142D02*
X125761905Y-5578904D01*
X125761905Y-5578904D02*
X125666667Y-5388428D01*
X125666667Y-5388428D02*
X125666667Y-5293190D01*
X125666667Y-5293190D02*
X125761905Y-5102714D01*
X125761905Y-5102714D02*
X125857143Y-5007476D01*
X125857143Y-5007476D02*
X126047619Y-4912238D01*
X126047619Y-4912238D02*
X126428572Y-4912238D01*
X126428572Y-4912238D02*
X126619048Y-5007476D01*
X126619048Y-5007476D02*
X126714286Y-5102714D01*
X126714286Y-5102714D02*
X126809524Y-5293190D01*
X126809524Y-5293190D02*
X126809524Y-5388428D01*
X126809524Y-5388428D02*
X126714286Y-5578904D01*
X126714286Y-5578904D02*
X126619048Y-5674142D01*
X126619048Y-5674142D02*
X126428572Y-5769380D01*
X126428572Y-5769380D02*
X126047619Y-5769380D01*
X126047619Y-5769380D02*
X125857143Y-5864619D01*
X125857143Y-5864619D02*
X125761905Y-5959857D01*
X125761905Y-5959857D02*
X125666667Y-6150333D01*
X125666667Y-6150333D02*
X125666667Y-6531285D01*
X125666667Y-6531285D02*
X125761905Y-6721761D01*
X125761905Y-6721761D02*
X125857143Y-6817000D01*
X125857143Y-6817000D02*
X126047619Y-6912238D01*
X126047619Y-6912238D02*
X126428572Y-6912238D01*
X126428572Y-6912238D02*
X126619048Y-6817000D01*
X126619048Y-6817000D02*
X126714286Y-6721761D01*
X126714286Y-6721761D02*
X126809524Y-6531285D01*
X126809524Y-6531285D02*
X126809524Y-6150333D01*
X126809524Y-6150333D02*
X126714286Y-5959857D01*
X126714286Y-5959857D02*
X126619048Y-5864619D01*
X126619048Y-5864619D02*
X126428572Y-5769380D01*
X128619048Y-4912238D02*
X127666667Y-4912238D01*
X127666667Y-4912238D02*
X127571429Y-5864619D01*
X127571429Y-5864619D02*
X127666667Y-5769380D01*
X127666667Y-5769380D02*
X127857143Y-5674142D01*
X127857143Y-5674142D02*
X128333334Y-5674142D01*
X128333334Y-5674142D02*
X128523810Y-5769380D01*
X128523810Y-5769380D02*
X128619048Y-5864619D01*
X128619048Y-5864619D02*
X128714286Y-6055095D01*
X128714286Y-6055095D02*
X128714286Y-6531285D01*
X128714286Y-6531285D02*
X128619048Y-6721761D01*
X128619048Y-6721761D02*
X128523810Y-6817000D01*
X128523810Y-6817000D02*
X128333334Y-6912238D01*
X128333334Y-6912238D02*
X127857143Y-6912238D01*
X127857143Y-6912238D02*
X127666667Y-6817000D01*
X127666667Y-6817000D02*
X127571429Y-6721761D01*
X132523810Y-4817000D02*
X130809525Y-7388428D01*
X135857144Y-6912238D02*
X135190477Y-5959857D01*
X134714287Y-6912238D02*
X134714287Y-4912238D01*
X134714287Y-4912238D02*
X135476192Y-4912238D01*
X135476192Y-4912238D02*
X135666668Y-5007476D01*
X135666668Y-5007476D02*
X135761906Y-5102714D01*
X135761906Y-5102714D02*
X135857144Y-5293190D01*
X135857144Y-5293190D02*
X135857144Y-5578904D01*
X135857144Y-5578904D02*
X135761906Y-5769380D01*
X135761906Y-5769380D02*
X135666668Y-5864619D01*
X135666668Y-5864619D02*
X135476192Y-5959857D01*
X135476192Y-5959857D02*
X134714287Y-5959857D01*
X136428573Y-4912238D02*
X137571430Y-4912238D01*
X137000001Y-6912238D02*
X137000001Y-4912238D01*
X138238097Y-6912238D02*
X138238097Y-4912238D01*
X138238097Y-4912238D02*
X138714287Y-4912238D01*
X138714287Y-4912238D02*
X139000002Y-5007476D01*
X139000002Y-5007476D02*
X139190478Y-5197952D01*
X139190478Y-5197952D02*
X139285716Y-5388428D01*
X139285716Y-5388428D02*
X139380954Y-5769380D01*
X139380954Y-5769380D02*
X139380954Y-6055095D01*
X139380954Y-6055095D02*
X139285716Y-6436047D01*
X139285716Y-6436047D02*
X139190478Y-6626523D01*
X139190478Y-6626523D02*
X139000002Y-6817000D01*
X139000002Y-6817000D02*
X138714287Y-6912238D01*
X138714287Y-6912238D02*
X138238097Y-6912238D01*
X143190478Y-4817000D02*
X141476193Y-7388428D01*
X145380955Y-4912238D02*
X145380955Y-6531285D01*
X145380955Y-6531285D02*
X145476193Y-6721761D01*
X145476193Y-6721761D02*
X145571431Y-6817000D01*
X145571431Y-6817000D02*
X145761907Y-6912238D01*
X145761907Y-6912238D02*
X146142860Y-6912238D01*
X146142860Y-6912238D02*
X146333336Y-6817000D01*
X146333336Y-6817000D02*
X146428574Y-6721761D01*
X146428574Y-6721761D02*
X146523812Y-6531285D01*
X146523812Y-6531285D02*
X146523812Y-4912238D01*
X147380955Y-6817000D02*
X147666669Y-6912238D01*
X147666669Y-6912238D02*
X148142860Y-6912238D01*
X148142860Y-6912238D02*
X148333336Y-6817000D01*
X148333336Y-6817000D02*
X148428574Y-6721761D01*
X148428574Y-6721761D02*
X148523812Y-6531285D01*
X148523812Y-6531285D02*
X148523812Y-6340809D01*
X148523812Y-6340809D02*
X148428574Y-6150333D01*
X148428574Y-6150333D02*
X148333336Y-6055095D01*
X148333336Y-6055095D02*
X148142860Y-5959857D01*
X148142860Y-5959857D02*
X147761907Y-5864619D01*
X147761907Y-5864619D02*
X147571431Y-5769380D01*
X147571431Y-5769380D02*
X147476193Y-5674142D01*
X147476193Y-5674142D02*
X147380955Y-5483666D01*
X147380955Y-5483666D02*
X147380955Y-5293190D01*
X147380955Y-5293190D02*
X147476193Y-5102714D01*
X147476193Y-5102714D02*
X147571431Y-5007476D01*
X147571431Y-5007476D02*
X147761907Y-4912238D01*
X147761907Y-4912238D02*
X148238098Y-4912238D01*
X148238098Y-4912238D02*
X148523812Y-5007476D01*
X150047622Y-5864619D02*
X150333336Y-5959857D01*
X150333336Y-5959857D02*
X150428574Y-6055095D01*
X150428574Y-6055095D02*
X150523812Y-6245571D01*
X150523812Y-6245571D02*
X150523812Y-6531285D01*
X150523812Y-6531285D02*
X150428574Y-6721761D01*
X150428574Y-6721761D02*
X150333336Y-6817000D01*
X150333336Y-6817000D02*
X150142860Y-6912238D01*
X150142860Y-6912238D02*
X149380955Y-6912238D01*
X149380955Y-6912238D02*
X149380955Y-4912238D01*
X149380955Y-4912238D02*
X150047622Y-4912238D01*
X150047622Y-4912238D02*
X150238098Y-5007476D01*
X150238098Y-5007476D02*
X150333336Y-5102714D01*
X150333336Y-5102714D02*
X150428574Y-5293190D01*
X150428574Y-5293190D02*
X150428574Y-5483666D01*
X150428574Y-5483666D02*
X150333336Y-5674142D01*
X150333336Y-5674142D02*
X150238098Y-5769380D01*
X150238098Y-5769380D02*
X150047622Y-5864619D01*
X150047622Y-5864619D02*
X149380955Y-5864619D01*
X151380955Y-6150333D02*
X152904765Y-6150333D01*
X155000002Y-6721761D02*
X154904764Y-6817000D01*
X154904764Y-6817000D02*
X154619050Y-6912238D01*
X154619050Y-6912238D02*
X154428574Y-6912238D01*
X154428574Y-6912238D02*
X154142859Y-6817000D01*
X154142859Y-6817000D02*
X153952383Y-6626523D01*
X153952383Y-6626523D02*
X153857145Y-6436047D01*
X153857145Y-6436047D02*
X153761907Y-6055095D01*
X153761907Y-6055095D02*
X153761907Y-5769380D01*
X153761907Y-5769380D02*
X153857145Y-5388428D01*
X153857145Y-5388428D02*
X153952383Y-5197952D01*
X153952383Y-5197952D02*
X154142859Y-5007476D01*
X154142859Y-5007476D02*
X154428574Y-4912238D01*
X154428574Y-4912238D02*
X154619050Y-4912238D01*
X154619050Y-4912238D02*
X154904764Y-5007476D01*
X154904764Y-5007476D02*
X155000002Y-5102714D01*
D12*
X80792702Y-79000000D02*
X80706988Y-79171429D01*
X80706988Y-79171429D02*
X80621274Y-79257143D01*
X80621274Y-79257143D02*
X80449845Y-79342857D01*
X80449845Y-79342857D02*
X80364131Y-79342857D01*
X80364131Y-79342857D02*
X80192702Y-79257143D01*
X80192702Y-79257143D02*
X80106988Y-79171429D01*
X80106988Y-79171429D02*
X80021274Y-79000000D01*
X80021274Y-79000000D02*
X80021274Y-78657143D01*
X80021274Y-78657143D02*
X80106988Y-78485715D01*
X80106988Y-78485715D02*
X80192702Y-78400000D01*
X80192702Y-78400000D02*
X80364131Y-78314286D01*
X80364131Y-78314286D02*
X80449845Y-78314286D01*
X80449845Y-78314286D02*
X80621274Y-78400000D01*
X80621274Y-78400000D02*
X80706988Y-78485715D01*
X80706988Y-78485715D02*
X80792702Y-78657143D01*
X80792702Y-78657143D02*
X80792702Y-79000000D01*
X80792702Y-79000000D02*
X80878417Y-79171429D01*
X80878417Y-79171429D02*
X80964131Y-79257143D01*
X80964131Y-79257143D02*
X81135560Y-79342857D01*
X81135560Y-79342857D02*
X81478417Y-79342857D01*
X81478417Y-79342857D02*
X81649845Y-79257143D01*
X81649845Y-79257143D02*
X81735560Y-79171429D01*
X81735560Y-79171429D02*
X81821274Y-79000000D01*
X81821274Y-79000000D02*
X81821274Y-78657143D01*
X81821274Y-78657143D02*
X81735560Y-78485715D01*
X81735560Y-78485715D02*
X81649845Y-78400000D01*
X81649845Y-78400000D02*
X81478417Y-78314286D01*
X81478417Y-78314286D02*
X81135560Y-78314286D01*
X81135560Y-78314286D02*
X80964131Y-78400000D01*
X80964131Y-78400000D02*
X80878417Y-78485715D01*
X80878417Y-78485715D02*
X80792702Y-78657143D01*
X81821274Y-77542857D02*
X80621274Y-77542857D01*
X80792702Y-77542857D02*
X80706988Y-77457143D01*
X80706988Y-77457143D02*
X80621274Y-77285714D01*
X80621274Y-77285714D02*
X80621274Y-77028571D01*
X80621274Y-77028571D02*
X80706988Y-76857143D01*
X80706988Y-76857143D02*
X80878417Y-76771429D01*
X80878417Y-76771429D02*
X81821274Y-76771429D01*
X80878417Y-76771429D02*
X80706988Y-76685714D01*
X80706988Y-76685714D02*
X80621274Y-76514286D01*
X80621274Y-76514286D02*
X80621274Y-76257143D01*
X80621274Y-76257143D02*
X80706988Y-76085714D01*
X80706988Y-76085714D02*
X80878417Y-76000000D01*
X80878417Y-76000000D02*
X81821274Y-76000000D01*
X81821274Y-75142857D02*
X80621274Y-75142857D01*
X80792702Y-75142857D02*
X80706988Y-75057143D01*
X80706988Y-75057143D02*
X80621274Y-74885714D01*
X80621274Y-74885714D02*
X80621274Y-74628571D01*
X80621274Y-74628571D02*
X80706988Y-74457143D01*
X80706988Y-74457143D02*
X80878417Y-74371429D01*
X80878417Y-74371429D02*
X81821274Y-74371429D01*
X80878417Y-74371429D02*
X80706988Y-74285714D01*
X80706988Y-74285714D02*
X80621274Y-74114286D01*
X80621274Y-74114286D02*
X80621274Y-73857143D01*
X80621274Y-73857143D02*
X80706988Y-73685714D01*
X80706988Y-73685714D02*
X80878417Y-73600000D01*
X80878417Y-73600000D02*
X81821274Y-73600000D01*
X81135560Y-72742857D02*
X81135560Y-71371429D01*
X81821274Y-72057143D02*
X80449845Y-72057143D01*
X81821274Y-69142857D02*
X80021274Y-69142857D01*
X81735560Y-68371428D02*
X81821274Y-68114286D01*
X81821274Y-68114286D02*
X81821274Y-67685714D01*
X81821274Y-67685714D02*
X81735560Y-67514286D01*
X81735560Y-67514286D02*
X81649845Y-67428571D01*
X81649845Y-67428571D02*
X81478417Y-67342857D01*
X81478417Y-67342857D02*
X81306988Y-67342857D01*
X81306988Y-67342857D02*
X81135560Y-67428571D01*
X81135560Y-67428571D02*
X81049845Y-67514286D01*
X81049845Y-67514286D02*
X80964131Y-67685714D01*
X80964131Y-67685714D02*
X80878417Y-68028571D01*
X80878417Y-68028571D02*
X80792702Y-68200000D01*
X80792702Y-68200000D02*
X80706988Y-68285714D01*
X80706988Y-68285714D02*
X80535560Y-68371428D01*
X80535560Y-68371428D02*
X80364131Y-68371428D01*
X80364131Y-68371428D02*
X80192702Y-68285714D01*
X80192702Y-68285714D02*
X80106988Y-68200000D01*
X80106988Y-68200000D02*
X80021274Y-68028571D01*
X80021274Y-68028571D02*
X80021274Y-67600000D01*
X80021274Y-67600000D02*
X80106988Y-67342857D01*
X80021274Y-66228571D02*
X80021274Y-65885714D01*
X80021274Y-65885714D02*
X80106988Y-65714285D01*
X80106988Y-65714285D02*
X80278417Y-65542857D01*
X80278417Y-65542857D02*
X80621274Y-65457142D01*
X80621274Y-65457142D02*
X81221274Y-65457142D01*
X81221274Y-65457142D02*
X81564131Y-65542857D01*
X81564131Y-65542857D02*
X81735560Y-65714285D01*
X81735560Y-65714285D02*
X81821274Y-65885714D01*
X81821274Y-65885714D02*
X81821274Y-66228571D01*
X81821274Y-66228571D02*
X81735560Y-66400000D01*
X81735560Y-66400000D02*
X81564131Y-66571428D01*
X81564131Y-66571428D02*
X81221274Y-66657142D01*
X81221274Y-66657142D02*
X80621274Y-66657142D01*
X80621274Y-66657142D02*
X80278417Y-66571428D01*
X80278417Y-66571428D02*
X80106988Y-66400000D01*
X80106988Y-66400000D02*
X80021274Y-66228571D01*
X81821274Y-63828571D02*
X81821274Y-64685714D01*
X81821274Y-64685714D02*
X80021274Y-64685714D01*
X81306988Y-63314285D02*
X81306988Y-62457143D01*
X81821274Y-63485714D02*
X80021274Y-62885714D01*
X80021274Y-62885714D02*
X81821274Y-62285714D01*
X80021274Y-61942857D02*
X80021274Y-60914286D01*
X81821274Y-61428571D02*
X80021274Y-61428571D01*
X81821274Y-60314285D02*
X80021274Y-60314285D01*
X80021274Y-59114285D02*
X80021274Y-58771428D01*
X80021274Y-58771428D02*
X80106988Y-58599999D01*
X80106988Y-58599999D02*
X80278417Y-58428571D01*
X80278417Y-58428571D02*
X80621274Y-58342856D01*
X80621274Y-58342856D02*
X81221274Y-58342856D01*
X81221274Y-58342856D02*
X81564131Y-58428571D01*
X81564131Y-58428571D02*
X81735560Y-58599999D01*
X81735560Y-58599999D02*
X81821274Y-58771428D01*
X81821274Y-58771428D02*
X81821274Y-59114285D01*
X81821274Y-59114285D02*
X81735560Y-59285714D01*
X81735560Y-59285714D02*
X81564131Y-59457142D01*
X81564131Y-59457142D02*
X81221274Y-59542856D01*
X81221274Y-59542856D02*
X80621274Y-59542856D01*
X80621274Y-59542856D02*
X80278417Y-59457142D01*
X80278417Y-59457142D02*
X80106988Y-59285714D01*
X80106988Y-59285714D02*
X80021274Y-59114285D01*
X81821274Y-57571428D02*
X80021274Y-57571428D01*
X80021274Y-57571428D02*
X81821274Y-56542857D01*
X81821274Y-56542857D02*
X80021274Y-56542857D01*
X81735560Y-54399999D02*
X81821274Y-54142857D01*
X81821274Y-54142857D02*
X81821274Y-53714285D01*
X81821274Y-53714285D02*
X81735560Y-53542857D01*
X81735560Y-53542857D02*
X81649845Y-53457142D01*
X81649845Y-53457142D02*
X81478417Y-53371428D01*
X81478417Y-53371428D02*
X81306988Y-53371428D01*
X81306988Y-53371428D02*
X81135560Y-53457142D01*
X81135560Y-53457142D02*
X81049845Y-53542857D01*
X81049845Y-53542857D02*
X80964131Y-53714285D01*
X80964131Y-53714285D02*
X80878417Y-54057142D01*
X80878417Y-54057142D02*
X80792702Y-54228571D01*
X80792702Y-54228571D02*
X80706988Y-54314285D01*
X80706988Y-54314285D02*
X80535560Y-54399999D01*
X80535560Y-54399999D02*
X80364131Y-54399999D01*
X80364131Y-54399999D02*
X80192702Y-54314285D01*
X80192702Y-54314285D02*
X80106988Y-54228571D01*
X80106988Y-54228571D02*
X80021274Y-54057142D01*
X80021274Y-54057142D02*
X80021274Y-53628571D01*
X80021274Y-53628571D02*
X80106988Y-53371428D01*
X81821274Y-51742856D02*
X81821274Y-52599999D01*
X81821274Y-52599999D02*
X80021274Y-52599999D01*
X80021274Y-50799999D02*
X80021274Y-50457142D01*
X80021274Y-50457142D02*
X80106988Y-50285713D01*
X80106988Y-50285713D02*
X80278417Y-50114285D01*
X80278417Y-50114285D02*
X80621274Y-50028570D01*
X80621274Y-50028570D02*
X81221274Y-50028570D01*
X81221274Y-50028570D02*
X81564131Y-50114285D01*
X81564131Y-50114285D02*
X81735560Y-50285713D01*
X81735560Y-50285713D02*
X81821274Y-50457142D01*
X81821274Y-50457142D02*
X81821274Y-50799999D01*
X81821274Y-50799999D02*
X81735560Y-50971428D01*
X81735560Y-50971428D02*
X81564131Y-51142856D01*
X81564131Y-51142856D02*
X81221274Y-51228570D01*
X81221274Y-51228570D02*
X80621274Y-51228570D01*
X80621274Y-51228570D02*
X80278417Y-51142856D01*
X80278417Y-51142856D02*
X80106988Y-50971428D01*
X80106988Y-50971428D02*
X80021274Y-50799999D01*
X80021274Y-49514285D02*
X80021274Y-48485714D01*
X81821274Y-48999999D02*
X80021274Y-48999999D01*
X79935560Y-45228570D02*
X82249845Y-46771427D01*
X81821274Y-43257141D02*
X80021274Y-43257141D01*
X81821274Y-42228570D02*
X80792702Y-42999998D01*
X80021274Y-42228570D02*
X81049845Y-43257141D01*
X80878417Y-41457141D02*
X80878417Y-40857141D01*
X81821274Y-40599998D02*
X81821274Y-41457141D01*
X81821274Y-41457141D02*
X80021274Y-41457141D01*
X80021274Y-41457141D02*
X80021274Y-40599998D01*
X80878417Y-39828570D02*
X80878417Y-39228570D01*
X81821274Y-38971427D02*
X81821274Y-39828570D01*
X81821274Y-39828570D02*
X80021274Y-39828570D01*
X80021274Y-39828570D02*
X80021274Y-38971427D01*
X81821274Y-38199999D02*
X80021274Y-38199999D01*
X80021274Y-38199999D02*
X80021274Y-37514285D01*
X80021274Y-37514285D02*
X80106988Y-37342856D01*
X80106988Y-37342856D02*
X80192702Y-37257142D01*
X80192702Y-37257142D02*
X80364131Y-37171428D01*
X80364131Y-37171428D02*
X80621274Y-37171428D01*
X80621274Y-37171428D02*
X80792702Y-37257142D01*
X80792702Y-37257142D02*
X80878417Y-37342856D01*
X80878417Y-37342856D02*
X80964131Y-37514285D01*
X80964131Y-37514285D02*
X80964131Y-38199999D01*
X80021274Y-34685713D02*
X80021274Y-34342856D01*
X80021274Y-34342856D02*
X80106988Y-34171427D01*
X80106988Y-34171427D02*
X80278417Y-33999999D01*
X80278417Y-33999999D02*
X80621274Y-33914284D01*
X80621274Y-33914284D02*
X81221274Y-33914284D01*
X81221274Y-33914284D02*
X81564131Y-33999999D01*
X81564131Y-33999999D02*
X81735560Y-34171427D01*
X81735560Y-34171427D02*
X81821274Y-34342856D01*
X81821274Y-34342856D02*
X81821274Y-34685713D01*
X81821274Y-34685713D02*
X81735560Y-34857142D01*
X81735560Y-34857142D02*
X81564131Y-35028570D01*
X81564131Y-35028570D02*
X81221274Y-35114284D01*
X81221274Y-35114284D02*
X80621274Y-35114284D01*
X80621274Y-35114284D02*
X80278417Y-35028570D01*
X80278417Y-35028570D02*
X80106988Y-34857142D01*
X80106988Y-34857142D02*
X80021274Y-34685713D01*
X80021274Y-33142856D02*
X81478417Y-33142856D01*
X81478417Y-33142856D02*
X81649845Y-33057142D01*
X81649845Y-33057142D02*
X81735560Y-32971428D01*
X81735560Y-32971428D02*
X81821274Y-32799999D01*
X81821274Y-32799999D02*
X81821274Y-32457142D01*
X81821274Y-32457142D02*
X81735560Y-32285713D01*
X81735560Y-32285713D02*
X81649845Y-32199999D01*
X81649845Y-32199999D02*
X81478417Y-32114285D01*
X81478417Y-32114285D02*
X80021274Y-32114285D01*
X80021274Y-31514285D02*
X80021274Y-30485714D01*
X81821274Y-30999999D02*
X80021274Y-30999999D01*
D13*
X47964284Y-107684568D02*
X47464284Y-106970282D01*
X47107141Y-107684568D02*
X47107141Y-106184568D01*
X47107141Y-106184568D02*
X47678570Y-106184568D01*
X47678570Y-106184568D02*
X47821427Y-106255997D01*
X47821427Y-106255997D02*
X47892856Y-106327425D01*
X47892856Y-106327425D02*
X47964284Y-106470282D01*
X47964284Y-106470282D02*
X47964284Y-106684568D01*
X47964284Y-106684568D02*
X47892856Y-106827425D01*
X47892856Y-106827425D02*
X47821427Y-106898854D01*
X47821427Y-106898854D02*
X47678570Y-106970282D01*
X47678570Y-106970282D02*
X47107141Y-106970282D01*
X48607141Y-106898854D02*
X49107141Y-106898854D01*
X49321427Y-107684568D02*
X48607141Y-107684568D01*
X48607141Y-107684568D02*
X48607141Y-106184568D01*
X48607141Y-106184568D02*
X49321427Y-106184568D01*
X49749999Y-106184568D02*
X50249999Y-107684568D01*
X50249999Y-107684568D02*
X50749999Y-106184568D01*
X52321427Y-107255997D02*
X53035713Y-107255997D01*
X52178570Y-107684568D02*
X52678570Y-106184568D01*
X52678570Y-106184568D02*
X53178570Y-107684568D01*
X54821426Y-107684568D02*
X54821426Y-106184568D01*
X54821426Y-106184568D02*
X55392855Y-106184568D01*
X55392855Y-106184568D02*
X55535712Y-106255997D01*
X55535712Y-106255997D02*
X55607141Y-106327425D01*
X55607141Y-106327425D02*
X55678569Y-106470282D01*
X55678569Y-106470282D02*
X55678569Y-106684568D01*
X55678569Y-106684568D02*
X55607141Y-106827425D01*
X55607141Y-106827425D02*
X55535712Y-106898854D01*
X55535712Y-106898854D02*
X55392855Y-106970282D01*
X55392855Y-106970282D02*
X54821426Y-106970282D01*
X57178569Y-107684568D02*
X56678569Y-106970282D01*
X56321426Y-107684568D02*
X56321426Y-106184568D01*
X56321426Y-106184568D02*
X56892855Y-106184568D01*
X56892855Y-106184568D02*
X57035712Y-106255997D01*
X57035712Y-106255997D02*
X57107141Y-106327425D01*
X57107141Y-106327425D02*
X57178569Y-106470282D01*
X57178569Y-106470282D02*
X57178569Y-106684568D01*
X57178569Y-106684568D02*
X57107141Y-106827425D01*
X57107141Y-106827425D02*
X57035712Y-106898854D01*
X57035712Y-106898854D02*
X56892855Y-106970282D01*
X56892855Y-106970282D02*
X56321426Y-106970282D01*
X57821426Y-106898854D02*
X58321426Y-106898854D01*
X58535712Y-107684568D02*
X57821426Y-107684568D01*
X57821426Y-107684568D02*
X57821426Y-106184568D01*
X57821426Y-106184568D02*
X58535712Y-106184568D01*
X59892855Y-107684568D02*
X59178569Y-107684568D01*
X59178569Y-107684568D02*
X59178569Y-106184568D01*
X60392855Y-107684568D02*
X60392855Y-106184568D01*
X61107141Y-107684568D02*
X61107141Y-106184568D01*
X61107141Y-106184568D02*
X61607141Y-107255997D01*
X61607141Y-107255997D02*
X62107141Y-106184568D01*
X62107141Y-106184568D02*
X62107141Y-107684568D01*
X62821427Y-107684568D02*
X62821427Y-106184568D01*
X63535713Y-107684568D02*
X63535713Y-106184568D01*
X63535713Y-106184568D02*
X64392856Y-107684568D01*
X64392856Y-107684568D02*
X64392856Y-106184568D01*
X65035714Y-107255997D02*
X65750000Y-107255997D01*
X64892857Y-107684568D02*
X65392857Y-106184568D01*
X65392857Y-106184568D02*
X65892857Y-107684568D01*
X67249999Y-107684568D02*
X66749999Y-106970282D01*
X66392856Y-107684568D02*
X66392856Y-106184568D01*
X66392856Y-106184568D02*
X66964285Y-106184568D01*
X66964285Y-106184568D02*
X67107142Y-106255997D01*
X67107142Y-106255997D02*
X67178571Y-106327425D01*
X67178571Y-106327425D02*
X67249999Y-106470282D01*
X67249999Y-106470282D02*
X67249999Y-106684568D01*
X67249999Y-106684568D02*
X67178571Y-106827425D01*
X67178571Y-106827425D02*
X67107142Y-106898854D01*
X67107142Y-106898854D02*
X66964285Y-106970282D01*
X66964285Y-106970282D02*
X66392856Y-106970282D01*
X68178571Y-106970282D02*
X68178571Y-107684568D01*
X67678571Y-106184568D02*
X68178571Y-106970282D01*
X68178571Y-106970282D02*
X68678571Y-106184568D01*
X70321427Y-107113140D02*
X71464285Y-107113140D01*
X73321427Y-106898854D02*
X73821427Y-106898854D01*
X74035713Y-107684568D02*
X73321427Y-107684568D01*
X73321427Y-107684568D02*
X73321427Y-106184568D01*
X73321427Y-106184568D02*
X74035713Y-106184568D01*
X75392856Y-107684568D02*
X74678570Y-107684568D01*
X74678570Y-107684568D02*
X74678570Y-106184568D01*
X75892856Y-106898854D02*
X76392856Y-106898854D01*
X76607142Y-107684568D02*
X75892856Y-107684568D01*
X75892856Y-107684568D02*
X75892856Y-106184568D01*
X75892856Y-106184568D02*
X76607142Y-106184568D01*
X77249999Y-107684568D02*
X77249999Y-106184568D01*
X78107142Y-107684568D02*
X77464285Y-106827425D01*
X78107142Y-106184568D02*
X77249999Y-107041711D01*
X78535714Y-106184568D02*
X79392857Y-106184568D01*
X78964285Y-107684568D02*
X78964285Y-106184568D01*
X80749999Y-107684568D02*
X80249999Y-106970282D01*
X79892856Y-107684568D02*
X79892856Y-106184568D01*
X79892856Y-106184568D02*
X80464285Y-106184568D01*
X80464285Y-106184568D02*
X80607142Y-106255997D01*
X80607142Y-106255997D02*
X80678571Y-106327425D01*
X80678571Y-106327425D02*
X80749999Y-106470282D01*
X80749999Y-106470282D02*
X80749999Y-106684568D01*
X80749999Y-106684568D02*
X80678571Y-106827425D01*
X80678571Y-106827425D02*
X80607142Y-106898854D01*
X80607142Y-106898854D02*
X80464285Y-106970282D01*
X80464285Y-106970282D02*
X79892856Y-106970282D01*
X81678571Y-106184568D02*
X81964285Y-106184568D01*
X81964285Y-106184568D02*
X82107142Y-106255997D01*
X82107142Y-106255997D02*
X82249999Y-106398854D01*
X82249999Y-106398854D02*
X82321428Y-106684568D01*
X82321428Y-106684568D02*
X82321428Y-107184568D01*
X82321428Y-107184568D02*
X82249999Y-107470282D01*
X82249999Y-107470282D02*
X82107142Y-107613140D01*
X82107142Y-107613140D02*
X81964285Y-107684568D01*
X81964285Y-107684568D02*
X81678571Y-107684568D01*
X81678571Y-107684568D02*
X81535714Y-107613140D01*
X81535714Y-107613140D02*
X81392856Y-107470282D01*
X81392856Y-107470282D02*
X81321428Y-107184568D01*
X81321428Y-107184568D02*
X81321428Y-106684568D01*
X81321428Y-106684568D02*
X81392856Y-106398854D01*
X81392856Y-106398854D02*
X81535714Y-106255997D01*
X81535714Y-106255997D02*
X81678571Y-106184568D01*
X82964285Y-107684568D02*
X82964285Y-106184568D01*
X82964285Y-106184568D02*
X83535714Y-106184568D01*
X83535714Y-106184568D02*
X83678571Y-106255997D01*
X83678571Y-106255997D02*
X83750000Y-106327425D01*
X83750000Y-106327425D02*
X83821428Y-106470282D01*
X83821428Y-106470282D02*
X83821428Y-106684568D01*
X83821428Y-106684568D02*
X83750000Y-106827425D01*
X83750000Y-106827425D02*
X83678571Y-106898854D01*
X83678571Y-106898854D02*
X83535714Y-106970282D01*
X83535714Y-106970282D02*
X82964285Y-106970282D01*
X85321428Y-107684568D02*
X84821428Y-106970282D01*
X84464285Y-107684568D02*
X84464285Y-106184568D01*
X84464285Y-106184568D02*
X85035714Y-106184568D01*
X85035714Y-106184568D02*
X85178571Y-106255997D01*
X85178571Y-106255997D02*
X85250000Y-106327425D01*
X85250000Y-106327425D02*
X85321428Y-106470282D01*
X85321428Y-106470282D02*
X85321428Y-106684568D01*
X85321428Y-106684568D02*
X85250000Y-106827425D01*
X85250000Y-106827425D02*
X85178571Y-106898854D01*
X85178571Y-106898854D02*
X85035714Y-106970282D01*
X85035714Y-106970282D02*
X84464285Y-106970282D01*
X85964285Y-106184568D02*
X85964285Y-107398854D01*
X85964285Y-107398854D02*
X86035714Y-107541711D01*
X86035714Y-107541711D02*
X86107143Y-107613140D01*
X86107143Y-107613140D02*
X86250000Y-107684568D01*
X86250000Y-107684568D02*
X86535714Y-107684568D01*
X86535714Y-107684568D02*
X86678571Y-107613140D01*
X86678571Y-107613140D02*
X86750000Y-107541711D01*
X86750000Y-107541711D02*
X86821428Y-107398854D01*
X86821428Y-107398854D02*
X86821428Y-106184568D01*
X87535714Y-106898854D02*
X88035714Y-106898854D01*
X88250000Y-107684568D02*
X87535714Y-107684568D01*
X87535714Y-107684568D02*
X87535714Y-106184568D01*
X87535714Y-106184568D02*
X88250000Y-106184568D01*
X89392857Y-106898854D02*
X88892857Y-106898854D01*
X88892857Y-107684568D02*
X88892857Y-106184568D01*
X88892857Y-106184568D02*
X89607143Y-106184568D01*
X90178571Y-106184568D02*
X90178571Y-107398854D01*
X90178571Y-107398854D02*
X90250000Y-107541711D01*
X90250000Y-107541711D02*
X90321429Y-107613140D01*
X90321429Y-107613140D02*
X90464286Y-107684568D01*
X90464286Y-107684568D02*
X90750000Y-107684568D01*
X90750000Y-107684568D02*
X90892857Y-107613140D01*
X90892857Y-107613140D02*
X90964286Y-107541711D01*
X90964286Y-107541711D02*
X91035714Y-107398854D01*
X91035714Y-107398854D02*
X91035714Y-106184568D01*
X91750000Y-107684568D02*
X91750000Y-106184568D01*
X91750000Y-106184568D02*
X92607143Y-107684568D01*
X92607143Y-107684568D02*
X92607143Y-106184568D01*
X94107144Y-106255997D02*
X93964287Y-106184568D01*
X93964287Y-106184568D02*
X93750001Y-106184568D01*
X93750001Y-106184568D02*
X93535715Y-106255997D01*
X93535715Y-106255997D02*
X93392858Y-106398854D01*
X93392858Y-106398854D02*
X93321429Y-106541711D01*
X93321429Y-106541711D02*
X93250001Y-106827425D01*
X93250001Y-106827425D02*
X93250001Y-107041711D01*
X93250001Y-107041711D02*
X93321429Y-107327425D01*
X93321429Y-107327425D02*
X93392858Y-107470282D01*
X93392858Y-107470282D02*
X93535715Y-107613140D01*
X93535715Y-107613140D02*
X93750001Y-107684568D01*
X93750001Y-107684568D02*
X93892858Y-107684568D01*
X93892858Y-107684568D02*
X94107144Y-107613140D01*
X94107144Y-107613140D02*
X94178572Y-107541711D01*
X94178572Y-107541711D02*
X94178572Y-107041711D01*
X94178572Y-107041711D02*
X93892858Y-107041711D01*
X95750001Y-106184568D02*
X96250001Y-107684568D01*
X96250001Y-107684568D02*
X96750001Y-106184568D01*
X97535715Y-106184568D02*
X97821429Y-106184568D01*
X97821429Y-106184568D02*
X97964286Y-106255997D01*
X97964286Y-106255997D02*
X98107143Y-106398854D01*
X98107143Y-106398854D02*
X98178572Y-106684568D01*
X98178572Y-106684568D02*
X98178572Y-107184568D01*
X98178572Y-107184568D02*
X98107143Y-107470282D01*
X98107143Y-107470282D02*
X97964286Y-107613140D01*
X97964286Y-107613140D02*
X97821429Y-107684568D01*
X97821429Y-107684568D02*
X97535715Y-107684568D01*
X97535715Y-107684568D02*
X97392858Y-107613140D01*
X97392858Y-107613140D02*
X97250000Y-107470282D01*
X97250000Y-107470282D02*
X97178572Y-107184568D01*
X97178572Y-107184568D02*
X97178572Y-106684568D01*
X97178572Y-106684568D02*
X97250000Y-106398854D01*
X97250000Y-106398854D02*
X97392858Y-106255997D01*
X97392858Y-106255997D02*
X97535715Y-106184568D01*
X99678572Y-107684568D02*
X99178572Y-106970282D01*
X98821429Y-107684568D02*
X98821429Y-106184568D01*
X98821429Y-106184568D02*
X99392858Y-106184568D01*
X99392858Y-106184568D02*
X99535715Y-106255997D01*
X99535715Y-106255997D02*
X99607144Y-106327425D01*
X99607144Y-106327425D02*
X99678572Y-106470282D01*
X99678572Y-106470282D02*
X99678572Y-106684568D01*
X99678572Y-106684568D02*
X99607144Y-106827425D01*
X99607144Y-106827425D02*
X99535715Y-106898854D01*
X99535715Y-106898854D02*
X99392858Y-106970282D01*
X99392858Y-106970282D02*
X98821429Y-106970282D01*
X101964286Y-106898854D02*
X101464286Y-106898854D01*
X101464286Y-107684568D02*
X101464286Y-106184568D01*
X101464286Y-106184568D02*
X102178572Y-106184568D01*
X102750000Y-106898854D02*
X103250000Y-106898854D01*
X103464286Y-107684568D02*
X102750000Y-107684568D01*
X102750000Y-107684568D02*
X102750000Y-106184568D01*
X102750000Y-106184568D02*
X103464286Y-106184568D01*
X104964286Y-107684568D02*
X104464286Y-106970282D01*
X104107143Y-107684568D02*
X104107143Y-106184568D01*
X104107143Y-106184568D02*
X104678572Y-106184568D01*
X104678572Y-106184568D02*
X104821429Y-106255997D01*
X104821429Y-106255997D02*
X104892858Y-106327425D01*
X104892858Y-106327425D02*
X104964286Y-106470282D01*
X104964286Y-106470282D02*
X104964286Y-106684568D01*
X104964286Y-106684568D02*
X104892858Y-106827425D01*
X104892858Y-106827425D02*
X104821429Y-106898854D01*
X104821429Y-106898854D02*
X104678572Y-106970282D01*
X104678572Y-106970282D02*
X104107143Y-106970282D01*
X105392858Y-106184568D02*
X106250001Y-106184568D01*
X105821429Y-107684568D02*
X105821429Y-106184568D01*
X106750000Y-107684568D02*
X106750000Y-106184568D01*
X108250001Y-106255997D02*
X108107144Y-106184568D01*
X108107144Y-106184568D02*
X107892858Y-106184568D01*
X107892858Y-106184568D02*
X107678572Y-106255997D01*
X107678572Y-106255997D02*
X107535715Y-106398854D01*
X107535715Y-106398854D02*
X107464286Y-106541711D01*
X107464286Y-106541711D02*
X107392858Y-106827425D01*
X107392858Y-106827425D02*
X107392858Y-107041711D01*
X107392858Y-107041711D02*
X107464286Y-107327425D01*
X107464286Y-107327425D02*
X107535715Y-107470282D01*
X107535715Y-107470282D02*
X107678572Y-107613140D01*
X107678572Y-107613140D02*
X107892858Y-107684568D01*
X107892858Y-107684568D02*
X108035715Y-107684568D01*
X108035715Y-107684568D02*
X108250001Y-107613140D01*
X108250001Y-107613140D02*
X108321429Y-107541711D01*
X108321429Y-107541711D02*
X108321429Y-107041711D01*
X108321429Y-107041711D02*
X108035715Y-107041711D01*
X108964286Y-106184568D02*
X108964286Y-107398854D01*
X108964286Y-107398854D02*
X109035715Y-107541711D01*
X109035715Y-107541711D02*
X109107144Y-107613140D01*
X109107144Y-107613140D02*
X109250001Y-107684568D01*
X109250001Y-107684568D02*
X109535715Y-107684568D01*
X109535715Y-107684568D02*
X109678572Y-107613140D01*
X109678572Y-107613140D02*
X109750001Y-107541711D01*
X109750001Y-107541711D02*
X109821429Y-107398854D01*
X109821429Y-107398854D02*
X109821429Y-106184568D01*
X110535715Y-107684568D02*
X110535715Y-106184568D01*
X110535715Y-106184568D02*
X111392858Y-107684568D01*
X111392858Y-107684568D02*
X111392858Y-106184568D01*
X112892859Y-106255997D02*
X112750002Y-106184568D01*
X112750002Y-106184568D02*
X112535716Y-106184568D01*
X112535716Y-106184568D02*
X112321430Y-106255997D01*
X112321430Y-106255997D02*
X112178573Y-106398854D01*
X112178573Y-106398854D02*
X112107144Y-106541711D01*
X112107144Y-106541711D02*
X112035716Y-106827425D01*
X112035716Y-106827425D02*
X112035716Y-107041711D01*
X112035716Y-107041711D02*
X112107144Y-107327425D01*
X112107144Y-107327425D02*
X112178573Y-107470282D01*
X112178573Y-107470282D02*
X112321430Y-107613140D01*
X112321430Y-107613140D02*
X112535716Y-107684568D01*
X112535716Y-107684568D02*
X112678573Y-107684568D01*
X112678573Y-107684568D02*
X112892859Y-107613140D01*
X112892859Y-107613140D02*
X112964287Y-107541711D01*
X112964287Y-107541711D02*
X112964287Y-107041711D01*
X112964287Y-107041711D02*
X112678573Y-107041711D01*
D14*
X9028571Y-7347342D02*
X9828571Y-8547342D01*
X9828571Y-7347342D02*
X9028571Y-8547342D01*
X10914285Y-8547342D02*
X10228571Y-8547342D01*
X10571428Y-8547342D02*
X10571428Y-7347342D01*
X10571428Y-7347342D02*
X10457142Y-7518771D01*
X10457142Y-7518771D02*
X10342857Y-7633057D01*
X10342857Y-7633057D02*
X10228571Y-7690200D01*
D15*
X15309523Y-12836379D02*
X14833333Y-12836379D01*
X14833333Y-12836379D02*
X14833333Y-11836379D01*
X14714286Y-20456379D02*
X14714286Y-19456379D01*
X14714286Y-19456379D02*
X15285714Y-20456379D01*
X15285714Y-20456379D02*
X15285714Y-19456379D01*
X14285714Y-28076379D02*
X14285714Y-27076379D01*
X14285714Y-27076379D02*
X14666666Y-27076379D01*
X14666666Y-27076379D02*
X14761904Y-27123998D01*
X14761904Y-27123998D02*
X14809523Y-27171617D01*
X14809523Y-27171617D02*
X14857142Y-27266855D01*
X14857142Y-27266855D02*
X14857142Y-27409712D01*
X14857142Y-27409712D02*
X14809523Y-27504950D01*
X14809523Y-27504950D02*
X14761904Y-27552569D01*
X14761904Y-27552569D02*
X14666666Y-27600188D01*
X14666666Y-27600188D02*
X14285714Y-27600188D01*
X15285714Y-27552569D02*
X15619047Y-27552569D01*
X15761904Y-28076379D02*
X15285714Y-28076379D01*
X15285714Y-28076379D02*
X15285714Y-27076379D01*
X15285714Y-27076379D02*
X15761904Y-27076379D01*
D14*
X34600000Y-8298771D02*
X34200000Y-8298771D01*
X34200000Y-8927342D02*
X34200000Y-7727342D01*
X34200000Y-7727342D02*
X34771428Y-7727342D01*
X35857142Y-8927342D02*
X35171428Y-8927342D01*
X35514285Y-8927342D02*
X35514285Y-7727342D01*
X35514285Y-7727342D02*
X35399999Y-7898771D01*
X35399999Y-7898771D02*
X35285714Y-8013057D01*
X35285714Y-8013057D02*
X35171428Y-8070200D01*
X72914286Y-11547342D02*
X72914286Y-10347342D01*
X72914286Y-10347342D02*
X73371429Y-10347342D01*
X73371429Y-10347342D02*
X73485714Y-10404485D01*
X73485714Y-10404485D02*
X73542857Y-10461628D01*
X73542857Y-10461628D02*
X73600000Y-10575914D01*
X73600000Y-10575914D02*
X73600000Y-10747342D01*
X73600000Y-10747342D02*
X73542857Y-10861628D01*
X73542857Y-10861628D02*
X73485714Y-10918771D01*
X73485714Y-10918771D02*
X73371429Y-10975914D01*
X73371429Y-10975914D02*
X72914286Y-10975914D01*
X74057143Y-11490200D02*
X74228572Y-11547342D01*
X74228572Y-11547342D02*
X74514286Y-11547342D01*
X74514286Y-11547342D02*
X74628572Y-11490200D01*
X74628572Y-11490200D02*
X74685714Y-11433057D01*
X74685714Y-11433057D02*
X74742857Y-11318771D01*
X74742857Y-11318771D02*
X74742857Y-11204485D01*
X74742857Y-11204485D02*
X74685714Y-11090200D01*
X74685714Y-11090200D02*
X74628572Y-11033057D01*
X74628572Y-11033057D02*
X74514286Y-10975914D01*
X74514286Y-10975914D02*
X74285714Y-10918771D01*
X74285714Y-10918771D02*
X74171429Y-10861628D01*
X74171429Y-10861628D02*
X74114286Y-10804485D01*
X74114286Y-10804485D02*
X74057143Y-10690200D01*
X74057143Y-10690200D02*
X74057143Y-10575914D01*
X74057143Y-10575914D02*
X74114286Y-10461628D01*
X74114286Y-10461628D02*
X74171429Y-10404485D01*
X74171429Y-10404485D02*
X74285714Y-10347342D01*
X74285714Y-10347342D02*
X74571429Y-10347342D01*
X74571429Y-10347342D02*
X74742857Y-10404485D01*
X75257143Y-10347342D02*
X75257143Y-11318771D01*
X75257143Y-11318771D02*
X75314286Y-11433057D01*
X75314286Y-11433057D02*
X75371429Y-11490200D01*
X75371429Y-11490200D02*
X75485714Y-11547342D01*
X75485714Y-11547342D02*
X75714286Y-11547342D01*
X75714286Y-11547342D02*
X75828571Y-11490200D01*
X75828571Y-11490200D02*
X75885714Y-11433057D01*
X75885714Y-11433057D02*
X75942857Y-11318771D01*
X75942857Y-11318771D02*
X75942857Y-10347342D01*
X77142857Y-11547342D02*
X76457143Y-11547342D01*
X76800000Y-11547342D02*
X76800000Y-10347342D01*
X76800000Y-10347342D02*
X76685714Y-10518771D01*
X76685714Y-10518771D02*
X76571429Y-10633057D01*
X76571429Y-10633057D02*
X76457143Y-10690200D01*
X9028571Y-42347342D02*
X9828571Y-43547342D01*
X9828571Y-42347342D02*
X9028571Y-43547342D01*
X10228571Y-42461628D02*
X10285714Y-42404485D01*
X10285714Y-42404485D02*
X10400000Y-42347342D01*
X10400000Y-42347342D02*
X10685714Y-42347342D01*
X10685714Y-42347342D02*
X10800000Y-42404485D01*
X10800000Y-42404485D02*
X10857142Y-42461628D01*
X10857142Y-42461628D02*
X10914285Y-42575914D01*
X10914285Y-42575914D02*
X10914285Y-42690200D01*
X10914285Y-42690200D02*
X10857142Y-42861628D01*
X10857142Y-42861628D02*
X10171428Y-43547342D01*
X10171428Y-43547342D02*
X10914285Y-43547342D01*
D15*
X15380952Y-47836379D02*
X14904762Y-47836379D01*
X14904762Y-47836379D02*
X14904762Y-46836379D01*
X15666667Y-47788760D02*
X15761905Y-47836379D01*
X15761905Y-47836379D02*
X15952381Y-47836379D01*
X15952381Y-47836379D02*
X16047619Y-47788760D01*
X16047619Y-47788760D02*
X16095238Y-47693521D01*
X16095238Y-47693521D02*
X16095238Y-47645902D01*
X16095238Y-47645902D02*
X16047619Y-47550664D01*
X16047619Y-47550664D02*
X15952381Y-47503045D01*
X15952381Y-47503045D02*
X15809524Y-47503045D01*
X15809524Y-47503045D02*
X15714286Y-47455426D01*
X15714286Y-47455426D02*
X15666667Y-47360188D01*
X15666667Y-47360188D02*
X15666667Y-47312569D01*
X15666667Y-47312569D02*
X15714286Y-47217331D01*
X15714286Y-47217331D02*
X15809524Y-47169712D01*
X15809524Y-47169712D02*
X15952381Y-47169712D01*
X15952381Y-47169712D02*
X16047619Y-47217331D01*
X16428572Y-47169712D02*
X16619048Y-47836379D01*
X16619048Y-47836379D02*
X16809524Y-47360188D01*
X16809524Y-47360188D02*
X17000000Y-47836379D01*
X17000000Y-47836379D02*
X17190476Y-47169712D01*
X14714286Y-55456379D02*
X14714286Y-54456379D01*
X14714286Y-54456379D02*
X15285714Y-55456379D01*
X15285714Y-55456379D02*
X15285714Y-54456379D01*
X14285714Y-63076379D02*
X14285714Y-62076379D01*
X14285714Y-62076379D02*
X14666666Y-62076379D01*
X14666666Y-62076379D02*
X14761904Y-62123998D01*
X14761904Y-62123998D02*
X14809523Y-62171617D01*
X14809523Y-62171617D02*
X14857142Y-62266855D01*
X14857142Y-62266855D02*
X14857142Y-62409712D01*
X14857142Y-62409712D02*
X14809523Y-62504950D01*
X14809523Y-62504950D02*
X14761904Y-62552569D01*
X14761904Y-62552569D02*
X14666666Y-62600188D01*
X14666666Y-62600188D02*
X14285714Y-62600188D01*
X15285714Y-62552569D02*
X15619047Y-62552569D01*
X15761904Y-63076379D02*
X15285714Y-63076379D01*
X15285714Y-63076379D02*
X15285714Y-62076379D01*
X15285714Y-62076379D02*
X15761904Y-62076379D01*
D14*
X9028571Y-73347342D02*
X9828571Y-74547342D01*
X9828571Y-73347342D02*
X9028571Y-74547342D01*
X10171428Y-73347342D02*
X10914285Y-73347342D01*
X10914285Y-73347342D02*
X10514285Y-73804485D01*
X10514285Y-73804485D02*
X10685714Y-73804485D01*
X10685714Y-73804485D02*
X10800000Y-73861628D01*
X10800000Y-73861628D02*
X10857142Y-73918771D01*
X10857142Y-73918771D02*
X10914285Y-74033057D01*
X10914285Y-74033057D02*
X10914285Y-74318771D01*
X10914285Y-74318771D02*
X10857142Y-74433057D01*
X10857142Y-74433057D02*
X10800000Y-74490200D01*
X10800000Y-74490200D02*
X10685714Y-74547342D01*
X10685714Y-74547342D02*
X10342857Y-74547342D01*
X10342857Y-74547342D02*
X10228571Y-74490200D01*
X10228571Y-74490200D02*
X10171428Y-74433057D01*
D15*
X14809524Y-78740664D02*
X15285714Y-78740664D01*
X14714286Y-79026379D02*
X15047619Y-78026379D01*
X15047619Y-78026379D02*
X15380952Y-79026379D01*
X15714286Y-78026379D02*
X15714286Y-78835902D01*
X15714286Y-78835902D02*
X15761905Y-78931140D01*
X15761905Y-78931140D02*
X15809524Y-78978760D01*
X15809524Y-78978760D02*
X15904762Y-79026379D01*
X15904762Y-79026379D02*
X16095238Y-79026379D01*
X16095238Y-79026379D02*
X16190476Y-78978760D01*
X16190476Y-78978760D02*
X16238095Y-78931140D01*
X16238095Y-78931140D02*
X16285714Y-78835902D01*
X16285714Y-78835902D02*
X16285714Y-78026379D01*
X17095238Y-78502569D02*
X16761905Y-78502569D01*
X16761905Y-79026379D02*
X16761905Y-78026379D01*
X16761905Y-78026379D02*
X17238095Y-78026379D01*
X14142857Y-85646379D02*
X14809523Y-85646379D01*
X14809523Y-85646379D02*
X14142857Y-86646379D01*
X14142857Y-86646379D02*
X14809523Y-86646379D01*
X15190476Y-85646379D02*
X15190476Y-86455902D01*
X15190476Y-86455902D02*
X15238095Y-86551140D01*
X15238095Y-86551140D02*
X15285714Y-86598760D01*
X15285714Y-86598760D02*
X15380952Y-86646379D01*
X15380952Y-86646379D02*
X15571428Y-86646379D01*
X15571428Y-86646379D02*
X15666666Y-86598760D01*
X15666666Y-86598760D02*
X15714285Y-86551140D01*
X15714285Y-86551140D02*
X15761904Y-86455902D01*
X15761904Y-86455902D02*
X15761904Y-85646379D01*
X14714286Y-94266379D02*
X14714286Y-93266379D01*
X14714286Y-93266379D02*
X15285714Y-94266379D01*
X15285714Y-94266379D02*
X15285714Y-93266379D01*
X14285714Y-101886379D02*
X14285714Y-100886379D01*
X14285714Y-100886379D02*
X14666666Y-100886379D01*
X14666666Y-100886379D02*
X14761904Y-100933998D01*
X14761904Y-100933998D02*
X14809523Y-100981617D01*
X14809523Y-100981617D02*
X14857142Y-101076855D01*
X14857142Y-101076855D02*
X14857142Y-101219712D01*
X14857142Y-101219712D02*
X14809523Y-101314950D01*
X14809523Y-101314950D02*
X14761904Y-101362569D01*
X14761904Y-101362569D02*
X14666666Y-101410188D01*
X14666666Y-101410188D02*
X14285714Y-101410188D01*
X15285714Y-101362569D02*
X15619047Y-101362569D01*
X15761904Y-101886379D02*
X15285714Y-101886379D01*
X15285714Y-101886379D02*
X15285714Y-100886379D01*
X15285714Y-100886379D02*
X15761904Y-100886379D01*
D14*
X77114286Y-41547342D02*
X77114286Y-40347342D01*
X77800000Y-41547342D02*
X77285714Y-40861628D01*
X77800000Y-40347342D02*
X77114286Y-41033057D01*
X78942857Y-41547342D02*
X78257143Y-41547342D01*
X78600000Y-41547342D02*
X78600000Y-40347342D01*
X78600000Y-40347342D02*
X78485714Y-40518771D01*
X78485714Y-40518771D02*
X78371429Y-40633057D01*
X78371429Y-40633057D02*
X78257143Y-40690200D01*
X77114286Y-64547342D02*
X77114286Y-63347342D01*
X77800000Y-64547342D02*
X77285714Y-63861628D01*
X77800000Y-63347342D02*
X77114286Y-64033057D01*
X78257143Y-63461628D02*
X78314286Y-63404485D01*
X78314286Y-63404485D02*
X78428572Y-63347342D01*
X78428572Y-63347342D02*
X78714286Y-63347342D01*
X78714286Y-63347342D02*
X78828572Y-63404485D01*
X78828572Y-63404485D02*
X78885714Y-63461628D01*
X78885714Y-63461628D02*
X78942857Y-63575914D01*
X78942857Y-63575914D02*
X78942857Y-63690200D01*
X78942857Y-63690200D02*
X78885714Y-63861628D01*
X78885714Y-63861628D02*
X78200000Y-64547342D01*
X78200000Y-64547342D02*
X78942857Y-64547342D01*
X77114286Y-84547342D02*
X77114286Y-83347342D01*
X77800000Y-84547342D02*
X77285714Y-83861628D01*
X77800000Y-83347342D02*
X77114286Y-84033057D01*
X78200000Y-83347342D02*
X78942857Y-83347342D01*
X78942857Y-83347342D02*
X78542857Y-83804485D01*
X78542857Y-83804485D02*
X78714286Y-83804485D01*
X78714286Y-83804485D02*
X78828572Y-83861628D01*
X78828572Y-83861628D02*
X78885714Y-83918771D01*
X78885714Y-83918771D02*
X78942857Y-84033057D01*
X78942857Y-84033057D02*
X78942857Y-84318771D01*
X78942857Y-84318771D02*
X78885714Y-84433057D01*
X78885714Y-84433057D02*
X78828572Y-84490200D01*
X78828572Y-84490200D02*
X78714286Y-84547342D01*
X78714286Y-84547342D02*
X78371429Y-84547342D01*
X78371429Y-84547342D02*
X78257143Y-84490200D01*
X78257143Y-84490200D02*
X78200000Y-84433057D01*
X117085714Y-15347342D02*
X117085714Y-16318771D01*
X117085714Y-16318771D02*
X117142857Y-16433057D01*
X117142857Y-16433057D02*
X117200000Y-16490200D01*
X117200000Y-16490200D02*
X117314285Y-16547342D01*
X117314285Y-16547342D02*
X117542857Y-16547342D01*
X117542857Y-16547342D02*
X117657142Y-16490200D01*
X117657142Y-16490200D02*
X117714285Y-16433057D01*
X117714285Y-16433057D02*
X117771428Y-16318771D01*
X117771428Y-16318771D02*
X117771428Y-15347342D01*
X118971428Y-16547342D02*
X118285714Y-16547342D01*
X118628571Y-16547342D02*
X118628571Y-15347342D01*
X118628571Y-15347342D02*
X118514285Y-15518771D01*
X118514285Y-15518771D02*
X118400000Y-15633057D01*
X118400000Y-15633057D02*
X118285714Y-15690200D01*
D15*
X104380952Y-17456379D02*
X104380952Y-18265902D01*
X104380952Y-18265902D02*
X104428571Y-18361140D01*
X104428571Y-18361140D02*
X104476190Y-18408760D01*
X104476190Y-18408760D02*
X104571428Y-18456379D01*
X104571428Y-18456379D02*
X104761904Y-18456379D01*
X104761904Y-18456379D02*
X104857142Y-18408760D01*
X104857142Y-18408760D02*
X104904761Y-18361140D01*
X104904761Y-18361140D02*
X104952380Y-18265902D01*
X104952380Y-18265902D02*
X104952380Y-17456379D01*
X105428571Y-18361140D02*
X105476190Y-18408760D01*
X105476190Y-18408760D02*
X105428571Y-18456379D01*
X105428571Y-18456379D02*
X105380952Y-18408760D01*
X105380952Y-18408760D02*
X105428571Y-18361140D01*
X105428571Y-18361140D02*
X105428571Y-18456379D01*
X106238094Y-17932569D02*
X105904761Y-17932569D01*
X105904761Y-18456379D02*
X105904761Y-17456379D01*
X105904761Y-17456379D02*
X106380951Y-17456379D01*
X107238094Y-18456379D02*
X106761904Y-18456379D01*
X106761904Y-18456379D02*
X106761904Y-17456379D01*
X108333333Y-18075426D02*
X109095238Y-18075426D01*
X109571428Y-17789712D02*
X110333333Y-18075426D01*
X110333333Y-18075426D02*
X109571428Y-18361140D01*
X111523809Y-18170664D02*
X111999999Y-18170664D01*
X111428571Y-18456379D02*
X111761904Y-17456379D01*
X111761904Y-17456379D02*
X112095237Y-18456379D01*
X112428571Y-18456379D02*
X112428571Y-17456379D01*
X112428571Y-17456379D02*
X112999999Y-18456379D01*
X112999999Y-18456379D02*
X112999999Y-17456379D01*
X113333333Y-17456379D02*
X113904761Y-17456379D01*
X113619047Y-18456379D02*
X113619047Y-17456379D01*
X114238095Y-17932569D02*
X114571428Y-17932569D01*
X114714285Y-18456379D02*
X114238095Y-18456379D01*
X114238095Y-18456379D02*
X114238095Y-17456379D01*
X114238095Y-17456379D02*
X114714285Y-17456379D01*
X115142857Y-18456379D02*
X115142857Y-17456379D01*
X115142857Y-17456379D02*
X115714285Y-18456379D01*
X115714285Y-18456379D02*
X115714285Y-17456379D01*
X116190476Y-18456379D02*
X116190476Y-17456379D01*
X116190476Y-17456379D02*
X116761904Y-18456379D01*
X116761904Y-18456379D02*
X116761904Y-17456379D01*
X117238095Y-17932569D02*
X117571428Y-17932569D01*
X117714285Y-18456379D02*
X117238095Y-18456379D01*
X117238095Y-18456379D02*
X117238095Y-17456379D01*
X117238095Y-17456379D02*
X117714285Y-17456379D01*
X118857143Y-18170664D02*
X119333333Y-18170664D01*
X118761905Y-18456379D02*
X119095238Y-17456379D01*
X119095238Y-17456379D02*
X119428571Y-18456379D01*
X119761905Y-17456379D02*
X119761905Y-18265902D01*
X119761905Y-18265902D02*
X119809524Y-18361140D01*
X119809524Y-18361140D02*
X119857143Y-18408760D01*
X119857143Y-18408760D02*
X119952381Y-18456379D01*
X119952381Y-18456379D02*
X120142857Y-18456379D01*
X120142857Y-18456379D02*
X120238095Y-18408760D01*
X120238095Y-18408760D02*
X120285714Y-18361140D01*
X120285714Y-18361140D02*
X120333333Y-18265902D01*
X120333333Y-18265902D02*
X120333333Y-17456379D01*
X120761905Y-18408760D02*
X120904762Y-18456379D01*
X120904762Y-18456379D02*
X121142857Y-18456379D01*
X121142857Y-18456379D02*
X121238095Y-18408760D01*
X121238095Y-18408760D02*
X121285714Y-18361140D01*
X121285714Y-18361140D02*
X121333333Y-18265902D01*
X121333333Y-18265902D02*
X121333333Y-18170664D01*
X121333333Y-18170664D02*
X121285714Y-18075426D01*
X121285714Y-18075426D02*
X121238095Y-18027807D01*
X121238095Y-18027807D02*
X121142857Y-17980188D01*
X121142857Y-17980188D02*
X120952381Y-17932569D01*
X120952381Y-17932569D02*
X120857143Y-17884950D01*
X120857143Y-17884950D02*
X120809524Y-17837331D01*
X120809524Y-17837331D02*
X120761905Y-17742093D01*
X120761905Y-17742093D02*
X120761905Y-17646855D01*
X120761905Y-17646855D02*
X120809524Y-17551617D01*
X120809524Y-17551617D02*
X120857143Y-17503998D01*
X120857143Y-17503998D02*
X120952381Y-17456379D01*
X120952381Y-17456379D02*
X121190476Y-17456379D01*
X121190476Y-17456379D02*
X121333333Y-17503998D01*
X121714286Y-18408760D02*
X121857143Y-18456379D01*
X121857143Y-18456379D02*
X122095238Y-18456379D01*
X122095238Y-18456379D02*
X122190476Y-18408760D01*
X122190476Y-18408760D02*
X122238095Y-18361140D01*
X122238095Y-18361140D02*
X122285714Y-18265902D01*
X122285714Y-18265902D02*
X122285714Y-18170664D01*
X122285714Y-18170664D02*
X122238095Y-18075426D01*
X122238095Y-18075426D02*
X122190476Y-18027807D01*
X122190476Y-18027807D02*
X122095238Y-17980188D01*
X122095238Y-17980188D02*
X121904762Y-17932569D01*
X121904762Y-17932569D02*
X121809524Y-17884950D01*
X121809524Y-17884950D02*
X121761905Y-17837331D01*
X121761905Y-17837331D02*
X121714286Y-17742093D01*
X121714286Y-17742093D02*
X121714286Y-17646855D01*
X121714286Y-17646855D02*
X121761905Y-17551617D01*
X121761905Y-17551617D02*
X121809524Y-17503998D01*
X121809524Y-17503998D02*
X121904762Y-17456379D01*
X121904762Y-17456379D02*
X122142857Y-17456379D01*
X122142857Y-17456379D02*
X122285714Y-17503998D01*
X122714286Y-17932569D02*
X123047619Y-17932569D01*
X123190476Y-18456379D02*
X122714286Y-18456379D01*
X122714286Y-18456379D02*
X122714286Y-17456379D01*
X122714286Y-17456379D02*
X123190476Y-17456379D01*
X124190476Y-18456379D02*
X123857143Y-17980188D01*
X123619048Y-18456379D02*
X123619048Y-17456379D01*
X123619048Y-17456379D02*
X124000000Y-17456379D01*
X124000000Y-17456379D02*
X124095238Y-17503998D01*
X124095238Y-17503998D02*
X124142857Y-17551617D01*
X124142857Y-17551617D02*
X124190476Y-17646855D01*
X124190476Y-17646855D02*
X124190476Y-17789712D01*
X124190476Y-17789712D02*
X124142857Y-17884950D01*
X124142857Y-17884950D02*
X124095238Y-17932569D01*
X124095238Y-17932569D02*
X124000000Y-17980188D01*
X124000000Y-17980188D02*
X123619048Y-17980188D01*
X124619048Y-18456379D02*
X124619048Y-17456379D01*
X124619048Y-17932569D02*
X125190476Y-17932569D01*
X125190476Y-18456379D02*
X125190476Y-17456379D01*
X125619048Y-18170664D02*
X126095238Y-18170664D01*
X125523810Y-18456379D02*
X125857143Y-17456379D01*
X125857143Y-17456379D02*
X126190476Y-18456379D01*
X127000000Y-18456379D02*
X126523810Y-18456379D01*
X126523810Y-18456379D02*
X126523810Y-17456379D01*
X127666667Y-17932569D02*
X127809524Y-17980188D01*
X127809524Y-17980188D02*
X127857143Y-18027807D01*
X127857143Y-18027807D02*
X127904762Y-18123045D01*
X127904762Y-18123045D02*
X127904762Y-18265902D01*
X127904762Y-18265902D02*
X127857143Y-18361140D01*
X127857143Y-18361140D02*
X127809524Y-18408760D01*
X127809524Y-18408760D02*
X127714286Y-18456379D01*
X127714286Y-18456379D02*
X127333334Y-18456379D01*
X127333334Y-18456379D02*
X127333334Y-17456379D01*
X127333334Y-17456379D02*
X127666667Y-17456379D01*
X127666667Y-17456379D02*
X127761905Y-17503998D01*
X127761905Y-17503998D02*
X127809524Y-17551617D01*
X127809524Y-17551617D02*
X127857143Y-17646855D01*
X127857143Y-17646855D02*
X127857143Y-17742093D01*
X127857143Y-17742093D02*
X127809524Y-17837331D01*
X127809524Y-17837331D02*
X127761905Y-17884950D01*
X127761905Y-17884950D02*
X127666667Y-17932569D01*
X127666667Y-17932569D02*
X127333334Y-17932569D01*
X129095239Y-18456379D02*
X129095239Y-17456379D01*
X129095239Y-17456379D02*
X129476191Y-17456379D01*
X129476191Y-17456379D02*
X129571429Y-17503998D01*
X129571429Y-17503998D02*
X129619048Y-17551617D01*
X129619048Y-17551617D02*
X129666667Y-17646855D01*
X129666667Y-17646855D02*
X129666667Y-17789712D01*
X129666667Y-17789712D02*
X129619048Y-17884950D01*
X129619048Y-17884950D02*
X129571429Y-17932569D01*
X129571429Y-17932569D02*
X129476191Y-17980188D01*
X129476191Y-17980188D02*
X129095239Y-17980188D01*
X130666667Y-18361140D02*
X130619048Y-18408760D01*
X130619048Y-18408760D02*
X130476191Y-18456379D01*
X130476191Y-18456379D02*
X130380953Y-18456379D01*
X130380953Y-18456379D02*
X130238096Y-18408760D01*
X130238096Y-18408760D02*
X130142858Y-18313521D01*
X130142858Y-18313521D02*
X130095239Y-18218283D01*
X130095239Y-18218283D02*
X130047620Y-18027807D01*
X130047620Y-18027807D02*
X130047620Y-17884950D01*
X130047620Y-17884950D02*
X130095239Y-17694474D01*
X130095239Y-17694474D02*
X130142858Y-17599236D01*
X130142858Y-17599236D02*
X130238096Y-17503998D01*
X130238096Y-17503998D02*
X130380953Y-17456379D01*
X130380953Y-17456379D02*
X130476191Y-17456379D01*
X130476191Y-17456379D02*
X130619048Y-17503998D01*
X130619048Y-17503998D02*
X130666667Y-17551617D01*
X131428572Y-17932569D02*
X131571429Y-17980188D01*
X131571429Y-17980188D02*
X131619048Y-18027807D01*
X131619048Y-18027807D02*
X131666667Y-18123045D01*
X131666667Y-18123045D02*
X131666667Y-18265902D01*
X131666667Y-18265902D02*
X131619048Y-18361140D01*
X131619048Y-18361140D02*
X131571429Y-18408760D01*
X131571429Y-18408760D02*
X131476191Y-18456379D01*
X131476191Y-18456379D02*
X131095239Y-18456379D01*
X131095239Y-18456379D02*
X131095239Y-17456379D01*
X131095239Y-17456379D02*
X131428572Y-17456379D01*
X131428572Y-17456379D02*
X131523810Y-17503998D01*
X131523810Y-17503998D02*
X131571429Y-17551617D01*
X131571429Y-17551617D02*
X131619048Y-17646855D01*
X131619048Y-17646855D02*
X131619048Y-17742093D01*
X131619048Y-17742093D02*
X131571429Y-17837331D01*
X131571429Y-17837331D02*
X131523810Y-17884950D01*
X131523810Y-17884950D02*
X131428572Y-17932569D01*
X131428572Y-17932569D02*
X131095239Y-17932569D01*
D14*
X144028571Y-13347342D02*
X144828571Y-14547342D01*
X144828571Y-13347342D02*
X144028571Y-14547342D01*
X145800000Y-13347342D02*
X145571428Y-13347342D01*
X145571428Y-13347342D02*
X145457142Y-13404485D01*
X145457142Y-13404485D02*
X145400000Y-13461628D01*
X145400000Y-13461628D02*
X145285714Y-13633057D01*
X145285714Y-13633057D02*
X145228571Y-13861628D01*
X145228571Y-13861628D02*
X145228571Y-14318771D01*
X145228571Y-14318771D02*
X145285714Y-14433057D01*
X145285714Y-14433057D02*
X145342857Y-14490200D01*
X145342857Y-14490200D02*
X145457142Y-14547342D01*
X145457142Y-14547342D02*
X145685714Y-14547342D01*
X145685714Y-14547342D02*
X145800000Y-14490200D01*
X145800000Y-14490200D02*
X145857142Y-14433057D01*
X145857142Y-14433057D02*
X145914285Y-14318771D01*
X145914285Y-14318771D02*
X145914285Y-14033057D01*
X145914285Y-14033057D02*
X145857142Y-13918771D01*
X145857142Y-13918771D02*
X145800000Y-13861628D01*
X145800000Y-13861628D02*
X145685714Y-13804485D01*
X145685714Y-13804485D02*
X145457142Y-13804485D01*
X145457142Y-13804485D02*
X145342857Y-13861628D01*
X145342857Y-13861628D02*
X145285714Y-13918771D01*
X145285714Y-13918771D02*
X145228571Y-14033057D01*
D15*
X139771428Y-28010117D02*
X139771428Y-28738688D01*
X139771428Y-28738688D02*
X139814285Y-28824402D01*
X139814285Y-28824402D02*
X139857143Y-28867260D01*
X139857143Y-28867260D02*
X139942857Y-28910117D01*
X139942857Y-28910117D02*
X140114285Y-28910117D01*
X140114285Y-28910117D02*
X140200000Y-28867260D01*
X140200000Y-28867260D02*
X140242857Y-28824402D01*
X140242857Y-28824402D02*
X140285714Y-28738688D01*
X140285714Y-28738688D02*
X140285714Y-28010117D01*
X140671428Y-28867260D02*
X140800000Y-28910117D01*
X140800000Y-28910117D02*
X141014285Y-28910117D01*
X141014285Y-28910117D02*
X141100000Y-28867260D01*
X141100000Y-28867260D02*
X141142857Y-28824402D01*
X141142857Y-28824402D02*
X141185714Y-28738688D01*
X141185714Y-28738688D02*
X141185714Y-28652974D01*
X141185714Y-28652974D02*
X141142857Y-28567260D01*
X141142857Y-28567260D02*
X141100000Y-28524402D01*
X141100000Y-28524402D02*
X141014285Y-28481545D01*
X141014285Y-28481545D02*
X140842857Y-28438688D01*
X140842857Y-28438688D02*
X140757142Y-28395831D01*
X140757142Y-28395831D02*
X140714285Y-28352974D01*
X140714285Y-28352974D02*
X140671428Y-28267260D01*
X140671428Y-28267260D02*
X140671428Y-28181545D01*
X140671428Y-28181545D02*
X140714285Y-28095831D01*
X140714285Y-28095831D02*
X140757142Y-28052974D01*
X140757142Y-28052974D02*
X140842857Y-28010117D01*
X140842857Y-28010117D02*
X141057142Y-28010117D01*
X141057142Y-28010117D02*
X141185714Y-28052974D01*
X141871428Y-28438688D02*
X142000000Y-28481545D01*
X142000000Y-28481545D02*
X142042857Y-28524402D01*
X142042857Y-28524402D02*
X142085714Y-28610117D01*
X142085714Y-28610117D02*
X142085714Y-28738688D01*
X142085714Y-28738688D02*
X142042857Y-28824402D01*
X142042857Y-28824402D02*
X142000000Y-28867260D01*
X142000000Y-28867260D02*
X141914285Y-28910117D01*
X141914285Y-28910117D02*
X141571428Y-28910117D01*
X141571428Y-28910117D02*
X141571428Y-28010117D01*
X141571428Y-28010117D02*
X141871428Y-28010117D01*
X141871428Y-28010117D02*
X141957143Y-28052974D01*
X141957143Y-28052974D02*
X142000000Y-28095831D01*
X142000000Y-28095831D02*
X142042857Y-28181545D01*
X142042857Y-28181545D02*
X142042857Y-28267260D01*
X142042857Y-28267260D02*
X142000000Y-28352974D01*
X142000000Y-28352974D02*
X141957143Y-28395831D01*
X141957143Y-28395831D02*
X141871428Y-28438688D01*
X141871428Y-28438688D02*
X141571428Y-28438688D01*
X142471428Y-28567260D02*
X143157143Y-28567260D01*
X144100000Y-28824402D02*
X144057143Y-28867260D01*
X144057143Y-28867260D02*
X143928571Y-28910117D01*
X143928571Y-28910117D02*
X143842857Y-28910117D01*
X143842857Y-28910117D02*
X143714286Y-28867260D01*
X143714286Y-28867260D02*
X143628571Y-28781545D01*
X143628571Y-28781545D02*
X143585714Y-28695831D01*
X143585714Y-28695831D02*
X143542857Y-28524402D01*
X143542857Y-28524402D02*
X143542857Y-28395831D01*
X143542857Y-28395831D02*
X143585714Y-28224402D01*
X143585714Y-28224402D02*
X143628571Y-28138688D01*
X143628571Y-28138688D02*
X143714286Y-28052974D01*
X143714286Y-28052974D02*
X143842857Y-28010117D01*
X143842857Y-28010117D02*
X143928571Y-28010117D01*
X143928571Y-28010117D02*
X144057143Y-28052974D01*
X144057143Y-28052974D02*
X144100000Y-28095831D01*
X145128571Y-28867260D02*
X145257143Y-28910117D01*
X145257143Y-28910117D02*
X145471428Y-28910117D01*
X145471428Y-28910117D02*
X145557143Y-28867260D01*
X145557143Y-28867260D02*
X145600000Y-28824402D01*
X145600000Y-28824402D02*
X145642857Y-28738688D01*
X145642857Y-28738688D02*
X145642857Y-28652974D01*
X145642857Y-28652974D02*
X145600000Y-28567260D01*
X145600000Y-28567260D02*
X145557143Y-28524402D01*
X145557143Y-28524402D02*
X145471428Y-28481545D01*
X145471428Y-28481545D02*
X145300000Y-28438688D01*
X145300000Y-28438688D02*
X145214285Y-28395831D01*
X145214285Y-28395831D02*
X145171428Y-28352974D01*
X145171428Y-28352974D02*
X145128571Y-28267260D01*
X145128571Y-28267260D02*
X145128571Y-28181545D01*
X145128571Y-28181545D02*
X145171428Y-28095831D01*
X145171428Y-28095831D02*
X145214285Y-28052974D01*
X145214285Y-28052974D02*
X145300000Y-28010117D01*
X145300000Y-28010117D02*
X145514285Y-28010117D01*
X145514285Y-28010117D02*
X145642857Y-28052974D01*
X146028571Y-28438688D02*
X146328571Y-28438688D01*
X146457143Y-28910117D02*
X146028571Y-28910117D01*
X146028571Y-28910117D02*
X146028571Y-28010117D01*
X146028571Y-28010117D02*
X146457143Y-28010117D01*
X147357143Y-28910117D02*
X147057143Y-28481545D01*
X146842857Y-28910117D02*
X146842857Y-28010117D01*
X146842857Y-28010117D02*
X147185714Y-28010117D01*
X147185714Y-28010117D02*
X147271429Y-28052974D01*
X147271429Y-28052974D02*
X147314286Y-28095831D01*
X147314286Y-28095831D02*
X147357143Y-28181545D01*
X147357143Y-28181545D02*
X147357143Y-28310117D01*
X147357143Y-28310117D02*
X147314286Y-28395831D01*
X147314286Y-28395831D02*
X147271429Y-28438688D01*
X147271429Y-28438688D02*
X147185714Y-28481545D01*
X147185714Y-28481545D02*
X146842857Y-28481545D01*
X147614286Y-28010117D02*
X147914286Y-28910117D01*
X147914286Y-28910117D02*
X148214286Y-28010117D01*
X148514286Y-28910117D02*
X148514286Y-28010117D01*
X149457143Y-28824402D02*
X149414286Y-28867260D01*
X149414286Y-28867260D02*
X149285714Y-28910117D01*
X149285714Y-28910117D02*
X149200000Y-28910117D01*
X149200000Y-28910117D02*
X149071429Y-28867260D01*
X149071429Y-28867260D02*
X148985714Y-28781545D01*
X148985714Y-28781545D02*
X148942857Y-28695831D01*
X148942857Y-28695831D02*
X148900000Y-28524402D01*
X148900000Y-28524402D02*
X148900000Y-28395831D01*
X148900000Y-28395831D02*
X148942857Y-28224402D01*
X148942857Y-28224402D02*
X148985714Y-28138688D01*
X148985714Y-28138688D02*
X149071429Y-28052974D01*
X149071429Y-28052974D02*
X149200000Y-28010117D01*
X149200000Y-28010117D02*
X149285714Y-28010117D01*
X149285714Y-28010117D02*
X149414286Y-28052974D01*
X149414286Y-28052974D02*
X149457143Y-28095831D01*
X149842857Y-28438688D02*
X150142857Y-28438688D01*
X150271429Y-28910117D02*
X149842857Y-28910117D01*
X149842857Y-28910117D02*
X149842857Y-28010117D01*
X149842857Y-28010117D02*
X150271429Y-28010117D01*
D14*
X131085714Y-16847342D02*
X131085714Y-17818771D01*
X131085714Y-17818771D02*
X131142857Y-17933057D01*
X131142857Y-17933057D02*
X131200000Y-17990200D01*
X131200000Y-17990200D02*
X131314285Y-18047342D01*
X131314285Y-18047342D02*
X131542857Y-18047342D01*
X131542857Y-18047342D02*
X131657142Y-17990200D01*
X131657142Y-17990200D02*
X131714285Y-17933057D01*
X131714285Y-17933057D02*
X131771428Y-17818771D01*
X131771428Y-17818771D02*
X131771428Y-16847342D01*
X132857143Y-16847342D02*
X132628571Y-16847342D01*
X132628571Y-16847342D02*
X132514285Y-16904485D01*
X132514285Y-16904485D02*
X132457143Y-16961628D01*
X132457143Y-16961628D02*
X132342857Y-17133057D01*
X132342857Y-17133057D02*
X132285714Y-17361628D01*
X132285714Y-17361628D02*
X132285714Y-17818771D01*
X132285714Y-17818771D02*
X132342857Y-17933057D01*
X132342857Y-17933057D02*
X132400000Y-17990200D01*
X132400000Y-17990200D02*
X132514285Y-18047342D01*
X132514285Y-18047342D02*
X132742857Y-18047342D01*
X132742857Y-18047342D02*
X132857143Y-17990200D01*
X132857143Y-17990200D02*
X132914285Y-17933057D01*
X132914285Y-17933057D02*
X132971428Y-17818771D01*
X132971428Y-17818771D02*
X132971428Y-17533057D01*
X132971428Y-17533057D02*
X132914285Y-17418771D01*
X132914285Y-17418771D02*
X132857143Y-17361628D01*
X132857143Y-17361628D02*
X132742857Y-17304485D01*
X132742857Y-17304485D02*
X132514285Y-17304485D01*
X132514285Y-17304485D02*
X132400000Y-17361628D01*
X132400000Y-17361628D02*
X132342857Y-17418771D01*
X132342857Y-17418771D02*
X132285714Y-17533057D01*
D15*
X153850000Y-15410117D02*
X153550000Y-14981545D01*
X153335714Y-15410117D02*
X153335714Y-14510117D01*
X153335714Y-14510117D02*
X153678571Y-14510117D01*
X153678571Y-14510117D02*
X153764286Y-14552974D01*
X153764286Y-14552974D02*
X153807143Y-14595831D01*
X153807143Y-14595831D02*
X153850000Y-14681545D01*
X153850000Y-14681545D02*
X153850000Y-14810117D01*
X153850000Y-14810117D02*
X153807143Y-14895831D01*
X153807143Y-14895831D02*
X153764286Y-14938688D01*
X153764286Y-14938688D02*
X153678571Y-14981545D01*
X153678571Y-14981545D02*
X153335714Y-14981545D01*
X154707143Y-15410117D02*
X154192857Y-15410117D01*
X154450000Y-15410117D02*
X154450000Y-14510117D01*
X154450000Y-14510117D02*
X154364286Y-14638688D01*
X154364286Y-14638688D02*
X154278571Y-14724402D01*
X154278571Y-14724402D02*
X154192857Y-14767260D01*
X153850000Y-25410117D02*
X153550000Y-24981545D01*
X153335714Y-25410117D02*
X153335714Y-24510117D01*
X153335714Y-24510117D02*
X153678571Y-24510117D01*
X153678571Y-24510117D02*
X153764286Y-24552974D01*
X153764286Y-24552974D02*
X153807143Y-24595831D01*
X153807143Y-24595831D02*
X153850000Y-24681545D01*
X153850000Y-24681545D02*
X153850000Y-24810117D01*
X153850000Y-24810117D02*
X153807143Y-24895831D01*
X153807143Y-24895831D02*
X153764286Y-24938688D01*
X153764286Y-24938688D02*
X153678571Y-24981545D01*
X153678571Y-24981545D02*
X153335714Y-24981545D01*
X154192857Y-24595831D02*
X154235714Y-24552974D01*
X154235714Y-24552974D02*
X154321429Y-24510117D01*
X154321429Y-24510117D02*
X154535714Y-24510117D01*
X154535714Y-24510117D02*
X154621429Y-24552974D01*
X154621429Y-24552974D02*
X154664286Y-24595831D01*
X154664286Y-24595831D02*
X154707143Y-24681545D01*
X154707143Y-24681545D02*
X154707143Y-24767260D01*
X154707143Y-24767260D02*
X154664286Y-24895831D01*
X154664286Y-24895831D02*
X154150000Y-25410117D01*
X154150000Y-25410117D02*
X154707143Y-25410117D01*
D14*
X93085714Y-18347342D02*
X93085714Y-19318771D01*
X93085714Y-19318771D02*
X93142857Y-19433057D01*
X93142857Y-19433057D02*
X93200000Y-19490200D01*
X93200000Y-19490200D02*
X93314285Y-19547342D01*
X93314285Y-19547342D02*
X93542857Y-19547342D01*
X93542857Y-19547342D02*
X93657142Y-19490200D01*
X93657142Y-19490200D02*
X93714285Y-19433057D01*
X93714285Y-19433057D02*
X93771428Y-19318771D01*
X93771428Y-19318771D02*
X93771428Y-18347342D01*
X94914285Y-18347342D02*
X94342857Y-18347342D01*
X94342857Y-18347342D02*
X94285714Y-18918771D01*
X94285714Y-18918771D02*
X94342857Y-18861628D01*
X94342857Y-18861628D02*
X94457143Y-18804485D01*
X94457143Y-18804485D02*
X94742857Y-18804485D01*
X94742857Y-18804485D02*
X94857143Y-18861628D01*
X94857143Y-18861628D02*
X94914285Y-18918771D01*
X94914285Y-18918771D02*
X94971428Y-19033057D01*
X94971428Y-19033057D02*
X94971428Y-19318771D01*
X94971428Y-19318771D02*
X94914285Y-19433057D01*
X94914285Y-19433057D02*
X94857143Y-19490200D01*
X94857143Y-19490200D02*
X94742857Y-19547342D01*
X94742857Y-19547342D02*
X94457143Y-19547342D01*
X94457143Y-19547342D02*
X94342857Y-19490200D01*
X94342857Y-19490200D02*
X94285714Y-19433057D01*
X111085714Y-59347342D02*
X111085714Y-60318771D01*
X111085714Y-60318771D02*
X111142857Y-60433057D01*
X111142857Y-60433057D02*
X111200000Y-60490200D01*
X111200000Y-60490200D02*
X111314285Y-60547342D01*
X111314285Y-60547342D02*
X111542857Y-60547342D01*
X111542857Y-60547342D02*
X111657142Y-60490200D01*
X111657142Y-60490200D02*
X111714285Y-60433057D01*
X111714285Y-60433057D02*
X111771428Y-60318771D01*
X111771428Y-60318771D02*
X111771428Y-59347342D01*
X112285714Y-59461628D02*
X112342857Y-59404485D01*
X112342857Y-59404485D02*
X112457143Y-59347342D01*
X112457143Y-59347342D02*
X112742857Y-59347342D01*
X112742857Y-59347342D02*
X112857143Y-59404485D01*
X112857143Y-59404485D02*
X112914285Y-59461628D01*
X112914285Y-59461628D02*
X112971428Y-59575914D01*
X112971428Y-59575914D02*
X112971428Y-59690200D01*
X112971428Y-59690200D02*
X112914285Y-59861628D01*
X112914285Y-59861628D02*
X112228571Y-60547342D01*
X112228571Y-60547342D02*
X112971428Y-60547342D01*
X111085714Y-77347342D02*
X111085714Y-78318771D01*
X111085714Y-78318771D02*
X111142857Y-78433057D01*
X111142857Y-78433057D02*
X111200000Y-78490200D01*
X111200000Y-78490200D02*
X111314285Y-78547342D01*
X111314285Y-78547342D02*
X111542857Y-78547342D01*
X111542857Y-78547342D02*
X111657142Y-78490200D01*
X111657142Y-78490200D02*
X111714285Y-78433057D01*
X111714285Y-78433057D02*
X111771428Y-78318771D01*
X111771428Y-78318771D02*
X111771428Y-77347342D01*
X112228571Y-77347342D02*
X112971428Y-77347342D01*
X112971428Y-77347342D02*
X112571428Y-77804485D01*
X112571428Y-77804485D02*
X112742857Y-77804485D01*
X112742857Y-77804485D02*
X112857143Y-77861628D01*
X112857143Y-77861628D02*
X112914285Y-77918771D01*
X112914285Y-77918771D02*
X112971428Y-78033057D01*
X112971428Y-78033057D02*
X112971428Y-78318771D01*
X112971428Y-78318771D02*
X112914285Y-78433057D01*
X112914285Y-78433057D02*
X112857143Y-78490200D01*
X112857143Y-78490200D02*
X112742857Y-78547342D01*
X112742857Y-78547342D02*
X112400000Y-78547342D01*
X112400000Y-78547342D02*
X112285714Y-78490200D01*
X112285714Y-78490200D02*
X112228571Y-78433057D01*
X149028571Y-56347342D02*
X149828571Y-57547342D01*
X149828571Y-56347342D02*
X149028571Y-57547342D01*
X150800000Y-56747342D02*
X150800000Y-57547342D01*
X150514285Y-56290200D02*
X150228571Y-57147342D01*
X150228571Y-57147342D02*
X150971428Y-57147342D01*
X149028571Y-68347342D02*
X149828571Y-69547342D01*
X149828571Y-68347342D02*
X149028571Y-69547342D01*
X150857142Y-68347342D02*
X150285714Y-68347342D01*
X150285714Y-68347342D02*
X150228571Y-68918771D01*
X150228571Y-68918771D02*
X150285714Y-68861628D01*
X150285714Y-68861628D02*
X150400000Y-68804485D01*
X150400000Y-68804485D02*
X150685714Y-68804485D01*
X150685714Y-68804485D02*
X150800000Y-68861628D01*
X150800000Y-68861628D02*
X150857142Y-68918771D01*
X150857142Y-68918771D02*
X150914285Y-69033057D01*
X150914285Y-69033057D02*
X150914285Y-69318771D01*
X150914285Y-69318771D02*
X150857142Y-69433057D01*
X150857142Y-69433057D02*
X150800000Y-69490200D01*
X150800000Y-69490200D02*
X150685714Y-69547342D01*
X150685714Y-69547342D02*
X150400000Y-69547342D01*
X150400000Y-69547342D02*
X150285714Y-69490200D01*
X150285714Y-69490200D02*
X150228571Y-69433057D01*
X117085714Y-89347342D02*
X117085714Y-90318771D01*
X117085714Y-90318771D02*
X117142857Y-90433057D01*
X117142857Y-90433057D02*
X117200000Y-90490200D01*
X117200000Y-90490200D02*
X117314285Y-90547342D01*
X117314285Y-90547342D02*
X117542857Y-90547342D01*
X117542857Y-90547342D02*
X117657142Y-90490200D01*
X117657142Y-90490200D02*
X117714285Y-90433057D01*
X117714285Y-90433057D02*
X117771428Y-90318771D01*
X117771428Y-90318771D02*
X117771428Y-89347342D01*
X118857143Y-89747342D02*
X118857143Y-90547342D01*
X118571428Y-89290200D02*
X118285714Y-90147342D01*
X118285714Y-90147342D02*
X119028571Y-90147342D01*
X147600000Y-79347342D02*
X147600000Y-80204485D01*
X147600000Y-80204485D02*
X147542857Y-80375914D01*
X147542857Y-80375914D02*
X147428571Y-80490200D01*
X147428571Y-80490200D02*
X147257143Y-80547342D01*
X147257143Y-80547342D02*
X147142857Y-80547342D01*
X148800000Y-80547342D02*
X148114286Y-80547342D01*
X148457143Y-80547342D02*
X148457143Y-79347342D01*
X148457143Y-79347342D02*
X148342857Y-79518771D01*
X148342857Y-79518771D02*
X148228572Y-79633057D01*
X148228572Y-79633057D02*
X148114286Y-79690200D01*
X147600000Y-93347342D02*
X147600000Y-94204485D01*
X147600000Y-94204485D02*
X147542857Y-94375914D01*
X147542857Y-94375914D02*
X147428571Y-94490200D01*
X147428571Y-94490200D02*
X147257143Y-94547342D01*
X147257143Y-94547342D02*
X147142857Y-94547342D01*
X148114286Y-93461628D02*
X148171429Y-93404485D01*
X148171429Y-93404485D02*
X148285715Y-93347342D01*
X148285715Y-93347342D02*
X148571429Y-93347342D01*
X148571429Y-93347342D02*
X148685715Y-93404485D01*
X148685715Y-93404485D02*
X148742857Y-93461628D01*
X148742857Y-93461628D02*
X148800000Y-93575914D01*
X148800000Y-93575914D02*
X148800000Y-93690200D01*
X148800000Y-93690200D02*
X148742857Y-93861628D01*
X148742857Y-93861628D02*
X148057143Y-94547342D01*
X148057143Y-94547342D02*
X148800000Y-94547342D01*
X147600000Y-37347342D02*
X147600000Y-38204485D01*
X147600000Y-38204485D02*
X147542857Y-38375914D01*
X147542857Y-38375914D02*
X147428571Y-38490200D01*
X147428571Y-38490200D02*
X147257143Y-38547342D01*
X147257143Y-38547342D02*
X147142857Y-38547342D01*
X148057143Y-37347342D02*
X148800000Y-37347342D01*
X148800000Y-37347342D02*
X148400000Y-37804485D01*
X148400000Y-37804485D02*
X148571429Y-37804485D01*
X148571429Y-37804485D02*
X148685715Y-37861628D01*
X148685715Y-37861628D02*
X148742857Y-37918771D01*
X148742857Y-37918771D02*
X148800000Y-38033057D01*
X148800000Y-38033057D02*
X148800000Y-38318771D01*
X148800000Y-38318771D02*
X148742857Y-38433057D01*
X148742857Y-38433057D02*
X148685715Y-38490200D01*
X148685715Y-38490200D02*
X148571429Y-38547342D01*
X148571429Y-38547342D02*
X148228572Y-38547342D01*
X148228572Y-38547342D02*
X148114286Y-38490200D01*
X148114286Y-38490200D02*
X148057143Y-38433057D01*
X147600000Y-46347342D02*
X147600000Y-47204485D01*
X147600000Y-47204485D02*
X147542857Y-47375914D01*
X147542857Y-47375914D02*
X147428571Y-47490200D01*
X147428571Y-47490200D02*
X147257143Y-47547342D01*
X147257143Y-47547342D02*
X147142857Y-47547342D01*
X148685715Y-46747342D02*
X148685715Y-47547342D01*
X148400000Y-46290200D02*
X148114286Y-47147342D01*
X148114286Y-47147342D02*
X148857143Y-47147342D01*
G04 #@! TO.C,X1*
D15*
X6000000Y-9000000D02*
X14000000Y-9000000D01*
X14000000Y-31000000D01*
X6000000Y-31000000D01*
X6000000Y-9000000D01*
G04 #@! TO.C,F1*
X23000000Y-9380000D02*
X47000000Y-9380000D01*
X47000000Y-15380000D01*
X23000000Y-15380000D01*
X23000000Y-9380000D01*
G04 #@! TO.C,PSU1*
X56000000Y-13000000D02*
X94000000Y-13000000D01*
X94000000Y-37000000D01*
X56000000Y-37000000D01*
X56000000Y-13000000D01*
X79000000Y-13000000D02*
X79000000Y-14320000D01*
X79000000Y-14800000D02*
X79000000Y-16120000D01*
X79000000Y-16600000D02*
X79000000Y-17920000D01*
X79000000Y-18400000D02*
X79000000Y-19720000D01*
X79000000Y-20200000D02*
X79000000Y-21520000D01*
X79000000Y-22000000D02*
X79000000Y-23320000D01*
X79000000Y-23800000D02*
X79000000Y-25120000D01*
X79000000Y-25600000D02*
X79000000Y-26920000D01*
X79000000Y-27400000D02*
X79000000Y-28720000D01*
X79000000Y-29200000D02*
X79000000Y-30520000D01*
X79000000Y-31000000D02*
X79000000Y-32320000D01*
X79000000Y-32800000D02*
X79000000Y-34120000D01*
X79000000Y-34600000D02*
X79000000Y-35920000D01*
X79000000Y-36400000D02*
X79000000Y-37000000D01*
G04 #@! TO.C,X2*
X6000000Y-44000000D02*
X14000000Y-44000000D01*
X14000000Y-66000000D01*
X6000000Y-66000000D01*
X6000000Y-44000000D01*
G04 #@! TO.C,X3*
X6000000Y-75000000D02*
X14000000Y-75000000D01*
X14000000Y-105000000D01*
X6000000Y-105000000D01*
X6000000Y-75000000D01*
G04 #@! TO.C,K1*
X63000000Y-43000000D02*
X93000000Y-43000000D01*
X93000000Y-57000000D01*
X63000000Y-57000000D01*
X63000000Y-43000000D01*
G04 #@! TO.C,K2*
X63000000Y-66000000D02*
X93000000Y-66000000D01*
X93000000Y-78000000D01*
X63000000Y-78000000D01*
X63000000Y-66000000D01*
G04 #@! TO.C,K3*
X63000000Y-86000000D02*
X93000000Y-86000000D01*
X93000000Y-98000000D01*
X63000000Y-98000000D01*
X63000000Y-86000000D01*
G04 #@! TO.C,U1*
X105000000Y-12000000D02*
X131000000Y-12000000D01*
X131000000Y-50000000D01*
X105000000Y-50000000D01*
X105000000Y-12000000D01*
G04 #@! TO.C,X6*
X140000000Y-17000000D02*
X150000000Y-17000000D01*
X150000000Y-27000000D01*
X140000000Y-27000000D01*
X140000000Y-17000000D01*
G04 #@! TO.C,U6*
X128500000Y-19500000D02*
X135500000Y-19500000D01*
X135500000Y-26500000D01*
X128500000Y-26500000D01*
X128500000Y-19500000D01*
G04 #@! TO.C,R1*
D16*
X152400000Y-16200000D02*
X155600000Y-16200000D01*
X155600000Y-17800000D01*
X152400000Y-17800000D01*
X152400000Y-16200000D01*
G04 #@! TO.C,R2*
X152400000Y-26200000D02*
X155600000Y-26200000D01*
X155600000Y-27800000D01*
X152400000Y-27800000D01*
X152400000Y-26200000D01*
G04 #@! TO.C,U5*
D15*
X90000000Y-20500000D02*
X98000000Y-20500000D01*
X98000000Y-27500000D01*
X90000000Y-27500000D01*
X90000000Y-20500000D01*
G04 #@! TO.C,U2*
X107000000Y-63000000D02*
X117000000Y-63000000D01*
X117000000Y-71000000D01*
X107000000Y-71000000D01*
X107000000Y-63000000D01*
G04 #@! TO.C,U3*
X107000000Y-81000000D02*
X117000000Y-81000000D01*
X117000000Y-89000000D01*
X107000000Y-89000000D01*
X107000000Y-81000000D01*
G04 #@! TO.C,X4*
X146000000Y-58000000D02*
X154000000Y-58000000D01*
X154000000Y-66000000D01*
X146000000Y-66000000D01*
X146000000Y-58000000D01*
G04 #@! TO.C,X5*
X146000000Y-70000000D02*
X154000000Y-70000000D01*
X154000000Y-78000000D01*
X146000000Y-78000000D01*
X146000000Y-70000000D01*
G04 #@! TO.C,U4*
X106000000Y-92000000D02*
X130000000Y-92000000D01*
X130000000Y-104000000D01*
X106000000Y-104000000D01*
X106000000Y-92000000D01*
G04 #@! TO.C,J1*
X140000000Y-82000000D02*
X156000000Y-82000000D01*
X156000000Y-98000000D01*
X140000000Y-98000000D01*
X140000000Y-82000000D01*
G04 #@! TO.C,J2*
X140000000Y-96000000D02*
X156000000Y-96000000D01*
X156000000Y-112000000D01*
X140000000Y-112000000D01*
X140000000Y-96000000D01*
G04 #@! TO.C,J3*
X142000000Y-40000000D02*
X154000000Y-40000000D01*
X154000000Y-48000000D01*
X142000000Y-48000000D01*
X142000000Y-40000000D01*
G04 #@! TO.C,J4*
X142000000Y-49000000D02*
X154000000Y-49000000D01*
X154000000Y-57000000D01*
X142000000Y-57000000D01*
X142000000Y-49000000D01*
G04 #@! TD*
M02*
