G04 #@! TF.GenerationSoftware,KiCad,Pcbnew,10.0.4*
G04 #@! TF.CreationDate,2026-06-25T12:03:32+02:00*
G04 #@! TF.ProjectId,pumpengruppe-rs485,70756d70-656e-4677-9275-7070652d7273,A-preliminary*
G04 #@! TF.SameCoordinates,Original*
G04 #@! TF.FileFunction,Soldermask,Top*
G04 #@! TF.FilePolarity,Negative*
%FSLAX46Y46*%
G04 Gerber Fmt 4.6, Leading zero omitted, Abs format (unit mm)*
G04 Created by KiCad (PCBNEW 10.0.4) date 2026-06-25 12:03:32*
%MOMM*%
%LPD*%
G01*
G04 APERTURE LIST*
G04 APERTURE END LIST*
G36*
X135419134Y-135053806D02*
G01*
X135435355Y-135064645D01*
X135446194Y-135080866D01*
X135450000Y-135100000D01*
X135450000Y-135900000D01*
X135446194Y-135919134D01*
X135435355Y-135935355D01*
X135419134Y-135946194D01*
X135400000Y-135950000D01*
X134600000Y-135950000D01*
X134580866Y-135946194D01*
X134564645Y-135935355D01*
X134553806Y-135919134D01*
X134550000Y-135900000D01*
X134550000Y-135100000D01*
X134553806Y-135080866D01*
X134564645Y-135064645D01*
X134580866Y-135053806D01*
X134600000Y-135050000D01*
X135400000Y-135050000D01*
X135419134Y-135053806D01*
G37*
G36*
X137019134Y-135053806D02*
G01*
X137035355Y-135064645D01*
X137046194Y-135080866D01*
X137050000Y-135100000D01*
X137050000Y-135900000D01*
X137046194Y-135919134D01*
X137035355Y-135935355D01*
X137019134Y-135946194D01*
X137000000Y-135950000D01*
X136200000Y-135950000D01*
X136180866Y-135946194D01*
X136164645Y-135935355D01*
X136153806Y-135919134D01*
X136150000Y-135900000D01*
X136150000Y-135100000D01*
X136153806Y-135080866D01*
X136164645Y-135064645D01*
X136180866Y-135053806D01*
X136200000Y-135050000D01*
X137000000Y-135050000D01*
X137019134Y-135053806D01*
G37*
G36*
X141419134Y-135053806D02*
G01*
X141435355Y-135064645D01*
X141446194Y-135080866D01*
X141450000Y-135100000D01*
X141450000Y-135900000D01*
X141446194Y-135919134D01*
X141435355Y-135935355D01*
X141419134Y-135946194D01*
X141400000Y-135950000D01*
X140600000Y-135950000D01*
X140580866Y-135946194D01*
X140564645Y-135935355D01*
X140553806Y-135919134D01*
X140550000Y-135900000D01*
X140550000Y-135100000D01*
X140553806Y-135080866D01*
X140564645Y-135064645D01*
X140580866Y-135053806D01*
X140600000Y-135050000D01*
X141400000Y-135050000D01*
X141419134Y-135053806D01*
G37*
G36*
X143019134Y-135053806D02*
G01*
X143035355Y-135064645D01*
X143046194Y-135080866D01*
X143050000Y-135100000D01*
X143050000Y-135900000D01*
X143046194Y-135919134D01*
X143035355Y-135935355D01*
X143019134Y-135946194D01*
X143000000Y-135950000D01*
X142200000Y-135950000D01*
X142180866Y-135946194D01*
X142164645Y-135935355D01*
X142153806Y-135919134D01*
X142150000Y-135900000D01*
X142150000Y-135100000D01*
X142153806Y-135080866D01*
X142164645Y-135064645D01*
X142180866Y-135053806D01*
X142200000Y-135050000D01*
X143000000Y-135050000D01*
X143019134Y-135053806D01*
G37*
G36*
X50138496Y-132520064D02*
G01*
X50354891Y-132590375D01*
X50557623Y-132693672D01*
X50741700Y-132827411D01*
X50902589Y-132988300D01*
X51036328Y-133172377D01*
X51139625Y-133375109D01*
X51209936Y-133591504D01*
X51245530Y-133816234D01*
X51245530Y-134043766D01*
X51209936Y-134268496D01*
X51139625Y-134484891D01*
X51036328Y-134687623D01*
X50902589Y-134871700D01*
X50741700Y-135032589D01*
X50557623Y-135166328D01*
X50354891Y-135269625D01*
X50138496Y-135339936D01*
X49913766Y-135375530D01*
X49686234Y-135375530D01*
X49461504Y-135339936D01*
X49245109Y-135269625D01*
X49042377Y-135166328D01*
X48858300Y-135032589D01*
X48697411Y-134871700D01*
X48563672Y-134687623D01*
X48460375Y-134484891D01*
X48390064Y-134268496D01*
X48354470Y-134043766D01*
X48354470Y-133816234D01*
X48390064Y-133591504D01*
X48460375Y-133375109D01*
X48563672Y-133172377D01*
X48697411Y-132988300D01*
X48858300Y-132827411D01*
X49042377Y-132693672D01*
X49245109Y-132590375D01*
X49461504Y-132520064D01*
X49686234Y-132484470D01*
X49913766Y-132484470D01*
X50138496Y-132520064D01*
G37*
G36*
X196591807Y-132784538D02*
G01*
X196778354Y-132845151D01*
X196953123Y-132934200D01*
X197111810Y-133049493D01*
X197250507Y-133188190D01*
X197365800Y-133346877D01*
X197454849Y-133521646D01*
X197515462Y-133708193D01*
X197546147Y-133901926D01*
X197546147Y-134098074D01*
X197515462Y-134291807D01*
X197454849Y-134478354D01*
X197365800Y-134653123D01*
X197250507Y-134811810D01*
X197111810Y-134950507D01*
X196953123Y-135065800D01*
X196778354Y-135154849D01*
X196591807Y-135215462D01*
X196398074Y-135246147D01*
X196201926Y-135246147D01*
X196008193Y-135215462D01*
X195821646Y-135154849D01*
X195646877Y-135065800D01*
X195488190Y-134950507D01*
X195349493Y-134811810D01*
X195234200Y-134653123D01*
X195145151Y-134478354D01*
X195084538Y-134291807D01*
X195053853Y-134098074D01*
X195053853Y-133901926D01*
X195084538Y-133708193D01*
X195145151Y-133521646D01*
X195234200Y-133346877D01*
X195349493Y-133188190D01*
X195488190Y-133049493D01*
X195646877Y-132934200D01*
X195821646Y-132845151D01*
X196008193Y-132784538D01*
X196201926Y-132753853D01*
X196398074Y-132753853D01*
X196591807Y-132784538D01*
G37*
G36*
X173819134Y-133753806D02*
G01*
X173835355Y-133764645D01*
X173846194Y-133780866D01*
X173850000Y-133800000D01*
X173850000Y-134200000D01*
X173846194Y-134219134D01*
X173835355Y-134235355D01*
X173819134Y-134246194D01*
X173800000Y-134250000D01*
X172800000Y-134250000D01*
X172780866Y-134246194D01*
X172764645Y-134235355D01*
X172753806Y-134219134D01*
X172750000Y-134200000D01*
X172750000Y-133800000D01*
X172753806Y-133780866D01*
X172764645Y-133764645D01*
X172780866Y-133753806D01*
X172800000Y-133750000D01*
X173800000Y-133750000D01*
X173819134Y-133753806D01*
G37*
G36*
X184719134Y-133053806D02*
G01*
X184735355Y-133064645D01*
X184746194Y-133080866D01*
X184750000Y-133100000D01*
X184750000Y-133900000D01*
X184746194Y-133919134D01*
X184735355Y-133935355D01*
X184719134Y-133946194D01*
X184700000Y-133950000D01*
X183900000Y-133950000D01*
X183880866Y-133946194D01*
X183864645Y-133935355D01*
X183853806Y-133919134D01*
X183850000Y-133900000D01*
X183850000Y-133100000D01*
X183853806Y-133080866D01*
X183864645Y-133064645D01*
X183880866Y-133053806D01*
X183900000Y-133050000D01*
X184700000Y-133050000D01*
X184719134Y-133053806D01*
G37*
G36*
X186319134Y-133053806D02*
G01*
X186335355Y-133064645D01*
X186346194Y-133080866D01*
X186350000Y-133100000D01*
X186350000Y-133900000D01*
X186346194Y-133919134D01*
X186335355Y-133935355D01*
X186319134Y-133946194D01*
X186300000Y-133950000D01*
X185500000Y-133950000D01*
X185480866Y-133946194D01*
X185464645Y-133935355D01*
X185453806Y-133919134D01*
X185450000Y-133900000D01*
X185450000Y-133100000D01*
X185453806Y-133080866D01*
X185464645Y-133064645D01*
X185480866Y-133053806D01*
X185500000Y-133050000D01*
X186300000Y-133050000D01*
X186319134Y-133053806D01*
G37*
G36*
X167819134Y-133253806D02*
G01*
X167835355Y-133264645D01*
X167846194Y-133280866D01*
X167850000Y-133300000D01*
X167850000Y-133700000D01*
X167846194Y-133719134D01*
X167835355Y-133735355D01*
X167819134Y-133746194D01*
X167800000Y-133750000D01*
X166800000Y-133750000D01*
X166780866Y-133746194D01*
X166764645Y-133735355D01*
X166753806Y-133719134D01*
X166750000Y-133700000D01*
X166750000Y-133300000D01*
X166753806Y-133280866D01*
X166764645Y-133264645D01*
X166780866Y-133253806D01*
X166800000Y-133250000D01*
X167800000Y-133250000D01*
X167819134Y-133253806D01*
G37*
G36*
X173819134Y-132753806D02*
G01*
X173835355Y-132764645D01*
X173846194Y-132780866D01*
X173850000Y-132800000D01*
X173850000Y-133200000D01*
X173846194Y-133219134D01*
X173835355Y-133235355D01*
X173819134Y-133246194D01*
X173800000Y-133250000D01*
X172800000Y-133250000D01*
X172780866Y-133246194D01*
X172764645Y-133235355D01*
X172753806Y-133219134D01*
X172750000Y-133200000D01*
X172750000Y-132800000D01*
X172753806Y-132780866D01*
X172764645Y-132764645D01*
X172780866Y-132753806D01*
X172800000Y-132750000D01*
X173800000Y-132750000D01*
X173819134Y-132753806D01*
G37*
G36*
X167819134Y-132253806D02*
G01*
X167835355Y-132264645D01*
X167846194Y-132280866D01*
X167850000Y-132300000D01*
X167850000Y-132700000D01*
X167846194Y-132719134D01*
X167835355Y-132735355D01*
X167819134Y-132746194D01*
X167800000Y-132750000D01*
X166800000Y-132750000D01*
X166780866Y-132746194D01*
X166764645Y-132735355D01*
X166753806Y-132719134D01*
X166750000Y-132700000D01*
X166750000Y-132300000D01*
X166753806Y-132280866D01*
X166764645Y-132264645D01*
X166780866Y-132253806D01*
X166800000Y-132250000D01*
X167800000Y-132250000D01*
X167819134Y-132253806D01*
G37*
G36*
X194544134Y-131353806D02*
G01*
X194560355Y-131364645D01*
X194571194Y-131380866D01*
X194575000Y-131400000D01*
X194575000Y-132600000D01*
X194571194Y-132619134D01*
X194560355Y-132635355D01*
X194544134Y-132646194D01*
X194525000Y-132650000D01*
X194075000Y-132650000D01*
X194055866Y-132646194D01*
X194039645Y-132635355D01*
X194028806Y-132619134D01*
X194025000Y-132600000D01*
X194025000Y-131400000D01*
X194028806Y-131380866D01*
X194039645Y-131364645D01*
X194055866Y-131353806D01*
X194075000Y-131350000D01*
X194525000Y-131350000D01*
X194544134Y-131353806D01*
G37*
G36*
X198544134Y-131353806D02*
G01*
X198560355Y-131364645D01*
X198571194Y-131380866D01*
X198575000Y-131400000D01*
X198575000Y-132600000D01*
X198571194Y-132619134D01*
X198560355Y-132635355D01*
X198544134Y-132646194D01*
X198525000Y-132650000D01*
X198075000Y-132650000D01*
X198055866Y-132646194D01*
X198039645Y-132635355D01*
X198028806Y-132619134D01*
X198025000Y-132600000D01*
X198025000Y-131400000D01*
X198028806Y-131380866D01*
X198039645Y-131364645D01*
X198055866Y-131353806D01*
X198075000Y-131350000D01*
X198525000Y-131350000D01*
X198544134Y-131353806D01*
G37*
G36*
X173819134Y-131753806D02*
G01*
X173835355Y-131764645D01*
X173846194Y-131780866D01*
X173850000Y-131800000D01*
X173850000Y-132200000D01*
X173846194Y-132219134D01*
X173835355Y-132235355D01*
X173819134Y-132246194D01*
X173800000Y-132250000D01*
X172800000Y-132250000D01*
X172780866Y-132246194D01*
X172764645Y-132235355D01*
X172753806Y-132219134D01*
X172750000Y-132200000D01*
X172750000Y-131800000D01*
X172753806Y-131780866D01*
X172764645Y-131764645D01*
X172780866Y-131753806D01*
X172800000Y-131750000D01*
X173800000Y-131750000D01*
X173819134Y-131753806D01*
G37*
G36*
X167819134Y-131253806D02*
G01*
X167835355Y-131264645D01*
X167846194Y-131280866D01*
X167850000Y-131300000D01*
X167850000Y-131700000D01*
X167846194Y-131719134D01*
X167835355Y-131735355D01*
X167819134Y-131746194D01*
X167800000Y-131750000D01*
X166800000Y-131750000D01*
X166780866Y-131746194D01*
X166764645Y-131735355D01*
X166753806Y-131719134D01*
X166750000Y-131700000D01*
X166750000Y-131300000D01*
X166753806Y-131280866D01*
X166764645Y-131264645D01*
X166780866Y-131253806D01*
X166800000Y-131250000D01*
X167800000Y-131250000D01*
X167819134Y-131253806D01*
G37*
G36*
X173819134Y-130753806D02*
G01*
X173835355Y-130764645D01*
X173846194Y-130780866D01*
X173850000Y-130800000D01*
X173850000Y-131200000D01*
X173846194Y-131219134D01*
X173835355Y-131235355D01*
X173819134Y-131246194D01*
X173800000Y-131250000D01*
X172800000Y-131250000D01*
X172780866Y-131246194D01*
X172764645Y-131235355D01*
X172753806Y-131219134D01*
X172750000Y-131200000D01*
X172750000Y-130800000D01*
X172753806Y-130780866D01*
X172764645Y-130764645D01*
X172780866Y-130753806D01*
X172800000Y-130750000D01*
X173800000Y-130750000D01*
X173819134Y-130753806D01*
G37*
G36*
X194544134Y-129853806D02*
G01*
X194560355Y-129864645D01*
X194571194Y-129880866D01*
X194575000Y-129900000D01*
X194575000Y-131100000D01*
X194571194Y-131119134D01*
X194560355Y-131135355D01*
X194544134Y-131146194D01*
X194525000Y-131150000D01*
X194075000Y-131150000D01*
X194055866Y-131146194D01*
X194039645Y-131135355D01*
X194028806Y-131119134D01*
X194025000Y-131100000D01*
X194025000Y-129900000D01*
X194028806Y-129880866D01*
X194039645Y-129864645D01*
X194055866Y-129853806D01*
X194075000Y-129850000D01*
X194525000Y-129850000D01*
X194544134Y-129853806D01*
G37*
G36*
X198544134Y-129853806D02*
G01*
X198560355Y-129864645D01*
X198571194Y-129880866D01*
X198575000Y-129900000D01*
X198575000Y-131100000D01*
X198571194Y-131119134D01*
X198560355Y-131135355D01*
X198544134Y-131146194D01*
X198525000Y-131150000D01*
X198075000Y-131150000D01*
X198055866Y-131146194D01*
X198039645Y-131135355D01*
X198028806Y-131119134D01*
X198025000Y-131100000D01*
X198025000Y-129900000D01*
X198028806Y-129880866D01*
X198039645Y-129864645D01*
X198055866Y-129853806D01*
X198075000Y-129850000D01*
X198525000Y-129850000D01*
X198544134Y-129853806D01*
G37*
G36*
X167819134Y-130253806D02*
G01*
X167835355Y-130264645D01*
X167846194Y-130280866D01*
X167850000Y-130300000D01*
X167850000Y-130700000D01*
X167846194Y-130719134D01*
X167835355Y-130735355D01*
X167819134Y-130746194D01*
X167800000Y-130750000D01*
X166800000Y-130750000D01*
X166780866Y-130746194D01*
X166764645Y-130735355D01*
X166753806Y-130719134D01*
X166750000Y-130700000D01*
X166750000Y-130300000D01*
X166753806Y-130280866D01*
X166764645Y-130264645D01*
X166780866Y-130253806D01*
X166800000Y-130250000D01*
X167800000Y-130250000D01*
X167819134Y-130253806D01*
G37*
G36*
X108115151Y-127687301D02*
G01*
X108316623Y-127752763D01*
X108505373Y-127848936D01*
X108676755Y-127973452D01*
X108826548Y-128123245D01*
X108951064Y-128294627D01*
X109047237Y-128483377D01*
X109112699Y-128684849D01*
X109145838Y-128894080D01*
X109145838Y-129105920D01*
X109112699Y-129315151D01*
X109047237Y-129516623D01*
X108951064Y-129705373D01*
X108826548Y-129876755D01*
X108676755Y-130026548D01*
X108505373Y-130151064D01*
X108316623Y-130247237D01*
X108115151Y-130312699D01*
X107905920Y-130345838D01*
X107694080Y-130345838D01*
X107484849Y-130312699D01*
X107283377Y-130247237D01*
X107094627Y-130151064D01*
X106923245Y-130026548D01*
X106773452Y-129876755D01*
X106648936Y-129705373D01*
X106552763Y-129516623D01*
X106487301Y-129315151D01*
X106454162Y-129105920D01*
X106454162Y-128894080D01*
X106487301Y-128684849D01*
X106552763Y-128483377D01*
X106648936Y-128294627D01*
X106773452Y-128123245D01*
X106923245Y-127973452D01*
X107094627Y-127848936D01*
X107283377Y-127752763D01*
X107484849Y-127687301D01*
X107694080Y-127654162D01*
X107905920Y-127654162D01*
X108115151Y-127687301D01*
G37*
G36*
X136269134Y-129128806D02*
G01*
X136285355Y-129139645D01*
X136296194Y-129155866D01*
X136300000Y-129175000D01*
X136300000Y-129725000D01*
X136296194Y-129744134D01*
X136285355Y-129760355D01*
X136269134Y-129771194D01*
X136250000Y-129775000D01*
X135450000Y-129775000D01*
X135430866Y-129771194D01*
X135414645Y-129760355D01*
X135403806Y-129744134D01*
X135400000Y-129725000D01*
X135400000Y-129175000D01*
X135403806Y-129155866D01*
X135414645Y-129139645D01*
X135430866Y-129128806D01*
X135450000Y-129125000D01*
X136250000Y-129125000D01*
X136269134Y-129128806D01*
G37*
G36*
X194544134Y-128353806D02*
G01*
X194560355Y-128364645D01*
X194571194Y-128380866D01*
X194575000Y-128400000D01*
X194575000Y-129600000D01*
X194571194Y-129619134D01*
X194560355Y-129635355D01*
X194544134Y-129646194D01*
X194525000Y-129650000D01*
X194075000Y-129650000D01*
X194055866Y-129646194D01*
X194039645Y-129635355D01*
X194028806Y-129619134D01*
X194025000Y-129600000D01*
X194025000Y-128400000D01*
X194028806Y-128380866D01*
X194039645Y-128364645D01*
X194055866Y-128353806D01*
X194075000Y-128350000D01*
X194525000Y-128350000D01*
X194544134Y-128353806D01*
G37*
G36*
X198544134Y-128353806D02*
G01*
X198560355Y-128364645D01*
X198571194Y-128380866D01*
X198575000Y-128400000D01*
X198575000Y-129600000D01*
X198571194Y-129619134D01*
X198560355Y-129635355D01*
X198544134Y-129646194D01*
X198525000Y-129650000D01*
X198075000Y-129650000D01*
X198055866Y-129646194D01*
X198039645Y-129635355D01*
X198028806Y-129619134D01*
X198025000Y-129600000D01*
X198025000Y-128400000D01*
X198028806Y-128380866D01*
X198039645Y-128364645D01*
X198055866Y-128353806D01*
X198075000Y-128350000D01*
X198525000Y-128350000D01*
X198544134Y-128353806D01*
G37*
G36*
X127892885Y-126955056D02*
G01*
X127902918Y-126955056D01*
X127942117Y-126962853D01*
X128045078Y-126979160D01*
X128078200Y-126989922D01*
X128104799Y-126995213D01*
X128142335Y-127010760D01*
X128201762Y-127030070D01*
X128257433Y-127058435D01*
X128294967Y-127073983D01*
X128317517Y-127089050D01*
X128348539Y-127104857D01*
X128432866Y-127166124D01*
X128466113Y-127188339D01*
X128473208Y-127195434D01*
X128481817Y-127201689D01*
X128598310Y-127318182D01*
X128604564Y-127326790D01*
X128611661Y-127333887D01*
X128633878Y-127367138D01*
X128695142Y-127451460D01*
X128710947Y-127482479D01*
X128726017Y-127505033D01*
X128741566Y-127542572D01*
X128769929Y-127598237D01*
X128789235Y-127657657D01*
X128804787Y-127695201D01*
X128810078Y-127721805D01*
X128820839Y-127754921D01*
X128837145Y-127857876D01*
X128844944Y-127897082D01*
X128844944Y-127907114D01*
X128846609Y-127917627D01*
X128846609Y-128082372D01*
X128844944Y-128092884D01*
X128844944Y-128102918D01*
X128837144Y-128142126D01*
X128820839Y-128245078D01*
X128810079Y-128278192D01*
X128804787Y-128304799D01*
X128789234Y-128342346D01*
X128769929Y-128401762D01*
X128741568Y-128457422D01*
X128726017Y-128494967D01*
X128710945Y-128517523D01*
X128695142Y-128548539D01*
X128633887Y-128632849D01*
X128611661Y-128666113D01*
X128604561Y-128673212D01*
X128598310Y-128681817D01*
X128481817Y-128798310D01*
X128473212Y-128804561D01*
X128466113Y-128811661D01*
X128432849Y-128833887D01*
X128348539Y-128895142D01*
X128317523Y-128910945D01*
X128294967Y-128926017D01*
X128257422Y-128941568D01*
X128201762Y-128969929D01*
X128142346Y-128989234D01*
X128104799Y-129004787D01*
X128078192Y-129010079D01*
X128045078Y-129020839D01*
X127942126Y-129037144D01*
X127902918Y-129044944D01*
X127892884Y-129044944D01*
X127882372Y-129046609D01*
X127717628Y-129046609D01*
X127707115Y-129044944D01*
X127697082Y-129044944D01*
X127657874Y-129037145D01*
X127554921Y-129020839D01*
X127521805Y-129010078D01*
X127495201Y-129004787D01*
X127457657Y-128989235D01*
X127398237Y-128969929D01*
X127342572Y-128941566D01*
X127305033Y-128926017D01*
X127282479Y-128910947D01*
X127251460Y-128895142D01*
X127167138Y-128833878D01*
X127133887Y-128811661D01*
X127126790Y-128804564D01*
X127118182Y-128798310D01*
X127001689Y-128681817D01*
X126995434Y-128673208D01*
X126988339Y-128666113D01*
X126966124Y-128632866D01*
X126904857Y-128548539D01*
X126889050Y-128517517D01*
X126873983Y-128494967D01*
X126858435Y-128457433D01*
X126830070Y-128401762D01*
X126810760Y-128342335D01*
X126795213Y-128304799D01*
X126789922Y-128278200D01*
X126779160Y-128245078D01*
X126762853Y-128142117D01*
X126755056Y-128102918D01*
X126755056Y-128092884D01*
X126753391Y-128082372D01*
X126753391Y-127917627D01*
X126755056Y-127907114D01*
X126755056Y-127897082D01*
X126762852Y-127857886D01*
X126779160Y-127754921D01*
X126789922Y-127721797D01*
X126795213Y-127695201D01*
X126810759Y-127657668D01*
X126830070Y-127598237D01*
X126858438Y-127542561D01*
X126873983Y-127505033D01*
X126889048Y-127482486D01*
X126904857Y-127451460D01*
X126966132Y-127367121D01*
X126988339Y-127333887D01*
X126995432Y-127326793D01*
X127001689Y-127318182D01*
X127118182Y-127201689D01*
X127126793Y-127195432D01*
X127133887Y-127188339D01*
X127167121Y-127166132D01*
X127251460Y-127104857D01*
X127282486Y-127089048D01*
X127305033Y-127073983D01*
X127342561Y-127058438D01*
X127398237Y-127030070D01*
X127457668Y-127010759D01*
X127495201Y-126995213D01*
X127521797Y-126989922D01*
X127554921Y-126979160D01*
X127657883Y-126962853D01*
X127697082Y-126955056D01*
X127707115Y-126955056D01*
X127717628Y-126953391D01*
X127882372Y-126953391D01*
X127892885Y-126955056D01*
G37*
G36*
X138169134Y-128128806D02*
G01*
X138185355Y-128139645D01*
X138196194Y-128155866D01*
X138200000Y-128175000D01*
X138200000Y-128825000D01*
X138196194Y-128844134D01*
X138185355Y-128860355D01*
X138169134Y-128871194D01*
X138150000Y-128875000D01*
X137350000Y-128875000D01*
X137330866Y-128871194D01*
X137314645Y-128860355D01*
X137303806Y-128844134D01*
X137300000Y-128825000D01*
X137300000Y-128175000D01*
X137303806Y-128155866D01*
X137314645Y-128139645D01*
X137330866Y-128128806D01*
X137350000Y-128125000D01*
X138150000Y-128125000D01*
X138169134Y-128128806D01*
G37*
G36*
X194544134Y-126853806D02*
G01*
X194560355Y-126864645D01*
X194571194Y-126880866D01*
X194575000Y-126900000D01*
X194575000Y-128100000D01*
X194571194Y-128119134D01*
X194560355Y-128135355D01*
X194544134Y-128146194D01*
X194525000Y-128150000D01*
X194075000Y-128150000D01*
X194055866Y-128146194D01*
X194039645Y-128135355D01*
X194028806Y-128119134D01*
X194025000Y-128100000D01*
X194025000Y-126900000D01*
X194028806Y-126880866D01*
X194039645Y-126864645D01*
X194055866Y-126853806D01*
X194075000Y-126850000D01*
X194525000Y-126850000D01*
X194544134Y-126853806D01*
G37*
G36*
X198544134Y-126853806D02*
G01*
X198560355Y-126864645D01*
X198571194Y-126880866D01*
X198575000Y-126900000D01*
X198575000Y-128100000D01*
X198571194Y-128119134D01*
X198560355Y-128135355D01*
X198544134Y-128146194D01*
X198525000Y-128150000D01*
X198075000Y-128150000D01*
X198055866Y-128146194D01*
X198039645Y-128135355D01*
X198028806Y-128119134D01*
X198025000Y-128100000D01*
X198025000Y-126900000D01*
X198028806Y-126880866D01*
X198039645Y-126864645D01*
X198055866Y-126853806D01*
X198075000Y-126850000D01*
X198525000Y-126850000D01*
X198544134Y-126853806D01*
G37*
G36*
X136269134Y-127228806D02*
G01*
X136285355Y-127239645D01*
X136296194Y-127255866D01*
X136300000Y-127275000D01*
X136300000Y-127825000D01*
X136296194Y-127844134D01*
X136285355Y-127860355D01*
X136269134Y-127871194D01*
X136250000Y-127875000D01*
X135450000Y-127875000D01*
X135430866Y-127871194D01*
X135414645Y-127860355D01*
X135403806Y-127844134D01*
X135400000Y-127825000D01*
X135400000Y-127275000D01*
X135403806Y-127255866D01*
X135414645Y-127239645D01*
X135430866Y-127228806D01*
X135450000Y-127225000D01*
X136250000Y-127225000D01*
X136269134Y-127228806D01*
G37*
G36*
X50138496Y-124900064D02*
G01*
X50354891Y-124970375D01*
X50557623Y-125073672D01*
X50741700Y-125207411D01*
X50902589Y-125368300D01*
X51036328Y-125552377D01*
X51139625Y-125755109D01*
X51209936Y-125971504D01*
X51245530Y-126196234D01*
X51245530Y-126423766D01*
X51209936Y-126648496D01*
X51139625Y-126864891D01*
X51036328Y-127067623D01*
X50902589Y-127251700D01*
X50741700Y-127412589D01*
X50557623Y-127546328D01*
X50354891Y-127649625D01*
X50138496Y-127719936D01*
X49913766Y-127755530D01*
X49686234Y-127755530D01*
X49461504Y-127719936D01*
X49245109Y-127649625D01*
X49042377Y-127546328D01*
X48858300Y-127412589D01*
X48697411Y-127251700D01*
X48563672Y-127067623D01*
X48460375Y-126864891D01*
X48390064Y-126648496D01*
X48354470Y-126423766D01*
X48354470Y-126196234D01*
X48390064Y-125971504D01*
X48460375Y-125755109D01*
X48563672Y-125552377D01*
X48697411Y-125368300D01*
X48858300Y-125207411D01*
X49042377Y-125073672D01*
X49245109Y-124970375D01*
X49461504Y-124900064D01*
X49686234Y-124864470D01*
X49913766Y-124864470D01*
X50138496Y-124900064D01*
G37*
G36*
X194544134Y-125353806D02*
G01*
X194560355Y-125364645D01*
X194571194Y-125380866D01*
X194575000Y-125400000D01*
X194575000Y-126600000D01*
X194571194Y-126619134D01*
X194560355Y-126635355D01*
X194544134Y-126646194D01*
X194525000Y-126650000D01*
X194075000Y-126650000D01*
X194055866Y-126646194D01*
X194039645Y-126635355D01*
X194028806Y-126619134D01*
X194025000Y-126600000D01*
X194025000Y-125400000D01*
X194028806Y-125380866D01*
X194039645Y-125364645D01*
X194055866Y-125353806D01*
X194075000Y-125350000D01*
X194525000Y-125350000D01*
X194544134Y-125353806D01*
G37*
G36*
X198544134Y-125353806D02*
G01*
X198560355Y-125364645D01*
X198571194Y-125380866D01*
X198575000Y-125400000D01*
X198575000Y-126600000D01*
X198571194Y-126619134D01*
X198560355Y-126635355D01*
X198544134Y-126646194D01*
X198525000Y-126650000D01*
X198075000Y-126650000D01*
X198055866Y-126646194D01*
X198039645Y-126635355D01*
X198028806Y-126619134D01*
X198025000Y-126600000D01*
X198025000Y-125400000D01*
X198028806Y-125380866D01*
X198039645Y-125364645D01*
X198055866Y-125353806D01*
X198075000Y-125350000D01*
X198525000Y-125350000D01*
X198544134Y-125353806D01*
G37*
G36*
X182419134Y-125053806D02*
G01*
X182435355Y-125064645D01*
X182446194Y-125080866D01*
X182450000Y-125100000D01*
X182450000Y-125900000D01*
X182446194Y-125919134D01*
X182435355Y-125935355D01*
X182419134Y-125946194D01*
X182400000Y-125950000D01*
X181600000Y-125950000D01*
X181580866Y-125946194D01*
X181564645Y-125935355D01*
X181553806Y-125919134D01*
X181550000Y-125900000D01*
X181550000Y-125100000D01*
X181553806Y-125080866D01*
X181564645Y-125064645D01*
X181580866Y-125053806D01*
X181600000Y-125050000D01*
X182400000Y-125050000D01*
X182419134Y-125053806D01*
G37*
G36*
X184019134Y-125053806D02*
G01*
X184035355Y-125064645D01*
X184046194Y-125080866D01*
X184050000Y-125100000D01*
X184050000Y-125900000D01*
X184046194Y-125919134D01*
X184035355Y-125935355D01*
X184019134Y-125946194D01*
X184000000Y-125950000D01*
X183200000Y-125950000D01*
X183180866Y-125946194D01*
X183164645Y-125935355D01*
X183153806Y-125919134D01*
X183150000Y-125900000D01*
X183150000Y-125100000D01*
X183153806Y-125080866D01*
X183164645Y-125064645D01*
X183180866Y-125053806D01*
X183200000Y-125050000D01*
X184000000Y-125050000D01*
X184019134Y-125053806D01*
G37*
G36*
X108115151Y-123187301D02*
G01*
X108316623Y-123252763D01*
X108505373Y-123348936D01*
X108676755Y-123473452D01*
X108826548Y-123623245D01*
X108951064Y-123794627D01*
X109047237Y-123983377D01*
X109112699Y-124184849D01*
X109145838Y-124394080D01*
X109145838Y-124605920D01*
X109112699Y-124815151D01*
X109047237Y-125016623D01*
X108951064Y-125205373D01*
X108826548Y-125376755D01*
X108676755Y-125526548D01*
X108505373Y-125651064D01*
X108316623Y-125747237D01*
X108115151Y-125812699D01*
X107905920Y-125845838D01*
X107694080Y-125845838D01*
X107484849Y-125812699D01*
X107283377Y-125747237D01*
X107094627Y-125651064D01*
X106923245Y-125526548D01*
X106773452Y-125376755D01*
X106648936Y-125205373D01*
X106552763Y-125016623D01*
X106487301Y-124815151D01*
X106454162Y-124605920D01*
X106454162Y-124394080D01*
X106487301Y-124184849D01*
X106552763Y-123983377D01*
X106648936Y-123794627D01*
X106773452Y-123623245D01*
X106923245Y-123473452D01*
X107094627Y-123348936D01*
X107283377Y-123252763D01*
X107484849Y-123187301D01*
X107694080Y-123154162D01*
X107905920Y-123154162D01*
X108115151Y-123187301D01*
G37*
G36*
X196591807Y-122784538D02*
G01*
X196778354Y-122845151D01*
X196953123Y-122934200D01*
X197111810Y-123049493D01*
X197250507Y-123188190D01*
X197365800Y-123346877D01*
X197454849Y-123521646D01*
X197515462Y-123708193D01*
X197546147Y-123901926D01*
X197546147Y-124098074D01*
X197515462Y-124291807D01*
X197454849Y-124478354D01*
X197365800Y-124653123D01*
X197250507Y-124811810D01*
X197111810Y-124950507D01*
X196953123Y-125065800D01*
X196778354Y-125154849D01*
X196591807Y-125215462D01*
X196398074Y-125246147D01*
X196201926Y-125246147D01*
X196008193Y-125215462D01*
X195821646Y-125154849D01*
X195646877Y-125065800D01*
X195488190Y-124950507D01*
X195349493Y-124811810D01*
X195234200Y-124653123D01*
X195145151Y-124478354D01*
X195084538Y-124291807D01*
X195053853Y-124098074D01*
X195053853Y-123901926D01*
X195084538Y-123708193D01*
X195145151Y-123521646D01*
X195234200Y-123346877D01*
X195349493Y-123188190D01*
X195488190Y-123049493D01*
X195646877Y-122934200D01*
X195821646Y-122845151D01*
X196008193Y-122784538D01*
X196201926Y-122753853D01*
X196398074Y-122753853D01*
X196591807Y-122784538D01*
G37*
G36*
X133419134Y-124053806D02*
G01*
X133435355Y-124064645D01*
X133446194Y-124080866D01*
X133450000Y-124100000D01*
X133450000Y-124900000D01*
X133446194Y-124919134D01*
X133435355Y-124935355D01*
X133419134Y-124946194D01*
X133400000Y-124950000D01*
X132600000Y-124950000D01*
X132580866Y-124946194D01*
X132564645Y-124935355D01*
X132553806Y-124919134D01*
X132550000Y-124900000D01*
X132550000Y-124100000D01*
X132553806Y-124080866D01*
X132564645Y-124064645D01*
X132580866Y-124053806D01*
X132600000Y-124050000D01*
X133400000Y-124050000D01*
X133419134Y-124053806D01*
G37*
G36*
X135019134Y-124053806D02*
G01*
X135035355Y-124064645D01*
X135046194Y-124080866D01*
X135050000Y-124100000D01*
X135050000Y-124900000D01*
X135046194Y-124919134D01*
X135035355Y-124935355D01*
X135019134Y-124946194D01*
X135000000Y-124950000D01*
X134200000Y-124950000D01*
X134180866Y-124946194D01*
X134164645Y-124935355D01*
X134153806Y-124919134D01*
X134150000Y-124900000D01*
X134150000Y-124100000D01*
X134153806Y-124080866D01*
X134164645Y-124064645D01*
X134180866Y-124053806D01*
X134200000Y-124050000D01*
X135000000Y-124050000D01*
X135019134Y-124053806D01*
G37*
G36*
X139419134Y-124053806D02*
G01*
X139435355Y-124064645D01*
X139446194Y-124080866D01*
X139450000Y-124100000D01*
X139450000Y-124900000D01*
X139446194Y-124919134D01*
X139435355Y-124935355D01*
X139419134Y-124946194D01*
X139400000Y-124950000D01*
X138600000Y-124950000D01*
X138580866Y-124946194D01*
X138564645Y-124935355D01*
X138553806Y-124919134D01*
X138550000Y-124900000D01*
X138550000Y-124100000D01*
X138553806Y-124080866D01*
X138564645Y-124064645D01*
X138580866Y-124053806D01*
X138600000Y-124050000D01*
X139400000Y-124050000D01*
X139419134Y-124053806D01*
G37*
G36*
X141019134Y-124053806D02*
G01*
X141035355Y-124064645D01*
X141046194Y-124080866D01*
X141050000Y-124100000D01*
X141050000Y-124900000D01*
X141046194Y-124919134D01*
X141035355Y-124935355D01*
X141019134Y-124946194D01*
X141000000Y-124950000D01*
X140200000Y-124950000D01*
X140180866Y-124946194D01*
X140164645Y-124935355D01*
X140153806Y-124919134D01*
X140150000Y-124900000D01*
X140150000Y-124100000D01*
X140153806Y-124080866D01*
X140164645Y-124064645D01*
X140180866Y-124053806D01*
X140200000Y-124050000D01*
X141000000Y-124050000D01*
X141019134Y-124053806D01*
G37*
G36*
X170419134Y-124053806D02*
G01*
X170435355Y-124064645D01*
X170446194Y-124080866D01*
X170450000Y-124100000D01*
X170450000Y-124900000D01*
X170446194Y-124919134D01*
X170435355Y-124935355D01*
X170419134Y-124946194D01*
X170400000Y-124950000D01*
X169600000Y-124950000D01*
X169580866Y-124946194D01*
X169564645Y-124935355D01*
X169553806Y-124919134D01*
X169550000Y-124900000D01*
X169550000Y-124100000D01*
X169553806Y-124080866D01*
X169564645Y-124064645D01*
X169580866Y-124053806D01*
X169600000Y-124050000D01*
X170400000Y-124050000D01*
X170419134Y-124053806D01*
G37*
G36*
X172019134Y-124053806D02*
G01*
X172035355Y-124064645D01*
X172046194Y-124080866D01*
X172050000Y-124100000D01*
X172050000Y-124900000D01*
X172046194Y-124919134D01*
X172035355Y-124935355D01*
X172019134Y-124946194D01*
X172000000Y-124950000D01*
X171200000Y-124950000D01*
X171180866Y-124946194D01*
X171164645Y-124935355D01*
X171153806Y-124919134D01*
X171150000Y-124900000D01*
X171150000Y-124100000D01*
X171153806Y-124080866D01*
X171164645Y-124064645D01*
X171180866Y-124053806D01*
X171200000Y-124050000D01*
X172000000Y-124050000D01*
X172019134Y-124053806D01*
G37*
G36*
X135619134Y-120853806D02*
G01*
X135635355Y-120864645D01*
X135646194Y-120880866D01*
X135650000Y-120900000D01*
X135650000Y-122100000D01*
X135646194Y-122119134D01*
X135635355Y-122135355D01*
X135619134Y-122146194D01*
X135600000Y-122150000D01*
X134400000Y-122150000D01*
X134380866Y-122146194D01*
X134364645Y-122135355D01*
X134353806Y-122119134D01*
X134350000Y-122100000D01*
X134350000Y-120900000D01*
X134353806Y-120880866D01*
X134364645Y-120864645D01*
X134380866Y-120853806D01*
X134400000Y-120850000D01*
X135600000Y-120850000D01*
X135619134Y-120853806D01*
G37*
G36*
X139219134Y-120853806D02*
G01*
X139235355Y-120864645D01*
X139246194Y-120880866D01*
X139250000Y-120900000D01*
X139250000Y-122100000D01*
X139246194Y-122119134D01*
X139235355Y-122135355D01*
X139219134Y-122146194D01*
X139200000Y-122150000D01*
X138000000Y-122150000D01*
X137980866Y-122146194D01*
X137964645Y-122135355D01*
X137953806Y-122119134D01*
X137950000Y-122100000D01*
X137950000Y-120900000D01*
X137953806Y-120880866D01*
X137964645Y-120864645D01*
X137980866Y-120853806D01*
X138000000Y-120850000D01*
X139200000Y-120850000D01*
X139219134Y-120853806D01*
G37*
G36*
X127892885Y-119955056D02*
G01*
X127902918Y-119955056D01*
X127942117Y-119962853D01*
X128045078Y-119979160D01*
X128078200Y-119989922D01*
X128104799Y-119995213D01*
X128142335Y-120010760D01*
X128201762Y-120030070D01*
X128257433Y-120058435D01*
X128294967Y-120073983D01*
X128317517Y-120089050D01*
X128348539Y-120104857D01*
X128432866Y-120166124D01*
X128466113Y-120188339D01*
X128473208Y-120195434D01*
X128481817Y-120201689D01*
X128598310Y-120318182D01*
X128604564Y-120326790D01*
X128611661Y-120333887D01*
X128633878Y-120367138D01*
X128695142Y-120451460D01*
X128710947Y-120482479D01*
X128726017Y-120505033D01*
X128741566Y-120542572D01*
X128769929Y-120598237D01*
X128789235Y-120657657D01*
X128804787Y-120695201D01*
X128810078Y-120721805D01*
X128820839Y-120754921D01*
X128837145Y-120857876D01*
X128844944Y-120897082D01*
X128844944Y-120907114D01*
X128846609Y-120917627D01*
X128846609Y-121082372D01*
X128844944Y-121092884D01*
X128844944Y-121102918D01*
X128837144Y-121142126D01*
X128820839Y-121245078D01*
X128810079Y-121278192D01*
X128804787Y-121304799D01*
X128789234Y-121342346D01*
X128769929Y-121401762D01*
X128741568Y-121457422D01*
X128726017Y-121494967D01*
X128710945Y-121517523D01*
X128695142Y-121548539D01*
X128633887Y-121632849D01*
X128611661Y-121666113D01*
X128604561Y-121673212D01*
X128598310Y-121681817D01*
X128481817Y-121798310D01*
X128473212Y-121804561D01*
X128466113Y-121811661D01*
X128432849Y-121833887D01*
X128348539Y-121895142D01*
X128317523Y-121910945D01*
X128294967Y-121926017D01*
X128257422Y-121941568D01*
X128201762Y-121969929D01*
X128142346Y-121989234D01*
X128104799Y-122004787D01*
X128078192Y-122010079D01*
X128045078Y-122020839D01*
X127942126Y-122037144D01*
X127902918Y-122044944D01*
X127892884Y-122044944D01*
X127882372Y-122046609D01*
X127717628Y-122046609D01*
X127707115Y-122044944D01*
X127697082Y-122044944D01*
X127657874Y-122037145D01*
X127554921Y-122020839D01*
X127521805Y-122010078D01*
X127495201Y-122004787D01*
X127457657Y-121989235D01*
X127398237Y-121969929D01*
X127342572Y-121941566D01*
X127305033Y-121926017D01*
X127282479Y-121910947D01*
X127251460Y-121895142D01*
X127167138Y-121833878D01*
X127133887Y-121811661D01*
X127126790Y-121804564D01*
X127118182Y-121798310D01*
X127001689Y-121681817D01*
X126995434Y-121673208D01*
X126988339Y-121666113D01*
X126966124Y-121632866D01*
X126904857Y-121548539D01*
X126889050Y-121517517D01*
X126873983Y-121494967D01*
X126858435Y-121457433D01*
X126830070Y-121401762D01*
X126810760Y-121342335D01*
X126795213Y-121304799D01*
X126789922Y-121278200D01*
X126779160Y-121245078D01*
X126762853Y-121142117D01*
X126755056Y-121102918D01*
X126755056Y-121092884D01*
X126753391Y-121082372D01*
X126753391Y-120917627D01*
X126755056Y-120907114D01*
X126755056Y-120897082D01*
X126762852Y-120857886D01*
X126779160Y-120754921D01*
X126789922Y-120721797D01*
X126795213Y-120695201D01*
X126810759Y-120657668D01*
X126830070Y-120598237D01*
X126858438Y-120542561D01*
X126873983Y-120505033D01*
X126889048Y-120482486D01*
X126904857Y-120451460D01*
X126966132Y-120367121D01*
X126988339Y-120333887D01*
X126995432Y-120326793D01*
X127001689Y-120318182D01*
X127118182Y-120201689D01*
X127126793Y-120195432D01*
X127133887Y-120188339D01*
X127167121Y-120166132D01*
X127251460Y-120104857D01*
X127282486Y-120089048D01*
X127305033Y-120073983D01*
X127342561Y-120058438D01*
X127398237Y-120030070D01*
X127457668Y-120010759D01*
X127495201Y-119995213D01*
X127521797Y-119989922D01*
X127554921Y-119979160D01*
X127657883Y-119962853D01*
X127697082Y-119955056D01*
X127707115Y-119955056D01*
X127717628Y-119953391D01*
X127882372Y-119953391D01*
X127892885Y-119955056D01*
G37*
G36*
X164419134Y-121053806D02*
G01*
X164435355Y-121064645D01*
X164446194Y-121080866D01*
X164450000Y-121100000D01*
X164450000Y-121900000D01*
X164446194Y-121919134D01*
X164435355Y-121935355D01*
X164419134Y-121946194D01*
X164400000Y-121950000D01*
X163600000Y-121950000D01*
X163580866Y-121946194D01*
X163564645Y-121935355D01*
X163553806Y-121919134D01*
X163550000Y-121900000D01*
X163550000Y-121100000D01*
X163553806Y-121080866D01*
X163564645Y-121064645D01*
X163580866Y-121053806D01*
X163600000Y-121050000D01*
X164400000Y-121050000D01*
X164419134Y-121053806D01*
G37*
G36*
X166019134Y-121053806D02*
G01*
X166035355Y-121064645D01*
X166046194Y-121080866D01*
X166050000Y-121100000D01*
X166050000Y-121900000D01*
X166046194Y-121919134D01*
X166035355Y-121935355D01*
X166019134Y-121946194D01*
X166000000Y-121950000D01*
X165200000Y-121950000D01*
X165180866Y-121946194D01*
X165164645Y-121935355D01*
X165153806Y-121919134D01*
X165150000Y-121900000D01*
X165150000Y-121100000D01*
X165153806Y-121080866D01*
X165164645Y-121064645D01*
X165180866Y-121053806D01*
X165200000Y-121050000D01*
X166000000Y-121050000D01*
X166019134Y-121053806D01*
G37*
G36*
X170419134Y-121053806D02*
G01*
X170435355Y-121064645D01*
X170446194Y-121080866D01*
X170450000Y-121100000D01*
X170450000Y-121900000D01*
X170446194Y-121919134D01*
X170435355Y-121935355D01*
X170419134Y-121946194D01*
X170400000Y-121950000D01*
X169600000Y-121950000D01*
X169580866Y-121946194D01*
X169564645Y-121935355D01*
X169553806Y-121919134D01*
X169550000Y-121900000D01*
X169550000Y-121100000D01*
X169553806Y-121080866D01*
X169564645Y-121064645D01*
X169580866Y-121053806D01*
X169600000Y-121050000D01*
X170400000Y-121050000D01*
X170419134Y-121053806D01*
G37*
G36*
X172019134Y-121053806D02*
G01*
X172035355Y-121064645D01*
X172046194Y-121080866D01*
X172050000Y-121100000D01*
X172050000Y-121900000D01*
X172046194Y-121919134D01*
X172035355Y-121935355D01*
X172019134Y-121946194D01*
X172000000Y-121950000D01*
X171200000Y-121950000D01*
X171180866Y-121946194D01*
X171164645Y-121935355D01*
X171153806Y-121919134D01*
X171150000Y-121900000D01*
X171150000Y-121100000D01*
X171153806Y-121080866D01*
X171164645Y-121064645D01*
X171180866Y-121053806D01*
X171200000Y-121050000D01*
X172000000Y-121050000D01*
X172019134Y-121053806D01*
G37*
G36*
X108115151Y-118687301D02*
G01*
X108316623Y-118752763D01*
X108505373Y-118848936D01*
X108676755Y-118973452D01*
X108826548Y-119123245D01*
X108951064Y-119294627D01*
X109047237Y-119483377D01*
X109112699Y-119684849D01*
X109145838Y-119894080D01*
X109145838Y-120105920D01*
X109112699Y-120315151D01*
X109047237Y-120516623D01*
X108951064Y-120705373D01*
X108826548Y-120876755D01*
X108676755Y-121026548D01*
X108505373Y-121151064D01*
X108316623Y-121247237D01*
X108115151Y-121312699D01*
X107905920Y-121345838D01*
X107694080Y-121345838D01*
X107484849Y-121312699D01*
X107283377Y-121247237D01*
X107094627Y-121151064D01*
X106923245Y-121026548D01*
X106773452Y-120876755D01*
X106648936Y-120705373D01*
X106552763Y-120516623D01*
X106487301Y-120315151D01*
X106454162Y-120105920D01*
X106454162Y-119894080D01*
X106487301Y-119684849D01*
X106552763Y-119483377D01*
X106648936Y-119294627D01*
X106773452Y-119123245D01*
X106923245Y-118973452D01*
X107094627Y-118848936D01*
X107283377Y-118752763D01*
X107484849Y-118687301D01*
X107694080Y-118654162D01*
X107905920Y-118654162D01*
X108115151Y-118687301D01*
G37*
G36*
X147469134Y-120678806D02*
G01*
X147485355Y-120689645D01*
X147496194Y-120705866D01*
X147500000Y-120725000D01*
X147500000Y-121275000D01*
X147496194Y-121294134D01*
X147485355Y-121310355D01*
X147469134Y-121321194D01*
X147450000Y-121325000D01*
X145950000Y-121325000D01*
X145930866Y-121321194D01*
X145914645Y-121310355D01*
X145903806Y-121294134D01*
X145900000Y-121275000D01*
X145900000Y-120725000D01*
X145903806Y-120705866D01*
X145914645Y-120689645D01*
X145930866Y-120678806D01*
X145950000Y-120675000D01*
X147450000Y-120675000D01*
X147469134Y-120678806D01*
G37*
G36*
X157669134Y-120678806D02*
G01*
X157685355Y-120689645D01*
X157696194Y-120705866D01*
X157700000Y-120725000D01*
X157700000Y-121275000D01*
X157696194Y-121294134D01*
X157685355Y-121310355D01*
X157669134Y-121321194D01*
X157650000Y-121325000D01*
X156150000Y-121325000D01*
X156130866Y-121321194D01*
X156114645Y-121310355D01*
X156103806Y-121294134D01*
X156100000Y-121275000D01*
X156100000Y-120725000D01*
X156103806Y-120705866D01*
X156114645Y-120689645D01*
X156130866Y-120678806D01*
X156150000Y-120675000D01*
X157650000Y-120675000D01*
X157669134Y-120678806D01*
G37*
G36*
X157669134Y-119678806D02*
G01*
X157685355Y-119689645D01*
X157696194Y-119705866D01*
X157700000Y-119725000D01*
X157700000Y-120275000D01*
X157696194Y-120294134D01*
X157685355Y-120310355D01*
X157669134Y-120321194D01*
X157650000Y-120325000D01*
X156150000Y-120325000D01*
X156130866Y-120321194D01*
X156114645Y-120310355D01*
X156103806Y-120294134D01*
X156100000Y-120275000D01*
X156100000Y-119725000D01*
X156103806Y-119705866D01*
X156114645Y-119689645D01*
X156130866Y-119678806D01*
X156150000Y-119675000D01*
X157650000Y-119675000D01*
X157669134Y-119678806D01*
G37*
G36*
X50138496Y-117280064D02*
G01*
X50354891Y-117350375D01*
X50557623Y-117453672D01*
X50741700Y-117587411D01*
X50902589Y-117748300D01*
X51036328Y-117932377D01*
X51139625Y-118135109D01*
X51209936Y-118351504D01*
X51245530Y-118576234D01*
X51245530Y-118803766D01*
X51209936Y-119028496D01*
X51139625Y-119244891D01*
X51036328Y-119447623D01*
X50902589Y-119631700D01*
X50741700Y-119792589D01*
X50557623Y-119926328D01*
X50354891Y-120029625D01*
X50138496Y-120099936D01*
X49913766Y-120135530D01*
X49686234Y-120135530D01*
X49461504Y-120099936D01*
X49245109Y-120029625D01*
X49042377Y-119926328D01*
X48858300Y-119792589D01*
X48697411Y-119631700D01*
X48563672Y-119447623D01*
X48460375Y-119244891D01*
X48390064Y-119028496D01*
X48354470Y-118803766D01*
X48354470Y-118576234D01*
X48390064Y-118351504D01*
X48460375Y-118135109D01*
X48563672Y-117932377D01*
X48697411Y-117748300D01*
X48858300Y-117587411D01*
X49042377Y-117453672D01*
X49245109Y-117350375D01*
X49461504Y-117280064D01*
X49686234Y-117244470D01*
X49913766Y-117244470D01*
X50138496Y-117280064D01*
G37*
G36*
X157669134Y-118678806D02*
G01*
X157685355Y-118689645D01*
X157696194Y-118705866D01*
X157700000Y-118725000D01*
X157700000Y-119275000D01*
X157696194Y-119294134D01*
X157685355Y-119310355D01*
X157669134Y-119321194D01*
X157650000Y-119325000D01*
X156150000Y-119325000D01*
X156130866Y-119321194D01*
X156114645Y-119310355D01*
X156103806Y-119294134D01*
X156100000Y-119275000D01*
X156100000Y-118725000D01*
X156103806Y-118705866D01*
X156114645Y-118689645D01*
X156130866Y-118678806D01*
X156150000Y-118675000D01*
X157650000Y-118675000D01*
X157669134Y-118678806D01*
G37*
G36*
X180619134Y-116853806D02*
G01*
X180635355Y-116864645D01*
X180646194Y-116880866D01*
X180650000Y-116900000D01*
X180650000Y-118100000D01*
X180646194Y-118119134D01*
X180635355Y-118135355D01*
X180619134Y-118146194D01*
X180600000Y-118150000D01*
X179400000Y-118150000D01*
X179380866Y-118146194D01*
X179364645Y-118135355D01*
X179353806Y-118119134D01*
X179350000Y-118100000D01*
X179350000Y-116900000D01*
X179353806Y-116880866D01*
X179364645Y-116864645D01*
X179380866Y-116853806D01*
X179400000Y-116850000D01*
X180600000Y-116850000D01*
X180619134Y-116853806D01*
G37*
G36*
X184219134Y-116853806D02*
G01*
X184235355Y-116864645D01*
X184246194Y-116880866D01*
X184250000Y-116900000D01*
X184250000Y-118100000D01*
X184246194Y-118119134D01*
X184235355Y-118135355D01*
X184219134Y-118146194D01*
X184200000Y-118150000D01*
X183000000Y-118150000D01*
X182980866Y-118146194D01*
X182964645Y-118135355D01*
X182953806Y-118119134D01*
X182950000Y-118100000D01*
X182950000Y-116900000D01*
X182953806Y-116880866D01*
X182964645Y-116864645D01*
X182980866Y-116853806D01*
X183000000Y-116850000D01*
X184200000Y-116850000D01*
X184219134Y-116853806D01*
G37*
G36*
X164419134Y-116053806D02*
G01*
X164435355Y-116064645D01*
X164446194Y-116080866D01*
X164450000Y-116100000D01*
X164450000Y-116900000D01*
X164446194Y-116919134D01*
X164435355Y-116935355D01*
X164419134Y-116946194D01*
X164400000Y-116950000D01*
X163600000Y-116950000D01*
X163580866Y-116946194D01*
X163564645Y-116935355D01*
X163553806Y-116919134D01*
X163550000Y-116900000D01*
X163550000Y-116100000D01*
X163553806Y-116080866D01*
X163564645Y-116064645D01*
X163580866Y-116053806D01*
X163600000Y-116050000D01*
X164400000Y-116050000D01*
X164419134Y-116053806D01*
G37*
G36*
X166019134Y-116053806D02*
G01*
X166035355Y-116064645D01*
X166046194Y-116080866D01*
X166050000Y-116100000D01*
X166050000Y-116900000D01*
X166046194Y-116919134D01*
X166035355Y-116935355D01*
X166019134Y-116946194D01*
X166000000Y-116950000D01*
X165200000Y-116950000D01*
X165180866Y-116946194D01*
X165164645Y-116935355D01*
X165153806Y-116919134D01*
X165150000Y-116900000D01*
X165150000Y-116100000D01*
X165153806Y-116080866D01*
X165164645Y-116064645D01*
X165180866Y-116053806D01*
X165200000Y-116050000D01*
X166000000Y-116050000D01*
X166019134Y-116053806D01*
G37*
G36*
X170419134Y-116053806D02*
G01*
X170435355Y-116064645D01*
X170446194Y-116080866D01*
X170450000Y-116100000D01*
X170450000Y-116900000D01*
X170446194Y-116919134D01*
X170435355Y-116935355D01*
X170419134Y-116946194D01*
X170400000Y-116950000D01*
X169600000Y-116950000D01*
X169580866Y-116946194D01*
X169564645Y-116935355D01*
X169553806Y-116919134D01*
X169550000Y-116900000D01*
X169550000Y-116100000D01*
X169553806Y-116080866D01*
X169564645Y-116064645D01*
X169580866Y-116053806D01*
X169600000Y-116050000D01*
X170400000Y-116050000D01*
X170419134Y-116053806D01*
G37*
G36*
X172019134Y-116053806D02*
G01*
X172035355Y-116064645D01*
X172046194Y-116080866D01*
X172050000Y-116100000D01*
X172050000Y-116900000D01*
X172046194Y-116919134D01*
X172035355Y-116935355D01*
X172019134Y-116946194D01*
X172000000Y-116950000D01*
X171200000Y-116950000D01*
X171180866Y-116946194D01*
X171164645Y-116935355D01*
X171153806Y-116919134D01*
X171150000Y-116900000D01*
X171150000Y-116100000D01*
X171153806Y-116080866D01*
X171164645Y-116064645D01*
X171180866Y-116053806D01*
X171200000Y-116050000D01*
X172000000Y-116050000D01*
X172019134Y-116053806D01*
G37*
G36*
X194892885Y-114455056D02*
G01*
X194902918Y-114455056D01*
X194942117Y-114462853D01*
X195045078Y-114479160D01*
X195078200Y-114489922D01*
X195104799Y-114495213D01*
X195142335Y-114510760D01*
X195201762Y-114530070D01*
X195257433Y-114558435D01*
X195294967Y-114573983D01*
X195317517Y-114589050D01*
X195348539Y-114604857D01*
X195432866Y-114666124D01*
X195466113Y-114688339D01*
X195473208Y-114695434D01*
X195481817Y-114701689D01*
X195598310Y-114818182D01*
X195604564Y-114826790D01*
X195611661Y-114833887D01*
X195633878Y-114867138D01*
X195695142Y-114951460D01*
X195710947Y-114982479D01*
X195726017Y-115005033D01*
X195741566Y-115042572D01*
X195769929Y-115098237D01*
X195789235Y-115157657D01*
X195804787Y-115195201D01*
X195810078Y-115221805D01*
X195820839Y-115254921D01*
X195837145Y-115357876D01*
X195844944Y-115397082D01*
X195844944Y-115407114D01*
X195846609Y-115417627D01*
X195846609Y-115582372D01*
X195844944Y-115592884D01*
X195844944Y-115602918D01*
X195837144Y-115642126D01*
X195820839Y-115745078D01*
X195810079Y-115778192D01*
X195804787Y-115804799D01*
X195789234Y-115842346D01*
X195769929Y-115901762D01*
X195741568Y-115957422D01*
X195726017Y-115994967D01*
X195710945Y-116017523D01*
X195695142Y-116048539D01*
X195633887Y-116132849D01*
X195611661Y-116166113D01*
X195604561Y-116173212D01*
X195598310Y-116181817D01*
X195481817Y-116298310D01*
X195473212Y-116304561D01*
X195466113Y-116311661D01*
X195432849Y-116333887D01*
X195348539Y-116395142D01*
X195317523Y-116410945D01*
X195294967Y-116426017D01*
X195257422Y-116441568D01*
X195201762Y-116469929D01*
X195142346Y-116489234D01*
X195104799Y-116504787D01*
X195078192Y-116510079D01*
X195045078Y-116520839D01*
X194942126Y-116537144D01*
X194902918Y-116544944D01*
X194892884Y-116544944D01*
X194882372Y-116546609D01*
X194717628Y-116546609D01*
X194707115Y-116544944D01*
X194697082Y-116544944D01*
X194657874Y-116537145D01*
X194554921Y-116520839D01*
X194521805Y-116510078D01*
X194495201Y-116504787D01*
X194457657Y-116489235D01*
X194398237Y-116469929D01*
X194342572Y-116441566D01*
X194305033Y-116426017D01*
X194282479Y-116410947D01*
X194251460Y-116395142D01*
X194167138Y-116333878D01*
X194133887Y-116311661D01*
X194126790Y-116304564D01*
X194118182Y-116298310D01*
X194001689Y-116181817D01*
X193995434Y-116173208D01*
X193988339Y-116166113D01*
X193966124Y-116132866D01*
X193904857Y-116048539D01*
X193889050Y-116017517D01*
X193873983Y-115994967D01*
X193858435Y-115957433D01*
X193830070Y-115901762D01*
X193810760Y-115842335D01*
X193795213Y-115804799D01*
X193789922Y-115778200D01*
X193779160Y-115745078D01*
X193762853Y-115642117D01*
X193755056Y-115602918D01*
X193755056Y-115592884D01*
X193753391Y-115582372D01*
X193753391Y-115417627D01*
X193755056Y-115407114D01*
X193755056Y-115397082D01*
X193762852Y-115357886D01*
X193779160Y-115254921D01*
X193789922Y-115221797D01*
X193795213Y-115195201D01*
X193810759Y-115157668D01*
X193830070Y-115098237D01*
X193858438Y-115042561D01*
X193873983Y-115005033D01*
X193889048Y-114982486D01*
X193904857Y-114951460D01*
X193966132Y-114867121D01*
X193988339Y-114833887D01*
X193995432Y-114826793D01*
X194001689Y-114818182D01*
X194118182Y-114701689D01*
X194126793Y-114695432D01*
X194133887Y-114688339D01*
X194167121Y-114666132D01*
X194251460Y-114604857D01*
X194282486Y-114589048D01*
X194305033Y-114573983D01*
X194342561Y-114558438D01*
X194398237Y-114530070D01*
X194457668Y-114510759D01*
X194495201Y-114495213D01*
X194521797Y-114489922D01*
X194554921Y-114479160D01*
X194657883Y-114462853D01*
X194697082Y-114455056D01*
X194707115Y-114455056D01*
X194717628Y-114453391D01*
X194882372Y-114453391D01*
X194892885Y-114455056D01*
G37*
G36*
X147469134Y-114678806D02*
G01*
X147485355Y-114689645D01*
X147496194Y-114705866D01*
X147500000Y-114725000D01*
X147500000Y-115275000D01*
X147496194Y-115294134D01*
X147485355Y-115310355D01*
X147469134Y-115321194D01*
X147450000Y-115325000D01*
X145950000Y-115325000D01*
X145930866Y-115321194D01*
X145914645Y-115310355D01*
X145903806Y-115294134D01*
X145900000Y-115275000D01*
X145900000Y-114725000D01*
X145903806Y-114705866D01*
X145914645Y-114689645D01*
X145930866Y-114678806D01*
X145950000Y-114675000D01*
X147450000Y-114675000D01*
X147469134Y-114678806D01*
G37*
G36*
X147469134Y-113678806D02*
G01*
X147485355Y-113689645D01*
X147496194Y-113705866D01*
X147500000Y-113725000D01*
X147500000Y-114275000D01*
X147496194Y-114294134D01*
X147485355Y-114310355D01*
X147469134Y-114321194D01*
X147450000Y-114325000D01*
X145950000Y-114325000D01*
X145930866Y-114321194D01*
X145914645Y-114310355D01*
X145903806Y-114294134D01*
X145900000Y-114275000D01*
X145900000Y-113725000D01*
X145903806Y-113705866D01*
X145914645Y-113689645D01*
X145930866Y-113678806D01*
X145950000Y-113675000D01*
X147450000Y-113675000D01*
X147469134Y-113678806D01*
G37*
G36*
X157669134Y-113678806D02*
G01*
X157685355Y-113689645D01*
X157696194Y-113705866D01*
X157700000Y-113725000D01*
X157700000Y-114275000D01*
X157696194Y-114294134D01*
X157685355Y-114310355D01*
X157669134Y-114321194D01*
X157650000Y-114325000D01*
X156150000Y-114325000D01*
X156130866Y-114321194D01*
X156114645Y-114310355D01*
X156103806Y-114294134D01*
X156100000Y-114275000D01*
X156100000Y-113725000D01*
X156103806Y-113705866D01*
X156114645Y-113689645D01*
X156130866Y-113678806D01*
X156150000Y-113675000D01*
X157650000Y-113675000D01*
X157669134Y-113678806D01*
G37*
G36*
X180619134Y-111853806D02*
G01*
X180635355Y-111864645D01*
X180646194Y-111880866D01*
X180650000Y-111900000D01*
X180650000Y-113100000D01*
X180646194Y-113119134D01*
X180635355Y-113135355D01*
X180619134Y-113146194D01*
X180600000Y-113150000D01*
X179400000Y-113150000D01*
X179380866Y-113146194D01*
X179364645Y-113135355D01*
X179353806Y-113119134D01*
X179350000Y-113100000D01*
X179350000Y-111900000D01*
X179353806Y-111880866D01*
X179364645Y-111864645D01*
X179380866Y-111853806D01*
X179400000Y-111850000D01*
X180600000Y-111850000D01*
X180619134Y-111853806D01*
G37*
G36*
X184219134Y-111853806D02*
G01*
X184235355Y-111864645D01*
X184246194Y-111880866D01*
X184250000Y-111900000D01*
X184250000Y-113100000D01*
X184246194Y-113119134D01*
X184235355Y-113135355D01*
X184219134Y-113146194D01*
X184200000Y-113150000D01*
X183000000Y-113150000D01*
X182980866Y-113146194D01*
X182964645Y-113135355D01*
X182953806Y-113119134D01*
X182950000Y-113100000D01*
X182950000Y-111900000D01*
X182953806Y-111880866D01*
X182964645Y-111864645D01*
X182980866Y-111853806D01*
X183000000Y-111850000D01*
X184200000Y-111850000D01*
X184219134Y-111853806D01*
G37*
G36*
X194892885Y-110955056D02*
G01*
X194902918Y-110955056D01*
X194942117Y-110962853D01*
X195045078Y-110979160D01*
X195078200Y-110989922D01*
X195104799Y-110995213D01*
X195142335Y-111010760D01*
X195201762Y-111030070D01*
X195257433Y-111058435D01*
X195294967Y-111073983D01*
X195317517Y-111089050D01*
X195348539Y-111104857D01*
X195432866Y-111166124D01*
X195466113Y-111188339D01*
X195473208Y-111195434D01*
X195481817Y-111201689D01*
X195598310Y-111318182D01*
X195604564Y-111326790D01*
X195611661Y-111333887D01*
X195633878Y-111367138D01*
X195695142Y-111451460D01*
X195710947Y-111482479D01*
X195726017Y-111505033D01*
X195741566Y-111542572D01*
X195769929Y-111598237D01*
X195789235Y-111657657D01*
X195804787Y-111695201D01*
X195810078Y-111721805D01*
X195820839Y-111754921D01*
X195837145Y-111857876D01*
X195844944Y-111897082D01*
X195844944Y-111907114D01*
X195846609Y-111917627D01*
X195846609Y-112082372D01*
X195844944Y-112092884D01*
X195844944Y-112102918D01*
X195837144Y-112142126D01*
X195820839Y-112245078D01*
X195810079Y-112278192D01*
X195804787Y-112304799D01*
X195789234Y-112342346D01*
X195769929Y-112401762D01*
X195741568Y-112457422D01*
X195726017Y-112494967D01*
X195710945Y-112517523D01*
X195695142Y-112548539D01*
X195633887Y-112632849D01*
X195611661Y-112666113D01*
X195604561Y-112673212D01*
X195598310Y-112681817D01*
X195481817Y-112798310D01*
X195473212Y-112804561D01*
X195466113Y-112811661D01*
X195432849Y-112833887D01*
X195348539Y-112895142D01*
X195317523Y-112910945D01*
X195294967Y-112926017D01*
X195257422Y-112941568D01*
X195201762Y-112969929D01*
X195142346Y-112989234D01*
X195104799Y-113004787D01*
X195078192Y-113010079D01*
X195045078Y-113020839D01*
X194942126Y-113037144D01*
X194902918Y-113044944D01*
X194892884Y-113044944D01*
X194882372Y-113046609D01*
X194717628Y-113046609D01*
X194707115Y-113044944D01*
X194697082Y-113044944D01*
X194657874Y-113037145D01*
X194554921Y-113020839D01*
X194521805Y-113010078D01*
X194495201Y-113004787D01*
X194457657Y-112989235D01*
X194398237Y-112969929D01*
X194342572Y-112941566D01*
X194305033Y-112926017D01*
X194282479Y-112910947D01*
X194251460Y-112895142D01*
X194167138Y-112833878D01*
X194133887Y-112811661D01*
X194126790Y-112804564D01*
X194118182Y-112798310D01*
X194001689Y-112681817D01*
X193995434Y-112673208D01*
X193988339Y-112666113D01*
X193966124Y-112632866D01*
X193904857Y-112548539D01*
X193889050Y-112517517D01*
X193873983Y-112494967D01*
X193858435Y-112457433D01*
X193830070Y-112401762D01*
X193810760Y-112342335D01*
X193795213Y-112304799D01*
X193789922Y-112278200D01*
X193779160Y-112245078D01*
X193762853Y-112142117D01*
X193755056Y-112102918D01*
X193755056Y-112092884D01*
X193753391Y-112082372D01*
X193753391Y-111917627D01*
X193755056Y-111907114D01*
X193755056Y-111897082D01*
X193762852Y-111857886D01*
X193779160Y-111754921D01*
X193789922Y-111721797D01*
X193795213Y-111695201D01*
X193810759Y-111657668D01*
X193830070Y-111598237D01*
X193858438Y-111542561D01*
X193873983Y-111505033D01*
X193889048Y-111482486D01*
X193904857Y-111451460D01*
X193966132Y-111367121D01*
X193988339Y-111333887D01*
X193995432Y-111326793D01*
X194001689Y-111318182D01*
X194118182Y-111201689D01*
X194126793Y-111195432D01*
X194133887Y-111188339D01*
X194167121Y-111166132D01*
X194251460Y-111104857D01*
X194282486Y-111089048D01*
X194305033Y-111073983D01*
X194342561Y-111058438D01*
X194398237Y-111030070D01*
X194457668Y-111010759D01*
X194495201Y-110995213D01*
X194521797Y-110989922D01*
X194554921Y-110979160D01*
X194657883Y-110962853D01*
X194697082Y-110955056D01*
X194707115Y-110955056D01*
X194717628Y-110953391D01*
X194882372Y-110953391D01*
X194892885Y-110955056D01*
G37*
G36*
X135419134Y-112053806D02*
G01*
X135435355Y-112064645D01*
X135446194Y-112080866D01*
X135450000Y-112100000D01*
X135450000Y-112900000D01*
X135446194Y-112919134D01*
X135435355Y-112935355D01*
X135419134Y-112946194D01*
X135400000Y-112950000D01*
X134600000Y-112950000D01*
X134580866Y-112946194D01*
X134564645Y-112935355D01*
X134553806Y-112919134D01*
X134550000Y-112900000D01*
X134550000Y-112100000D01*
X134553806Y-112080866D01*
X134564645Y-112064645D01*
X134580866Y-112053806D01*
X134600000Y-112050000D01*
X135400000Y-112050000D01*
X135419134Y-112053806D01*
G37*
G36*
X137019134Y-112053806D02*
G01*
X137035355Y-112064645D01*
X137046194Y-112080866D01*
X137050000Y-112100000D01*
X137050000Y-112900000D01*
X137046194Y-112919134D01*
X137035355Y-112935355D01*
X137019134Y-112946194D01*
X137000000Y-112950000D01*
X136200000Y-112950000D01*
X136180866Y-112946194D01*
X136164645Y-112935355D01*
X136153806Y-112919134D01*
X136150000Y-112900000D01*
X136150000Y-112100000D01*
X136153806Y-112080866D01*
X136164645Y-112064645D01*
X136180866Y-112053806D01*
X136200000Y-112050000D01*
X137000000Y-112050000D01*
X137019134Y-112053806D01*
G37*
G36*
X141419134Y-112053806D02*
G01*
X141435355Y-112064645D01*
X141446194Y-112080866D01*
X141450000Y-112100000D01*
X141450000Y-112900000D01*
X141446194Y-112919134D01*
X141435355Y-112935355D01*
X141419134Y-112946194D01*
X141400000Y-112950000D01*
X140600000Y-112950000D01*
X140580866Y-112946194D01*
X140564645Y-112935355D01*
X140553806Y-112919134D01*
X140550000Y-112900000D01*
X140550000Y-112100000D01*
X140553806Y-112080866D01*
X140564645Y-112064645D01*
X140580866Y-112053806D01*
X140600000Y-112050000D01*
X141400000Y-112050000D01*
X141419134Y-112053806D01*
G37*
G36*
X143019134Y-112053806D02*
G01*
X143035355Y-112064645D01*
X143046194Y-112080866D01*
X143050000Y-112100000D01*
X143050000Y-112900000D01*
X143046194Y-112919134D01*
X143035355Y-112935355D01*
X143019134Y-112946194D01*
X143000000Y-112950000D01*
X142200000Y-112950000D01*
X142180866Y-112946194D01*
X142164645Y-112935355D01*
X142153806Y-112919134D01*
X142150000Y-112900000D01*
X142150000Y-112100000D01*
X142153806Y-112080866D01*
X142164645Y-112064645D01*
X142180866Y-112053806D01*
X142200000Y-112050000D01*
X143000000Y-112050000D01*
X143019134Y-112053806D01*
G37*
G36*
X186419134Y-112053806D02*
G01*
X186435355Y-112064645D01*
X186446194Y-112080866D01*
X186450000Y-112100000D01*
X186450000Y-112900000D01*
X186446194Y-112919134D01*
X186435355Y-112935355D01*
X186419134Y-112946194D01*
X186400000Y-112950000D01*
X185600000Y-112950000D01*
X185580866Y-112946194D01*
X185564645Y-112935355D01*
X185553806Y-112919134D01*
X185550000Y-112900000D01*
X185550000Y-112100000D01*
X185553806Y-112080866D01*
X185564645Y-112064645D01*
X185580866Y-112053806D01*
X185600000Y-112050000D01*
X186400000Y-112050000D01*
X186419134Y-112053806D01*
G37*
G36*
X188019134Y-112053806D02*
G01*
X188035355Y-112064645D01*
X188046194Y-112080866D01*
X188050000Y-112100000D01*
X188050000Y-112900000D01*
X188046194Y-112919134D01*
X188035355Y-112935355D01*
X188019134Y-112946194D01*
X188000000Y-112950000D01*
X187200000Y-112950000D01*
X187180866Y-112946194D01*
X187164645Y-112935355D01*
X187153806Y-112919134D01*
X187150000Y-112900000D01*
X187150000Y-112100000D01*
X187153806Y-112080866D01*
X187164645Y-112064645D01*
X187180866Y-112053806D01*
X187200000Y-112050000D01*
X188000000Y-112050000D01*
X188019134Y-112053806D01*
G37*
G36*
X50138496Y-109660064D02*
G01*
X50354891Y-109730375D01*
X50557623Y-109833672D01*
X50741700Y-109967411D01*
X50902589Y-110128300D01*
X51036328Y-110312377D01*
X51139625Y-110515109D01*
X51209936Y-110731504D01*
X51245530Y-110956234D01*
X51245530Y-111183766D01*
X51209936Y-111408496D01*
X51139625Y-111624891D01*
X51036328Y-111827623D01*
X50902589Y-112011700D01*
X50741700Y-112172589D01*
X50557623Y-112306328D01*
X50354891Y-112409625D01*
X50138496Y-112479936D01*
X49913766Y-112515530D01*
X49686234Y-112515530D01*
X49461504Y-112479936D01*
X49245109Y-112409625D01*
X49042377Y-112306328D01*
X48858300Y-112172589D01*
X48697411Y-112011700D01*
X48563672Y-111827623D01*
X48460375Y-111624891D01*
X48390064Y-111408496D01*
X48354470Y-111183766D01*
X48354470Y-110956234D01*
X48390064Y-110731504D01*
X48460375Y-110515109D01*
X48563672Y-110312377D01*
X48697411Y-110128300D01*
X48858300Y-109967411D01*
X49042377Y-109833672D01*
X49245109Y-109730375D01*
X49461504Y-109660064D01*
X49686234Y-109624470D01*
X49913766Y-109624470D01*
X50138496Y-109660064D01*
G37*
G36*
X136269134Y-109128806D02*
G01*
X136285355Y-109139645D01*
X136296194Y-109155866D01*
X136300000Y-109175000D01*
X136300000Y-109725000D01*
X136296194Y-109744134D01*
X136285355Y-109760355D01*
X136269134Y-109771194D01*
X136250000Y-109775000D01*
X135450000Y-109775000D01*
X135430866Y-109771194D01*
X135414645Y-109760355D01*
X135403806Y-109744134D01*
X135400000Y-109725000D01*
X135400000Y-109175000D01*
X135403806Y-109155866D01*
X135414645Y-109139645D01*
X135430866Y-109128806D01*
X135450000Y-109125000D01*
X136250000Y-109125000D01*
X136269134Y-109128806D01*
G37*
G36*
X194892885Y-107455056D02*
G01*
X194902918Y-107455056D01*
X194942117Y-107462853D01*
X195045078Y-107479160D01*
X195078200Y-107489922D01*
X195104799Y-107495213D01*
X195142335Y-107510760D01*
X195201762Y-107530070D01*
X195257433Y-107558435D01*
X195294967Y-107573983D01*
X195317517Y-107589050D01*
X195348539Y-107604857D01*
X195432866Y-107666124D01*
X195466113Y-107688339D01*
X195473208Y-107695434D01*
X195481817Y-107701689D01*
X195598310Y-107818182D01*
X195604564Y-107826790D01*
X195611661Y-107833887D01*
X195633878Y-107867138D01*
X195695142Y-107951460D01*
X195710947Y-107982479D01*
X195726017Y-108005033D01*
X195741566Y-108042572D01*
X195769929Y-108098237D01*
X195789235Y-108157657D01*
X195804787Y-108195201D01*
X195810078Y-108221805D01*
X195820839Y-108254921D01*
X195837145Y-108357876D01*
X195844944Y-108397082D01*
X195844944Y-108407114D01*
X195846609Y-108417627D01*
X195846609Y-108582372D01*
X195844944Y-108592884D01*
X195844944Y-108602918D01*
X195837144Y-108642126D01*
X195820839Y-108745078D01*
X195810079Y-108778192D01*
X195804787Y-108804799D01*
X195789234Y-108842346D01*
X195769929Y-108901762D01*
X195741568Y-108957422D01*
X195726017Y-108994967D01*
X195710945Y-109017523D01*
X195695142Y-109048539D01*
X195633887Y-109132849D01*
X195611661Y-109166113D01*
X195604561Y-109173212D01*
X195598310Y-109181817D01*
X195481817Y-109298310D01*
X195473212Y-109304561D01*
X195466113Y-109311661D01*
X195432849Y-109333887D01*
X195348539Y-109395142D01*
X195317523Y-109410945D01*
X195294967Y-109426017D01*
X195257422Y-109441568D01*
X195201762Y-109469929D01*
X195142346Y-109489234D01*
X195104799Y-109504787D01*
X195078192Y-109510079D01*
X195045078Y-109520839D01*
X194942126Y-109537144D01*
X194902918Y-109544944D01*
X194892884Y-109544944D01*
X194882372Y-109546609D01*
X194717628Y-109546609D01*
X194707115Y-109544944D01*
X194697082Y-109544944D01*
X194657874Y-109537145D01*
X194554921Y-109520839D01*
X194521805Y-109510078D01*
X194495201Y-109504787D01*
X194457657Y-109489235D01*
X194398237Y-109469929D01*
X194342572Y-109441566D01*
X194305033Y-109426017D01*
X194282479Y-109410947D01*
X194251460Y-109395142D01*
X194167138Y-109333878D01*
X194133887Y-109311661D01*
X194126790Y-109304564D01*
X194118182Y-109298310D01*
X194001689Y-109181817D01*
X193995434Y-109173208D01*
X193988339Y-109166113D01*
X193966124Y-109132866D01*
X193904857Y-109048539D01*
X193889050Y-109017517D01*
X193873983Y-108994967D01*
X193858435Y-108957433D01*
X193830070Y-108901762D01*
X193810760Y-108842335D01*
X193795213Y-108804799D01*
X193789922Y-108778200D01*
X193779160Y-108745078D01*
X193762853Y-108642117D01*
X193755056Y-108602918D01*
X193755056Y-108592884D01*
X193753391Y-108582372D01*
X193753391Y-108417627D01*
X193755056Y-108407114D01*
X193755056Y-108397082D01*
X193762852Y-108357886D01*
X193779160Y-108254921D01*
X193789922Y-108221797D01*
X193795213Y-108195201D01*
X193810759Y-108157668D01*
X193830070Y-108098237D01*
X193858438Y-108042561D01*
X193873983Y-108005033D01*
X193889048Y-107982486D01*
X193904857Y-107951460D01*
X193966132Y-107867121D01*
X193988339Y-107833887D01*
X193995432Y-107826793D01*
X194001689Y-107818182D01*
X194118182Y-107701689D01*
X194126793Y-107695432D01*
X194133887Y-107688339D01*
X194167121Y-107666132D01*
X194251460Y-107604857D01*
X194282486Y-107589048D01*
X194305033Y-107573983D01*
X194342561Y-107558438D01*
X194398237Y-107530070D01*
X194457668Y-107510759D01*
X194495201Y-107495213D01*
X194521797Y-107489922D01*
X194554921Y-107479160D01*
X194657883Y-107462853D01*
X194697082Y-107455056D01*
X194707115Y-107455056D01*
X194717628Y-107453391D01*
X194882372Y-107453391D01*
X194892885Y-107455056D01*
G37*
G36*
X108115151Y-106687301D02*
G01*
X108316623Y-106752763D01*
X108505373Y-106848936D01*
X108676755Y-106973452D01*
X108826548Y-107123245D01*
X108951064Y-107294627D01*
X109047237Y-107483377D01*
X109112699Y-107684849D01*
X109145838Y-107894080D01*
X109145838Y-108105920D01*
X109112699Y-108315151D01*
X109047237Y-108516623D01*
X108951064Y-108705373D01*
X108826548Y-108876755D01*
X108676755Y-109026548D01*
X108505373Y-109151064D01*
X108316623Y-109247237D01*
X108115151Y-109312699D01*
X107905920Y-109345838D01*
X107694080Y-109345838D01*
X107484849Y-109312699D01*
X107283377Y-109247237D01*
X107094627Y-109151064D01*
X106923245Y-109026548D01*
X106773452Y-108876755D01*
X106648936Y-108705373D01*
X106552763Y-108516623D01*
X106487301Y-108315151D01*
X106454162Y-108105920D01*
X106454162Y-107894080D01*
X106487301Y-107684849D01*
X106552763Y-107483377D01*
X106648936Y-107294627D01*
X106773452Y-107123245D01*
X106923245Y-106973452D01*
X107094627Y-106848936D01*
X107283377Y-106752763D01*
X107484849Y-106687301D01*
X107694080Y-106654162D01*
X107905920Y-106654162D01*
X108115151Y-106687301D01*
G37*
G36*
X127892885Y-106955056D02*
G01*
X127902918Y-106955056D01*
X127942117Y-106962853D01*
X128045078Y-106979160D01*
X128078200Y-106989922D01*
X128104799Y-106995213D01*
X128142335Y-107010760D01*
X128201762Y-107030070D01*
X128257433Y-107058435D01*
X128294967Y-107073983D01*
X128317517Y-107089050D01*
X128348539Y-107104857D01*
X128432866Y-107166124D01*
X128466113Y-107188339D01*
X128473208Y-107195434D01*
X128481817Y-107201689D01*
X128598310Y-107318182D01*
X128604564Y-107326790D01*
X128611661Y-107333887D01*
X128633878Y-107367138D01*
X128695142Y-107451460D01*
X128710947Y-107482479D01*
X128726017Y-107505033D01*
X128741566Y-107542572D01*
X128769929Y-107598237D01*
X128789235Y-107657657D01*
X128804787Y-107695201D01*
X128810078Y-107721805D01*
X128820839Y-107754921D01*
X128837145Y-107857876D01*
X128844944Y-107897082D01*
X128844944Y-107907114D01*
X128846609Y-107917627D01*
X128846609Y-108082372D01*
X128844944Y-108092884D01*
X128844944Y-108102918D01*
X128837144Y-108142126D01*
X128820839Y-108245078D01*
X128810079Y-108278192D01*
X128804787Y-108304799D01*
X128789234Y-108342346D01*
X128769929Y-108401762D01*
X128741568Y-108457422D01*
X128726017Y-108494967D01*
X128710945Y-108517523D01*
X128695142Y-108548539D01*
X128633887Y-108632849D01*
X128611661Y-108666113D01*
X128604561Y-108673212D01*
X128598310Y-108681817D01*
X128481817Y-108798310D01*
X128473212Y-108804561D01*
X128466113Y-108811661D01*
X128432849Y-108833887D01*
X128348539Y-108895142D01*
X128317523Y-108910945D01*
X128294967Y-108926017D01*
X128257422Y-108941568D01*
X128201762Y-108969929D01*
X128142346Y-108989234D01*
X128104799Y-109004787D01*
X128078192Y-109010079D01*
X128045078Y-109020839D01*
X127942126Y-109037144D01*
X127902918Y-109044944D01*
X127892884Y-109044944D01*
X127882372Y-109046609D01*
X127717628Y-109046609D01*
X127707115Y-109044944D01*
X127697082Y-109044944D01*
X127657874Y-109037145D01*
X127554921Y-109020839D01*
X127521805Y-109010078D01*
X127495201Y-109004787D01*
X127457657Y-108989235D01*
X127398237Y-108969929D01*
X127342572Y-108941566D01*
X127305033Y-108926017D01*
X127282479Y-108910947D01*
X127251460Y-108895142D01*
X127167138Y-108833878D01*
X127133887Y-108811661D01*
X127126790Y-108804564D01*
X127118182Y-108798310D01*
X127001689Y-108681817D01*
X126995434Y-108673208D01*
X126988339Y-108666113D01*
X126966124Y-108632866D01*
X126904857Y-108548539D01*
X126889050Y-108517517D01*
X126873983Y-108494967D01*
X126858435Y-108457433D01*
X126830070Y-108401762D01*
X126810760Y-108342335D01*
X126795213Y-108304799D01*
X126789922Y-108278200D01*
X126779160Y-108245078D01*
X126762853Y-108142117D01*
X126755056Y-108102918D01*
X126755056Y-108092884D01*
X126753391Y-108082372D01*
X126753391Y-107917627D01*
X126755056Y-107907114D01*
X126755056Y-107897082D01*
X126762852Y-107857886D01*
X126779160Y-107754921D01*
X126789922Y-107721797D01*
X126795213Y-107695201D01*
X126810759Y-107657668D01*
X126830070Y-107598237D01*
X126858438Y-107542561D01*
X126873983Y-107505033D01*
X126889048Y-107482486D01*
X126904857Y-107451460D01*
X126966132Y-107367121D01*
X126988339Y-107333887D01*
X126995432Y-107326793D01*
X127001689Y-107318182D01*
X127118182Y-107201689D01*
X127126793Y-107195432D01*
X127133887Y-107188339D01*
X127167121Y-107166132D01*
X127251460Y-107104857D01*
X127282486Y-107089048D01*
X127305033Y-107073983D01*
X127342561Y-107058438D01*
X127398237Y-107030070D01*
X127457668Y-107010759D01*
X127495201Y-106995213D01*
X127521797Y-106989922D01*
X127554921Y-106979160D01*
X127657883Y-106962853D01*
X127697082Y-106955056D01*
X127707115Y-106955056D01*
X127717628Y-106953391D01*
X127882372Y-106953391D01*
X127892885Y-106955056D01*
G37*
G36*
X138169134Y-108128806D02*
G01*
X138185355Y-108139645D01*
X138196194Y-108155866D01*
X138200000Y-108175000D01*
X138200000Y-108825000D01*
X138196194Y-108844134D01*
X138185355Y-108860355D01*
X138169134Y-108871194D01*
X138150000Y-108875000D01*
X137350000Y-108875000D01*
X137330866Y-108871194D01*
X137314645Y-108860355D01*
X137303806Y-108844134D01*
X137300000Y-108825000D01*
X137300000Y-108175000D01*
X137303806Y-108155866D01*
X137314645Y-108139645D01*
X137330866Y-108128806D01*
X137350000Y-108125000D01*
X138150000Y-108125000D01*
X138169134Y-108128806D01*
G37*
G36*
X169869134Y-108058806D02*
G01*
X169885355Y-108069645D01*
X169896194Y-108085866D01*
X169900000Y-108105000D01*
X169900000Y-108705000D01*
X169896194Y-108724134D01*
X169885355Y-108740355D01*
X169869134Y-108751194D01*
X169850000Y-108755000D01*
X168350000Y-108755000D01*
X168330866Y-108751194D01*
X168314645Y-108740355D01*
X168303806Y-108724134D01*
X168300000Y-108705000D01*
X168300000Y-108105000D01*
X168303806Y-108085866D01*
X168314645Y-108069645D01*
X168330866Y-108058806D01*
X168350000Y-108055000D01*
X169850000Y-108055000D01*
X169869134Y-108058806D01*
G37*
G36*
X175269134Y-108058806D02*
G01*
X175285355Y-108069645D01*
X175296194Y-108085866D01*
X175300000Y-108105000D01*
X175300000Y-108705000D01*
X175296194Y-108724134D01*
X175285355Y-108740355D01*
X175269134Y-108751194D01*
X175250000Y-108755000D01*
X173750000Y-108755000D01*
X173730866Y-108751194D01*
X173714645Y-108740355D01*
X173703806Y-108724134D01*
X173700000Y-108705000D01*
X173700000Y-108105000D01*
X173703806Y-108085866D01*
X173714645Y-108069645D01*
X173730866Y-108058806D01*
X173750000Y-108055000D01*
X175250000Y-108055000D01*
X175269134Y-108058806D01*
G37*
G36*
X180619134Y-106853806D02*
G01*
X180635355Y-106864645D01*
X180646194Y-106880866D01*
X180650000Y-106900000D01*
X180650000Y-108100000D01*
X180646194Y-108119134D01*
X180635355Y-108135355D01*
X180619134Y-108146194D01*
X180600000Y-108150000D01*
X179400000Y-108150000D01*
X179380866Y-108146194D01*
X179364645Y-108135355D01*
X179353806Y-108119134D01*
X179350000Y-108100000D01*
X179350000Y-106900000D01*
X179353806Y-106880866D01*
X179364645Y-106864645D01*
X179380866Y-106853806D01*
X179400000Y-106850000D01*
X180600000Y-106850000D01*
X180619134Y-106853806D01*
G37*
G36*
X184219134Y-106853806D02*
G01*
X184235355Y-106864645D01*
X184246194Y-106880866D01*
X184250000Y-106900000D01*
X184250000Y-108100000D01*
X184246194Y-108119134D01*
X184235355Y-108135355D01*
X184219134Y-108146194D01*
X184200000Y-108150000D01*
X183000000Y-108150000D01*
X182980866Y-108146194D01*
X182964645Y-108135355D01*
X182953806Y-108119134D01*
X182950000Y-108100000D01*
X182950000Y-106900000D01*
X182953806Y-106880866D01*
X182964645Y-106864645D01*
X182980866Y-106853806D01*
X183000000Y-106850000D01*
X184200000Y-106850000D01*
X184219134Y-106853806D01*
G37*
G36*
X136269134Y-107228806D02*
G01*
X136285355Y-107239645D01*
X136296194Y-107255866D01*
X136300000Y-107275000D01*
X136300000Y-107825000D01*
X136296194Y-107844134D01*
X136285355Y-107860355D01*
X136269134Y-107871194D01*
X136250000Y-107875000D01*
X135450000Y-107875000D01*
X135430866Y-107871194D01*
X135414645Y-107860355D01*
X135403806Y-107844134D01*
X135400000Y-107825000D01*
X135400000Y-107275000D01*
X135403806Y-107255866D01*
X135414645Y-107239645D01*
X135430866Y-107228806D01*
X135450000Y-107225000D01*
X136250000Y-107225000D01*
X136269134Y-107228806D01*
G37*
G36*
X169869134Y-106788806D02*
G01*
X169885355Y-106799645D01*
X169896194Y-106815866D01*
X169900000Y-106835000D01*
X169900000Y-107435000D01*
X169896194Y-107454134D01*
X169885355Y-107470355D01*
X169869134Y-107481194D01*
X169850000Y-107485000D01*
X168350000Y-107485000D01*
X168330866Y-107481194D01*
X168314645Y-107470355D01*
X168303806Y-107454134D01*
X168300000Y-107435000D01*
X168300000Y-106835000D01*
X168303806Y-106815866D01*
X168314645Y-106799645D01*
X168330866Y-106788806D01*
X168350000Y-106785000D01*
X169850000Y-106785000D01*
X169869134Y-106788806D01*
G37*
G36*
X175269134Y-106788806D02*
G01*
X175285355Y-106799645D01*
X175296194Y-106815866D01*
X175300000Y-106835000D01*
X175300000Y-107435000D01*
X175296194Y-107454134D01*
X175285355Y-107470355D01*
X175269134Y-107481194D01*
X175250000Y-107485000D01*
X173750000Y-107485000D01*
X173730866Y-107481194D01*
X173714645Y-107470355D01*
X173703806Y-107454134D01*
X173700000Y-107435000D01*
X173700000Y-106835000D01*
X173703806Y-106815866D01*
X173714645Y-106799645D01*
X173730866Y-106788806D01*
X173750000Y-106785000D01*
X175250000Y-106785000D01*
X175269134Y-106788806D01*
G37*
G36*
X169869134Y-105518806D02*
G01*
X169885355Y-105529645D01*
X169896194Y-105545866D01*
X169900000Y-105565000D01*
X169900000Y-106165000D01*
X169896194Y-106184134D01*
X169885355Y-106200355D01*
X169869134Y-106211194D01*
X169850000Y-106215000D01*
X168350000Y-106215000D01*
X168330866Y-106211194D01*
X168314645Y-106200355D01*
X168303806Y-106184134D01*
X168300000Y-106165000D01*
X168300000Y-105565000D01*
X168303806Y-105545866D01*
X168314645Y-105529645D01*
X168330866Y-105518806D01*
X168350000Y-105515000D01*
X169850000Y-105515000D01*
X169869134Y-105518806D01*
G37*
G36*
X175269134Y-105518806D02*
G01*
X175285355Y-105529645D01*
X175296194Y-105545866D01*
X175300000Y-105565000D01*
X175300000Y-106165000D01*
X175296194Y-106184134D01*
X175285355Y-106200355D01*
X175269134Y-106211194D01*
X175250000Y-106215000D01*
X173750000Y-106215000D01*
X173730866Y-106211194D01*
X173714645Y-106200355D01*
X173703806Y-106184134D01*
X173700000Y-106165000D01*
X173700000Y-105565000D01*
X173703806Y-105545866D01*
X173714645Y-105529645D01*
X173730866Y-105518806D01*
X173750000Y-105515000D01*
X175250000Y-105515000D01*
X175269134Y-105518806D01*
G37*
G36*
X134419134Y-104053806D02*
G01*
X134435355Y-104064645D01*
X134446194Y-104080866D01*
X134450000Y-104100000D01*
X134450000Y-104900000D01*
X134446194Y-104919134D01*
X134435355Y-104935355D01*
X134419134Y-104946194D01*
X134400000Y-104950000D01*
X133600000Y-104950000D01*
X133580866Y-104946194D01*
X133564645Y-104935355D01*
X133553806Y-104919134D01*
X133550000Y-104900000D01*
X133550000Y-104100000D01*
X133553806Y-104080866D01*
X133564645Y-104064645D01*
X133580866Y-104053806D01*
X133600000Y-104050000D01*
X134400000Y-104050000D01*
X134419134Y-104053806D01*
G37*
G36*
X136019134Y-104053806D02*
G01*
X136035355Y-104064645D01*
X136046194Y-104080866D01*
X136050000Y-104100000D01*
X136050000Y-104900000D01*
X136046194Y-104919134D01*
X136035355Y-104935355D01*
X136019134Y-104946194D01*
X136000000Y-104950000D01*
X135200000Y-104950000D01*
X135180866Y-104946194D01*
X135164645Y-104935355D01*
X135153806Y-104919134D01*
X135150000Y-104900000D01*
X135150000Y-104100000D01*
X135153806Y-104080866D01*
X135164645Y-104064645D01*
X135180866Y-104053806D01*
X135200000Y-104050000D01*
X136000000Y-104050000D01*
X136019134Y-104053806D01*
G37*
G36*
X139419134Y-104053806D02*
G01*
X139435355Y-104064645D01*
X139446194Y-104080866D01*
X139450000Y-104100000D01*
X139450000Y-104900000D01*
X139446194Y-104919134D01*
X139435355Y-104935355D01*
X139419134Y-104946194D01*
X139400000Y-104950000D01*
X138600000Y-104950000D01*
X138580866Y-104946194D01*
X138564645Y-104935355D01*
X138553806Y-104919134D01*
X138550000Y-104900000D01*
X138550000Y-104100000D01*
X138553806Y-104080866D01*
X138564645Y-104064645D01*
X138580866Y-104053806D01*
X138600000Y-104050000D01*
X139400000Y-104050000D01*
X139419134Y-104053806D01*
G37*
G36*
X141019134Y-104053806D02*
G01*
X141035355Y-104064645D01*
X141046194Y-104080866D01*
X141050000Y-104100000D01*
X141050000Y-104900000D01*
X141046194Y-104919134D01*
X141035355Y-104935355D01*
X141019134Y-104946194D01*
X141000000Y-104950000D01*
X140200000Y-104950000D01*
X140180866Y-104946194D01*
X140164645Y-104935355D01*
X140153806Y-104919134D01*
X140150000Y-104900000D01*
X140150000Y-104100000D01*
X140153806Y-104080866D01*
X140164645Y-104064645D01*
X140180866Y-104053806D01*
X140200000Y-104050000D01*
X141000000Y-104050000D01*
X141019134Y-104053806D01*
G37*
G36*
X169869134Y-104248806D02*
G01*
X169885355Y-104259645D01*
X169896194Y-104275866D01*
X169900000Y-104295000D01*
X169900000Y-104895000D01*
X169896194Y-104914134D01*
X169885355Y-104930355D01*
X169869134Y-104941194D01*
X169850000Y-104945000D01*
X168350000Y-104945000D01*
X168330866Y-104941194D01*
X168314645Y-104930355D01*
X168303806Y-104914134D01*
X168300000Y-104895000D01*
X168300000Y-104295000D01*
X168303806Y-104275866D01*
X168314645Y-104259645D01*
X168330866Y-104248806D01*
X168350000Y-104245000D01*
X169850000Y-104245000D01*
X169869134Y-104248806D01*
G37*
G36*
X175269134Y-104248806D02*
G01*
X175285355Y-104259645D01*
X175296194Y-104275866D01*
X175300000Y-104295000D01*
X175300000Y-104895000D01*
X175296194Y-104914134D01*
X175285355Y-104930355D01*
X175269134Y-104941194D01*
X175250000Y-104945000D01*
X173750000Y-104945000D01*
X173730866Y-104941194D01*
X173714645Y-104930355D01*
X173703806Y-104914134D01*
X173700000Y-104895000D01*
X173700000Y-104295000D01*
X173703806Y-104275866D01*
X173714645Y-104259645D01*
X173730866Y-104248806D01*
X173750000Y-104245000D01*
X175250000Y-104245000D01*
X175269134Y-104248806D01*
G37*
G36*
X147469134Y-102678806D02*
G01*
X147485355Y-102689645D01*
X147496194Y-102705866D01*
X147500000Y-102725000D01*
X147500000Y-103275000D01*
X147496194Y-103294134D01*
X147485355Y-103310355D01*
X147469134Y-103321194D01*
X147450000Y-103325000D01*
X145950000Y-103325000D01*
X145930866Y-103321194D01*
X145914645Y-103310355D01*
X145903806Y-103294134D01*
X145900000Y-103275000D01*
X145900000Y-102725000D01*
X145903806Y-102705866D01*
X145914645Y-102689645D01*
X145930866Y-102678806D01*
X145950000Y-102675000D01*
X147450000Y-102675000D01*
X147469134Y-102678806D01*
G37*
G36*
X157669134Y-102678806D02*
G01*
X157685355Y-102689645D01*
X157696194Y-102705866D01*
X157700000Y-102725000D01*
X157700000Y-103275000D01*
X157696194Y-103294134D01*
X157685355Y-103310355D01*
X157669134Y-103321194D01*
X157650000Y-103325000D01*
X156150000Y-103325000D01*
X156130866Y-103321194D01*
X156114645Y-103310355D01*
X156103806Y-103294134D01*
X156100000Y-103275000D01*
X156100000Y-102725000D01*
X156103806Y-102705866D01*
X156114645Y-102689645D01*
X156130866Y-102678806D01*
X156150000Y-102675000D01*
X157650000Y-102675000D01*
X157669134Y-102678806D01*
G37*
G36*
X108115151Y-99687301D02*
G01*
X108316623Y-99752763D01*
X108505373Y-99848936D01*
X108676755Y-99973452D01*
X108826548Y-100123245D01*
X108951064Y-100294627D01*
X109047237Y-100483377D01*
X109112699Y-100684849D01*
X109145838Y-100894080D01*
X109145838Y-101105920D01*
X109112699Y-101315151D01*
X109047237Y-101516623D01*
X108951064Y-101705373D01*
X108826548Y-101876755D01*
X108676755Y-102026548D01*
X108505373Y-102151064D01*
X108316623Y-102247237D01*
X108115151Y-102312699D01*
X107905920Y-102345838D01*
X107694080Y-102345838D01*
X107484849Y-102312699D01*
X107283377Y-102247237D01*
X107094627Y-102151064D01*
X106923245Y-102026548D01*
X106773452Y-101876755D01*
X106648936Y-101705373D01*
X106552763Y-101516623D01*
X106487301Y-101315151D01*
X106454162Y-101105920D01*
X106454162Y-100894080D01*
X106487301Y-100684849D01*
X106552763Y-100483377D01*
X106648936Y-100294627D01*
X106773452Y-100123245D01*
X106923245Y-99973452D01*
X107094627Y-99848936D01*
X107283377Y-99752763D01*
X107484849Y-99687301D01*
X107694080Y-99654162D01*
X107905920Y-99654162D01*
X108115151Y-99687301D01*
G37*
G36*
X157669134Y-101678806D02*
G01*
X157685355Y-101689645D01*
X157696194Y-101705866D01*
X157700000Y-101725000D01*
X157700000Y-102275000D01*
X157696194Y-102294134D01*
X157685355Y-102310355D01*
X157669134Y-102321194D01*
X157650000Y-102325000D01*
X156150000Y-102325000D01*
X156130866Y-102321194D01*
X156114645Y-102310355D01*
X156103806Y-102294134D01*
X156100000Y-102275000D01*
X156100000Y-101725000D01*
X156103806Y-101705866D01*
X156114645Y-101689645D01*
X156130866Y-101678806D01*
X156150000Y-101675000D01*
X157650000Y-101675000D01*
X157669134Y-101678806D01*
G37*
G36*
X135619134Y-100853806D02*
G01*
X135635355Y-100864645D01*
X135646194Y-100880866D01*
X135650000Y-100900000D01*
X135650000Y-102100000D01*
X135646194Y-102119134D01*
X135635355Y-102135355D01*
X135619134Y-102146194D01*
X135600000Y-102150000D01*
X134400000Y-102150000D01*
X134380866Y-102146194D01*
X134364645Y-102135355D01*
X134353806Y-102119134D01*
X134350000Y-102100000D01*
X134350000Y-100900000D01*
X134353806Y-100880866D01*
X134364645Y-100864645D01*
X134380866Y-100853806D01*
X134400000Y-100850000D01*
X135600000Y-100850000D01*
X135619134Y-100853806D01*
G37*
G36*
X139219134Y-100853806D02*
G01*
X139235355Y-100864645D01*
X139246194Y-100880866D01*
X139250000Y-100900000D01*
X139250000Y-102100000D01*
X139246194Y-102119134D01*
X139235355Y-102135355D01*
X139219134Y-102146194D01*
X139200000Y-102150000D01*
X138000000Y-102150000D01*
X137980866Y-102146194D01*
X137964645Y-102135355D01*
X137953806Y-102119134D01*
X137950000Y-102100000D01*
X137950000Y-100900000D01*
X137953806Y-100880866D01*
X137964645Y-100864645D01*
X137980866Y-100853806D01*
X138000000Y-100850000D01*
X139200000Y-100850000D01*
X139219134Y-100853806D01*
G37*
G36*
X194988685Y-100827989D02*
G01*
X195106408Y-100876751D01*
X195212356Y-100947543D01*
X195302457Y-101037644D01*
X195373249Y-101143592D01*
X195422011Y-101261315D01*
X195446870Y-101386289D01*
X195446870Y-101513711D01*
X195422011Y-101638685D01*
X195373249Y-101756408D01*
X195302457Y-101862356D01*
X195212356Y-101952457D01*
X195106408Y-102023249D01*
X194988685Y-102072011D01*
X194863711Y-102096870D01*
X194736289Y-102096870D01*
X194611315Y-102072011D01*
X194493592Y-102023249D01*
X194387644Y-101952457D01*
X194297543Y-101862356D01*
X194226751Y-101756408D01*
X194177989Y-101638685D01*
X194153130Y-101513711D01*
X194153130Y-101386289D01*
X194177989Y-101261315D01*
X194226751Y-101143592D01*
X194297543Y-101037644D01*
X194387644Y-100947543D01*
X194493592Y-100876751D01*
X194611315Y-100827989D01*
X194736289Y-100803130D01*
X194863711Y-100803130D01*
X194988685Y-100827989D01*
G37*
G36*
X127892885Y-99955056D02*
G01*
X127902918Y-99955056D01*
X127942117Y-99962853D01*
X128045078Y-99979160D01*
X128078200Y-99989922D01*
X128104799Y-99995213D01*
X128142335Y-100010760D01*
X128201762Y-100030070D01*
X128257433Y-100058435D01*
X128294967Y-100073983D01*
X128317517Y-100089050D01*
X128348539Y-100104857D01*
X128432866Y-100166124D01*
X128466113Y-100188339D01*
X128473208Y-100195434D01*
X128481817Y-100201689D01*
X128598310Y-100318182D01*
X128604564Y-100326790D01*
X128611661Y-100333887D01*
X128633878Y-100367138D01*
X128695142Y-100451460D01*
X128710947Y-100482479D01*
X128726017Y-100505033D01*
X128741566Y-100542572D01*
X128769929Y-100598237D01*
X128789235Y-100657657D01*
X128804787Y-100695201D01*
X128810078Y-100721805D01*
X128820839Y-100754921D01*
X128837145Y-100857876D01*
X128844944Y-100897082D01*
X128844944Y-100907114D01*
X128846609Y-100917627D01*
X128846609Y-101082372D01*
X128844944Y-101092884D01*
X128844944Y-101102918D01*
X128837144Y-101142126D01*
X128820839Y-101245078D01*
X128810079Y-101278192D01*
X128804787Y-101304799D01*
X128789234Y-101342346D01*
X128769929Y-101401762D01*
X128741568Y-101457422D01*
X128726017Y-101494967D01*
X128710945Y-101517523D01*
X128695142Y-101548539D01*
X128633887Y-101632849D01*
X128611661Y-101666113D01*
X128604561Y-101673212D01*
X128598310Y-101681817D01*
X128481817Y-101798310D01*
X128473212Y-101804561D01*
X128466113Y-101811661D01*
X128432849Y-101833887D01*
X128348539Y-101895142D01*
X128317523Y-101910945D01*
X128294967Y-101926017D01*
X128257422Y-101941568D01*
X128201762Y-101969929D01*
X128142346Y-101989234D01*
X128104799Y-102004787D01*
X128078192Y-102010079D01*
X128045078Y-102020839D01*
X127942126Y-102037144D01*
X127902918Y-102044944D01*
X127892884Y-102044944D01*
X127882372Y-102046609D01*
X127717628Y-102046609D01*
X127707115Y-102044944D01*
X127697082Y-102044944D01*
X127657874Y-102037145D01*
X127554921Y-102020839D01*
X127521805Y-102010078D01*
X127495201Y-102004787D01*
X127457657Y-101989235D01*
X127398237Y-101969929D01*
X127342572Y-101941566D01*
X127305033Y-101926017D01*
X127282479Y-101910947D01*
X127251460Y-101895142D01*
X127167138Y-101833878D01*
X127133887Y-101811661D01*
X127126790Y-101804564D01*
X127118182Y-101798310D01*
X127001689Y-101681817D01*
X126995434Y-101673208D01*
X126988339Y-101666113D01*
X126966124Y-101632866D01*
X126904857Y-101548539D01*
X126889050Y-101517517D01*
X126873983Y-101494967D01*
X126858435Y-101457433D01*
X126830070Y-101401762D01*
X126810760Y-101342335D01*
X126795213Y-101304799D01*
X126789922Y-101278200D01*
X126779160Y-101245078D01*
X126762853Y-101142117D01*
X126755056Y-101102918D01*
X126755056Y-101092884D01*
X126753391Y-101082372D01*
X126753391Y-100917627D01*
X126755056Y-100907114D01*
X126755056Y-100897082D01*
X126762852Y-100857886D01*
X126779160Y-100754921D01*
X126789922Y-100721797D01*
X126795213Y-100695201D01*
X126810759Y-100657668D01*
X126830070Y-100598237D01*
X126858438Y-100542561D01*
X126873983Y-100505033D01*
X126889048Y-100482486D01*
X126904857Y-100451460D01*
X126966132Y-100367121D01*
X126988339Y-100333887D01*
X126995432Y-100326793D01*
X127001689Y-100318182D01*
X127118182Y-100201689D01*
X127126793Y-100195432D01*
X127133887Y-100188339D01*
X127167121Y-100166132D01*
X127251460Y-100104857D01*
X127282486Y-100089048D01*
X127305033Y-100073983D01*
X127342561Y-100058438D01*
X127398237Y-100030070D01*
X127457668Y-100010759D01*
X127495201Y-99995213D01*
X127521797Y-99989922D01*
X127554921Y-99979160D01*
X127657883Y-99962853D01*
X127697082Y-99955056D01*
X127707115Y-99955056D01*
X127717628Y-99953391D01*
X127882372Y-99953391D01*
X127892885Y-99955056D01*
G37*
G36*
X157669134Y-100678806D02*
G01*
X157685355Y-100689645D01*
X157696194Y-100705866D01*
X157700000Y-100725000D01*
X157700000Y-101275000D01*
X157696194Y-101294134D01*
X157685355Y-101310355D01*
X157669134Y-101321194D01*
X157650000Y-101325000D01*
X156150000Y-101325000D01*
X156130866Y-101321194D01*
X156114645Y-101310355D01*
X156103806Y-101294134D01*
X156100000Y-101275000D01*
X156100000Y-100725000D01*
X156103806Y-100705866D01*
X156114645Y-100689645D01*
X156130866Y-100678806D01*
X156150000Y-100675000D01*
X157650000Y-100675000D01*
X157669134Y-100678806D01*
G37*
G36*
X196988685Y-99557989D02*
G01*
X197106408Y-99606751D01*
X197212356Y-99677543D01*
X197302457Y-99767644D01*
X197373249Y-99873592D01*
X197422011Y-99991315D01*
X197446870Y-100116289D01*
X197446870Y-100243711D01*
X197422011Y-100368685D01*
X197373249Y-100486408D01*
X197302457Y-100592356D01*
X197212356Y-100682457D01*
X197106408Y-100753249D01*
X196988685Y-100802011D01*
X196863711Y-100826870D01*
X196736289Y-100826870D01*
X196611315Y-100802011D01*
X196493592Y-100753249D01*
X196387644Y-100682457D01*
X196297543Y-100592356D01*
X196226751Y-100486408D01*
X196177989Y-100368685D01*
X196153130Y-100243711D01*
X196153130Y-100116289D01*
X196177989Y-99991315D01*
X196226751Y-99873592D01*
X196297543Y-99767644D01*
X196387644Y-99677543D01*
X196493592Y-99606751D01*
X196611315Y-99557989D01*
X196736289Y-99533130D01*
X196863711Y-99533130D01*
X196988685Y-99557989D01*
G37*
G36*
X194988685Y-98287989D02*
G01*
X195106408Y-98336751D01*
X195212356Y-98407543D01*
X195302457Y-98497644D01*
X195373249Y-98603592D01*
X195422011Y-98721315D01*
X195446870Y-98846289D01*
X195446870Y-98973711D01*
X195422011Y-99098685D01*
X195373249Y-99216408D01*
X195302457Y-99322356D01*
X195212356Y-99412457D01*
X195106408Y-99483249D01*
X194988685Y-99532011D01*
X194863711Y-99556870D01*
X194736289Y-99556870D01*
X194611315Y-99532011D01*
X194493592Y-99483249D01*
X194387644Y-99412457D01*
X194297543Y-99322356D01*
X194226751Y-99216408D01*
X194177989Y-99098685D01*
X194153130Y-98973711D01*
X194153130Y-98846289D01*
X194177989Y-98721315D01*
X194226751Y-98603592D01*
X194297543Y-98497644D01*
X194387644Y-98407543D01*
X194493592Y-98336751D01*
X194611315Y-98287989D01*
X194736289Y-98263130D01*
X194863711Y-98263130D01*
X194988685Y-98287989D01*
G37*
G36*
X196988685Y-97017989D02*
G01*
X197106408Y-97066751D01*
X197212356Y-97137543D01*
X197302457Y-97227644D01*
X197373249Y-97333592D01*
X197422011Y-97451315D01*
X197446870Y-97576289D01*
X197446870Y-97703711D01*
X197422011Y-97828685D01*
X197373249Y-97946408D01*
X197302457Y-98052356D01*
X197212356Y-98142457D01*
X197106408Y-98213249D01*
X196988685Y-98262011D01*
X196863711Y-98286870D01*
X196736289Y-98286870D01*
X196611315Y-98262011D01*
X196493592Y-98213249D01*
X196387644Y-98142457D01*
X196297543Y-98052356D01*
X196226751Y-97946408D01*
X196177989Y-97828685D01*
X196153130Y-97703711D01*
X196153130Y-97576289D01*
X196177989Y-97451315D01*
X196226751Y-97333592D01*
X196297543Y-97227644D01*
X196387644Y-97137543D01*
X196493592Y-97066751D01*
X196611315Y-97017989D01*
X196736289Y-96993130D01*
X196863711Y-96993130D01*
X196988685Y-97017989D01*
G37*
G36*
X147469134Y-96678806D02*
G01*
X147485355Y-96689645D01*
X147496194Y-96705866D01*
X147500000Y-96725000D01*
X147500000Y-97275000D01*
X147496194Y-97294134D01*
X147485355Y-97310355D01*
X147469134Y-97321194D01*
X147450000Y-97325000D01*
X145950000Y-97325000D01*
X145930866Y-97321194D01*
X145914645Y-97310355D01*
X145903806Y-97294134D01*
X145900000Y-97275000D01*
X145900000Y-96725000D01*
X145903806Y-96705866D01*
X145914645Y-96689645D01*
X145930866Y-96678806D01*
X145950000Y-96675000D01*
X147450000Y-96675000D01*
X147469134Y-96678806D01*
G37*
G36*
X194988685Y-95737989D02*
G01*
X195106408Y-95786751D01*
X195212356Y-95857543D01*
X195302457Y-95947644D01*
X195373249Y-96053592D01*
X195422011Y-96171315D01*
X195446870Y-96296289D01*
X195446870Y-96423711D01*
X195422011Y-96548685D01*
X195373249Y-96666408D01*
X195302457Y-96772356D01*
X195212356Y-96862457D01*
X195106408Y-96933249D01*
X194988685Y-96982011D01*
X194863711Y-97006870D01*
X194736289Y-97006870D01*
X194611315Y-96982011D01*
X194493592Y-96933249D01*
X194387644Y-96862457D01*
X194297543Y-96772356D01*
X194226751Y-96666408D01*
X194177989Y-96548685D01*
X194153130Y-96423711D01*
X194153130Y-96296289D01*
X194177989Y-96171315D01*
X194226751Y-96053592D01*
X194297543Y-95947644D01*
X194387644Y-95857543D01*
X194493592Y-95786751D01*
X194611315Y-95737989D01*
X194736289Y-95713130D01*
X194863711Y-95713130D01*
X194988685Y-95737989D01*
G37*
G36*
X50138496Y-93710064D02*
G01*
X50354891Y-93780375D01*
X50557623Y-93883672D01*
X50741700Y-94017411D01*
X50902589Y-94178300D01*
X51036328Y-94362377D01*
X51139625Y-94565109D01*
X51209936Y-94781504D01*
X51245530Y-95006234D01*
X51245530Y-95233766D01*
X51209936Y-95458496D01*
X51139625Y-95674891D01*
X51036328Y-95877623D01*
X50902589Y-96061700D01*
X50741700Y-96222589D01*
X50557623Y-96356328D01*
X50354891Y-96459625D01*
X50138496Y-96529936D01*
X49913766Y-96565530D01*
X49686234Y-96565530D01*
X49461504Y-96529936D01*
X49245109Y-96459625D01*
X49042377Y-96356328D01*
X48858300Y-96222589D01*
X48697411Y-96061700D01*
X48563672Y-95877623D01*
X48460375Y-95674891D01*
X48390064Y-95458496D01*
X48354470Y-95233766D01*
X48354470Y-95006234D01*
X48390064Y-94781504D01*
X48460375Y-94565109D01*
X48563672Y-94362377D01*
X48697411Y-94178300D01*
X48858300Y-94017411D01*
X49042377Y-93883672D01*
X49245109Y-93780375D01*
X49461504Y-93710064D01*
X49686234Y-93674470D01*
X49913766Y-93674470D01*
X50138496Y-93710064D01*
G37*
G36*
X147469134Y-95678806D02*
G01*
X147485355Y-95689645D01*
X147496194Y-95705866D01*
X147500000Y-95725000D01*
X147500000Y-96275000D01*
X147496194Y-96294134D01*
X147485355Y-96310355D01*
X147469134Y-96321194D01*
X147450000Y-96325000D01*
X145950000Y-96325000D01*
X145930866Y-96321194D01*
X145914645Y-96310355D01*
X145903806Y-96294134D01*
X145900000Y-96275000D01*
X145900000Y-95725000D01*
X145903806Y-95705866D01*
X145914645Y-95689645D01*
X145930866Y-95678806D01*
X145950000Y-95675000D01*
X147450000Y-95675000D01*
X147469134Y-95678806D01*
G37*
G36*
X157669134Y-95678806D02*
G01*
X157685355Y-95689645D01*
X157696194Y-95705866D01*
X157700000Y-95725000D01*
X157700000Y-96275000D01*
X157696194Y-96294134D01*
X157685355Y-96310355D01*
X157669134Y-96321194D01*
X157650000Y-96325000D01*
X156150000Y-96325000D01*
X156130866Y-96321194D01*
X156114645Y-96310355D01*
X156103806Y-96294134D01*
X156100000Y-96275000D01*
X156100000Y-95725000D01*
X156103806Y-95705866D01*
X156114645Y-95689645D01*
X156130866Y-95678806D01*
X156150000Y-95675000D01*
X157650000Y-95675000D01*
X157669134Y-95678806D01*
G37*
G36*
X196988685Y-94467989D02*
G01*
X197106408Y-94516751D01*
X197212356Y-94587543D01*
X197302457Y-94677644D01*
X197373249Y-94783592D01*
X197422011Y-94901315D01*
X197446870Y-95026289D01*
X197446870Y-95153711D01*
X197422011Y-95278685D01*
X197373249Y-95396408D01*
X197302457Y-95502356D01*
X197212356Y-95592457D01*
X197106408Y-95663249D01*
X196988685Y-95712011D01*
X196863711Y-95736870D01*
X196736289Y-95736870D01*
X196611315Y-95712011D01*
X196493592Y-95663249D01*
X196387644Y-95592457D01*
X196297543Y-95502356D01*
X196226751Y-95396408D01*
X196177989Y-95278685D01*
X196153130Y-95153711D01*
X196153130Y-95026289D01*
X196177989Y-94901315D01*
X196226751Y-94783592D01*
X196297543Y-94677644D01*
X196387644Y-94587543D01*
X196493592Y-94516751D01*
X196611315Y-94467989D01*
X196736289Y-94443130D01*
X196863711Y-94443130D01*
X196988685Y-94467989D01*
G37*
G36*
X161706742Y-93186601D02*
G01*
X161860687Y-93250367D01*
X161999234Y-93342941D01*
X162117059Y-93460766D01*
X162209633Y-93599313D01*
X162273399Y-93753258D01*
X162305907Y-93916685D01*
X162305907Y-94083315D01*
X162273399Y-94246742D01*
X162209633Y-94400687D01*
X162117059Y-94539234D01*
X161999234Y-94657059D01*
X161860687Y-94749633D01*
X161706742Y-94813399D01*
X161543315Y-94845907D01*
X161376685Y-94845907D01*
X161213258Y-94813399D01*
X161059313Y-94749633D01*
X160920766Y-94657059D01*
X160802941Y-94539234D01*
X160710367Y-94400687D01*
X160646601Y-94246742D01*
X160614093Y-94083315D01*
X160614093Y-93916685D01*
X160646601Y-93753258D01*
X160710367Y-93599313D01*
X160802941Y-93460766D01*
X160920766Y-93342941D01*
X161059313Y-93250367D01*
X161213258Y-93186601D01*
X161376685Y-93154093D01*
X161543315Y-93154093D01*
X161706742Y-93186601D01*
G37*
G36*
X164246742Y-93186601D02*
G01*
X164400687Y-93250367D01*
X164539234Y-93342941D01*
X164657059Y-93460766D01*
X164749633Y-93599313D01*
X164813399Y-93753258D01*
X164845907Y-93916685D01*
X164845907Y-94083315D01*
X164813399Y-94246742D01*
X164749633Y-94400687D01*
X164657059Y-94539234D01*
X164539234Y-94657059D01*
X164400687Y-94749633D01*
X164246742Y-94813399D01*
X164083315Y-94845907D01*
X163916685Y-94845907D01*
X163753258Y-94813399D01*
X163599313Y-94749633D01*
X163460766Y-94657059D01*
X163342941Y-94539234D01*
X163250367Y-94400687D01*
X163186601Y-94246742D01*
X163154093Y-94083315D01*
X163154093Y-93916685D01*
X163186601Y-93753258D01*
X163250367Y-93599313D01*
X163342941Y-93460766D01*
X163460766Y-93342941D01*
X163599313Y-93250367D01*
X163753258Y-93186601D01*
X163916685Y-93154093D01*
X164083315Y-93154093D01*
X164246742Y-93186601D01*
G37*
G36*
X166786742Y-93186601D02*
G01*
X166940687Y-93250367D01*
X167079234Y-93342941D01*
X167197059Y-93460766D01*
X167289633Y-93599313D01*
X167353399Y-93753258D01*
X167385907Y-93916685D01*
X167385907Y-94083315D01*
X167353399Y-94246742D01*
X167289633Y-94400687D01*
X167197059Y-94539234D01*
X167079234Y-94657059D01*
X166940687Y-94749633D01*
X166786742Y-94813399D01*
X166623315Y-94845907D01*
X166456685Y-94845907D01*
X166293258Y-94813399D01*
X166139313Y-94749633D01*
X166000766Y-94657059D01*
X165882941Y-94539234D01*
X165790367Y-94400687D01*
X165726601Y-94246742D01*
X165694093Y-94083315D01*
X165694093Y-93916685D01*
X165726601Y-93753258D01*
X165790367Y-93599313D01*
X165882941Y-93460766D01*
X166000766Y-93342941D01*
X166139313Y-93250367D01*
X166293258Y-93186601D01*
X166456685Y-93154093D01*
X166623315Y-93154093D01*
X166786742Y-93186601D01*
G37*
G36*
X194988685Y-93197989D02*
G01*
X195106408Y-93246751D01*
X195212356Y-93317543D01*
X195302457Y-93407644D01*
X195373249Y-93513592D01*
X195422011Y-93631315D01*
X195446870Y-93756289D01*
X195446870Y-93883711D01*
X195422011Y-94008685D01*
X195373249Y-94126408D01*
X195302457Y-94232356D01*
X195212356Y-94322457D01*
X195106408Y-94393249D01*
X194988685Y-94442011D01*
X194863711Y-94466870D01*
X194736289Y-94466870D01*
X194611315Y-94442011D01*
X194493592Y-94393249D01*
X194387644Y-94322457D01*
X194297543Y-94232356D01*
X194226751Y-94126408D01*
X194177989Y-94008685D01*
X194153130Y-93883711D01*
X194153130Y-93756289D01*
X194177989Y-93631315D01*
X194226751Y-93513592D01*
X194297543Y-93407644D01*
X194387644Y-93317543D01*
X194493592Y-93246751D01*
X194611315Y-93197989D01*
X194736289Y-93173130D01*
X194863711Y-93173130D01*
X194988685Y-93197989D01*
G37*
G36*
X196988685Y-91927989D02*
G01*
X197106408Y-91976751D01*
X197212356Y-92047543D01*
X197302457Y-92137644D01*
X197373249Y-92243592D01*
X197422011Y-92361315D01*
X197446870Y-92486289D01*
X197446870Y-92613711D01*
X197422011Y-92738685D01*
X197373249Y-92856408D01*
X197302457Y-92962356D01*
X197212356Y-93052457D01*
X197106408Y-93123249D01*
X196988685Y-93172011D01*
X196863711Y-93196870D01*
X196736289Y-93196870D01*
X196611315Y-93172011D01*
X196493592Y-93123249D01*
X196387644Y-93052457D01*
X196297543Y-92962356D01*
X196226751Y-92856408D01*
X196177989Y-92738685D01*
X196153130Y-92613711D01*
X196153130Y-92486289D01*
X196177989Y-92361315D01*
X196226751Y-92243592D01*
X196297543Y-92137644D01*
X196387644Y-92047543D01*
X196493592Y-91976751D01*
X196611315Y-91927989D01*
X196736289Y-91903130D01*
X196863711Y-91903130D01*
X196988685Y-91927989D01*
G37*
G36*
X179119134Y-89203806D02*
G01*
X179135355Y-89214645D01*
X179146194Y-89230866D01*
X179150000Y-89250000D01*
X179150000Y-91750000D01*
X179146194Y-91769134D01*
X179135355Y-91785355D01*
X179119134Y-91796194D01*
X179100000Y-91800000D01*
X177300000Y-91800000D01*
X177280866Y-91796194D01*
X177264645Y-91785355D01*
X177253806Y-91769134D01*
X177250000Y-91750000D01*
X177250000Y-89250000D01*
X177253806Y-89230866D01*
X177264645Y-89214645D01*
X177280866Y-89203806D01*
X177300000Y-89200000D01*
X179100000Y-89200000D01*
X179119134Y-89203806D01*
G37*
G36*
X183319134Y-89203806D02*
G01*
X183335355Y-89214645D01*
X183346194Y-89230866D01*
X183350000Y-89250000D01*
X183350000Y-91750000D01*
X183346194Y-91769134D01*
X183335355Y-91785355D01*
X183319134Y-91796194D01*
X183300000Y-91800000D01*
X181500000Y-91800000D01*
X181480866Y-91796194D01*
X181464645Y-91785355D01*
X181453806Y-91769134D01*
X181450000Y-91750000D01*
X181450000Y-89250000D01*
X181453806Y-89230866D01*
X181464645Y-89214645D01*
X181480866Y-89203806D01*
X181500000Y-89200000D01*
X183300000Y-89200000D01*
X183319134Y-89203806D01*
G37*
G36*
X135419134Y-90053806D02*
G01*
X135435355Y-90064645D01*
X135446194Y-90080866D01*
X135450000Y-90100000D01*
X135450000Y-90900000D01*
X135446194Y-90919134D01*
X135435355Y-90935355D01*
X135419134Y-90946194D01*
X135400000Y-90950000D01*
X134600000Y-90950000D01*
X134580866Y-90946194D01*
X134564645Y-90935355D01*
X134553806Y-90919134D01*
X134550000Y-90900000D01*
X134550000Y-90100000D01*
X134553806Y-90080866D01*
X134564645Y-90064645D01*
X134580866Y-90053806D01*
X134600000Y-90050000D01*
X135400000Y-90050000D01*
X135419134Y-90053806D01*
G37*
G36*
X137019134Y-90053806D02*
G01*
X137035355Y-90064645D01*
X137046194Y-90080866D01*
X137050000Y-90100000D01*
X137050000Y-90900000D01*
X137046194Y-90919134D01*
X137035355Y-90935355D01*
X137019134Y-90946194D01*
X137000000Y-90950000D01*
X136200000Y-90950000D01*
X136180866Y-90946194D01*
X136164645Y-90935355D01*
X136153806Y-90919134D01*
X136150000Y-90900000D01*
X136150000Y-90100000D01*
X136153806Y-90080866D01*
X136164645Y-90064645D01*
X136180866Y-90053806D01*
X136200000Y-90050000D01*
X137000000Y-90050000D01*
X137019134Y-90053806D01*
G37*
G36*
X141419134Y-90053806D02*
G01*
X141435355Y-90064645D01*
X141446194Y-90080866D01*
X141450000Y-90100000D01*
X141450000Y-90900000D01*
X141446194Y-90919134D01*
X141435355Y-90935355D01*
X141419134Y-90946194D01*
X141400000Y-90950000D01*
X140600000Y-90950000D01*
X140580866Y-90946194D01*
X140564645Y-90935355D01*
X140553806Y-90919134D01*
X140550000Y-90900000D01*
X140550000Y-90100000D01*
X140553806Y-90080866D01*
X140564645Y-90064645D01*
X140580866Y-90053806D01*
X140600000Y-90050000D01*
X141400000Y-90050000D01*
X141419134Y-90053806D01*
G37*
G36*
X143019134Y-90053806D02*
G01*
X143035355Y-90064645D01*
X143046194Y-90080866D01*
X143050000Y-90100000D01*
X143050000Y-90900000D01*
X143046194Y-90919134D01*
X143035355Y-90935355D01*
X143019134Y-90946194D01*
X143000000Y-90950000D01*
X142200000Y-90950000D01*
X142180866Y-90946194D01*
X142164645Y-90935355D01*
X142153806Y-90919134D01*
X142150000Y-90900000D01*
X142150000Y-90100000D01*
X142153806Y-90080866D01*
X142164645Y-90064645D01*
X142180866Y-90053806D01*
X142200000Y-90050000D01*
X143000000Y-90050000D01*
X143019134Y-90053806D01*
G37*
G36*
X50138496Y-86090064D02*
G01*
X50354891Y-86160375D01*
X50557623Y-86263672D01*
X50741700Y-86397411D01*
X50902589Y-86558300D01*
X51036328Y-86742377D01*
X51139625Y-86945109D01*
X51209936Y-87161504D01*
X51245530Y-87386234D01*
X51245530Y-87613766D01*
X51209936Y-87838496D01*
X51139625Y-88054891D01*
X51036328Y-88257623D01*
X50902589Y-88441700D01*
X50741700Y-88602589D01*
X50557623Y-88736328D01*
X50354891Y-88839625D01*
X50138496Y-88909936D01*
X49913766Y-88945530D01*
X49686234Y-88945530D01*
X49461504Y-88909936D01*
X49245109Y-88839625D01*
X49042377Y-88736328D01*
X48858300Y-88602589D01*
X48697411Y-88441700D01*
X48563672Y-88257623D01*
X48460375Y-88054891D01*
X48390064Y-87838496D01*
X48354470Y-87613766D01*
X48354470Y-87386234D01*
X48390064Y-87161504D01*
X48460375Y-86945109D01*
X48563672Y-86742377D01*
X48697411Y-86558300D01*
X48858300Y-86397411D01*
X49042377Y-86263672D01*
X49245109Y-86160375D01*
X49461504Y-86090064D01*
X49686234Y-86054470D01*
X49913766Y-86054470D01*
X50138496Y-86090064D01*
G37*
G36*
X136269134Y-87128806D02*
G01*
X136285355Y-87139645D01*
X136296194Y-87155866D01*
X136300000Y-87175000D01*
X136300000Y-87725000D01*
X136296194Y-87744134D01*
X136285355Y-87760355D01*
X136269134Y-87771194D01*
X136250000Y-87775000D01*
X135450000Y-87775000D01*
X135430866Y-87771194D01*
X135414645Y-87760355D01*
X135403806Y-87744134D01*
X135400000Y-87725000D01*
X135400000Y-87175000D01*
X135403806Y-87155866D01*
X135414645Y-87139645D01*
X135430866Y-87128806D01*
X135450000Y-87125000D01*
X136250000Y-87125000D01*
X136269134Y-87128806D01*
G37*
G36*
X108138496Y-84590064D02*
G01*
X108354891Y-84660375D01*
X108557623Y-84763672D01*
X108741700Y-84897411D01*
X108902589Y-85058300D01*
X109036328Y-85242377D01*
X109139625Y-85445109D01*
X109209936Y-85661504D01*
X109245530Y-85886234D01*
X109245530Y-86113766D01*
X109209936Y-86338496D01*
X109139625Y-86554891D01*
X109036328Y-86757623D01*
X108902589Y-86941700D01*
X108741700Y-87102589D01*
X108557623Y-87236328D01*
X108354891Y-87339625D01*
X108138496Y-87409936D01*
X107913766Y-87445530D01*
X107686234Y-87445530D01*
X107461504Y-87409936D01*
X107245109Y-87339625D01*
X107042377Y-87236328D01*
X106858300Y-87102589D01*
X106697411Y-86941700D01*
X106563672Y-86757623D01*
X106460375Y-86554891D01*
X106390064Y-86338496D01*
X106354470Y-86113766D01*
X106354470Y-85886234D01*
X106390064Y-85661504D01*
X106460375Y-85445109D01*
X106563672Y-85242377D01*
X106697411Y-85058300D01*
X106858300Y-84897411D01*
X107042377Y-84763672D01*
X107245109Y-84660375D01*
X107461504Y-84590064D01*
X107686234Y-84554470D01*
X107913766Y-84554470D01*
X108138496Y-84590064D01*
G37*
G36*
X127892885Y-84955056D02*
G01*
X127902918Y-84955056D01*
X127942117Y-84962853D01*
X128045078Y-84979160D01*
X128078200Y-84989922D01*
X128104799Y-84995213D01*
X128142335Y-85010760D01*
X128201762Y-85030070D01*
X128257433Y-85058435D01*
X128294967Y-85073983D01*
X128317517Y-85089050D01*
X128348539Y-85104857D01*
X128432866Y-85166124D01*
X128466113Y-85188339D01*
X128473208Y-85195434D01*
X128481817Y-85201689D01*
X128598310Y-85318182D01*
X128604564Y-85326790D01*
X128611661Y-85333887D01*
X128633878Y-85367138D01*
X128695142Y-85451460D01*
X128710947Y-85482479D01*
X128726017Y-85505033D01*
X128741566Y-85542572D01*
X128769929Y-85598237D01*
X128789235Y-85657657D01*
X128804787Y-85695201D01*
X128810078Y-85721805D01*
X128820839Y-85754921D01*
X128837145Y-85857876D01*
X128844944Y-85897082D01*
X128844944Y-85907114D01*
X128846609Y-85917627D01*
X128846609Y-86082372D01*
X128844944Y-86092884D01*
X128844944Y-86102918D01*
X128837144Y-86142126D01*
X128820839Y-86245078D01*
X128810079Y-86278192D01*
X128804787Y-86304799D01*
X128789234Y-86342346D01*
X128769929Y-86401762D01*
X128741568Y-86457422D01*
X128726017Y-86494967D01*
X128710945Y-86517523D01*
X128695142Y-86548539D01*
X128633887Y-86632849D01*
X128611661Y-86666113D01*
X128604561Y-86673212D01*
X128598310Y-86681817D01*
X128481817Y-86798310D01*
X128473212Y-86804561D01*
X128466113Y-86811661D01*
X128432849Y-86833887D01*
X128348539Y-86895142D01*
X128317523Y-86910945D01*
X128294967Y-86926017D01*
X128257422Y-86941568D01*
X128201762Y-86969929D01*
X128142346Y-86989234D01*
X128104799Y-87004787D01*
X128078192Y-87010079D01*
X128045078Y-87020839D01*
X127942126Y-87037144D01*
X127902918Y-87044944D01*
X127892884Y-87044944D01*
X127882372Y-87046609D01*
X127717628Y-87046609D01*
X127707115Y-87044944D01*
X127697082Y-87044944D01*
X127657874Y-87037145D01*
X127554921Y-87020839D01*
X127521805Y-87010078D01*
X127495201Y-87004787D01*
X127457657Y-86989235D01*
X127398237Y-86969929D01*
X127342572Y-86941566D01*
X127305033Y-86926017D01*
X127282479Y-86910947D01*
X127251460Y-86895142D01*
X127167138Y-86833878D01*
X127133887Y-86811661D01*
X127126790Y-86804564D01*
X127118182Y-86798310D01*
X127001689Y-86681817D01*
X126995434Y-86673208D01*
X126988339Y-86666113D01*
X126966124Y-86632866D01*
X126904857Y-86548539D01*
X126889050Y-86517517D01*
X126873983Y-86494967D01*
X126858435Y-86457433D01*
X126830070Y-86401762D01*
X126810760Y-86342335D01*
X126795213Y-86304799D01*
X126789922Y-86278200D01*
X126779160Y-86245078D01*
X126762853Y-86142117D01*
X126755056Y-86102918D01*
X126755056Y-86092884D01*
X126753391Y-86082372D01*
X126753391Y-85917627D01*
X126755056Y-85907114D01*
X126755056Y-85897082D01*
X126762852Y-85857886D01*
X126779160Y-85754921D01*
X126789922Y-85721797D01*
X126795213Y-85695201D01*
X126810759Y-85657668D01*
X126830070Y-85598237D01*
X126858438Y-85542561D01*
X126873983Y-85505033D01*
X126889048Y-85482486D01*
X126904857Y-85451460D01*
X126966132Y-85367121D01*
X126988339Y-85333887D01*
X126995432Y-85326793D01*
X127001689Y-85318182D01*
X127118182Y-85201689D01*
X127126793Y-85195432D01*
X127133887Y-85188339D01*
X127167121Y-85166132D01*
X127251460Y-85104857D01*
X127282486Y-85089048D01*
X127305033Y-85073983D01*
X127342561Y-85058438D01*
X127398237Y-85030070D01*
X127457668Y-85010759D01*
X127495201Y-84995213D01*
X127521797Y-84989922D01*
X127554921Y-84979160D01*
X127657883Y-84962853D01*
X127697082Y-84955056D01*
X127707115Y-84955056D01*
X127717628Y-84953391D01*
X127882372Y-84953391D01*
X127892885Y-84955056D01*
G37*
G36*
X138169134Y-86128806D02*
G01*
X138185355Y-86139645D01*
X138196194Y-86155866D01*
X138200000Y-86175000D01*
X138200000Y-86825000D01*
X138196194Y-86844134D01*
X138185355Y-86860355D01*
X138169134Y-86871194D01*
X138150000Y-86875000D01*
X137350000Y-86875000D01*
X137330866Y-86871194D01*
X137314645Y-86860355D01*
X137303806Y-86844134D01*
X137300000Y-86825000D01*
X137300000Y-86175000D01*
X137303806Y-86155866D01*
X137314645Y-86139645D01*
X137330866Y-86128806D01*
X137350000Y-86125000D01*
X138150000Y-86125000D01*
X138169134Y-86128806D01*
G37*
G36*
X136269134Y-85228806D02*
G01*
X136285355Y-85239645D01*
X136296194Y-85255866D01*
X136300000Y-85275000D01*
X136300000Y-85825000D01*
X136296194Y-85844134D01*
X136285355Y-85860355D01*
X136269134Y-85871194D01*
X136250000Y-85875000D01*
X135450000Y-85875000D01*
X135430866Y-85871194D01*
X135414645Y-85860355D01*
X135403806Y-85844134D01*
X135400000Y-85825000D01*
X135400000Y-85275000D01*
X135403806Y-85255866D01*
X135414645Y-85239645D01*
X135430866Y-85228806D01*
X135450000Y-85225000D01*
X136250000Y-85225000D01*
X136269134Y-85228806D01*
G37*
G36*
X194988685Y-83827989D02*
G01*
X195106408Y-83876751D01*
X195212356Y-83947543D01*
X195302457Y-84037644D01*
X195373249Y-84143592D01*
X195422011Y-84261315D01*
X195446870Y-84386289D01*
X195446870Y-84513711D01*
X195422011Y-84638685D01*
X195373249Y-84756408D01*
X195302457Y-84862356D01*
X195212356Y-84952457D01*
X195106408Y-85023249D01*
X194988685Y-85072011D01*
X194863711Y-85096870D01*
X194736289Y-85096870D01*
X194611315Y-85072011D01*
X194493592Y-85023249D01*
X194387644Y-84952457D01*
X194297543Y-84862356D01*
X194226751Y-84756408D01*
X194177989Y-84638685D01*
X194153130Y-84513711D01*
X194153130Y-84386289D01*
X194177989Y-84261315D01*
X194226751Y-84143592D01*
X194297543Y-84037644D01*
X194387644Y-83947543D01*
X194493592Y-83876751D01*
X194611315Y-83827989D01*
X194736289Y-83803130D01*
X194863711Y-83803130D01*
X194988685Y-83827989D01*
G37*
G36*
X196988685Y-82557989D02*
G01*
X197106408Y-82606751D01*
X197212356Y-82677543D01*
X197302457Y-82767644D01*
X197373249Y-82873592D01*
X197422011Y-82991315D01*
X197446870Y-83116289D01*
X197446870Y-83243711D01*
X197422011Y-83368685D01*
X197373249Y-83486408D01*
X197302457Y-83592356D01*
X197212356Y-83682457D01*
X197106408Y-83753249D01*
X196988685Y-83802011D01*
X196863711Y-83826870D01*
X196736289Y-83826870D01*
X196611315Y-83802011D01*
X196493592Y-83753249D01*
X196387644Y-83682457D01*
X196297543Y-83592356D01*
X196226751Y-83486408D01*
X196177989Y-83368685D01*
X196153130Y-83243711D01*
X196153130Y-83116289D01*
X196177989Y-82991315D01*
X196226751Y-82873592D01*
X196297543Y-82767644D01*
X196387644Y-82677543D01*
X196493592Y-82606751D01*
X196611315Y-82557989D01*
X196736289Y-82533130D01*
X196863711Y-82533130D01*
X196988685Y-82557989D01*
G37*
G36*
X134619134Y-82053806D02*
G01*
X134635355Y-82064645D01*
X134646194Y-82080866D01*
X134650000Y-82100000D01*
X134650000Y-82900000D01*
X134646194Y-82919134D01*
X134635355Y-82935355D01*
X134619134Y-82946194D01*
X134600000Y-82950000D01*
X133800000Y-82950000D01*
X133780866Y-82946194D01*
X133764645Y-82935355D01*
X133753806Y-82919134D01*
X133750000Y-82900000D01*
X133750000Y-82100000D01*
X133753806Y-82080866D01*
X133764645Y-82064645D01*
X133780866Y-82053806D01*
X133800000Y-82050000D01*
X134600000Y-82050000D01*
X134619134Y-82053806D01*
G37*
G36*
X136219134Y-82053806D02*
G01*
X136235355Y-82064645D01*
X136246194Y-82080866D01*
X136250000Y-82100000D01*
X136250000Y-82900000D01*
X136246194Y-82919134D01*
X136235355Y-82935355D01*
X136219134Y-82946194D01*
X136200000Y-82950000D01*
X135400000Y-82950000D01*
X135380866Y-82946194D01*
X135364645Y-82935355D01*
X135353806Y-82919134D01*
X135350000Y-82900000D01*
X135350000Y-82100000D01*
X135353806Y-82080866D01*
X135364645Y-82064645D01*
X135380866Y-82053806D01*
X135400000Y-82050000D01*
X136200000Y-82050000D01*
X136219134Y-82053806D01*
G37*
G36*
X139419134Y-82053806D02*
G01*
X139435355Y-82064645D01*
X139446194Y-82080866D01*
X139450000Y-82100000D01*
X139450000Y-82900000D01*
X139446194Y-82919134D01*
X139435355Y-82935355D01*
X139419134Y-82946194D01*
X139400000Y-82950000D01*
X138600000Y-82950000D01*
X138580866Y-82946194D01*
X138564645Y-82935355D01*
X138553806Y-82919134D01*
X138550000Y-82900000D01*
X138550000Y-82100000D01*
X138553806Y-82080866D01*
X138564645Y-82064645D01*
X138580866Y-82053806D01*
X138600000Y-82050000D01*
X139400000Y-82050000D01*
X139419134Y-82053806D01*
G37*
G36*
X141019134Y-82053806D02*
G01*
X141035355Y-82064645D01*
X141046194Y-82080866D01*
X141050000Y-82100000D01*
X141050000Y-82900000D01*
X141046194Y-82919134D01*
X141035355Y-82935355D01*
X141019134Y-82946194D01*
X141000000Y-82950000D01*
X140200000Y-82950000D01*
X140180866Y-82946194D01*
X140164645Y-82935355D01*
X140153806Y-82919134D01*
X140150000Y-82900000D01*
X140150000Y-82100000D01*
X140153806Y-82080866D01*
X140164645Y-82064645D01*
X140180866Y-82053806D01*
X140200000Y-82050000D01*
X141000000Y-82050000D01*
X141019134Y-82053806D01*
G37*
G36*
X194988685Y-81287989D02*
G01*
X195106408Y-81336751D01*
X195212356Y-81407543D01*
X195302457Y-81497644D01*
X195373249Y-81603592D01*
X195422011Y-81721315D01*
X195446870Y-81846289D01*
X195446870Y-81973711D01*
X195422011Y-82098685D01*
X195373249Y-82216408D01*
X195302457Y-82322356D01*
X195212356Y-82412457D01*
X195106408Y-82483249D01*
X194988685Y-82532011D01*
X194863711Y-82556870D01*
X194736289Y-82556870D01*
X194611315Y-82532011D01*
X194493592Y-82483249D01*
X194387644Y-82412457D01*
X194297543Y-82322356D01*
X194226751Y-82216408D01*
X194177989Y-82098685D01*
X194153130Y-81973711D01*
X194153130Y-81846289D01*
X194177989Y-81721315D01*
X194226751Y-81603592D01*
X194297543Y-81497644D01*
X194387644Y-81407543D01*
X194493592Y-81336751D01*
X194611315Y-81287989D01*
X194736289Y-81263130D01*
X194863711Y-81263130D01*
X194988685Y-81287989D01*
G37*
G36*
X50138496Y-78470064D02*
G01*
X50354891Y-78540375D01*
X50557623Y-78643672D01*
X50741700Y-78777411D01*
X50902589Y-78938300D01*
X51036328Y-79122377D01*
X51139625Y-79325109D01*
X51209936Y-79541504D01*
X51245530Y-79766234D01*
X51245530Y-79993766D01*
X51209936Y-80218496D01*
X51139625Y-80434891D01*
X51036328Y-80637623D01*
X50902589Y-80821700D01*
X50741700Y-80982589D01*
X50557623Y-81116328D01*
X50354891Y-81219625D01*
X50138496Y-81289936D01*
X49913766Y-81325530D01*
X49686234Y-81325530D01*
X49461504Y-81289936D01*
X49245109Y-81219625D01*
X49042377Y-81116328D01*
X48858300Y-80982589D01*
X48697411Y-80821700D01*
X48563672Y-80637623D01*
X48460375Y-80434891D01*
X48390064Y-80218496D01*
X48354470Y-79993766D01*
X48354470Y-79766234D01*
X48390064Y-79541504D01*
X48460375Y-79325109D01*
X48563672Y-79122377D01*
X48697411Y-78938300D01*
X48858300Y-78777411D01*
X49042377Y-78643672D01*
X49245109Y-78540375D01*
X49461504Y-78470064D01*
X49686234Y-78434470D01*
X49913766Y-78434470D01*
X50138496Y-78470064D01*
G37*
G36*
X196988685Y-80017989D02*
G01*
X197106408Y-80066751D01*
X197212356Y-80137543D01*
X197302457Y-80227644D01*
X197373249Y-80333592D01*
X197422011Y-80451315D01*
X197446870Y-80576289D01*
X197446870Y-80703711D01*
X197422011Y-80828685D01*
X197373249Y-80946408D01*
X197302457Y-81052356D01*
X197212356Y-81142457D01*
X197106408Y-81213249D01*
X196988685Y-81262011D01*
X196863711Y-81286870D01*
X196736289Y-81286870D01*
X196611315Y-81262011D01*
X196493592Y-81213249D01*
X196387644Y-81142457D01*
X196297543Y-81052356D01*
X196226751Y-80946408D01*
X196177989Y-80828685D01*
X196153130Y-80703711D01*
X196153130Y-80576289D01*
X196177989Y-80451315D01*
X196226751Y-80333592D01*
X196297543Y-80227644D01*
X196387644Y-80137543D01*
X196493592Y-80066751D01*
X196611315Y-80017989D01*
X196736289Y-79993130D01*
X196863711Y-79993130D01*
X196988685Y-80017989D01*
G37*
G36*
X108138496Y-77590064D02*
G01*
X108354891Y-77660375D01*
X108557623Y-77763672D01*
X108741700Y-77897411D01*
X108902589Y-78058300D01*
X109036328Y-78242377D01*
X109139625Y-78445109D01*
X109209936Y-78661504D01*
X109245530Y-78886234D01*
X109245530Y-79113766D01*
X109209936Y-79338496D01*
X109139625Y-79554891D01*
X109036328Y-79757623D01*
X108902589Y-79941700D01*
X108741700Y-80102589D01*
X108557623Y-80236328D01*
X108354891Y-80339625D01*
X108138496Y-80409936D01*
X107913766Y-80445530D01*
X107686234Y-80445530D01*
X107461504Y-80409936D01*
X107245109Y-80339625D01*
X107042377Y-80236328D01*
X106858300Y-80102589D01*
X106697411Y-79941700D01*
X106563672Y-79757623D01*
X106460375Y-79554891D01*
X106390064Y-79338496D01*
X106354470Y-79113766D01*
X106354470Y-78886234D01*
X106390064Y-78661504D01*
X106460375Y-78445109D01*
X106563672Y-78242377D01*
X106697411Y-78058300D01*
X106858300Y-77897411D01*
X107042377Y-77763672D01*
X107245109Y-77660375D01*
X107461504Y-77590064D01*
X107686234Y-77554470D01*
X107913766Y-77554470D01*
X108138496Y-77590064D01*
G37*
G36*
X135619134Y-78853806D02*
G01*
X135635355Y-78864645D01*
X135646194Y-78880866D01*
X135650000Y-78900000D01*
X135650000Y-80100000D01*
X135646194Y-80119134D01*
X135635355Y-80135355D01*
X135619134Y-80146194D01*
X135600000Y-80150000D01*
X134400000Y-80150000D01*
X134380866Y-80146194D01*
X134364645Y-80135355D01*
X134353806Y-80119134D01*
X134350000Y-80100000D01*
X134350000Y-78900000D01*
X134353806Y-78880866D01*
X134364645Y-78864645D01*
X134380866Y-78853806D01*
X134400000Y-78850000D01*
X135600000Y-78850000D01*
X135619134Y-78853806D01*
G37*
G36*
X139219134Y-78853806D02*
G01*
X139235355Y-78864645D01*
X139246194Y-78880866D01*
X139250000Y-78900000D01*
X139250000Y-80100000D01*
X139246194Y-80119134D01*
X139235355Y-80135355D01*
X139219134Y-80146194D01*
X139200000Y-80150000D01*
X138000000Y-80150000D01*
X137980866Y-80146194D01*
X137964645Y-80135355D01*
X137953806Y-80119134D01*
X137950000Y-80100000D01*
X137950000Y-78900000D01*
X137953806Y-78880866D01*
X137964645Y-78864645D01*
X137980866Y-78853806D01*
X138000000Y-78850000D01*
X139200000Y-78850000D01*
X139219134Y-78853806D01*
G37*
G36*
X127892885Y-77955056D02*
G01*
X127902918Y-77955056D01*
X127942117Y-77962853D01*
X128045078Y-77979160D01*
X128078200Y-77989922D01*
X128104799Y-77995213D01*
X128142335Y-78010760D01*
X128201762Y-78030070D01*
X128257433Y-78058435D01*
X128294967Y-78073983D01*
X128317517Y-78089050D01*
X128348539Y-78104857D01*
X128432866Y-78166124D01*
X128466113Y-78188339D01*
X128473208Y-78195434D01*
X128481817Y-78201689D01*
X128598310Y-78318182D01*
X128604564Y-78326790D01*
X128611661Y-78333887D01*
X128633878Y-78367138D01*
X128695142Y-78451460D01*
X128710947Y-78482479D01*
X128726017Y-78505033D01*
X128741566Y-78542572D01*
X128769929Y-78598237D01*
X128789235Y-78657657D01*
X128804787Y-78695201D01*
X128810078Y-78721805D01*
X128820839Y-78754921D01*
X128837145Y-78857876D01*
X128844944Y-78897082D01*
X128844944Y-78907114D01*
X128846609Y-78917627D01*
X128846609Y-79082372D01*
X128844944Y-79092884D01*
X128844944Y-79102918D01*
X128837144Y-79142126D01*
X128820839Y-79245078D01*
X128810079Y-79278192D01*
X128804787Y-79304799D01*
X128789234Y-79342346D01*
X128769929Y-79401762D01*
X128741568Y-79457422D01*
X128726017Y-79494967D01*
X128710945Y-79517523D01*
X128695142Y-79548539D01*
X128633887Y-79632849D01*
X128611661Y-79666113D01*
X128604561Y-79673212D01*
X128598310Y-79681817D01*
X128481817Y-79798310D01*
X128473212Y-79804561D01*
X128466113Y-79811661D01*
X128432849Y-79833887D01*
X128348539Y-79895142D01*
X128317523Y-79910945D01*
X128294967Y-79926017D01*
X128257422Y-79941568D01*
X128201762Y-79969929D01*
X128142346Y-79989234D01*
X128104799Y-80004787D01*
X128078192Y-80010079D01*
X128045078Y-80020839D01*
X127942126Y-80037144D01*
X127902918Y-80044944D01*
X127892884Y-80044944D01*
X127882372Y-80046609D01*
X127717628Y-80046609D01*
X127707115Y-80044944D01*
X127697082Y-80044944D01*
X127657874Y-80037145D01*
X127554921Y-80020839D01*
X127521805Y-80010078D01*
X127495201Y-80004787D01*
X127457657Y-79989235D01*
X127398237Y-79969929D01*
X127342572Y-79941566D01*
X127305033Y-79926017D01*
X127282479Y-79910947D01*
X127251460Y-79895142D01*
X127167138Y-79833878D01*
X127133887Y-79811661D01*
X127126790Y-79804564D01*
X127118182Y-79798310D01*
X127001689Y-79681817D01*
X126995434Y-79673208D01*
X126988339Y-79666113D01*
X126966124Y-79632866D01*
X126904857Y-79548539D01*
X126889050Y-79517517D01*
X126873983Y-79494967D01*
X126858435Y-79457433D01*
X126830070Y-79401762D01*
X126810760Y-79342335D01*
X126795213Y-79304799D01*
X126789922Y-79278200D01*
X126779160Y-79245078D01*
X126762853Y-79142117D01*
X126755056Y-79102918D01*
X126755056Y-79092884D01*
X126753391Y-79082372D01*
X126753391Y-78917627D01*
X126755056Y-78907114D01*
X126755056Y-78897082D01*
X126762852Y-78857886D01*
X126779160Y-78754921D01*
X126789922Y-78721797D01*
X126795213Y-78695201D01*
X126810759Y-78657668D01*
X126830070Y-78598237D01*
X126858438Y-78542561D01*
X126873983Y-78505033D01*
X126889048Y-78482486D01*
X126904857Y-78451460D01*
X126966132Y-78367121D01*
X126988339Y-78333887D01*
X126995432Y-78326793D01*
X127001689Y-78318182D01*
X127118182Y-78201689D01*
X127126793Y-78195432D01*
X127133887Y-78188339D01*
X127167121Y-78166132D01*
X127251460Y-78104857D01*
X127282486Y-78089048D01*
X127305033Y-78073983D01*
X127342561Y-78058438D01*
X127398237Y-78030070D01*
X127457668Y-78010759D01*
X127495201Y-77995213D01*
X127521797Y-77989922D01*
X127554921Y-77979160D01*
X127657883Y-77962853D01*
X127697082Y-77955056D01*
X127707115Y-77955056D01*
X127717628Y-77953391D01*
X127882372Y-77953391D01*
X127892885Y-77955056D01*
G37*
G36*
X194988685Y-78737989D02*
G01*
X195106408Y-78786751D01*
X195212356Y-78857543D01*
X195302457Y-78947644D01*
X195373249Y-79053592D01*
X195422011Y-79171315D01*
X195446870Y-79296289D01*
X195446870Y-79423711D01*
X195422011Y-79548685D01*
X195373249Y-79666408D01*
X195302457Y-79772356D01*
X195212356Y-79862457D01*
X195106408Y-79933249D01*
X194988685Y-79982011D01*
X194863711Y-80006870D01*
X194736289Y-80006870D01*
X194611315Y-79982011D01*
X194493592Y-79933249D01*
X194387644Y-79862457D01*
X194297543Y-79772356D01*
X194226751Y-79666408D01*
X194177989Y-79548685D01*
X194153130Y-79423711D01*
X194153130Y-79296289D01*
X194177989Y-79171315D01*
X194226751Y-79053592D01*
X194297543Y-78947644D01*
X194387644Y-78857543D01*
X194493592Y-78786751D01*
X194611315Y-78737989D01*
X194736289Y-78713130D01*
X194863711Y-78713130D01*
X194988685Y-78737989D01*
G37*
G36*
X175419134Y-79053806D02*
G01*
X175435355Y-79064645D01*
X175446194Y-79080866D01*
X175450000Y-79100000D01*
X175450000Y-79900000D01*
X175446194Y-79919134D01*
X175435355Y-79935355D01*
X175419134Y-79946194D01*
X175400000Y-79950000D01*
X174600000Y-79950000D01*
X174580866Y-79946194D01*
X174564645Y-79935355D01*
X174553806Y-79919134D01*
X174550000Y-79900000D01*
X174550000Y-79100000D01*
X174553806Y-79080866D01*
X174564645Y-79064645D01*
X174580866Y-79053806D01*
X174600000Y-79050000D01*
X175400000Y-79050000D01*
X175419134Y-79053806D01*
G37*
G36*
X177019134Y-79053806D02*
G01*
X177035355Y-79064645D01*
X177046194Y-79080866D01*
X177050000Y-79100000D01*
X177050000Y-79900000D01*
X177046194Y-79919134D01*
X177035355Y-79935355D01*
X177019134Y-79946194D01*
X177000000Y-79950000D01*
X176200000Y-79950000D01*
X176180866Y-79946194D01*
X176164645Y-79935355D01*
X176153806Y-79919134D01*
X176150000Y-79900000D01*
X176150000Y-79100000D01*
X176153806Y-79080866D01*
X176164645Y-79064645D01*
X176180866Y-79053806D01*
X176200000Y-79050000D01*
X177000000Y-79050000D01*
X177019134Y-79053806D01*
G37*
G36*
X181419134Y-79053806D02*
G01*
X181435355Y-79064645D01*
X181446194Y-79080866D01*
X181450000Y-79100000D01*
X181450000Y-79900000D01*
X181446194Y-79919134D01*
X181435355Y-79935355D01*
X181419134Y-79946194D01*
X181400000Y-79950000D01*
X180600000Y-79950000D01*
X180580866Y-79946194D01*
X180564645Y-79935355D01*
X180553806Y-79919134D01*
X180550000Y-79900000D01*
X180550000Y-79100000D01*
X180553806Y-79080866D01*
X180564645Y-79064645D01*
X180580866Y-79053806D01*
X180600000Y-79050000D01*
X181400000Y-79050000D01*
X181419134Y-79053806D01*
G37*
G36*
X183019134Y-79053806D02*
G01*
X183035355Y-79064645D01*
X183046194Y-79080866D01*
X183050000Y-79100000D01*
X183050000Y-79900000D01*
X183046194Y-79919134D01*
X183035355Y-79935355D01*
X183019134Y-79946194D01*
X183000000Y-79950000D01*
X182200000Y-79950000D01*
X182180866Y-79946194D01*
X182164645Y-79935355D01*
X182153806Y-79919134D01*
X182150000Y-79900000D01*
X182150000Y-79100000D01*
X182153806Y-79080866D01*
X182164645Y-79064645D01*
X182180866Y-79053806D01*
X182200000Y-79050000D01*
X183000000Y-79050000D01*
X183019134Y-79053806D01*
G37*
G36*
X196988685Y-77467989D02*
G01*
X197106408Y-77516751D01*
X197212356Y-77587543D01*
X197302457Y-77677644D01*
X197373249Y-77783592D01*
X197422011Y-77901315D01*
X197446870Y-78026289D01*
X197446870Y-78153711D01*
X197422011Y-78278685D01*
X197373249Y-78396408D01*
X197302457Y-78502356D01*
X197212356Y-78592457D01*
X197106408Y-78663249D01*
X196988685Y-78712011D01*
X196863711Y-78736870D01*
X196736289Y-78736870D01*
X196611315Y-78712011D01*
X196493592Y-78663249D01*
X196387644Y-78592457D01*
X196297543Y-78502356D01*
X196226751Y-78396408D01*
X196177989Y-78278685D01*
X196153130Y-78153711D01*
X196153130Y-78026289D01*
X196177989Y-77901315D01*
X196226751Y-77783592D01*
X196297543Y-77677644D01*
X196387644Y-77587543D01*
X196493592Y-77516751D01*
X196611315Y-77467989D01*
X196736289Y-77443130D01*
X196863711Y-77443130D01*
X196988685Y-77467989D01*
G37*
G36*
X194988685Y-76197989D02*
G01*
X195106408Y-76246751D01*
X195212356Y-76317543D01*
X195302457Y-76407644D01*
X195373249Y-76513592D01*
X195422011Y-76631315D01*
X195446870Y-76756289D01*
X195446870Y-76883711D01*
X195422011Y-77008685D01*
X195373249Y-77126408D01*
X195302457Y-77232356D01*
X195212356Y-77322457D01*
X195106408Y-77393249D01*
X194988685Y-77442011D01*
X194863711Y-77466870D01*
X194736289Y-77466870D01*
X194611315Y-77442011D01*
X194493592Y-77393249D01*
X194387644Y-77322457D01*
X194297543Y-77232356D01*
X194226751Y-77126408D01*
X194177989Y-77008685D01*
X194153130Y-76883711D01*
X194153130Y-76756289D01*
X194177989Y-76631315D01*
X194226751Y-76513592D01*
X194297543Y-76407644D01*
X194387644Y-76317543D01*
X194493592Y-76246751D01*
X194611315Y-76197989D01*
X194736289Y-76173130D01*
X194863711Y-76173130D01*
X194988685Y-76197989D01*
G37*
G36*
X196988685Y-74927989D02*
G01*
X197106408Y-74976751D01*
X197212356Y-75047543D01*
X197302457Y-75137644D01*
X197373249Y-75243592D01*
X197422011Y-75361315D01*
X197446870Y-75486289D01*
X197446870Y-75613711D01*
X197422011Y-75738685D01*
X197373249Y-75856408D01*
X197302457Y-75962356D01*
X197212356Y-76052457D01*
X197106408Y-76123249D01*
X196988685Y-76172011D01*
X196863711Y-76196870D01*
X196736289Y-76196870D01*
X196611315Y-76172011D01*
X196493592Y-76123249D01*
X196387644Y-76052457D01*
X196297543Y-75962356D01*
X196226751Y-75856408D01*
X196177989Y-75738685D01*
X196153130Y-75613711D01*
X196153130Y-75486289D01*
X196177989Y-75361315D01*
X196226751Y-75243592D01*
X196297543Y-75137644D01*
X196387644Y-75047543D01*
X196493592Y-74976751D01*
X196611315Y-74927989D01*
X196736289Y-74903130D01*
X196863711Y-74903130D01*
X196988685Y-74927989D01*
G37*
G36*
X175419134Y-74053806D02*
G01*
X175435355Y-74064645D01*
X175446194Y-74080866D01*
X175450000Y-74100000D01*
X175450000Y-74900000D01*
X175446194Y-74919134D01*
X175435355Y-74935355D01*
X175419134Y-74946194D01*
X175400000Y-74950000D01*
X174600000Y-74950000D01*
X174580866Y-74946194D01*
X174564645Y-74935355D01*
X174553806Y-74919134D01*
X174550000Y-74900000D01*
X174550000Y-74100000D01*
X174553806Y-74080866D01*
X174564645Y-74064645D01*
X174580866Y-74053806D01*
X174600000Y-74050000D01*
X175400000Y-74050000D01*
X175419134Y-74053806D01*
G37*
G36*
X177019134Y-74053806D02*
G01*
X177035355Y-74064645D01*
X177046194Y-74080866D01*
X177050000Y-74100000D01*
X177050000Y-74900000D01*
X177046194Y-74919134D01*
X177035355Y-74935355D01*
X177019134Y-74946194D01*
X177000000Y-74950000D01*
X176200000Y-74950000D01*
X176180866Y-74946194D01*
X176164645Y-74935355D01*
X176153806Y-74919134D01*
X176150000Y-74900000D01*
X176150000Y-74100000D01*
X176153806Y-74080866D01*
X176164645Y-74064645D01*
X176180866Y-74053806D01*
X176200000Y-74050000D01*
X177000000Y-74050000D01*
X177019134Y-74053806D01*
G37*
G36*
X181419134Y-74053806D02*
G01*
X181435355Y-74064645D01*
X181446194Y-74080866D01*
X181450000Y-74100000D01*
X181450000Y-74900000D01*
X181446194Y-74919134D01*
X181435355Y-74935355D01*
X181419134Y-74946194D01*
X181400000Y-74950000D01*
X180600000Y-74950000D01*
X180580866Y-74946194D01*
X180564645Y-74935355D01*
X180553806Y-74919134D01*
X180550000Y-74900000D01*
X180550000Y-74100000D01*
X180553806Y-74080866D01*
X180564645Y-74064645D01*
X180580866Y-74053806D01*
X180600000Y-74050000D01*
X181400000Y-74050000D01*
X181419134Y-74053806D01*
G37*
G36*
X183019134Y-74053806D02*
G01*
X183035355Y-74064645D01*
X183046194Y-74080866D01*
X183050000Y-74100000D01*
X183050000Y-74900000D01*
X183046194Y-74919134D01*
X183035355Y-74935355D01*
X183019134Y-74946194D01*
X183000000Y-74950000D01*
X182200000Y-74950000D01*
X182180866Y-74946194D01*
X182164645Y-74935355D01*
X182153806Y-74919134D01*
X182150000Y-74900000D01*
X182150000Y-74100000D01*
X182153806Y-74080866D01*
X182164645Y-74064645D01*
X182180866Y-74053806D01*
X182200000Y-74050000D01*
X183000000Y-74050000D01*
X183019134Y-74053806D01*
G37*
G36*
X71142885Y-70455056D02*
G01*
X71152918Y-70455056D01*
X71192117Y-70462853D01*
X71295078Y-70479160D01*
X71328200Y-70489922D01*
X71354799Y-70495213D01*
X71392335Y-70510760D01*
X71451762Y-70530070D01*
X71507433Y-70558435D01*
X71544967Y-70573983D01*
X71567517Y-70589050D01*
X71598539Y-70604857D01*
X71682866Y-70666124D01*
X71716113Y-70688339D01*
X71723208Y-70695434D01*
X71731817Y-70701689D01*
X71848310Y-70818182D01*
X71854564Y-70826790D01*
X71861661Y-70833887D01*
X71883878Y-70867138D01*
X71945142Y-70951460D01*
X71960947Y-70982479D01*
X71976017Y-71005033D01*
X71991566Y-71042572D01*
X72019929Y-71098237D01*
X72039235Y-71157657D01*
X72054787Y-71195201D01*
X72060078Y-71221805D01*
X72070839Y-71254921D01*
X72087145Y-71357876D01*
X72094944Y-71397082D01*
X72094944Y-71407114D01*
X72096609Y-71417627D01*
X72096609Y-71582372D01*
X72094944Y-71592884D01*
X72094944Y-71602918D01*
X72087144Y-71642126D01*
X72070839Y-71745078D01*
X72060079Y-71778192D01*
X72054787Y-71804799D01*
X72039234Y-71842346D01*
X72019929Y-71901762D01*
X71991568Y-71957422D01*
X71976017Y-71994967D01*
X71960945Y-72017523D01*
X71945142Y-72048539D01*
X71883887Y-72132849D01*
X71861661Y-72166113D01*
X71854561Y-72173212D01*
X71848310Y-72181817D01*
X71731817Y-72298310D01*
X71723212Y-72304561D01*
X71716113Y-72311661D01*
X71682849Y-72333887D01*
X71598539Y-72395142D01*
X71567523Y-72410945D01*
X71544967Y-72426017D01*
X71507422Y-72441568D01*
X71451762Y-72469929D01*
X71392346Y-72489234D01*
X71354799Y-72504787D01*
X71328192Y-72510079D01*
X71295078Y-72520839D01*
X71192126Y-72537144D01*
X71152918Y-72544944D01*
X71142884Y-72544944D01*
X71132372Y-72546609D01*
X70967628Y-72546609D01*
X70957115Y-72544944D01*
X70947082Y-72544944D01*
X70907874Y-72537145D01*
X70804921Y-72520839D01*
X70771805Y-72510078D01*
X70745201Y-72504787D01*
X70707657Y-72489235D01*
X70648237Y-72469929D01*
X70592572Y-72441566D01*
X70555033Y-72426017D01*
X70532479Y-72410947D01*
X70501460Y-72395142D01*
X70417138Y-72333878D01*
X70383887Y-72311661D01*
X70376790Y-72304564D01*
X70368182Y-72298310D01*
X70251689Y-72181817D01*
X70245434Y-72173208D01*
X70238339Y-72166113D01*
X70216124Y-72132866D01*
X70154857Y-72048539D01*
X70139050Y-72017517D01*
X70123983Y-71994967D01*
X70108435Y-71957433D01*
X70080070Y-71901762D01*
X70060760Y-71842335D01*
X70045213Y-71804799D01*
X70039922Y-71778200D01*
X70029160Y-71745078D01*
X70012853Y-71642117D01*
X70005056Y-71602918D01*
X70005056Y-71592884D01*
X70003391Y-71582372D01*
X70003391Y-71417627D01*
X70005056Y-71407114D01*
X70005056Y-71397082D01*
X70012852Y-71357886D01*
X70029160Y-71254921D01*
X70039922Y-71221797D01*
X70045213Y-71195201D01*
X70060759Y-71157668D01*
X70080070Y-71098237D01*
X70108438Y-71042561D01*
X70123983Y-71005033D01*
X70139048Y-70982486D01*
X70154857Y-70951460D01*
X70216132Y-70867121D01*
X70238339Y-70833887D01*
X70245432Y-70826793D01*
X70251689Y-70818182D01*
X70368182Y-70701689D01*
X70376793Y-70695432D01*
X70383887Y-70688339D01*
X70417121Y-70666132D01*
X70501460Y-70604857D01*
X70532486Y-70589048D01*
X70555033Y-70573983D01*
X70592561Y-70558438D01*
X70648237Y-70530070D01*
X70707668Y-70510759D01*
X70745201Y-70495213D01*
X70771797Y-70489922D01*
X70804921Y-70479160D01*
X70907883Y-70462853D01*
X70947082Y-70455056D01*
X70957115Y-70455056D01*
X70967628Y-70453391D01*
X71132372Y-70453391D01*
X71142885Y-70455056D01*
G37*
G36*
X78642885Y-70455056D02*
G01*
X78652918Y-70455056D01*
X78692117Y-70462853D01*
X78795078Y-70479160D01*
X78828200Y-70489922D01*
X78854799Y-70495213D01*
X78892335Y-70510760D01*
X78951762Y-70530070D01*
X79007433Y-70558435D01*
X79044967Y-70573983D01*
X79067517Y-70589050D01*
X79098539Y-70604857D01*
X79182866Y-70666124D01*
X79216113Y-70688339D01*
X79223208Y-70695434D01*
X79231817Y-70701689D01*
X79348310Y-70818182D01*
X79354564Y-70826790D01*
X79361661Y-70833887D01*
X79383878Y-70867138D01*
X79445142Y-70951460D01*
X79460947Y-70982479D01*
X79476017Y-71005033D01*
X79491566Y-71042572D01*
X79519929Y-71098237D01*
X79539235Y-71157657D01*
X79554787Y-71195201D01*
X79560078Y-71221805D01*
X79570839Y-71254921D01*
X79587145Y-71357876D01*
X79594944Y-71397082D01*
X79594944Y-71407114D01*
X79596609Y-71417627D01*
X79596609Y-71582372D01*
X79594944Y-71592884D01*
X79594944Y-71602918D01*
X79587144Y-71642126D01*
X79570839Y-71745078D01*
X79560079Y-71778192D01*
X79554787Y-71804799D01*
X79539234Y-71842346D01*
X79519929Y-71901762D01*
X79491568Y-71957422D01*
X79476017Y-71994967D01*
X79460945Y-72017523D01*
X79445142Y-72048539D01*
X79383887Y-72132849D01*
X79361661Y-72166113D01*
X79354561Y-72173212D01*
X79348310Y-72181817D01*
X79231817Y-72298310D01*
X79223212Y-72304561D01*
X79216113Y-72311661D01*
X79182849Y-72333887D01*
X79098539Y-72395142D01*
X79067523Y-72410945D01*
X79044967Y-72426017D01*
X79007422Y-72441568D01*
X78951762Y-72469929D01*
X78892346Y-72489234D01*
X78854799Y-72504787D01*
X78828192Y-72510079D01*
X78795078Y-72520839D01*
X78692126Y-72537144D01*
X78652918Y-72544944D01*
X78642884Y-72544944D01*
X78632372Y-72546609D01*
X78467628Y-72546609D01*
X78457115Y-72544944D01*
X78447082Y-72544944D01*
X78407874Y-72537145D01*
X78304921Y-72520839D01*
X78271805Y-72510078D01*
X78245201Y-72504787D01*
X78207657Y-72489235D01*
X78148237Y-72469929D01*
X78092572Y-72441566D01*
X78055033Y-72426017D01*
X78032479Y-72410947D01*
X78001460Y-72395142D01*
X77917138Y-72333878D01*
X77883887Y-72311661D01*
X77876790Y-72304564D01*
X77868182Y-72298310D01*
X77751689Y-72181817D01*
X77745434Y-72173208D01*
X77738339Y-72166113D01*
X77716124Y-72132866D01*
X77654857Y-72048539D01*
X77639050Y-72017517D01*
X77623983Y-71994967D01*
X77608435Y-71957433D01*
X77580070Y-71901762D01*
X77560760Y-71842335D01*
X77545213Y-71804799D01*
X77539922Y-71778200D01*
X77529160Y-71745078D01*
X77512853Y-71642117D01*
X77505056Y-71602918D01*
X77505056Y-71592884D01*
X77503391Y-71582372D01*
X77503391Y-71417627D01*
X77505056Y-71407114D01*
X77505056Y-71397082D01*
X77512852Y-71357886D01*
X77529160Y-71254921D01*
X77539922Y-71221797D01*
X77545213Y-71195201D01*
X77560759Y-71157668D01*
X77580070Y-71098237D01*
X77608438Y-71042561D01*
X77623983Y-71005033D01*
X77639048Y-70982486D01*
X77654857Y-70951460D01*
X77716132Y-70867121D01*
X77738339Y-70833887D01*
X77745432Y-70826793D01*
X77751689Y-70818182D01*
X77868182Y-70701689D01*
X77876793Y-70695432D01*
X77883887Y-70688339D01*
X77917121Y-70666132D01*
X78001460Y-70604857D01*
X78032486Y-70589048D01*
X78055033Y-70573983D01*
X78092561Y-70558438D01*
X78148237Y-70530070D01*
X78207668Y-70510759D01*
X78245201Y-70495213D01*
X78271797Y-70489922D01*
X78304921Y-70479160D01*
X78407883Y-70462853D01*
X78447082Y-70455056D01*
X78457115Y-70455056D01*
X78467628Y-70453391D01*
X78632372Y-70453391D01*
X78642885Y-70455056D01*
G37*
G36*
X194892885Y-66955056D02*
G01*
X194902918Y-66955056D01*
X194942117Y-66962853D01*
X195045078Y-66979160D01*
X195078200Y-66989922D01*
X195104799Y-66995213D01*
X195142335Y-67010760D01*
X195201762Y-67030070D01*
X195257433Y-67058435D01*
X195294967Y-67073983D01*
X195317517Y-67089050D01*
X195348539Y-67104857D01*
X195432866Y-67166124D01*
X195466113Y-67188339D01*
X195473208Y-67195434D01*
X195481817Y-67201689D01*
X195598310Y-67318182D01*
X195604564Y-67326790D01*
X195611661Y-67333887D01*
X195633878Y-67367138D01*
X195695142Y-67451460D01*
X195710947Y-67482479D01*
X195726017Y-67505033D01*
X195741566Y-67542572D01*
X195769929Y-67598237D01*
X195789235Y-67657657D01*
X195804787Y-67695201D01*
X195810078Y-67721805D01*
X195820839Y-67754921D01*
X195837145Y-67857876D01*
X195844944Y-67897082D01*
X195844944Y-67907114D01*
X195846609Y-67917627D01*
X195846609Y-68082372D01*
X195844944Y-68092884D01*
X195844944Y-68102918D01*
X195837144Y-68142126D01*
X195820839Y-68245078D01*
X195810079Y-68278192D01*
X195804787Y-68304799D01*
X195789234Y-68342346D01*
X195769929Y-68401762D01*
X195741568Y-68457422D01*
X195726017Y-68494967D01*
X195710945Y-68517523D01*
X195695142Y-68548539D01*
X195633887Y-68632849D01*
X195611661Y-68666113D01*
X195604561Y-68673212D01*
X195598310Y-68681817D01*
X195481817Y-68798310D01*
X195473212Y-68804561D01*
X195466113Y-68811661D01*
X195432849Y-68833887D01*
X195348539Y-68895142D01*
X195317523Y-68910945D01*
X195294967Y-68926017D01*
X195257422Y-68941568D01*
X195201762Y-68969929D01*
X195142346Y-68989234D01*
X195104799Y-69004787D01*
X195078192Y-69010079D01*
X195045078Y-69020839D01*
X194942126Y-69037144D01*
X194902918Y-69044944D01*
X194892884Y-69044944D01*
X194882372Y-69046609D01*
X194717628Y-69046609D01*
X194707115Y-69044944D01*
X194697082Y-69044944D01*
X194657874Y-69037145D01*
X194554921Y-69020839D01*
X194521805Y-69010078D01*
X194495201Y-69004787D01*
X194457657Y-68989235D01*
X194398237Y-68969929D01*
X194342572Y-68941566D01*
X194305033Y-68926017D01*
X194282479Y-68910947D01*
X194251460Y-68895142D01*
X194167138Y-68833878D01*
X194133887Y-68811661D01*
X194126790Y-68804564D01*
X194118182Y-68798310D01*
X194001689Y-68681817D01*
X193995434Y-68673208D01*
X193988339Y-68666113D01*
X193966124Y-68632866D01*
X193904857Y-68548539D01*
X193889050Y-68517517D01*
X193873983Y-68494967D01*
X193858435Y-68457433D01*
X193830070Y-68401762D01*
X193810760Y-68342335D01*
X193795213Y-68304799D01*
X193789922Y-68278200D01*
X193779160Y-68245078D01*
X193762853Y-68142117D01*
X193755056Y-68102918D01*
X193755056Y-68092884D01*
X193753391Y-68082372D01*
X193753391Y-67917627D01*
X193755056Y-67907114D01*
X193755056Y-67897082D01*
X193762852Y-67857886D01*
X193779160Y-67754921D01*
X193789922Y-67721797D01*
X193795213Y-67695201D01*
X193810759Y-67657668D01*
X193830070Y-67598237D01*
X193858438Y-67542561D01*
X193873983Y-67505033D01*
X193889048Y-67482486D01*
X193904857Y-67451460D01*
X193966132Y-67367121D01*
X193988339Y-67333887D01*
X193995432Y-67326793D01*
X194001689Y-67318182D01*
X194118182Y-67201689D01*
X194126793Y-67195432D01*
X194133887Y-67188339D01*
X194167121Y-67166132D01*
X194251460Y-67104857D01*
X194282486Y-67089048D01*
X194305033Y-67073983D01*
X194342561Y-67058438D01*
X194398237Y-67030070D01*
X194457668Y-67010759D01*
X194495201Y-66995213D01*
X194521797Y-66989922D01*
X194554921Y-66979160D01*
X194657883Y-66962853D01*
X194697082Y-66955056D01*
X194707115Y-66955056D01*
X194717628Y-66953391D01*
X194882372Y-66953391D01*
X194892885Y-66955056D01*
G37*
G36*
X81619134Y-64853806D02*
G01*
X81635355Y-64864645D01*
X81646194Y-64880866D01*
X81650000Y-64900000D01*
X81650000Y-66100000D01*
X81646194Y-66119134D01*
X81635355Y-66135355D01*
X81619134Y-66146194D01*
X81600000Y-66150000D01*
X80400000Y-66150000D01*
X80380866Y-66146194D01*
X80364645Y-66135355D01*
X80353806Y-66119134D01*
X80350000Y-66100000D01*
X80350000Y-64900000D01*
X80353806Y-64880866D01*
X80364645Y-64864645D01*
X80380866Y-64853806D01*
X80400000Y-64850000D01*
X81600000Y-64850000D01*
X81619134Y-64853806D01*
G37*
G36*
X85219134Y-64853806D02*
G01*
X85235355Y-64864645D01*
X85246194Y-64880866D01*
X85250000Y-64900000D01*
X85250000Y-66100000D01*
X85246194Y-66119134D01*
X85235355Y-66135355D01*
X85219134Y-66146194D01*
X85200000Y-66150000D01*
X84000000Y-66150000D01*
X83980866Y-66146194D01*
X83964645Y-66135355D01*
X83953806Y-66119134D01*
X83950000Y-66100000D01*
X83950000Y-64900000D01*
X83953806Y-64880866D01*
X83964645Y-64864645D01*
X83980866Y-64853806D01*
X84000000Y-64850000D01*
X85200000Y-64850000D01*
X85219134Y-64853806D01*
G37*
G36*
X194892885Y-63455056D02*
G01*
X194902918Y-63455056D01*
X194942117Y-63462853D01*
X195045078Y-63479160D01*
X195078200Y-63489922D01*
X195104799Y-63495213D01*
X195142335Y-63510760D01*
X195201762Y-63530070D01*
X195257433Y-63558435D01*
X195294967Y-63573983D01*
X195317517Y-63589050D01*
X195348539Y-63604857D01*
X195432866Y-63666124D01*
X195466113Y-63688339D01*
X195473208Y-63695434D01*
X195481817Y-63701689D01*
X195598310Y-63818182D01*
X195604564Y-63826790D01*
X195611661Y-63833887D01*
X195633878Y-63867138D01*
X195695142Y-63951460D01*
X195710947Y-63982479D01*
X195726017Y-64005033D01*
X195741566Y-64042572D01*
X195769929Y-64098237D01*
X195789235Y-64157657D01*
X195804787Y-64195201D01*
X195810078Y-64221805D01*
X195820839Y-64254921D01*
X195837145Y-64357876D01*
X195844944Y-64397082D01*
X195844944Y-64407114D01*
X195846609Y-64417627D01*
X195846609Y-64582372D01*
X195844944Y-64592884D01*
X195844944Y-64602918D01*
X195837144Y-64642126D01*
X195820839Y-64745078D01*
X195810079Y-64778192D01*
X195804787Y-64804799D01*
X195789234Y-64842346D01*
X195769929Y-64901762D01*
X195741568Y-64957422D01*
X195726017Y-64994967D01*
X195710945Y-65017523D01*
X195695142Y-65048539D01*
X195633887Y-65132849D01*
X195611661Y-65166113D01*
X195604561Y-65173212D01*
X195598310Y-65181817D01*
X195481817Y-65298310D01*
X195473212Y-65304561D01*
X195466113Y-65311661D01*
X195432849Y-65333887D01*
X195348539Y-65395142D01*
X195317523Y-65410945D01*
X195294967Y-65426017D01*
X195257422Y-65441568D01*
X195201762Y-65469929D01*
X195142346Y-65489234D01*
X195104799Y-65504787D01*
X195078192Y-65510079D01*
X195045078Y-65520839D01*
X194942126Y-65537144D01*
X194902918Y-65544944D01*
X194892884Y-65544944D01*
X194882372Y-65546609D01*
X194717628Y-65546609D01*
X194707115Y-65544944D01*
X194697082Y-65544944D01*
X194657874Y-65537145D01*
X194554921Y-65520839D01*
X194521805Y-65510078D01*
X194495201Y-65504787D01*
X194457657Y-65489235D01*
X194398237Y-65469929D01*
X194342572Y-65441566D01*
X194305033Y-65426017D01*
X194282479Y-65410947D01*
X194251460Y-65395142D01*
X194167138Y-65333878D01*
X194133887Y-65311661D01*
X194126790Y-65304564D01*
X194118182Y-65298310D01*
X194001689Y-65181817D01*
X193995434Y-65173208D01*
X193988339Y-65166113D01*
X193966124Y-65132866D01*
X193904857Y-65048539D01*
X193889050Y-65017517D01*
X193873983Y-64994967D01*
X193858435Y-64957433D01*
X193830070Y-64901762D01*
X193810760Y-64842335D01*
X193795213Y-64804799D01*
X193789922Y-64778200D01*
X193779160Y-64745078D01*
X193762853Y-64642117D01*
X193755056Y-64602918D01*
X193755056Y-64592884D01*
X193753391Y-64582372D01*
X193753391Y-64417627D01*
X193755056Y-64407114D01*
X193755056Y-64397082D01*
X193762852Y-64357886D01*
X193779160Y-64254921D01*
X193789922Y-64221797D01*
X193795213Y-64195201D01*
X193810759Y-64157668D01*
X193830070Y-64098237D01*
X193858438Y-64042561D01*
X193873983Y-64005033D01*
X193889048Y-63982486D01*
X193904857Y-63951460D01*
X193966132Y-63867121D01*
X193988339Y-63833887D01*
X193995432Y-63826793D01*
X194001689Y-63818182D01*
X194118182Y-63701689D01*
X194126793Y-63695432D01*
X194133887Y-63688339D01*
X194167121Y-63666132D01*
X194251460Y-63604857D01*
X194282486Y-63589048D01*
X194305033Y-63573983D01*
X194342561Y-63558438D01*
X194398237Y-63530070D01*
X194457668Y-63510759D01*
X194495201Y-63495213D01*
X194521797Y-63489922D01*
X194554921Y-63479160D01*
X194657883Y-63462853D01*
X194697082Y-63455056D01*
X194707115Y-63455056D01*
X194717628Y-63453391D01*
X194882372Y-63453391D01*
X194892885Y-63455056D01*
G37*
G36*
X102091807Y-61284538D02*
G01*
X102278354Y-61345151D01*
X102453123Y-61434200D01*
X102611810Y-61549493D01*
X102750507Y-61688190D01*
X102865800Y-61846877D01*
X102954849Y-62021646D01*
X103015462Y-62208193D01*
X103046147Y-62401926D01*
X103046147Y-62598074D01*
X103015462Y-62791807D01*
X102954849Y-62978354D01*
X102865800Y-63153123D01*
X102750507Y-63311810D01*
X102611810Y-63450507D01*
X102453123Y-63565800D01*
X102278354Y-63654849D01*
X102091807Y-63715462D01*
X101898074Y-63746147D01*
X101701926Y-63746147D01*
X101508193Y-63715462D01*
X101321646Y-63654849D01*
X101146877Y-63565800D01*
X100988190Y-63450507D01*
X100849493Y-63311810D01*
X100734200Y-63153123D01*
X100645151Y-62978354D01*
X100584538Y-62791807D01*
X100553853Y-62598074D01*
X100553853Y-62401926D01*
X100584538Y-62208193D01*
X100645151Y-62021646D01*
X100734200Y-61846877D01*
X100849493Y-61688190D01*
X100988190Y-61549493D01*
X101146877Y-61434200D01*
X101321646Y-61345151D01*
X101508193Y-61284538D01*
X101701926Y-61253853D01*
X101898074Y-61253853D01*
X102091807Y-61284538D01*
G37*
G36*
X128091807Y-61284538D02*
G01*
X128278354Y-61345151D01*
X128453123Y-61434200D01*
X128611810Y-61549493D01*
X128750507Y-61688190D01*
X128865800Y-61846877D01*
X128954849Y-62021646D01*
X129015462Y-62208193D01*
X129046147Y-62401926D01*
X129046147Y-62598074D01*
X129015462Y-62791807D01*
X128954849Y-62978354D01*
X128865800Y-63153123D01*
X128750507Y-63311810D01*
X128611810Y-63450507D01*
X128453123Y-63565800D01*
X128278354Y-63654849D01*
X128091807Y-63715462D01*
X127898074Y-63746147D01*
X127701926Y-63746147D01*
X127508193Y-63715462D01*
X127321646Y-63654849D01*
X127146877Y-63565800D01*
X126988190Y-63450507D01*
X126849493Y-63311810D01*
X126734200Y-63153123D01*
X126645151Y-62978354D01*
X126584538Y-62791807D01*
X126553853Y-62598074D01*
X126553853Y-62401926D01*
X126584538Y-62208193D01*
X126645151Y-62021646D01*
X126734200Y-61846877D01*
X126849493Y-61688190D01*
X126988190Y-61549493D01*
X127146877Y-61434200D01*
X127321646Y-61345151D01*
X127508193Y-61284538D01*
X127701926Y-61253853D01*
X127898074Y-61253853D01*
X128091807Y-61284538D01*
G37*
G36*
X194892885Y-59955056D02*
G01*
X194902918Y-59955056D01*
X194942117Y-59962853D01*
X195045078Y-59979160D01*
X195078200Y-59989922D01*
X195104799Y-59995213D01*
X195142335Y-60010760D01*
X195201762Y-60030070D01*
X195257433Y-60058435D01*
X195294967Y-60073983D01*
X195317517Y-60089050D01*
X195348539Y-60104857D01*
X195432866Y-60166124D01*
X195466113Y-60188339D01*
X195473208Y-60195434D01*
X195481817Y-60201689D01*
X195598310Y-60318182D01*
X195604564Y-60326790D01*
X195611661Y-60333887D01*
X195633878Y-60367138D01*
X195695142Y-60451460D01*
X195710947Y-60482479D01*
X195726017Y-60505033D01*
X195741566Y-60542572D01*
X195769929Y-60598237D01*
X195789235Y-60657657D01*
X195804787Y-60695201D01*
X195810078Y-60721805D01*
X195820839Y-60754921D01*
X195837145Y-60857876D01*
X195844944Y-60897082D01*
X195844944Y-60907114D01*
X195846609Y-60917627D01*
X195846609Y-61082372D01*
X195844944Y-61092884D01*
X195844944Y-61102918D01*
X195837144Y-61142126D01*
X195820839Y-61245078D01*
X195810079Y-61278192D01*
X195804787Y-61304799D01*
X195789234Y-61342346D01*
X195769929Y-61401762D01*
X195741568Y-61457422D01*
X195726017Y-61494967D01*
X195710945Y-61517523D01*
X195695142Y-61548539D01*
X195633887Y-61632849D01*
X195611661Y-61666113D01*
X195604561Y-61673212D01*
X195598310Y-61681817D01*
X195481817Y-61798310D01*
X195473212Y-61804561D01*
X195466113Y-61811661D01*
X195432849Y-61833887D01*
X195348539Y-61895142D01*
X195317523Y-61910945D01*
X195294967Y-61926017D01*
X195257422Y-61941568D01*
X195201762Y-61969929D01*
X195142346Y-61989234D01*
X195104799Y-62004787D01*
X195078192Y-62010079D01*
X195045078Y-62020839D01*
X194942126Y-62037144D01*
X194902918Y-62044944D01*
X194892884Y-62044944D01*
X194882372Y-62046609D01*
X194717628Y-62046609D01*
X194707115Y-62044944D01*
X194697082Y-62044944D01*
X194657874Y-62037145D01*
X194554921Y-62020839D01*
X194521805Y-62010078D01*
X194495201Y-62004787D01*
X194457657Y-61989235D01*
X194398237Y-61969929D01*
X194342572Y-61941566D01*
X194305033Y-61926017D01*
X194282479Y-61910947D01*
X194251460Y-61895142D01*
X194167138Y-61833878D01*
X194133887Y-61811661D01*
X194126790Y-61804564D01*
X194118182Y-61798310D01*
X194001689Y-61681817D01*
X193995434Y-61673208D01*
X193988339Y-61666113D01*
X193966124Y-61632866D01*
X193904857Y-61548539D01*
X193889050Y-61517517D01*
X193873983Y-61494967D01*
X193858435Y-61457433D01*
X193830070Y-61401762D01*
X193810760Y-61342335D01*
X193795213Y-61304799D01*
X193789922Y-61278200D01*
X193779160Y-61245078D01*
X193762853Y-61142117D01*
X193755056Y-61102918D01*
X193755056Y-61092884D01*
X193753391Y-61082372D01*
X193753391Y-60917627D01*
X193755056Y-60907114D01*
X193755056Y-60897082D01*
X193762852Y-60857886D01*
X193779160Y-60754921D01*
X193789922Y-60721797D01*
X193795213Y-60695201D01*
X193810759Y-60657668D01*
X193830070Y-60598237D01*
X193858438Y-60542561D01*
X193873983Y-60505033D01*
X193889048Y-60482486D01*
X193904857Y-60451460D01*
X193966132Y-60367121D01*
X193988339Y-60333887D01*
X193995432Y-60326793D01*
X194001689Y-60318182D01*
X194118182Y-60201689D01*
X194126793Y-60195432D01*
X194133887Y-60188339D01*
X194167121Y-60166132D01*
X194251460Y-60104857D01*
X194282486Y-60089048D01*
X194305033Y-60073983D01*
X194342561Y-60058438D01*
X194398237Y-60030070D01*
X194457668Y-60010759D01*
X194495201Y-59995213D01*
X194521797Y-59989922D01*
X194554921Y-59979160D01*
X194657883Y-59962853D01*
X194697082Y-59955056D01*
X194707115Y-59955056D01*
X194717628Y-59953391D01*
X194882372Y-59953391D01*
X194892885Y-59955056D01*
G37*
G36*
X50138496Y-58710064D02*
G01*
X50354891Y-58780375D01*
X50557623Y-58883672D01*
X50741700Y-59017411D01*
X50902589Y-59178300D01*
X51036328Y-59362377D01*
X51139625Y-59565109D01*
X51209936Y-59781504D01*
X51245530Y-60006234D01*
X51245530Y-60233766D01*
X51209936Y-60458496D01*
X51139625Y-60674891D01*
X51036328Y-60877623D01*
X50902589Y-61061700D01*
X50741700Y-61222589D01*
X50557623Y-61356328D01*
X50354891Y-61459625D01*
X50138496Y-61529936D01*
X49913766Y-61565530D01*
X49686234Y-61565530D01*
X49461504Y-61529936D01*
X49245109Y-61459625D01*
X49042377Y-61356328D01*
X48858300Y-61222589D01*
X48697411Y-61061700D01*
X48563672Y-60877623D01*
X48460375Y-60674891D01*
X48390064Y-60458496D01*
X48354470Y-60233766D01*
X48354470Y-60006234D01*
X48390064Y-59781504D01*
X48460375Y-59565109D01*
X48563672Y-59362377D01*
X48697411Y-59178300D01*
X48858300Y-59017411D01*
X49042377Y-58883672D01*
X49245109Y-58780375D01*
X49461504Y-58710064D01*
X49686234Y-58674470D01*
X49913766Y-58674470D01*
X50138496Y-58710064D01*
G37*
G36*
X67869134Y-59653806D02*
G01*
X67885355Y-59664645D01*
X67896194Y-59680866D01*
X67900000Y-59700000D01*
X67900000Y-61300000D01*
X67896194Y-61319134D01*
X67885355Y-61335355D01*
X67869134Y-61346194D01*
X67850000Y-61350000D01*
X66650000Y-61350000D01*
X66630866Y-61346194D01*
X66614645Y-61335355D01*
X66603806Y-61319134D01*
X66600000Y-61300000D01*
X66600000Y-59700000D01*
X66603806Y-59680866D01*
X66614645Y-59664645D01*
X66630866Y-59653806D01*
X66650000Y-59650000D01*
X67850000Y-59650000D01*
X67869134Y-59653806D01*
G37*
G36*
X70969134Y-59653806D02*
G01*
X70985355Y-59664645D01*
X70996194Y-59680866D01*
X71000000Y-59700000D01*
X71000000Y-61300000D01*
X70996194Y-61319134D01*
X70985355Y-61335355D01*
X70969134Y-61346194D01*
X70950000Y-61350000D01*
X69750000Y-61350000D01*
X69730866Y-61346194D01*
X69714645Y-61335355D01*
X69703806Y-61319134D01*
X69700000Y-61300000D01*
X69700000Y-59700000D01*
X69703806Y-59680866D01*
X69714645Y-59664645D01*
X69730866Y-59653806D01*
X69750000Y-59650000D01*
X70950000Y-59650000D01*
X70969134Y-59653806D01*
G37*
G36*
X74869134Y-59653806D02*
G01*
X74885355Y-59664645D01*
X74896194Y-59680866D01*
X74900000Y-59700000D01*
X74900000Y-61300000D01*
X74896194Y-61319134D01*
X74885355Y-61335355D01*
X74869134Y-61346194D01*
X74850000Y-61350000D01*
X73650000Y-61350000D01*
X73630866Y-61346194D01*
X73614645Y-61335355D01*
X73603806Y-61319134D01*
X73600000Y-61300000D01*
X73600000Y-59700000D01*
X73603806Y-59680866D01*
X73614645Y-59664645D01*
X73630866Y-59653806D01*
X73650000Y-59650000D01*
X74850000Y-59650000D01*
X74869134Y-59653806D01*
G37*
G36*
X77969134Y-59653806D02*
G01*
X77985355Y-59664645D01*
X77996194Y-59680866D01*
X78000000Y-59700000D01*
X78000000Y-61300000D01*
X77996194Y-61319134D01*
X77985355Y-61335355D01*
X77969134Y-61346194D01*
X77950000Y-61350000D01*
X76750000Y-61350000D01*
X76730866Y-61346194D01*
X76714645Y-61335355D01*
X76703806Y-61319134D01*
X76700000Y-61300000D01*
X76700000Y-59700000D01*
X76703806Y-59680866D01*
X76714645Y-59664645D01*
X76730866Y-59653806D01*
X76750000Y-59650000D01*
X77950000Y-59650000D01*
X77969134Y-59653806D01*
G37*
G36*
X82369134Y-59853806D02*
G01*
X82385355Y-59864645D01*
X82396194Y-59880866D01*
X82400000Y-59900000D01*
X82400000Y-61100000D01*
X82396194Y-61119134D01*
X82385355Y-61135355D01*
X82369134Y-61146194D01*
X82350000Y-61150000D01*
X81450000Y-61150000D01*
X81430866Y-61146194D01*
X81414645Y-61135355D01*
X81403806Y-61119134D01*
X81400000Y-61100000D01*
X81400000Y-59900000D01*
X81403806Y-59880866D01*
X81414645Y-59864645D01*
X81430866Y-59853806D01*
X81450000Y-59850000D01*
X82350000Y-59850000D01*
X82369134Y-59853806D01*
G37*
G36*
X84169134Y-59853806D02*
G01*
X84185355Y-59864645D01*
X84196194Y-59880866D01*
X84200000Y-59900000D01*
X84200000Y-61100000D01*
X84196194Y-61119134D01*
X84185355Y-61135355D01*
X84169134Y-61146194D01*
X84150000Y-61150000D01*
X83250000Y-61150000D01*
X83230866Y-61146194D01*
X83214645Y-61135355D01*
X83203806Y-61119134D01*
X83200000Y-61100000D01*
X83200000Y-59900000D01*
X83203806Y-59880866D01*
X83214645Y-59864645D01*
X83230866Y-59853806D01*
X83250000Y-59850000D01*
X84150000Y-59850000D01*
X84169134Y-59853806D01*
G37*
G36*
X147019134Y-59953806D02*
G01*
X147035355Y-59964645D01*
X147046194Y-59980866D01*
X147050000Y-60000000D01*
X147050000Y-61000000D01*
X147046194Y-61019134D01*
X147035355Y-61035355D01*
X147019134Y-61046194D01*
X147000000Y-61050000D01*
X145000000Y-61050000D01*
X144980866Y-61046194D01*
X144964645Y-61035355D01*
X144953806Y-61019134D01*
X144950000Y-61000000D01*
X144950000Y-60000000D01*
X144953806Y-59980866D01*
X144964645Y-59964645D01*
X144980866Y-59953806D01*
X145000000Y-59950000D01*
X147000000Y-59950000D01*
X147019134Y-59953806D01*
G37*
G36*
X137619134Y-58753806D02*
G01*
X137635355Y-58764645D01*
X137646194Y-58780866D01*
X137650000Y-58800000D01*
X137650000Y-60800000D01*
X137646194Y-60819134D01*
X137635355Y-60835355D01*
X137619134Y-60846194D01*
X137600000Y-60850000D01*
X136400000Y-60850000D01*
X136380866Y-60846194D01*
X136364645Y-60835355D01*
X136353806Y-60819134D01*
X136350000Y-60800000D01*
X136350000Y-58800000D01*
X136353806Y-58780866D01*
X136364645Y-58764645D01*
X136380866Y-58753806D01*
X136400000Y-58750000D01*
X137600000Y-58750000D01*
X137619134Y-58753806D01*
G37*
G36*
X139919134Y-58753806D02*
G01*
X139935355Y-58764645D01*
X139946194Y-58780866D01*
X139950000Y-58800000D01*
X139950000Y-60800000D01*
X139946194Y-60819134D01*
X139935355Y-60835355D01*
X139919134Y-60846194D01*
X139900000Y-60850000D01*
X138700000Y-60850000D01*
X138680866Y-60846194D01*
X138664645Y-60835355D01*
X138653806Y-60819134D01*
X138650000Y-60800000D01*
X138650000Y-58800000D01*
X138653806Y-58780866D01*
X138664645Y-58764645D01*
X138680866Y-58753806D01*
X138700000Y-58750000D01*
X139900000Y-58750000D01*
X139919134Y-58753806D01*
G37*
G36*
X142219134Y-58753806D02*
G01*
X142235355Y-58764645D01*
X142246194Y-58780866D01*
X142250000Y-58800000D01*
X142250000Y-60800000D01*
X142246194Y-60819134D01*
X142235355Y-60835355D01*
X142219134Y-60846194D01*
X142200000Y-60850000D01*
X141000000Y-60850000D01*
X140980866Y-60846194D01*
X140964645Y-60835355D01*
X140953806Y-60819134D01*
X140950000Y-60800000D01*
X140950000Y-58800000D01*
X140953806Y-58780866D01*
X140964645Y-58764645D01*
X140980866Y-58753806D01*
X141000000Y-58750000D01*
X142200000Y-58750000D01*
X142219134Y-58753806D01*
G37*
G36*
X173019134Y-58953806D02*
G01*
X173035355Y-58964645D01*
X173046194Y-58980866D01*
X173050000Y-59000000D01*
X173050000Y-60000000D01*
X173046194Y-60019134D01*
X173035355Y-60035355D01*
X173019134Y-60046194D01*
X173000000Y-60050000D01*
X171000000Y-60050000D01*
X170980866Y-60046194D01*
X170964645Y-60035355D01*
X170953806Y-60019134D01*
X170950000Y-60000000D01*
X170950000Y-59000000D01*
X170953806Y-58980866D01*
X170964645Y-58964645D01*
X170980866Y-58953806D01*
X171000000Y-58950000D01*
X173000000Y-58950000D01*
X173019134Y-58953806D01*
G37*
G36*
X147019134Y-57453806D02*
G01*
X147035355Y-57464645D01*
X147046194Y-57480866D01*
X147050000Y-57500000D01*
X147050000Y-58500000D01*
X147046194Y-58519134D01*
X147035355Y-58535355D01*
X147019134Y-58546194D01*
X147000000Y-58550000D01*
X145000000Y-58550000D01*
X144980866Y-58546194D01*
X144964645Y-58535355D01*
X144953806Y-58519134D01*
X144950000Y-58500000D01*
X144950000Y-57500000D01*
X144953806Y-57480866D01*
X144964645Y-57464645D01*
X144980866Y-57453806D01*
X145000000Y-57450000D01*
X147000000Y-57450000D01*
X147019134Y-57453806D01*
G37*
G36*
X173019134Y-56453806D02*
G01*
X173035355Y-56464645D01*
X173046194Y-56480866D01*
X173050000Y-56500000D01*
X173050000Y-57500000D01*
X173046194Y-57519134D01*
X173035355Y-57535355D01*
X173019134Y-57546194D01*
X173000000Y-57550000D01*
X171000000Y-57550000D01*
X170980866Y-57546194D01*
X170964645Y-57535355D01*
X170953806Y-57519134D01*
X170950000Y-57500000D01*
X170950000Y-56500000D01*
X170953806Y-56480866D01*
X170964645Y-56464645D01*
X170980866Y-56453806D01*
X171000000Y-56450000D01*
X173000000Y-56450000D01*
X173019134Y-56453806D01*
G37*
G36*
X141069134Y-53903806D02*
G01*
X141085355Y-53914645D01*
X141096194Y-53930866D01*
X141100000Y-53950000D01*
X141100000Y-56450000D01*
X141096194Y-56469134D01*
X141085355Y-56485355D01*
X141069134Y-56496194D01*
X141050000Y-56500000D01*
X137550000Y-56500000D01*
X137530866Y-56496194D01*
X137514645Y-56485355D01*
X137503806Y-56469134D01*
X137500000Y-56450000D01*
X137500000Y-53950000D01*
X137503806Y-53930866D01*
X137514645Y-53914645D01*
X137530866Y-53903806D01*
X137550000Y-53900000D01*
X141050000Y-53900000D01*
X141069134Y-53903806D01*
G37*
G36*
X194892885Y-54205056D02*
G01*
X194902918Y-54205056D01*
X194942117Y-54212853D01*
X195045078Y-54229160D01*
X195078200Y-54239922D01*
X195104799Y-54245213D01*
X195142335Y-54260760D01*
X195201762Y-54280070D01*
X195257433Y-54308435D01*
X195294967Y-54323983D01*
X195317517Y-54339050D01*
X195348539Y-54354857D01*
X195432866Y-54416124D01*
X195466113Y-54438339D01*
X195473208Y-54445434D01*
X195481817Y-54451689D01*
X195598310Y-54568182D01*
X195604564Y-54576790D01*
X195611661Y-54583887D01*
X195633878Y-54617138D01*
X195695142Y-54701460D01*
X195710947Y-54732479D01*
X195726017Y-54755033D01*
X195741566Y-54792572D01*
X195769929Y-54848237D01*
X195789235Y-54907657D01*
X195804787Y-54945201D01*
X195810078Y-54971805D01*
X195820839Y-55004921D01*
X195837145Y-55107876D01*
X195844944Y-55147082D01*
X195844944Y-55157114D01*
X195846609Y-55167627D01*
X195846609Y-55332372D01*
X195844944Y-55342884D01*
X195844944Y-55352918D01*
X195837144Y-55392126D01*
X195820839Y-55495078D01*
X195810079Y-55528192D01*
X195804787Y-55554799D01*
X195789234Y-55592346D01*
X195769929Y-55651762D01*
X195741568Y-55707422D01*
X195726017Y-55744967D01*
X195710945Y-55767523D01*
X195695142Y-55798539D01*
X195633887Y-55882849D01*
X195611661Y-55916113D01*
X195604561Y-55923212D01*
X195598310Y-55931817D01*
X195481817Y-56048310D01*
X195473212Y-56054561D01*
X195466113Y-56061661D01*
X195432849Y-56083887D01*
X195348539Y-56145142D01*
X195317523Y-56160945D01*
X195294967Y-56176017D01*
X195257422Y-56191568D01*
X195201762Y-56219929D01*
X195142346Y-56239234D01*
X195104799Y-56254787D01*
X195078192Y-56260079D01*
X195045078Y-56270839D01*
X194942126Y-56287144D01*
X194902918Y-56294944D01*
X194892884Y-56294944D01*
X194882372Y-56296609D01*
X194717628Y-56296609D01*
X194707115Y-56294944D01*
X194697082Y-56294944D01*
X194657874Y-56287145D01*
X194554921Y-56270839D01*
X194521805Y-56260078D01*
X194495201Y-56254787D01*
X194457657Y-56239235D01*
X194398237Y-56219929D01*
X194342572Y-56191566D01*
X194305033Y-56176017D01*
X194282479Y-56160947D01*
X194251460Y-56145142D01*
X194167138Y-56083878D01*
X194133887Y-56061661D01*
X194126790Y-56054564D01*
X194118182Y-56048310D01*
X194001689Y-55931817D01*
X193995434Y-55923208D01*
X193988339Y-55916113D01*
X193966124Y-55882866D01*
X193904857Y-55798539D01*
X193889050Y-55767517D01*
X193873983Y-55744967D01*
X193858435Y-55707433D01*
X193830070Y-55651762D01*
X193810760Y-55592335D01*
X193795213Y-55554799D01*
X193789922Y-55528200D01*
X193779160Y-55495078D01*
X193762853Y-55392117D01*
X193755056Y-55352918D01*
X193755056Y-55342884D01*
X193753391Y-55332372D01*
X193753391Y-55167627D01*
X193755056Y-55157114D01*
X193755056Y-55147082D01*
X193762852Y-55107886D01*
X193779160Y-55004921D01*
X193789922Y-54971797D01*
X193795213Y-54945201D01*
X193810759Y-54907668D01*
X193830070Y-54848237D01*
X193858438Y-54792561D01*
X193873983Y-54755033D01*
X193889048Y-54732486D01*
X193904857Y-54701460D01*
X193966132Y-54617121D01*
X193988339Y-54583887D01*
X193995432Y-54576793D01*
X194001689Y-54568182D01*
X194118182Y-54451689D01*
X194126793Y-54445432D01*
X194133887Y-54438339D01*
X194167121Y-54416132D01*
X194251460Y-54354857D01*
X194282486Y-54339048D01*
X194305033Y-54323983D01*
X194342561Y-54308438D01*
X194398237Y-54280070D01*
X194457668Y-54260759D01*
X194495201Y-54245213D01*
X194521797Y-54239922D01*
X194554921Y-54229160D01*
X194657883Y-54212853D01*
X194697082Y-54205056D01*
X194707115Y-54205056D01*
X194717628Y-54203391D01*
X194882372Y-54203391D01*
X194892885Y-54205056D01*
G37*
G36*
X147019134Y-54953806D02*
G01*
X147035355Y-54964645D01*
X147046194Y-54980866D01*
X147050000Y-55000000D01*
X147050000Y-56000000D01*
X147046194Y-56019134D01*
X147035355Y-56035355D01*
X147019134Y-56046194D01*
X147000000Y-56050000D01*
X145000000Y-56050000D01*
X144980866Y-56046194D01*
X144964645Y-56035355D01*
X144953806Y-56019134D01*
X144950000Y-56000000D01*
X144950000Y-55000000D01*
X144953806Y-54980866D01*
X144964645Y-54964645D01*
X144980866Y-54953806D01*
X145000000Y-54950000D01*
X147000000Y-54950000D01*
X147019134Y-54953806D01*
G37*
G36*
X173019134Y-53953806D02*
G01*
X173035355Y-53964645D01*
X173046194Y-53980866D01*
X173050000Y-54000000D01*
X173050000Y-55000000D01*
X173046194Y-55019134D01*
X173035355Y-55035355D01*
X173019134Y-55046194D01*
X173000000Y-55050000D01*
X171000000Y-55050000D01*
X170980866Y-55046194D01*
X170964645Y-55035355D01*
X170953806Y-55019134D01*
X170950000Y-55000000D01*
X170950000Y-54000000D01*
X170953806Y-53980866D01*
X170964645Y-53964645D01*
X170980866Y-53953806D01*
X171000000Y-53950000D01*
X173000000Y-53950000D01*
X173019134Y-53953806D01*
G37*
G36*
X50138496Y-51090064D02*
G01*
X50354891Y-51160375D01*
X50557623Y-51263672D01*
X50741700Y-51397411D01*
X50902589Y-51558300D01*
X51036328Y-51742377D01*
X51139625Y-51945109D01*
X51209936Y-52161504D01*
X51245530Y-52386234D01*
X51245530Y-52613766D01*
X51209936Y-52838496D01*
X51139625Y-53054891D01*
X51036328Y-53257623D01*
X50902589Y-53441700D01*
X50741700Y-53602589D01*
X50557623Y-53736328D01*
X50354891Y-53839625D01*
X50138496Y-53909936D01*
X49913766Y-53945530D01*
X49686234Y-53945530D01*
X49461504Y-53909936D01*
X49245109Y-53839625D01*
X49042377Y-53736328D01*
X48858300Y-53602589D01*
X48697411Y-53441700D01*
X48563672Y-53257623D01*
X48460375Y-53054891D01*
X48390064Y-52838496D01*
X48354470Y-52613766D01*
X48354470Y-52386234D01*
X48390064Y-52161504D01*
X48460375Y-51945109D01*
X48563672Y-51742377D01*
X48697411Y-51558300D01*
X48858300Y-51397411D01*
X49042377Y-51263672D01*
X49245109Y-51160375D01*
X49461504Y-51090064D01*
X49686234Y-51054470D01*
X49913766Y-51054470D01*
X50138496Y-51090064D01*
G37*
G36*
X102091807Y-51284538D02*
G01*
X102278354Y-51345151D01*
X102453123Y-51434200D01*
X102611810Y-51549493D01*
X102750507Y-51688190D01*
X102865800Y-51846877D01*
X102954849Y-52021646D01*
X103015462Y-52208193D01*
X103046147Y-52401926D01*
X103046147Y-52598074D01*
X103015462Y-52791807D01*
X102954849Y-52978354D01*
X102865800Y-53153123D01*
X102750507Y-53311810D01*
X102611810Y-53450507D01*
X102453123Y-53565800D01*
X102278354Y-53654849D01*
X102091807Y-53715462D01*
X101898074Y-53746147D01*
X101701926Y-53746147D01*
X101508193Y-53715462D01*
X101321646Y-53654849D01*
X101146877Y-53565800D01*
X100988190Y-53450507D01*
X100849493Y-53311810D01*
X100734200Y-53153123D01*
X100645151Y-52978354D01*
X100584538Y-52791807D01*
X100553853Y-52598074D01*
X100553853Y-52401926D01*
X100584538Y-52208193D01*
X100645151Y-52021646D01*
X100734200Y-51846877D01*
X100849493Y-51688190D01*
X100988190Y-51549493D01*
X101146877Y-51434200D01*
X101321646Y-51345151D01*
X101508193Y-51284538D01*
X101701926Y-51253853D01*
X101898074Y-51253853D01*
X102091807Y-51284538D01*
G37*
G36*
X128091807Y-51284538D02*
G01*
X128278354Y-51345151D01*
X128453123Y-51434200D01*
X128611810Y-51549493D01*
X128750507Y-51688190D01*
X128865800Y-51846877D01*
X128954849Y-52021646D01*
X129015462Y-52208193D01*
X129046147Y-52401926D01*
X129046147Y-52598074D01*
X129015462Y-52791807D01*
X128954849Y-52978354D01*
X128865800Y-53153123D01*
X128750507Y-53311810D01*
X128611810Y-53450507D01*
X128453123Y-53565800D01*
X128278354Y-53654849D01*
X128091807Y-53715462D01*
X127898074Y-53746147D01*
X127701926Y-53746147D01*
X127508193Y-53715462D01*
X127321646Y-53654849D01*
X127146877Y-53565800D01*
X126988190Y-53450507D01*
X126849493Y-53311810D01*
X126734200Y-53153123D01*
X126645151Y-52978354D01*
X126584538Y-52791807D01*
X126553853Y-52598074D01*
X126553853Y-52401926D01*
X126584538Y-52208193D01*
X126645151Y-52021646D01*
X126734200Y-51846877D01*
X126849493Y-51688190D01*
X126988190Y-51549493D01*
X127146877Y-51434200D01*
X127321646Y-51345151D01*
X127508193Y-51284538D01*
X127701926Y-51253853D01*
X127898074Y-51253853D01*
X128091807Y-51284538D01*
G37*
G36*
X147019134Y-52453806D02*
G01*
X147035355Y-52464645D01*
X147046194Y-52480866D01*
X147050000Y-52500000D01*
X147050000Y-53500000D01*
X147046194Y-53519134D01*
X147035355Y-53535355D01*
X147019134Y-53546194D01*
X147000000Y-53550000D01*
X145000000Y-53550000D01*
X144980866Y-53546194D01*
X144964645Y-53535355D01*
X144953806Y-53519134D01*
X144950000Y-53500000D01*
X144950000Y-52500000D01*
X144953806Y-52480866D01*
X144964645Y-52464645D01*
X144980866Y-52453806D01*
X145000000Y-52450000D01*
X147000000Y-52450000D01*
X147019134Y-52453806D01*
G37*
G36*
X176619134Y-51853806D02*
G01*
X176635355Y-51864645D01*
X176646194Y-51880866D01*
X176650000Y-51900000D01*
X176650000Y-53100000D01*
X176646194Y-53119134D01*
X176635355Y-53135355D01*
X176619134Y-53146194D01*
X176600000Y-53150000D01*
X175400000Y-53150000D01*
X175380866Y-53146194D01*
X175364645Y-53135355D01*
X175353806Y-53119134D01*
X175350000Y-53100000D01*
X175350000Y-51900000D01*
X175353806Y-51880866D01*
X175364645Y-51864645D01*
X175380866Y-51853806D01*
X175400000Y-51850000D01*
X176600000Y-51850000D01*
X176619134Y-51853806D01*
G37*
G36*
X180219134Y-51853806D02*
G01*
X180235355Y-51864645D01*
X180246194Y-51880866D01*
X180250000Y-51900000D01*
X180250000Y-53100000D01*
X180246194Y-53119134D01*
X180235355Y-53135355D01*
X180219134Y-53146194D01*
X180200000Y-53150000D01*
X179000000Y-53150000D01*
X178980866Y-53146194D01*
X178964645Y-53135355D01*
X178953806Y-53119134D01*
X178950000Y-53100000D01*
X178950000Y-51900000D01*
X178953806Y-51880866D01*
X178964645Y-51864645D01*
X178980866Y-51853806D01*
X179000000Y-51850000D01*
X180200000Y-51850000D01*
X180219134Y-51853806D01*
G37*
G36*
X194892885Y-50705056D02*
G01*
X194902918Y-50705056D01*
X194942117Y-50712853D01*
X195045078Y-50729160D01*
X195078200Y-50739922D01*
X195104799Y-50745213D01*
X195142335Y-50760760D01*
X195201762Y-50780070D01*
X195257433Y-50808435D01*
X195294967Y-50823983D01*
X195317517Y-50839050D01*
X195348539Y-50854857D01*
X195432866Y-50916124D01*
X195466113Y-50938339D01*
X195473208Y-50945434D01*
X195481817Y-50951689D01*
X195598310Y-51068182D01*
X195604564Y-51076790D01*
X195611661Y-51083887D01*
X195633878Y-51117138D01*
X195695142Y-51201460D01*
X195710947Y-51232479D01*
X195726017Y-51255033D01*
X195741566Y-51292572D01*
X195769929Y-51348237D01*
X195789235Y-51407657D01*
X195804787Y-51445201D01*
X195810078Y-51471805D01*
X195820839Y-51504921D01*
X195837145Y-51607876D01*
X195844944Y-51647082D01*
X195844944Y-51657114D01*
X195846609Y-51667627D01*
X195846609Y-51832372D01*
X195844944Y-51842884D01*
X195844944Y-51852918D01*
X195837144Y-51892126D01*
X195820839Y-51995078D01*
X195810079Y-52028192D01*
X195804787Y-52054799D01*
X195789234Y-52092346D01*
X195769929Y-52151762D01*
X195741568Y-52207422D01*
X195726017Y-52244967D01*
X195710945Y-52267523D01*
X195695142Y-52298539D01*
X195633887Y-52382849D01*
X195611661Y-52416113D01*
X195604561Y-52423212D01*
X195598310Y-52431817D01*
X195481817Y-52548310D01*
X195473212Y-52554561D01*
X195466113Y-52561661D01*
X195432849Y-52583887D01*
X195348539Y-52645142D01*
X195317523Y-52660945D01*
X195294967Y-52676017D01*
X195257422Y-52691568D01*
X195201762Y-52719929D01*
X195142346Y-52739234D01*
X195104799Y-52754787D01*
X195078192Y-52760079D01*
X195045078Y-52770839D01*
X194942126Y-52787144D01*
X194902918Y-52794944D01*
X194892884Y-52794944D01*
X194882372Y-52796609D01*
X194717628Y-52796609D01*
X194707115Y-52794944D01*
X194697082Y-52794944D01*
X194657874Y-52787145D01*
X194554921Y-52770839D01*
X194521805Y-52760078D01*
X194495201Y-52754787D01*
X194457657Y-52739235D01*
X194398237Y-52719929D01*
X194342572Y-52691566D01*
X194305033Y-52676017D01*
X194282479Y-52660947D01*
X194251460Y-52645142D01*
X194167138Y-52583878D01*
X194133887Y-52561661D01*
X194126790Y-52554564D01*
X194118182Y-52548310D01*
X194001689Y-52431817D01*
X193995434Y-52423208D01*
X193988339Y-52416113D01*
X193966124Y-52382866D01*
X193904857Y-52298539D01*
X193889050Y-52267517D01*
X193873983Y-52244967D01*
X193858435Y-52207433D01*
X193830070Y-52151762D01*
X193810760Y-52092335D01*
X193795213Y-52054799D01*
X193789922Y-52028200D01*
X193779160Y-51995078D01*
X193762853Y-51892117D01*
X193755056Y-51852918D01*
X193755056Y-51842884D01*
X193753391Y-51832372D01*
X193753391Y-51667627D01*
X193755056Y-51657114D01*
X193755056Y-51647082D01*
X193762852Y-51607886D01*
X193779160Y-51504921D01*
X193789922Y-51471797D01*
X193795213Y-51445201D01*
X193810759Y-51407668D01*
X193830070Y-51348237D01*
X193858438Y-51292561D01*
X193873983Y-51255033D01*
X193889048Y-51232486D01*
X193904857Y-51201460D01*
X193966132Y-51117121D01*
X193988339Y-51083887D01*
X193995432Y-51076793D01*
X194001689Y-51068182D01*
X194118182Y-50951689D01*
X194126793Y-50945432D01*
X194133887Y-50938339D01*
X194167121Y-50916132D01*
X194251460Y-50854857D01*
X194282486Y-50839048D01*
X194305033Y-50823983D01*
X194342561Y-50808438D01*
X194398237Y-50780070D01*
X194457668Y-50760759D01*
X194495201Y-50745213D01*
X194521797Y-50739922D01*
X194554921Y-50729160D01*
X194657883Y-50712853D01*
X194697082Y-50705056D01*
X194707115Y-50705056D01*
X194717628Y-50703391D01*
X194882372Y-50703391D01*
X194892885Y-50705056D01*
G37*
G36*
X147019134Y-49953806D02*
G01*
X147035355Y-49964645D01*
X147046194Y-49980866D01*
X147050000Y-50000000D01*
X147050000Y-51000000D01*
X147046194Y-51019134D01*
X147035355Y-51035355D01*
X147019134Y-51046194D01*
X147000000Y-51050000D01*
X145000000Y-51050000D01*
X144980866Y-51046194D01*
X144964645Y-51035355D01*
X144953806Y-51019134D01*
X144950000Y-51000000D01*
X144950000Y-50000000D01*
X144953806Y-49980866D01*
X144964645Y-49964645D01*
X144980866Y-49953806D01*
X145000000Y-49950000D01*
X147000000Y-49950000D01*
X147019134Y-49953806D01*
G37*
G36*
X173019134Y-46953806D02*
G01*
X173035355Y-46964645D01*
X173046194Y-46980866D01*
X173050000Y-47000000D01*
X173050000Y-48000000D01*
X173046194Y-48019134D01*
X173035355Y-48035355D01*
X173019134Y-48046194D01*
X173000000Y-48050000D01*
X171000000Y-48050000D01*
X170980866Y-48046194D01*
X170964645Y-48035355D01*
X170953806Y-48019134D01*
X170950000Y-48000000D01*
X170950000Y-47000000D01*
X170953806Y-46980866D01*
X170964645Y-46964645D01*
X170980866Y-46953806D01*
X171000000Y-46950000D01*
X173000000Y-46950000D01*
X173019134Y-46953806D01*
G37*
G36*
X194892885Y-45705056D02*
G01*
X194902918Y-45705056D01*
X194942117Y-45712853D01*
X195045078Y-45729160D01*
X195078200Y-45739922D01*
X195104799Y-45745213D01*
X195142335Y-45760760D01*
X195201762Y-45780070D01*
X195257433Y-45808435D01*
X195294967Y-45823983D01*
X195317517Y-45839050D01*
X195348539Y-45854857D01*
X195432866Y-45916124D01*
X195466113Y-45938339D01*
X195473208Y-45945434D01*
X195481817Y-45951689D01*
X195598310Y-46068182D01*
X195604564Y-46076790D01*
X195611661Y-46083887D01*
X195633878Y-46117138D01*
X195695142Y-46201460D01*
X195710947Y-46232479D01*
X195726017Y-46255033D01*
X195741566Y-46292572D01*
X195769929Y-46348237D01*
X195789235Y-46407657D01*
X195804787Y-46445201D01*
X195810078Y-46471805D01*
X195820839Y-46504921D01*
X195837145Y-46607876D01*
X195844944Y-46647082D01*
X195844944Y-46657114D01*
X195846609Y-46667627D01*
X195846609Y-46832372D01*
X195844944Y-46842884D01*
X195844944Y-46852918D01*
X195837144Y-46892126D01*
X195820839Y-46995078D01*
X195810079Y-47028192D01*
X195804787Y-47054799D01*
X195789234Y-47092346D01*
X195769929Y-47151762D01*
X195741568Y-47207422D01*
X195726017Y-47244967D01*
X195710945Y-47267523D01*
X195695142Y-47298539D01*
X195633887Y-47382849D01*
X195611661Y-47416113D01*
X195604561Y-47423212D01*
X195598310Y-47431817D01*
X195481817Y-47548310D01*
X195473212Y-47554561D01*
X195466113Y-47561661D01*
X195432849Y-47583887D01*
X195348539Y-47645142D01*
X195317523Y-47660945D01*
X195294967Y-47676017D01*
X195257422Y-47691568D01*
X195201762Y-47719929D01*
X195142346Y-47739234D01*
X195104799Y-47754787D01*
X195078192Y-47760079D01*
X195045078Y-47770839D01*
X194942126Y-47787144D01*
X194902918Y-47794944D01*
X194892884Y-47794944D01*
X194882372Y-47796609D01*
X194717628Y-47796609D01*
X194707115Y-47794944D01*
X194697082Y-47794944D01*
X194657874Y-47787145D01*
X194554921Y-47770839D01*
X194521805Y-47760078D01*
X194495201Y-47754787D01*
X194457657Y-47739235D01*
X194398237Y-47719929D01*
X194342572Y-47691566D01*
X194305033Y-47676017D01*
X194282479Y-47660947D01*
X194251460Y-47645142D01*
X194167138Y-47583878D01*
X194133887Y-47561661D01*
X194126790Y-47554564D01*
X194118182Y-47548310D01*
X194001689Y-47431817D01*
X193995434Y-47423208D01*
X193988339Y-47416113D01*
X193966124Y-47382866D01*
X193904857Y-47298539D01*
X193889050Y-47267517D01*
X193873983Y-47244967D01*
X193858435Y-47207433D01*
X193830070Y-47151762D01*
X193810760Y-47092335D01*
X193795213Y-47054799D01*
X193789922Y-47028200D01*
X193779160Y-46995078D01*
X193762853Y-46892117D01*
X193755056Y-46852918D01*
X193755056Y-46842884D01*
X193753391Y-46832372D01*
X193753391Y-46667627D01*
X193755056Y-46657114D01*
X193755056Y-46647082D01*
X193762852Y-46607886D01*
X193779160Y-46504921D01*
X193789922Y-46471797D01*
X193795213Y-46445201D01*
X193810759Y-46407668D01*
X193830070Y-46348237D01*
X193858438Y-46292561D01*
X193873983Y-46255033D01*
X193889048Y-46232486D01*
X193904857Y-46201460D01*
X193966132Y-46117121D01*
X193988339Y-46083887D01*
X193995432Y-46076793D01*
X194001689Y-46068182D01*
X194118182Y-45951689D01*
X194126793Y-45945432D01*
X194133887Y-45938339D01*
X194167121Y-45916132D01*
X194251460Y-45854857D01*
X194282486Y-45839048D01*
X194305033Y-45823983D01*
X194342561Y-45808438D01*
X194398237Y-45780070D01*
X194457668Y-45760759D01*
X194495201Y-45745213D01*
X194521797Y-45739922D01*
X194554921Y-45729160D01*
X194657883Y-45712853D01*
X194697082Y-45705056D01*
X194707115Y-45705056D01*
X194717628Y-45703391D01*
X194882372Y-45703391D01*
X194892885Y-45705056D01*
G37*
G36*
X65161840Y-43372827D02*
G01*
X65393159Y-43447987D01*
X65609873Y-43558408D01*
X65806644Y-43701371D01*
X65978629Y-43873356D01*
X66121592Y-44070127D01*
X66232013Y-44286841D01*
X66307173Y-44518160D01*
X66345222Y-44758388D01*
X66345222Y-45001612D01*
X66307173Y-45241840D01*
X66232013Y-45473159D01*
X66121592Y-45689873D01*
X65978629Y-45886644D01*
X65806644Y-46058629D01*
X65609873Y-46201592D01*
X65393159Y-46312013D01*
X65161840Y-46387173D01*
X64921612Y-46425222D01*
X64678388Y-46425222D01*
X64438160Y-46387173D01*
X64206841Y-46312013D01*
X63990127Y-46201592D01*
X63793356Y-46058629D01*
X63621371Y-45886644D01*
X63478408Y-45689873D01*
X63367987Y-45473159D01*
X63292827Y-45241840D01*
X63254778Y-45001612D01*
X63254778Y-44758388D01*
X63292827Y-44518160D01*
X63367987Y-44286841D01*
X63478408Y-44070127D01*
X63621371Y-43873356D01*
X63793356Y-43701371D01*
X63990127Y-43558408D01*
X64206841Y-43447987D01*
X64438160Y-43372827D01*
X64678388Y-43334778D01*
X64921612Y-43334778D01*
X65161840Y-43372827D01*
G37*
G36*
X85161840Y-43372827D02*
G01*
X85393159Y-43447987D01*
X85609873Y-43558408D01*
X85806644Y-43701371D01*
X85978629Y-43873356D01*
X86121592Y-44070127D01*
X86232013Y-44286841D01*
X86307173Y-44518160D01*
X86345222Y-44758388D01*
X86345222Y-45001612D01*
X86307173Y-45241840D01*
X86232013Y-45473159D01*
X86121592Y-45689873D01*
X85978629Y-45886644D01*
X85806644Y-46058629D01*
X85609873Y-46201592D01*
X85393159Y-46312013D01*
X85161840Y-46387173D01*
X84921612Y-46425222D01*
X84678388Y-46425222D01*
X84438160Y-46387173D01*
X84206841Y-46312013D01*
X83990127Y-46201592D01*
X83793356Y-46058629D01*
X83621371Y-45886644D01*
X83478408Y-45689873D01*
X83367987Y-45473159D01*
X83292827Y-45241840D01*
X83254778Y-45001612D01*
X83254778Y-44758388D01*
X83292827Y-44518160D01*
X83367987Y-44286841D01*
X83478408Y-44070127D01*
X83621371Y-43873356D01*
X83793356Y-43701371D01*
X83990127Y-43558408D01*
X84206841Y-43447987D01*
X84438160Y-43372827D01*
X84678388Y-43334778D01*
X84921612Y-43334778D01*
X85161840Y-43372827D01*
G37*
G36*
X50138496Y-43470064D02*
G01*
X50354891Y-43540375D01*
X50557623Y-43643672D01*
X50741700Y-43777411D01*
X50902589Y-43938300D01*
X51036328Y-44122377D01*
X51139625Y-44325109D01*
X51209936Y-44541504D01*
X51245530Y-44766234D01*
X51245530Y-44993766D01*
X51209936Y-45218496D01*
X51139625Y-45434891D01*
X51036328Y-45637623D01*
X50902589Y-45821700D01*
X50741700Y-45982589D01*
X50557623Y-46116328D01*
X50354891Y-46219625D01*
X50138496Y-46289936D01*
X49913766Y-46325530D01*
X49686234Y-46325530D01*
X49461504Y-46289936D01*
X49245109Y-46219625D01*
X49042377Y-46116328D01*
X48858300Y-45982589D01*
X48697411Y-45821700D01*
X48563672Y-45637623D01*
X48460375Y-45434891D01*
X48390064Y-45218496D01*
X48354470Y-44993766D01*
X48354470Y-44766234D01*
X48390064Y-44541504D01*
X48460375Y-44325109D01*
X48563672Y-44122377D01*
X48697411Y-43938300D01*
X48858300Y-43777411D01*
X49042377Y-43643672D01*
X49245109Y-43540375D01*
X49461504Y-43470064D01*
X49686234Y-43434470D01*
X49913766Y-43434470D01*
X50138496Y-43470064D01*
G37*
G36*
X173019134Y-44453806D02*
G01*
X173035355Y-44464645D01*
X173046194Y-44480866D01*
X173050000Y-44500000D01*
X173050000Y-45500000D01*
X173046194Y-45519134D01*
X173035355Y-45535355D01*
X173019134Y-45546194D01*
X173000000Y-45550000D01*
X171000000Y-45550000D01*
X170980866Y-45546194D01*
X170964645Y-45535355D01*
X170953806Y-45519134D01*
X170950000Y-45500000D01*
X170950000Y-44500000D01*
X170953806Y-44480866D01*
X170964645Y-44464645D01*
X170980866Y-44453806D01*
X171000000Y-44450000D01*
X173000000Y-44450000D01*
X173019134Y-44453806D01*
G37*
G36*
X194892885Y-42205056D02*
G01*
X194902918Y-42205056D01*
X194942117Y-42212853D01*
X195045078Y-42229160D01*
X195078200Y-42239922D01*
X195104799Y-42245213D01*
X195142335Y-42260760D01*
X195201762Y-42280070D01*
X195257433Y-42308435D01*
X195294967Y-42323983D01*
X195317517Y-42339050D01*
X195348539Y-42354857D01*
X195432866Y-42416124D01*
X195466113Y-42438339D01*
X195473208Y-42445434D01*
X195481817Y-42451689D01*
X195598310Y-42568182D01*
X195604564Y-42576790D01*
X195611661Y-42583887D01*
X195633878Y-42617138D01*
X195695142Y-42701460D01*
X195710947Y-42732479D01*
X195726017Y-42755033D01*
X195741566Y-42792572D01*
X195769929Y-42848237D01*
X195789235Y-42907657D01*
X195804787Y-42945201D01*
X195810078Y-42971805D01*
X195820839Y-43004921D01*
X195837145Y-43107876D01*
X195844944Y-43147082D01*
X195844944Y-43157114D01*
X195846609Y-43167627D01*
X195846609Y-43332372D01*
X195844944Y-43342884D01*
X195844944Y-43352918D01*
X195837144Y-43392126D01*
X195820839Y-43495078D01*
X195810079Y-43528192D01*
X195804787Y-43554799D01*
X195789234Y-43592346D01*
X195769929Y-43651762D01*
X195741568Y-43707422D01*
X195726017Y-43744967D01*
X195710945Y-43767523D01*
X195695142Y-43798539D01*
X195633887Y-43882849D01*
X195611661Y-43916113D01*
X195604561Y-43923212D01*
X195598310Y-43931817D01*
X195481817Y-44048310D01*
X195473212Y-44054561D01*
X195466113Y-44061661D01*
X195432849Y-44083887D01*
X195348539Y-44145142D01*
X195317523Y-44160945D01*
X195294967Y-44176017D01*
X195257422Y-44191568D01*
X195201762Y-44219929D01*
X195142346Y-44239234D01*
X195104799Y-44254787D01*
X195078192Y-44260079D01*
X195045078Y-44270839D01*
X194942126Y-44287144D01*
X194902918Y-44294944D01*
X194892884Y-44294944D01*
X194882372Y-44296609D01*
X194717628Y-44296609D01*
X194707115Y-44294944D01*
X194697082Y-44294944D01*
X194657874Y-44287145D01*
X194554921Y-44270839D01*
X194521805Y-44260078D01*
X194495201Y-44254787D01*
X194457657Y-44239235D01*
X194398237Y-44219929D01*
X194342572Y-44191566D01*
X194305033Y-44176017D01*
X194282479Y-44160947D01*
X194251460Y-44145142D01*
X194167138Y-44083878D01*
X194133887Y-44061661D01*
X194126790Y-44054564D01*
X194118182Y-44048310D01*
X194001689Y-43931817D01*
X193995434Y-43923208D01*
X193988339Y-43916113D01*
X193966124Y-43882866D01*
X193904857Y-43798539D01*
X193889050Y-43767517D01*
X193873983Y-43744967D01*
X193858435Y-43707433D01*
X193830070Y-43651762D01*
X193810760Y-43592335D01*
X193795213Y-43554799D01*
X193789922Y-43528200D01*
X193779160Y-43495078D01*
X193762853Y-43392117D01*
X193755056Y-43352918D01*
X193755056Y-43342884D01*
X193753391Y-43332372D01*
X193753391Y-43167627D01*
X193755056Y-43157114D01*
X193755056Y-43147082D01*
X193762852Y-43107886D01*
X193779160Y-43004921D01*
X193789922Y-42971797D01*
X193795213Y-42945201D01*
X193810759Y-42907668D01*
X193830070Y-42848237D01*
X193858438Y-42792561D01*
X193873983Y-42755033D01*
X193889048Y-42732486D01*
X193904857Y-42701460D01*
X193966132Y-42617121D01*
X193988339Y-42583887D01*
X193995432Y-42576793D01*
X194001689Y-42568182D01*
X194118182Y-42451689D01*
X194126793Y-42445432D01*
X194133887Y-42438339D01*
X194167121Y-42416132D01*
X194251460Y-42354857D01*
X194282486Y-42339048D01*
X194305033Y-42323983D01*
X194342561Y-42308438D01*
X194398237Y-42280070D01*
X194457668Y-42260759D01*
X194495201Y-42245213D01*
X194521797Y-42239922D01*
X194554921Y-42229160D01*
X194657883Y-42212853D01*
X194697082Y-42205056D01*
X194707115Y-42205056D01*
X194717628Y-42203391D01*
X194882372Y-42203391D01*
X194892885Y-42205056D01*
G37*
G36*
X173019134Y-41953806D02*
G01*
X173035355Y-41964645D01*
X173046194Y-41980866D01*
X173050000Y-42000000D01*
X173050000Y-43000000D01*
X173046194Y-43019134D01*
X173035355Y-43035355D01*
X173019134Y-43046194D01*
X173000000Y-43050000D01*
X171000000Y-43050000D01*
X170980866Y-43046194D01*
X170964645Y-43035355D01*
X170953806Y-43019134D01*
X170950000Y-43000000D01*
X170950000Y-42000000D01*
X170953806Y-41980866D01*
X170964645Y-41964645D01*
X170980866Y-41953806D01*
X171000000Y-41950000D01*
X173000000Y-41950000D01*
X173019134Y-41953806D01*
G37*
M02*
