%TF.GenerationSoftware,KiCad,Pcbnew,10.0.4*%
%TF.CreationDate,2026-06-25T10:37:25+02:00*%
%TF.ProjectId,pumpengruppe-rs485,70756d70-656e-4677-9275-7070652d7273,A-preliminary*%
%TF.SameCoordinates,Original*%
%TF.FileFunction,Other,User*%
%FSLAX46Y46*%
G04 Gerber Fmt 4.6, Leading zero omitted, Abs format (unit mm)*
G04 Created by KiCad (PCBNEW 10.0.4) date 2026-06-25 10:37:25*
%MOMM*%
%LPD*%
G01*
G04 APERTURE LIST*
%ADD10C,0.120000*%
G04 APERTURE END LIST*
%TO.C,U1*%
D10*
X105000000Y-12000000D02*
X106320000Y-12000000D01*
X106800000Y-12000000D02*
X108120000Y-12000000D01*
X108600000Y-12000000D02*
X109920000Y-12000000D01*
X110400000Y-12000000D02*
X111720000Y-12000000D01*
X112200000Y-12000000D02*
X113520000Y-12000000D01*
X114000000Y-12000000D02*
X115320000Y-12000000D01*
X115800000Y-12000000D02*
X117120000Y-12000000D01*
X117600000Y-12000000D02*
X118920000Y-12000000D01*
X119400000Y-12000000D02*
X120720000Y-12000000D01*
X121200000Y-12000000D02*
X122520000Y-12000000D01*
X123000000Y-12000000D02*
X124320000Y-12000000D01*
X124800000Y-12000000D02*
X126120000Y-12000000D01*
X126600000Y-12000000D02*
X127920000Y-12000000D01*
X128400000Y-12000000D02*
X129720000Y-12000000D01*
X130200000Y-12000000D02*
X131000000Y-12000000D01*
X131000000Y-12000000D02*
X131000000Y-13320000D01*
X131000000Y-13800000D02*
X131000000Y-15120000D01*
X131000000Y-15600000D02*
X131000000Y-16920000D01*
X131000000Y-17400000D02*
X131000000Y-18720000D01*
X131000000Y-19200000D02*
X131000000Y-20520000D01*
X131000000Y-21000000D02*
X131000000Y-22320000D01*
X131000000Y-22800000D02*
X131000000Y-23000000D01*
X131000000Y-23000000D02*
X129680000Y-23000000D01*
X129200000Y-23000000D02*
X127880000Y-23000000D01*
X127400000Y-23000000D02*
X126080000Y-23000000D01*
X125600000Y-23000000D02*
X124280000Y-23000000D01*
X123800000Y-23000000D02*
X122480000Y-23000000D01*
X122000000Y-23000000D02*
X120680000Y-23000000D01*
X120200000Y-23000000D02*
X118880000Y-23000000D01*
X118400000Y-23000000D02*
X117080000Y-23000000D01*
X116600000Y-23000000D02*
X115280000Y-23000000D01*
X114800000Y-23000000D02*
X113480000Y-23000000D01*
X113000000Y-23000000D02*
X111680000Y-23000000D01*
X111200000Y-23000000D02*
X109880000Y-23000000D01*
X109400000Y-23000000D02*
X108080000Y-23000000D01*
X107600000Y-23000000D02*
X106280000Y-23000000D01*
X105800000Y-23000000D02*
X105000000Y-23000000D01*
X105000000Y-23000000D02*
X105000000Y-21680000D01*
X105000000Y-21200000D02*
X105000000Y-19880000D01*
X105000000Y-19400000D02*
X105000000Y-18080000D01*
X105000000Y-17600000D02*
X105000000Y-16280000D01*
X105000000Y-15800000D02*
X105000000Y-14480000D01*
X105000000Y-14000000D02*
X105000000Y-12680000D01*
X105000000Y-12200000D02*
X105000000Y-12000000D01*
%TD*%
M02*
