G04 #@! TF.GenerationSoftware,KiCad,Pcbnew,10.0.4*
G04 #@! TF.CreationDate,2026-07-11T13:27:09+02:00*
G04 #@! TF.ProjectId,pumpengruppe-rs485,70756d70-656e-4677-9275-7070652d7273,A-preliminary*
G04 #@! TF.SameCoordinates,Original*
G04 #@! TF.FileFunction,Copper,L1,Top*
G04 #@! TF.FilePolarity,Positive*
%FSLAX46Y46*%
G04 Gerber Fmt 4.6, Leading zero omitted, Abs format (unit mm)*
G04 Created by KiCad (PCBNEW 10.0.4) date 2026-07-11 13:27:09*
%MOMM*%
%LPD*%
G01*
G04 APERTURE LIST*
G04 Aperture macros list*
%AMRoundRect*
0 Rectangle with rounded corners*
0 $1 Rounding radius*
0 $2 $3 $4 $5 $6 $7 $8 $9 X,Y pos of 4 corners*
0 Add a 4 corners polygon primitive as box body*
4,1,4,$2,$3,$4,$5,$6,$7,$8,$9,$2,$3,0*
0 Add four circle primitives for the rounded corners*
1,1,$1+$1,$2,$3*
1,1,$1+$1,$4,$5*
1,1,$1+$1,$6,$7*
1,1,$1+$1,$8,$9*
0 Add four rect primitives between the rounded corners*
20,1,$1+$1,$2,$3,$4,$5,0*
20,1,$1+$1,$4,$5,$6,$7,0*
20,1,$1+$1,$6,$7,$8,$9,0*
20,1,$1+$1,$8,$9,$2,$3,0*%
G04 Aperture macros list end*
G04 #@! TA.AperFunction,SMDPad,CuDef*
%ADD10RoundRect,0.225000X-0.225000X-0.250000X0.225000X-0.250000X0.225000X0.250000X-0.225000X0.250000X0*%
G04 #@! TD*
G04 #@! TA.AperFunction,SMDPad,CuDef*
%ADD11RoundRect,0.150000X-0.825000X-0.150000X0.825000X-0.150000X0.825000X0.150000X-0.825000X0.150000X0*%
G04 #@! TD*
G04 #@! TA.AperFunction,SMDPad,CuDef*
%ADD12RoundRect,0.375000X-0.375000X0.625000X-0.375000X-0.625000X0.375000X-0.625000X0.375000X0.625000X0*%
G04 #@! TD*
G04 #@! TA.AperFunction,SMDPad,CuDef*
%ADD13RoundRect,0.500000X-1.400000X0.500000X-1.400000X-0.500000X1.400000X-0.500000X1.400000X0.500000X0*%
G04 #@! TD*
G04 #@! TA.AperFunction,SMDPad,CuDef*
%ADD14R,1.600000X0.850000*%
G04 #@! TD*
G04 #@! TA.AperFunction,SMDPad,CuDef*
%ADD15RoundRect,0.200000X-0.200000X-0.275000X0.200000X-0.275000X0.200000X0.275000X-0.200000X0.275000X0*%
G04 #@! TD*
G04 #@! TA.AperFunction,ComponentPad*
%ADD16C,2.400000*%
G04 #@! TD*
G04 #@! TA.AperFunction,ComponentPad*
%ADD17RoundRect,0.550000X-0.550000X0.550000X-0.550000X-0.550000X0.550000X-0.550000X0.550000X0.550000X0*%
G04 #@! TD*
G04 #@! TA.AperFunction,ComponentPad*
%ADD18C,2.200000*%
G04 #@! TD*
G04 #@! TA.AperFunction,ComponentPad*
%ADD19RoundRect,0.250000X-0.600000X-0.750000X0.600000X-0.750000X0.600000X0.750000X-0.600000X0.750000X0*%
G04 #@! TD*
G04 #@! TA.AperFunction,ComponentPad*
%ADD20O,1.700000X2.000000*%
G04 #@! TD*
G04 #@! TA.AperFunction,ComponentPad*
%ADD21C,2.000000*%
G04 #@! TD*
G04 #@! TA.AperFunction,SMDPad,CuDef*
%ADD22RoundRect,0.200000X0.200000X0.275000X-0.200000X0.275000X-0.200000X-0.275000X0.200000X-0.275000X0*%
G04 #@! TD*
G04 #@! TA.AperFunction,ComponentPad*
%ADD23R,1.700000X1.700000*%
G04 #@! TD*
G04 #@! TA.AperFunction,ComponentPad*
%ADD24C,1.700000*%
G04 #@! TD*
G04 #@! TA.AperFunction,SMDPad,CuDef*
%ADD25RoundRect,0.250000X0.312500X0.625000X-0.312500X0.625000X-0.312500X-0.625000X0.312500X-0.625000X0*%
G04 #@! TD*
G04 #@! TA.AperFunction,SMDPad,CuDef*
%ADD26RoundRect,0.250000X0.312500X1.450000X-0.312500X1.450000X-0.312500X-1.450000X0.312500X-1.450000X0*%
G04 #@! TD*
G04 #@! TA.AperFunction,SMDPad,CuDef*
%ADD27RoundRect,0.225000X-0.225000X-0.375000X0.225000X-0.375000X0.225000X0.375000X-0.225000X0.375000X0*%
G04 #@! TD*
G04 #@! TA.AperFunction,SMDPad,CuDef*
%ADD28RoundRect,0.150000X-0.587500X-0.150000X0.587500X-0.150000X0.587500X0.150000X-0.587500X0.150000X0*%
G04 #@! TD*
G04 #@! TA.AperFunction,SMDPad,CuDef*
%ADD29RoundRect,0.218750X-0.218750X-0.256250X0.218750X-0.256250X0.218750X0.256250X-0.218750X0.256250X0*%
G04 #@! TD*
G04 #@! TA.AperFunction,SMDPad,CuDef*
%ADD30RoundRect,0.243750X0.456250X-0.243750X0.456250X0.243750X-0.456250X0.243750X-0.456250X-0.243750X0*%
G04 #@! TD*
G04 #@! TA.AperFunction,SMDPad,CuDef*
%ADD31RoundRect,0.225000X-0.375000X0.225000X-0.375000X-0.225000X0.375000X-0.225000X0.375000X0.225000X0*%
G04 #@! TD*
G04 #@! TA.AperFunction,ComponentPad*
%ADD32C,1.800000*%
G04 #@! TD*
G04 #@! TA.AperFunction,SMDPad,CuDef*
%ADD33RoundRect,0.200000X0.275000X-0.200000X0.275000X0.200000X-0.275000X0.200000X-0.275000X-0.200000X0*%
G04 #@! TD*
G04 #@! TA.AperFunction,ComponentPad*
%ADD34C,3.000000*%
G04 #@! TD*
G04 #@! TA.AperFunction,ComponentPad*
%ADD35C,2.500000*%
G04 #@! TD*
G04 #@! TA.AperFunction,SMDPad,CuDef*
%ADD36R,1.500000X0.900000*%
G04 #@! TD*
G04 #@! TA.AperFunction,SMDPad,CuDef*
%ADD37R,0.900000X1.500000*%
G04 #@! TD*
G04 #@! TA.AperFunction,HeatsinkPad*
%ADD38C,0.600000*%
G04 #@! TD*
G04 #@! TA.AperFunction,HeatsinkPad*
%ADD39R,3.900000X3.900000*%
G04 #@! TD*
G04 #@! TA.AperFunction,HeatsinkPad*
%ADD40C,0.762000*%
G04 #@! TD*
G04 #@! TA.AperFunction,SMDPad,CuDef*
%ADD41RoundRect,0.150000X0.575000X-0.150000X0.575000X0.150000X-0.575000X0.150000X-0.575000X-0.150000X0*%
G04 #@! TD*
G04 #@! TA.AperFunction,SMDPad,CuDef*
%ADD42RoundRect,0.075000X0.650000X-0.075000X0.650000X0.075000X-0.650000X0.075000X-0.650000X-0.075000X0*%
G04 #@! TD*
G04 #@! TA.AperFunction,ComponentPad*
%ADD43O,2.100000X1.000000*%
G04 #@! TD*
G04 #@! TA.AperFunction,ComponentPad*
%ADD44O,1.600000X1.000000*%
G04 #@! TD*
G04 #@! TA.AperFunction,SMDPad,CuDef*
%ADD45RoundRect,0.100000X0.850000X0.100000X-0.850000X0.100000X-0.850000X-0.100000X0.850000X-0.100000X0*%
G04 #@! TD*
G04 #@! TA.AperFunction,ComponentPad*
%ADD46R,1.500000X1.500000*%
G04 #@! TD*
G04 #@! TA.AperFunction,ComponentPad*
%ADD47C,1.500000*%
G04 #@! TD*
G04 #@! TA.AperFunction,SMDPad,CuDef*
%ADD48RoundRect,0.500000X-0.500000X-0.500000X0.500000X-0.500000X0.500000X0.500000X-0.500000X0.500000X0*%
G04 #@! TD*
G04 #@! TA.AperFunction,ViaPad*
%ADD49C,0.600000*%
G04 #@! TD*
G04 #@! TA.AperFunction,Conductor*
%ADD50C,0.800000*%
G04 #@! TD*
G04 #@! TA.AperFunction,Conductor*
%ADD51C,0.200000*%
G04 #@! TD*
G04 #@! TA.AperFunction,Conductor*
%ADD52C,0.400000*%
G04 #@! TD*
G04 #@! TA.AperFunction,Conductor*
%ADD53C,1.500000*%
G04 #@! TD*
G04 APERTURE END LIST*
D10*
G04 #@! TO.P,C81,1*
G04 #@! TO.N,/+5V*
X120475000Y-123225000D03*
G04 #@! TO.P,C81,2*
G04 #@! TO.N,/GND*
X122025000Y-123225000D03*
G04 #@! TD*
D11*
G04 #@! TO.P,U4,1,RO_1*
G04 #@! TO.N,/RS485_UART_RX*
X143025000Y-102595000D03*
G04 #@! TO.P,U4,2,~{RE}_2*
G04 #@! TO.N,/RS485_DE*
X143025000Y-103865000D03*
G04 #@! TO.P,U4,3,DE_3*
X143025000Y-105135000D03*
G04 #@! TO.P,U4,4,DI_4*
G04 #@! TO.N,/RS485_UART_TX*
X143025000Y-106405000D03*
G04 #@! TO.P,U4,5,GND_5*
G04 #@! TO.N,/GND*
X147975000Y-106405000D03*
G04 #@! TO.P,U4,6,A_6*
G04 #@! TO.N,/RS485_A*
X147975000Y-105135000D03*
G04 #@! TO.P,U4,7,B_7*
G04 #@! TO.N,/RS485_B*
X147975000Y-103865000D03*
G04 #@! TO.P,U4,8,VCC_8*
G04 #@! TO.N,/+3V3*
X147975000Y-102595000D03*
G04 #@! TD*
D10*
G04 #@! TO.P,C62,1*
G04 #@! TO.N,/+5V*
X155950000Y-61000000D03*
G04 #@! TO.P,C62,2*
G04 #@! TO.N,/GND*
X157500000Y-61000000D03*
G04 #@! TD*
D12*
G04 #@! TO.P,U5,1,GND_1*
G04 #@! TO.N,/GND*
X105300000Y-38850000D03*
G04 #@! TO.P,U5,2,VO_2*
G04 #@! TO.N,/+3V3*
X103000000Y-38850000D03*
D13*
X103000000Y-45150000D03*
D12*
G04 #@! TO.P,U5,3,VI_3*
G04 #@! TO.N,/+5V*
X100700000Y-38850000D03*
G04 #@! TD*
D14*
G04 #@! TO.P,D77,1,DOUT_1*
G04 #@! TO.N,/RGB_D77_DOUT*
X112500000Y-103150000D03*
G04 #@! TO.P,D77,2,VSS_2*
G04 #@! TO.N,/GND*
X112500000Y-104900000D03*
G04 #@! TO.P,D77,3,DIN_3*
G04 #@! TO.N,/RGB_D76_DOUT*
X116000000Y-104900000D03*
G04 #@! TO.P,D77,4,VDD_4*
G04 #@! TO.N,/+5V*
X116000000Y-103150000D03*
G04 #@! TD*
D15*
G04 #@! TO.P,R90,1*
G04 #@! TO.N,/ESP_IO0_BOOT*
X126175000Y-43500000D03*
G04 #@! TO.P,R90,2*
G04 #@! TO.N,/+3V3*
X127825000Y-43500000D03*
G04 #@! TD*
D16*
G04 #@! TO.P,X1,1,Pin_1_1*
G04 #@! TO.N,/L_IN*
X44900000Y-46820000D03*
G04 #@! TO.P,X1,2,Pin_2_2*
G04 #@! TO.N,/N*
X44900000Y-51900000D03*
G04 #@! TO.P,X1,3,Pin_3_3*
G04 #@! TO.N,/PE*
X44900000Y-56980000D03*
G04 #@! TD*
D17*
G04 #@! TO.P,F1,1*
G04 #@! TO.N,/L_IN*
X59100000Y-50100000D03*
X54100000Y-50100000D03*
D18*
G04 #@! TO.P,F1,2*
G04 #@! TO.N,/L_FUSED*
X59100000Y-67900000D03*
X54100000Y-67900000D03*
G04 #@! TD*
D19*
G04 #@! TO.P,PSU1,1,AC/L*
G04 #@! TO.N,/L_FUSED*
X67100000Y-57300000D03*
D20*
G04 #@! TO.P,PSU1,2,AC/N*
G04 #@! TO.N,/N*
X67100000Y-63300000D03*
G04 #@! TO.P,PSU1,3,-Vout*
G04 #@! TO.N,/GND*
X100700000Y-51300000D03*
G04 #@! TO.P,PSU1,4,+Vout*
G04 #@! TO.N,/+5V*
X100700000Y-69300000D03*
G04 #@! TD*
D16*
G04 #@! TO.P,X2,1,Pin_1_1*
G04 #@! TO.N,/L_PUMP*
X44600000Y-87000000D03*
G04 #@! TO.P,X2,2,Pin_2_2*
G04 #@! TO.N,/N*
X44600000Y-92080000D03*
G04 #@! TO.P,X2,3,Pin_3_3*
G04 #@! TO.N,/PE*
X44600000Y-97160000D03*
G04 #@! TD*
G04 #@! TO.P,X3,1,Pin_1_1*
G04 #@! TO.N,/L_MIX_OPEN*
X44700000Y-108900000D03*
G04 #@! TO.P,X3,2,Pin_2_2*
G04 #@! TO.N,/L_MIX_CLOSE*
X44700000Y-113980000D03*
G04 #@! TO.P,X3,3,Pin_3_3*
G04 #@! TO.N,/PE*
X44700000Y-119060000D03*
G04 #@! TO.P,X3,4,Pin_4_4*
G04 #@! TO.N,/N*
X44700000Y-124140000D03*
G04 #@! TD*
D21*
G04 #@! TO.P,X4,1,Pin_1_1*
G04 #@! TO.N,/RTD_VL_FORCE_PLUS*
X194800000Y-46750000D03*
G04 #@! TO.P,X4,2,Pin_2_2*
G04 #@! TO.N,/RTD_VL_FORCE_MINUS*
X194800000Y-43250000D03*
G04 #@! TD*
G04 #@! TO.P,X5,1,Pin_1_1*
G04 #@! TO.N,/RTD_RL_FORCE_PLUS*
X194800000Y-55250000D03*
G04 #@! TO.P,X5,2,Pin_2_2*
G04 #@! TO.N,/RTD_RL_FORCE_MINUS*
X194800000Y-51750000D03*
G04 #@! TD*
G04 #@! TO.P,J3,1,Pin_1_1*
G04 #@! TO.N,/RS485_A*
X194800000Y-68000000D03*
G04 #@! TO.P,J3,2,Pin_2_2*
G04 #@! TO.N,/RS485_B*
X194800000Y-64500000D03*
G04 #@! TO.P,J3,3,Pin_3_3*
G04 #@! TO.N,/RS485_GND*
X194800000Y-61000000D03*
G04 #@! TD*
G04 #@! TO.P,J4,1,Pin_1_1*
G04 #@! TO.N,/RS485_A*
X194800000Y-115500000D03*
G04 #@! TO.P,J4,2,Pin_2_2*
G04 #@! TO.N,/RS485_B*
X194800000Y-112000000D03*
G04 #@! TO.P,J4,3,Pin_3_3*
G04 #@! TO.N,/RS485_GND*
X194800000Y-108500000D03*
G04 #@! TD*
D22*
G04 #@! TO.P,R1,1,Pin_1_1*
G04 #@! TO.N,/USB_CC1*
X177325000Y-132000000D03*
G04 #@! TO.P,R1,2,Pin_2_2*
G04 #@! TO.N,/GND*
X175675000Y-132000000D03*
G04 #@! TD*
G04 #@! TO.P,R2,1,Pin_1_1*
G04 #@! TO.N,/USB_CC2*
X184525000Y-132000000D03*
G04 #@! TO.P,R2,2,Pin_2_2*
G04 #@! TO.N,/GND*
X182875000Y-132000000D03*
G04 #@! TD*
G04 #@! TO.P,R3,1,Pin_1_1*
G04 #@! TO.N,/RS485_A*
X172325000Y-102000000D03*
G04 #@! TO.P,R3,2,Pin_2_2*
G04 #@! TO.N,/RS485_TERM*
X170675000Y-102000000D03*
G04 #@! TD*
D23*
G04 #@! TO.P,JP1,1,Pin_1_1*
G04 #@! TO.N,/RS485_TERM*
X176100000Y-98900000D03*
D24*
G04 #@! TO.P,JP1,2,Pin_2_2*
G04 #@! TO.N,/RS485_B*
X176100000Y-96360000D03*
G04 #@! TO.P,JP1,3,Pin_3_3*
G04 #@! TO.N,N/C*
X176100000Y-93820000D03*
G04 #@! TD*
D25*
G04 #@! TO.P,R40,1*
G04 #@! TO.N,/L_FUSED*
X74962500Y-41000000D03*
G04 #@! TO.P,R40,2*
G04 #@! TO.N,/MAINS_LED_SERIES*
X72037500Y-41000000D03*
G04 #@! TD*
D26*
G04 #@! TO.P,F2,1*
G04 #@! TO.N,/BUS_5V*
X173137500Y-88500000D03*
G04 #@! TO.P,F2,2*
G04 #@! TO.N,/+5V*
X168862500Y-88500000D03*
G04 #@! TD*
D27*
G04 #@! TO.P,D4,1,K_1*
G04 #@! TO.N,/+5V*
X132350000Y-135800000D03*
G04 #@! TO.P,D4,2,A_2*
G04 #@! TO.N,/USB_VBUS*
X135650000Y-135800000D03*
G04 #@! TD*
D15*
G04 #@! TO.P,R4,1*
G04 #@! TO.N,/PUMP_DRV_GPIO*
X98400000Y-78300000D03*
G04 #@! TO.P,R4,2*
G04 #@! TO.N,/PUMP_DRV*
X100050000Y-78300000D03*
G04 #@! TD*
G04 #@! TO.P,R7,1*
G04 #@! TO.N,/PUMP_DRV*
X103200000Y-78300000D03*
G04 #@! TO.P,R7,2*
G04 #@! TO.N,/GND*
X104850000Y-78300000D03*
G04 #@! TD*
D28*
G04 #@! TO.P,Q1,1,G_1*
G04 #@! TO.N,/PUMP_DRV*
X104162500Y-80550000D03*
G04 #@! TO.P,Q1,2,D_2*
G04 #@! TO.N,/GND*
X104162500Y-82450000D03*
G04 #@! TO.P,Q1,3,S_3*
G04 #@! TO.N,/PUMP_COIL_DRV*
X106037500Y-81500000D03*
G04 #@! TD*
D27*
G04 #@! TO.P,D1,1,K_1*
G04 #@! TO.N,/+5V*
X98150000Y-81800000D03*
G04 #@! TO.P,D1,2,A_2*
G04 #@! TO.N,/PUMP_COIL_DRV*
X101450000Y-81800000D03*
G04 #@! TD*
D15*
G04 #@! TO.P,R10,1*
G04 #@! TO.N,/+5V*
X98275000Y-85300000D03*
G04 #@! TO.P,R10,2*
G04 #@! TO.N,/LED_PUMP_K*
X99925000Y-85300000D03*
G04 #@! TD*
D29*
G04 #@! TO.P,D10,1,K_1*
G04 #@! TO.N,/LED_PUMP_K*
X104312500Y-85300000D03*
G04 #@! TO.P,D10,2,A_2*
G04 #@! TO.N,/PUMP_COIL_DRV*
X105887500Y-85300000D03*
G04 #@! TD*
D15*
G04 #@! TO.P,R5,1*
G04 #@! TO.N,/MIX_ENABLE_DRV_GPIO*
X98975000Y-100000000D03*
G04 #@! TO.P,R5,2*
G04 #@! TO.N,/MIX_ENABLE_DRV*
X100625000Y-100000000D03*
G04 #@! TD*
G04 #@! TO.P,R8,1*
G04 #@! TO.N,/MIX_ENABLE_DRV*
X103975000Y-100000000D03*
G04 #@! TO.P,R8,2*
G04 #@! TO.N,/GND*
X105625000Y-100000000D03*
G04 #@! TD*
D28*
G04 #@! TO.P,Q2,1,G_1*
G04 #@! TO.N,/MIX_ENABLE_DRV*
X104125000Y-103250000D03*
G04 #@! TO.P,Q2,2,D_2*
G04 #@! TO.N,/GND*
X104125000Y-105150000D03*
G04 #@! TO.P,Q2,3,S_3*
G04 #@! TO.N,/MIX_ENABLE_COIL_DRV*
X106000000Y-104200000D03*
G04 #@! TD*
D27*
G04 #@! TO.P,D2,1,K_1*
G04 #@! TO.N,/+5V*
X98350000Y-104000000D03*
G04 #@! TO.P,D2,2,A_2*
G04 #@! TO.N,/MIX_ENABLE_COIL_DRV*
X101650000Y-104000000D03*
G04 #@! TD*
D15*
G04 #@! TO.P,R11,1*
G04 #@! TO.N,/+5V*
X98450000Y-108100000D03*
G04 #@! TO.P,R11,2*
G04 #@! TO.N,/LED_MIX_ENABLE_K*
X100100000Y-108100000D03*
G04 #@! TD*
D29*
G04 #@! TO.P,D11,1,K_1*
G04 #@! TO.N,/LED_MIX_ENABLE_K*
X104487500Y-108100000D03*
G04 #@! TO.P,D11,2,A_2*
G04 #@! TO.N,/MIX_ENABLE_COIL_DRV*
X106062500Y-108100000D03*
G04 #@! TD*
D15*
G04 #@! TO.P,R6,1*
G04 #@! TO.N,/MIX_DIR_DRV_GPIO*
X98375000Y-120300000D03*
G04 #@! TO.P,R6,2*
G04 #@! TO.N,/MIX_DIR_DRV*
X100025000Y-120300000D03*
G04 #@! TD*
G04 #@! TO.P,R9,1*
G04 #@! TO.N,/MIX_DIR_DRV*
X104375000Y-120300000D03*
G04 #@! TO.P,R9,2*
G04 #@! TO.N,/GND*
X106025000Y-120300000D03*
G04 #@! TD*
D28*
G04 #@! TO.P,Q3,1,G_1*
G04 #@! TO.N,/MIX_DIR_DRV*
X104225000Y-124050000D03*
G04 #@! TO.P,Q3,2,D_2*
G04 #@! TO.N,/GND*
X104225000Y-125950000D03*
G04 #@! TO.P,Q3,3,S_3*
G04 #@! TO.N,/MIX_DIR_COIL_DRV*
X106100000Y-125000000D03*
G04 #@! TD*
D27*
G04 #@! TO.P,D3,1,K_1*
G04 #@! TO.N,/+5V*
X97750000Y-125000000D03*
G04 #@! TO.P,D3,2,A_2*
G04 #@! TO.N,/MIX_DIR_COIL_DRV*
X101050000Y-125000000D03*
G04 #@! TD*
D15*
G04 #@! TO.P,R12,1*
G04 #@! TO.N,/+5V*
X98350000Y-129700000D03*
G04 #@! TO.P,R12,2*
G04 #@! TO.N,/LED_MIX_DIR_K*
X100000000Y-129700000D03*
G04 #@! TD*
D29*
G04 #@! TO.P,D12,1,K_1*
G04 #@! TO.N,/LED_MIX_DIR_K*
X104237500Y-129700000D03*
G04 #@! TO.P,D12,2,A_2*
G04 #@! TO.N,/MIX_DIR_COIL_DRV*
X105812500Y-129700000D03*
G04 #@! TD*
D15*
G04 #@! TO.P,R20,1*
G04 #@! TO.N,/+5V*
X168975000Y-75500000D03*
G04 #@! TO.P,R20,2*
G04 #@! TO.N,/LED_5V_K*
X170625000Y-75500000D03*
G04 #@! TD*
D29*
G04 #@! TO.P,D20,1,K_1*
G04 #@! TO.N,/LED_5V_K*
X174012500Y-75400000D03*
G04 #@! TO.P,D20,2,A_2*
G04 #@! TO.N,/GND*
X175587500Y-75400000D03*
G04 #@! TD*
D15*
G04 #@! TO.P,R21,1*
G04 #@! TO.N,/+3V3*
X168875000Y-80100000D03*
G04 #@! TO.P,R21,2*
G04 #@! TO.N,/LED_3V3_K*
X170525000Y-80100000D03*
G04 #@! TD*
D29*
G04 #@! TO.P,D21,1,K_1*
G04 #@! TO.N,/LED_3V3_K*
X174112500Y-80200000D03*
G04 #@! TO.P,D21,2,A_2*
G04 #@! TO.N,/GND*
X175687500Y-80200000D03*
G04 #@! TD*
D15*
G04 #@! TO.P,R30,1*
G04 #@! TO.N,/+3V3*
X157475000Y-99000000D03*
G04 #@! TO.P,R30,2*
G04 #@! TO.N,/LED_USB_TX_K*
X159125000Y-99000000D03*
G04 #@! TD*
D29*
G04 #@! TO.P,D30,1,K_1*
G04 #@! TO.N,/LED_USB_TX_K*
X163912500Y-99000000D03*
G04 #@! TO.P,D30,2,A_2*
G04 #@! TO.N,/ESP_U0TX*
X165487500Y-99000000D03*
G04 #@! TD*
D15*
G04 #@! TO.P,R31,1*
G04 #@! TO.N,/+3V3*
X157375000Y-103500000D03*
G04 #@! TO.P,R31,2*
G04 #@! TO.N,/LED_USB_RX_K*
X159025000Y-103500000D03*
G04 #@! TD*
D29*
G04 #@! TO.P,D31,1,K_1*
G04 #@! TO.N,/LED_USB_RX_K*
X163912500Y-103500000D03*
G04 #@! TO.P,D31,2,A_2*
G04 #@! TO.N,/ESP_U0RX*
X165487500Y-103500000D03*
G04 #@! TD*
D15*
G04 #@! TO.P,R32,1*
G04 #@! TO.N,/RS485_GND*
X167875000Y-132000000D03*
G04 #@! TO.P,R32,2*
G04 #@! TO.N,/GND*
X169525000Y-132000000D03*
G04 #@! TD*
D25*
G04 #@! TO.P,R41,1*
G04 #@! TO.N,/MAINS_LED_SERIES*
X69962500Y-41000000D03*
G04 #@! TO.P,R41,2*
G04 #@! TO.N,/MAINS_LED_K*
X67037500Y-41000000D03*
G04 #@! TD*
D30*
G04 #@! TO.P,D40,1,K_1*
G04 #@! TO.N,/MAINS_LED_K*
X62500000Y-43437500D03*
G04 #@! TO.P,D40,2,A_2*
G04 #@! TO.N,/N*
X62500000Y-41562500D03*
G04 #@! TD*
D31*
G04 #@! TO.P,D41,1,K_1*
G04 #@! TO.N,/N*
X57000000Y-40850000D03*
G04 #@! TO.P,D41,2,A_2*
G04 #@! TO.N,/MAINS_LED_K*
X57000000Y-44150000D03*
G04 #@! TD*
D32*
G04 #@! TO.P,RV1,1*
G04 #@! TO.N,/L_FUSED*
X45200000Y-65200000D03*
G04 #@! TO.P,RV1,2*
G04 #@! TO.N,/N*
X43800000Y-72700000D03*
G04 #@! TD*
D27*
G04 #@! TO.P,D50,1,A1_1*
G04 #@! TO.N,/RS485_A*
X166050000Y-118500000D03*
G04 #@! TO.P,D50,2,A2_2*
G04 #@! TO.N,/RS485_GND*
X169350000Y-118500000D03*
G04 #@! TD*
G04 #@! TO.P,D51,1,A1_1*
G04 #@! TO.N,/RS485_B*
X166050000Y-125000000D03*
G04 #@! TO.P,D51,2,A2_2*
G04 #@! TO.N,/RS485_GND*
X169350000Y-125000000D03*
G04 #@! TD*
G04 #@! TO.P,D52,1,A1_1*
G04 #@! TO.N,/RS485_A*
X166050000Y-112500000D03*
G04 #@! TO.P,D52,2,A2_2*
G04 #@! TO.N,/RS485_B*
X169350000Y-112500000D03*
G04 #@! TD*
D14*
G04 #@! TO.P,D82,1,DOUT_1*
G04 #@! TO.N,/RGB_D82_DOUT*
X112500000Y-127150000D03*
G04 #@! TO.P,D82,2,VSS_2*
G04 #@! TO.N,/GND*
X112500000Y-128900000D03*
G04 #@! TO.P,D82,3,DIN_3*
G04 #@! TO.N,/RGB_D81_DOUT*
X116000000Y-128900000D03*
G04 #@! TO.P,D82,4,VDD_4*
G04 #@! TO.N,/+5V*
X116000000Y-127150000D03*
G04 #@! TD*
D33*
G04 #@! TO.P,R22,1*
G04 #@! TO.N,/RTD_VL_BIAS*
X187900000Y-42625000D03*
G04 #@! TO.P,R22,2*
G04 #@! TO.N,/RTD_VL_FORCE_PLUS*
X187900000Y-40975000D03*
G04 #@! TD*
D10*
G04 #@! TO.P,C71,1*
G04 #@! TO.N,/+5V*
X120475000Y-75225000D03*
G04 #@! TO.P,C71,2*
G04 #@! TO.N,/GND*
X122025000Y-75225000D03*
G04 #@! TD*
G04 #@! TO.P,C72,1*
G04 #@! TO.N,/+5V*
X120475000Y-80025000D03*
G04 #@! TO.P,C72,2*
G04 #@! TO.N,/GND*
X122025000Y-80025000D03*
G04 #@! TD*
D14*
G04 #@! TO.P,D78,1,DOUT_1*
G04 #@! TO.N,/RGB_D78_DOUT*
X112500000Y-107950000D03*
G04 #@! TO.P,D78,2,VSS_2*
G04 #@! TO.N,/GND*
X112500000Y-109700000D03*
G04 #@! TO.P,D78,3,DIN_3*
G04 #@! TO.N,/RGB_D77_DOUT*
X116000000Y-109700000D03*
G04 #@! TO.P,D78,4,VDD_4*
G04 #@! TO.N,/+5V*
X116000000Y-107950000D03*
G04 #@! TD*
D34*
G04 #@! TO.P,K3,1*
G04 #@! TO.N,/L_MIX_ENABLE*
X88000000Y-125000000D03*
D35*
G04 #@! TO.P,K3,2*
G04 #@! TO.N,/+5V*
X86050000Y-118950000D03*
D34*
G04 #@! TO.P,K3,3*
G04 #@! TO.N,/L_MIX_OPEN*
X73850000Y-118950000D03*
G04 #@! TO.P,K3,4*
G04 #@! TO.N,/L_MIX_CLOSE*
X73800000Y-131000000D03*
D35*
G04 #@! TO.P,K3,5*
G04 #@! TO.N,/MIX_DIR_COIL_DRV*
X86050000Y-130950000D03*
G04 #@! TD*
D14*
G04 #@! TO.P,D71,1,DOUT_1*
G04 #@! TO.N,/RGB_D71_DOUT*
X112500000Y-74350000D03*
G04 #@! TO.P,D71,2,VSS_2*
G04 #@! TO.N,/GND*
X112500000Y-76100000D03*
G04 #@! TO.P,D71,3,DIN_3*
G04 #@! TO.N,/RGB_D70_DOUT*
X116000000Y-76100000D03*
G04 #@! TO.P,D71,4,VDD_4*
G04 #@! TO.N,/+5V*
X116000000Y-74350000D03*
G04 #@! TD*
D36*
G04 #@! TO.P,U1,1*
G04 #@! TO.N,/GND*
X145950000Y-33940000D03*
G04 #@! TO.P,U1,2*
G04 #@! TO.N,/+3V3*
X145950000Y-35210000D03*
G04 #@! TO.P,U1,3*
G04 #@! TO.N,/ESP_EN*
X145950000Y-36480000D03*
G04 #@! TO.P,U1,4*
G04 #@! TO.N,/RS485_DE*
X145950000Y-37750000D03*
G04 #@! TO.P,U1,5*
G04 #@! TO.N,/ESP_IO5_EXT*
X145950000Y-39020000D03*
G04 #@! TO.P,U1,6*
G04 #@! TO.N,/ESP_IO6_EXT*
X145950000Y-40290000D03*
G04 #@! TO.P,U1,7*
G04 #@! TO.N,/ESP_IO7_EXT*
X145950000Y-41560000D03*
G04 #@! TO.P,U1,8*
G04 #@! TO.N,/ESP_IO15_EXT*
X145950000Y-42830000D03*
G04 #@! TO.P,U1,9*
G04 #@! TO.N,/RS485_UART_RX*
X145950000Y-44100000D03*
G04 #@! TO.P,U1,10*
G04 #@! TO.N,/RS485_UART_TX*
X145950000Y-45370000D03*
G04 #@! TO.P,U1,11*
G04 #@! TO.N,/ESP_IO18_EXT*
X145950000Y-46640000D03*
G04 #@! TO.P,U1,12*
G04 #@! TO.N,/ESP_IO8_EXT*
X145950000Y-47910000D03*
G04 #@! TO.P,U1,13*
G04 #@! TO.N,/USB_D-*
X145950000Y-49180000D03*
G04 #@! TO.P,U1,14*
G04 #@! TO.N,/USB_D+*
X145950000Y-50450000D03*
D37*
G04 #@! TO.P,U1,15*
G04 #@! TO.N,/ESP_IO3_EXT*
X147715000Y-51700000D03*
G04 #@! TO.P,U1,16*
G04 #@! TO.N,/ESP_IO46_EXT*
X148985000Y-51700000D03*
G04 #@! TO.P,U1,17*
G04 #@! TO.N,/RTD_RL_CS*
X150255000Y-51700000D03*
G04 #@! TO.P,U1,18*
G04 #@! TO.N,/RTD_VL_CS*
X151525000Y-51700000D03*
G04 #@! TO.P,U1,19*
G04 #@! TO.N,/SPI_MOSI*
X152795000Y-51700000D03*
G04 #@! TO.P,U1,20*
G04 #@! TO.N,/SPI_SCK*
X154065000Y-51700000D03*
G04 #@! TO.P,U1,21*
G04 #@! TO.N,/SPI_MISO*
X155335000Y-51700000D03*
G04 #@! TO.P,U1,22*
G04 #@! TO.N,/ESP_IO14_EXT*
X156605000Y-51700000D03*
G04 #@! TO.P,U1,23*
G04 #@! TO.N,/RGB_DATA*
X157875000Y-51700000D03*
G04 #@! TO.P,U1,24*
G04 #@! TO.N,/ESP_IO47_EXT*
X159145000Y-51700000D03*
G04 #@! TO.P,U1,25*
G04 #@! TO.N,/ESP_IO48_EXT*
X160415000Y-51700000D03*
G04 #@! TO.P,U1,26*
G04 #@! TO.N,/ESP_IO45_EXT*
X161685000Y-51700000D03*
D36*
G04 #@! TO.P,U1,27*
G04 #@! TO.N,/ESP_IO0_BOOT*
X163450000Y-50450000D03*
G04 #@! TO.P,U1,28*
G04 #@! TO.N,/PUMP_DRV_GPIO*
X163450000Y-49180000D03*
G04 #@! TO.P,U1,29*
G04 #@! TO.N,/MIX_ENABLE_DRV_GPIO*
X163450000Y-47910000D03*
G04 #@! TO.P,U1,30*
G04 #@! TO.N,/MIX_DIR_DRV_GPIO*
X163450000Y-46640000D03*
G04 #@! TO.P,U1,31*
G04 #@! TO.N,/ESP_IO38_EXT*
X163450000Y-45370000D03*
G04 #@! TO.P,U1,32*
G04 #@! TO.N,/ESP_IO39_EXT*
X163450000Y-44100000D03*
G04 #@! TO.P,U1,33*
G04 #@! TO.N,/ESP_IO40_EXT*
X163450000Y-42830000D03*
G04 #@! TO.P,U1,34*
G04 #@! TO.N,/ESP_IO41_EXT*
X163450000Y-41560000D03*
G04 #@! TO.P,U1,35*
G04 #@! TO.N,/ESP_IO42_EXT*
X163450000Y-40290000D03*
G04 #@! TO.P,U1,36*
G04 #@! TO.N,/ESP_RXD0_EXT*
X163450000Y-39020000D03*
G04 #@! TO.P,U1,37*
G04 #@! TO.N,/ESP_TXD0_EXT*
X163450000Y-37750000D03*
G04 #@! TO.P,U1,38*
G04 #@! TO.N,/ESP_IO2_EXT*
X163450000Y-36480000D03*
G04 #@! TO.P,U1,39*
G04 #@! TO.N,/ESP_IO1_EXT*
X163450000Y-35210000D03*
G04 #@! TO.P,U1,40*
G04 #@! TO.N,/GND*
X163450000Y-33940000D03*
D38*
G04 #@! TO.P,U1,41*
X151800000Y-40960000D03*
X151800000Y-42360000D03*
X152500000Y-40260000D03*
X152500000Y-41660000D03*
X152500000Y-43060000D03*
X153200000Y-40960000D03*
D39*
X153200000Y-41660000D03*
D38*
X153200000Y-42360000D03*
X153900000Y-40260000D03*
X153900000Y-41660000D03*
X153900000Y-43060000D03*
X154600000Y-40960000D03*
D40*
X154600000Y-42360000D03*
G04 #@! TD*
D10*
G04 #@! TO.P,C61,1*
G04 #@! TO.N,/+5V*
X167000000Y-71000000D03*
G04 #@! TO.P,C61,2*
G04 #@! TO.N,/GND*
X168550000Y-71000000D03*
G04 #@! TD*
D23*
G04 #@! TO.P,J5,1*
G04 #@! TO.N,/+5V*
X133900000Y-36680000D03*
D24*
G04 #@! TO.P,J5,2*
G04 #@! TO.N,/GND*
X136440000Y-36680000D03*
G04 #@! TO.P,J5,3*
G04 #@! TO.N,/+3V3*
X133900000Y-39220000D03*
G04 #@! TO.P,J5,4*
G04 #@! TO.N,/GND*
X136440000Y-39220000D03*
G04 #@! TO.P,J5,5*
G04 #@! TO.N,/ESP_IO1_EXT*
X133900000Y-41760000D03*
G04 #@! TO.P,J5,6*
G04 #@! TO.N,/ESP_IO2_EXT*
X136440000Y-41760000D03*
G04 #@! TO.P,J5,7*
G04 #@! TO.N,/ESP_IO3_EXT*
X133900000Y-44300000D03*
G04 #@! TO.P,J5,8*
G04 #@! TO.N,/ESP_IO5_EXT*
X136440000Y-44300000D03*
G04 #@! TO.P,J5,9*
G04 #@! TO.N,/ESP_IO6_EXT*
X133900000Y-46840000D03*
G04 #@! TO.P,J5,10*
G04 #@! TO.N,/ESP_IO7_EXT*
X136440000Y-46840000D03*
G04 #@! TO.P,J5,11*
G04 #@! TO.N,/ESP_IO8_EXT*
X133900000Y-49380000D03*
G04 #@! TO.P,J5,12*
G04 #@! TO.N,/ESP_IO14_EXT*
X136440000Y-49380000D03*
G04 #@! TO.P,J5,13*
G04 #@! TO.N,/ESP_IO15_EXT*
X133900000Y-51920000D03*
G04 #@! TO.P,J5,14*
G04 #@! TO.N,/ESP_IO18_EXT*
X136440000Y-51920000D03*
G04 #@! TO.P,J5,15*
G04 #@! TO.N,/ESP_IO38_EXT*
X133900000Y-54460000D03*
G04 #@! TO.P,J5,16*
G04 #@! TO.N,/ESP_IO39_EXT*
X136440000Y-54460000D03*
G04 #@! TO.P,J5,17*
G04 #@! TO.N,/ESP_IO40_EXT*
X133900000Y-57000000D03*
G04 #@! TO.P,J5,18*
G04 #@! TO.N,/ESP_IO41_EXT*
X136440000Y-57000000D03*
G04 #@! TO.P,J5,19*
G04 #@! TO.N,/ESP_IO42_EXT*
X133900000Y-59540000D03*
G04 #@! TO.P,J5,20*
G04 #@! TO.N,/GND*
X136440000Y-59540000D03*
G04 #@! TD*
D14*
G04 #@! TO.P,D65,1,DOUT_1*
G04 #@! TO.N,/RGB_D65_DOUT*
X112500000Y-45550000D03*
G04 #@! TO.P,D65,2,VSS_2*
G04 #@! TO.N,/GND*
X112500000Y-47300000D03*
G04 #@! TO.P,D65,3,DIN_3*
G04 #@! TO.N,/RGB_D64_DOUT*
X116000000Y-47300000D03*
G04 #@! TO.P,D65,4,VDD_4*
G04 #@! TO.N,/+5V*
X116000000Y-45550000D03*
G04 #@! TD*
D41*
G04 #@! TO.P,X6,A1,GND_A1*
G04 #@! TO.N,/GND*
X192255000Y-130350000D03*
G04 #@! TO.P,X6,A4,VBUS_A4*
G04 #@! TO.N,/USB_VBUS*
X192255000Y-129550000D03*
D42*
G04 #@! TO.P,X6,A5,CC1_A5*
G04 #@! TO.N,/USB_CC1*
X192255000Y-128350000D03*
G04 #@! TO.P,X6,A6,D+_A6*
G04 #@! TO.N,/USB_D+*
X192255000Y-127350000D03*
G04 #@! TO.P,X6,A7,D-_A7*
G04 #@! TO.N,/USB_D-*
X192255000Y-126850000D03*
G04 #@! TO.P,X6,A8,SBU1_A8*
G04 #@! TO.N,N/C*
X192255000Y-125850000D03*
D41*
G04 #@! TO.P,X6,A9,VBUS_A9*
G04 #@! TO.N,/USB_VBUS*
X192255000Y-124650000D03*
G04 #@! TO.P,X6,A12,GND_A12*
G04 #@! TO.N,/GND*
X192255000Y-123850000D03*
G04 #@! TO.P,X6,B1,GND_B1*
X192255000Y-123850000D03*
G04 #@! TO.P,X6,B4,VBUS_B4*
G04 #@! TO.N,/USB_VBUS*
X192255000Y-124650000D03*
D42*
G04 #@! TO.P,X6,B5,CC2_B5*
G04 #@! TO.N,/USB_CC2*
X192255000Y-125350000D03*
G04 #@! TO.P,X6,B6,D+_B6*
G04 #@! TO.N,/USB_D+*
X192255000Y-126350000D03*
G04 #@! TO.P,X6,B7,D-_B7*
G04 #@! TO.N,/USB_D-*
X192255000Y-127850000D03*
G04 #@! TO.P,X6,B8,SBU2_B8*
G04 #@! TO.N,N/C*
X192255000Y-128850000D03*
D41*
G04 #@! TO.P,X6,B9,VBUS_B9*
G04 #@! TO.N,/USB_VBUS*
X192255000Y-129550000D03*
G04 #@! TO.P,X6,B12,GND_B12*
G04 #@! TO.N,/GND*
X192255000Y-130350000D03*
D43*
G04 #@! TO.P,X6,SH,SHIELD_SH*
X193170000Y-131420000D03*
D44*
X197350000Y-131420000D03*
D43*
X193170000Y-122780000D03*
D44*
X197350000Y-122780000D03*
G04 #@! TD*
D10*
G04 #@! TO.P,C75,1*
G04 #@! TO.N,/+5V*
X120475000Y-94425000D03*
G04 #@! TO.P,C75,2*
G04 #@! TO.N,/GND*
X122025000Y-94425000D03*
G04 #@! TD*
G04 #@! TO.P,C66,1*
G04 #@! TO.N,/+5V*
X120475000Y-51225000D03*
G04 #@! TO.P,C66,2*
G04 #@! TO.N,/GND*
X122025000Y-51225000D03*
G04 #@! TD*
D14*
G04 #@! TO.P,D67,1,DOUT_1*
G04 #@! TO.N,/RGB_D67_DOUT*
X112500000Y-55150000D03*
G04 #@! TO.P,D67,2,VSS_2*
G04 #@! TO.N,/GND*
X112500000Y-56900000D03*
G04 #@! TO.P,D67,3,DIN_3*
G04 #@! TO.N,/RGB_D66_DOUT*
X116000000Y-56900000D03*
G04 #@! TO.P,D67,4,VDD_4*
G04 #@! TO.N,/+5V*
X116000000Y-55150000D03*
G04 #@! TD*
D10*
G04 #@! TO.P,C73,1*
G04 #@! TO.N,/+5V*
X120475000Y-84825000D03*
G04 #@! TO.P,C73,2*
G04 #@! TO.N,/GND*
X122025000Y-84825000D03*
G04 #@! TD*
D14*
G04 #@! TO.P,D63,1,DOUT_1*
G04 #@! TO.N,/RGB_D63_DOUT*
X160250000Y-71125000D03*
G04 #@! TO.P,D63,2,VSS_2*
G04 #@! TO.N,/GND*
X160250000Y-72875000D03*
G04 #@! TO.P,D63,3,DIN_3*
G04 #@! TO.N,/RGB_D62_DOUT*
X163750000Y-72875000D03*
G04 #@! TO.P,D63,4,VDD_4*
G04 #@! TO.N,/+5V*
X163750000Y-71125000D03*
G04 #@! TD*
G04 #@! TO.P,D75,1,DOUT_1*
G04 #@! TO.N,/RGB_D75_DOUT*
X112500000Y-93550000D03*
G04 #@! TO.P,D75,2,VSS_2*
G04 #@! TO.N,/GND*
X112500000Y-95300000D03*
G04 #@! TO.P,D75,3,DIN_3*
G04 #@! TO.N,/RGB_D74_DOUT*
X116000000Y-95300000D03*
G04 #@! TO.P,D75,4,VDD_4*
G04 #@! TO.N,/+5V*
X116000000Y-93550000D03*
G04 #@! TD*
D15*
G04 #@! TO.P,R60,1*
G04 #@! TO.N,/RGB_DATA*
X152075000Y-58400000D03*
G04 #@! TO.P,R60,2*
G04 #@! TO.N,/RGB_D60_DIN*
X153725000Y-58400000D03*
G04 #@! TD*
G04 #@! TO.P,R33,1*
G04 #@! TO.N,/+3V3*
X142075000Y-36500000D03*
G04 #@! TO.P,R33,2*
G04 #@! TO.N,/ESP_EN*
X143725000Y-36500000D03*
G04 #@! TD*
D10*
G04 #@! TO.P,C23,1*
G04 #@! TO.N,/RTD_RL_FORCE_PLUS*
X186650000Y-48000000D03*
G04 #@! TO.P,C23,2*
G04 #@! TO.N,/RTD_RL_FORCE_MINUS*
X188200000Y-48000000D03*
G04 #@! TD*
D45*
G04 #@! TO.P,U3,1,~{DRDY}_1*
G04 #@! TO.N,N/C*
X184500000Y-55925000D03*
G04 #@! TO.P,U3,2,DVDD_2*
G04 #@! TO.N,/+3V3*
X184500000Y-55275000D03*
G04 #@! TO.P,U3,3,VDD_3*
X184500000Y-54625000D03*
G04 #@! TO.P,U3,4,BIAS_4*
G04 #@! TO.N,/RTD_RL_BIAS*
X184500000Y-53975000D03*
G04 #@! TO.P,U3,5,REFIN+_5*
X184500000Y-53325000D03*
G04 #@! TO.P,U3,6,REFIN-_6*
G04 #@! TO.N,/RTD_RL_FORCE_PLUS*
X184500000Y-52675000D03*
G04 #@! TO.P,U3,7,ISENSOR_7*
X184500000Y-52025000D03*
G04 #@! TO.P,U3,8,FORCE+_8*
X184500000Y-51375000D03*
G04 #@! TO.P,U3,9,FORCE2_9*
X184500000Y-50725000D03*
G04 #@! TO.P,U3,10,RTDIN+_10*
X184500000Y-50075000D03*
G04 #@! TO.P,U3,11,RTDIN-_11*
G04 #@! TO.N,/RTD_RL_FORCE_MINUS*
X177500000Y-50075000D03*
G04 #@! TO.P,U3,12,FORCE-_12*
X177500000Y-50725000D03*
G04 #@! TO.P,U3,13,GND_13*
G04 #@! TO.N,/GND*
X177500000Y-51375000D03*
G04 #@! TO.P,U3,14,SDI_14*
G04 #@! TO.N,/SPI_MOSI*
X177500000Y-52025000D03*
G04 #@! TO.P,U3,15,SCLK_15*
G04 #@! TO.N,/SPI_SCK*
X177500000Y-52675000D03*
G04 #@! TO.P,U3,16,~{CS}_16*
G04 #@! TO.N,/RTD_RL_CS*
X177500000Y-53325000D03*
G04 #@! TO.P,U3,17,SDO_17*
G04 #@! TO.N,/SPI_MISO*
X177500000Y-53975000D03*
G04 #@! TO.P,U3,18,DGND_18*
G04 #@! TO.N,/GND*
X177500000Y-54625000D03*
G04 #@! TO.P,U3,19,GND_19*
X177500000Y-55275000D03*
G04 #@! TO.P,U3,20,NC_20*
G04 #@! TO.N,N/C*
X177500000Y-55925000D03*
G04 #@! TD*
D14*
G04 #@! TO.P,D60,1,DOUT_1*
G04 #@! TO.N,/RGB_D60_DOUT*
X150250000Y-61125000D03*
G04 #@! TO.P,D60,2,VSS_2*
G04 #@! TO.N,/GND*
X150250000Y-62875000D03*
G04 #@! TO.P,D60,3,DIN_3*
G04 #@! TO.N,/RGB_D60_DIN*
X153750000Y-62875000D03*
G04 #@! TO.P,D60,4,VDD_4*
G04 #@! TO.N,/+5V*
X153750000Y-61125000D03*
G04 #@! TD*
D10*
G04 #@! TO.P,C82,1*
G04 #@! TO.N,/+5V*
X120475000Y-128025000D03*
G04 #@! TO.P,C82,2*
G04 #@! TO.N,/GND*
X122025000Y-128025000D03*
G04 #@! TD*
D14*
G04 #@! TO.P,D76,1,DOUT_1*
G04 #@! TO.N,/RGB_D76_DOUT*
X112500000Y-98350000D03*
G04 #@! TO.P,D76,2,VSS_2*
G04 #@! TO.N,/GND*
X112500000Y-100100000D03*
G04 #@! TO.P,D76,3,DIN_3*
G04 #@! TO.N,/RGB_D75_DOUT*
X116000000Y-100100000D03*
G04 #@! TO.P,D76,4,VDD_4*
G04 #@! TO.N,/+5V*
X116000000Y-98350000D03*
G04 #@! TD*
G04 #@! TO.P,D66,1,DOUT_1*
G04 #@! TO.N,/RGB_D66_DOUT*
X112500000Y-50350000D03*
G04 #@! TO.P,D66,2,VSS_2*
G04 #@! TO.N,/GND*
X112500000Y-52100000D03*
G04 #@! TO.P,D66,3,DIN_3*
G04 #@! TO.N,/RGB_D65_DOUT*
X116000000Y-52100000D03*
G04 #@! TO.P,D66,4,VDD_4*
G04 #@! TO.N,/+5V*
X116000000Y-50350000D03*
G04 #@! TD*
D10*
G04 #@! TO.P,C70,1*
G04 #@! TO.N,/+5V*
X120475000Y-70425000D03*
G04 #@! TO.P,C70,2*
G04 #@! TO.N,/GND*
X122025000Y-70425000D03*
G04 #@! TD*
D14*
G04 #@! TO.P,D70,1,DOUT_1*
G04 #@! TO.N,/RGB_D70_DOUT*
X112500000Y-69550000D03*
G04 #@! TO.P,D70,2,VSS_2*
G04 #@! TO.N,/GND*
X112500000Y-71300000D03*
G04 #@! TO.P,D70,3,DIN_3*
G04 #@! TO.N,/RGB_D69_DOUT*
X116000000Y-71300000D03*
G04 #@! TO.P,D70,4,VDD_4*
G04 #@! TO.N,/+5V*
X116000000Y-69550000D03*
G04 #@! TD*
D10*
G04 #@! TO.P,C63,1*
G04 #@! TO.N,/+5V*
X166725000Y-61000000D03*
G04 #@! TO.P,C63,2*
G04 #@! TO.N,/GND*
X168275000Y-61000000D03*
G04 #@! TD*
G04 #@! TO.P,C65,1*
G04 #@! TO.N,/+5V*
X120475000Y-46425000D03*
G04 #@! TO.P,C65,2*
G04 #@! TO.N,/GND*
X122025000Y-46425000D03*
G04 #@! TD*
D46*
G04 #@! TO.P,J1,1,Pin_1_1*
G04 #@! TO.N,/BUS_5V*
X188650000Y-84230000D03*
D47*
G04 #@! TO.P,J1,2,Pin_2_2*
X186110000Y-82960000D03*
G04 #@! TO.P,J1,3,Pin_3_3*
G04 #@! TO.N,N/C*
X188650000Y-81690000D03*
G04 #@! TO.P,J1,4,Pin_4_4*
G04 #@! TO.N,/RS485_A*
X186110000Y-80420000D03*
G04 #@! TO.P,J1,5,Pin_5_5*
G04 #@! TO.N,/RS485_B*
X188650000Y-79150000D03*
G04 #@! TO.P,J1,6,Pin_6_6*
G04 #@! TO.N,N/C*
X186110000Y-77880000D03*
G04 #@! TO.P,J1,7,Pin_7_7*
G04 #@! TO.N,/RS485_GND*
X188650000Y-76610000D03*
G04 #@! TO.P,J1,8,Pin_8_8*
X186110000Y-75340000D03*
G04 #@! TD*
D10*
G04 #@! TO.P,C60,1*
G04 #@! TO.N,/+5V*
X156000000Y-71000000D03*
G04 #@! TO.P,C60,2*
G04 #@! TO.N,/GND*
X157550000Y-71000000D03*
G04 #@! TD*
D46*
G04 #@! TO.P,J2,1,Pin_1_1*
G04 #@! TO.N,/BUS_5V*
X188650000Y-101230000D03*
D47*
G04 #@! TO.P,J2,2,Pin_2_2*
X186110000Y-99960000D03*
G04 #@! TO.P,J2,3,Pin_3_3*
G04 #@! TO.N,N/C*
X188650000Y-98690000D03*
G04 #@! TO.P,J2,4,Pin_4_4*
G04 #@! TO.N,/RS485_A*
X186110000Y-97420000D03*
G04 #@! TO.P,J2,5,Pin_5_5*
G04 #@! TO.N,/RS485_B*
X188650000Y-96150000D03*
G04 #@! TO.P,J2,6,Pin_6_6*
G04 #@! TO.N,N/C*
X186110000Y-94880000D03*
G04 #@! TO.P,J2,7,Pin_7_7*
G04 #@! TO.N,/RS485_GND*
X188650000Y-93610000D03*
G04 #@! TO.P,J2,8,Pin_8_8*
X186110000Y-92340000D03*
G04 #@! TD*
D14*
G04 #@! TO.P,D69,1,DOUT_1*
G04 #@! TO.N,/RGB_D69_DOUT*
X112500000Y-64750000D03*
G04 #@! TO.P,D69,2,VSS_2*
G04 #@! TO.N,/GND*
X112500000Y-66500000D03*
G04 #@! TO.P,D69,3,DIN_3*
G04 #@! TO.N,/RGB_D68_DOUT*
X116000000Y-66500000D03*
G04 #@! TO.P,D69,4,VDD_4*
G04 #@! TO.N,/+5V*
X116000000Y-64750000D03*
G04 #@! TD*
D10*
G04 #@! TO.P,C78,1*
G04 #@! TO.N,/+5V*
X120475000Y-108825000D03*
G04 #@! TO.P,C78,2*
G04 #@! TO.N,/GND*
X122025000Y-108825000D03*
G04 #@! TD*
G04 #@! TO.P,C83,1*
G04 #@! TO.N,/+5V*
X120475000Y-132825000D03*
G04 #@! TO.P,C83,2*
G04 #@! TO.N,/GND*
X122025000Y-132825000D03*
G04 #@! TD*
D14*
G04 #@! TO.P,D83,1,DOUT_1*
G04 #@! TO.N,N/C*
X112500000Y-131950000D03*
G04 #@! TO.P,D83,2,VSS_2*
G04 #@! TO.N,/GND*
X112500000Y-133700000D03*
G04 #@! TO.P,D83,3,DIN_3*
G04 #@! TO.N,/RGB_D82_DOUT*
X116000000Y-133700000D03*
G04 #@! TO.P,D83,4,VDD_4*
G04 #@! TO.N,/+5V*
X116000000Y-131950000D03*
G04 #@! TD*
D10*
G04 #@! TO.P,C79,1*
G04 #@! TO.N,/+5V*
X120475000Y-113625000D03*
G04 #@! TO.P,C79,2*
G04 #@! TO.N,/GND*
X122025000Y-113625000D03*
G04 #@! TD*
D48*
G04 #@! TO.P,SW1,1,1*
G04 #@! TO.N,/ESP_IO0_BOOT*
X134100000Y-76300000D03*
G04 #@! TO.P,SW1,2,2*
G04 #@! TO.N,/GND*
X140100000Y-76300000D03*
G04 #@! TD*
D14*
G04 #@! TO.P,D81,1,DOUT_1*
G04 #@! TO.N,/RGB_D81_DOUT*
X112500000Y-122350000D03*
G04 #@! TO.P,D81,2,VSS_2*
G04 #@! TO.N,/GND*
X112500000Y-124100000D03*
G04 #@! TO.P,D81,3,DIN_3*
G04 #@! TO.N,/RGB_D80_DOUT*
X116000000Y-124100000D03*
G04 #@! TO.P,D81,4,VDD_4*
G04 #@! TO.N,/+5V*
X116000000Y-122350000D03*
G04 #@! TD*
D10*
G04 #@! TO.P,C22,1*
G04 #@! TO.N,/RTD_VL_FORCE_PLUS*
X183425000Y-35500000D03*
G04 #@! TO.P,C22,2*
G04 #@! TO.N,/RTD_VL_FORCE_MINUS*
X184975000Y-35500000D03*
G04 #@! TD*
G04 #@! TO.P,C76,1*
G04 #@! TO.N,/+5V*
X120475000Y-99225000D03*
G04 #@! TO.P,C76,2*
G04 #@! TO.N,/GND*
X122025000Y-99225000D03*
G04 #@! TD*
G04 #@! TO.P,C74,1*
G04 #@! TO.N,/+5V*
X120475000Y-89625000D03*
G04 #@! TO.P,C74,2*
G04 #@! TO.N,/GND*
X122025000Y-89625000D03*
G04 #@! TD*
G04 #@! TO.P,C69,1*
G04 #@! TO.N,/+5V*
X120475000Y-65625000D03*
G04 #@! TO.P,C69,2*
G04 #@! TO.N,/GND*
X122025000Y-65625000D03*
G04 #@! TD*
G04 #@! TO.P,C77,1*
G04 #@! TO.N,/+5V*
X120475000Y-104025000D03*
G04 #@! TO.P,C77,2*
G04 #@! TO.N,/GND*
X122025000Y-104025000D03*
G04 #@! TD*
D14*
G04 #@! TO.P,D62,1,DOUT_1*
G04 #@! TO.N,/RGB_D62_DOUT*
X150250000Y-71125000D03*
G04 #@! TO.P,D62,2,VSS_2*
G04 #@! TO.N,/GND*
X150250000Y-72875000D03*
G04 #@! TO.P,D62,3,DIN_3*
G04 #@! TO.N,/RGB_D61_DOUT*
X153750000Y-72875000D03*
G04 #@! TO.P,D62,4,VDD_4*
G04 #@! TO.N,/+5V*
X153750000Y-71125000D03*
G04 #@! TD*
D34*
G04 #@! TO.P,K1,1*
G04 #@! TO.N,/L_FUSED*
X88000000Y-83000000D03*
D35*
G04 #@! TO.P,K1,2*
G04 #@! TO.N,/+5V*
X86050000Y-76950000D03*
D34*
G04 #@! TO.P,K1,3*
G04 #@! TO.N,/L_PUMP*
X73850000Y-76950000D03*
G04 #@! TO.P,K1,4*
G04 #@! TO.N,N/C*
X73800000Y-89000000D03*
D35*
G04 #@! TO.P,K1,5*
G04 #@! TO.N,/PUMP_COIL_DRV*
X86050000Y-88950000D03*
G04 #@! TD*
D33*
G04 #@! TO.P,R23,1*
G04 #@! TO.N,/RTD_RL_BIAS*
X188400000Y-52025000D03*
G04 #@! TO.P,R23,2*
G04 #@! TO.N,/RTD_RL_FORCE_PLUS*
X188400000Y-50375000D03*
G04 #@! TD*
D14*
G04 #@! TO.P,D61,1,DOUT_1*
G04 #@! TO.N,/RGB_D61_DOUT*
X160250000Y-61125000D03*
G04 #@! TO.P,D61,2,VSS_2*
G04 #@! TO.N,/GND*
X160250000Y-62875000D03*
G04 #@! TO.P,D61,3,DIN_3*
G04 #@! TO.N,/RGB_D60_DOUT*
X163750000Y-62875000D03*
G04 #@! TO.P,D61,4,VDD_4*
G04 #@! TO.N,/+5V*
X163750000Y-61125000D03*
G04 #@! TD*
D10*
G04 #@! TO.P,C80,1*
G04 #@! TO.N,/+5V*
X120475000Y-118425000D03*
G04 #@! TO.P,C80,2*
G04 #@! TO.N,/GND*
X122025000Y-118425000D03*
G04 #@! TD*
D34*
G04 #@! TO.P,K2,1*
G04 #@! TO.N,/L_FUSED*
X88000000Y-105000000D03*
D35*
G04 #@! TO.P,K2,2*
G04 #@! TO.N,/+5V*
X86050000Y-98950000D03*
D34*
G04 #@! TO.P,K2,3*
G04 #@! TO.N,/L_MIX_ENABLE*
X73850000Y-98950000D03*
G04 #@! TO.P,K2,4*
G04 #@! TO.N,N/C*
X73800000Y-111000000D03*
D35*
G04 #@! TO.P,K2,5*
G04 #@! TO.N,/MIX_ENABLE_COIL_DRV*
X86050000Y-110950000D03*
G04 #@! TD*
D14*
G04 #@! TO.P,D68,1,DOUT_1*
G04 #@! TO.N,/RGB_D68_DOUT*
X112500000Y-59950000D03*
G04 #@! TO.P,D68,2,VSS_2*
G04 #@! TO.N,/GND*
X112500000Y-61700000D03*
G04 #@! TO.P,D68,3,DIN_3*
G04 #@! TO.N,/RGB_D67_DOUT*
X116000000Y-61700000D03*
G04 #@! TO.P,D68,4,VDD_4*
G04 #@! TO.N,/+5V*
X116000000Y-59950000D03*
G04 #@! TD*
G04 #@! TO.P,D80,1,DOUT_1*
G04 #@! TO.N,/RGB_D80_DOUT*
X112500000Y-117550000D03*
G04 #@! TO.P,D80,2,VSS_2*
G04 #@! TO.N,/GND*
X112500000Y-119300000D03*
G04 #@! TO.P,D80,3,DIN_3*
G04 #@! TO.N,/RGB_D79_DOUT*
X116000000Y-119300000D03*
G04 #@! TO.P,D80,4,VDD_4*
G04 #@! TO.N,/+5V*
X116000000Y-117550000D03*
G04 #@! TD*
D10*
G04 #@! TO.P,C67,1*
G04 #@! TO.N,/+5V*
X120475000Y-56025000D03*
G04 #@! TO.P,C67,2*
G04 #@! TO.N,/GND*
X122025000Y-56025000D03*
G04 #@! TD*
D14*
G04 #@! TO.P,D74,1,DOUT_1*
G04 #@! TO.N,/RGB_D74_DOUT*
X112500000Y-88750000D03*
G04 #@! TO.P,D74,2,VSS_2*
G04 #@! TO.N,/GND*
X112500000Y-90500000D03*
G04 #@! TO.P,D74,3,DIN_3*
G04 #@! TO.N,/RGB_D73_DOUT*
X116000000Y-90500000D03*
G04 #@! TO.P,D74,4,VDD_4*
G04 #@! TO.N,/+5V*
X116000000Y-88750000D03*
G04 #@! TD*
G04 #@! TO.P,D79,1,DOUT_1*
G04 #@! TO.N,/RGB_D79_DOUT*
X112500000Y-112750000D03*
G04 #@! TO.P,D79,2,VSS_2*
G04 #@! TO.N,/GND*
X112500000Y-114500000D03*
G04 #@! TO.P,D79,3,DIN_3*
G04 #@! TO.N,/RGB_D78_DOUT*
X116000000Y-114500000D03*
G04 #@! TO.P,D79,4,VDD_4*
G04 #@! TO.N,/+5V*
X116000000Y-112750000D03*
G04 #@! TD*
D10*
G04 #@! TO.P,C64,1*
G04 #@! TO.N,/+5V*
X120475000Y-41625000D03*
G04 #@! TO.P,C64,2*
G04 #@! TO.N,/GND*
X122025000Y-41625000D03*
G04 #@! TD*
D45*
G04 #@! TO.P,U2,1,~{DRDY}_1*
G04 #@! TO.N,N/C*
X184500000Y-45925000D03*
G04 #@! TO.P,U2,2,DVDD_2*
G04 #@! TO.N,/+3V3*
X184500000Y-45275000D03*
G04 #@! TO.P,U2,3,VDD_3*
X184500000Y-44625000D03*
G04 #@! TO.P,U2,4,BIAS_4*
G04 #@! TO.N,/RTD_VL_BIAS*
X184500000Y-43975000D03*
G04 #@! TO.P,U2,5,REFIN+_5*
X184500000Y-43325000D03*
G04 #@! TO.P,U2,6,REFIN-_6*
G04 #@! TO.N,/RTD_VL_FORCE_PLUS*
X184500000Y-42675000D03*
G04 #@! TO.P,U2,7,ISENSOR_7*
X184500000Y-42025000D03*
G04 #@! TO.P,U2,8,FORCE+_8*
X184500000Y-41375000D03*
G04 #@! TO.P,U2,9,FORCE2_9*
X184500000Y-40725000D03*
G04 #@! TO.P,U2,10,RTDIN+_10*
X184500000Y-40075000D03*
G04 #@! TO.P,U2,11,RTDIN-_11*
G04 #@! TO.N,/RTD_VL_FORCE_MINUS*
X177500000Y-40075000D03*
G04 #@! TO.P,U2,12,FORCE-_12*
X177500000Y-40725000D03*
G04 #@! TO.P,U2,13,GND_13*
G04 #@! TO.N,/GND*
X177500000Y-41375000D03*
G04 #@! TO.P,U2,14,SDI_14*
G04 #@! TO.N,/SPI_MOSI*
X177500000Y-42025000D03*
G04 #@! TO.P,U2,15,SCLK_15*
G04 #@! TO.N,/SPI_SCK*
X177500000Y-42675000D03*
G04 #@! TO.P,U2,16,~{CS}_16*
G04 #@! TO.N,/RTD_VL_CS*
X177500000Y-43325000D03*
G04 #@! TO.P,U2,17,SDO_17*
G04 #@! TO.N,/SPI_MISO*
X177500000Y-43975000D03*
G04 #@! TO.P,U2,18,DGND_18*
G04 #@! TO.N,/GND*
X177500000Y-44625000D03*
G04 #@! TO.P,U2,19,GND_19*
X177500000Y-45275000D03*
G04 #@! TO.P,U2,20,NC_20*
G04 #@! TO.N,N/C*
X177500000Y-45925000D03*
G04 #@! TD*
D10*
G04 #@! TO.P,C68,1*
G04 #@! TO.N,/+5V*
X120475000Y-60825000D03*
G04 #@! TO.P,C68,2*
G04 #@! TO.N,/GND*
X122025000Y-60825000D03*
G04 #@! TD*
D14*
G04 #@! TO.P,D73,1,DOUT_1*
G04 #@! TO.N,/RGB_D73_DOUT*
X112500000Y-83950000D03*
G04 #@! TO.P,D73,2,VSS_2*
G04 #@! TO.N,/GND*
X112500000Y-85700000D03*
G04 #@! TO.P,D73,3,DIN_3*
G04 #@! TO.N,/RGB_D72_DOUT*
X116000000Y-85700000D03*
G04 #@! TO.P,D73,4,VDD_4*
G04 #@! TO.N,/+5V*
X116000000Y-83950000D03*
G04 #@! TD*
G04 #@! TO.P,D72,1,DOUT_1*
G04 #@! TO.N,/RGB_D72_DOUT*
X112500000Y-79150000D03*
G04 #@! TO.P,D72,2,VSS_2*
G04 #@! TO.N,/GND*
X112500000Y-80900000D03*
G04 #@! TO.P,D72,3,DIN_3*
G04 #@! TO.N,/RGB_D71_DOUT*
X116000000Y-80900000D03*
G04 #@! TO.P,D72,4,VDD_4*
G04 #@! TO.N,/+5V*
X116000000Y-79150000D03*
G04 #@! TD*
G04 #@! TO.P,D64,1,DOUT_1*
G04 #@! TO.N,/RGB_D64_DOUT*
X112500000Y-40750000D03*
G04 #@! TO.P,D64,2,VSS_2*
G04 #@! TO.N,/GND*
X112500000Y-42500000D03*
G04 #@! TO.P,D64,3,DIN_3*
G04 #@! TO.N,/RGB_D63_DOUT*
X116000000Y-42500000D03*
G04 #@! TO.P,D64,4,VDD_4*
G04 #@! TO.N,/+5V*
X116000000Y-40750000D03*
G04 #@! TD*
D49*
G04 #@! TO.N,/+5V*
X118600000Y-71600000D03*
G04 #@! TO.N,/GND*
X106800000Y-127300000D03*
X179600000Y-45200000D03*
X123700000Y-128000000D03*
X105100000Y-106400000D03*
X184070000Y-133470000D03*
X179600000Y-41400000D03*
X143400000Y-76000000D03*
X179600000Y-51300000D03*
X105400000Y-127300000D03*
X179600000Y-55300000D03*
X104400000Y-83900000D03*
X106900000Y-106400000D03*
X107200000Y-83900000D03*
X157200000Y-63900000D03*
X142400000Y-127900000D03*
G04 #@! TO.N,/RS485_UART_RX*
X125800000Y-45500000D03*
X125788484Y-64535284D03*
G04 #@! TO.N,/RS485_DE*
X125000003Y-64400000D03*
X124700000Y-44800000D03*
G04 #@! TO.N,/RS485_UART_TX*
X124200000Y-48100000D03*
X124200000Y-64400000D03*
G04 #@! TO.N,/RS485_A*
X161000000Y-118400000D03*
X158800000Y-116100000D03*
X150500000Y-107400000D03*
X165700000Y-120700000D03*
G04 #@! TO.N,/+3V3*
X189900000Y-47100000D03*
X124200000Y-37400000D03*
X180200000Y-38400000D03*
X188700000Y-54500000D03*
G04 #@! TO.N,/ESP_IO0_BOOT*
X123100000Y-43500000D03*
X168900000Y-50400000D03*
X129321259Y-77000000D03*
X129300000Y-78200000D03*
G04 #@! TO.N,/USB_CC1*
X177800000Y-130900000D03*
X190200000Y-128350000D03*
G04 #@! TO.N,/USB_CC2*
X187700000Y-125542784D03*
X190400000Y-125350000D03*
G04 #@! TO.N,/BUS_5V*
X174000000Y-85500000D03*
G04 #@! TO.N,/PUMP_DRV_GPIO*
X100000000Y-76300000D03*
X169200000Y-49300000D03*
G04 #@! TO.N,/PUMP_COIL_DRV*
X101000000Y-83700000D03*
G04 #@! TO.N,/MIX_ENABLE_DRV_GPIO*
X169800000Y-48100000D03*
X100800000Y-97900000D03*
G04 #@! TO.N,/MIX_ENABLE_COIL_DRV*
X101800000Y-105800000D03*
G04 #@! TO.N,/MIX_DIR_DRV_GPIO*
X98900000Y-118000000D03*
X170700000Y-46800000D03*
G04 #@! TO.N,/MIX_DIR_COIL_DRV*
X101400000Y-126800000D03*
G04 #@! TO.N,/ESP_IO6_EXT*
X143844265Y-41444265D03*
X131400000Y-46900000D03*
G04 #@! TO.N,/ESP_IO7_EXT*
X139200000Y-46800000D03*
X144000000Y-42300000D03*
G04 #@! TO.N,/ESP_IO15_EXT*
X131300000Y-51400000D03*
X144400000Y-43200000D03*
G04 #@! TO.N,/ESP_IO18_EXT*
X144459265Y-46759265D03*
X138600000Y-52000000D03*
G04 #@! TO.N,/USB_D-*
X190142445Y-126963473D03*
X176500000Y-126900000D03*
X126000000Y-78600000D03*
X170300000Y-126900000D03*
G04 #@! TO.N,/USB_D+*
X170404741Y-126106884D03*
X190504331Y-126250000D03*
X126796348Y-78676383D03*
X176500000Y-126099997D03*
G04 #@! TO.N,/ESP_IO3_EXT*
X147500000Y-54800000D03*
X131700000Y-44100000D03*
G04 #@! TO.N,/RTD_RL_CS*
X150200000Y-57200000D03*
X155935000Y-57100000D03*
G04 #@! TO.N,/RTD_VL_CS*
X155935000Y-54699991D03*
X151500000Y-54800000D03*
G04 #@! TO.N,/SPI_MOSI*
X180300000Y-52000000D03*
X152700000Y-55500000D03*
X180300000Y-42000000D03*
X155935000Y-55499994D03*
G04 #@! TO.N,/SPI_SCK*
X155935000Y-56299997D03*
X180900000Y-52600000D03*
X154100000Y-56400000D03*
X180900000Y-42700000D03*
G04 #@! TO.N,/SPI_MISO*
X181500000Y-44000000D03*
X181400000Y-53900000D03*
G04 #@! TO.N,/ESP_IO14_EXT*
X156700000Y-53800000D03*
X139100000Y-49000000D03*
G04 #@! TO.N,/RGB_DATA*
X157900000Y-54200000D03*
X157900000Y-58300000D03*
G04 #@! TO.N,/ESP_IO38_EXT*
X165900000Y-45300000D03*
G04 #@! TO.N,/ESP_IO39_EXT*
X146400000Y-54500000D03*
X147524263Y-55624266D03*
X166689117Y-45431520D03*
G04 #@! TO.N,/ESP_IO40_EXT*
X167500000Y-45400000D03*
G04 #@! TO.N,/ESP_IO41_EXT*
X142060000Y-63600000D03*
X140900000Y-61100000D03*
X168300000Y-45400000D03*
G04 #@! TO.N,/ESP_IO42_EXT*
X169200000Y-45300000D03*
X140800000Y-65700000D03*
X142636397Y-64463603D03*
G04 #@! TO.N,/ESP_IO2_EXT*
X165700000Y-36600000D03*
X141800000Y-38200000D03*
G04 #@! TO.N,/ESP_IO1_EXT*
X131784265Y-42184265D03*
X165500000Y-35100000D03*
G04 #@! TO.N,/RGB_D63_DOUT*
X158711397Y-70888603D03*
X117700000Y-42500000D03*
G04 #@! TO.N,/RGB_D62_DOUT*
X165300000Y-72800000D03*
X165300000Y-74800000D03*
G04 #@! TO.N,/RGB_D60_DIN*
X155300000Y-62400000D03*
X155300000Y-59400000D03*
G04 #@! TO.N,/RGB_D60_DOUT*
X165500000Y-62800000D03*
X165400000Y-65200000D03*
G04 #@! TO.N,/RGB_D61_DOUT*
X158736397Y-60963603D03*
X155300000Y-72800000D03*
G04 #@! TD*
G04 #@! TO.N,/+5V*
D50*
X120475000Y-127000000D02*
X120475000Y-131800000D01*
X95300000Y-118900000D02*
X94600000Y-118900000D01*
X119600000Y-112750000D02*
X116000000Y-112750000D01*
X144600000Y-123550000D02*
X132350000Y-135800000D01*
X155875000Y-71125000D02*
X156000000Y-71000000D01*
X95300000Y-81700000D02*
X95300000Y-85600000D01*
X156977040Y-69925000D02*
X162550000Y-69925000D01*
X120475000Y-132825000D02*
X120475000Y-133300000D01*
X120475000Y-46425000D02*
X120475000Y-41625000D01*
X120475000Y-94425000D02*
X119600000Y-93550000D01*
X119600000Y-50350000D02*
X116000000Y-50350000D01*
X144600000Y-103930184D02*
X144600000Y-123550000D01*
X94550000Y-118950000D02*
X86050000Y-118950000D01*
X119600000Y-83950000D02*
X116000000Y-83950000D01*
X100700000Y-69300000D02*
X95300000Y-74700000D01*
X120475000Y-122400000D02*
X120475000Y-127000000D01*
X120475000Y-46425000D02*
X119600000Y-45550000D01*
X95700000Y-108300000D02*
X95900000Y-108100000D01*
X119600000Y-103150000D02*
X116000000Y-103150000D01*
X120475000Y-89625000D02*
X119600000Y-88750000D01*
X120475000Y-131800000D02*
X120475000Y-132825000D01*
X120475000Y-113625000D02*
X119600000Y-112750000D01*
X156000000Y-71000000D02*
X156000000Y-70902040D01*
X120425000Y-122350000D02*
X120475000Y-122400000D01*
X95300000Y-126650000D02*
X98350000Y-129700000D01*
X116000000Y-127150000D02*
X120325000Y-127150000D01*
X166875000Y-71125000D02*
X167000000Y-71000000D01*
X95300000Y-99000000D02*
X95300000Y-103900000D01*
X119600000Y-55150000D02*
X116000000Y-55150000D01*
X120475000Y-84825000D02*
X119600000Y-83950000D01*
X120475000Y-108825000D02*
X119600000Y-107950000D01*
X168862500Y-88500000D02*
X160030184Y-88500000D01*
X119600000Y-93550000D02*
X116000000Y-93550000D01*
X95900000Y-108100000D02*
X98450000Y-108100000D01*
X120475000Y-71600000D02*
X118600000Y-71600000D01*
X120475000Y-99225000D02*
X119600000Y-98350000D01*
X119600000Y-79150000D02*
X116000000Y-79150000D01*
X120475000Y-75225000D02*
X120475000Y-71600000D01*
X120475000Y-117400000D02*
X120475000Y-122400000D01*
X95400000Y-104000000D02*
X98350000Y-104000000D01*
X120475000Y-113625000D02*
X120475000Y-108825000D01*
X148450000Y-64700000D02*
X148450000Y-65825000D01*
X120475000Y-56025000D02*
X119600000Y-55150000D01*
X95300000Y-76800000D02*
X95300000Y-81700000D01*
X120475000Y-60825000D02*
X119600000Y-59950000D01*
X120325000Y-117550000D02*
X120475000Y-117400000D01*
X95300000Y-124800000D02*
X95500000Y-125000000D01*
X120475000Y-104025000D02*
X119600000Y-103150000D01*
X120475000Y-41625000D02*
X119600000Y-40750000D01*
X160030184Y-88500000D02*
X144600000Y-103930184D01*
X120475000Y-117400000D02*
X120475000Y-113625000D01*
X100700000Y-38850000D02*
X99250000Y-40300000D01*
X120475000Y-71600000D02*
X120475000Y-70425000D01*
X153875000Y-61000000D02*
X153750000Y-61125000D01*
X155950000Y-60902040D02*
X156927040Y-59925000D01*
X120475000Y-70425000D02*
X119600000Y-69550000D01*
X94600000Y-118900000D02*
X94550000Y-118950000D01*
X99250000Y-40300000D02*
X99250000Y-67850000D01*
X119600000Y-88750000D02*
X116000000Y-88750000D01*
X120475000Y-65625000D02*
X119600000Y-64750000D01*
X95300000Y-85600000D02*
X95300000Y-99000000D01*
X120475000Y-65625000D02*
X120475000Y-60825000D01*
X119600000Y-98350000D02*
X116000000Y-98350000D01*
D51*
X168975000Y-75500000D02*
X150200000Y-75500000D01*
D50*
X148450000Y-65825000D02*
X153750000Y-71125000D01*
X148450000Y-60500000D02*
X148450000Y-64700000D01*
X119600000Y-69550000D02*
X116000000Y-69550000D01*
X116000000Y-122350000D02*
X120425000Y-122350000D01*
X162550000Y-69925000D02*
X163750000Y-71125000D01*
X120475000Y-70425000D02*
X120475000Y-65625000D01*
X94700000Y-76800000D02*
X94550000Y-76950000D01*
X163060051Y-88500000D02*
X168862500Y-88500000D01*
X155950000Y-61000000D02*
X153875000Y-61000000D01*
X120475000Y-133300000D02*
X122975000Y-135800000D01*
X95300000Y-124800000D02*
X95300000Y-126650000D01*
X120475000Y-51225000D02*
X119600000Y-50350000D01*
X156000000Y-70902040D02*
X156977040Y-69925000D01*
X162550000Y-59925000D02*
X163750000Y-61125000D01*
X96100000Y-81800000D02*
X98150000Y-81800000D01*
X153750000Y-61125000D02*
X152725000Y-60100000D01*
D51*
X150200000Y-75500000D02*
X150130025Y-75569975D01*
D50*
X99250000Y-67850000D02*
X100700000Y-69300000D01*
X95300000Y-76800000D02*
X94700000Y-76800000D01*
X163750000Y-61125000D02*
X166600000Y-61125000D01*
X95300000Y-118900000D02*
X95300000Y-124800000D01*
X95300000Y-108300000D02*
X95700000Y-108300000D01*
X120475000Y-80025000D02*
X120475000Y-75225000D01*
X95300000Y-85600000D02*
X95600000Y-85300000D01*
X150130025Y-75569975D02*
X163060051Y-88500000D01*
X120475000Y-80025000D02*
X119600000Y-79150000D01*
X120475000Y-56025000D02*
X120475000Y-51225000D01*
X148450000Y-64700000D02*
X148450000Y-73889949D01*
X116000000Y-131950000D02*
X120325000Y-131950000D01*
X120475000Y-99225000D02*
X120475000Y-94425000D01*
X153750000Y-71125000D02*
X155875000Y-71125000D01*
X94550000Y-76950000D02*
X86050000Y-76950000D01*
X95500000Y-125000000D02*
X97750000Y-125000000D01*
X95300000Y-74700000D02*
X95300000Y-76800000D01*
X95600000Y-85300000D02*
X98275000Y-85300000D01*
X95300000Y-103900000D02*
X95400000Y-104000000D01*
X119600000Y-59950000D02*
X116000000Y-59950000D01*
X119600000Y-107950000D02*
X116000000Y-107950000D01*
X95300000Y-99000000D02*
X95250000Y-98950000D01*
X163750000Y-71125000D02*
X166875000Y-71125000D01*
X119600000Y-74350000D02*
X116000000Y-74350000D01*
X119600000Y-40750000D02*
X116000000Y-40750000D01*
X120325000Y-131950000D02*
X120475000Y-131800000D01*
X156927040Y-59925000D02*
X162550000Y-59925000D01*
X95300000Y-81700000D02*
X96000000Y-81700000D01*
X120325000Y-127150000D02*
X120475000Y-127000000D01*
X120475000Y-84825000D02*
X120475000Y-80025000D01*
X120475000Y-51225000D02*
X120475000Y-46425000D01*
X120475000Y-75225000D02*
X119600000Y-74350000D01*
X120475000Y-60825000D02*
X120475000Y-56025000D01*
X120475000Y-94425000D02*
X120475000Y-89625000D01*
X116000000Y-117550000D02*
X120325000Y-117550000D01*
X95300000Y-108300000D02*
X95300000Y-118900000D01*
X120475000Y-104025000D02*
X120475000Y-99225000D01*
X96000000Y-81700000D02*
X96100000Y-81800000D01*
X95300000Y-103900000D02*
X95300000Y-108300000D01*
X120475000Y-89625000D02*
X120475000Y-84825000D01*
X119600000Y-45550000D02*
X116000000Y-45550000D01*
X148850000Y-60100000D02*
X148450000Y-60500000D01*
X119600000Y-64750000D02*
X116000000Y-64750000D01*
X120475000Y-108825000D02*
X120475000Y-104025000D01*
X95250000Y-98950000D02*
X86050000Y-98950000D01*
X148450000Y-73889949D02*
X150130025Y-75569975D01*
X166600000Y-61125000D02*
X166725000Y-61000000D01*
X122975000Y-135800000D02*
X132200000Y-135800000D01*
X152725000Y-60100000D02*
X148850000Y-60100000D01*
X155950000Y-61000000D02*
X155950000Y-60902040D01*
G04 #@! TO.N,/GND*
X110100000Y-85700000D02*
X109800000Y-86000000D01*
D52*
X179600000Y-41400000D02*
X177525000Y-41400000D01*
D50*
X160250000Y-62875000D02*
X161475000Y-64100000D01*
X107550000Y-61700000D02*
X107450000Y-61800000D01*
X122025000Y-123225000D02*
X122025000Y-128025000D01*
D52*
X175700000Y-75800000D02*
X175700000Y-80200000D01*
D50*
X175700000Y-133500000D02*
X175700000Y-132000000D01*
X121587500Y-40712500D02*
X122025000Y-41150000D01*
X112500000Y-42500000D02*
X107550000Y-42500000D01*
X143400000Y-76000000D02*
X140400000Y-76000000D01*
X175700000Y-132000000D02*
X169500000Y-132000000D01*
X109800000Y-129100000D02*
X109800000Y-127300000D01*
D52*
X175600000Y-75700000D02*
X175700000Y-75800000D01*
X177500000Y-55275000D02*
X175554070Y-55275000D01*
D50*
X112500000Y-95300000D02*
X109900000Y-95300000D01*
X122025000Y-60825000D02*
X122025000Y-62400000D01*
X112500000Y-128900000D02*
X110000000Y-128900000D01*
X122025000Y-113625000D02*
X122025000Y-118425000D01*
X107650000Y-47300000D02*
X107550000Y-47400000D01*
X109800000Y-86000000D02*
X109800000Y-83700000D01*
X122025000Y-84825000D02*
X122025000Y-89625000D01*
D51*
X109700000Y-120300000D02*
X109800000Y-120400000D01*
D52*
X179525000Y-51375000D02*
X177500000Y-51375000D01*
D50*
X163450000Y-33940000D02*
X161620000Y-33940000D01*
D52*
X105400000Y-127200000D02*
X105400000Y-127300000D01*
D50*
X109800000Y-78300000D02*
X109800000Y-76000000D01*
X110100000Y-114500000D02*
X109800000Y-114800000D01*
X168275000Y-61475000D02*
X168275000Y-61000000D01*
D52*
X107200000Y-83900000D02*
X109600000Y-83900000D01*
X104162500Y-82450000D02*
X104162500Y-83662500D01*
X175554070Y-55275000D02*
X169829070Y-61000000D01*
D50*
X107550000Y-42500000D02*
X107550000Y-41100000D01*
X109800000Y-76000000D02*
X109800000Y-71100000D01*
X161475000Y-64100000D02*
X165650000Y-64100000D01*
X181400000Y-133500000D02*
X175700000Y-133500000D01*
X112500000Y-104900000D02*
X109900000Y-104900000D01*
X150250000Y-62875000D02*
X151275000Y-63900000D01*
D51*
X104125000Y-105150000D02*
X104125000Y-105425000D01*
D50*
X109800000Y-80700000D02*
X109800000Y-78300000D01*
X108925000Y-39725000D02*
X120600000Y-39725000D01*
X107550000Y-41100000D02*
X108925000Y-39725000D01*
D52*
X106800000Y-127300000D02*
X109800000Y-127300000D01*
D50*
X109800000Y-90500000D02*
X109800000Y-86000000D01*
X145950000Y-33940000D02*
X139180000Y-33940000D01*
X157200000Y-63400000D02*
X156425000Y-62625000D01*
X151275000Y-63900000D02*
X155150000Y-63900000D01*
X109900000Y-76100000D02*
X109800000Y-76000000D01*
X168550000Y-71097960D02*
X168550000Y-71000000D01*
X107550000Y-52100000D02*
X106750000Y-51300000D01*
X169500000Y-132000000D02*
X169500000Y-133400000D01*
X109800000Y-119000000D02*
X109800000Y-114800000D01*
X192255000Y-123695000D02*
X193170000Y-122780000D01*
X171662499Y-71000000D02*
X175587500Y-74925001D01*
X120600000Y-39725000D02*
X121587500Y-40712500D01*
X106750000Y-51300000D02*
X100700000Y-51300000D01*
X109800000Y-104800000D02*
X109800000Y-100200000D01*
X112500000Y-85700000D02*
X110100000Y-85700000D01*
X110000000Y-128900000D02*
X109800000Y-129100000D01*
X122025000Y-56025000D02*
X122025000Y-60825000D01*
X112500000Y-80900000D02*
X110000000Y-80900000D01*
X109800000Y-83700000D02*
X109800000Y-81400000D01*
X161620000Y-33940000D02*
X153900000Y-41660000D01*
X124287500Y-40712500D02*
X129770000Y-35230000D01*
X122025000Y-62400000D02*
X133580000Y-62400000D01*
D52*
X175600000Y-75400000D02*
X175600000Y-75700000D01*
D50*
X112500000Y-52100000D02*
X107550000Y-52100000D01*
X139180000Y-33940000D02*
X136440000Y-36680000D01*
D52*
X177525000Y-41400000D02*
X177500000Y-41375000D01*
D50*
X112500000Y-109700000D02*
X109800000Y-109700000D01*
X184040000Y-133500000D02*
X184070000Y-133470000D01*
X112500000Y-71300000D02*
X110000000Y-71300000D01*
X142450000Y-127850000D02*
X142400000Y-127900000D01*
X181400000Y-133500000D02*
X184040000Y-133500000D01*
X160650000Y-127850000D02*
X147975000Y-115175000D01*
X122025000Y-51225000D02*
X122025000Y-56025000D01*
X112500000Y-76100000D02*
X109900000Y-76100000D01*
X165747960Y-73900000D02*
X168550000Y-71097960D01*
X192255000Y-130505000D02*
X193170000Y-131420000D01*
D51*
X177500000Y-54625000D02*
X177500000Y-55275000D01*
D50*
X109800000Y-100200000D02*
X109800000Y-95400000D01*
X110000000Y-71300000D02*
X109800000Y-71100000D01*
X160250000Y-72875000D02*
X161275000Y-73900000D01*
X129770000Y-35230000D02*
X136192081Y-35230000D01*
D52*
X106900000Y-106400000D02*
X109600000Y-106400000D01*
D50*
X169500000Y-133400000D02*
X167850000Y-135050000D01*
X147975000Y-115175000D02*
X147975000Y-106405000D01*
D52*
X192255000Y-130350000D02*
X192255000Y-130505000D01*
D50*
X155150000Y-63900000D02*
X156425000Y-62625000D01*
X109800000Y-109700000D02*
X109800000Y-106600000D01*
X107550000Y-52100000D02*
X107550000Y-47400000D01*
D52*
X177500000Y-55275000D02*
X179575000Y-55275000D01*
D51*
X109600000Y-83900000D02*
X109800000Y-83700000D01*
D50*
X122025000Y-89625000D02*
X122025000Y-94425000D01*
D52*
X179025000Y-44625000D02*
X179600000Y-45200000D01*
D50*
X109800000Y-64150000D02*
X107450000Y-61800000D01*
X168550000Y-71000000D02*
X171662499Y-71000000D01*
X112500000Y-124100000D02*
X109900000Y-124100000D01*
D51*
X105625000Y-100000000D02*
X109800000Y-100000000D01*
D50*
X107450000Y-57100000D02*
X107450000Y-52200000D01*
D52*
X179600000Y-51300000D02*
X179525000Y-51375000D01*
X177500000Y-45275000D02*
X179525000Y-45275000D01*
D50*
X155472793Y-73900000D02*
X157550000Y-71822793D01*
X151275000Y-73900000D02*
X155472793Y-73900000D01*
X122025000Y-70425000D02*
X122025000Y-75225000D01*
X122025000Y-118425000D02*
X122025000Y-123225000D01*
X109900000Y-95300000D02*
X109800000Y-95400000D01*
X165650000Y-64100000D02*
X168275000Y-61475000D01*
X112500000Y-114500000D02*
X110100000Y-114500000D01*
X150250000Y-72875000D02*
X151275000Y-73900000D01*
X167850000Y-135050000D02*
X160650000Y-127850000D01*
D52*
X104125000Y-105425000D02*
X105100000Y-106400000D01*
D50*
X122025000Y-41625000D02*
X122025000Y-46425000D01*
D52*
X179575000Y-55275000D02*
X179600000Y-55300000D01*
D50*
X121587500Y-40712500D02*
X124287500Y-40712500D01*
X112500000Y-90500000D02*
X109800000Y-90500000D01*
D52*
X169829070Y-61000000D02*
X168275000Y-61000000D01*
D50*
X145950000Y-33940000D02*
X147580000Y-33940000D01*
X181400000Y-133500000D02*
X182900000Y-132000000D01*
X136192081Y-35230000D02*
X136440000Y-35477919D01*
X109800000Y-95400000D02*
X109800000Y-90500000D01*
X110000000Y-80900000D02*
X109800000Y-80700000D01*
X153200000Y-39560000D02*
X153200000Y-41660000D01*
D51*
X104162500Y-83662500D02*
X104400000Y-83900000D01*
D50*
X109800000Y-66300000D02*
X109800000Y-64150000D01*
X109800000Y-120400000D02*
X109800000Y-119000000D01*
X157500000Y-61000000D02*
X159375000Y-62875000D01*
X112500000Y-66500000D02*
X110000000Y-66500000D01*
X109800000Y-71100000D02*
X109800000Y-66300000D01*
X157550000Y-71822793D02*
X157550000Y-71000000D01*
X107550000Y-52100000D02*
X107450000Y-52200000D01*
X168275000Y-70275000D02*
X168275000Y-61000000D01*
X112500000Y-61700000D02*
X107550000Y-61700000D01*
X112500000Y-100100000D02*
X109900000Y-100100000D01*
X157200000Y-63900000D02*
X157200000Y-63400000D01*
D51*
X106025000Y-120300000D02*
X109700000Y-120300000D01*
X109600000Y-106400000D02*
X109800000Y-106600000D01*
D50*
X107550000Y-41100000D02*
X105300000Y-38850000D01*
D51*
X104850000Y-78300000D02*
X109800000Y-78300000D01*
D50*
X122025000Y-80025000D02*
X122025000Y-84825000D01*
D51*
X109800000Y-100000000D02*
X109900000Y-100100000D01*
D50*
X122025000Y-75225000D02*
X122025000Y-80025000D01*
X133580000Y-62400000D02*
X136440000Y-59540000D01*
X107550000Y-47400000D02*
X107550000Y-42500000D01*
X109800000Y-106600000D02*
X109800000Y-104800000D01*
X112500000Y-119300000D02*
X110100000Y-119300000D01*
X107450000Y-61800000D02*
X107450000Y-57100000D01*
X136440000Y-35477919D02*
X136440000Y-36680000D01*
X109800000Y-133300000D02*
X109800000Y-129100000D01*
X157550000Y-71000000D02*
X159425000Y-72875000D01*
X147580000Y-33940000D02*
X153200000Y-39560000D01*
X110000000Y-66500000D02*
X109800000Y-66300000D01*
X110200000Y-133700000D02*
X109800000Y-133300000D01*
D52*
X177500000Y-44625000D02*
X179025000Y-44625000D01*
D50*
X122025000Y-99225000D02*
X122025000Y-104025000D01*
X159425000Y-72875000D02*
X160250000Y-72875000D01*
X109900000Y-104900000D02*
X109800000Y-104800000D01*
X159375000Y-62875000D02*
X160250000Y-62875000D01*
X109800000Y-124000000D02*
X109800000Y-122000000D01*
X107650000Y-56900000D02*
X107450000Y-57100000D01*
X109800000Y-81400000D02*
X109800000Y-80700000D01*
X157500000Y-61550000D02*
X157500000Y-61000000D01*
X109900000Y-124100000D02*
X109800000Y-124000000D01*
X109800000Y-127300000D02*
X109800000Y-124000000D01*
X112500000Y-47300000D02*
X107650000Y-47300000D01*
D52*
X104225000Y-126025000D02*
X105400000Y-127200000D01*
D50*
X122025000Y-65625000D02*
X122025000Y-70425000D01*
X122025000Y-41150000D02*
X122025000Y-41625000D01*
X123700000Y-128000000D02*
X122050000Y-128000000D01*
X175587500Y-74925001D02*
X175587500Y-75400000D01*
X109800000Y-114800000D02*
X109800000Y-109700000D01*
D52*
X192255000Y-123850000D02*
X192255000Y-123695000D01*
D50*
X110100000Y-119300000D02*
X109800000Y-119000000D01*
X122025000Y-108825000D02*
X122025000Y-113625000D01*
X109800000Y-122000000D02*
X109800000Y-120400000D01*
X161275000Y-73900000D02*
X165747960Y-73900000D01*
X112500000Y-56900000D02*
X107650000Y-56900000D01*
X168550000Y-71000000D02*
X168550000Y-70550000D01*
X109900000Y-100100000D02*
X109800000Y-100200000D01*
X122025000Y-62400000D02*
X122025000Y-65625000D01*
X122025000Y-128025000D02*
X122025000Y-132825000D01*
X112500000Y-133700000D02*
X110200000Y-133700000D01*
X122025000Y-104025000D02*
X122025000Y-108825000D01*
X156425000Y-62625000D02*
X157500000Y-61550000D01*
D52*
X179525000Y-45275000D02*
X179600000Y-45200000D01*
D50*
X122025000Y-94425000D02*
X122025000Y-99225000D01*
X122025000Y-46425000D02*
X122025000Y-51225000D01*
X168550000Y-70550000D02*
X168275000Y-70275000D01*
X160650000Y-127850000D02*
X142450000Y-127850000D01*
G04 #@! TO.N,/RS485_UART_RX*
D51*
X143025000Y-102595000D02*
X130795000Y-102595000D01*
X145000000Y-44100000D02*
X145950000Y-44100000D01*
X125800000Y-45500000D02*
X128210000Y-45500000D01*
X128260000Y-45450000D02*
X143650000Y-45450000D01*
X143650000Y-45450000D02*
X145000000Y-44100000D01*
X125400000Y-64923768D02*
X125788484Y-64535284D01*
X125400000Y-97200000D02*
X125400000Y-64923768D01*
X128210000Y-45500000D02*
X128260000Y-45450000D01*
X130795000Y-102595000D02*
X125400000Y-97200000D01*
G04 #@! TO.N,/RS485_DE*
X124900000Y-64500003D02*
X125000003Y-64400000D01*
X143025000Y-105135000D02*
X131135000Y-105135000D01*
X124998696Y-44501304D02*
X127100000Y-44501304D01*
X127100000Y-44501304D02*
X127326304Y-44275000D01*
X131123654Y-42910000D02*
X139840000Y-42910000D01*
X124900000Y-98900000D02*
X124900000Y-64500003D01*
X124700000Y-44800000D02*
X124998696Y-44501304D01*
X127326304Y-44275000D02*
X129758654Y-44275000D01*
X129758654Y-44275000D02*
X131123654Y-42910000D01*
X145000000Y-37750000D02*
X145950000Y-37750000D01*
X143025000Y-105135000D02*
X143025000Y-103865000D01*
X131135000Y-105135000D02*
X124900000Y-98900000D01*
X139840000Y-42910000D02*
X145000000Y-37750000D01*
G04 #@! TO.N,/RS485_UART_TX*
X145000000Y-45370000D02*
X145950000Y-45370000D01*
X143025000Y-106405000D02*
X131005000Y-106405000D01*
X124200000Y-99600000D02*
X124200000Y-64400000D01*
X131005000Y-106405000D02*
X124200000Y-99600000D01*
X124200000Y-48100000D02*
X127600000Y-48100000D01*
X142259998Y-48110002D02*
X145000000Y-45370000D01*
X127610002Y-48110002D02*
X142259998Y-48110002D01*
X127600000Y-48100000D02*
X127610002Y-48110002D01*
G04 #@! TO.N,/RS485_A*
X181530000Y-102000000D02*
X172300000Y-102000000D01*
X161000000Y-118400000D02*
X158800000Y-116200000D01*
X158800000Y-116200000D02*
X158800000Y-116100000D01*
X165900000Y-120500000D02*
X165700000Y-120700000D01*
X166800000Y-113400000D02*
X165900000Y-112500000D01*
X148949999Y-105135000D02*
X150500000Y-106685001D01*
X170400000Y-113400000D02*
X166800000Y-113400000D01*
X165900000Y-118500000D02*
X165900000Y-120500000D01*
X172300000Y-111500000D02*
X170400000Y-113400000D01*
X165900000Y-118500000D02*
X165900000Y-112500000D01*
X186110000Y-97420000D02*
X181530000Y-102000000D01*
X172300000Y-102000000D02*
X172300000Y-111500000D01*
X147975000Y-105135000D02*
X148949999Y-105135000D01*
X150500000Y-106685001D02*
X150500000Y-107400000D01*
G04 #@! TO.N,/RS485_B*
X168600000Y-111600000D02*
X169500000Y-112500000D01*
X176000000Y-96500000D02*
X175000000Y-96500000D01*
X188650000Y-96150000D02*
X177200000Y-96150000D01*
X163925000Y-107075000D02*
X174640000Y-96360000D01*
X161125000Y-104275000D02*
X163925000Y-107075000D01*
X165900000Y-125000000D02*
X165000000Y-124100000D01*
X175000000Y-96500000D02*
X175960000Y-96500000D01*
X163925000Y-107075000D02*
X169350000Y-112500000D01*
X165000000Y-111600000D02*
X168600000Y-111600000D01*
X148385000Y-104275000D02*
X161125000Y-104275000D01*
X147975000Y-103865000D02*
X148385000Y-104275000D01*
X177200000Y-96150000D02*
X176350000Y-96150000D01*
X177200000Y-96150000D02*
X176310000Y-96150000D01*
X174640000Y-96360000D02*
X176100000Y-96360000D01*
X165000000Y-124100000D02*
X165000000Y-111600000D01*
G04 #@! TO.N,/+3V3*
X169409744Y-90500000D02*
X169725000Y-90184744D01*
X188700000Y-54500000D02*
X188575000Y-54625000D01*
X184500000Y-54625000D02*
X184500000Y-55275000D01*
X157375000Y-103500000D02*
X157375000Y-99100000D01*
X142076346Y-35210000D02*
X141493173Y-35793173D01*
X183250000Y-44243456D02*
X183250000Y-41450000D01*
X184500000Y-45275000D02*
X184500000Y-44625000D01*
X183250000Y-41450000D02*
X180200000Y-38400000D01*
X188575000Y-54625000D02*
X186300000Y-54625000D01*
D50*
X184400000Y-44900000D02*
X184500000Y-45000000D01*
D51*
X145950000Y-35210000D02*
X142076346Y-35210000D01*
X169725000Y-81700000D02*
X169725000Y-80950000D01*
X127775000Y-43500000D02*
X129620000Y-43500000D01*
X129620000Y-43500000D02*
X133900000Y-39220000D01*
X183631544Y-44625000D02*
X183250000Y-44243456D01*
D53*
X103950000Y-36900000D02*
X123700000Y-36900000D01*
D51*
X141493173Y-35793173D02*
X136916346Y-40370000D01*
X156470000Y-102595000D02*
X157375000Y-103500000D01*
X184500000Y-45275000D02*
X188075000Y-45275000D01*
X169725000Y-80950000D02*
X168875000Y-80100000D01*
X135050000Y-40370000D02*
X133900000Y-39220000D01*
X184500000Y-45000000D02*
X184500000Y-44625000D01*
X147975000Y-102595000D02*
X156470000Y-102595000D01*
X186300000Y-70802186D02*
X186300000Y-54625000D01*
D53*
X103000000Y-38850000D02*
X103000000Y-37850000D01*
D51*
X169725000Y-90184744D02*
X169725000Y-81700000D01*
X165975000Y-90500000D02*
X169409744Y-90500000D01*
X184500000Y-44625000D02*
X183631544Y-44625000D01*
X188075000Y-45275000D02*
X189900000Y-47100000D01*
D53*
X103000000Y-45150000D02*
X103000000Y-38850000D01*
D51*
X169725000Y-81700000D02*
X175402186Y-81700000D01*
X157475000Y-99000000D02*
X165975000Y-90500000D01*
X136916346Y-40370000D02*
X135050000Y-40370000D01*
X142075000Y-36375000D02*
X141493173Y-35793173D01*
D53*
X123700000Y-36900000D02*
X124200000Y-37400000D01*
D51*
X186300000Y-54625000D02*
X184500000Y-54625000D01*
X175402186Y-81700000D02*
X186300000Y-70802186D01*
X184500000Y-45275000D02*
X184500000Y-45000000D01*
D53*
X103000000Y-37850000D02*
X103950000Y-36900000D01*
G04 #@! TO.N,/RGB_D77_DOUT*
D51*
X112500000Y-103150000D02*
X114000000Y-104650000D01*
X114000000Y-107700000D02*
X116000000Y-109700000D01*
X114000000Y-104650000D02*
X114000000Y-107700000D01*
G04 #@! TO.N,/RGB_D76_DOUT*
X112500000Y-98350000D02*
X114000000Y-99850000D01*
X114000000Y-99850000D02*
X114000000Y-102900000D01*
X114000000Y-102900000D02*
X116000000Y-104900000D01*
G04 #@! TO.N,/ESP_IO0_BOOT*
X129300000Y-78200000D02*
X129300000Y-77021259D01*
X168850000Y-50450000D02*
X168900000Y-50400000D01*
X129300000Y-77021259D02*
X129321259Y-77000000D01*
X163450000Y-50450000D02*
X168850000Y-50450000D01*
X134100000Y-76300000D02*
X130021259Y-76300000D01*
X123100000Y-43500000D02*
X126225000Y-43500000D01*
X130021259Y-76300000D02*
X129321259Y-77000000D01*
G04 #@! TO.N,/L_IN*
D53*
X44900000Y-46820000D02*
X50820000Y-46820000D01*
X50820000Y-46820000D02*
X54100000Y-50100000D01*
X59100000Y-50100000D02*
X54100000Y-50100000D01*
G04 #@! TO.N,/N*
D50*
X57712500Y-41562500D02*
X57000000Y-40850000D01*
X47475887Y-40850000D02*
X42500000Y-45825887D01*
X42500000Y-45825887D02*
X42500000Y-49500000D01*
X57000000Y-40850000D02*
X47475887Y-40850000D01*
X62500000Y-41562500D02*
X57712500Y-41562500D01*
X42500000Y-49500000D02*
X44900000Y-51900000D01*
G04 #@! TO.N,/L_FUSED*
D53*
X51400000Y-65200000D02*
X54100000Y-67900000D01*
X67100000Y-48862500D02*
X74962500Y-41000000D01*
X59100000Y-65300000D02*
X67100000Y-57300000D01*
X54100000Y-67900000D02*
X59100000Y-67900000D01*
X59100000Y-67900000D02*
X59100000Y-65300000D01*
X67100000Y-57300000D02*
X67100000Y-48862500D01*
X45200000Y-65200000D02*
X51400000Y-65200000D01*
G04 #@! TO.N,/L_PUMP*
X54650000Y-76950000D02*
X44600000Y-87000000D01*
X73850000Y-76950000D02*
X54650000Y-76950000D01*
G04 #@! TO.N,/L_MIX_OPEN*
X63800000Y-108900000D02*
X44700000Y-108900000D01*
X73850000Y-118950000D02*
X63800000Y-108900000D01*
G04 #@! TO.N,/L_MIX_CLOSE*
X73800000Y-131000000D02*
X61720000Y-131000000D01*
X61720000Y-131000000D02*
X44700000Y-113980000D01*
G04 #@! TO.N,/RTD_VL_FORCE_PLUS*
D52*
X194800000Y-46750000D02*
X189062500Y-41012500D01*
D51*
X183425000Y-39000000D02*
X184500000Y-40075000D01*
D52*
X184500000Y-42675000D02*
X184500000Y-42025000D01*
D51*
X184500000Y-40725000D02*
X187612500Y-40725000D01*
X183425000Y-35500000D02*
X183425000Y-39000000D01*
D52*
X189062500Y-41012500D02*
X187900000Y-41012500D01*
X184500000Y-42025000D02*
X184500000Y-40075000D01*
G04 #@! TO.N,/RTD_VL_FORCE_MINUS*
D51*
X182850000Y-34725000D02*
X177500000Y-40075000D01*
X187050000Y-35500000D02*
X194800000Y-43250000D01*
X177500000Y-40725000D02*
X177500000Y-40075000D01*
X184200000Y-34725000D02*
X182850000Y-34725000D01*
X184975000Y-35500000D02*
X187050000Y-35500000D01*
X184975000Y-35500000D02*
X184200000Y-34725000D01*
G04 #@! TO.N,/RTD_RL_FORCE_PLUS*
X184500000Y-50725000D02*
X188087500Y-50725000D01*
X184500000Y-51375000D02*
X184500000Y-52025000D01*
X184500000Y-50075000D02*
X184500000Y-50725000D01*
X184500000Y-52025000D02*
X184500000Y-52675000D01*
X189925000Y-50375000D02*
X194800000Y-55250000D01*
X186650000Y-48625000D02*
X188400000Y-50375000D01*
X188400000Y-50375000D02*
X189925000Y-50375000D01*
X188087500Y-50725000D02*
X188400000Y-50412500D01*
X186650000Y-48000000D02*
X186650000Y-48625000D01*
X184500000Y-50725000D02*
X184500000Y-51375000D01*
G04 #@! TO.N,/RTD_RL_FORCE_MINUS*
X187425000Y-47225000D02*
X180350000Y-47225000D01*
X188200000Y-48000000D02*
X191050000Y-48000000D01*
X188200000Y-48000000D02*
X187425000Y-47225000D01*
X177500000Y-50725000D02*
X177500000Y-50075000D01*
X191050000Y-48000000D02*
X194800000Y-51750000D01*
X180350000Y-47225000D02*
X177500000Y-50075000D01*
G04 #@! TO.N,/RS485_GND*
D50*
X186110000Y-75340000D02*
X187380000Y-75340000D01*
X192500000Y-106200000D02*
X194800000Y-108500000D01*
X192500000Y-89760000D02*
X192500000Y-85800000D01*
X187380000Y-68420000D02*
X194800000Y-61000000D01*
X192500000Y-85800000D02*
X192500000Y-106200000D01*
X194800000Y-108500000D02*
X184800000Y-118500000D01*
X169500000Y-125000000D02*
X167900000Y-126600000D01*
X187380000Y-75340000D02*
X187380000Y-68420000D01*
X187380000Y-75340000D02*
X188650000Y-76610000D01*
X192500000Y-80460000D02*
X188650000Y-76610000D01*
X184800000Y-118500000D02*
X169500000Y-118500000D01*
X192500000Y-85800000D02*
X192500000Y-80460000D01*
X169500000Y-118500000D02*
X169500000Y-125000000D01*
X188650000Y-93610000D02*
X192500000Y-89760000D01*
X187380000Y-92340000D02*
X188650000Y-93610000D01*
X186110000Y-92340000D02*
X187380000Y-92340000D01*
X167900000Y-126600000D02*
X167900000Y-132000000D01*
G04 #@! TO.N,/USB_CC1*
D51*
X177800000Y-131500000D02*
X177300000Y-132000000D01*
X177800000Y-130900000D02*
X177800000Y-131500000D01*
X190200000Y-128350000D02*
X192255000Y-128350000D01*
G04 #@! TO.N,/USB_CC2*
X190400000Y-125350000D02*
X192255000Y-125350000D01*
X187700000Y-126221574D02*
X184525000Y-129396574D01*
X187700000Y-125542784D02*
X187700000Y-126221574D01*
X184525000Y-129396574D02*
X184525000Y-132000000D01*
G04 #@! TO.N,/RS485_TERM*
X174700000Y-99040000D02*
X174800000Y-99040000D01*
X173660000Y-99040000D02*
X170700000Y-102000000D01*
X174700000Y-99040000D02*
X173660000Y-99040000D01*
X174800000Y-99040000D02*
X174940000Y-98900000D01*
X176000000Y-99040000D02*
X174700000Y-99040000D01*
X174940000Y-98900000D02*
X176100000Y-98900000D01*
G04 #@! TO.N,/MAINS_LED_SERIES*
D50*
X70050000Y-41000000D02*
X71950000Y-41000000D01*
G04 #@! TO.N,/BUS_5V*
X173100000Y-88500000D02*
X173100000Y-85600000D01*
X173200000Y-85500000D02*
X174000000Y-85500000D01*
X173100000Y-85600000D02*
X173200000Y-85500000D01*
G04 #@! TO.N,/USB_VBUS*
D52*
X192255000Y-129550000D02*
X189121370Y-129550000D01*
X184100000Y-136400000D02*
X184250000Y-136250000D01*
D50*
X184650000Y-136250000D02*
X189121370Y-131778630D01*
D52*
X192255000Y-124650000D02*
X189650000Y-124650000D01*
D50*
X184250000Y-136250000D02*
X184650000Y-136250000D01*
X189121370Y-125178630D02*
X189650000Y-124650000D01*
X136250000Y-136400000D02*
X135700000Y-135850000D01*
X184100000Y-136400000D02*
X136250000Y-136400000D01*
X189121370Y-131778630D02*
X189121370Y-129550000D01*
X189121370Y-129550000D02*
X189121370Y-125178630D01*
G04 #@! TO.N,/PUMP_DRV_GPIO*
D51*
X169080000Y-49180000D02*
X169200000Y-49300000D01*
D52*
X163450000Y-49180000D02*
X169080000Y-49180000D01*
X98400000Y-77900000D02*
X100000000Y-76300000D01*
X98400000Y-78300000D02*
X98400000Y-77900000D01*
G04 #@! TO.N,/PUMP_DRV*
D51*
X104162500Y-80550000D02*
X103200000Y-79587500D01*
X103200000Y-79587500D02*
X103200000Y-78300000D01*
X100050000Y-78300000D02*
X103200000Y-78300000D01*
G04 #@! TO.N,/PUMP_COIL_DRV*
D52*
X106037500Y-81500000D02*
X106037500Y-85150000D01*
X101450000Y-83250000D02*
X101000000Y-83700000D01*
X105437500Y-81500000D02*
X105737500Y-81800000D01*
X101750000Y-81500000D02*
X105437500Y-81500000D01*
D51*
X105737500Y-81800000D02*
X106037500Y-81500000D01*
D52*
X101450000Y-81800000D02*
X101450000Y-83250000D01*
X101450000Y-81800000D02*
X101750000Y-81500000D01*
G04 #@! TO.N,/LED_PUMP_K*
D51*
X104312500Y-85300000D02*
X99925000Y-85300000D01*
G04 #@! TO.N,/MIX_ENABLE_DRV_GPIO*
D52*
X98975000Y-99725000D02*
X100800000Y-97900000D01*
X169800000Y-48100000D02*
X169610000Y-47910000D01*
X169610000Y-47910000D02*
X163450000Y-47910000D01*
G04 #@! TO.N,/MIX_ENABLE_DRV*
D51*
X100625000Y-100000000D02*
X103975000Y-100000000D01*
X103975000Y-100000000D02*
X103975000Y-103100000D01*
G04 #@! TO.N,/MIX_ENABLE_COIL_DRV*
D52*
X101650000Y-104000000D02*
X105800000Y-104000000D01*
D51*
X101650000Y-105650000D02*
X101800000Y-105800000D01*
D52*
X106000000Y-104200000D02*
X106000000Y-108037500D01*
X101650000Y-104000000D02*
X101650000Y-105650000D01*
G04 #@! TO.N,/LED_MIX_ENABLE_K*
D51*
X100100000Y-108100000D02*
X104487500Y-108100000D01*
G04 #@! TO.N,/MIX_DIR_DRV_GPIO*
D52*
X170040000Y-46640000D02*
X163450000Y-46640000D01*
X170200000Y-46800000D02*
X170040000Y-46640000D01*
X170700000Y-46800000D02*
X170200000Y-46800000D01*
X98375000Y-120300000D02*
X98375000Y-118525000D01*
X98375000Y-118525000D02*
X98900000Y-118000000D01*
G04 #@! TO.N,/MIX_DIR_DRV*
D51*
X104375000Y-120300000D02*
X104225000Y-124050000D01*
X100025000Y-120300000D02*
X104375000Y-120300000D01*
G04 #@! TO.N,/MIX_DIR_COIL_DRV*
D52*
X106100000Y-125000000D02*
X106100000Y-129412500D01*
X101050000Y-125000000D02*
X101050000Y-126450000D01*
X101050000Y-125000000D02*
X106100000Y-125000000D01*
X101050000Y-126450000D02*
X101400000Y-126800000D01*
G04 #@! TO.N,/LED_MIX_DIR_K*
D51*
X100000000Y-129700000D02*
X104237500Y-129700000D01*
G04 #@! TO.N,/LED_5V_K*
X174012500Y-75400000D02*
X170725000Y-75400000D01*
G04 #@! TO.N,/LED_3V3_K*
X170525000Y-80100000D02*
X174012500Y-80100000D01*
G04 #@! TO.N,/LED_USB_TX_K*
X159125000Y-99000000D02*
X163912500Y-99000000D01*
G04 #@! TO.N,/LED_USB_RX_K*
X163912500Y-103500000D02*
X159025000Y-103500000D01*
G04 #@! TO.N,/MAINS_LED_K*
D50*
X62500000Y-43400000D02*
X64550000Y-43400000D01*
X64550000Y-43400000D02*
X66950000Y-41000000D01*
X57000000Y-44300000D02*
X61600000Y-44300000D01*
X61600000Y-44300000D02*
X62500000Y-43400000D01*
G04 #@! TO.N,/RGB_D82_DOUT*
D51*
X112500000Y-127150000D02*
X114000000Y-128650000D01*
X114000000Y-131700000D02*
X116000000Y-133700000D01*
X114000000Y-128650000D02*
X114000000Y-131700000D01*
G04 #@! TO.N,/RGB_D81_DOUT*
X114000000Y-123850000D02*
X114000000Y-126900000D01*
X114000000Y-126900000D02*
X116000000Y-128900000D01*
X112500000Y-122350000D02*
X114000000Y-123850000D01*
G04 #@! TO.N,/RTD_VL_BIAS*
D52*
X187900000Y-42587500D02*
X187162500Y-43325000D01*
X186512500Y-43975000D02*
X187900000Y-42587500D01*
X187162500Y-43325000D02*
X184500000Y-43325000D01*
X184500000Y-43975000D02*
X186512500Y-43975000D01*
G04 #@! TO.N,/RGB_D78_DOUT*
D51*
X114900000Y-110350000D02*
X114900000Y-113400000D01*
X114900000Y-113400000D02*
X116000000Y-114500000D01*
X112500000Y-107950000D02*
X114900000Y-110350000D01*
G04 #@! TO.N,/L_MIX_ENABLE*
D53*
X78800000Y-103900000D02*
X78800000Y-121067767D01*
X78800000Y-121067767D02*
X82732233Y-125000000D01*
X73850000Y-98950000D02*
X78800000Y-103900000D01*
X82732233Y-125000000D02*
X88000000Y-125000000D01*
G04 #@! TO.N,/RGB_D71_DOUT*
D51*
X112500000Y-74350000D02*
X113600000Y-75450000D01*
X113600000Y-78500000D02*
X116000000Y-80900000D01*
X113600000Y-75450000D02*
X113600000Y-78500000D01*
G04 #@! TO.N,/RGB_D70_DOUT*
X114000000Y-71050000D02*
X114000000Y-74100000D01*
X114000000Y-74100000D02*
X116000000Y-76100000D01*
X112500000Y-69550000D02*
X114000000Y-71050000D01*
G04 #@! TO.N,/ESP_EN*
X145950000Y-36480000D02*
X143745000Y-36480000D01*
G04 #@! TO.N,/ESP_IO5_EXT*
X140140000Y-44300000D02*
X145420000Y-39020000D01*
X136440000Y-44300000D02*
X140140000Y-44300000D01*
G04 #@! TO.N,/ESP_IO6_EXT*
X143844265Y-41444265D02*
X144998530Y-40290000D01*
X144998530Y-40290000D02*
X145950000Y-40290000D01*
X131460000Y-46840000D02*
X131400000Y-46900000D01*
X133900000Y-46840000D02*
X131460000Y-46840000D01*
G04 #@! TO.N,/ESP_IO7_EXT*
X139160000Y-46840000D02*
X139200000Y-46800000D01*
X136440000Y-46840000D02*
X139160000Y-46840000D01*
X144000000Y-42300000D02*
X144740000Y-41560000D01*
X144740000Y-41560000D02*
X145950000Y-41560000D01*
G04 #@! TO.N,/ESP_IO15_EXT*
X131820000Y-51920000D02*
X131300000Y-51400000D01*
X133900000Y-51920000D02*
X131820000Y-51920000D01*
X145580000Y-43200000D02*
X145950000Y-42830000D01*
X144400000Y-43200000D02*
X145580000Y-43200000D01*
G04 #@! TO.N,/ESP_IO18_EXT*
X138520000Y-51920000D02*
X138600000Y-52000000D01*
X144459265Y-46759265D02*
X145830735Y-46759265D01*
X136440000Y-51920000D02*
X138520000Y-51920000D01*
G04 #@! TO.N,/ESP_IO8_EXT*
X141324313Y-48510002D02*
X144399998Y-48510002D01*
X133900000Y-49380000D02*
X135050000Y-50530000D01*
X135050000Y-50530000D02*
X139304315Y-50530000D01*
X139304315Y-50530000D02*
X141324313Y-48510002D01*
X145000000Y-47910000D02*
X145950000Y-47910000D01*
X144399998Y-48510002D02*
X145000000Y-47910000D01*
G04 #@! TO.N,/USB_D-*
X191230000Y-127117590D02*
X191497590Y-126850000D01*
X170300000Y-126900000D02*
X176500000Y-126900000D01*
X126000000Y-78600000D02*
X139900000Y-64700000D01*
X191230000Y-127582410D02*
X191230000Y-127117590D01*
X139900000Y-64700000D02*
X139900000Y-50500000D01*
X190142445Y-126963473D02*
X190255918Y-126850000D01*
X141220000Y-49180000D02*
X145950000Y-49180000D01*
X139900000Y-50500000D02*
X141220000Y-49180000D01*
X191497590Y-126850000D02*
X192255000Y-126850000D01*
X192255000Y-127850000D02*
X191497590Y-127850000D01*
X190255918Y-126850000D02*
X192255000Y-126850000D01*
X191497590Y-127850000D02*
X191230000Y-127582410D01*
G04 #@! TO.N,/USB_D+*
X140300000Y-51800000D02*
X141650000Y-50450000D01*
X141650000Y-50450000D02*
X145950000Y-50450000D01*
X176493113Y-126106884D02*
X176500000Y-126099997D01*
X170404741Y-126106884D02*
X176493113Y-126106884D01*
X126796348Y-78676383D02*
X140300000Y-65172731D01*
X193012410Y-126350000D02*
X192255000Y-126350000D01*
X192255000Y-127350000D02*
X193012410Y-127350000D01*
X190604331Y-126350000D02*
X192255000Y-126350000D01*
X193012410Y-127350000D02*
X193280000Y-127082410D01*
X193280000Y-127082410D02*
X193280000Y-126617590D01*
X193280000Y-126617590D02*
X193012410Y-126350000D01*
X190504331Y-126250000D02*
X190604331Y-126350000D01*
X140300000Y-65172731D02*
X140300000Y-51800000D01*
G04 #@! TO.N,/ESP_IO3_EXT*
X133900000Y-44300000D02*
X131900000Y-44300000D01*
X147500000Y-54800000D02*
X147715000Y-54585000D01*
X147715000Y-54585000D02*
X147715000Y-51700000D01*
X131900000Y-44300000D02*
X131700000Y-44100000D01*
G04 #@! TO.N,/RTD_RL_CS*
X156035000Y-57200000D02*
X155935000Y-57100000D01*
X177500000Y-53325000D02*
X169975000Y-53325000D01*
X150200000Y-57200000D02*
X150255000Y-57145000D01*
X166100000Y-57200000D02*
X156035000Y-57200000D01*
X150255000Y-57145000D02*
X150255000Y-51700000D01*
X169975000Y-53325000D02*
X166100000Y-57200000D01*
G04 #@! TO.N,/RTD_VL_CS*
X156135009Y-54900000D02*
X155935000Y-54699991D01*
X151525000Y-54775000D02*
X151525000Y-51700000D01*
X151500000Y-54800000D02*
X151525000Y-54775000D01*
X175400000Y-44475001D02*
X175400000Y-51400000D01*
X176550001Y-43325000D02*
X175400000Y-44475001D01*
X168900000Y-51400000D02*
X165400000Y-54900000D01*
X165400000Y-54900000D02*
X156135009Y-54900000D01*
X177500000Y-43325000D02*
X176550001Y-43325000D01*
X175400000Y-51400000D02*
X168900000Y-51400000D01*
G04 #@! TO.N,/SPI_MOSI*
X177500000Y-42025000D02*
X180275000Y-42025000D01*
X180275000Y-52025000D02*
X177500000Y-52025000D01*
X177500000Y-52025000D02*
X169175000Y-52025000D01*
X152795000Y-55405000D02*
X152795000Y-51700000D01*
X180300000Y-52000000D02*
X180275000Y-52025000D01*
X156035006Y-55600000D02*
X155935000Y-55499994D01*
X180275000Y-42025000D02*
X180300000Y-42000000D01*
X152700000Y-55500000D02*
X152795000Y-55405000D01*
X169175000Y-52025000D02*
X165600000Y-55600000D01*
X165600000Y-55600000D02*
X156035006Y-55600000D01*
G04 #@! TO.N,/SPI_SCK*
X154065000Y-56365000D02*
X154065000Y-51700000D01*
X154100000Y-56400000D02*
X154065000Y-56365000D01*
X180325000Y-52675000D02*
X177500000Y-52675000D01*
X180400000Y-52600000D02*
X180325000Y-52675000D01*
X169925000Y-52675000D02*
X165900000Y-56700000D01*
X165499997Y-56299997D02*
X155935000Y-56299997D01*
X180900000Y-52600000D02*
X180400000Y-52600000D01*
X165900000Y-56700000D02*
X165499997Y-56299997D01*
X177500000Y-52675000D02*
X169925000Y-52675000D01*
X180875000Y-42675000D02*
X180900000Y-42700000D01*
X177500000Y-42675000D02*
X180875000Y-42675000D01*
G04 #@! TO.N,/SPI_MISO*
X170025000Y-53975000D02*
X166300000Y-57700000D01*
X155300000Y-57400000D02*
X155335000Y-57365000D01*
X177500000Y-53975000D02*
X170025000Y-53975000D01*
X177500000Y-43975000D02*
X181475000Y-43975000D01*
X181325000Y-53975000D02*
X177500000Y-53975000D01*
X181400000Y-53900000D02*
X181325000Y-53975000D01*
X181475000Y-43975000D02*
X181500000Y-44000000D01*
X155335000Y-57365000D02*
X155335000Y-51700000D01*
X166300000Y-57700000D02*
X155300000Y-57700000D01*
X155300000Y-57700000D02*
X155300000Y-57400000D01*
G04 #@! TO.N,/ESP_IO14_EXT*
X156605000Y-53705000D02*
X156605000Y-51700000D01*
X138720000Y-49380000D02*
X139100000Y-49000000D01*
X156700000Y-53800000D02*
X156605000Y-53705000D01*
X136440000Y-49380000D02*
X138720000Y-49380000D01*
G04 #@! TO.N,/RGB_DATA*
X152850000Y-57625000D02*
X154659315Y-57625000D01*
X154659315Y-57625000D02*
X155334315Y-58300000D01*
X155334315Y-58300000D02*
X157900000Y-58300000D01*
X157900000Y-54200000D02*
X157875000Y-54175000D01*
X157875000Y-54175000D02*
X157875000Y-51700000D01*
X152075000Y-58400000D02*
X152850000Y-57625000D01*
G04 #@! TO.N,/ESP_IO38_EXT*
X165830000Y-45370000D02*
X163450000Y-45370000D01*
X165900000Y-45300000D02*
X165830000Y-45370000D01*
G04 #@! TO.N,/ESP_IO39_EXT*
X147475737Y-55624266D02*
X146400000Y-54548529D01*
X166689117Y-45240588D02*
X166689117Y-45431520D01*
X146400000Y-54548529D02*
X146400000Y-54500000D01*
X147524263Y-55624266D02*
X147475737Y-55624266D01*
X163450000Y-44100000D02*
X165548529Y-44100000D01*
X165548529Y-44100000D02*
X166689117Y-45240588D01*
G04 #@! TO.N,/ESP_IO40_EXT*
X164936126Y-42830000D02*
X167500000Y-45393874D01*
X163450000Y-42830000D02*
X164936126Y-42830000D01*
X167500000Y-45393874D02*
X167500000Y-45400000D01*
G04 #@! TO.N,/ESP_IO41_EXT*
X164560000Y-41560000D02*
X168300000Y-45300000D01*
X168300000Y-45300000D02*
X168300000Y-45400000D01*
X142060000Y-63600000D02*
X142060000Y-62260000D01*
X142060000Y-62260000D02*
X140900000Y-61100000D01*
X163450000Y-41560000D02*
X164560000Y-41560000D01*
G04 #@! TO.N,/ESP_IO42_EXT*
X163450000Y-40290000D02*
X164190000Y-40290000D01*
X142036397Y-64463603D02*
X140800000Y-65700000D01*
X164190000Y-40290000D02*
X169200000Y-45300000D01*
X142636397Y-64463603D02*
X142036397Y-64463603D01*
G04 #@! TO.N,/ESP_IO2_EXT*
X165700000Y-36600000D02*
X165580000Y-36480000D01*
X138240000Y-41760000D02*
X141800000Y-38200000D01*
X136440000Y-41760000D02*
X138240000Y-41760000D01*
X165580000Y-36480000D02*
X163450000Y-36480000D01*
G04 #@! TO.N,/ESP_IO1_EXT*
X165500000Y-35100000D02*
X165390000Y-35210000D01*
X133900000Y-41760000D02*
X132208530Y-41760000D01*
X132208530Y-41760000D02*
X131784265Y-42184265D01*
X165390000Y-35210000D02*
X163450000Y-35210000D01*
G04 #@! TO.N,/RGB_D65_DOUT*
X113800000Y-46850000D02*
X113800000Y-49900000D01*
X112500000Y-45550000D02*
X113800000Y-46850000D01*
X113800000Y-49900000D02*
X116000000Y-52100000D01*
G04 #@! TO.N,/RGB_D64_DOUT*
X114900000Y-46200000D02*
X116000000Y-47300000D01*
X114900000Y-43150000D02*
X114900000Y-46200000D01*
X112500000Y-40750000D02*
X114900000Y-43150000D01*
G04 #@! TO.N,/RGB_D67_DOUT*
X114000000Y-56650000D02*
X114000000Y-59700000D01*
X112500000Y-55150000D02*
X114000000Y-56650000D01*
X114000000Y-59700000D02*
X116000000Y-61700000D01*
G04 #@! TO.N,/RGB_D66_DOUT*
X114900000Y-52750000D02*
X114900000Y-55800000D01*
X112500000Y-50350000D02*
X114900000Y-52750000D01*
X114900000Y-55800000D02*
X116000000Y-56900000D01*
G04 #@! TO.N,/RGB_D63_DOUT*
X117700000Y-42500000D02*
X116000000Y-42500000D01*
X158947794Y-71125000D02*
X158711397Y-70888603D01*
X160250000Y-71125000D02*
X158947794Y-71125000D01*
G04 #@! TO.N,/RGB_D62_DOUT*
X149150000Y-72225000D02*
X149150000Y-73600000D01*
X150250000Y-71125000D02*
X149150000Y-72225000D01*
X165300000Y-72800000D02*
X163825000Y-72800000D01*
X149150000Y-73600000D02*
X150350000Y-74800000D01*
X150350000Y-74800000D02*
X165300000Y-74800000D01*
G04 #@! TO.N,/RGB_D75_DOUT*
X114900000Y-99000000D02*
X116000000Y-100100000D01*
X112500000Y-93550000D02*
X114900000Y-95950000D01*
X114900000Y-95950000D02*
X114900000Y-99000000D01*
G04 #@! TO.N,/RGB_D74_DOUT*
X114000000Y-90250000D02*
X114000000Y-93300000D01*
X112500000Y-88750000D02*
X114000000Y-90250000D01*
X114000000Y-93300000D02*
X116000000Y-95300000D01*
G04 #@! TO.N,/RGB_D60_DIN*
X154225000Y-62400000D02*
X153750000Y-62875000D01*
X153725000Y-58400000D02*
X154300000Y-58400000D01*
X154300000Y-58400000D02*
X155300000Y-59400000D01*
X155300000Y-62400000D02*
X154225000Y-62400000D01*
G04 #@! TO.N,/RTD_RL_BIAS*
X184500000Y-53975000D02*
X184500000Y-53325000D01*
X187100000Y-53325000D02*
X184500000Y-53325000D01*
X188400000Y-52025000D02*
X187100000Y-53325000D01*
G04 #@! TO.N,/RGB_D60_DOUT*
X150250000Y-61125000D02*
X149150000Y-62225000D01*
X149150000Y-63600000D02*
X150750000Y-65200000D01*
X165500000Y-62800000D02*
X163825000Y-62800000D01*
X150750000Y-65200000D02*
X165400000Y-65200000D01*
X149150000Y-62225000D02*
X149150000Y-63600000D01*
G04 #@! TO.N,/RGB_D69_DOUT*
X112500000Y-64750000D02*
X114000000Y-66250000D01*
X114000000Y-66250000D02*
X114000000Y-69300000D01*
X114000000Y-69300000D02*
X116000000Y-71300000D01*
G04 #@! TO.N,/RGB_D68_DOUT*
X114000000Y-61450000D02*
X114000000Y-64500000D01*
X114000000Y-64500000D02*
X116000000Y-66500000D01*
X112500000Y-59950000D02*
X114000000Y-61450000D01*
G04 #@! TO.N,/RGB_D80_DOUT*
X114000000Y-119050000D02*
X114000000Y-122100000D01*
X114000000Y-122100000D02*
X116000000Y-124100000D01*
X112500000Y-117550000D02*
X114000000Y-119050000D01*
G04 #@! TO.N,/RGB_D61_DOUT*
X158897794Y-61125000D02*
X158736397Y-60963603D01*
X160250000Y-61125000D02*
X158897794Y-61125000D01*
X155300000Y-72800000D02*
X153825000Y-72800000D01*
G04 #@! TO.N,/RGB_D79_DOUT*
X112500000Y-112750000D02*
X114900000Y-115150000D01*
X114900000Y-118200000D02*
X116000000Y-119300000D01*
X114900000Y-115150000D02*
X114900000Y-118200000D01*
G04 #@! TO.N,/RGB_D73_DOUT*
X113600000Y-88100000D02*
X116000000Y-90500000D01*
X113600000Y-85050000D02*
X113600000Y-88100000D01*
X112500000Y-83950000D02*
X113600000Y-85050000D01*
G04 #@! TO.N,/RGB_D72_DOUT*
X112500000Y-79150000D02*
X114900000Y-81550000D01*
X114900000Y-81550000D02*
X114900000Y-84600000D01*
X114900000Y-84600000D02*
X116000000Y-85700000D01*
G04 #@! TD*
M02*
