G04 #@! TF.GenerationSoftware,KiCad,Pcbnew,10.0.4*
G04 #@! TF.CreationDate,2026-07-10T11:50:03+02:00*
G04 #@! TF.ProjectId,pumpengruppe-rs485,70756d70-656e-4677-9275-7070652d7273,A-preliminary*
G04 #@! TF.SameCoordinates,Original*
G04 #@! TF.FileFunction,Legend,Top*
G04 #@! TF.FilePolarity,Positive*
%FSLAX46Y46*%
G04 Gerber Fmt 4.6, Leading zero omitted, Abs format (unit mm)*
G04 Created by KiCad (PCBNEW 10.0.4) date 2026-07-10 11:50:03*
%MOMM*%
%LPD*%
G01*
G04 APERTURE LIST*
%ADD10C,0.250000*%
%ADD11C,0.100000*%
%ADD12C,0.162500*%
%ADD13C,0.140000*%
%ADD14C,0.150000*%
%ADD15C,0.350000*%
%ADD16C,0.120000*%
G04 APERTURE END LIST*
D10*
X77000000Y-38000000D02*
X77000000Y-40750000D01*
X77000000Y-41750000D02*
X77000000Y-44500000D01*
X77000000Y-45500000D02*
X77000000Y-48250000D01*
X77000000Y-49250000D02*
X77000000Y-52000000D01*
X77000000Y-53000000D02*
X77000000Y-55750000D01*
X77000000Y-56750000D02*
X77000000Y-59500000D01*
X77000000Y-60500000D02*
X77000000Y-63250000D01*
X77000000Y-64250000D02*
X77000000Y-67000000D01*
X77000000Y-68000000D02*
X77000000Y-70750000D01*
X77000000Y-71750000D02*
X77000000Y-74500000D01*
X77000000Y-75500000D02*
X77000000Y-78250000D01*
X77000000Y-79250000D02*
X77000000Y-82000000D01*
X77000000Y-83000000D02*
X77000000Y-85750000D01*
X77000000Y-86750000D02*
X77000000Y-89500000D01*
X77000000Y-90500000D02*
X77000000Y-93250000D01*
X77000000Y-94250000D02*
X77000000Y-97000000D01*
X77000000Y-98000000D02*
X77000000Y-100750000D01*
X77000000Y-101750000D02*
X77000000Y-104500000D01*
X77000000Y-105500000D02*
X77000000Y-108250000D01*
X77000000Y-109250000D02*
X77000000Y-112000000D01*
X77000000Y-113000000D02*
X77000000Y-115750000D01*
X77000000Y-116750000D02*
X77000000Y-119500000D01*
X77000000Y-120500000D02*
X77000000Y-123250000D01*
X77000000Y-124250000D02*
X77000000Y-127000000D01*
X77000000Y-128000000D02*
X77000000Y-130750000D01*
X77000000Y-131750000D02*
X77000000Y-134500000D01*
X77000000Y-135500000D02*
X77000000Y-138000000D01*
X92800000Y-37900000D02*
X92800000Y-40650000D01*
X92800000Y-41650000D02*
X92800000Y-44400000D01*
X92800000Y-45400000D02*
X92800000Y-48150000D01*
X92800000Y-49150000D02*
X92800000Y-51900000D01*
X92800000Y-52900000D02*
X92800000Y-55650000D01*
X92800000Y-56650000D02*
X92800000Y-59400000D01*
X92800000Y-60400000D02*
X92800000Y-63150000D01*
X92800000Y-64150000D02*
X92800000Y-66900000D01*
X92800000Y-67900000D02*
X92800000Y-70650000D01*
X92800000Y-71650000D02*
X92800000Y-74400000D01*
X92800000Y-75400000D02*
X92800000Y-78150000D01*
X92800000Y-79150000D02*
X92800000Y-81900000D01*
X92800000Y-82900000D02*
X92800000Y-85650000D01*
X92800000Y-86650000D02*
X92800000Y-89400000D01*
X92800000Y-90400000D02*
X92800000Y-93150000D01*
X92800000Y-94150000D02*
X92800000Y-96900000D01*
X92800000Y-97900000D02*
X92800000Y-100650000D01*
X92800000Y-101650000D02*
X92800000Y-104400000D01*
X92800000Y-105400000D02*
X92800000Y-108150000D01*
X92800000Y-109150000D02*
X92800000Y-111900000D01*
X92800000Y-112900000D02*
X92800000Y-115650000D01*
X92800000Y-116650000D02*
X92800000Y-119400000D01*
X92800000Y-120400000D02*
X92800000Y-123150000D01*
X92800000Y-124150000D02*
X92800000Y-126900000D01*
X92800000Y-127900000D02*
X92800000Y-130650000D01*
X92800000Y-131650000D02*
X92800000Y-134400000D01*
X92800000Y-135400000D02*
X92800000Y-137900000D01*
D11*
X188004762Y-60676454D02*
X187942857Y-60645502D01*
X187942857Y-60645502D02*
X187850000Y-60645502D01*
X187850000Y-60645502D02*
X187757143Y-60676454D01*
X187757143Y-60676454D02*
X187695238Y-60738359D01*
X187695238Y-60738359D02*
X187664285Y-60800264D01*
X187664285Y-60800264D02*
X187633333Y-60924073D01*
X187633333Y-60924073D02*
X187633333Y-61016930D01*
X187633333Y-61016930D02*
X187664285Y-61140740D01*
X187664285Y-61140740D02*
X187695238Y-61202645D01*
X187695238Y-61202645D02*
X187757143Y-61264550D01*
X187757143Y-61264550D02*
X187850000Y-61295502D01*
X187850000Y-61295502D02*
X187911904Y-61295502D01*
X187911904Y-61295502D02*
X188004762Y-61264550D01*
X188004762Y-61264550D02*
X188035714Y-61233597D01*
X188035714Y-61233597D02*
X188035714Y-61016930D01*
X188035714Y-61016930D02*
X187911904Y-61016930D01*
X188314285Y-61295502D02*
X188314285Y-60645502D01*
X188314285Y-60645502D02*
X188685714Y-61295502D01*
X188685714Y-61295502D02*
X188685714Y-60645502D01*
X188995237Y-61295502D02*
X188995237Y-60645502D01*
X188995237Y-60645502D02*
X189149999Y-60645502D01*
X189149999Y-60645502D02*
X189242856Y-60676454D01*
X189242856Y-60676454D02*
X189304761Y-60738359D01*
X189304761Y-60738359D02*
X189335714Y-60800264D01*
X189335714Y-60800264D02*
X189366666Y-60924073D01*
X189366666Y-60924073D02*
X189366666Y-61016930D01*
X189366666Y-61016930D02*
X189335714Y-61140740D01*
X189335714Y-61140740D02*
X189304761Y-61202645D01*
X189304761Y-61202645D02*
X189242856Y-61264550D01*
X189242856Y-61264550D02*
X189149999Y-61295502D01*
X189149999Y-61295502D02*
X188995237Y-61295502D01*
X188504762Y-108176454D02*
X188442857Y-108145502D01*
X188442857Y-108145502D02*
X188350000Y-108145502D01*
X188350000Y-108145502D02*
X188257143Y-108176454D01*
X188257143Y-108176454D02*
X188195238Y-108238359D01*
X188195238Y-108238359D02*
X188164285Y-108300264D01*
X188164285Y-108300264D02*
X188133333Y-108424073D01*
X188133333Y-108424073D02*
X188133333Y-108516930D01*
X188133333Y-108516930D02*
X188164285Y-108640740D01*
X188164285Y-108640740D02*
X188195238Y-108702645D01*
X188195238Y-108702645D02*
X188257143Y-108764550D01*
X188257143Y-108764550D02*
X188350000Y-108795502D01*
X188350000Y-108795502D02*
X188411904Y-108795502D01*
X188411904Y-108795502D02*
X188504762Y-108764550D01*
X188504762Y-108764550D02*
X188535714Y-108733597D01*
X188535714Y-108733597D02*
X188535714Y-108516930D01*
X188535714Y-108516930D02*
X188411904Y-108516930D01*
X188814285Y-108795502D02*
X188814285Y-108145502D01*
X188814285Y-108145502D02*
X189185714Y-108795502D01*
X189185714Y-108795502D02*
X189185714Y-108145502D01*
X189495237Y-108795502D02*
X189495237Y-108145502D01*
X189495237Y-108145502D02*
X189649999Y-108145502D01*
X189649999Y-108145502D02*
X189742856Y-108176454D01*
X189742856Y-108176454D02*
X189804761Y-108238359D01*
X189804761Y-108238359D02*
X189835714Y-108300264D01*
X189835714Y-108300264D02*
X189866666Y-108424073D01*
X189866666Y-108424073D02*
X189866666Y-108516930D01*
X189866666Y-108516930D02*
X189835714Y-108640740D01*
X189835714Y-108640740D02*
X189804761Y-108702645D01*
X189804761Y-108702645D02*
X189742856Y-108764550D01*
X189742856Y-108764550D02*
X189649999Y-108795502D01*
X189649999Y-108795502D02*
X189495237Y-108795502D01*
D12*
X154584522Y-140292252D02*
X154367855Y-139982728D01*
X154213093Y-140292252D02*
X154213093Y-139642252D01*
X154213093Y-139642252D02*
X154460712Y-139642252D01*
X154460712Y-139642252D02*
X154522617Y-139673204D01*
X154522617Y-139673204D02*
X154553570Y-139704157D01*
X154553570Y-139704157D02*
X154584522Y-139766061D01*
X154584522Y-139766061D02*
X154584522Y-139858919D01*
X154584522Y-139858919D02*
X154553570Y-139920823D01*
X154553570Y-139920823D02*
X154522617Y-139951776D01*
X154522617Y-139951776D02*
X154460712Y-139982728D01*
X154460712Y-139982728D02*
X154213093Y-139982728D01*
X155048808Y-139642252D02*
X155048808Y-140106538D01*
X155048808Y-140106538D02*
X155017855Y-140199395D01*
X155017855Y-140199395D02*
X154955951Y-140261300D01*
X154955951Y-140261300D02*
X154863093Y-140292252D01*
X154863093Y-140292252D02*
X154801189Y-140292252D01*
X155636903Y-139858919D02*
X155636903Y-140292252D01*
X155482141Y-139611300D02*
X155327379Y-140075585D01*
X155327379Y-140075585D02*
X155729760Y-140075585D01*
X156286903Y-139642252D02*
X155977379Y-139642252D01*
X155977379Y-139642252D02*
X155946427Y-139951776D01*
X155946427Y-139951776D02*
X155977379Y-139920823D01*
X155977379Y-139920823D02*
X156039284Y-139889871D01*
X156039284Y-139889871D02*
X156194046Y-139889871D01*
X156194046Y-139889871D02*
X156255951Y-139920823D01*
X156255951Y-139920823D02*
X156286903Y-139951776D01*
X156286903Y-139951776D02*
X156317856Y-140013680D01*
X156317856Y-140013680D02*
X156317856Y-140168442D01*
X156317856Y-140168442D02*
X156286903Y-140230347D01*
X156286903Y-140230347D02*
X156255951Y-140261300D01*
X156255951Y-140261300D02*
X156194046Y-140292252D01*
X156194046Y-140292252D02*
X156039284Y-140292252D01*
X156039284Y-140292252D02*
X155977379Y-140261300D01*
X155977379Y-140261300D02*
X155946427Y-140230347D01*
X156596427Y-140230347D02*
X156627380Y-140261300D01*
X156627380Y-140261300D02*
X156596427Y-140292252D01*
X156596427Y-140292252D02*
X156565475Y-140261300D01*
X156565475Y-140261300D02*
X156596427Y-140230347D01*
X156596427Y-140230347D02*
X156596427Y-140292252D01*
X156596427Y-139889871D02*
X156627380Y-139920823D01*
X156627380Y-139920823D02*
X156596427Y-139951776D01*
X156596427Y-139951776D02*
X156565475Y-139920823D01*
X156565475Y-139920823D02*
X156596427Y-139889871D01*
X156596427Y-139889871D02*
X156596427Y-139951776D01*
X157741666Y-140292252D02*
X157370237Y-140292252D01*
X157555951Y-140292252D02*
X157555951Y-139642252D01*
X157555951Y-139642252D02*
X157494047Y-139735109D01*
X157494047Y-139735109D02*
X157432142Y-139797014D01*
X157432142Y-139797014D02*
X157370237Y-139827966D01*
X158484523Y-139611300D02*
X157927380Y-140447014D01*
X158670237Y-139704157D02*
X158701189Y-139673204D01*
X158701189Y-139673204D02*
X158763094Y-139642252D01*
X158763094Y-139642252D02*
X158917856Y-139642252D01*
X158917856Y-139642252D02*
X158979761Y-139673204D01*
X158979761Y-139673204D02*
X159010713Y-139704157D01*
X159010713Y-139704157D02*
X159041666Y-139766061D01*
X159041666Y-139766061D02*
X159041666Y-139827966D01*
X159041666Y-139827966D02*
X159010713Y-139920823D01*
X159010713Y-139920823D02*
X158639285Y-140292252D01*
X158639285Y-140292252D02*
X159041666Y-140292252D01*
X159320237Y-139951776D02*
X159815476Y-139951776D01*
X159815476Y-140137490D02*
X159320237Y-140137490D01*
X160434523Y-139642252D02*
X160124999Y-139642252D01*
X160124999Y-139642252D02*
X160094047Y-139951776D01*
X160094047Y-139951776D02*
X160124999Y-139920823D01*
X160124999Y-139920823D02*
X160186904Y-139889871D01*
X160186904Y-139889871D02*
X160341666Y-139889871D01*
X160341666Y-139889871D02*
X160403571Y-139920823D01*
X160403571Y-139920823D02*
X160434523Y-139951776D01*
X160434523Y-139951776D02*
X160465476Y-140013680D01*
X160465476Y-140013680D02*
X160465476Y-140168442D01*
X160465476Y-140168442D02*
X160434523Y-140230347D01*
X160434523Y-140230347D02*
X160403571Y-140261300D01*
X160403571Y-140261300D02*
X160341666Y-140292252D01*
X160341666Y-140292252D02*
X160186904Y-140292252D01*
X160186904Y-140292252D02*
X160124999Y-140261300D01*
X160124999Y-140261300D02*
X160094047Y-140230347D01*
X160651190Y-139642252D02*
X160867857Y-140292252D01*
X160867857Y-140292252D02*
X161084524Y-139642252D01*
X161734524Y-139642252D02*
X162136905Y-139642252D01*
X162136905Y-139642252D02*
X161920238Y-139889871D01*
X161920238Y-139889871D02*
X162013095Y-139889871D01*
X162013095Y-139889871D02*
X162075000Y-139920823D01*
X162075000Y-139920823D02*
X162105952Y-139951776D01*
X162105952Y-139951776D02*
X162136905Y-140013680D01*
X162136905Y-140013680D02*
X162136905Y-140168442D01*
X162136905Y-140168442D02*
X162105952Y-140230347D01*
X162105952Y-140230347D02*
X162075000Y-140261300D01*
X162075000Y-140261300D02*
X162013095Y-140292252D01*
X162013095Y-140292252D02*
X161827381Y-140292252D01*
X161827381Y-140292252D02*
X161765476Y-140261300D01*
X161765476Y-140261300D02*
X161734524Y-140230347D01*
X162879762Y-139611300D02*
X162322619Y-140447014D01*
X163375000Y-139642252D02*
X163251190Y-139642252D01*
X163251190Y-139642252D02*
X163189286Y-139673204D01*
X163189286Y-139673204D02*
X163158333Y-139704157D01*
X163158333Y-139704157D02*
X163096428Y-139797014D01*
X163096428Y-139797014D02*
X163065476Y-139920823D01*
X163065476Y-139920823D02*
X163065476Y-140168442D01*
X163065476Y-140168442D02*
X163096428Y-140230347D01*
X163096428Y-140230347D02*
X163127381Y-140261300D01*
X163127381Y-140261300D02*
X163189286Y-140292252D01*
X163189286Y-140292252D02*
X163313095Y-140292252D01*
X163313095Y-140292252D02*
X163375000Y-140261300D01*
X163375000Y-140261300D02*
X163405952Y-140230347D01*
X163405952Y-140230347D02*
X163436905Y-140168442D01*
X163436905Y-140168442D02*
X163436905Y-140013680D01*
X163436905Y-140013680D02*
X163405952Y-139951776D01*
X163405952Y-139951776D02*
X163375000Y-139920823D01*
X163375000Y-139920823D02*
X163313095Y-139889871D01*
X163313095Y-139889871D02*
X163189286Y-139889871D01*
X163189286Y-139889871D02*
X163127381Y-139920823D01*
X163127381Y-139920823D02*
X163096428Y-139951776D01*
X163096428Y-139951776D02*
X163065476Y-140013680D01*
X163715476Y-139951776D02*
X164210715Y-139951776D01*
X164210715Y-140137490D02*
X163715476Y-140137490D01*
X164520238Y-140292252D02*
X164520238Y-139642252D01*
X164520238Y-139642252D02*
X164891667Y-140292252D01*
X164891667Y-140292252D02*
X164891667Y-139642252D01*
X165572619Y-140230347D02*
X165541667Y-140261300D01*
X165541667Y-140261300D02*
X165448809Y-140292252D01*
X165448809Y-140292252D02*
X165386905Y-140292252D01*
X165386905Y-140292252D02*
X165294048Y-140261300D01*
X165294048Y-140261300D02*
X165232143Y-140199395D01*
X165232143Y-140199395D02*
X165201190Y-140137490D01*
X165201190Y-140137490D02*
X165170238Y-140013680D01*
X165170238Y-140013680D02*
X165170238Y-139920823D01*
X165170238Y-139920823D02*
X165201190Y-139797014D01*
X165201190Y-139797014D02*
X165232143Y-139735109D01*
X165232143Y-139735109D02*
X165294048Y-139673204D01*
X165294048Y-139673204D02*
X165386905Y-139642252D01*
X165386905Y-139642252D02*
X165448809Y-139642252D01*
X165448809Y-139642252D02*
X165541667Y-139673204D01*
X165541667Y-139673204D02*
X165572619Y-139704157D01*
X166625000Y-139858919D02*
X166625000Y-140292252D01*
X166470238Y-139611300D02*
X166315476Y-140075585D01*
X166315476Y-140075585D02*
X166717857Y-140075585D01*
X166965476Y-139951776D02*
X167460715Y-139951776D01*
X167460715Y-140137490D02*
X166965476Y-140137490D01*
X167739286Y-140106538D02*
X168048810Y-140106538D01*
X167677381Y-140292252D02*
X167894048Y-139642252D01*
X167894048Y-139642252D02*
X168110715Y-140292252D01*
X169132143Y-139642252D02*
X168822619Y-139642252D01*
X168822619Y-139642252D02*
X168791667Y-139951776D01*
X168791667Y-139951776D02*
X168822619Y-139920823D01*
X168822619Y-139920823D02*
X168884524Y-139889871D01*
X168884524Y-139889871D02*
X169039286Y-139889871D01*
X169039286Y-139889871D02*
X169101191Y-139920823D01*
X169101191Y-139920823D02*
X169132143Y-139951776D01*
X169132143Y-139951776D02*
X169163096Y-140013680D01*
X169163096Y-140013680D02*
X169163096Y-140168442D01*
X169163096Y-140168442D02*
X169132143Y-140230347D01*
X169132143Y-140230347D02*
X169101191Y-140261300D01*
X169101191Y-140261300D02*
X169039286Y-140292252D01*
X169039286Y-140292252D02*
X168884524Y-140292252D01*
X168884524Y-140292252D02*
X168822619Y-140261300D01*
X168822619Y-140261300D02*
X168791667Y-140230347D01*
X169441667Y-139951776D02*
X169936906Y-139951776D01*
X169936906Y-140137490D02*
X169441667Y-140137490D01*
X170463096Y-139951776D02*
X170555953Y-139982728D01*
X170555953Y-139982728D02*
X170586906Y-140013680D01*
X170586906Y-140013680D02*
X170617858Y-140075585D01*
X170617858Y-140075585D02*
X170617858Y-140168442D01*
X170617858Y-140168442D02*
X170586906Y-140230347D01*
X170586906Y-140230347D02*
X170555953Y-140261300D01*
X170555953Y-140261300D02*
X170494048Y-140292252D01*
X170494048Y-140292252D02*
X170246429Y-140292252D01*
X170246429Y-140292252D02*
X170246429Y-139642252D01*
X170246429Y-139642252D02*
X170463096Y-139642252D01*
X170463096Y-139642252D02*
X170525001Y-139673204D01*
X170525001Y-139673204D02*
X170555953Y-139704157D01*
X170555953Y-139704157D02*
X170586906Y-139766061D01*
X170586906Y-139766061D02*
X170586906Y-139827966D01*
X170586906Y-139827966D02*
X170555953Y-139889871D01*
X170555953Y-139889871D02*
X170525001Y-139920823D01*
X170525001Y-139920823D02*
X170463096Y-139951776D01*
X170463096Y-139951776D02*
X170246429Y-139951776D01*
X171329763Y-139642252D02*
X171763096Y-139642252D01*
X171763096Y-139642252D02*
X171484525Y-140292252D01*
X172475001Y-139611300D02*
X171917858Y-140447014D01*
X172784525Y-139920823D02*
X172722620Y-139889871D01*
X172722620Y-139889871D02*
X172691667Y-139858919D01*
X172691667Y-139858919D02*
X172660715Y-139797014D01*
X172660715Y-139797014D02*
X172660715Y-139766061D01*
X172660715Y-139766061D02*
X172691667Y-139704157D01*
X172691667Y-139704157D02*
X172722620Y-139673204D01*
X172722620Y-139673204D02*
X172784525Y-139642252D01*
X172784525Y-139642252D02*
X172908334Y-139642252D01*
X172908334Y-139642252D02*
X172970239Y-139673204D01*
X172970239Y-139673204D02*
X173001191Y-139704157D01*
X173001191Y-139704157D02*
X173032144Y-139766061D01*
X173032144Y-139766061D02*
X173032144Y-139797014D01*
X173032144Y-139797014D02*
X173001191Y-139858919D01*
X173001191Y-139858919D02*
X172970239Y-139889871D01*
X172970239Y-139889871D02*
X172908334Y-139920823D01*
X172908334Y-139920823D02*
X172784525Y-139920823D01*
X172784525Y-139920823D02*
X172722620Y-139951776D01*
X172722620Y-139951776D02*
X172691667Y-139982728D01*
X172691667Y-139982728D02*
X172660715Y-140044633D01*
X172660715Y-140044633D02*
X172660715Y-140168442D01*
X172660715Y-140168442D02*
X172691667Y-140230347D01*
X172691667Y-140230347D02*
X172722620Y-140261300D01*
X172722620Y-140261300D02*
X172784525Y-140292252D01*
X172784525Y-140292252D02*
X172908334Y-140292252D01*
X172908334Y-140292252D02*
X172970239Y-140261300D01*
X172970239Y-140261300D02*
X173001191Y-140230347D01*
X173001191Y-140230347D02*
X173032144Y-140168442D01*
X173032144Y-140168442D02*
X173032144Y-140044633D01*
X173032144Y-140044633D02*
X173001191Y-139982728D01*
X173001191Y-139982728D02*
X172970239Y-139951776D01*
X172970239Y-139951776D02*
X172908334Y-139920823D01*
X173310715Y-139951776D02*
X173805954Y-139951776D01*
X173805954Y-140137490D02*
X173310715Y-140137490D01*
X174455954Y-139673204D02*
X174394049Y-139642252D01*
X174394049Y-139642252D02*
X174301192Y-139642252D01*
X174301192Y-139642252D02*
X174208335Y-139673204D01*
X174208335Y-139673204D02*
X174146430Y-139735109D01*
X174146430Y-139735109D02*
X174115477Y-139797014D01*
X174115477Y-139797014D02*
X174084525Y-139920823D01*
X174084525Y-139920823D02*
X174084525Y-140013680D01*
X174084525Y-140013680D02*
X174115477Y-140137490D01*
X174115477Y-140137490D02*
X174146430Y-140199395D01*
X174146430Y-140199395D02*
X174208335Y-140261300D01*
X174208335Y-140261300D02*
X174301192Y-140292252D01*
X174301192Y-140292252D02*
X174363096Y-140292252D01*
X174363096Y-140292252D02*
X174455954Y-140261300D01*
X174455954Y-140261300D02*
X174486906Y-140230347D01*
X174486906Y-140230347D02*
X174486906Y-140013680D01*
X174486906Y-140013680D02*
X174363096Y-140013680D01*
X174765477Y-140292252D02*
X174765477Y-139642252D01*
X174765477Y-139642252D02*
X175136906Y-140292252D01*
X175136906Y-140292252D02*
X175136906Y-139642252D01*
X175446429Y-140292252D02*
X175446429Y-139642252D01*
X175446429Y-139642252D02*
X175601191Y-139642252D01*
X175601191Y-139642252D02*
X175694048Y-139673204D01*
X175694048Y-139673204D02*
X175755953Y-139735109D01*
X175755953Y-139735109D02*
X175786906Y-139797014D01*
X175786906Y-139797014D02*
X175817858Y-139920823D01*
X175817858Y-139920823D02*
X175817858Y-140013680D01*
X175817858Y-140013680D02*
X175786906Y-140137490D01*
X175786906Y-140137490D02*
X175755953Y-140199395D01*
X175755953Y-140199395D02*
X175694048Y-140261300D01*
X175694048Y-140261300D02*
X175601191Y-140292252D01*
X175601191Y-140292252D02*
X175446429Y-140292252D01*
D11*
X188553571Y-64448907D02*
X188660714Y-64484621D01*
X188660714Y-64484621D02*
X188696428Y-64520335D01*
X188696428Y-64520335D02*
X188732142Y-64591764D01*
X188732142Y-64591764D02*
X188732142Y-64698907D01*
X188732142Y-64698907D02*
X188696428Y-64770335D01*
X188696428Y-64770335D02*
X188660714Y-64806050D01*
X188660714Y-64806050D02*
X188589285Y-64841764D01*
X188589285Y-64841764D02*
X188303571Y-64841764D01*
X188303571Y-64841764D02*
X188303571Y-64091764D01*
X188303571Y-64091764D02*
X188553571Y-64091764D01*
X188553571Y-64091764D02*
X188625000Y-64127478D01*
X188625000Y-64127478D02*
X188660714Y-64163192D01*
X188660714Y-64163192D02*
X188696428Y-64234621D01*
X188696428Y-64234621D02*
X188696428Y-64306050D01*
X188696428Y-64306050D02*
X188660714Y-64377478D01*
X188660714Y-64377478D02*
X188625000Y-64413192D01*
X188625000Y-64413192D02*
X188553571Y-64448907D01*
X188553571Y-64448907D02*
X188303571Y-64448907D01*
X188321429Y-68127478D02*
X188678572Y-68127478D01*
X188250000Y-68341764D02*
X188500000Y-67591764D01*
X188500000Y-67591764D02*
X188750000Y-68341764D01*
X189053571Y-111948907D02*
X189160714Y-111984621D01*
X189160714Y-111984621D02*
X189196428Y-112020335D01*
X189196428Y-112020335D02*
X189232142Y-112091764D01*
X189232142Y-112091764D02*
X189232142Y-112198907D01*
X189232142Y-112198907D02*
X189196428Y-112270335D01*
X189196428Y-112270335D02*
X189160714Y-112306050D01*
X189160714Y-112306050D02*
X189089285Y-112341764D01*
X189089285Y-112341764D02*
X188803571Y-112341764D01*
X188803571Y-112341764D02*
X188803571Y-111591764D01*
X188803571Y-111591764D02*
X189053571Y-111591764D01*
X189053571Y-111591764D02*
X189125000Y-111627478D01*
X189125000Y-111627478D02*
X189160714Y-111663192D01*
X189160714Y-111663192D02*
X189196428Y-111734621D01*
X189196428Y-111734621D02*
X189196428Y-111806050D01*
X189196428Y-111806050D02*
X189160714Y-111877478D01*
X189160714Y-111877478D02*
X189125000Y-111913192D01*
X189125000Y-111913192D02*
X189053571Y-111948907D01*
X189053571Y-111948907D02*
X188803571Y-111948907D01*
X188821429Y-115627478D02*
X189178572Y-115627478D01*
X188750000Y-115841764D02*
X189000000Y-115091764D01*
X189000000Y-115091764D02*
X189250000Y-115841764D01*
D13*
X143833333Y-134455339D02*
X143833333Y-133455339D01*
X143833333Y-133455339D02*
X144214285Y-133455339D01*
X144214285Y-133455339D02*
X144309523Y-133502958D01*
X144309523Y-133502958D02*
X144357142Y-133550577D01*
X144357142Y-133550577D02*
X144404761Y-133645815D01*
X144404761Y-133645815D02*
X144404761Y-133788672D01*
X144404761Y-133788672D02*
X144357142Y-133883910D01*
X144357142Y-133883910D02*
X144309523Y-133931529D01*
X144309523Y-133931529D02*
X144214285Y-133979148D01*
X144214285Y-133979148D02*
X143833333Y-133979148D01*
X145023809Y-133455339D02*
X145214285Y-133455339D01*
X145214285Y-133455339D02*
X145309523Y-133502958D01*
X145309523Y-133502958D02*
X145404761Y-133598196D01*
X145404761Y-133598196D02*
X145452380Y-133788672D01*
X145452380Y-133788672D02*
X145452380Y-134122005D01*
X145452380Y-134122005D02*
X145404761Y-134312481D01*
X145404761Y-134312481D02*
X145309523Y-134407720D01*
X145309523Y-134407720D02*
X145214285Y-134455339D01*
X145214285Y-134455339D02*
X145023809Y-134455339D01*
X145023809Y-134455339D02*
X144928571Y-134407720D01*
X144928571Y-134407720D02*
X144833333Y-134312481D01*
X144833333Y-134312481D02*
X144785714Y-134122005D01*
X144785714Y-134122005D02*
X144785714Y-133788672D01*
X144785714Y-133788672D02*
X144833333Y-133598196D01*
X144833333Y-133598196D02*
X144928571Y-133502958D01*
X144928571Y-133502958D02*
X145023809Y-133455339D01*
X145785714Y-133455339D02*
X146023809Y-134455339D01*
X146023809Y-134455339D02*
X146214285Y-133741053D01*
X146214285Y-133741053D02*
X146404761Y-134455339D01*
X146404761Y-134455339D02*
X146642857Y-133455339D01*
X147023809Y-133931529D02*
X147357142Y-133931529D01*
X147499999Y-134455339D02*
X147023809Y-134455339D01*
X147023809Y-134455339D02*
X147023809Y-133455339D01*
X147023809Y-133455339D02*
X147499999Y-133455339D01*
X148499999Y-134455339D02*
X148166666Y-133979148D01*
X147928571Y-134455339D02*
X147928571Y-133455339D01*
X147928571Y-133455339D02*
X148309523Y-133455339D01*
X148309523Y-133455339D02*
X148404761Y-133502958D01*
X148404761Y-133502958D02*
X148452380Y-133550577D01*
X148452380Y-133550577D02*
X148499999Y-133645815D01*
X148499999Y-133645815D02*
X148499999Y-133788672D01*
X148499999Y-133788672D02*
X148452380Y-133883910D01*
X148452380Y-133883910D02*
X148404761Y-133931529D01*
X148404761Y-133931529D02*
X148309523Y-133979148D01*
X148309523Y-133979148D02*
X147928571Y-133979148D01*
X149547619Y-133455339D02*
X149880952Y-134455339D01*
X149880952Y-134455339D02*
X150214285Y-133455339D01*
X150547619Y-134455339D02*
X150547619Y-133455339D01*
X150976190Y-134169624D02*
X151452380Y-134169624D01*
X150880952Y-134455339D02*
X151214285Y-133455339D01*
X151214285Y-133455339D02*
X151547618Y-134455339D01*
X153214285Y-134455339D02*
X152880952Y-133979148D01*
X152642857Y-134455339D02*
X152642857Y-133455339D01*
X152642857Y-133455339D02*
X153023809Y-133455339D01*
X153023809Y-133455339D02*
X153119047Y-133502958D01*
X153119047Y-133502958D02*
X153166666Y-133550577D01*
X153166666Y-133550577D02*
X153214285Y-133645815D01*
X153214285Y-133645815D02*
X153214285Y-133788672D01*
X153214285Y-133788672D02*
X153166666Y-133883910D01*
X153166666Y-133883910D02*
X153119047Y-133931529D01*
X153119047Y-133931529D02*
X153023809Y-133979148D01*
X153023809Y-133979148D02*
X152642857Y-133979148D01*
X153928571Y-133455339D02*
X153928571Y-134169624D01*
X153928571Y-134169624D02*
X153880952Y-134312481D01*
X153880952Y-134312481D02*
X153785714Y-134407720D01*
X153785714Y-134407720D02*
X153642857Y-134455339D01*
X153642857Y-134455339D02*
X153547619Y-134455339D01*
X154833333Y-133788672D02*
X154833333Y-134455339D01*
X154595238Y-133407720D02*
X154357143Y-134122005D01*
X154357143Y-134122005D02*
X154976190Y-134122005D01*
X155833333Y-133455339D02*
X155357143Y-133455339D01*
X155357143Y-133455339D02*
X155309524Y-133931529D01*
X155309524Y-133931529D02*
X155357143Y-133883910D01*
X155357143Y-133883910D02*
X155452381Y-133836291D01*
X155452381Y-133836291D02*
X155690476Y-133836291D01*
X155690476Y-133836291D02*
X155785714Y-133883910D01*
X155785714Y-133883910D02*
X155833333Y-133931529D01*
X155833333Y-133931529D02*
X155880952Y-134026767D01*
X155880952Y-134026767D02*
X155880952Y-134264862D01*
X155880952Y-134264862D02*
X155833333Y-134360100D01*
X155833333Y-134360100D02*
X155785714Y-134407720D01*
X155785714Y-134407720D02*
X155690476Y-134455339D01*
X155690476Y-134455339D02*
X155452381Y-134455339D01*
X155452381Y-134455339D02*
X155357143Y-134407720D01*
X155357143Y-134407720D02*
X155309524Y-134360100D01*
X157404762Y-133931529D02*
X157547619Y-133979148D01*
X157547619Y-133979148D02*
X157595238Y-134026767D01*
X157595238Y-134026767D02*
X157642857Y-134122005D01*
X157642857Y-134122005D02*
X157642857Y-134264862D01*
X157642857Y-134264862D02*
X157595238Y-134360100D01*
X157595238Y-134360100D02*
X157547619Y-134407720D01*
X157547619Y-134407720D02*
X157452381Y-134455339D01*
X157452381Y-134455339D02*
X157071429Y-134455339D01*
X157071429Y-134455339D02*
X157071429Y-133455339D01*
X157071429Y-133455339D02*
X157404762Y-133455339D01*
X157404762Y-133455339D02*
X157500000Y-133502958D01*
X157500000Y-133502958D02*
X157547619Y-133550577D01*
X157547619Y-133550577D02*
X157595238Y-133645815D01*
X157595238Y-133645815D02*
X157595238Y-133741053D01*
X157595238Y-133741053D02*
X157547619Y-133836291D01*
X157547619Y-133836291D02*
X157500000Y-133883910D01*
X157500000Y-133883910D02*
X157404762Y-133931529D01*
X157404762Y-133931529D02*
X157071429Y-133931529D01*
X158071429Y-133455339D02*
X158071429Y-134264862D01*
X158071429Y-134264862D02*
X158119048Y-134360100D01*
X158119048Y-134360100D02*
X158166667Y-134407720D01*
X158166667Y-134407720D02*
X158261905Y-134455339D01*
X158261905Y-134455339D02*
X158452381Y-134455339D01*
X158452381Y-134455339D02*
X158547619Y-134407720D01*
X158547619Y-134407720D02*
X158595238Y-134360100D01*
X158595238Y-134360100D02*
X158642857Y-134264862D01*
X158642857Y-134264862D02*
X158642857Y-133455339D01*
X159071429Y-134407720D02*
X159214286Y-134455339D01*
X159214286Y-134455339D02*
X159452381Y-134455339D01*
X159452381Y-134455339D02*
X159547619Y-134407720D01*
X159547619Y-134407720D02*
X159595238Y-134360100D01*
X159595238Y-134360100D02*
X159642857Y-134264862D01*
X159642857Y-134264862D02*
X159642857Y-134169624D01*
X159642857Y-134169624D02*
X159595238Y-134074386D01*
X159595238Y-134074386D02*
X159547619Y-134026767D01*
X159547619Y-134026767D02*
X159452381Y-133979148D01*
X159452381Y-133979148D02*
X159261905Y-133931529D01*
X159261905Y-133931529D02*
X159166667Y-133883910D01*
X159166667Y-133883910D02*
X159119048Y-133836291D01*
X159119048Y-133836291D02*
X159071429Y-133741053D01*
X159071429Y-133741053D02*
X159071429Y-133645815D01*
X159071429Y-133645815D02*
X159119048Y-133550577D01*
X159119048Y-133550577D02*
X159166667Y-133502958D01*
X159166667Y-133502958D02*
X159261905Y-133455339D01*
X159261905Y-133455339D02*
X159500000Y-133455339D01*
X159500000Y-133455339D02*
X159642857Y-133502958D01*
X159833334Y-134550577D02*
X160595238Y-134550577D01*
X161309524Y-133455339D02*
X160833334Y-133455339D01*
X160833334Y-133455339D02*
X160785715Y-133931529D01*
X160785715Y-133931529D02*
X160833334Y-133883910D01*
X160833334Y-133883910D02*
X160928572Y-133836291D01*
X160928572Y-133836291D02*
X161166667Y-133836291D01*
X161166667Y-133836291D02*
X161261905Y-133883910D01*
X161261905Y-133883910D02*
X161309524Y-133931529D01*
X161309524Y-133931529D02*
X161357143Y-134026767D01*
X161357143Y-134026767D02*
X161357143Y-134264862D01*
X161357143Y-134264862D02*
X161309524Y-134360100D01*
X161309524Y-134360100D02*
X161261905Y-134407720D01*
X161261905Y-134407720D02*
X161166667Y-134455339D01*
X161166667Y-134455339D02*
X160928572Y-134455339D01*
X160928572Y-134455339D02*
X160833334Y-134407720D01*
X160833334Y-134407720D02*
X160785715Y-134360100D01*
X161642858Y-133455339D02*
X161976191Y-134455339D01*
X161976191Y-134455339D02*
X162309524Y-133455339D01*
D14*
X94601080Y-111596554D02*
X94601080Y-110967982D01*
X95701080Y-111282268D02*
X94601080Y-111282268D01*
X95124890Y-110601316D02*
X95124890Y-110234649D01*
X95701080Y-110077506D02*
X95701080Y-110601316D01*
X95701080Y-110601316D02*
X94601080Y-110601316D01*
X94601080Y-110601316D02*
X94601080Y-110077506D01*
X95701080Y-109606078D02*
X94601080Y-109606078D01*
X94601080Y-109606078D02*
X95386795Y-109239411D01*
X95386795Y-109239411D02*
X94601080Y-108872744D01*
X94601080Y-108872744D02*
X95701080Y-108872744D01*
X95701080Y-108348935D02*
X94601080Y-108348935D01*
X94601080Y-108348935D02*
X94601080Y-107929887D01*
X94601080Y-107929887D02*
X94653461Y-107825125D01*
X94653461Y-107825125D02*
X94705842Y-107772744D01*
X94705842Y-107772744D02*
X94810604Y-107720363D01*
X94810604Y-107720363D02*
X94967747Y-107720363D01*
X94967747Y-107720363D02*
X95072509Y-107772744D01*
X95072509Y-107772744D02*
X95124890Y-107825125D01*
X95124890Y-107825125D02*
X95177271Y-107929887D01*
X95177271Y-107929887D02*
X95177271Y-108348935D01*
X95701080Y-106410840D02*
X94601080Y-106410840D01*
X95701080Y-105887030D02*
X94601080Y-105887030D01*
X94601080Y-105887030D02*
X95701080Y-105258458D01*
X95701080Y-105258458D02*
X94601080Y-105258458D01*
X95701080Y-104734649D02*
X94601080Y-104734649D01*
X94601080Y-104734649D02*
X94601080Y-104315601D01*
X94601080Y-104315601D02*
X94653461Y-104210839D01*
X94653461Y-104210839D02*
X94705842Y-104158458D01*
X94705842Y-104158458D02*
X94810604Y-104106077D01*
X94810604Y-104106077D02*
X94967747Y-104106077D01*
X94967747Y-104106077D02*
X95072509Y-104158458D01*
X95072509Y-104158458D02*
X95124890Y-104210839D01*
X95124890Y-104210839D02*
X95177271Y-104315601D01*
X95177271Y-104315601D02*
X95177271Y-104734649D01*
X94601080Y-103634649D02*
X95491557Y-103634649D01*
X95491557Y-103634649D02*
X95596319Y-103582268D01*
X95596319Y-103582268D02*
X95648700Y-103529887D01*
X95648700Y-103529887D02*
X95701080Y-103425125D01*
X95701080Y-103425125D02*
X95701080Y-103215601D01*
X95701080Y-103215601D02*
X95648700Y-103110839D01*
X95648700Y-103110839D02*
X95596319Y-103058458D01*
X95596319Y-103058458D02*
X95491557Y-103006077D01*
X95491557Y-103006077D02*
X94601080Y-103006077D01*
X94601080Y-102639411D02*
X94601080Y-102010839D01*
X95701080Y-102325125D02*
X94601080Y-102325125D01*
X95596319Y-101644173D02*
X95648700Y-101591792D01*
X95648700Y-101591792D02*
X95701080Y-101644173D01*
X95701080Y-101644173D02*
X95648700Y-101696554D01*
X95648700Y-101696554D02*
X95596319Y-101644173D01*
X95596319Y-101644173D02*
X95701080Y-101644173D01*
X95020128Y-101644173D02*
X95072509Y-101591792D01*
X95072509Y-101591792D02*
X95124890Y-101644173D01*
X95124890Y-101644173D02*
X95072509Y-101696554D01*
X95072509Y-101696554D02*
X95020128Y-101644173D01*
X95020128Y-101644173D02*
X95124890Y-101644173D01*
X95701080Y-99758458D02*
X95701080Y-100282268D01*
X95701080Y-100282268D02*
X94601080Y-100282268D01*
X95124890Y-99391792D02*
X95124890Y-99025125D01*
X95701080Y-98867982D02*
X95701080Y-99391792D01*
X95701080Y-99391792D02*
X94601080Y-99391792D01*
X94601080Y-99391792D02*
X94601080Y-98867982D01*
X95124890Y-98029887D02*
X95124890Y-98396554D01*
X95701080Y-98396554D02*
X94601080Y-98396554D01*
X94601080Y-98396554D02*
X94601080Y-97872744D01*
X94601080Y-97610840D02*
X94601080Y-96982268D01*
X95701080Y-97296554D02*
X94601080Y-97296554D01*
X94705842Y-95829888D02*
X94653461Y-95777507D01*
X94653461Y-95777507D02*
X94601080Y-95672745D01*
X94601080Y-95672745D02*
X94601080Y-95410840D01*
X94601080Y-95410840D02*
X94653461Y-95306078D01*
X94653461Y-95306078D02*
X94705842Y-95253697D01*
X94705842Y-95253697D02*
X94810604Y-95201316D01*
X94810604Y-95201316D02*
X94915366Y-95201316D01*
X94915366Y-95201316D02*
X95072509Y-95253697D01*
X95072509Y-95253697D02*
X95701080Y-95882269D01*
X95701080Y-95882269D02*
X95701080Y-95201316D01*
X94601080Y-94834650D02*
X94601080Y-94153697D01*
X94601080Y-94153697D02*
X95020128Y-94520364D01*
X95020128Y-94520364D02*
X95020128Y-94363221D01*
X95020128Y-94363221D02*
X95072509Y-94258459D01*
X95072509Y-94258459D02*
X95124890Y-94206078D01*
X95124890Y-94206078D02*
X95229652Y-94153697D01*
X95229652Y-94153697D02*
X95491557Y-94153697D01*
X95491557Y-94153697D02*
X95596319Y-94206078D01*
X95596319Y-94206078D02*
X95648700Y-94258459D01*
X95648700Y-94258459D02*
X95701080Y-94363221D01*
X95701080Y-94363221D02*
X95701080Y-94677507D01*
X95701080Y-94677507D02*
X95648700Y-94782269D01*
X95648700Y-94782269D02*
X95596319Y-94834650D01*
X94601080Y-93472745D02*
X94601080Y-93367983D01*
X94601080Y-93367983D02*
X94653461Y-93263221D01*
X94653461Y-93263221D02*
X94705842Y-93210840D01*
X94705842Y-93210840D02*
X94810604Y-93158459D01*
X94810604Y-93158459D02*
X95020128Y-93106078D01*
X95020128Y-93106078D02*
X95282033Y-93106078D01*
X95282033Y-93106078D02*
X95491557Y-93158459D01*
X95491557Y-93158459D02*
X95596319Y-93210840D01*
X95596319Y-93210840D02*
X95648700Y-93263221D01*
X95648700Y-93263221D02*
X95701080Y-93367983D01*
X95701080Y-93367983D02*
X95701080Y-93472745D01*
X95701080Y-93472745D02*
X95648700Y-93577507D01*
X95648700Y-93577507D02*
X95596319Y-93629888D01*
X95596319Y-93629888D02*
X95491557Y-93682269D01*
X95491557Y-93682269D02*
X95282033Y-93734650D01*
X95282033Y-93734650D02*
X95020128Y-93734650D01*
X95020128Y-93734650D02*
X94810604Y-93682269D01*
X94810604Y-93682269D02*
X94705842Y-93629888D01*
X94705842Y-93629888D02*
X94653461Y-93577507D01*
X94653461Y-93577507D02*
X94601080Y-93472745D01*
X94601080Y-92791793D02*
X95701080Y-92425126D01*
X95701080Y-92425126D02*
X94601080Y-92058459D01*
X94548700Y-90906078D02*
X95962985Y-91848936D01*
X95701080Y-89910840D02*
X95177271Y-90277507D01*
X95701080Y-90539412D02*
X94601080Y-90539412D01*
X94601080Y-90539412D02*
X94601080Y-90120364D01*
X94601080Y-90120364D02*
X94653461Y-90015602D01*
X94653461Y-90015602D02*
X94705842Y-89963221D01*
X94705842Y-89963221D02*
X94810604Y-89910840D01*
X94810604Y-89910840D02*
X94967747Y-89910840D01*
X94967747Y-89910840D02*
X95072509Y-89963221D01*
X95072509Y-89963221D02*
X95124890Y-90015602D01*
X95124890Y-90015602D02*
X95177271Y-90120364D01*
X95177271Y-90120364D02*
X95177271Y-90539412D01*
X95124890Y-89439412D02*
X95124890Y-89072745D01*
X95701080Y-88915602D02*
X95701080Y-89439412D01*
X95701080Y-89439412D02*
X94601080Y-89439412D01*
X94601080Y-89439412D02*
X94601080Y-88915602D01*
X95701080Y-87920364D02*
X95701080Y-88444174D01*
X95701080Y-88444174D02*
X94601080Y-88444174D01*
X95386795Y-87606079D02*
X95386795Y-87082269D01*
X95701080Y-87710841D02*
X94601080Y-87344174D01*
X94601080Y-87344174D02*
X95701080Y-86977507D01*
X95177271Y-86401317D02*
X95701080Y-86401317D01*
X94601080Y-86767984D02*
X95177271Y-86401317D01*
X95177271Y-86401317D02*
X94601080Y-86034650D01*
X95648700Y-84882270D02*
X95701080Y-84725127D01*
X95701080Y-84725127D02*
X95701080Y-84463222D01*
X95701080Y-84463222D02*
X95648700Y-84358460D01*
X95648700Y-84358460D02*
X95596319Y-84306079D01*
X95596319Y-84306079D02*
X95491557Y-84253698D01*
X95491557Y-84253698D02*
X95386795Y-84253698D01*
X95386795Y-84253698D02*
X95282033Y-84306079D01*
X95282033Y-84306079D02*
X95229652Y-84358460D01*
X95229652Y-84358460D02*
X95177271Y-84463222D01*
X95177271Y-84463222D02*
X95124890Y-84672746D01*
X95124890Y-84672746D02*
X95072509Y-84777508D01*
X95072509Y-84777508D02*
X95020128Y-84829889D01*
X95020128Y-84829889D02*
X94915366Y-84882270D01*
X94915366Y-84882270D02*
X94810604Y-84882270D01*
X94810604Y-84882270D02*
X94705842Y-84829889D01*
X94705842Y-84829889D02*
X94653461Y-84777508D01*
X94653461Y-84777508D02*
X94601080Y-84672746D01*
X94601080Y-84672746D02*
X94601080Y-84410841D01*
X94601080Y-84410841D02*
X94653461Y-84253698D01*
X95701080Y-83782270D02*
X94601080Y-83782270D01*
X95701080Y-83258460D02*
X94601080Y-83258460D01*
X94601080Y-83258460D02*
X94601080Y-82996555D01*
X94601080Y-82996555D02*
X94653461Y-82839412D01*
X94653461Y-82839412D02*
X94758223Y-82734650D01*
X94758223Y-82734650D02*
X94862985Y-82682269D01*
X94862985Y-82682269D02*
X95072509Y-82629888D01*
X95072509Y-82629888D02*
X95229652Y-82629888D01*
X95229652Y-82629888D02*
X95439176Y-82682269D01*
X95439176Y-82682269D02*
X95543938Y-82734650D01*
X95543938Y-82734650D02*
X95648700Y-82839412D01*
X95648700Y-82839412D02*
X95701080Y-82996555D01*
X95701080Y-82996555D02*
X95701080Y-83258460D01*
X95124890Y-82158460D02*
X95124890Y-81791793D01*
X95701080Y-81634650D02*
X95701080Y-82158460D01*
X95701080Y-82158460D02*
X94601080Y-82158460D01*
X94601080Y-82158460D02*
X94601080Y-81634650D01*
X95701080Y-80325127D02*
X94601080Y-80325127D01*
X94601080Y-80325127D02*
X94601080Y-80063222D01*
X94601080Y-80063222D02*
X94653461Y-79906079D01*
X94653461Y-79906079D02*
X94758223Y-79801317D01*
X94758223Y-79801317D02*
X94862985Y-79748936D01*
X94862985Y-79748936D02*
X95072509Y-79696555D01*
X95072509Y-79696555D02*
X95229652Y-79696555D01*
X95229652Y-79696555D02*
X95439176Y-79748936D01*
X95439176Y-79748936D02*
X95543938Y-79801317D01*
X95543938Y-79801317D02*
X95648700Y-79906079D01*
X95648700Y-79906079D02*
X95701080Y-80063222D01*
X95701080Y-80063222D02*
X95701080Y-80325127D01*
X95701080Y-79225127D02*
X94601080Y-79225127D01*
X94601080Y-79225127D02*
X95701080Y-78596555D01*
X95701080Y-78596555D02*
X94601080Y-78596555D01*
X95701080Y-78072746D02*
X94601080Y-78072746D01*
X94601080Y-78072746D02*
X94601080Y-77653698D01*
X94601080Y-77653698D02*
X94653461Y-77548936D01*
X94653461Y-77548936D02*
X94705842Y-77496555D01*
X94705842Y-77496555D02*
X94810604Y-77444174D01*
X94810604Y-77444174D02*
X94967747Y-77444174D01*
X94967747Y-77444174D02*
X95072509Y-77496555D01*
X95072509Y-77496555D02*
X95124890Y-77548936D01*
X95124890Y-77548936D02*
X95177271Y-77653698D01*
X95177271Y-77653698D02*
X95177271Y-78072746D01*
D10*
X90499997Y-140817000D02*
X90785711Y-140912238D01*
X90785711Y-140912238D02*
X91261902Y-140912238D01*
X91261902Y-140912238D02*
X91452378Y-140817000D01*
X91452378Y-140817000D02*
X91547616Y-140721761D01*
X91547616Y-140721761D02*
X91642854Y-140531285D01*
X91642854Y-140531285D02*
X91642854Y-140340809D01*
X91642854Y-140340809D02*
X91547616Y-140150333D01*
X91547616Y-140150333D02*
X91452378Y-140055095D01*
X91452378Y-140055095D02*
X91261902Y-139959857D01*
X91261902Y-139959857D02*
X90880949Y-139864619D01*
X90880949Y-139864619D02*
X90690473Y-139769380D01*
X90690473Y-139769380D02*
X90595235Y-139674142D01*
X90595235Y-139674142D02*
X90499997Y-139483666D01*
X90499997Y-139483666D02*
X90499997Y-139293190D01*
X90499997Y-139293190D02*
X90595235Y-139102714D01*
X90595235Y-139102714D02*
X90690473Y-139007476D01*
X90690473Y-139007476D02*
X90880949Y-138912238D01*
X90880949Y-138912238D02*
X91357140Y-138912238D01*
X91357140Y-138912238D02*
X91642854Y-139007476D01*
X92499997Y-139864619D02*
X93166664Y-139864619D01*
X93452378Y-140912238D02*
X92499997Y-140912238D01*
X92499997Y-140912238D02*
X92499997Y-138912238D01*
X92499997Y-138912238D02*
X93452378Y-138912238D01*
X95261902Y-140912238D02*
X94309521Y-140912238D01*
X94309521Y-140912238D02*
X94309521Y-138912238D01*
X95642855Y-138912238D02*
X96309521Y-140912238D01*
X96309521Y-140912238D02*
X96976188Y-138912238D01*
X100595236Y-138817000D02*
X98880951Y-141388428D01*
X102785713Y-139864619D02*
X103452380Y-139864619D01*
X103738094Y-140912238D02*
X102785713Y-140912238D01*
X102785713Y-140912238D02*
X102785713Y-138912238D01*
X102785713Y-138912238D02*
X103738094Y-138912238D01*
X104499999Y-140817000D02*
X104785713Y-140912238D01*
X104785713Y-140912238D02*
X105261904Y-140912238D01*
X105261904Y-140912238D02*
X105452380Y-140817000D01*
X105452380Y-140817000D02*
X105547618Y-140721761D01*
X105547618Y-140721761D02*
X105642856Y-140531285D01*
X105642856Y-140531285D02*
X105642856Y-140340809D01*
X105642856Y-140340809D02*
X105547618Y-140150333D01*
X105547618Y-140150333D02*
X105452380Y-140055095D01*
X105452380Y-140055095D02*
X105261904Y-139959857D01*
X105261904Y-139959857D02*
X104880951Y-139864619D01*
X104880951Y-139864619D02*
X104690475Y-139769380D01*
X104690475Y-139769380D02*
X104595237Y-139674142D01*
X104595237Y-139674142D02*
X104499999Y-139483666D01*
X104499999Y-139483666D02*
X104499999Y-139293190D01*
X104499999Y-139293190D02*
X104595237Y-139102714D01*
X104595237Y-139102714D02*
X104690475Y-139007476D01*
X104690475Y-139007476D02*
X104880951Y-138912238D01*
X104880951Y-138912238D02*
X105357142Y-138912238D01*
X105357142Y-138912238D02*
X105642856Y-139007476D01*
X106499999Y-140912238D02*
X106499999Y-138912238D01*
X106499999Y-138912238D02*
X107261904Y-138912238D01*
X107261904Y-138912238D02*
X107452380Y-139007476D01*
X107452380Y-139007476D02*
X107547618Y-139102714D01*
X107547618Y-139102714D02*
X107642856Y-139293190D01*
X107642856Y-139293190D02*
X107642856Y-139578904D01*
X107642856Y-139578904D02*
X107547618Y-139769380D01*
X107547618Y-139769380D02*
X107452380Y-139864619D01*
X107452380Y-139864619D02*
X107261904Y-139959857D01*
X107261904Y-139959857D02*
X106499999Y-139959857D01*
X108309523Y-138912238D02*
X109547618Y-138912238D01*
X109547618Y-138912238D02*
X108880951Y-139674142D01*
X108880951Y-139674142D02*
X109166666Y-139674142D01*
X109166666Y-139674142D02*
X109357142Y-139769380D01*
X109357142Y-139769380D02*
X109452380Y-139864619D01*
X109452380Y-139864619D02*
X109547618Y-140055095D01*
X109547618Y-140055095D02*
X109547618Y-140531285D01*
X109547618Y-140531285D02*
X109452380Y-140721761D01*
X109452380Y-140721761D02*
X109357142Y-140817000D01*
X109357142Y-140817000D02*
X109166666Y-140912238D01*
X109166666Y-140912238D02*
X108595237Y-140912238D01*
X108595237Y-140912238D02*
X108404761Y-140817000D01*
X108404761Y-140817000D02*
X108309523Y-140721761D01*
X110309523Y-139102714D02*
X110404761Y-139007476D01*
X110404761Y-139007476D02*
X110595237Y-138912238D01*
X110595237Y-138912238D02*
X111071428Y-138912238D01*
X111071428Y-138912238D02*
X111261904Y-139007476D01*
X111261904Y-139007476D02*
X111357142Y-139102714D01*
X111357142Y-139102714D02*
X111452380Y-139293190D01*
X111452380Y-139293190D02*
X111452380Y-139483666D01*
X111452380Y-139483666D02*
X111357142Y-139769380D01*
X111357142Y-139769380D02*
X110214285Y-140912238D01*
X110214285Y-140912238D02*
X111452380Y-140912238D01*
X115261904Y-138817000D02*
X113547619Y-141388428D01*
X118595238Y-140912238D02*
X117928571Y-139959857D01*
X117452381Y-140912238D02*
X117452381Y-138912238D01*
X117452381Y-138912238D02*
X118214286Y-138912238D01*
X118214286Y-138912238D02*
X118404762Y-139007476D01*
X118404762Y-139007476D02*
X118500000Y-139102714D01*
X118500000Y-139102714D02*
X118595238Y-139293190D01*
X118595238Y-139293190D02*
X118595238Y-139578904D01*
X118595238Y-139578904D02*
X118500000Y-139769380D01*
X118500000Y-139769380D02*
X118404762Y-139864619D01*
X118404762Y-139864619D02*
X118214286Y-139959857D01*
X118214286Y-139959857D02*
X117452381Y-139959857D01*
X119357143Y-140817000D02*
X119642857Y-140912238D01*
X119642857Y-140912238D02*
X120119048Y-140912238D01*
X120119048Y-140912238D02*
X120309524Y-140817000D01*
X120309524Y-140817000D02*
X120404762Y-140721761D01*
X120404762Y-140721761D02*
X120500000Y-140531285D01*
X120500000Y-140531285D02*
X120500000Y-140340809D01*
X120500000Y-140340809D02*
X120404762Y-140150333D01*
X120404762Y-140150333D02*
X120309524Y-140055095D01*
X120309524Y-140055095D02*
X120119048Y-139959857D01*
X120119048Y-139959857D02*
X119738095Y-139864619D01*
X119738095Y-139864619D02*
X119547619Y-139769380D01*
X119547619Y-139769380D02*
X119452381Y-139674142D01*
X119452381Y-139674142D02*
X119357143Y-139483666D01*
X119357143Y-139483666D02*
X119357143Y-139293190D01*
X119357143Y-139293190D02*
X119452381Y-139102714D01*
X119452381Y-139102714D02*
X119547619Y-139007476D01*
X119547619Y-139007476D02*
X119738095Y-138912238D01*
X119738095Y-138912238D02*
X120214286Y-138912238D01*
X120214286Y-138912238D02*
X120500000Y-139007476D01*
X122214286Y-139578904D02*
X122214286Y-140912238D01*
X121738095Y-138817000D02*
X121261905Y-140245571D01*
X121261905Y-140245571D02*
X122500000Y-140245571D01*
X123547619Y-139769380D02*
X123357143Y-139674142D01*
X123357143Y-139674142D02*
X123261905Y-139578904D01*
X123261905Y-139578904D02*
X123166667Y-139388428D01*
X123166667Y-139388428D02*
X123166667Y-139293190D01*
X123166667Y-139293190D02*
X123261905Y-139102714D01*
X123261905Y-139102714D02*
X123357143Y-139007476D01*
X123357143Y-139007476D02*
X123547619Y-138912238D01*
X123547619Y-138912238D02*
X123928572Y-138912238D01*
X123928572Y-138912238D02*
X124119048Y-139007476D01*
X124119048Y-139007476D02*
X124214286Y-139102714D01*
X124214286Y-139102714D02*
X124309524Y-139293190D01*
X124309524Y-139293190D02*
X124309524Y-139388428D01*
X124309524Y-139388428D02*
X124214286Y-139578904D01*
X124214286Y-139578904D02*
X124119048Y-139674142D01*
X124119048Y-139674142D02*
X123928572Y-139769380D01*
X123928572Y-139769380D02*
X123547619Y-139769380D01*
X123547619Y-139769380D02*
X123357143Y-139864619D01*
X123357143Y-139864619D02*
X123261905Y-139959857D01*
X123261905Y-139959857D02*
X123166667Y-140150333D01*
X123166667Y-140150333D02*
X123166667Y-140531285D01*
X123166667Y-140531285D02*
X123261905Y-140721761D01*
X123261905Y-140721761D02*
X123357143Y-140817000D01*
X123357143Y-140817000D02*
X123547619Y-140912238D01*
X123547619Y-140912238D02*
X123928572Y-140912238D01*
X123928572Y-140912238D02*
X124119048Y-140817000D01*
X124119048Y-140817000D02*
X124214286Y-140721761D01*
X124214286Y-140721761D02*
X124309524Y-140531285D01*
X124309524Y-140531285D02*
X124309524Y-140150333D01*
X124309524Y-140150333D02*
X124214286Y-139959857D01*
X124214286Y-139959857D02*
X124119048Y-139864619D01*
X124119048Y-139864619D02*
X123928572Y-139769380D01*
X126119048Y-138912238D02*
X125166667Y-138912238D01*
X125166667Y-138912238D02*
X125071429Y-139864619D01*
X125071429Y-139864619D02*
X125166667Y-139769380D01*
X125166667Y-139769380D02*
X125357143Y-139674142D01*
X125357143Y-139674142D02*
X125833334Y-139674142D01*
X125833334Y-139674142D02*
X126023810Y-139769380D01*
X126023810Y-139769380D02*
X126119048Y-139864619D01*
X126119048Y-139864619D02*
X126214286Y-140055095D01*
X126214286Y-140055095D02*
X126214286Y-140531285D01*
X126214286Y-140531285D02*
X126119048Y-140721761D01*
X126119048Y-140721761D02*
X126023810Y-140817000D01*
X126023810Y-140817000D02*
X125833334Y-140912238D01*
X125833334Y-140912238D02*
X125357143Y-140912238D01*
X125357143Y-140912238D02*
X125166667Y-140817000D01*
X125166667Y-140817000D02*
X125071429Y-140721761D01*
X130023810Y-138817000D02*
X128309525Y-141388428D01*
X133357144Y-140912238D02*
X132690477Y-139959857D01*
X132214287Y-140912238D02*
X132214287Y-138912238D01*
X132214287Y-138912238D02*
X132976192Y-138912238D01*
X132976192Y-138912238D02*
X133166668Y-139007476D01*
X133166668Y-139007476D02*
X133261906Y-139102714D01*
X133261906Y-139102714D02*
X133357144Y-139293190D01*
X133357144Y-139293190D02*
X133357144Y-139578904D01*
X133357144Y-139578904D02*
X133261906Y-139769380D01*
X133261906Y-139769380D02*
X133166668Y-139864619D01*
X133166668Y-139864619D02*
X132976192Y-139959857D01*
X132976192Y-139959857D02*
X132214287Y-139959857D01*
X133928573Y-138912238D02*
X135071430Y-138912238D01*
X134500001Y-140912238D02*
X134500001Y-138912238D01*
X135738097Y-140912238D02*
X135738097Y-138912238D01*
X135738097Y-138912238D02*
X136214287Y-138912238D01*
X136214287Y-138912238D02*
X136500002Y-139007476D01*
X136500002Y-139007476D02*
X136690478Y-139197952D01*
X136690478Y-139197952D02*
X136785716Y-139388428D01*
X136785716Y-139388428D02*
X136880954Y-139769380D01*
X136880954Y-139769380D02*
X136880954Y-140055095D01*
X136880954Y-140055095D02*
X136785716Y-140436047D01*
X136785716Y-140436047D02*
X136690478Y-140626523D01*
X136690478Y-140626523D02*
X136500002Y-140817000D01*
X136500002Y-140817000D02*
X136214287Y-140912238D01*
X136214287Y-140912238D02*
X135738097Y-140912238D01*
X140690478Y-138817000D02*
X138976193Y-141388428D01*
X142880955Y-138912238D02*
X142880955Y-140531285D01*
X142880955Y-140531285D02*
X142976193Y-140721761D01*
X142976193Y-140721761D02*
X143071431Y-140817000D01*
X143071431Y-140817000D02*
X143261907Y-140912238D01*
X143261907Y-140912238D02*
X143642860Y-140912238D01*
X143642860Y-140912238D02*
X143833336Y-140817000D01*
X143833336Y-140817000D02*
X143928574Y-140721761D01*
X143928574Y-140721761D02*
X144023812Y-140531285D01*
X144023812Y-140531285D02*
X144023812Y-138912238D01*
X144880955Y-140817000D02*
X145166669Y-140912238D01*
X145166669Y-140912238D02*
X145642860Y-140912238D01*
X145642860Y-140912238D02*
X145833336Y-140817000D01*
X145833336Y-140817000D02*
X145928574Y-140721761D01*
X145928574Y-140721761D02*
X146023812Y-140531285D01*
X146023812Y-140531285D02*
X146023812Y-140340809D01*
X146023812Y-140340809D02*
X145928574Y-140150333D01*
X145928574Y-140150333D02*
X145833336Y-140055095D01*
X145833336Y-140055095D02*
X145642860Y-139959857D01*
X145642860Y-139959857D02*
X145261907Y-139864619D01*
X145261907Y-139864619D02*
X145071431Y-139769380D01*
X145071431Y-139769380D02*
X144976193Y-139674142D01*
X144976193Y-139674142D02*
X144880955Y-139483666D01*
X144880955Y-139483666D02*
X144880955Y-139293190D01*
X144880955Y-139293190D02*
X144976193Y-139102714D01*
X144976193Y-139102714D02*
X145071431Y-139007476D01*
X145071431Y-139007476D02*
X145261907Y-138912238D01*
X145261907Y-138912238D02*
X145738098Y-138912238D01*
X145738098Y-138912238D02*
X146023812Y-139007476D01*
X147547622Y-139864619D02*
X147833336Y-139959857D01*
X147833336Y-139959857D02*
X147928574Y-140055095D01*
X147928574Y-140055095D02*
X148023812Y-140245571D01*
X148023812Y-140245571D02*
X148023812Y-140531285D01*
X148023812Y-140531285D02*
X147928574Y-140721761D01*
X147928574Y-140721761D02*
X147833336Y-140817000D01*
X147833336Y-140817000D02*
X147642860Y-140912238D01*
X147642860Y-140912238D02*
X146880955Y-140912238D01*
X146880955Y-140912238D02*
X146880955Y-138912238D01*
X146880955Y-138912238D02*
X147547622Y-138912238D01*
X147547622Y-138912238D02*
X147738098Y-139007476D01*
X147738098Y-139007476D02*
X147833336Y-139102714D01*
X147833336Y-139102714D02*
X147928574Y-139293190D01*
X147928574Y-139293190D02*
X147928574Y-139483666D01*
X147928574Y-139483666D02*
X147833336Y-139674142D01*
X147833336Y-139674142D02*
X147738098Y-139769380D01*
X147738098Y-139769380D02*
X147547622Y-139864619D01*
X147547622Y-139864619D02*
X146880955Y-139864619D01*
X148880955Y-140150333D02*
X150404765Y-140150333D01*
X152500002Y-140721761D02*
X152404764Y-140817000D01*
X152404764Y-140817000D02*
X152119050Y-140912238D01*
X152119050Y-140912238D02*
X151928574Y-140912238D01*
X151928574Y-140912238D02*
X151642859Y-140817000D01*
X151642859Y-140817000D02*
X151452383Y-140626523D01*
X151452383Y-140626523D02*
X151357145Y-140436047D01*
X151357145Y-140436047D02*
X151261907Y-140055095D01*
X151261907Y-140055095D02*
X151261907Y-139769380D01*
X151261907Y-139769380D02*
X151357145Y-139388428D01*
X151357145Y-139388428D02*
X151452383Y-139197952D01*
X151452383Y-139197952D02*
X151642859Y-139007476D01*
X151642859Y-139007476D02*
X151928574Y-138912238D01*
X151928574Y-138912238D02*
X152119050Y-138912238D01*
X152119050Y-138912238D02*
X152404764Y-139007476D01*
X152404764Y-139007476D02*
X152500002Y-139102714D01*
D15*
X49428571Y-35655371D02*
X49571428Y-35512514D01*
X49571428Y-35512514D02*
X49857143Y-35369657D01*
X49857143Y-35369657D02*
X50571428Y-35369657D01*
X50571428Y-35369657D02*
X50857143Y-35512514D01*
X50857143Y-35512514D02*
X51000000Y-35655371D01*
X51000000Y-35655371D02*
X51142857Y-35941085D01*
X51142857Y-35941085D02*
X51142857Y-36226800D01*
X51142857Y-36226800D02*
X51000000Y-36655371D01*
X51000000Y-36655371D02*
X49285714Y-38369657D01*
X49285714Y-38369657D02*
X51142857Y-38369657D01*
X52142857Y-35369657D02*
X54000000Y-35369657D01*
X54000000Y-35369657D02*
X53000000Y-36512514D01*
X53000000Y-36512514D02*
X53428571Y-36512514D01*
X53428571Y-36512514D02*
X53714286Y-36655371D01*
X53714286Y-36655371D02*
X53857143Y-36798228D01*
X53857143Y-36798228D02*
X54000000Y-37083942D01*
X54000000Y-37083942D02*
X54000000Y-37798228D01*
X54000000Y-37798228D02*
X53857143Y-38083942D01*
X53857143Y-38083942D02*
X53714286Y-38226800D01*
X53714286Y-38226800D02*
X53428571Y-38369657D01*
X53428571Y-38369657D02*
X52571428Y-38369657D01*
X52571428Y-38369657D02*
X52285714Y-38226800D01*
X52285714Y-38226800D02*
X52142857Y-38083942D01*
X55857143Y-35369657D02*
X56142857Y-35369657D01*
X56142857Y-35369657D02*
X56428571Y-35512514D01*
X56428571Y-35512514D02*
X56571429Y-35655371D01*
X56571429Y-35655371D02*
X56714286Y-35941085D01*
X56714286Y-35941085D02*
X56857143Y-36512514D01*
X56857143Y-36512514D02*
X56857143Y-37226800D01*
X56857143Y-37226800D02*
X56714286Y-37798228D01*
X56714286Y-37798228D02*
X56571429Y-38083942D01*
X56571429Y-38083942D02*
X56428571Y-38226800D01*
X56428571Y-38226800D02*
X56142857Y-38369657D01*
X56142857Y-38369657D02*
X55857143Y-38369657D01*
X55857143Y-38369657D02*
X55571429Y-38226800D01*
X55571429Y-38226800D02*
X55428571Y-38083942D01*
X55428571Y-38083942D02*
X55285714Y-37798228D01*
X55285714Y-37798228D02*
X55142857Y-37226800D01*
X55142857Y-37226800D02*
X55142857Y-36512514D01*
X55142857Y-36512514D02*
X55285714Y-35941085D01*
X55285714Y-35941085D02*
X55428571Y-35655371D01*
X55428571Y-35655371D02*
X55571429Y-35512514D01*
X55571429Y-35512514D02*
X55857143Y-35369657D01*
X60000000Y-35369657D02*
X61000000Y-38369657D01*
X61000000Y-38369657D02*
X62000000Y-35369657D01*
X65142857Y-37512514D02*
X66571429Y-37512514D01*
X64857143Y-38369657D02*
X65857143Y-35369657D01*
X65857143Y-35369657D02*
X66857143Y-38369657D01*
X69571429Y-38083942D02*
X69428572Y-38226800D01*
X69428572Y-38226800D02*
X69000000Y-38369657D01*
X69000000Y-38369657D02*
X68714286Y-38369657D01*
X68714286Y-38369657D02*
X68285715Y-38226800D01*
X68285715Y-38226800D02*
X68000000Y-37941085D01*
X68000000Y-37941085D02*
X67857143Y-37655371D01*
X67857143Y-37655371D02*
X67714286Y-37083942D01*
X67714286Y-37083942D02*
X67714286Y-36655371D01*
X67714286Y-36655371D02*
X67857143Y-36083942D01*
X67857143Y-36083942D02*
X68000000Y-35798228D01*
X68000000Y-35798228D02*
X68285715Y-35512514D01*
X68285715Y-35512514D02*
X68714286Y-35369657D01*
X68714286Y-35369657D02*
X69000000Y-35369657D01*
X69000000Y-35369657D02*
X69428572Y-35512514D01*
X69428572Y-35512514D02*
X69571429Y-35655371D01*
D14*
X144738095Y-100554819D02*
X144738095Y-101364342D01*
X144738095Y-101364342D02*
X144785714Y-101459580D01*
X144785714Y-101459580D02*
X144833333Y-101507200D01*
X144833333Y-101507200D02*
X144928571Y-101554819D01*
X144928571Y-101554819D02*
X145119047Y-101554819D01*
X145119047Y-101554819D02*
X145214285Y-101507200D01*
X145214285Y-101507200D02*
X145261904Y-101459580D01*
X145261904Y-101459580D02*
X145309523Y-101364342D01*
X145309523Y-101364342D02*
X145309523Y-100554819D01*
X146214285Y-100888152D02*
X146214285Y-101554819D01*
X145976190Y-100507200D02*
X145738095Y-101221485D01*
X145738095Y-101221485D02*
X146357142Y-101221485D01*
X106954819Y-42761904D02*
X107764342Y-42761904D01*
X107764342Y-42761904D02*
X107859580Y-42714285D01*
X107859580Y-42714285D02*
X107907200Y-42666666D01*
X107907200Y-42666666D02*
X107954819Y-42571428D01*
X107954819Y-42571428D02*
X107954819Y-42380952D01*
X107954819Y-42380952D02*
X107907200Y-42285714D01*
X107907200Y-42285714D02*
X107859580Y-42238095D01*
X107859580Y-42238095D02*
X107764342Y-42190476D01*
X107764342Y-42190476D02*
X106954819Y-42190476D01*
X106954819Y-41238095D02*
X106954819Y-41714285D01*
X106954819Y-41714285D02*
X107431009Y-41761904D01*
X107431009Y-41761904D02*
X107383390Y-41714285D01*
X107383390Y-41714285D02*
X107335771Y-41619047D01*
X107335771Y-41619047D02*
X107335771Y-41380952D01*
X107335771Y-41380952D02*
X107383390Y-41285714D01*
X107383390Y-41285714D02*
X107431009Y-41238095D01*
X107431009Y-41238095D02*
X107526247Y-41190476D01*
X107526247Y-41190476D02*
X107764342Y-41190476D01*
X107764342Y-41190476D02*
X107859580Y-41238095D01*
X107859580Y-41238095D02*
X107907200Y-41285714D01*
X107907200Y-41285714D02*
X107954819Y-41380952D01*
X107954819Y-41380952D02*
X107954819Y-41619047D01*
X107954819Y-41619047D02*
X107907200Y-41714285D01*
X107907200Y-41714285D02*
X107859580Y-41761904D01*
X111278571Y-103512295D02*
X110821428Y-103512295D01*
X111050000Y-103512295D02*
X111050000Y-102712295D01*
X111050000Y-102712295D02*
X110973809Y-102826580D01*
X110973809Y-102826580D02*
X110897619Y-102902771D01*
X110897619Y-102902771D02*
X110821428Y-102940866D01*
X126357142Y-42524819D02*
X126023809Y-42048628D01*
X125785714Y-42524819D02*
X125785714Y-41524819D01*
X125785714Y-41524819D02*
X126166666Y-41524819D01*
X126166666Y-41524819D02*
X126261904Y-41572438D01*
X126261904Y-41572438D02*
X126309523Y-41620057D01*
X126309523Y-41620057D02*
X126357142Y-41715295D01*
X126357142Y-41715295D02*
X126357142Y-41858152D01*
X126357142Y-41858152D02*
X126309523Y-41953390D01*
X126309523Y-41953390D02*
X126261904Y-42001009D01*
X126261904Y-42001009D02*
X126166666Y-42048628D01*
X126166666Y-42048628D02*
X125785714Y-42048628D01*
X126833333Y-42524819D02*
X127023809Y-42524819D01*
X127023809Y-42524819D02*
X127119047Y-42477200D01*
X127119047Y-42477200D02*
X127166666Y-42429580D01*
X127166666Y-42429580D02*
X127261904Y-42286723D01*
X127261904Y-42286723D02*
X127309523Y-42096247D01*
X127309523Y-42096247D02*
X127309523Y-41715295D01*
X127309523Y-41715295D02*
X127261904Y-41620057D01*
X127261904Y-41620057D02*
X127214285Y-41572438D01*
X127214285Y-41572438D02*
X127119047Y-41524819D01*
X127119047Y-41524819D02*
X126928571Y-41524819D01*
X126928571Y-41524819D02*
X126833333Y-41572438D01*
X126833333Y-41572438D02*
X126785714Y-41620057D01*
X126785714Y-41620057D02*
X126738095Y-41715295D01*
X126738095Y-41715295D02*
X126738095Y-41953390D01*
X126738095Y-41953390D02*
X126785714Y-42048628D01*
X126785714Y-42048628D02*
X126833333Y-42096247D01*
X126833333Y-42096247D02*
X126928571Y-42143866D01*
X126928571Y-42143866D02*
X127119047Y-42143866D01*
X127119047Y-42143866D02*
X127214285Y-42096247D01*
X127214285Y-42096247D02*
X127261904Y-42048628D01*
X127261904Y-42048628D02*
X127309523Y-41953390D01*
X127928571Y-41524819D02*
X128023809Y-41524819D01*
X128023809Y-41524819D02*
X128119047Y-41572438D01*
X128119047Y-41572438D02*
X128166666Y-41620057D01*
X128166666Y-41620057D02*
X128214285Y-41715295D01*
X128214285Y-41715295D02*
X128261904Y-41905771D01*
X128261904Y-41905771D02*
X128261904Y-42143866D01*
X128261904Y-42143866D02*
X128214285Y-42334342D01*
X128214285Y-42334342D02*
X128166666Y-42429580D01*
X128166666Y-42429580D02*
X128119047Y-42477200D01*
X128119047Y-42477200D02*
X128023809Y-42524819D01*
X128023809Y-42524819D02*
X127928571Y-42524819D01*
X127928571Y-42524819D02*
X127833333Y-42477200D01*
X127833333Y-42477200D02*
X127785714Y-42429580D01*
X127785714Y-42429580D02*
X127738095Y-42334342D01*
X127738095Y-42334342D02*
X127690476Y-42143866D01*
X127690476Y-42143866D02*
X127690476Y-41905771D01*
X127690476Y-41905771D02*
X127738095Y-41715295D01*
X127738095Y-41715295D02*
X127785714Y-41620057D01*
X127785714Y-41620057D02*
X127833333Y-41572438D01*
X127833333Y-41572438D02*
X127928571Y-41524819D01*
X43828571Y-41447342D02*
X44628571Y-42647342D01*
X44628571Y-41447342D02*
X43828571Y-42647342D01*
X45714285Y-42647342D02*
X45028571Y-42647342D01*
X45371428Y-42647342D02*
X45371428Y-41447342D01*
X45371428Y-41447342D02*
X45257142Y-41618771D01*
X45257142Y-41618771D02*
X45142857Y-41733057D01*
X45142857Y-41733057D02*
X45028571Y-41790200D01*
D16*
X51609523Y-47276379D02*
X51133333Y-47276379D01*
X51133333Y-47276379D02*
X51133333Y-46276379D01*
X51014286Y-52356379D02*
X51014286Y-51356379D01*
X51014286Y-51356379D02*
X51585714Y-52356379D01*
X51585714Y-52356379D02*
X51585714Y-51356379D01*
X50585714Y-57436379D02*
X50585714Y-56436379D01*
X50585714Y-56436379D02*
X50966666Y-56436379D01*
X50966666Y-56436379D02*
X51061904Y-56483998D01*
X51061904Y-56483998D02*
X51109523Y-56531617D01*
X51109523Y-56531617D02*
X51157142Y-56626855D01*
X51157142Y-56626855D02*
X51157142Y-56769712D01*
X51157142Y-56769712D02*
X51109523Y-56864950D01*
X51109523Y-56864950D02*
X51061904Y-56912569D01*
X51061904Y-56912569D02*
X50966666Y-56960188D01*
X50966666Y-56960188D02*
X50585714Y-56960188D01*
X51585714Y-56912569D02*
X51919047Y-56912569D01*
X52061904Y-57436379D02*
X51585714Y-57436379D01*
X51585714Y-57436379D02*
X51585714Y-56436379D01*
X51585714Y-56436379D02*
X52061904Y-56436379D01*
D14*
X61031009Y-59333333D02*
X61031009Y-59666666D01*
X61554819Y-59666666D02*
X60554819Y-59666666D01*
X60554819Y-59666666D02*
X60554819Y-59190476D01*
X61554819Y-58285714D02*
X61554819Y-58857142D01*
X61554819Y-58571428D02*
X60554819Y-58571428D01*
X60554819Y-58571428D02*
X60697676Y-58666666D01*
X60697676Y-58666666D02*
X60792914Y-58761904D01*
X60792914Y-58761904D02*
X60840533Y-58857142D01*
X84961905Y-46754819D02*
X84961905Y-45754819D01*
X84961905Y-45754819D02*
X85342857Y-45754819D01*
X85342857Y-45754819D02*
X85438095Y-45802438D01*
X85438095Y-45802438D02*
X85485714Y-45850057D01*
X85485714Y-45850057D02*
X85533333Y-45945295D01*
X85533333Y-45945295D02*
X85533333Y-46088152D01*
X85533333Y-46088152D02*
X85485714Y-46183390D01*
X85485714Y-46183390D02*
X85438095Y-46231009D01*
X85438095Y-46231009D02*
X85342857Y-46278628D01*
X85342857Y-46278628D02*
X84961905Y-46278628D01*
X85914286Y-46707200D02*
X86057143Y-46754819D01*
X86057143Y-46754819D02*
X86295238Y-46754819D01*
X86295238Y-46754819D02*
X86390476Y-46707200D01*
X86390476Y-46707200D02*
X86438095Y-46659580D01*
X86438095Y-46659580D02*
X86485714Y-46564342D01*
X86485714Y-46564342D02*
X86485714Y-46469104D01*
X86485714Y-46469104D02*
X86438095Y-46373866D01*
X86438095Y-46373866D02*
X86390476Y-46326247D01*
X86390476Y-46326247D02*
X86295238Y-46278628D01*
X86295238Y-46278628D02*
X86104762Y-46231009D01*
X86104762Y-46231009D02*
X86009524Y-46183390D01*
X86009524Y-46183390D02*
X85961905Y-46135771D01*
X85961905Y-46135771D02*
X85914286Y-46040533D01*
X85914286Y-46040533D02*
X85914286Y-45945295D01*
X85914286Y-45945295D02*
X85961905Y-45850057D01*
X85961905Y-45850057D02*
X86009524Y-45802438D01*
X86009524Y-45802438D02*
X86104762Y-45754819D01*
X86104762Y-45754819D02*
X86342857Y-45754819D01*
X86342857Y-45754819D02*
X86485714Y-45802438D01*
X86914286Y-45754819D02*
X86914286Y-46564342D01*
X86914286Y-46564342D02*
X86961905Y-46659580D01*
X86961905Y-46659580D02*
X87009524Y-46707200D01*
X87009524Y-46707200D02*
X87104762Y-46754819D01*
X87104762Y-46754819D02*
X87295238Y-46754819D01*
X87295238Y-46754819D02*
X87390476Y-46707200D01*
X87390476Y-46707200D02*
X87438095Y-46659580D01*
X87438095Y-46659580D02*
X87485714Y-46564342D01*
X87485714Y-46564342D02*
X87485714Y-45754819D01*
X88485714Y-46754819D02*
X87914286Y-46754819D01*
X88200000Y-46754819D02*
X88200000Y-45754819D01*
X88200000Y-45754819D02*
X88104762Y-45897676D01*
X88104762Y-45897676D02*
X88009524Y-45992914D01*
X88009524Y-45992914D02*
X87914286Y-46040533D01*
X43628571Y-81547342D02*
X44428571Y-82747342D01*
X44428571Y-81547342D02*
X43628571Y-82747342D01*
X44828571Y-81661628D02*
X44885714Y-81604485D01*
X44885714Y-81604485D02*
X45000000Y-81547342D01*
X45000000Y-81547342D02*
X45285714Y-81547342D01*
X45285714Y-81547342D02*
X45400000Y-81604485D01*
X45400000Y-81604485D02*
X45457142Y-81661628D01*
X45457142Y-81661628D02*
X45514285Y-81775914D01*
X45514285Y-81775914D02*
X45514285Y-81890200D01*
X45514285Y-81890200D02*
X45457142Y-82061628D01*
X45457142Y-82061628D02*
X44771428Y-82747342D01*
X44771428Y-82747342D02*
X45514285Y-82747342D01*
D16*
X51280952Y-87456379D02*
X50804762Y-87456379D01*
X50804762Y-87456379D02*
X50804762Y-86456379D01*
X51566667Y-87408760D02*
X51661905Y-87456379D01*
X51661905Y-87456379D02*
X51852381Y-87456379D01*
X51852381Y-87456379D02*
X51947619Y-87408760D01*
X51947619Y-87408760D02*
X51995238Y-87313521D01*
X51995238Y-87313521D02*
X51995238Y-87265902D01*
X51995238Y-87265902D02*
X51947619Y-87170664D01*
X51947619Y-87170664D02*
X51852381Y-87123045D01*
X51852381Y-87123045D02*
X51709524Y-87123045D01*
X51709524Y-87123045D02*
X51614286Y-87075426D01*
X51614286Y-87075426D02*
X51566667Y-86980188D01*
X51566667Y-86980188D02*
X51566667Y-86932569D01*
X51566667Y-86932569D02*
X51614286Y-86837331D01*
X51614286Y-86837331D02*
X51709524Y-86789712D01*
X51709524Y-86789712D02*
X51852381Y-86789712D01*
X51852381Y-86789712D02*
X51947619Y-86837331D01*
X52328572Y-86789712D02*
X52519048Y-87456379D01*
X52519048Y-87456379D02*
X52709524Y-86980188D01*
X52709524Y-86980188D02*
X52900000Y-87456379D01*
X52900000Y-87456379D02*
X53090476Y-86789712D01*
X51814286Y-92656379D02*
X51814286Y-91656379D01*
X51814286Y-91656379D02*
X52385714Y-92656379D01*
X52385714Y-92656379D02*
X52385714Y-91656379D01*
X51385714Y-97736379D02*
X51385714Y-96736379D01*
X51385714Y-96736379D02*
X51766666Y-96736379D01*
X51766666Y-96736379D02*
X51861904Y-96783998D01*
X51861904Y-96783998D02*
X51909523Y-96831617D01*
X51909523Y-96831617D02*
X51957142Y-96926855D01*
X51957142Y-96926855D02*
X51957142Y-97069712D01*
X51957142Y-97069712D02*
X51909523Y-97164950D01*
X51909523Y-97164950D02*
X51861904Y-97212569D01*
X51861904Y-97212569D02*
X51766666Y-97260188D01*
X51766666Y-97260188D02*
X51385714Y-97260188D01*
X52385714Y-97212569D02*
X52719047Y-97212569D01*
X52861904Y-97736379D02*
X52385714Y-97736379D01*
X52385714Y-97736379D02*
X52385714Y-96736379D01*
X52385714Y-96736379D02*
X52861904Y-96736379D01*
D14*
X43828571Y-103547342D02*
X44628571Y-104747342D01*
X44628571Y-103547342D02*
X43828571Y-104747342D01*
X44971428Y-103547342D02*
X45714285Y-103547342D01*
X45714285Y-103547342D02*
X45314285Y-104004485D01*
X45314285Y-104004485D02*
X45485714Y-104004485D01*
X45485714Y-104004485D02*
X45600000Y-104061628D01*
X45600000Y-104061628D02*
X45657142Y-104118771D01*
X45657142Y-104118771D02*
X45714285Y-104233057D01*
X45714285Y-104233057D02*
X45714285Y-104518771D01*
X45714285Y-104518771D02*
X45657142Y-104633057D01*
X45657142Y-104633057D02*
X45600000Y-104690200D01*
X45600000Y-104690200D02*
X45485714Y-104747342D01*
X45485714Y-104747342D02*
X45142857Y-104747342D01*
X45142857Y-104747342D02*
X45028571Y-104690200D01*
X45028571Y-104690200D02*
X44971428Y-104633057D01*
D16*
X51614286Y-124556379D02*
X51614286Y-123556379D01*
X51614286Y-123556379D02*
X52185714Y-124556379D01*
X52185714Y-124556379D02*
X52185714Y-123556379D01*
X51285714Y-119556379D02*
X51285714Y-118556379D01*
X51285714Y-118556379D02*
X51666666Y-118556379D01*
X51666666Y-118556379D02*
X51761904Y-118603998D01*
X51761904Y-118603998D02*
X51809523Y-118651617D01*
X51809523Y-118651617D02*
X51857142Y-118746855D01*
X51857142Y-118746855D02*
X51857142Y-118889712D01*
X51857142Y-118889712D02*
X51809523Y-118984950D01*
X51809523Y-118984950D02*
X51761904Y-119032569D01*
X51761904Y-119032569D02*
X51666666Y-119080188D01*
X51666666Y-119080188D02*
X51285714Y-119080188D01*
X52285714Y-119032569D02*
X52619047Y-119032569D01*
X52761904Y-119556379D02*
X52285714Y-119556379D01*
X52285714Y-119556379D02*
X52285714Y-118556379D01*
X52285714Y-118556379D02*
X52761904Y-118556379D01*
X51242857Y-113436379D02*
X51909523Y-113436379D01*
X51909523Y-113436379D02*
X51242857Y-114436379D01*
X51242857Y-114436379D02*
X51909523Y-114436379D01*
X52290476Y-113436379D02*
X52290476Y-114245902D01*
X52290476Y-114245902D02*
X52338095Y-114341140D01*
X52338095Y-114341140D02*
X52385714Y-114388760D01*
X52385714Y-114388760D02*
X52480952Y-114436379D01*
X52480952Y-114436379D02*
X52671428Y-114436379D01*
X52671428Y-114436379D02*
X52766666Y-114388760D01*
X52766666Y-114388760D02*
X52814285Y-114341140D01*
X52814285Y-114341140D02*
X52861904Y-114245902D01*
X52861904Y-114245902D02*
X52861904Y-113436379D01*
X51009524Y-109070664D02*
X51485714Y-109070664D01*
X50914286Y-109356379D02*
X51247619Y-108356379D01*
X51247619Y-108356379D02*
X51580952Y-109356379D01*
X51914286Y-108356379D02*
X51914286Y-109165902D01*
X51914286Y-109165902D02*
X51961905Y-109261140D01*
X51961905Y-109261140D02*
X52009524Y-109308760D01*
X52009524Y-109308760D02*
X52104762Y-109356379D01*
X52104762Y-109356379D02*
X52295238Y-109356379D01*
X52295238Y-109356379D02*
X52390476Y-109308760D01*
X52390476Y-109308760D02*
X52438095Y-109261140D01*
X52438095Y-109261140D02*
X52485714Y-109165902D01*
X52485714Y-109165902D02*
X52485714Y-108356379D01*
X53295238Y-108832569D02*
X52961905Y-108832569D01*
X52961905Y-109356379D02*
X52961905Y-108356379D01*
X52961905Y-108356379D02*
X53438095Y-108356379D01*
D14*
X187347342Y-45971428D02*
X188547342Y-45171428D01*
X187347342Y-45171428D02*
X188547342Y-45971428D01*
X187747342Y-44200000D02*
X188547342Y-44200000D01*
X187290200Y-44485714D02*
X188147342Y-44771428D01*
X188147342Y-44771428D02*
X188147342Y-44028571D01*
X187347342Y-54471428D02*
X188547342Y-53671428D01*
X187347342Y-53671428D02*
X188547342Y-54471428D01*
X187347342Y-52642857D02*
X187347342Y-53214285D01*
X187347342Y-53214285D02*
X187918771Y-53271428D01*
X187918771Y-53271428D02*
X187861628Y-53214285D01*
X187861628Y-53214285D02*
X187804485Y-53100000D01*
X187804485Y-53100000D02*
X187804485Y-52814285D01*
X187804485Y-52814285D02*
X187861628Y-52700000D01*
X187861628Y-52700000D02*
X187918771Y-52642857D01*
X187918771Y-52642857D02*
X188033057Y-52585714D01*
X188033057Y-52585714D02*
X188318771Y-52585714D01*
X188318771Y-52585714D02*
X188433057Y-52642857D01*
X188433057Y-52642857D02*
X188490200Y-52700000D01*
X188490200Y-52700000D02*
X188547342Y-52814285D01*
X188547342Y-52814285D02*
X188547342Y-53100000D01*
X188547342Y-53100000D02*
X188490200Y-53214285D01*
X188490200Y-53214285D02*
X188433057Y-53271428D01*
X185347342Y-64899999D02*
X186204485Y-64899999D01*
X186204485Y-64899999D02*
X186375914Y-64957142D01*
X186375914Y-64957142D02*
X186490200Y-65071428D01*
X186490200Y-65071428D02*
X186547342Y-65242856D01*
X186547342Y-65242856D02*
X186547342Y-65357142D01*
X185347342Y-64442856D02*
X185347342Y-63699999D01*
X185347342Y-63699999D02*
X185804485Y-64099999D01*
X185804485Y-64099999D02*
X185804485Y-63928570D01*
X185804485Y-63928570D02*
X185861628Y-63814285D01*
X185861628Y-63814285D02*
X185918771Y-63757142D01*
X185918771Y-63757142D02*
X186033057Y-63699999D01*
X186033057Y-63699999D02*
X186318771Y-63699999D01*
X186318771Y-63699999D02*
X186433057Y-63757142D01*
X186433057Y-63757142D02*
X186490200Y-63814285D01*
X186490200Y-63814285D02*
X186547342Y-63928570D01*
X186547342Y-63928570D02*
X186547342Y-64271427D01*
X186547342Y-64271427D02*
X186490200Y-64385713D01*
X186490200Y-64385713D02*
X186433057Y-64442856D01*
X185847342Y-112399999D02*
X186704485Y-112399999D01*
X186704485Y-112399999D02*
X186875914Y-112457142D01*
X186875914Y-112457142D02*
X186990200Y-112571428D01*
X186990200Y-112571428D02*
X187047342Y-112742856D01*
X187047342Y-112742856D02*
X187047342Y-112857142D01*
X186247342Y-111314285D02*
X187047342Y-111314285D01*
X185790200Y-111599999D02*
X186647342Y-111885713D01*
X186647342Y-111885713D02*
X186647342Y-111142856D01*
D16*
X183550000Y-134410117D02*
X183250000Y-133981545D01*
X183035714Y-134410117D02*
X183035714Y-133510117D01*
X183035714Y-133510117D02*
X183378571Y-133510117D01*
X183378571Y-133510117D02*
X183464286Y-133552974D01*
X183464286Y-133552974D02*
X183507143Y-133595831D01*
X183507143Y-133595831D02*
X183550000Y-133681545D01*
X183550000Y-133681545D02*
X183550000Y-133810117D01*
X183550000Y-133810117D02*
X183507143Y-133895831D01*
X183507143Y-133895831D02*
X183464286Y-133938688D01*
X183464286Y-133938688D02*
X183378571Y-133981545D01*
X183378571Y-133981545D02*
X183035714Y-133981545D01*
X183892857Y-133595831D02*
X183935714Y-133552974D01*
X183935714Y-133552974D02*
X184021429Y-133510117D01*
X184021429Y-133510117D02*
X184235714Y-133510117D01*
X184235714Y-133510117D02*
X184321429Y-133552974D01*
X184321429Y-133552974D02*
X184364286Y-133595831D01*
X184364286Y-133595831D02*
X184407143Y-133681545D01*
X184407143Y-133681545D02*
X184407143Y-133767260D01*
X184407143Y-133767260D02*
X184364286Y-133895831D01*
X184364286Y-133895831D02*
X183850000Y-134410117D01*
X183850000Y-134410117D02*
X184407143Y-134410117D01*
X171350000Y-104410117D02*
X171050000Y-103981545D01*
X170835714Y-104410117D02*
X170835714Y-103510117D01*
X170835714Y-103510117D02*
X171178571Y-103510117D01*
X171178571Y-103510117D02*
X171264286Y-103552974D01*
X171264286Y-103552974D02*
X171307143Y-103595831D01*
X171307143Y-103595831D02*
X171350000Y-103681545D01*
X171350000Y-103681545D02*
X171350000Y-103810117D01*
X171350000Y-103810117D02*
X171307143Y-103895831D01*
X171307143Y-103895831D02*
X171264286Y-103938688D01*
X171264286Y-103938688D02*
X171178571Y-103981545D01*
X171178571Y-103981545D02*
X170835714Y-103981545D01*
X171650000Y-103510117D02*
X172207143Y-103510117D01*
X172207143Y-103510117D02*
X171907143Y-103852974D01*
X171907143Y-103852974D02*
X172035714Y-103852974D01*
X172035714Y-103852974D02*
X172121429Y-103895831D01*
X172121429Y-103895831D02*
X172164286Y-103938688D01*
X172164286Y-103938688D02*
X172207143Y-104024402D01*
X172207143Y-104024402D02*
X172207143Y-104238688D01*
X172207143Y-104238688D02*
X172164286Y-104324402D01*
X172164286Y-104324402D02*
X172121429Y-104367260D01*
X172121429Y-104367260D02*
X172035714Y-104410117D01*
X172035714Y-104410117D02*
X171778571Y-104410117D01*
X171778571Y-104410117D02*
X171692857Y-104367260D01*
X171692857Y-104367260D02*
X171650000Y-104324402D01*
X175350000Y-101410117D02*
X175350000Y-102052974D01*
X175350000Y-102052974D02*
X175307143Y-102181545D01*
X175307143Y-102181545D02*
X175221429Y-102267260D01*
X175221429Y-102267260D02*
X175092857Y-102310117D01*
X175092857Y-102310117D02*
X175007143Y-102310117D01*
X175778571Y-102310117D02*
X175778571Y-101410117D01*
X175778571Y-101410117D02*
X176121428Y-101410117D01*
X176121428Y-101410117D02*
X176207143Y-101452974D01*
X176207143Y-101452974D02*
X176250000Y-101495831D01*
X176250000Y-101495831D02*
X176292857Y-101581545D01*
X176292857Y-101581545D02*
X176292857Y-101710117D01*
X176292857Y-101710117D02*
X176250000Y-101795831D01*
X176250000Y-101795831D02*
X176207143Y-101838688D01*
X176207143Y-101838688D02*
X176121428Y-101881545D01*
X176121428Y-101881545D02*
X175778571Y-101881545D01*
X177150000Y-102310117D02*
X176635714Y-102310117D01*
X176892857Y-102310117D02*
X176892857Y-101410117D01*
X176892857Y-101410117D02*
X176807143Y-101538688D01*
X176807143Y-101538688D02*
X176721428Y-101624402D01*
X176721428Y-101624402D02*
X176635714Y-101667260D01*
D11*
X173623808Y-103864895D02*
X173166665Y-103864895D01*
X173395237Y-103864895D02*
X173395237Y-103064895D01*
X173395237Y-103064895D02*
X173319046Y-103179180D01*
X173319046Y-103179180D02*
X173242856Y-103255371D01*
X173242856Y-103255371D02*
X173166665Y-103293466D01*
X173966666Y-103560133D02*
X174576190Y-103560133D01*
X174919046Y-103141085D02*
X174957142Y-103102990D01*
X174957142Y-103102990D02*
X175033332Y-103064895D01*
X175033332Y-103064895D02*
X175223808Y-103064895D01*
X175223808Y-103064895D02*
X175299999Y-103102990D01*
X175299999Y-103102990D02*
X175338094Y-103141085D01*
X175338094Y-103141085D02*
X175376189Y-103217276D01*
X175376189Y-103217276D02*
X175376189Y-103293466D01*
X175376189Y-103293466D02*
X175338094Y-103407752D01*
X175338094Y-103407752D02*
X174880951Y-103864895D01*
X174880951Y-103864895D02*
X175376189Y-103864895D01*
X176214285Y-103064895D02*
X176671428Y-103064895D01*
X176442856Y-103864895D02*
X176442856Y-103064895D01*
X176938095Y-103445847D02*
X177204761Y-103445847D01*
X177319047Y-103864895D02*
X176938095Y-103864895D01*
X176938095Y-103864895D02*
X176938095Y-103064895D01*
X176938095Y-103064895D02*
X177319047Y-103064895D01*
X178119048Y-103864895D02*
X177852381Y-103483942D01*
X177661905Y-103864895D02*
X177661905Y-103064895D01*
X177661905Y-103064895D02*
X177966667Y-103064895D01*
X177966667Y-103064895D02*
X178042857Y-103102990D01*
X178042857Y-103102990D02*
X178080952Y-103141085D01*
X178080952Y-103141085D02*
X178119048Y-103217276D01*
X178119048Y-103217276D02*
X178119048Y-103331561D01*
X178119048Y-103331561D02*
X178080952Y-103407752D01*
X178080952Y-103407752D02*
X178042857Y-103445847D01*
X178042857Y-103445847D02*
X177966667Y-103483942D01*
X177966667Y-103483942D02*
X177661905Y-103483942D01*
X178461905Y-103864895D02*
X178461905Y-103064895D01*
X178461905Y-103064895D02*
X178728571Y-103636323D01*
X178728571Y-103636323D02*
X178995238Y-103064895D01*
X178995238Y-103064895D02*
X178995238Y-103864895D01*
X173147618Y-104341085D02*
X173185714Y-104302990D01*
X173185714Y-104302990D02*
X173261904Y-104264895D01*
X173261904Y-104264895D02*
X173452380Y-104264895D01*
X173452380Y-104264895D02*
X173528571Y-104302990D01*
X173528571Y-104302990D02*
X173566666Y-104341085D01*
X173566666Y-104341085D02*
X173604761Y-104417276D01*
X173604761Y-104417276D02*
X173604761Y-104493466D01*
X173604761Y-104493466D02*
X173566666Y-104607752D01*
X173566666Y-104607752D02*
X173109523Y-105064895D01*
X173109523Y-105064895D02*
X173604761Y-105064895D01*
X173947619Y-104760133D02*
X174557143Y-104760133D01*
X174861904Y-104264895D02*
X175357142Y-104264895D01*
X175357142Y-104264895D02*
X175090476Y-104569657D01*
X175090476Y-104569657D02*
X175204761Y-104569657D01*
X175204761Y-104569657D02*
X175280952Y-104607752D01*
X175280952Y-104607752D02*
X175319047Y-104645847D01*
X175319047Y-104645847D02*
X175357142Y-104722038D01*
X175357142Y-104722038D02*
X175357142Y-104912514D01*
X175357142Y-104912514D02*
X175319047Y-104988704D01*
X175319047Y-104988704D02*
X175280952Y-105026800D01*
X175280952Y-105026800D02*
X175204761Y-105064895D01*
X175204761Y-105064895D02*
X174976190Y-105064895D01*
X174976190Y-105064895D02*
X174899999Y-105026800D01*
X174899999Y-105026800D02*
X174861904Y-104988704D01*
X176309524Y-105064895D02*
X176309524Y-104264895D01*
X176309524Y-104264895D02*
X176614286Y-104264895D01*
X176614286Y-104264895D02*
X176690476Y-104302990D01*
X176690476Y-104302990D02*
X176728571Y-104341085D01*
X176728571Y-104341085D02*
X176766667Y-104417276D01*
X176766667Y-104417276D02*
X176766667Y-104531561D01*
X176766667Y-104531561D02*
X176728571Y-104607752D01*
X176728571Y-104607752D02*
X176690476Y-104645847D01*
X176690476Y-104645847D02*
X176614286Y-104683942D01*
X176614286Y-104683942D02*
X176309524Y-104683942D01*
X177071428Y-104836323D02*
X177452381Y-104836323D01*
X176995238Y-105064895D02*
X177261905Y-104264895D01*
X177261905Y-104264895D02*
X177528571Y-105064895D01*
X178252381Y-105064895D02*
X177985714Y-104683942D01*
X177795238Y-105064895D02*
X177795238Y-104264895D01*
X177795238Y-104264895D02*
X178100000Y-104264895D01*
X178100000Y-104264895D02*
X178176190Y-104302990D01*
X178176190Y-104302990D02*
X178214285Y-104341085D01*
X178214285Y-104341085D02*
X178252381Y-104417276D01*
X178252381Y-104417276D02*
X178252381Y-104531561D01*
X178252381Y-104531561D02*
X178214285Y-104607752D01*
X178214285Y-104607752D02*
X178176190Y-104645847D01*
X178176190Y-104645847D02*
X178100000Y-104683942D01*
X178100000Y-104683942D02*
X177795238Y-104683942D01*
X178595238Y-105064895D02*
X178595238Y-104264895D01*
X179052381Y-105064895D02*
X178709523Y-104607752D01*
X179052381Y-104264895D02*
X178595238Y-104722038D01*
X72985714Y-43364895D02*
X72719047Y-42983942D01*
X72528571Y-43364895D02*
X72528571Y-42564895D01*
X72528571Y-42564895D02*
X72833333Y-42564895D01*
X72833333Y-42564895D02*
X72909523Y-42602990D01*
X72909523Y-42602990D02*
X72947618Y-42641085D01*
X72947618Y-42641085D02*
X72985714Y-42717276D01*
X72985714Y-42717276D02*
X72985714Y-42831561D01*
X72985714Y-42831561D02*
X72947618Y-42907752D01*
X72947618Y-42907752D02*
X72909523Y-42945847D01*
X72909523Y-42945847D02*
X72833333Y-42983942D01*
X72833333Y-42983942D02*
X72528571Y-42983942D01*
X73671428Y-42831561D02*
X73671428Y-43364895D01*
X73480952Y-42526800D02*
X73290475Y-43098228D01*
X73290475Y-43098228D02*
X73785714Y-43098228D01*
X74242857Y-42564895D02*
X74319047Y-42564895D01*
X74319047Y-42564895D02*
X74395238Y-42602990D01*
X74395238Y-42602990D02*
X74433333Y-42641085D01*
X74433333Y-42641085D02*
X74471428Y-42717276D01*
X74471428Y-42717276D02*
X74509523Y-42869657D01*
X74509523Y-42869657D02*
X74509523Y-43060133D01*
X74509523Y-43060133D02*
X74471428Y-43212514D01*
X74471428Y-43212514D02*
X74433333Y-43288704D01*
X74433333Y-43288704D02*
X74395238Y-43326800D01*
X74395238Y-43326800D02*
X74319047Y-43364895D01*
X74319047Y-43364895D02*
X74242857Y-43364895D01*
X74242857Y-43364895D02*
X74166666Y-43326800D01*
X74166666Y-43326800D02*
X74128571Y-43288704D01*
X74128571Y-43288704D02*
X74090476Y-43212514D01*
X74090476Y-43212514D02*
X74052380Y-43060133D01*
X74052380Y-43060133D02*
X74052380Y-42869657D01*
X74052380Y-42869657D02*
X74090476Y-42717276D01*
X74090476Y-42717276D02*
X74128571Y-42641085D01*
X74128571Y-42641085D02*
X74166666Y-42602990D01*
X74166666Y-42602990D02*
X74242857Y-42564895D01*
D16*
X170699999Y-91638688D02*
X170399999Y-91638688D01*
X170399999Y-92110117D02*
X170399999Y-91210117D01*
X170399999Y-91210117D02*
X170828571Y-91210117D01*
X171128571Y-91295831D02*
X171171428Y-91252974D01*
X171171428Y-91252974D02*
X171257143Y-91210117D01*
X171257143Y-91210117D02*
X171471428Y-91210117D01*
X171471428Y-91210117D02*
X171557143Y-91252974D01*
X171557143Y-91252974D02*
X171600000Y-91295831D01*
X171600000Y-91295831D02*
X171642857Y-91381545D01*
X171642857Y-91381545D02*
X171642857Y-91467260D01*
X171642857Y-91467260D02*
X171600000Y-91595831D01*
X171600000Y-91595831D02*
X171085714Y-92110117D01*
X171085714Y-92110117D02*
X171642857Y-92110117D01*
X133335714Y-133810117D02*
X133335714Y-132910117D01*
X133335714Y-132910117D02*
X133550000Y-132910117D01*
X133550000Y-132910117D02*
X133678571Y-132952974D01*
X133678571Y-132952974D02*
X133764286Y-133038688D01*
X133764286Y-133038688D02*
X133807143Y-133124402D01*
X133807143Y-133124402D02*
X133850000Y-133295831D01*
X133850000Y-133295831D02*
X133850000Y-133424402D01*
X133850000Y-133424402D02*
X133807143Y-133595831D01*
X133807143Y-133595831D02*
X133764286Y-133681545D01*
X133764286Y-133681545D02*
X133678571Y-133767260D01*
X133678571Y-133767260D02*
X133550000Y-133810117D01*
X133550000Y-133810117D02*
X133335714Y-133810117D01*
X134621429Y-133210117D02*
X134621429Y-133810117D01*
X134407143Y-132867260D02*
X134192857Y-133510117D01*
X134192857Y-133510117D02*
X134750000Y-133510117D01*
D11*
X97741667Y-77414895D02*
X97475000Y-77033942D01*
X97284524Y-77414895D02*
X97284524Y-76614895D01*
X97284524Y-76614895D02*
X97589286Y-76614895D01*
X97589286Y-76614895D02*
X97665476Y-76652990D01*
X97665476Y-76652990D02*
X97703571Y-76691085D01*
X97703571Y-76691085D02*
X97741667Y-76767276D01*
X97741667Y-76767276D02*
X97741667Y-76881561D01*
X97741667Y-76881561D02*
X97703571Y-76957752D01*
X97703571Y-76957752D02*
X97665476Y-76995847D01*
X97665476Y-76995847D02*
X97589286Y-77033942D01*
X97589286Y-77033942D02*
X97284524Y-77033942D01*
X98427381Y-76881561D02*
X98427381Y-77414895D01*
X98236905Y-76576800D02*
X98046428Y-77148228D01*
X98046428Y-77148228D02*
X98541667Y-77148228D01*
X105441667Y-77414895D02*
X105175000Y-77033942D01*
X104984524Y-77414895D02*
X104984524Y-76614895D01*
X104984524Y-76614895D02*
X105289286Y-76614895D01*
X105289286Y-76614895D02*
X105365476Y-76652990D01*
X105365476Y-76652990D02*
X105403571Y-76691085D01*
X105403571Y-76691085D02*
X105441667Y-76767276D01*
X105441667Y-76767276D02*
X105441667Y-76881561D01*
X105441667Y-76881561D02*
X105403571Y-76957752D01*
X105403571Y-76957752D02*
X105365476Y-76995847D01*
X105365476Y-76995847D02*
X105289286Y-77033942D01*
X105289286Y-77033942D02*
X104984524Y-77033942D01*
X105708333Y-76614895D02*
X106241667Y-76614895D01*
X106241667Y-76614895D02*
X105898809Y-77414895D01*
D16*
X107564285Y-80645831D02*
X107478571Y-80602974D01*
X107478571Y-80602974D02*
X107392857Y-80517260D01*
X107392857Y-80517260D02*
X107264285Y-80388688D01*
X107264285Y-80388688D02*
X107178571Y-80345831D01*
X107178571Y-80345831D02*
X107092857Y-80345831D01*
X107135714Y-80560117D02*
X107050000Y-80517260D01*
X107050000Y-80517260D02*
X106964285Y-80431545D01*
X106964285Y-80431545D02*
X106921428Y-80260117D01*
X106921428Y-80260117D02*
X106921428Y-79960117D01*
X106921428Y-79960117D02*
X106964285Y-79788688D01*
X106964285Y-79788688D02*
X107050000Y-79702974D01*
X107050000Y-79702974D02*
X107135714Y-79660117D01*
X107135714Y-79660117D02*
X107307142Y-79660117D01*
X107307142Y-79660117D02*
X107392857Y-79702974D01*
X107392857Y-79702974D02*
X107478571Y-79788688D01*
X107478571Y-79788688D02*
X107521428Y-79960117D01*
X107521428Y-79960117D02*
X107521428Y-80260117D01*
X107521428Y-80260117D02*
X107478571Y-80431545D01*
X107478571Y-80431545D02*
X107392857Y-80517260D01*
X107392857Y-80517260D02*
X107307142Y-80560117D01*
X107307142Y-80560117D02*
X107135714Y-80560117D01*
X108378571Y-80560117D02*
X107864285Y-80560117D01*
X108121428Y-80560117D02*
X108121428Y-79660117D01*
X108121428Y-79660117D02*
X108035714Y-79788688D01*
X108035714Y-79788688D02*
X107949999Y-79874402D01*
X107949999Y-79874402D02*
X107864285Y-79917260D01*
X99035714Y-80210117D02*
X99035714Y-79310117D01*
X99035714Y-79310117D02*
X99250000Y-79310117D01*
X99250000Y-79310117D02*
X99378571Y-79352974D01*
X99378571Y-79352974D02*
X99464286Y-79438688D01*
X99464286Y-79438688D02*
X99507143Y-79524402D01*
X99507143Y-79524402D02*
X99550000Y-79695831D01*
X99550000Y-79695831D02*
X99550000Y-79824402D01*
X99550000Y-79824402D02*
X99507143Y-79995831D01*
X99507143Y-79995831D02*
X99464286Y-80081545D01*
X99464286Y-80081545D02*
X99378571Y-80167260D01*
X99378571Y-80167260D02*
X99250000Y-80210117D01*
X99250000Y-80210117D02*
X99035714Y-80210117D01*
X100407143Y-80210117D02*
X99892857Y-80210117D01*
X100150000Y-80210117D02*
X100150000Y-79310117D01*
X100150000Y-79310117D02*
X100064286Y-79438688D01*
X100064286Y-79438688D02*
X99978571Y-79524402D01*
X99978571Y-79524402D02*
X99892857Y-79567260D01*
D11*
X99235714Y-84314895D02*
X98969047Y-83933942D01*
X98778571Y-84314895D02*
X98778571Y-83514895D01*
X98778571Y-83514895D02*
X99083333Y-83514895D01*
X99083333Y-83514895D02*
X99159523Y-83552990D01*
X99159523Y-83552990D02*
X99197618Y-83591085D01*
X99197618Y-83591085D02*
X99235714Y-83667276D01*
X99235714Y-83667276D02*
X99235714Y-83781561D01*
X99235714Y-83781561D02*
X99197618Y-83857752D01*
X99197618Y-83857752D02*
X99159523Y-83895847D01*
X99159523Y-83895847D02*
X99083333Y-83933942D01*
X99083333Y-83933942D02*
X98778571Y-83933942D01*
X99997618Y-84314895D02*
X99540475Y-84314895D01*
X99769047Y-84314895D02*
X99769047Y-83514895D01*
X99769047Y-83514895D02*
X99692856Y-83629180D01*
X99692856Y-83629180D02*
X99616666Y-83705371D01*
X99616666Y-83705371D02*
X99540475Y-83743466D01*
X100492857Y-83514895D02*
X100569047Y-83514895D01*
X100569047Y-83514895D02*
X100645238Y-83552990D01*
X100645238Y-83552990D02*
X100683333Y-83591085D01*
X100683333Y-83591085D02*
X100721428Y-83667276D01*
X100721428Y-83667276D02*
X100759523Y-83819657D01*
X100759523Y-83819657D02*
X100759523Y-84010133D01*
X100759523Y-84010133D02*
X100721428Y-84162514D01*
X100721428Y-84162514D02*
X100683333Y-84238704D01*
X100683333Y-84238704D02*
X100645238Y-84276800D01*
X100645238Y-84276800D02*
X100569047Y-84314895D01*
X100569047Y-84314895D02*
X100492857Y-84314895D01*
X100492857Y-84314895D02*
X100416666Y-84276800D01*
X100416666Y-84276800D02*
X100378571Y-84238704D01*
X100378571Y-84238704D02*
X100340476Y-84162514D01*
X100340476Y-84162514D02*
X100302380Y-84010133D01*
X100302380Y-84010133D02*
X100302380Y-83819657D01*
X100302380Y-83819657D02*
X100340476Y-83667276D01*
X100340476Y-83667276D02*
X100378571Y-83591085D01*
X100378571Y-83591085D02*
X100416666Y-83552990D01*
X100416666Y-83552990D02*
X100492857Y-83514895D01*
X105178571Y-84214895D02*
X105178571Y-83414895D01*
X105178571Y-83414895D02*
X105369047Y-83414895D01*
X105369047Y-83414895D02*
X105483333Y-83452990D01*
X105483333Y-83452990D02*
X105559523Y-83529180D01*
X105559523Y-83529180D02*
X105597618Y-83605371D01*
X105597618Y-83605371D02*
X105635714Y-83757752D01*
X105635714Y-83757752D02*
X105635714Y-83872038D01*
X105635714Y-83872038D02*
X105597618Y-84024419D01*
X105597618Y-84024419D02*
X105559523Y-84100609D01*
X105559523Y-84100609D02*
X105483333Y-84176800D01*
X105483333Y-84176800D02*
X105369047Y-84214895D01*
X105369047Y-84214895D02*
X105178571Y-84214895D01*
X106397618Y-84214895D02*
X105940475Y-84214895D01*
X106169047Y-84214895D02*
X106169047Y-83414895D01*
X106169047Y-83414895D02*
X106092856Y-83529180D01*
X106092856Y-83529180D02*
X106016666Y-83605371D01*
X106016666Y-83605371D02*
X105940475Y-83643466D01*
X106892857Y-83414895D02*
X106969047Y-83414895D01*
X106969047Y-83414895D02*
X107045238Y-83452990D01*
X107045238Y-83452990D02*
X107083333Y-83491085D01*
X107083333Y-83491085D02*
X107121428Y-83567276D01*
X107121428Y-83567276D02*
X107159523Y-83719657D01*
X107159523Y-83719657D02*
X107159523Y-83910133D01*
X107159523Y-83910133D02*
X107121428Y-84062514D01*
X107121428Y-84062514D02*
X107083333Y-84138704D01*
X107083333Y-84138704D02*
X107045238Y-84176800D01*
X107045238Y-84176800D02*
X106969047Y-84214895D01*
X106969047Y-84214895D02*
X106892857Y-84214895D01*
X106892857Y-84214895D02*
X106816666Y-84176800D01*
X106816666Y-84176800D02*
X106778571Y-84138704D01*
X106778571Y-84138704D02*
X106740476Y-84062514D01*
X106740476Y-84062514D02*
X106702380Y-83910133D01*
X106702380Y-83910133D02*
X106702380Y-83719657D01*
X106702380Y-83719657D02*
X106740476Y-83567276D01*
X106740476Y-83567276D02*
X106778571Y-83491085D01*
X106778571Y-83491085D02*
X106816666Y-83452990D01*
X106816666Y-83452990D02*
X106892857Y-83414895D01*
X98566667Y-98964895D02*
X98300000Y-98583942D01*
X98109524Y-98964895D02*
X98109524Y-98164895D01*
X98109524Y-98164895D02*
X98414286Y-98164895D01*
X98414286Y-98164895D02*
X98490476Y-98202990D01*
X98490476Y-98202990D02*
X98528571Y-98241085D01*
X98528571Y-98241085D02*
X98566667Y-98317276D01*
X98566667Y-98317276D02*
X98566667Y-98431561D01*
X98566667Y-98431561D02*
X98528571Y-98507752D01*
X98528571Y-98507752D02*
X98490476Y-98545847D01*
X98490476Y-98545847D02*
X98414286Y-98583942D01*
X98414286Y-98583942D02*
X98109524Y-98583942D01*
X99290476Y-98164895D02*
X98909524Y-98164895D01*
X98909524Y-98164895D02*
X98871428Y-98545847D01*
X98871428Y-98545847D02*
X98909524Y-98507752D01*
X98909524Y-98507752D02*
X98985714Y-98469657D01*
X98985714Y-98469657D02*
X99176190Y-98469657D01*
X99176190Y-98469657D02*
X99252381Y-98507752D01*
X99252381Y-98507752D02*
X99290476Y-98545847D01*
X99290476Y-98545847D02*
X99328571Y-98622038D01*
X99328571Y-98622038D02*
X99328571Y-98812514D01*
X99328571Y-98812514D02*
X99290476Y-98888704D01*
X99290476Y-98888704D02*
X99252381Y-98926800D01*
X99252381Y-98926800D02*
X99176190Y-98964895D01*
X99176190Y-98964895D02*
X98985714Y-98964895D01*
X98985714Y-98964895D02*
X98909524Y-98926800D01*
X98909524Y-98926800D02*
X98871428Y-98888704D01*
X105566667Y-98964895D02*
X105300000Y-98583942D01*
X105109524Y-98964895D02*
X105109524Y-98164895D01*
X105109524Y-98164895D02*
X105414286Y-98164895D01*
X105414286Y-98164895D02*
X105490476Y-98202990D01*
X105490476Y-98202990D02*
X105528571Y-98241085D01*
X105528571Y-98241085D02*
X105566667Y-98317276D01*
X105566667Y-98317276D02*
X105566667Y-98431561D01*
X105566667Y-98431561D02*
X105528571Y-98507752D01*
X105528571Y-98507752D02*
X105490476Y-98545847D01*
X105490476Y-98545847D02*
X105414286Y-98583942D01*
X105414286Y-98583942D02*
X105109524Y-98583942D01*
X106023809Y-98507752D02*
X105947619Y-98469657D01*
X105947619Y-98469657D02*
X105909524Y-98431561D01*
X105909524Y-98431561D02*
X105871428Y-98355371D01*
X105871428Y-98355371D02*
X105871428Y-98317276D01*
X105871428Y-98317276D02*
X105909524Y-98241085D01*
X105909524Y-98241085D02*
X105947619Y-98202990D01*
X105947619Y-98202990D02*
X106023809Y-98164895D01*
X106023809Y-98164895D02*
X106176190Y-98164895D01*
X106176190Y-98164895D02*
X106252381Y-98202990D01*
X106252381Y-98202990D02*
X106290476Y-98241085D01*
X106290476Y-98241085D02*
X106328571Y-98317276D01*
X106328571Y-98317276D02*
X106328571Y-98355371D01*
X106328571Y-98355371D02*
X106290476Y-98431561D01*
X106290476Y-98431561D02*
X106252381Y-98469657D01*
X106252381Y-98469657D02*
X106176190Y-98507752D01*
X106176190Y-98507752D02*
X106023809Y-98507752D01*
X106023809Y-98507752D02*
X105947619Y-98545847D01*
X105947619Y-98545847D02*
X105909524Y-98583942D01*
X105909524Y-98583942D02*
X105871428Y-98660133D01*
X105871428Y-98660133D02*
X105871428Y-98812514D01*
X105871428Y-98812514D02*
X105909524Y-98888704D01*
X105909524Y-98888704D02*
X105947619Y-98926800D01*
X105947619Y-98926800D02*
X106023809Y-98964895D01*
X106023809Y-98964895D02*
X106176190Y-98964895D01*
X106176190Y-98964895D02*
X106252381Y-98926800D01*
X106252381Y-98926800D02*
X106290476Y-98888704D01*
X106290476Y-98888704D02*
X106328571Y-98812514D01*
X106328571Y-98812514D02*
X106328571Y-98660133D01*
X106328571Y-98660133D02*
X106290476Y-98583942D01*
X106290476Y-98583942D02*
X106252381Y-98545847D01*
X106252381Y-98545847D02*
X106176190Y-98507752D01*
D16*
X105164285Y-102245831D02*
X105078571Y-102202974D01*
X105078571Y-102202974D02*
X104992857Y-102117260D01*
X104992857Y-102117260D02*
X104864285Y-101988688D01*
X104864285Y-101988688D02*
X104778571Y-101945831D01*
X104778571Y-101945831D02*
X104692857Y-101945831D01*
X104735714Y-102160117D02*
X104650000Y-102117260D01*
X104650000Y-102117260D02*
X104564285Y-102031545D01*
X104564285Y-102031545D02*
X104521428Y-101860117D01*
X104521428Y-101860117D02*
X104521428Y-101560117D01*
X104521428Y-101560117D02*
X104564285Y-101388688D01*
X104564285Y-101388688D02*
X104650000Y-101302974D01*
X104650000Y-101302974D02*
X104735714Y-101260117D01*
X104735714Y-101260117D02*
X104907142Y-101260117D01*
X104907142Y-101260117D02*
X104992857Y-101302974D01*
X104992857Y-101302974D02*
X105078571Y-101388688D01*
X105078571Y-101388688D02*
X105121428Y-101560117D01*
X105121428Y-101560117D02*
X105121428Y-101860117D01*
X105121428Y-101860117D02*
X105078571Y-102031545D01*
X105078571Y-102031545D02*
X104992857Y-102117260D01*
X104992857Y-102117260D02*
X104907142Y-102160117D01*
X104907142Y-102160117D02*
X104735714Y-102160117D01*
X105464285Y-101345831D02*
X105507142Y-101302974D01*
X105507142Y-101302974D02*
X105592857Y-101260117D01*
X105592857Y-101260117D02*
X105807142Y-101260117D01*
X105807142Y-101260117D02*
X105892857Y-101302974D01*
X105892857Y-101302974D02*
X105935714Y-101345831D01*
X105935714Y-101345831D02*
X105978571Y-101431545D01*
X105978571Y-101431545D02*
X105978571Y-101517260D01*
X105978571Y-101517260D02*
X105935714Y-101645831D01*
X105935714Y-101645831D02*
X105421428Y-102160117D01*
X105421428Y-102160117D02*
X105978571Y-102160117D01*
X99235714Y-102510117D02*
X99235714Y-101610117D01*
X99235714Y-101610117D02*
X99450000Y-101610117D01*
X99450000Y-101610117D02*
X99578571Y-101652974D01*
X99578571Y-101652974D02*
X99664286Y-101738688D01*
X99664286Y-101738688D02*
X99707143Y-101824402D01*
X99707143Y-101824402D02*
X99750000Y-101995831D01*
X99750000Y-101995831D02*
X99750000Y-102124402D01*
X99750000Y-102124402D02*
X99707143Y-102295831D01*
X99707143Y-102295831D02*
X99664286Y-102381545D01*
X99664286Y-102381545D02*
X99578571Y-102467260D01*
X99578571Y-102467260D02*
X99450000Y-102510117D01*
X99450000Y-102510117D02*
X99235714Y-102510117D01*
X100092857Y-101695831D02*
X100135714Y-101652974D01*
X100135714Y-101652974D02*
X100221429Y-101610117D01*
X100221429Y-101610117D02*
X100435714Y-101610117D01*
X100435714Y-101610117D02*
X100521429Y-101652974D01*
X100521429Y-101652974D02*
X100564286Y-101695831D01*
X100564286Y-101695831D02*
X100607143Y-101781545D01*
X100607143Y-101781545D02*
X100607143Y-101867260D01*
X100607143Y-101867260D02*
X100564286Y-101995831D01*
X100564286Y-101995831D02*
X100050000Y-102510117D01*
X100050000Y-102510117D02*
X100607143Y-102510117D01*
D11*
X99560714Y-107164895D02*
X99294047Y-106783942D01*
X99103571Y-107164895D02*
X99103571Y-106364895D01*
X99103571Y-106364895D02*
X99408333Y-106364895D01*
X99408333Y-106364895D02*
X99484523Y-106402990D01*
X99484523Y-106402990D02*
X99522618Y-106441085D01*
X99522618Y-106441085D02*
X99560714Y-106517276D01*
X99560714Y-106517276D02*
X99560714Y-106631561D01*
X99560714Y-106631561D02*
X99522618Y-106707752D01*
X99522618Y-106707752D02*
X99484523Y-106745847D01*
X99484523Y-106745847D02*
X99408333Y-106783942D01*
X99408333Y-106783942D02*
X99103571Y-106783942D01*
X100322618Y-107164895D02*
X99865475Y-107164895D01*
X100094047Y-107164895D02*
X100094047Y-106364895D01*
X100094047Y-106364895D02*
X100017856Y-106479180D01*
X100017856Y-106479180D02*
X99941666Y-106555371D01*
X99941666Y-106555371D02*
X99865475Y-106593466D01*
X101084523Y-107164895D02*
X100627380Y-107164895D01*
X100855952Y-107164895D02*
X100855952Y-106364895D01*
X100855952Y-106364895D02*
X100779761Y-106479180D01*
X100779761Y-106479180D02*
X100703571Y-106555371D01*
X100703571Y-106555371D02*
X100627380Y-106593466D01*
X104128571Y-107064895D02*
X104128571Y-106264895D01*
X104128571Y-106264895D02*
X104319047Y-106264895D01*
X104319047Y-106264895D02*
X104433333Y-106302990D01*
X104433333Y-106302990D02*
X104509523Y-106379180D01*
X104509523Y-106379180D02*
X104547618Y-106455371D01*
X104547618Y-106455371D02*
X104585714Y-106607752D01*
X104585714Y-106607752D02*
X104585714Y-106722038D01*
X104585714Y-106722038D02*
X104547618Y-106874419D01*
X104547618Y-106874419D02*
X104509523Y-106950609D01*
X104509523Y-106950609D02*
X104433333Y-107026800D01*
X104433333Y-107026800D02*
X104319047Y-107064895D01*
X104319047Y-107064895D02*
X104128571Y-107064895D01*
X105347618Y-107064895D02*
X104890475Y-107064895D01*
X105119047Y-107064895D02*
X105119047Y-106264895D01*
X105119047Y-106264895D02*
X105042856Y-106379180D01*
X105042856Y-106379180D02*
X104966666Y-106455371D01*
X104966666Y-106455371D02*
X104890475Y-106493466D01*
X106109523Y-107064895D02*
X105652380Y-107064895D01*
X105880952Y-107064895D02*
X105880952Y-106264895D01*
X105880952Y-106264895D02*
X105804761Y-106379180D01*
X105804761Y-106379180D02*
X105728571Y-106455371D01*
X105728571Y-106455371D02*
X105652380Y-106493466D01*
X98416667Y-119164895D02*
X98150000Y-118783942D01*
X97959524Y-119164895D02*
X97959524Y-118364895D01*
X97959524Y-118364895D02*
X98264286Y-118364895D01*
X98264286Y-118364895D02*
X98340476Y-118402990D01*
X98340476Y-118402990D02*
X98378571Y-118441085D01*
X98378571Y-118441085D02*
X98416667Y-118517276D01*
X98416667Y-118517276D02*
X98416667Y-118631561D01*
X98416667Y-118631561D02*
X98378571Y-118707752D01*
X98378571Y-118707752D02*
X98340476Y-118745847D01*
X98340476Y-118745847D02*
X98264286Y-118783942D01*
X98264286Y-118783942D02*
X97959524Y-118783942D01*
X99102381Y-118364895D02*
X98950000Y-118364895D01*
X98950000Y-118364895D02*
X98873809Y-118402990D01*
X98873809Y-118402990D02*
X98835714Y-118441085D01*
X98835714Y-118441085D02*
X98759524Y-118555371D01*
X98759524Y-118555371D02*
X98721428Y-118707752D01*
X98721428Y-118707752D02*
X98721428Y-119012514D01*
X98721428Y-119012514D02*
X98759524Y-119088704D01*
X98759524Y-119088704D02*
X98797619Y-119126800D01*
X98797619Y-119126800D02*
X98873809Y-119164895D01*
X98873809Y-119164895D02*
X99026190Y-119164895D01*
X99026190Y-119164895D02*
X99102381Y-119126800D01*
X99102381Y-119126800D02*
X99140476Y-119088704D01*
X99140476Y-119088704D02*
X99178571Y-119012514D01*
X99178571Y-119012514D02*
X99178571Y-118822038D01*
X99178571Y-118822038D02*
X99140476Y-118745847D01*
X99140476Y-118745847D02*
X99102381Y-118707752D01*
X99102381Y-118707752D02*
X99026190Y-118669657D01*
X99026190Y-118669657D02*
X98873809Y-118669657D01*
X98873809Y-118669657D02*
X98797619Y-118707752D01*
X98797619Y-118707752D02*
X98759524Y-118745847D01*
X98759524Y-118745847D02*
X98721428Y-118822038D01*
X105416667Y-119364895D02*
X105150000Y-118983942D01*
X104959524Y-119364895D02*
X104959524Y-118564895D01*
X104959524Y-118564895D02*
X105264286Y-118564895D01*
X105264286Y-118564895D02*
X105340476Y-118602990D01*
X105340476Y-118602990D02*
X105378571Y-118641085D01*
X105378571Y-118641085D02*
X105416667Y-118717276D01*
X105416667Y-118717276D02*
X105416667Y-118831561D01*
X105416667Y-118831561D02*
X105378571Y-118907752D01*
X105378571Y-118907752D02*
X105340476Y-118945847D01*
X105340476Y-118945847D02*
X105264286Y-118983942D01*
X105264286Y-118983942D02*
X104959524Y-118983942D01*
X105797619Y-119364895D02*
X105950000Y-119364895D01*
X105950000Y-119364895D02*
X106026190Y-119326800D01*
X106026190Y-119326800D02*
X106064286Y-119288704D01*
X106064286Y-119288704D02*
X106140476Y-119174419D01*
X106140476Y-119174419D02*
X106178571Y-119022038D01*
X106178571Y-119022038D02*
X106178571Y-118717276D01*
X106178571Y-118717276D02*
X106140476Y-118641085D01*
X106140476Y-118641085D02*
X106102381Y-118602990D01*
X106102381Y-118602990D02*
X106026190Y-118564895D01*
X106026190Y-118564895D02*
X105873809Y-118564895D01*
X105873809Y-118564895D02*
X105797619Y-118602990D01*
X105797619Y-118602990D02*
X105759524Y-118641085D01*
X105759524Y-118641085D02*
X105721428Y-118717276D01*
X105721428Y-118717276D02*
X105721428Y-118907752D01*
X105721428Y-118907752D02*
X105759524Y-118983942D01*
X105759524Y-118983942D02*
X105797619Y-119022038D01*
X105797619Y-119022038D02*
X105873809Y-119060133D01*
X105873809Y-119060133D02*
X106026190Y-119060133D01*
X106026190Y-119060133D02*
X106102381Y-119022038D01*
X106102381Y-119022038D02*
X106140476Y-118983942D01*
X106140476Y-118983942D02*
X106178571Y-118907752D01*
D16*
X104226785Y-123095831D02*
X104141071Y-123052974D01*
X104141071Y-123052974D02*
X104055357Y-122967260D01*
X104055357Y-122967260D02*
X103926785Y-122838688D01*
X103926785Y-122838688D02*
X103841071Y-122795831D01*
X103841071Y-122795831D02*
X103755357Y-122795831D01*
X103798214Y-123010117D02*
X103712500Y-122967260D01*
X103712500Y-122967260D02*
X103626785Y-122881545D01*
X103626785Y-122881545D02*
X103583928Y-122710117D01*
X103583928Y-122710117D02*
X103583928Y-122410117D01*
X103583928Y-122410117D02*
X103626785Y-122238688D01*
X103626785Y-122238688D02*
X103712500Y-122152974D01*
X103712500Y-122152974D02*
X103798214Y-122110117D01*
X103798214Y-122110117D02*
X103969642Y-122110117D01*
X103969642Y-122110117D02*
X104055357Y-122152974D01*
X104055357Y-122152974D02*
X104141071Y-122238688D01*
X104141071Y-122238688D02*
X104183928Y-122410117D01*
X104183928Y-122410117D02*
X104183928Y-122710117D01*
X104183928Y-122710117D02*
X104141071Y-122881545D01*
X104141071Y-122881545D02*
X104055357Y-122967260D01*
X104055357Y-122967260D02*
X103969642Y-123010117D01*
X103969642Y-123010117D02*
X103798214Y-123010117D01*
X104483928Y-122110117D02*
X105041071Y-122110117D01*
X105041071Y-122110117D02*
X104741071Y-122452974D01*
X104741071Y-122452974D02*
X104869642Y-122452974D01*
X104869642Y-122452974D02*
X104955357Y-122495831D01*
X104955357Y-122495831D02*
X104998214Y-122538688D01*
X104998214Y-122538688D02*
X105041071Y-122624402D01*
X105041071Y-122624402D02*
X105041071Y-122838688D01*
X105041071Y-122838688D02*
X104998214Y-122924402D01*
X104998214Y-122924402D02*
X104955357Y-122967260D01*
X104955357Y-122967260D02*
X104869642Y-123010117D01*
X104869642Y-123010117D02*
X104612499Y-123010117D01*
X104612499Y-123010117D02*
X104526785Y-122967260D01*
X104526785Y-122967260D02*
X104483928Y-122924402D01*
X98735714Y-123010117D02*
X98735714Y-122110117D01*
X98735714Y-122110117D02*
X98950000Y-122110117D01*
X98950000Y-122110117D02*
X99078571Y-122152974D01*
X99078571Y-122152974D02*
X99164286Y-122238688D01*
X99164286Y-122238688D02*
X99207143Y-122324402D01*
X99207143Y-122324402D02*
X99250000Y-122495831D01*
X99250000Y-122495831D02*
X99250000Y-122624402D01*
X99250000Y-122624402D02*
X99207143Y-122795831D01*
X99207143Y-122795831D02*
X99164286Y-122881545D01*
X99164286Y-122881545D02*
X99078571Y-122967260D01*
X99078571Y-122967260D02*
X98950000Y-123010117D01*
X98950000Y-123010117D02*
X98735714Y-123010117D01*
X99550000Y-122110117D02*
X100107143Y-122110117D01*
X100107143Y-122110117D02*
X99807143Y-122452974D01*
X99807143Y-122452974D02*
X99935714Y-122452974D01*
X99935714Y-122452974D02*
X100021429Y-122495831D01*
X100021429Y-122495831D02*
X100064286Y-122538688D01*
X100064286Y-122538688D02*
X100107143Y-122624402D01*
X100107143Y-122624402D02*
X100107143Y-122838688D01*
X100107143Y-122838688D02*
X100064286Y-122924402D01*
X100064286Y-122924402D02*
X100021429Y-122967260D01*
X100021429Y-122967260D02*
X99935714Y-123010117D01*
X99935714Y-123010117D02*
X99678571Y-123010117D01*
X99678571Y-123010117D02*
X99592857Y-122967260D01*
X99592857Y-122967260D02*
X99550000Y-122924402D01*
D11*
X99010714Y-128764895D02*
X98744047Y-128383942D01*
X98553571Y-128764895D02*
X98553571Y-127964895D01*
X98553571Y-127964895D02*
X98858333Y-127964895D01*
X98858333Y-127964895D02*
X98934523Y-128002990D01*
X98934523Y-128002990D02*
X98972618Y-128041085D01*
X98972618Y-128041085D02*
X99010714Y-128117276D01*
X99010714Y-128117276D02*
X99010714Y-128231561D01*
X99010714Y-128231561D02*
X98972618Y-128307752D01*
X98972618Y-128307752D02*
X98934523Y-128345847D01*
X98934523Y-128345847D02*
X98858333Y-128383942D01*
X98858333Y-128383942D02*
X98553571Y-128383942D01*
X99772618Y-128764895D02*
X99315475Y-128764895D01*
X99544047Y-128764895D02*
X99544047Y-127964895D01*
X99544047Y-127964895D02*
X99467856Y-128079180D01*
X99467856Y-128079180D02*
X99391666Y-128155371D01*
X99391666Y-128155371D02*
X99315475Y-128193466D01*
X100077380Y-128041085D02*
X100115476Y-128002990D01*
X100115476Y-128002990D02*
X100191666Y-127964895D01*
X100191666Y-127964895D02*
X100382142Y-127964895D01*
X100382142Y-127964895D02*
X100458333Y-128002990D01*
X100458333Y-128002990D02*
X100496428Y-128041085D01*
X100496428Y-128041085D02*
X100534523Y-128117276D01*
X100534523Y-128117276D02*
X100534523Y-128193466D01*
X100534523Y-128193466D02*
X100496428Y-128307752D01*
X100496428Y-128307752D02*
X100039285Y-128764895D01*
X100039285Y-128764895D02*
X100534523Y-128764895D01*
X103953571Y-128664895D02*
X103953571Y-127864895D01*
X103953571Y-127864895D02*
X104144047Y-127864895D01*
X104144047Y-127864895D02*
X104258333Y-127902990D01*
X104258333Y-127902990D02*
X104334523Y-127979180D01*
X104334523Y-127979180D02*
X104372618Y-128055371D01*
X104372618Y-128055371D02*
X104410714Y-128207752D01*
X104410714Y-128207752D02*
X104410714Y-128322038D01*
X104410714Y-128322038D02*
X104372618Y-128474419D01*
X104372618Y-128474419D02*
X104334523Y-128550609D01*
X104334523Y-128550609D02*
X104258333Y-128626800D01*
X104258333Y-128626800D02*
X104144047Y-128664895D01*
X104144047Y-128664895D02*
X103953571Y-128664895D01*
X105172618Y-128664895D02*
X104715475Y-128664895D01*
X104944047Y-128664895D02*
X104944047Y-127864895D01*
X104944047Y-127864895D02*
X104867856Y-127979180D01*
X104867856Y-127979180D02*
X104791666Y-128055371D01*
X104791666Y-128055371D02*
X104715475Y-128093466D01*
X105477380Y-127941085D02*
X105515476Y-127902990D01*
X105515476Y-127902990D02*
X105591666Y-127864895D01*
X105591666Y-127864895D02*
X105782142Y-127864895D01*
X105782142Y-127864895D02*
X105858333Y-127902990D01*
X105858333Y-127902990D02*
X105896428Y-127941085D01*
X105896428Y-127941085D02*
X105934523Y-128017276D01*
X105934523Y-128017276D02*
X105934523Y-128093466D01*
X105934523Y-128093466D02*
X105896428Y-128207752D01*
X105896428Y-128207752D02*
X105439285Y-128664895D01*
X105439285Y-128664895D02*
X105934523Y-128664895D01*
X169185714Y-74364895D02*
X168919047Y-73983942D01*
X168728571Y-74364895D02*
X168728571Y-73564895D01*
X168728571Y-73564895D02*
X169033333Y-73564895D01*
X169033333Y-73564895D02*
X169109523Y-73602990D01*
X169109523Y-73602990D02*
X169147618Y-73641085D01*
X169147618Y-73641085D02*
X169185714Y-73717276D01*
X169185714Y-73717276D02*
X169185714Y-73831561D01*
X169185714Y-73831561D02*
X169147618Y-73907752D01*
X169147618Y-73907752D02*
X169109523Y-73945847D01*
X169109523Y-73945847D02*
X169033333Y-73983942D01*
X169033333Y-73983942D02*
X168728571Y-73983942D01*
X169490475Y-73641085D02*
X169528571Y-73602990D01*
X169528571Y-73602990D02*
X169604761Y-73564895D01*
X169604761Y-73564895D02*
X169795237Y-73564895D01*
X169795237Y-73564895D02*
X169871428Y-73602990D01*
X169871428Y-73602990D02*
X169909523Y-73641085D01*
X169909523Y-73641085D02*
X169947618Y-73717276D01*
X169947618Y-73717276D02*
X169947618Y-73793466D01*
X169947618Y-73793466D02*
X169909523Y-73907752D01*
X169909523Y-73907752D02*
X169452380Y-74364895D01*
X169452380Y-74364895D02*
X169947618Y-74364895D01*
X170442857Y-73564895D02*
X170519047Y-73564895D01*
X170519047Y-73564895D02*
X170595238Y-73602990D01*
X170595238Y-73602990D02*
X170633333Y-73641085D01*
X170633333Y-73641085D02*
X170671428Y-73717276D01*
X170671428Y-73717276D02*
X170709523Y-73869657D01*
X170709523Y-73869657D02*
X170709523Y-74060133D01*
X170709523Y-74060133D02*
X170671428Y-74212514D01*
X170671428Y-74212514D02*
X170633333Y-74288704D01*
X170633333Y-74288704D02*
X170595238Y-74326800D01*
X170595238Y-74326800D02*
X170519047Y-74364895D01*
X170519047Y-74364895D02*
X170442857Y-74364895D01*
X170442857Y-74364895D02*
X170366666Y-74326800D01*
X170366666Y-74326800D02*
X170328571Y-74288704D01*
X170328571Y-74288704D02*
X170290476Y-74212514D01*
X170290476Y-74212514D02*
X170252380Y-74060133D01*
X170252380Y-74060133D02*
X170252380Y-73869657D01*
X170252380Y-73869657D02*
X170290476Y-73717276D01*
X170290476Y-73717276D02*
X170328571Y-73641085D01*
X170328571Y-73641085D02*
X170366666Y-73602990D01*
X170366666Y-73602990D02*
X170442857Y-73564895D01*
X173728571Y-74264895D02*
X173728571Y-73464895D01*
X173728571Y-73464895D02*
X173919047Y-73464895D01*
X173919047Y-73464895D02*
X174033333Y-73502990D01*
X174033333Y-73502990D02*
X174109523Y-73579180D01*
X174109523Y-73579180D02*
X174147618Y-73655371D01*
X174147618Y-73655371D02*
X174185714Y-73807752D01*
X174185714Y-73807752D02*
X174185714Y-73922038D01*
X174185714Y-73922038D02*
X174147618Y-74074419D01*
X174147618Y-74074419D02*
X174109523Y-74150609D01*
X174109523Y-74150609D02*
X174033333Y-74226800D01*
X174033333Y-74226800D02*
X173919047Y-74264895D01*
X173919047Y-74264895D02*
X173728571Y-74264895D01*
X174490475Y-73541085D02*
X174528571Y-73502990D01*
X174528571Y-73502990D02*
X174604761Y-73464895D01*
X174604761Y-73464895D02*
X174795237Y-73464895D01*
X174795237Y-73464895D02*
X174871428Y-73502990D01*
X174871428Y-73502990D02*
X174909523Y-73541085D01*
X174909523Y-73541085D02*
X174947618Y-73617276D01*
X174947618Y-73617276D02*
X174947618Y-73693466D01*
X174947618Y-73693466D02*
X174909523Y-73807752D01*
X174909523Y-73807752D02*
X174452380Y-74264895D01*
X174452380Y-74264895D02*
X174947618Y-74264895D01*
X175442857Y-73464895D02*
X175519047Y-73464895D01*
X175519047Y-73464895D02*
X175595238Y-73502990D01*
X175595238Y-73502990D02*
X175633333Y-73541085D01*
X175633333Y-73541085D02*
X175671428Y-73617276D01*
X175671428Y-73617276D02*
X175709523Y-73769657D01*
X175709523Y-73769657D02*
X175709523Y-73960133D01*
X175709523Y-73960133D02*
X175671428Y-74112514D01*
X175671428Y-74112514D02*
X175633333Y-74188704D01*
X175633333Y-74188704D02*
X175595238Y-74226800D01*
X175595238Y-74226800D02*
X175519047Y-74264895D01*
X175519047Y-74264895D02*
X175442857Y-74264895D01*
X175442857Y-74264895D02*
X175366666Y-74226800D01*
X175366666Y-74226800D02*
X175328571Y-74188704D01*
X175328571Y-74188704D02*
X175290476Y-74112514D01*
X175290476Y-74112514D02*
X175252380Y-73960133D01*
X175252380Y-73960133D02*
X175252380Y-73769657D01*
X175252380Y-73769657D02*
X175290476Y-73617276D01*
X175290476Y-73617276D02*
X175328571Y-73541085D01*
X175328571Y-73541085D02*
X175366666Y-73502990D01*
X175366666Y-73502990D02*
X175442857Y-73464895D01*
X174647619Y-76464895D02*
X174266667Y-76464895D01*
X174266667Y-76464895D02*
X174228571Y-76845847D01*
X174228571Y-76845847D02*
X174266667Y-76807752D01*
X174266667Y-76807752D02*
X174342857Y-76769657D01*
X174342857Y-76769657D02*
X174533333Y-76769657D01*
X174533333Y-76769657D02*
X174609524Y-76807752D01*
X174609524Y-76807752D02*
X174647619Y-76845847D01*
X174647619Y-76845847D02*
X174685714Y-76922038D01*
X174685714Y-76922038D02*
X174685714Y-77112514D01*
X174685714Y-77112514D02*
X174647619Y-77188704D01*
X174647619Y-77188704D02*
X174609524Y-77226800D01*
X174609524Y-77226800D02*
X174533333Y-77264895D01*
X174533333Y-77264895D02*
X174342857Y-77264895D01*
X174342857Y-77264895D02*
X174266667Y-77226800D01*
X174266667Y-77226800D02*
X174228571Y-77188704D01*
X174914286Y-76464895D02*
X175180953Y-77264895D01*
X175180953Y-77264895D02*
X175447619Y-76464895D01*
X169185714Y-78964895D02*
X168919047Y-78583942D01*
X168728571Y-78964895D02*
X168728571Y-78164895D01*
X168728571Y-78164895D02*
X169033333Y-78164895D01*
X169033333Y-78164895D02*
X169109523Y-78202990D01*
X169109523Y-78202990D02*
X169147618Y-78241085D01*
X169147618Y-78241085D02*
X169185714Y-78317276D01*
X169185714Y-78317276D02*
X169185714Y-78431561D01*
X169185714Y-78431561D02*
X169147618Y-78507752D01*
X169147618Y-78507752D02*
X169109523Y-78545847D01*
X169109523Y-78545847D02*
X169033333Y-78583942D01*
X169033333Y-78583942D02*
X168728571Y-78583942D01*
X169490475Y-78241085D02*
X169528571Y-78202990D01*
X169528571Y-78202990D02*
X169604761Y-78164895D01*
X169604761Y-78164895D02*
X169795237Y-78164895D01*
X169795237Y-78164895D02*
X169871428Y-78202990D01*
X169871428Y-78202990D02*
X169909523Y-78241085D01*
X169909523Y-78241085D02*
X169947618Y-78317276D01*
X169947618Y-78317276D02*
X169947618Y-78393466D01*
X169947618Y-78393466D02*
X169909523Y-78507752D01*
X169909523Y-78507752D02*
X169452380Y-78964895D01*
X169452380Y-78964895D02*
X169947618Y-78964895D01*
X170709523Y-78964895D02*
X170252380Y-78964895D01*
X170480952Y-78964895D02*
X170480952Y-78164895D01*
X170480952Y-78164895D02*
X170404761Y-78279180D01*
X170404761Y-78279180D02*
X170328571Y-78355371D01*
X170328571Y-78355371D02*
X170252380Y-78393466D01*
X173928571Y-79064895D02*
X173928571Y-78264895D01*
X173928571Y-78264895D02*
X174119047Y-78264895D01*
X174119047Y-78264895D02*
X174233333Y-78302990D01*
X174233333Y-78302990D02*
X174309523Y-78379180D01*
X174309523Y-78379180D02*
X174347618Y-78455371D01*
X174347618Y-78455371D02*
X174385714Y-78607752D01*
X174385714Y-78607752D02*
X174385714Y-78722038D01*
X174385714Y-78722038D02*
X174347618Y-78874419D01*
X174347618Y-78874419D02*
X174309523Y-78950609D01*
X174309523Y-78950609D02*
X174233333Y-79026800D01*
X174233333Y-79026800D02*
X174119047Y-79064895D01*
X174119047Y-79064895D02*
X173928571Y-79064895D01*
X174690475Y-78341085D02*
X174728571Y-78302990D01*
X174728571Y-78302990D02*
X174804761Y-78264895D01*
X174804761Y-78264895D02*
X174995237Y-78264895D01*
X174995237Y-78264895D02*
X175071428Y-78302990D01*
X175071428Y-78302990D02*
X175109523Y-78341085D01*
X175109523Y-78341085D02*
X175147618Y-78417276D01*
X175147618Y-78417276D02*
X175147618Y-78493466D01*
X175147618Y-78493466D02*
X175109523Y-78607752D01*
X175109523Y-78607752D02*
X174652380Y-79064895D01*
X174652380Y-79064895D02*
X175147618Y-79064895D01*
X175909523Y-79064895D02*
X175452380Y-79064895D01*
X175680952Y-79064895D02*
X175680952Y-78264895D01*
X175680952Y-78264895D02*
X175604761Y-78379180D01*
X175604761Y-78379180D02*
X175528571Y-78455371D01*
X175528571Y-78455371D02*
X175452380Y-78493466D01*
X173909523Y-81264895D02*
X174404761Y-81264895D01*
X174404761Y-81264895D02*
X174138095Y-81569657D01*
X174138095Y-81569657D02*
X174252380Y-81569657D01*
X174252380Y-81569657D02*
X174328571Y-81607752D01*
X174328571Y-81607752D02*
X174366666Y-81645847D01*
X174366666Y-81645847D02*
X174404761Y-81722038D01*
X174404761Y-81722038D02*
X174404761Y-81912514D01*
X174404761Y-81912514D02*
X174366666Y-81988704D01*
X174366666Y-81988704D02*
X174328571Y-82026800D01*
X174328571Y-82026800D02*
X174252380Y-82064895D01*
X174252380Y-82064895D02*
X174023809Y-82064895D01*
X174023809Y-82064895D02*
X173947618Y-82026800D01*
X173947618Y-82026800D02*
X173909523Y-81988704D01*
X174633333Y-81264895D02*
X174900000Y-82064895D01*
X174900000Y-82064895D02*
X175166666Y-81264895D01*
X175357142Y-81264895D02*
X175852380Y-81264895D01*
X175852380Y-81264895D02*
X175585714Y-81569657D01*
X175585714Y-81569657D02*
X175699999Y-81569657D01*
X175699999Y-81569657D02*
X175776190Y-81607752D01*
X175776190Y-81607752D02*
X175814285Y-81645847D01*
X175814285Y-81645847D02*
X175852380Y-81722038D01*
X175852380Y-81722038D02*
X175852380Y-81912514D01*
X175852380Y-81912514D02*
X175814285Y-81988704D01*
X175814285Y-81988704D02*
X175776190Y-82026800D01*
X175776190Y-82026800D02*
X175699999Y-82064895D01*
X175699999Y-82064895D02*
X175471428Y-82064895D01*
X175471428Y-82064895D02*
X175395237Y-82026800D01*
X175395237Y-82026800D02*
X175357142Y-81988704D01*
X157785714Y-97364895D02*
X157519047Y-96983942D01*
X157328571Y-97364895D02*
X157328571Y-96564895D01*
X157328571Y-96564895D02*
X157633333Y-96564895D01*
X157633333Y-96564895D02*
X157709523Y-96602990D01*
X157709523Y-96602990D02*
X157747618Y-96641085D01*
X157747618Y-96641085D02*
X157785714Y-96717276D01*
X157785714Y-96717276D02*
X157785714Y-96831561D01*
X157785714Y-96831561D02*
X157747618Y-96907752D01*
X157747618Y-96907752D02*
X157709523Y-96945847D01*
X157709523Y-96945847D02*
X157633333Y-96983942D01*
X157633333Y-96983942D02*
X157328571Y-96983942D01*
X158052380Y-96564895D02*
X158547618Y-96564895D01*
X158547618Y-96564895D02*
X158280952Y-96869657D01*
X158280952Y-96869657D02*
X158395237Y-96869657D01*
X158395237Y-96869657D02*
X158471428Y-96907752D01*
X158471428Y-96907752D02*
X158509523Y-96945847D01*
X158509523Y-96945847D02*
X158547618Y-97022038D01*
X158547618Y-97022038D02*
X158547618Y-97212514D01*
X158547618Y-97212514D02*
X158509523Y-97288704D01*
X158509523Y-97288704D02*
X158471428Y-97326800D01*
X158471428Y-97326800D02*
X158395237Y-97364895D01*
X158395237Y-97364895D02*
X158166666Y-97364895D01*
X158166666Y-97364895D02*
X158090475Y-97326800D01*
X158090475Y-97326800D02*
X158052380Y-97288704D01*
X159042857Y-96564895D02*
X159119047Y-96564895D01*
X159119047Y-96564895D02*
X159195238Y-96602990D01*
X159195238Y-96602990D02*
X159233333Y-96641085D01*
X159233333Y-96641085D02*
X159271428Y-96717276D01*
X159271428Y-96717276D02*
X159309523Y-96869657D01*
X159309523Y-96869657D02*
X159309523Y-97060133D01*
X159309523Y-97060133D02*
X159271428Y-97212514D01*
X159271428Y-97212514D02*
X159233333Y-97288704D01*
X159233333Y-97288704D02*
X159195238Y-97326800D01*
X159195238Y-97326800D02*
X159119047Y-97364895D01*
X159119047Y-97364895D02*
X159042857Y-97364895D01*
X159042857Y-97364895D02*
X158966666Y-97326800D01*
X158966666Y-97326800D02*
X158928571Y-97288704D01*
X158928571Y-97288704D02*
X158890476Y-97212514D01*
X158890476Y-97212514D02*
X158852380Y-97060133D01*
X158852380Y-97060133D02*
X158852380Y-96869657D01*
X158852380Y-96869657D02*
X158890476Y-96717276D01*
X158890476Y-96717276D02*
X158928571Y-96641085D01*
X158928571Y-96641085D02*
X158966666Y-96602990D01*
X158966666Y-96602990D02*
X159042857Y-96564895D01*
X163728571Y-97364895D02*
X163728571Y-96564895D01*
X163728571Y-96564895D02*
X163919047Y-96564895D01*
X163919047Y-96564895D02*
X164033333Y-96602990D01*
X164033333Y-96602990D02*
X164109523Y-96679180D01*
X164109523Y-96679180D02*
X164147618Y-96755371D01*
X164147618Y-96755371D02*
X164185714Y-96907752D01*
X164185714Y-96907752D02*
X164185714Y-97022038D01*
X164185714Y-97022038D02*
X164147618Y-97174419D01*
X164147618Y-97174419D02*
X164109523Y-97250609D01*
X164109523Y-97250609D02*
X164033333Y-97326800D01*
X164033333Y-97326800D02*
X163919047Y-97364895D01*
X163919047Y-97364895D02*
X163728571Y-97364895D01*
X164452380Y-96564895D02*
X164947618Y-96564895D01*
X164947618Y-96564895D02*
X164680952Y-96869657D01*
X164680952Y-96869657D02*
X164795237Y-96869657D01*
X164795237Y-96869657D02*
X164871428Y-96907752D01*
X164871428Y-96907752D02*
X164909523Y-96945847D01*
X164909523Y-96945847D02*
X164947618Y-97022038D01*
X164947618Y-97022038D02*
X164947618Y-97212514D01*
X164947618Y-97212514D02*
X164909523Y-97288704D01*
X164909523Y-97288704D02*
X164871428Y-97326800D01*
X164871428Y-97326800D02*
X164795237Y-97364895D01*
X164795237Y-97364895D02*
X164566666Y-97364895D01*
X164566666Y-97364895D02*
X164490475Y-97326800D01*
X164490475Y-97326800D02*
X164452380Y-97288704D01*
X165442857Y-96564895D02*
X165519047Y-96564895D01*
X165519047Y-96564895D02*
X165595238Y-96602990D01*
X165595238Y-96602990D02*
X165633333Y-96641085D01*
X165633333Y-96641085D02*
X165671428Y-96717276D01*
X165671428Y-96717276D02*
X165709523Y-96869657D01*
X165709523Y-96869657D02*
X165709523Y-97060133D01*
X165709523Y-97060133D02*
X165671428Y-97212514D01*
X165671428Y-97212514D02*
X165633333Y-97288704D01*
X165633333Y-97288704D02*
X165595238Y-97326800D01*
X165595238Y-97326800D02*
X165519047Y-97364895D01*
X165519047Y-97364895D02*
X165442857Y-97364895D01*
X165442857Y-97364895D02*
X165366666Y-97326800D01*
X165366666Y-97326800D02*
X165328571Y-97288704D01*
X165328571Y-97288704D02*
X165290476Y-97212514D01*
X165290476Y-97212514D02*
X165252380Y-97060133D01*
X165252380Y-97060133D02*
X165252380Y-96869657D01*
X165252380Y-96869657D02*
X165290476Y-96717276D01*
X165290476Y-96717276D02*
X165328571Y-96641085D01*
X165328571Y-96641085D02*
X165366666Y-96602990D01*
X165366666Y-96602990D02*
X165442857Y-96564895D01*
X164090476Y-99964895D02*
X164547619Y-99964895D01*
X164319047Y-100764895D02*
X164319047Y-99964895D01*
X164738095Y-99964895D02*
X165271429Y-100764895D01*
X165271429Y-99964895D02*
X164738095Y-100764895D01*
X157685714Y-101864895D02*
X157419047Y-101483942D01*
X157228571Y-101864895D02*
X157228571Y-101064895D01*
X157228571Y-101064895D02*
X157533333Y-101064895D01*
X157533333Y-101064895D02*
X157609523Y-101102990D01*
X157609523Y-101102990D02*
X157647618Y-101141085D01*
X157647618Y-101141085D02*
X157685714Y-101217276D01*
X157685714Y-101217276D02*
X157685714Y-101331561D01*
X157685714Y-101331561D02*
X157647618Y-101407752D01*
X157647618Y-101407752D02*
X157609523Y-101445847D01*
X157609523Y-101445847D02*
X157533333Y-101483942D01*
X157533333Y-101483942D02*
X157228571Y-101483942D01*
X157952380Y-101064895D02*
X158447618Y-101064895D01*
X158447618Y-101064895D02*
X158180952Y-101369657D01*
X158180952Y-101369657D02*
X158295237Y-101369657D01*
X158295237Y-101369657D02*
X158371428Y-101407752D01*
X158371428Y-101407752D02*
X158409523Y-101445847D01*
X158409523Y-101445847D02*
X158447618Y-101522038D01*
X158447618Y-101522038D02*
X158447618Y-101712514D01*
X158447618Y-101712514D02*
X158409523Y-101788704D01*
X158409523Y-101788704D02*
X158371428Y-101826800D01*
X158371428Y-101826800D02*
X158295237Y-101864895D01*
X158295237Y-101864895D02*
X158066666Y-101864895D01*
X158066666Y-101864895D02*
X157990475Y-101826800D01*
X157990475Y-101826800D02*
X157952380Y-101788704D01*
X159209523Y-101864895D02*
X158752380Y-101864895D01*
X158980952Y-101864895D02*
X158980952Y-101064895D01*
X158980952Y-101064895D02*
X158904761Y-101179180D01*
X158904761Y-101179180D02*
X158828571Y-101255371D01*
X158828571Y-101255371D02*
X158752380Y-101293466D01*
X163728571Y-102464895D02*
X163728571Y-101664895D01*
X163728571Y-101664895D02*
X163919047Y-101664895D01*
X163919047Y-101664895D02*
X164033333Y-101702990D01*
X164033333Y-101702990D02*
X164109523Y-101779180D01*
X164109523Y-101779180D02*
X164147618Y-101855371D01*
X164147618Y-101855371D02*
X164185714Y-102007752D01*
X164185714Y-102007752D02*
X164185714Y-102122038D01*
X164185714Y-102122038D02*
X164147618Y-102274419D01*
X164147618Y-102274419D02*
X164109523Y-102350609D01*
X164109523Y-102350609D02*
X164033333Y-102426800D01*
X164033333Y-102426800D02*
X163919047Y-102464895D01*
X163919047Y-102464895D02*
X163728571Y-102464895D01*
X164452380Y-101664895D02*
X164947618Y-101664895D01*
X164947618Y-101664895D02*
X164680952Y-101969657D01*
X164680952Y-101969657D02*
X164795237Y-101969657D01*
X164795237Y-101969657D02*
X164871428Y-102007752D01*
X164871428Y-102007752D02*
X164909523Y-102045847D01*
X164909523Y-102045847D02*
X164947618Y-102122038D01*
X164947618Y-102122038D02*
X164947618Y-102312514D01*
X164947618Y-102312514D02*
X164909523Y-102388704D01*
X164909523Y-102388704D02*
X164871428Y-102426800D01*
X164871428Y-102426800D02*
X164795237Y-102464895D01*
X164795237Y-102464895D02*
X164566666Y-102464895D01*
X164566666Y-102464895D02*
X164490475Y-102426800D01*
X164490475Y-102426800D02*
X164452380Y-102388704D01*
X165709523Y-102464895D02*
X165252380Y-102464895D01*
X165480952Y-102464895D02*
X165480952Y-101664895D01*
X165480952Y-101664895D02*
X165404761Y-101779180D01*
X165404761Y-101779180D02*
X165328571Y-101855371D01*
X165328571Y-101855371D02*
X165252380Y-101893466D01*
X168185714Y-130364895D02*
X167919047Y-129983942D01*
X167728571Y-130364895D02*
X167728571Y-129564895D01*
X167728571Y-129564895D02*
X168033333Y-129564895D01*
X168033333Y-129564895D02*
X168109523Y-129602990D01*
X168109523Y-129602990D02*
X168147618Y-129641085D01*
X168147618Y-129641085D02*
X168185714Y-129717276D01*
X168185714Y-129717276D02*
X168185714Y-129831561D01*
X168185714Y-129831561D02*
X168147618Y-129907752D01*
X168147618Y-129907752D02*
X168109523Y-129945847D01*
X168109523Y-129945847D02*
X168033333Y-129983942D01*
X168033333Y-129983942D02*
X167728571Y-129983942D01*
X168452380Y-129564895D02*
X168947618Y-129564895D01*
X168947618Y-129564895D02*
X168680952Y-129869657D01*
X168680952Y-129869657D02*
X168795237Y-129869657D01*
X168795237Y-129869657D02*
X168871428Y-129907752D01*
X168871428Y-129907752D02*
X168909523Y-129945847D01*
X168909523Y-129945847D02*
X168947618Y-130022038D01*
X168947618Y-130022038D02*
X168947618Y-130212514D01*
X168947618Y-130212514D02*
X168909523Y-130288704D01*
X168909523Y-130288704D02*
X168871428Y-130326800D01*
X168871428Y-130326800D02*
X168795237Y-130364895D01*
X168795237Y-130364895D02*
X168566666Y-130364895D01*
X168566666Y-130364895D02*
X168490475Y-130326800D01*
X168490475Y-130326800D02*
X168452380Y-130288704D01*
X169252380Y-129641085D02*
X169290476Y-129602990D01*
X169290476Y-129602990D02*
X169366666Y-129564895D01*
X169366666Y-129564895D02*
X169557142Y-129564895D01*
X169557142Y-129564895D02*
X169633333Y-129602990D01*
X169633333Y-129602990D02*
X169671428Y-129641085D01*
X169671428Y-129641085D02*
X169709523Y-129717276D01*
X169709523Y-129717276D02*
X169709523Y-129793466D01*
X169709523Y-129793466D02*
X169671428Y-129907752D01*
X169671428Y-129907752D02*
X169214285Y-130364895D01*
X169214285Y-130364895D02*
X169709523Y-130364895D01*
X67985714Y-43364895D02*
X67719047Y-42983942D01*
X67528571Y-43364895D02*
X67528571Y-42564895D01*
X67528571Y-42564895D02*
X67833333Y-42564895D01*
X67833333Y-42564895D02*
X67909523Y-42602990D01*
X67909523Y-42602990D02*
X67947618Y-42641085D01*
X67947618Y-42641085D02*
X67985714Y-42717276D01*
X67985714Y-42717276D02*
X67985714Y-42831561D01*
X67985714Y-42831561D02*
X67947618Y-42907752D01*
X67947618Y-42907752D02*
X67909523Y-42945847D01*
X67909523Y-42945847D02*
X67833333Y-42983942D01*
X67833333Y-42983942D02*
X67528571Y-42983942D01*
X68671428Y-42831561D02*
X68671428Y-43364895D01*
X68480952Y-42526800D02*
X68290475Y-43098228D01*
X68290475Y-43098228D02*
X68785714Y-43098228D01*
X69509523Y-43364895D02*
X69052380Y-43364895D01*
X69280952Y-43364895D02*
X69280952Y-42564895D01*
X69280952Y-42564895D02*
X69204761Y-42679180D01*
X69204761Y-42679180D02*
X69128571Y-42755371D01*
X69128571Y-42755371D02*
X69052380Y-42793466D01*
X60864895Y-43471428D02*
X60064895Y-43471428D01*
X60064895Y-43471428D02*
X60064895Y-43280952D01*
X60064895Y-43280952D02*
X60102990Y-43166666D01*
X60102990Y-43166666D02*
X60179180Y-43090476D01*
X60179180Y-43090476D02*
X60255371Y-43052381D01*
X60255371Y-43052381D02*
X60407752Y-43014285D01*
X60407752Y-43014285D02*
X60522038Y-43014285D01*
X60522038Y-43014285D02*
X60674419Y-43052381D01*
X60674419Y-43052381D02*
X60750609Y-43090476D01*
X60750609Y-43090476D02*
X60826800Y-43166666D01*
X60826800Y-43166666D02*
X60864895Y-43280952D01*
X60864895Y-43280952D02*
X60864895Y-43471428D01*
X60331561Y-42328571D02*
X60864895Y-42328571D01*
X60026800Y-42519047D02*
X60598228Y-42709524D01*
X60598228Y-42709524D02*
X60598228Y-42214285D01*
X60064895Y-41757142D02*
X60064895Y-41680952D01*
X60064895Y-41680952D02*
X60102990Y-41604761D01*
X60102990Y-41604761D02*
X60141085Y-41566666D01*
X60141085Y-41566666D02*
X60217276Y-41528571D01*
X60217276Y-41528571D02*
X60369657Y-41490476D01*
X60369657Y-41490476D02*
X60560133Y-41490476D01*
X60560133Y-41490476D02*
X60712514Y-41528571D01*
X60712514Y-41528571D02*
X60788704Y-41566666D01*
X60788704Y-41566666D02*
X60826800Y-41604761D01*
X60826800Y-41604761D02*
X60864895Y-41680952D01*
X60864895Y-41680952D02*
X60864895Y-41757142D01*
X60864895Y-41757142D02*
X60826800Y-41833333D01*
X60826800Y-41833333D02*
X60788704Y-41871428D01*
X60788704Y-41871428D02*
X60712514Y-41909523D01*
X60712514Y-41909523D02*
X60560133Y-41947619D01*
X60560133Y-41947619D02*
X60369657Y-41947619D01*
X60369657Y-41947619D02*
X60217276Y-41909523D01*
X60217276Y-41909523D02*
X60141085Y-41871428D01*
X60141085Y-41871428D02*
X60102990Y-41833333D01*
X60102990Y-41833333D02*
X60064895Y-41757142D01*
X64141085Y-43833333D02*
X64102990Y-43795237D01*
X64102990Y-43795237D02*
X64064895Y-43719047D01*
X64064895Y-43719047D02*
X64064895Y-43528571D01*
X64064895Y-43528571D02*
X64102990Y-43452380D01*
X64102990Y-43452380D02*
X64141085Y-43414285D01*
X64141085Y-43414285D02*
X64217276Y-43376190D01*
X64217276Y-43376190D02*
X64293466Y-43376190D01*
X64293466Y-43376190D02*
X64407752Y-43414285D01*
X64407752Y-43414285D02*
X64864895Y-43871428D01*
X64864895Y-43871428D02*
X64864895Y-43376190D01*
X64064895Y-43109523D02*
X64064895Y-42614285D01*
X64064895Y-42614285D02*
X64369657Y-42880951D01*
X64369657Y-42880951D02*
X64369657Y-42766666D01*
X64369657Y-42766666D02*
X64407752Y-42690475D01*
X64407752Y-42690475D02*
X64445847Y-42652380D01*
X64445847Y-42652380D02*
X64522038Y-42614285D01*
X64522038Y-42614285D02*
X64712514Y-42614285D01*
X64712514Y-42614285D02*
X64788704Y-42652380D01*
X64788704Y-42652380D02*
X64826800Y-42690475D01*
X64826800Y-42690475D02*
X64864895Y-42766666D01*
X64864895Y-42766666D02*
X64864895Y-42995237D01*
X64864895Y-42995237D02*
X64826800Y-43071428D01*
X64826800Y-43071428D02*
X64788704Y-43109523D01*
X64064895Y-42119046D02*
X64064895Y-42042856D01*
X64064895Y-42042856D02*
X64102990Y-41966665D01*
X64102990Y-41966665D02*
X64141085Y-41928570D01*
X64141085Y-41928570D02*
X64217276Y-41890475D01*
X64217276Y-41890475D02*
X64369657Y-41852380D01*
X64369657Y-41852380D02*
X64560133Y-41852380D01*
X64560133Y-41852380D02*
X64712514Y-41890475D01*
X64712514Y-41890475D02*
X64788704Y-41928570D01*
X64788704Y-41928570D02*
X64826800Y-41966665D01*
X64826800Y-41966665D02*
X64864895Y-42042856D01*
X64864895Y-42042856D02*
X64864895Y-42119046D01*
X64864895Y-42119046D02*
X64826800Y-42195237D01*
X64826800Y-42195237D02*
X64788704Y-42233332D01*
X64788704Y-42233332D02*
X64712514Y-42271427D01*
X64712514Y-42271427D02*
X64560133Y-42309523D01*
X64560133Y-42309523D02*
X64369657Y-42309523D01*
X64369657Y-42309523D02*
X64217276Y-42271427D01*
X64217276Y-42271427D02*
X64141085Y-42233332D01*
X64141085Y-42233332D02*
X64102990Y-42195237D01*
X64102990Y-42195237D02*
X64064895Y-42119046D01*
X64064895Y-41623808D02*
X64864895Y-41357141D01*
X64864895Y-41357141D02*
X64064895Y-41090475D01*
X59764895Y-43471428D02*
X58964895Y-43471428D01*
X58964895Y-43471428D02*
X58964895Y-43280952D01*
X58964895Y-43280952D02*
X59002990Y-43166666D01*
X59002990Y-43166666D02*
X59079180Y-43090476D01*
X59079180Y-43090476D02*
X59155371Y-43052381D01*
X59155371Y-43052381D02*
X59307752Y-43014285D01*
X59307752Y-43014285D02*
X59422038Y-43014285D01*
X59422038Y-43014285D02*
X59574419Y-43052381D01*
X59574419Y-43052381D02*
X59650609Y-43090476D01*
X59650609Y-43090476D02*
X59726800Y-43166666D01*
X59726800Y-43166666D02*
X59764895Y-43280952D01*
X59764895Y-43280952D02*
X59764895Y-43471428D01*
X59231561Y-42328571D02*
X59764895Y-42328571D01*
X58926800Y-42519047D02*
X59498228Y-42709524D01*
X59498228Y-42709524D02*
X59498228Y-42214285D01*
X59764895Y-41490476D02*
X59764895Y-41947619D01*
X59764895Y-41719047D02*
X58964895Y-41719047D01*
X58964895Y-41719047D02*
X59079180Y-41795238D01*
X59079180Y-41795238D02*
X59155371Y-41871428D01*
X59155371Y-41871428D02*
X59193466Y-41947619D01*
D16*
X52610117Y-65735714D02*
X52181545Y-66035714D01*
X52610117Y-66250000D02*
X51710117Y-66250000D01*
X51710117Y-66250000D02*
X51710117Y-65907143D01*
X51710117Y-65907143D02*
X51752974Y-65821428D01*
X51752974Y-65821428D02*
X51795831Y-65778571D01*
X51795831Y-65778571D02*
X51881545Y-65735714D01*
X51881545Y-65735714D02*
X52010117Y-65735714D01*
X52010117Y-65735714D02*
X52095831Y-65778571D01*
X52095831Y-65778571D02*
X52138688Y-65821428D01*
X52138688Y-65821428D02*
X52181545Y-65907143D01*
X52181545Y-65907143D02*
X52181545Y-66250000D01*
X51710117Y-65478571D02*
X52610117Y-65178571D01*
X52610117Y-65178571D02*
X51710117Y-64878571D01*
X52610117Y-64107142D02*
X52610117Y-64621428D01*
X52610117Y-64364285D02*
X51710117Y-64364285D01*
X51710117Y-64364285D02*
X51838688Y-64449999D01*
X51838688Y-64449999D02*
X51924402Y-64535714D01*
X51924402Y-64535714D02*
X51967260Y-64621428D01*
D11*
X166728571Y-116464895D02*
X166728571Y-115664895D01*
X166728571Y-115664895D02*
X166919047Y-115664895D01*
X166919047Y-115664895D02*
X167033333Y-115702990D01*
X167033333Y-115702990D02*
X167109523Y-115779180D01*
X167109523Y-115779180D02*
X167147618Y-115855371D01*
X167147618Y-115855371D02*
X167185714Y-116007752D01*
X167185714Y-116007752D02*
X167185714Y-116122038D01*
X167185714Y-116122038D02*
X167147618Y-116274419D01*
X167147618Y-116274419D02*
X167109523Y-116350609D01*
X167109523Y-116350609D02*
X167033333Y-116426800D01*
X167033333Y-116426800D02*
X166919047Y-116464895D01*
X166919047Y-116464895D02*
X166728571Y-116464895D01*
X167909523Y-115664895D02*
X167528571Y-115664895D01*
X167528571Y-115664895D02*
X167490475Y-116045847D01*
X167490475Y-116045847D02*
X167528571Y-116007752D01*
X167528571Y-116007752D02*
X167604761Y-115969657D01*
X167604761Y-115969657D02*
X167795237Y-115969657D01*
X167795237Y-115969657D02*
X167871428Y-116007752D01*
X167871428Y-116007752D02*
X167909523Y-116045847D01*
X167909523Y-116045847D02*
X167947618Y-116122038D01*
X167947618Y-116122038D02*
X167947618Y-116312514D01*
X167947618Y-116312514D02*
X167909523Y-116388704D01*
X167909523Y-116388704D02*
X167871428Y-116426800D01*
X167871428Y-116426800D02*
X167795237Y-116464895D01*
X167795237Y-116464895D02*
X167604761Y-116464895D01*
X167604761Y-116464895D02*
X167528571Y-116426800D01*
X167528571Y-116426800D02*
X167490475Y-116388704D01*
X168442857Y-115664895D02*
X168519047Y-115664895D01*
X168519047Y-115664895D02*
X168595238Y-115702990D01*
X168595238Y-115702990D02*
X168633333Y-115741085D01*
X168633333Y-115741085D02*
X168671428Y-115817276D01*
X168671428Y-115817276D02*
X168709523Y-115969657D01*
X168709523Y-115969657D02*
X168709523Y-116160133D01*
X168709523Y-116160133D02*
X168671428Y-116312514D01*
X168671428Y-116312514D02*
X168633333Y-116388704D01*
X168633333Y-116388704D02*
X168595238Y-116426800D01*
X168595238Y-116426800D02*
X168519047Y-116464895D01*
X168519047Y-116464895D02*
X168442857Y-116464895D01*
X168442857Y-116464895D02*
X168366666Y-116426800D01*
X168366666Y-116426800D02*
X168328571Y-116388704D01*
X168328571Y-116388704D02*
X168290476Y-116312514D01*
X168290476Y-116312514D02*
X168252380Y-116160133D01*
X168252380Y-116160133D02*
X168252380Y-115969657D01*
X168252380Y-115969657D02*
X168290476Y-115817276D01*
X168290476Y-115817276D02*
X168328571Y-115741085D01*
X168328571Y-115741085D02*
X168366666Y-115702990D01*
X168366666Y-115702990D02*
X168442857Y-115664895D01*
X166728571Y-122964895D02*
X166728571Y-122164895D01*
X166728571Y-122164895D02*
X166919047Y-122164895D01*
X166919047Y-122164895D02*
X167033333Y-122202990D01*
X167033333Y-122202990D02*
X167109523Y-122279180D01*
X167109523Y-122279180D02*
X167147618Y-122355371D01*
X167147618Y-122355371D02*
X167185714Y-122507752D01*
X167185714Y-122507752D02*
X167185714Y-122622038D01*
X167185714Y-122622038D02*
X167147618Y-122774419D01*
X167147618Y-122774419D02*
X167109523Y-122850609D01*
X167109523Y-122850609D02*
X167033333Y-122926800D01*
X167033333Y-122926800D02*
X166919047Y-122964895D01*
X166919047Y-122964895D02*
X166728571Y-122964895D01*
X167909523Y-122164895D02*
X167528571Y-122164895D01*
X167528571Y-122164895D02*
X167490475Y-122545847D01*
X167490475Y-122545847D02*
X167528571Y-122507752D01*
X167528571Y-122507752D02*
X167604761Y-122469657D01*
X167604761Y-122469657D02*
X167795237Y-122469657D01*
X167795237Y-122469657D02*
X167871428Y-122507752D01*
X167871428Y-122507752D02*
X167909523Y-122545847D01*
X167909523Y-122545847D02*
X167947618Y-122622038D01*
X167947618Y-122622038D02*
X167947618Y-122812514D01*
X167947618Y-122812514D02*
X167909523Y-122888704D01*
X167909523Y-122888704D02*
X167871428Y-122926800D01*
X167871428Y-122926800D02*
X167795237Y-122964895D01*
X167795237Y-122964895D02*
X167604761Y-122964895D01*
X167604761Y-122964895D02*
X167528571Y-122926800D01*
X167528571Y-122926800D02*
X167490475Y-122888704D01*
X168709523Y-122964895D02*
X168252380Y-122964895D01*
X168480952Y-122964895D02*
X168480952Y-122164895D01*
X168480952Y-122164895D02*
X168404761Y-122279180D01*
X168404761Y-122279180D02*
X168328571Y-122355371D01*
X168328571Y-122355371D02*
X168252380Y-122393466D01*
X166728571Y-110464895D02*
X166728571Y-109664895D01*
X166728571Y-109664895D02*
X166919047Y-109664895D01*
X166919047Y-109664895D02*
X167033333Y-109702990D01*
X167033333Y-109702990D02*
X167109523Y-109779180D01*
X167109523Y-109779180D02*
X167147618Y-109855371D01*
X167147618Y-109855371D02*
X167185714Y-110007752D01*
X167185714Y-110007752D02*
X167185714Y-110122038D01*
X167185714Y-110122038D02*
X167147618Y-110274419D01*
X167147618Y-110274419D02*
X167109523Y-110350609D01*
X167109523Y-110350609D02*
X167033333Y-110426800D01*
X167033333Y-110426800D02*
X166919047Y-110464895D01*
X166919047Y-110464895D02*
X166728571Y-110464895D01*
X167909523Y-109664895D02*
X167528571Y-109664895D01*
X167528571Y-109664895D02*
X167490475Y-110045847D01*
X167490475Y-110045847D02*
X167528571Y-110007752D01*
X167528571Y-110007752D02*
X167604761Y-109969657D01*
X167604761Y-109969657D02*
X167795237Y-109969657D01*
X167795237Y-109969657D02*
X167871428Y-110007752D01*
X167871428Y-110007752D02*
X167909523Y-110045847D01*
X167909523Y-110045847D02*
X167947618Y-110122038D01*
X167947618Y-110122038D02*
X167947618Y-110312514D01*
X167947618Y-110312514D02*
X167909523Y-110388704D01*
X167909523Y-110388704D02*
X167871428Y-110426800D01*
X167871428Y-110426800D02*
X167795237Y-110464895D01*
X167795237Y-110464895D02*
X167604761Y-110464895D01*
X167604761Y-110464895D02*
X167528571Y-110426800D01*
X167528571Y-110426800D02*
X167490475Y-110388704D01*
X168252380Y-109741085D02*
X168290476Y-109702990D01*
X168290476Y-109702990D02*
X168366666Y-109664895D01*
X168366666Y-109664895D02*
X168557142Y-109664895D01*
X168557142Y-109664895D02*
X168633333Y-109702990D01*
X168633333Y-109702990D02*
X168671428Y-109741085D01*
X168671428Y-109741085D02*
X168709523Y-109817276D01*
X168709523Y-109817276D02*
X168709523Y-109893466D01*
X168709523Y-109893466D02*
X168671428Y-110007752D01*
X168671428Y-110007752D02*
X168214285Y-110464895D01*
X168214285Y-110464895D02*
X168709523Y-110464895D01*
D14*
X111278571Y-127512295D02*
X110821428Y-127512295D01*
X111050000Y-127512295D02*
X111050000Y-126712295D01*
X111050000Y-126712295D02*
X110973809Y-126826580D01*
X110973809Y-126826580D02*
X110897619Y-126902771D01*
X110897619Y-126902771D02*
X110821428Y-126940866D01*
D16*
X186833855Y-42314285D02*
X186452902Y-42580952D01*
X186833855Y-42771428D02*
X186033855Y-42771428D01*
X186033855Y-42771428D02*
X186033855Y-42466666D01*
X186033855Y-42466666D02*
X186071950Y-42390476D01*
X186071950Y-42390476D02*
X186110045Y-42352381D01*
X186110045Y-42352381D02*
X186186236Y-42314285D01*
X186186236Y-42314285D02*
X186300521Y-42314285D01*
X186300521Y-42314285D02*
X186376712Y-42352381D01*
X186376712Y-42352381D02*
X186414807Y-42390476D01*
X186414807Y-42390476D02*
X186452902Y-42466666D01*
X186452902Y-42466666D02*
X186452902Y-42771428D01*
X186110045Y-42009524D02*
X186071950Y-41971428D01*
X186071950Y-41971428D02*
X186033855Y-41895238D01*
X186033855Y-41895238D02*
X186033855Y-41704762D01*
X186033855Y-41704762D02*
X186071950Y-41628571D01*
X186071950Y-41628571D02*
X186110045Y-41590476D01*
X186110045Y-41590476D02*
X186186236Y-41552381D01*
X186186236Y-41552381D02*
X186262426Y-41552381D01*
X186262426Y-41552381D02*
X186376712Y-41590476D01*
X186376712Y-41590476D02*
X186833855Y-42047619D01*
X186833855Y-42047619D02*
X186833855Y-41552381D01*
X186110045Y-41247619D02*
X186071950Y-41209523D01*
X186071950Y-41209523D02*
X186033855Y-41133333D01*
X186033855Y-41133333D02*
X186033855Y-40942857D01*
X186033855Y-40942857D02*
X186071950Y-40866666D01*
X186071950Y-40866666D02*
X186110045Y-40828571D01*
X186110045Y-40828571D02*
X186186236Y-40790476D01*
X186186236Y-40790476D02*
X186262426Y-40790476D01*
X186262426Y-40790476D02*
X186376712Y-40828571D01*
X186376712Y-40828571D02*
X186833855Y-41285714D01*
X186833855Y-41285714D02*
X186833855Y-40790476D01*
D14*
X111278571Y-108312295D02*
X110821428Y-108312295D01*
X111050000Y-108312295D02*
X111050000Y-107512295D01*
X111050000Y-107512295D02*
X110973809Y-107626580D01*
X110973809Y-107626580D02*
X110897619Y-107702771D01*
X110897619Y-107702771D02*
X110821428Y-107740866D01*
X82190476Y-31054819D02*
X82190476Y-30054819D01*
X82190476Y-30054819D02*
X82523809Y-30769104D01*
X82523809Y-30769104D02*
X82857142Y-30054819D01*
X82857142Y-30054819D02*
X82857142Y-31054819D01*
X83666666Y-30531009D02*
X83809523Y-30578628D01*
X83809523Y-30578628D02*
X83857142Y-30626247D01*
X83857142Y-30626247D02*
X83904761Y-30721485D01*
X83904761Y-30721485D02*
X83904761Y-30864342D01*
X83904761Y-30864342D02*
X83857142Y-30959580D01*
X83857142Y-30959580D02*
X83809523Y-31007200D01*
X83809523Y-31007200D02*
X83714285Y-31054819D01*
X83714285Y-31054819D02*
X83333333Y-31054819D01*
X83333333Y-31054819D02*
X83333333Y-30054819D01*
X83333333Y-30054819D02*
X83666666Y-30054819D01*
X83666666Y-30054819D02*
X83761904Y-30102438D01*
X83761904Y-30102438D02*
X83809523Y-30150057D01*
X83809523Y-30150057D02*
X83857142Y-30245295D01*
X83857142Y-30245295D02*
X83857142Y-30340533D01*
X83857142Y-30340533D02*
X83809523Y-30435771D01*
X83809523Y-30435771D02*
X83761904Y-30483390D01*
X83761904Y-30483390D02*
X83666666Y-30531009D01*
X83666666Y-30531009D02*
X83333333Y-30531009D01*
X84857142Y-31054819D02*
X84285714Y-31054819D01*
X84571428Y-31054819D02*
X84571428Y-30054819D01*
X84571428Y-30054819D02*
X84476190Y-30197676D01*
X84476190Y-30197676D02*
X84380952Y-30292914D01*
X84380952Y-30292914D02*
X84285714Y-30340533D01*
X85161905Y-116454819D02*
X85161905Y-115454819D01*
X85733333Y-116454819D02*
X85304762Y-115883390D01*
X85733333Y-115454819D02*
X85161905Y-116026247D01*
X86066667Y-115454819D02*
X86685714Y-115454819D01*
X86685714Y-115454819D02*
X86352381Y-115835771D01*
X86352381Y-115835771D02*
X86495238Y-115835771D01*
X86495238Y-115835771D02*
X86590476Y-115883390D01*
X86590476Y-115883390D02*
X86638095Y-115931009D01*
X86638095Y-115931009D02*
X86685714Y-116026247D01*
X86685714Y-116026247D02*
X86685714Y-116264342D01*
X86685714Y-116264342D02*
X86638095Y-116359580D01*
X86638095Y-116359580D02*
X86590476Y-116407200D01*
X86590476Y-116407200D02*
X86495238Y-116454819D01*
X86495238Y-116454819D02*
X86209524Y-116454819D01*
X86209524Y-116454819D02*
X86114286Y-116407200D01*
X86114286Y-116407200D02*
X86066667Y-116359580D01*
X111278571Y-74712295D02*
X110821428Y-74712295D01*
X111050000Y-74712295D02*
X111050000Y-73912295D01*
X111050000Y-73912295D02*
X110973809Y-74026580D01*
X110973809Y-74026580D02*
X110897619Y-74102771D01*
X110897619Y-74102771D02*
X110821428Y-74140866D01*
X143654819Y-51361904D02*
X144464342Y-51361904D01*
X144464342Y-51361904D02*
X144559580Y-51314285D01*
X144559580Y-51314285D02*
X144607200Y-51266666D01*
X144607200Y-51266666D02*
X144654819Y-51171428D01*
X144654819Y-51171428D02*
X144654819Y-50980952D01*
X144654819Y-50980952D02*
X144607200Y-50885714D01*
X144607200Y-50885714D02*
X144559580Y-50838095D01*
X144559580Y-50838095D02*
X144464342Y-50790476D01*
X144464342Y-50790476D02*
X143654819Y-50790476D01*
X144654819Y-49790476D02*
X144654819Y-50361904D01*
X144654819Y-50076190D02*
X143654819Y-50076190D01*
X143654819Y-50076190D02*
X143797676Y-50171428D01*
X143797676Y-50171428D02*
X143892914Y-50266666D01*
X143892914Y-50266666D02*
X143940533Y-50361904D01*
X134836666Y-33754819D02*
X134836666Y-34469104D01*
X134836666Y-34469104D02*
X134789047Y-34611961D01*
X134789047Y-34611961D02*
X134693809Y-34707200D01*
X134693809Y-34707200D02*
X134550952Y-34754819D01*
X134550952Y-34754819D02*
X134455714Y-34754819D01*
X135789047Y-33754819D02*
X135312857Y-33754819D01*
X135312857Y-33754819D02*
X135265238Y-34231009D01*
X135265238Y-34231009D02*
X135312857Y-34183390D01*
X135312857Y-34183390D02*
X135408095Y-34135771D01*
X135408095Y-34135771D02*
X135646190Y-34135771D01*
X135646190Y-34135771D02*
X135741428Y-34183390D01*
X135741428Y-34183390D02*
X135789047Y-34231009D01*
X135789047Y-34231009D02*
X135836666Y-34326247D01*
X135836666Y-34326247D02*
X135836666Y-34564342D01*
X135836666Y-34564342D02*
X135789047Y-34659580D01*
X135789047Y-34659580D02*
X135741428Y-34707200D01*
X135741428Y-34707200D02*
X135646190Y-34754819D01*
X135646190Y-34754819D02*
X135408095Y-34754819D01*
X135408095Y-34754819D02*
X135312857Y-34707200D01*
X135312857Y-34707200D02*
X135265238Y-34659580D01*
X111278571Y-45912295D02*
X110821428Y-45912295D01*
X111050000Y-45912295D02*
X111050000Y-45112295D01*
X111050000Y-45112295D02*
X110973809Y-45226580D01*
X110973809Y-45226580D02*
X110897619Y-45302771D01*
X110897619Y-45302771D02*
X110821428Y-45340866D01*
X111278571Y-55512295D02*
X110821428Y-55512295D01*
X111050000Y-55512295D02*
X111050000Y-54712295D01*
X111050000Y-54712295D02*
X110973809Y-54826580D01*
X110973809Y-54826580D02*
X110897619Y-54902771D01*
X110897619Y-54902771D02*
X110821428Y-54940866D01*
X159028571Y-71487295D02*
X158571428Y-71487295D01*
X158800000Y-71487295D02*
X158800000Y-70687295D01*
X158800000Y-70687295D02*
X158723809Y-70801580D01*
X158723809Y-70801580D02*
X158647619Y-70877771D01*
X158647619Y-70877771D02*
X158571428Y-70915866D01*
X111278571Y-93912295D02*
X110821428Y-93912295D01*
X111050000Y-93912295D02*
X111050000Y-93112295D01*
X111050000Y-93112295D02*
X110973809Y-93226580D01*
X110973809Y-93226580D02*
X110897619Y-93302771D01*
X110897619Y-93302771D02*
X110821428Y-93340866D01*
D11*
X142385714Y-35364895D02*
X142119047Y-34983942D01*
X141928571Y-35364895D02*
X141928571Y-34564895D01*
X141928571Y-34564895D02*
X142233333Y-34564895D01*
X142233333Y-34564895D02*
X142309523Y-34602990D01*
X142309523Y-34602990D02*
X142347618Y-34641085D01*
X142347618Y-34641085D02*
X142385714Y-34717276D01*
X142385714Y-34717276D02*
X142385714Y-34831561D01*
X142385714Y-34831561D02*
X142347618Y-34907752D01*
X142347618Y-34907752D02*
X142309523Y-34945847D01*
X142309523Y-34945847D02*
X142233333Y-34983942D01*
X142233333Y-34983942D02*
X141928571Y-34983942D01*
X142652380Y-34564895D02*
X143147618Y-34564895D01*
X143147618Y-34564895D02*
X142880952Y-34869657D01*
X142880952Y-34869657D02*
X142995237Y-34869657D01*
X142995237Y-34869657D02*
X143071428Y-34907752D01*
X143071428Y-34907752D02*
X143109523Y-34945847D01*
X143109523Y-34945847D02*
X143147618Y-35022038D01*
X143147618Y-35022038D02*
X143147618Y-35212514D01*
X143147618Y-35212514D02*
X143109523Y-35288704D01*
X143109523Y-35288704D02*
X143071428Y-35326800D01*
X143071428Y-35326800D02*
X142995237Y-35364895D01*
X142995237Y-35364895D02*
X142766666Y-35364895D01*
X142766666Y-35364895D02*
X142690475Y-35326800D01*
X142690475Y-35326800D02*
X142652380Y-35288704D01*
X143414285Y-34564895D02*
X143909523Y-34564895D01*
X143909523Y-34564895D02*
X143642857Y-34869657D01*
X143642857Y-34869657D02*
X143757142Y-34869657D01*
X143757142Y-34869657D02*
X143833333Y-34907752D01*
X143833333Y-34907752D02*
X143871428Y-34945847D01*
X143871428Y-34945847D02*
X143909523Y-35022038D01*
X143909523Y-35022038D02*
X143909523Y-35212514D01*
X143909523Y-35212514D02*
X143871428Y-35288704D01*
X143871428Y-35288704D02*
X143833333Y-35326800D01*
X143833333Y-35326800D02*
X143757142Y-35364895D01*
X143757142Y-35364895D02*
X143528571Y-35364895D01*
X143528571Y-35364895D02*
X143452380Y-35326800D01*
X143452380Y-35326800D02*
X143414285Y-35288704D01*
D16*
X186910714Y-46857664D02*
X186872618Y-46895760D01*
X186872618Y-46895760D02*
X186758333Y-46933855D01*
X186758333Y-46933855D02*
X186682142Y-46933855D01*
X186682142Y-46933855D02*
X186567856Y-46895760D01*
X186567856Y-46895760D02*
X186491666Y-46819569D01*
X186491666Y-46819569D02*
X186453571Y-46743379D01*
X186453571Y-46743379D02*
X186415475Y-46590998D01*
X186415475Y-46590998D02*
X186415475Y-46476712D01*
X186415475Y-46476712D02*
X186453571Y-46324331D01*
X186453571Y-46324331D02*
X186491666Y-46248140D01*
X186491666Y-46248140D02*
X186567856Y-46171950D01*
X186567856Y-46171950D02*
X186682142Y-46133855D01*
X186682142Y-46133855D02*
X186758333Y-46133855D01*
X186758333Y-46133855D02*
X186872618Y-46171950D01*
X186872618Y-46171950D02*
X186910714Y-46210045D01*
X187215475Y-46210045D02*
X187253571Y-46171950D01*
X187253571Y-46171950D02*
X187329761Y-46133855D01*
X187329761Y-46133855D02*
X187520237Y-46133855D01*
X187520237Y-46133855D02*
X187596428Y-46171950D01*
X187596428Y-46171950D02*
X187634523Y-46210045D01*
X187634523Y-46210045D02*
X187672618Y-46286236D01*
X187672618Y-46286236D02*
X187672618Y-46362426D01*
X187672618Y-46362426D02*
X187634523Y-46476712D01*
X187634523Y-46476712D02*
X187177380Y-46933855D01*
X187177380Y-46933855D02*
X187672618Y-46933855D01*
X187939285Y-46133855D02*
X188434523Y-46133855D01*
X188434523Y-46133855D02*
X188167857Y-46438617D01*
X188167857Y-46438617D02*
X188282142Y-46438617D01*
X188282142Y-46438617D02*
X188358333Y-46476712D01*
X188358333Y-46476712D02*
X188396428Y-46514807D01*
X188396428Y-46514807D02*
X188434523Y-46590998D01*
X188434523Y-46590998D02*
X188434523Y-46781474D01*
X188434523Y-46781474D02*
X188396428Y-46857664D01*
X188396428Y-46857664D02*
X188358333Y-46895760D01*
X188358333Y-46895760D02*
X188282142Y-46933855D01*
X188282142Y-46933855D02*
X188053571Y-46933855D01*
X188053571Y-46933855D02*
X187977380Y-46895760D01*
X187977380Y-46895760D02*
X187939285Y-46857664D01*
D14*
X180238095Y-57004819D02*
X180238095Y-57814342D01*
X180238095Y-57814342D02*
X180285714Y-57909580D01*
X180285714Y-57909580D02*
X180333333Y-57957200D01*
X180333333Y-57957200D02*
X180428571Y-58004819D01*
X180428571Y-58004819D02*
X180619047Y-58004819D01*
X180619047Y-58004819D02*
X180714285Y-57957200D01*
X180714285Y-57957200D02*
X180761904Y-57909580D01*
X180761904Y-57909580D02*
X180809523Y-57814342D01*
X180809523Y-57814342D02*
X180809523Y-57004819D01*
X181190476Y-57004819D02*
X181809523Y-57004819D01*
X181809523Y-57004819D02*
X181476190Y-57385771D01*
X181476190Y-57385771D02*
X181619047Y-57385771D01*
X181619047Y-57385771D02*
X181714285Y-57433390D01*
X181714285Y-57433390D02*
X181761904Y-57481009D01*
X181761904Y-57481009D02*
X181809523Y-57576247D01*
X181809523Y-57576247D02*
X181809523Y-57814342D01*
X181809523Y-57814342D02*
X181761904Y-57909580D01*
X181761904Y-57909580D02*
X181714285Y-57957200D01*
X181714285Y-57957200D02*
X181619047Y-58004819D01*
X181619047Y-58004819D02*
X181333333Y-58004819D01*
X181333333Y-58004819D02*
X181238095Y-57957200D01*
X181238095Y-57957200D02*
X181190476Y-57909580D01*
X149028571Y-61487295D02*
X148571428Y-61487295D01*
X148800000Y-61487295D02*
X148800000Y-60687295D01*
X148800000Y-60687295D02*
X148723809Y-60801580D01*
X148723809Y-60801580D02*
X148647619Y-60877771D01*
X148647619Y-60877771D02*
X148571428Y-60915866D01*
X111278571Y-98712295D02*
X110821428Y-98712295D01*
X111050000Y-98712295D02*
X111050000Y-97912295D01*
X111050000Y-97912295D02*
X110973809Y-98026580D01*
X110973809Y-98026580D02*
X110897619Y-98102771D01*
X110897619Y-98102771D02*
X110821428Y-98140866D01*
X111278571Y-50712295D02*
X110821428Y-50712295D01*
X111050000Y-50712295D02*
X111050000Y-49912295D01*
X111050000Y-49912295D02*
X110973809Y-50026580D01*
X110973809Y-50026580D02*
X110897619Y-50102771D01*
X110897619Y-50102771D02*
X110821428Y-50140866D01*
X111278571Y-69912295D02*
X110821428Y-69912295D01*
X111050000Y-69912295D02*
X111050000Y-69112295D01*
X111050000Y-69112295D02*
X110973809Y-69226580D01*
X110973809Y-69226580D02*
X110897619Y-69302771D01*
X110897619Y-69302771D02*
X110821428Y-69340866D01*
X183316666Y-79239819D02*
X183316666Y-79954104D01*
X183316666Y-79954104D02*
X183269047Y-80096961D01*
X183269047Y-80096961D02*
X183173809Y-80192200D01*
X183173809Y-80192200D02*
X183030952Y-80239819D01*
X183030952Y-80239819D02*
X182935714Y-80239819D01*
X184316666Y-80239819D02*
X183745238Y-80239819D01*
X184030952Y-80239819D02*
X184030952Y-79239819D01*
X184030952Y-79239819D02*
X183935714Y-79382676D01*
X183935714Y-79382676D02*
X183840476Y-79477914D01*
X183840476Y-79477914D02*
X183745238Y-79525533D01*
X183316666Y-96239819D02*
X183316666Y-96954104D01*
X183316666Y-96954104D02*
X183269047Y-97096961D01*
X183269047Y-97096961D02*
X183173809Y-97192200D01*
X183173809Y-97192200D02*
X183030952Y-97239819D01*
X183030952Y-97239819D02*
X182935714Y-97239819D01*
X183745238Y-96335057D02*
X183792857Y-96287438D01*
X183792857Y-96287438D02*
X183888095Y-96239819D01*
X183888095Y-96239819D02*
X184126190Y-96239819D01*
X184126190Y-96239819D02*
X184221428Y-96287438D01*
X184221428Y-96287438D02*
X184269047Y-96335057D01*
X184269047Y-96335057D02*
X184316666Y-96430295D01*
X184316666Y-96430295D02*
X184316666Y-96525533D01*
X184316666Y-96525533D02*
X184269047Y-96668390D01*
X184269047Y-96668390D02*
X183697619Y-97239819D01*
X183697619Y-97239819D02*
X184316666Y-97239819D01*
X111278571Y-65112295D02*
X110821428Y-65112295D01*
X111050000Y-65112295D02*
X111050000Y-64312295D01*
X111050000Y-64312295D02*
X110973809Y-64426580D01*
X110973809Y-64426580D02*
X110897619Y-64502771D01*
X110897619Y-64502771D02*
X110821428Y-64540866D01*
X111278571Y-132312295D02*
X110821428Y-132312295D01*
X111050000Y-132312295D02*
X111050000Y-131512295D01*
X111050000Y-131512295D02*
X110973809Y-131626580D01*
X110973809Y-131626580D02*
X110897619Y-131702771D01*
X110897619Y-131702771D02*
X110821428Y-131740866D01*
X135766667Y-72643200D02*
X135909524Y-72690819D01*
X135909524Y-72690819D02*
X136147619Y-72690819D01*
X136147619Y-72690819D02*
X136242857Y-72643200D01*
X136242857Y-72643200D02*
X136290476Y-72595580D01*
X136290476Y-72595580D02*
X136338095Y-72500342D01*
X136338095Y-72500342D02*
X136338095Y-72405104D01*
X136338095Y-72405104D02*
X136290476Y-72309866D01*
X136290476Y-72309866D02*
X136242857Y-72262247D01*
X136242857Y-72262247D02*
X136147619Y-72214628D01*
X136147619Y-72214628D02*
X135957143Y-72167009D01*
X135957143Y-72167009D02*
X135861905Y-72119390D01*
X135861905Y-72119390D02*
X135814286Y-72071771D01*
X135814286Y-72071771D02*
X135766667Y-71976533D01*
X135766667Y-71976533D02*
X135766667Y-71881295D01*
X135766667Y-71881295D02*
X135814286Y-71786057D01*
X135814286Y-71786057D02*
X135861905Y-71738438D01*
X135861905Y-71738438D02*
X135957143Y-71690819D01*
X135957143Y-71690819D02*
X136195238Y-71690819D01*
X136195238Y-71690819D02*
X136338095Y-71738438D01*
X136671429Y-71690819D02*
X136909524Y-72690819D01*
X136909524Y-72690819D02*
X137100000Y-71976533D01*
X137100000Y-71976533D02*
X137290476Y-72690819D01*
X137290476Y-72690819D02*
X137528572Y-71690819D01*
X138433333Y-72690819D02*
X137861905Y-72690819D01*
X138147619Y-72690819D02*
X138147619Y-71690819D01*
X138147619Y-71690819D02*
X138052381Y-71833676D01*
X138052381Y-71833676D02*
X137957143Y-71928914D01*
X137957143Y-71928914D02*
X137861905Y-71976533D01*
X111278571Y-122712295D02*
X110821428Y-122712295D01*
X111050000Y-122712295D02*
X111050000Y-121912295D01*
X111050000Y-121912295D02*
X110973809Y-122026580D01*
X110973809Y-122026580D02*
X110897619Y-122102771D01*
X110897619Y-122102771D02*
X110821428Y-122140866D01*
D16*
X183685714Y-34357664D02*
X183647618Y-34395760D01*
X183647618Y-34395760D02*
X183533333Y-34433855D01*
X183533333Y-34433855D02*
X183457142Y-34433855D01*
X183457142Y-34433855D02*
X183342856Y-34395760D01*
X183342856Y-34395760D02*
X183266666Y-34319569D01*
X183266666Y-34319569D02*
X183228571Y-34243379D01*
X183228571Y-34243379D02*
X183190475Y-34090998D01*
X183190475Y-34090998D02*
X183190475Y-33976712D01*
X183190475Y-33976712D02*
X183228571Y-33824331D01*
X183228571Y-33824331D02*
X183266666Y-33748140D01*
X183266666Y-33748140D02*
X183342856Y-33671950D01*
X183342856Y-33671950D02*
X183457142Y-33633855D01*
X183457142Y-33633855D02*
X183533333Y-33633855D01*
X183533333Y-33633855D02*
X183647618Y-33671950D01*
X183647618Y-33671950D02*
X183685714Y-33710045D01*
X183990475Y-33710045D02*
X184028571Y-33671950D01*
X184028571Y-33671950D02*
X184104761Y-33633855D01*
X184104761Y-33633855D02*
X184295237Y-33633855D01*
X184295237Y-33633855D02*
X184371428Y-33671950D01*
X184371428Y-33671950D02*
X184409523Y-33710045D01*
X184409523Y-33710045D02*
X184447618Y-33786236D01*
X184447618Y-33786236D02*
X184447618Y-33862426D01*
X184447618Y-33862426D02*
X184409523Y-33976712D01*
X184409523Y-33976712D02*
X183952380Y-34433855D01*
X183952380Y-34433855D02*
X184447618Y-34433855D01*
X184752380Y-33710045D02*
X184790476Y-33671950D01*
X184790476Y-33671950D02*
X184866666Y-33633855D01*
X184866666Y-33633855D02*
X185057142Y-33633855D01*
X185057142Y-33633855D02*
X185133333Y-33671950D01*
X185133333Y-33671950D02*
X185171428Y-33710045D01*
X185171428Y-33710045D02*
X185209523Y-33786236D01*
X185209523Y-33786236D02*
X185209523Y-33862426D01*
X185209523Y-33862426D02*
X185171428Y-33976712D01*
X185171428Y-33976712D02*
X184714285Y-34433855D01*
X184714285Y-34433855D02*
X185209523Y-34433855D01*
D14*
X149028571Y-71487295D02*
X148571428Y-71487295D01*
X148800000Y-71487295D02*
X148800000Y-70687295D01*
X148800000Y-70687295D02*
X148723809Y-70801580D01*
X148723809Y-70801580D02*
X148647619Y-70877771D01*
X148647619Y-70877771D02*
X148571428Y-70915866D01*
X84761905Y-74654819D02*
X84761905Y-73654819D01*
X85333333Y-74654819D02*
X84904762Y-74083390D01*
X85333333Y-73654819D02*
X84761905Y-74226247D01*
X86285714Y-74654819D02*
X85714286Y-74654819D01*
X86000000Y-74654819D02*
X86000000Y-73654819D01*
X86000000Y-73654819D02*
X85904762Y-73797676D01*
X85904762Y-73797676D02*
X85809524Y-73892914D01*
X85809524Y-73892914D02*
X85714286Y-73940533D01*
D16*
X187333855Y-51714285D02*
X186952902Y-51980952D01*
X187333855Y-52171428D02*
X186533855Y-52171428D01*
X186533855Y-52171428D02*
X186533855Y-51866666D01*
X186533855Y-51866666D02*
X186571950Y-51790476D01*
X186571950Y-51790476D02*
X186610045Y-51752381D01*
X186610045Y-51752381D02*
X186686236Y-51714285D01*
X186686236Y-51714285D02*
X186800521Y-51714285D01*
X186800521Y-51714285D02*
X186876712Y-51752381D01*
X186876712Y-51752381D02*
X186914807Y-51790476D01*
X186914807Y-51790476D02*
X186952902Y-51866666D01*
X186952902Y-51866666D02*
X186952902Y-52171428D01*
X186610045Y-51409524D02*
X186571950Y-51371428D01*
X186571950Y-51371428D02*
X186533855Y-51295238D01*
X186533855Y-51295238D02*
X186533855Y-51104762D01*
X186533855Y-51104762D02*
X186571950Y-51028571D01*
X186571950Y-51028571D02*
X186610045Y-50990476D01*
X186610045Y-50990476D02*
X186686236Y-50952381D01*
X186686236Y-50952381D02*
X186762426Y-50952381D01*
X186762426Y-50952381D02*
X186876712Y-50990476D01*
X186876712Y-50990476D02*
X187333855Y-51447619D01*
X187333855Y-51447619D02*
X187333855Y-50952381D01*
X186533855Y-50685714D02*
X186533855Y-50190476D01*
X186533855Y-50190476D02*
X186838617Y-50457142D01*
X186838617Y-50457142D02*
X186838617Y-50342857D01*
X186838617Y-50342857D02*
X186876712Y-50266666D01*
X186876712Y-50266666D02*
X186914807Y-50228571D01*
X186914807Y-50228571D02*
X186990998Y-50190476D01*
X186990998Y-50190476D02*
X187181474Y-50190476D01*
X187181474Y-50190476D02*
X187257664Y-50228571D01*
X187257664Y-50228571D02*
X187295760Y-50266666D01*
X187295760Y-50266666D02*
X187333855Y-50342857D01*
X187333855Y-50342857D02*
X187333855Y-50571428D01*
X187333855Y-50571428D02*
X187295760Y-50647619D01*
X187295760Y-50647619D02*
X187257664Y-50685714D01*
D14*
X159028571Y-61487295D02*
X158571428Y-61487295D01*
X158800000Y-61487295D02*
X158800000Y-60687295D01*
X158800000Y-60687295D02*
X158723809Y-60801580D01*
X158723809Y-60801580D02*
X158647619Y-60877771D01*
X158647619Y-60877771D02*
X158571428Y-60915866D01*
X84761905Y-96454819D02*
X84761905Y-95454819D01*
X85333333Y-96454819D02*
X84904762Y-95883390D01*
X85333333Y-95454819D02*
X84761905Y-96026247D01*
X85714286Y-95550057D02*
X85761905Y-95502438D01*
X85761905Y-95502438D02*
X85857143Y-95454819D01*
X85857143Y-95454819D02*
X86095238Y-95454819D01*
X86095238Y-95454819D02*
X86190476Y-95502438D01*
X86190476Y-95502438D02*
X86238095Y-95550057D01*
X86238095Y-95550057D02*
X86285714Y-95645295D01*
X86285714Y-95645295D02*
X86285714Y-95740533D01*
X86285714Y-95740533D02*
X86238095Y-95883390D01*
X86238095Y-95883390D02*
X85666667Y-96454819D01*
X85666667Y-96454819D02*
X86285714Y-96454819D01*
X111278571Y-60312295D02*
X110821428Y-60312295D01*
X111050000Y-60312295D02*
X111050000Y-59512295D01*
X111050000Y-59512295D02*
X110973809Y-59626580D01*
X110973809Y-59626580D02*
X110897619Y-59702771D01*
X110897619Y-59702771D02*
X110821428Y-59740866D01*
X111278571Y-117912295D02*
X110821428Y-117912295D01*
X111050000Y-117912295D02*
X111050000Y-117112295D01*
X111050000Y-117112295D02*
X110973809Y-117226580D01*
X110973809Y-117226580D02*
X110897619Y-117302771D01*
X110897619Y-117302771D02*
X110821428Y-117340866D01*
X111278571Y-89112295D02*
X110821428Y-89112295D01*
X111050000Y-89112295D02*
X111050000Y-88312295D01*
X111050000Y-88312295D02*
X110973809Y-88426580D01*
X110973809Y-88426580D02*
X110897619Y-88502771D01*
X110897619Y-88502771D02*
X110821428Y-88540866D01*
X111278571Y-113112295D02*
X110821428Y-113112295D01*
X111050000Y-113112295D02*
X111050000Y-112312295D01*
X111050000Y-112312295D02*
X110973809Y-112426580D01*
X110973809Y-112426580D02*
X110897619Y-112502771D01*
X110897619Y-112502771D02*
X110821428Y-112540866D01*
X111278571Y-84312295D02*
X110821428Y-84312295D01*
X111050000Y-84312295D02*
X111050000Y-83512295D01*
X111050000Y-83512295D02*
X110973809Y-83626580D01*
X110973809Y-83626580D02*
X110897619Y-83702771D01*
X110897619Y-83702771D02*
X110821428Y-83740866D01*
X111278571Y-79512295D02*
X110821428Y-79512295D01*
X111050000Y-79512295D02*
X111050000Y-78712295D01*
X111050000Y-78712295D02*
X110973809Y-78826580D01*
X110973809Y-78826580D02*
X110897619Y-78902771D01*
X110897619Y-78902771D02*
X110821428Y-78940866D01*
X111278571Y-41112295D02*
X110821428Y-41112295D01*
X111050000Y-41112295D02*
X111050000Y-40312295D01*
X111050000Y-40312295D02*
X110973809Y-40426580D01*
X110973809Y-40426580D02*
X110897619Y-40502771D01*
X110897619Y-40502771D02*
X110821428Y-40540866D01*
G04 #@! TO.C,C81*
D16*
X121109420Y-122715000D02*
X121390580Y-122715000D01*
X121109420Y-123735000D02*
X121390580Y-123735000D01*
G04 #@! TO.C,U4*
X143440000Y-101940000D02*
X147560000Y-101940000D01*
X143440000Y-102035000D02*
X143440000Y-101940000D01*
X143440000Y-107060000D02*
X143440000Y-106965000D01*
X147560000Y-101940000D02*
X147560000Y-102035000D01*
X147560000Y-106965000D02*
X147560000Y-107060000D01*
X147560000Y-107060000D02*
X143440000Y-107060000D01*
X142900000Y-102030000D02*
X142660000Y-101700000D01*
X143140000Y-101700000D01*
X142900000Y-102030000D01*
G36*
X142900000Y-102030000D02*
G01*
X142660000Y-101700000D01*
X143140000Y-101700000D01*
X142900000Y-102030000D01*
G37*
G04 #@! TO.C,C62*
X156584420Y-60490000D02*
X156865580Y-60490000D01*
X156584420Y-61510000D02*
X156865580Y-61510000D01*
G04 #@! TO.C,U5*
X99590000Y-40150000D02*
X99590000Y-43910000D01*
X99590000Y-43910000D02*
X100850000Y-43910000D01*
X106410000Y-40150000D02*
X106410000Y-43910000D01*
X106410000Y-43910000D02*
X105150000Y-43910000D01*
X106310000Y-38870000D02*
X106640000Y-38630000D01*
X106640000Y-39110000D01*
X106310000Y-38870000D01*
G36*
X106640000Y-39110000D02*
G01*
X106310000Y-38870000D01*
X106640000Y-38630000D01*
X106640000Y-39110000D01*
G37*
G04 #@! TO.C,D77*
X111450000Y-102025000D02*
X111450000Y-106025000D01*
X111450000Y-102025000D02*
X117050000Y-102025000D01*
X111450000Y-106025000D02*
X116450000Y-106025000D01*
X117050000Y-105425000D02*
X116450000Y-106025000D01*
X117050000Y-105425000D02*
X117050000Y-102025000D01*
G04 #@! TO.C,R90*
X126762742Y-42977500D02*
X127237258Y-42977500D01*
X126762742Y-44022500D02*
X127237258Y-44022500D01*
G04 #@! TO.C,X1*
X37700000Y-43300000D02*
X37700000Y-60500000D01*
X40100000Y-43300000D02*
X37700000Y-43300000D01*
X40100000Y-60500000D02*
X37700000Y-60500000D01*
X40100000Y-43300000D02*
X49700000Y-43300000D01*
X49700000Y-60500000D01*
X40100000Y-60500000D01*
X40100000Y-43300000D01*
G04 #@! TO.C,F1*
X54060000Y-48030000D02*
X59140000Y-48030000D01*
X54060000Y-48800000D02*
X54060000Y-48030000D01*
X54060000Y-53030000D02*
X54060000Y-51400000D01*
X54060000Y-66600000D02*
X54060000Y-64970000D01*
X54060000Y-69200000D02*
X54060000Y-69970000D01*
X54100000Y-64970000D02*
X54100000Y-53030000D01*
X59100000Y-64970000D02*
X59100000Y-53030000D01*
X59140000Y-48800000D02*
X59140000Y-48030000D01*
X59140000Y-53030000D02*
X54060000Y-53030000D01*
X59140000Y-53030000D02*
X59140000Y-51400000D01*
X59140000Y-64970000D02*
X54060000Y-64970000D01*
X59140000Y-66600000D02*
X59140000Y-64970000D01*
X59140000Y-69200000D02*
X59140000Y-69970000D01*
X59140000Y-69970000D02*
X54060000Y-69970000D01*
G04 #@! TO.C,PSU1*
X63290000Y-47440000D02*
X104510000Y-47440000D01*
X63290000Y-57004000D02*
X63290000Y-47440000D01*
X63290000Y-73160000D02*
X63290000Y-57596000D01*
X104510000Y-47440000D02*
X104510000Y-73160000D01*
X104510000Y-73160000D02*
X63290000Y-73160000D01*
X63290000Y-57300000D02*
X62680000Y-57740000D01*
X62680000Y-56860000D01*
X63290000Y-57300000D01*
G36*
X63290000Y-57300000D02*
G01*
X62680000Y-57740000D01*
X62680000Y-56860000D01*
X63290000Y-57300000D01*
G37*
G04 #@! TO.C,X2*
X37400000Y-83480000D02*
X37400000Y-100680000D01*
X39800000Y-83480000D02*
X37400000Y-83480000D01*
X39800000Y-100680000D02*
X37400000Y-100680000D01*
X39800000Y-83480000D02*
X49400000Y-83480000D01*
X49400000Y-100680000D01*
X39800000Y-100680000D01*
X39800000Y-83480000D01*
G04 #@! TO.C,X3*
X37500000Y-105320000D02*
X37500000Y-127720000D01*
X39900000Y-105320000D02*
X37500000Y-105320000D01*
X39900000Y-127720000D02*
X37500000Y-127720000D01*
X39900000Y-105320000D02*
X49500000Y-105320000D01*
X49500000Y-127720000D01*
X39900000Y-127720000D01*
X39900000Y-105320000D01*
G04 #@! TO.C,X4*
X190800000Y-41000000D02*
X198800000Y-41000000D01*
X198800000Y-49000000D01*
X190800000Y-49000000D01*
X190800000Y-41000000D01*
G04 #@! TO.C,X5*
X190800000Y-49500000D02*
X198800000Y-49500000D01*
X198800000Y-57500000D01*
X190800000Y-57500000D01*
X190800000Y-49500000D01*
G04 #@! TO.C,J3*
X190800000Y-58500000D02*
X198800000Y-58500000D01*
X198800000Y-70500000D01*
X190800000Y-70500000D01*
X190800000Y-58500000D01*
G04 #@! TO.C,J4*
X190800000Y-106000000D02*
X198800000Y-106000000D01*
X198800000Y-118000000D01*
X190800000Y-118000000D01*
X190800000Y-106000000D01*
G04 #@! TO.C,R1*
X176737258Y-131477500D02*
X176262742Y-131477500D01*
X176737258Y-132522500D02*
X176262742Y-132522500D01*
G04 #@! TO.C,R2*
X183937258Y-131477500D02*
X183462742Y-131477500D01*
X183937258Y-132522500D02*
X183462742Y-132522500D01*
G04 #@! TO.C,R3*
X171737258Y-101477500D02*
X171262742Y-101477500D01*
X171737258Y-102522500D02*
X171262742Y-102522500D01*
G04 #@! TO.C,JP1*
X174720000Y-97630000D02*
X174720000Y-92440000D01*
X177480000Y-92440000D02*
X174720000Y-92440000D01*
X177480000Y-97630000D02*
X174720000Y-97630000D01*
X177480000Y-97630000D02*
X177480000Y-92440000D01*
X177480000Y-98900000D02*
X177480000Y-100280000D01*
X177480000Y-100280000D02*
X176100000Y-100280000D01*
G04 #@! TO.C,R40*
X74227064Y-40090000D02*
X72772936Y-40090000D01*
X74227064Y-41910000D02*
X72772936Y-41910000D01*
G04 #@! TO.C,F2*
X172386252Y-86790000D02*
X169613748Y-86790000D01*
X172386252Y-90210000D02*
X169613748Y-90210000D01*
G04 #@! TO.C,D4*
X131640000Y-134800000D02*
X131640000Y-136800000D01*
X131640000Y-134800000D02*
X135650000Y-134800000D01*
X131640000Y-136800000D02*
X135650000Y-136800000D01*
G04 #@! TO.C,R4*
X98987742Y-77777500D02*
X99462258Y-77777500D01*
X98987742Y-78822500D02*
X99462258Y-78822500D01*
G04 #@! TO.C,R7*
X103787742Y-77777500D02*
X104262258Y-77777500D01*
X103787742Y-78822500D02*
X104262258Y-78822500D01*
G04 #@! TO.C,Q1*
X104340000Y-79940000D02*
X105860000Y-79940000D01*
X104340000Y-79990000D02*
X104340000Y-79940000D01*
X104340000Y-81890000D02*
X104340000Y-81110000D01*
X104340000Y-83060000D02*
X104340000Y-83010000D01*
X105860000Y-79940000D02*
X105860000Y-80940000D01*
X105860000Y-82060000D02*
X105860000Y-83060000D01*
X105860000Y-83060000D02*
X104340000Y-83060000D01*
X103800000Y-81120000D02*
X104040000Y-81450000D01*
X103560000Y-81450000D01*
X103800000Y-81120000D01*
G36*
X104040000Y-81450000D02*
G01*
X103560000Y-81450000D01*
X103800000Y-81120000D01*
X104040000Y-81450000D01*
G37*
G04 #@! TO.C,D1*
X97440000Y-80800000D02*
X97440000Y-82800000D01*
X97440000Y-80800000D02*
X101450000Y-80800000D01*
X97440000Y-82800000D02*
X101450000Y-82800000D01*
G04 #@! TO.C,R10*
X98862742Y-84777500D02*
X99337258Y-84777500D01*
X98862742Y-85822500D02*
X99337258Y-85822500D01*
G04 #@! TO.C,D10*
X103615000Y-84565000D02*
X103615000Y-86035000D01*
X103615000Y-86035000D02*
X105900000Y-86035000D01*
X105900000Y-84565000D02*
X103615000Y-84565000D01*
G04 #@! TO.C,R5*
X99562742Y-99477500D02*
X100037258Y-99477500D01*
X99562742Y-100522500D02*
X100037258Y-100522500D01*
G04 #@! TO.C,R8*
X104562742Y-99477500D02*
X105037258Y-99477500D01*
X104562742Y-100522500D02*
X105037258Y-100522500D01*
G04 #@! TO.C,Q2*
X104302500Y-102640000D02*
X105822500Y-102640000D01*
X104302500Y-102690000D02*
X104302500Y-102640000D01*
X104302500Y-104590000D02*
X104302500Y-103810000D01*
X104302500Y-105760000D02*
X104302500Y-105710000D01*
X105822500Y-102640000D02*
X105822500Y-103640000D01*
X105822500Y-104760000D02*
X105822500Y-105760000D01*
X105822500Y-105760000D02*
X104302500Y-105760000D01*
X103762500Y-103820000D02*
X104002500Y-104150000D01*
X103522500Y-104150000D01*
X103762500Y-103820000D01*
G36*
X104002500Y-104150000D02*
G01*
X103522500Y-104150000D01*
X103762500Y-103820000D01*
X104002500Y-104150000D01*
G37*
G04 #@! TO.C,D2*
X97640000Y-103000000D02*
X97640000Y-105000000D01*
X97640000Y-103000000D02*
X101650000Y-103000000D01*
X97640000Y-105000000D02*
X101650000Y-105000000D01*
G04 #@! TO.C,R11*
X99037742Y-107577500D02*
X99512258Y-107577500D01*
X99037742Y-108622500D02*
X99512258Y-108622500D01*
G04 #@! TO.C,D11*
X103790000Y-107365000D02*
X103790000Y-108835000D01*
X103790000Y-108835000D02*
X106075000Y-108835000D01*
X106075000Y-107365000D02*
X103790000Y-107365000D01*
G04 #@! TO.C,R6*
X98962742Y-119777500D02*
X99437258Y-119777500D01*
X98962742Y-120822500D02*
X99437258Y-120822500D01*
G04 #@! TO.C,R9*
X104962742Y-119777500D02*
X105437258Y-119777500D01*
X104962742Y-120822500D02*
X105437258Y-120822500D01*
G04 #@! TO.C,Q3*
X104402500Y-123440000D02*
X105922500Y-123440000D01*
X104402500Y-123490000D02*
X104402500Y-123440000D01*
X104402500Y-125390000D02*
X104402500Y-124610000D01*
X104402500Y-126560000D02*
X104402500Y-126510000D01*
X105922500Y-123440000D02*
X105922500Y-124440000D01*
X105922500Y-125560000D02*
X105922500Y-126560000D01*
X105922500Y-126560000D02*
X104402500Y-126560000D01*
X103862500Y-124620000D02*
X104102500Y-124950000D01*
X103622500Y-124950000D01*
X103862500Y-124620000D01*
G36*
X104102500Y-124950000D02*
G01*
X103622500Y-124950000D01*
X103862500Y-124620000D01*
X104102500Y-124950000D01*
G37*
G04 #@! TO.C,D3*
X97040000Y-124000000D02*
X97040000Y-126000000D01*
X97040000Y-124000000D02*
X101050000Y-124000000D01*
X97040000Y-126000000D02*
X101050000Y-126000000D01*
G04 #@! TO.C,R12*
X98937742Y-129177500D02*
X99412258Y-129177500D01*
X98937742Y-130222500D02*
X99412258Y-130222500D01*
G04 #@! TO.C,D12*
X103540000Y-128965000D02*
X103540000Y-130435000D01*
X103540000Y-130435000D02*
X105825000Y-130435000D01*
X105825000Y-128965000D02*
X103540000Y-128965000D01*
G04 #@! TO.C,R20*
X169562742Y-74977500D02*
X170037258Y-74977500D01*
X169562742Y-76022500D02*
X170037258Y-76022500D01*
G04 #@! TO.C,D20*
X173315000Y-74665000D02*
X173315000Y-76135000D01*
X173315000Y-76135000D02*
X175600000Y-76135000D01*
X175600000Y-74665000D02*
X173315000Y-74665000D01*
G04 #@! TO.C,R21*
X169462742Y-79577500D02*
X169937258Y-79577500D01*
X169462742Y-80622500D02*
X169937258Y-80622500D01*
G04 #@! TO.C,D21*
X173415000Y-79465000D02*
X173415000Y-80935000D01*
X173415000Y-80935000D02*
X175700000Y-80935000D01*
X175700000Y-79465000D02*
X173415000Y-79465000D01*
G04 #@! TO.C,R30*
X158062742Y-98477500D02*
X158537258Y-98477500D01*
X158062742Y-99522500D02*
X158537258Y-99522500D01*
G04 #@! TO.C,D30*
X163215000Y-98265000D02*
X163215000Y-99735000D01*
X163215000Y-99735000D02*
X165500000Y-99735000D01*
X165500000Y-98265000D02*
X163215000Y-98265000D01*
G04 #@! TO.C,R31*
X157962742Y-102977500D02*
X158437258Y-102977500D01*
X157962742Y-104022500D02*
X158437258Y-104022500D01*
G04 #@! TO.C,D31*
X163215000Y-102765000D02*
X163215000Y-104235000D01*
X163215000Y-104235000D02*
X165500000Y-104235000D01*
X165500000Y-102765000D02*
X163215000Y-102765000D01*
G04 #@! TO.C,R32*
X168462742Y-131477500D02*
X168937258Y-131477500D01*
X168462742Y-132522500D02*
X168937258Y-132522500D01*
G04 #@! TO.C,R41*
X69227064Y-40090000D02*
X67772936Y-40090000D01*
X69227064Y-41910000D02*
X67772936Y-41910000D01*
G04 #@! TO.C,D40*
X61540000Y-41500000D02*
X61540000Y-44185000D01*
X61540000Y-44185000D02*
X63460000Y-44185000D01*
X63460000Y-44185000D02*
X63460000Y-41500000D01*
G04 #@! TO.C,D41*
X56000000Y-40140000D02*
X56000000Y-44150000D01*
X58000000Y-40140000D02*
X56000000Y-40140000D01*
X58000000Y-40140000D02*
X58000000Y-44150000D01*
G04 #@! TO.C,RV1*
D14*
X42550000Y-62950000D02*
X42550000Y-74950000D01*
X46450000Y-62950000D02*
X42550000Y-62950000D01*
X46450000Y-62950000D02*
X46450000Y-74950000D01*
X46450000Y-74950000D02*
X42550000Y-74950000D01*
G04 #@! TO.C,D50*
D16*
X165340000Y-117500000D02*
X165340000Y-119500000D01*
X165340000Y-117500000D02*
X169350000Y-117500000D01*
X165340000Y-119500000D02*
X169350000Y-119500000D01*
G04 #@! TO.C,D51*
X165340000Y-124000000D02*
X165340000Y-126000000D01*
X165340000Y-124000000D02*
X169350000Y-124000000D01*
X165340000Y-126000000D02*
X169350000Y-126000000D01*
G04 #@! TO.C,D52*
X165340000Y-111500000D02*
X165340000Y-113500000D01*
X165340000Y-111500000D02*
X169350000Y-111500000D01*
X165340000Y-113500000D02*
X169350000Y-113500000D01*
G04 #@! TO.C,D82*
X111450000Y-126025000D02*
X111450000Y-130025000D01*
X111450000Y-126025000D02*
X117050000Y-126025000D01*
X111450000Y-130025000D02*
X116450000Y-130025000D01*
X117050000Y-129425000D02*
X116450000Y-130025000D01*
X117050000Y-129425000D02*
X117050000Y-126025000D01*
G04 #@! TO.C,R22*
X187377500Y-42037258D02*
X187377500Y-41562742D01*
X188422500Y-42037258D02*
X188422500Y-41562742D01*
G04 #@! TO.C,C71*
X121109420Y-74715000D02*
X121390580Y-74715000D01*
X121109420Y-75735000D02*
X121390580Y-75735000D01*
G04 #@! TO.C,C72*
X121109420Y-79515000D02*
X121390580Y-79515000D01*
X121109420Y-80535000D02*
X121390580Y-80535000D01*
G04 #@! TO.C,D78*
X111450000Y-106825000D02*
X111450000Y-110825000D01*
X111450000Y-106825000D02*
X117050000Y-106825000D01*
X111450000Y-110825000D02*
X116450000Y-110825000D01*
X117050000Y-110225000D02*
X116450000Y-110825000D01*
X117050000Y-110225000D02*
X117050000Y-106825000D01*
G04 #@! TO.C,K3*
X69600000Y-117200000D02*
X89400000Y-117200000D01*
X69600000Y-132800000D02*
X69600000Y-117200000D01*
X73850000Y-120800000D02*
X73850000Y-123250000D01*
X73850000Y-129200000D02*
X73850000Y-126700000D01*
X77050000Y-124950000D02*
X72450000Y-127450000D01*
X78550000Y-121350000D02*
X85350000Y-121350000D01*
X78550000Y-124950000D02*
X77050000Y-124950000D01*
X78550000Y-124950000D02*
X78550000Y-121350000D01*
X79950000Y-123150000D02*
X83950000Y-123150000D01*
X79950000Y-123150000D02*
X83950000Y-126750000D01*
X79950000Y-126750000D02*
X79950000Y-123150000D01*
X81950000Y-123150000D02*
X81950000Y-118950000D01*
X81950000Y-130950000D02*
X81950000Y-126750000D01*
X81950000Y-130950000D02*
X84450000Y-130950000D01*
X83950000Y-123150000D02*
X83950000Y-126750000D01*
X83950000Y-126750000D02*
X79950000Y-126750000D01*
X84450000Y-118950000D02*
X81950000Y-118950000D01*
X85350000Y-124950000D02*
X85350000Y-121350000D01*
X85350000Y-124950000D02*
X86150000Y-124950000D01*
X89400000Y-123800000D02*
X89400000Y-117200000D01*
X89400000Y-132800000D02*
X69600000Y-132800000D01*
X89400000Y-132800000D02*
X89400000Y-126200000D01*
G04 #@! TO.C,D71*
X111450000Y-73225000D02*
X111450000Y-77225000D01*
X111450000Y-73225000D02*
X117050000Y-73225000D01*
X111450000Y-77225000D02*
X116450000Y-77225000D01*
X117050000Y-76625000D02*
X116450000Y-77225000D01*
X117050000Y-76625000D02*
X117050000Y-73225000D01*
G04 #@! TO.C,U1*
X145500000Y-26300000D02*
X145500000Y-32500000D01*
X145500000Y-26300000D02*
X163900000Y-26300000D01*
X145500000Y-51150000D02*
X145500000Y-52150000D01*
X145500000Y-52150000D02*
X147000000Y-52150000D01*
X163900000Y-26300000D02*
X163900000Y-32500000D01*
X163900000Y-52150000D02*
X162400000Y-52150000D01*
X163900000Y-52150000D02*
X163900000Y-51150000D01*
X145500000Y-33175000D02*
X145000000Y-33175000D01*
X145500000Y-32675000D01*
X145500000Y-33175000D01*
G36*
X145500000Y-33175000D02*
G01*
X145000000Y-33175000D01*
X145500000Y-32675000D01*
X145500000Y-33175000D01*
G37*
G04 #@! TO.C,C61*
X167634420Y-70490000D02*
X167915580Y-70490000D01*
X167634420Y-71510000D02*
X167915580Y-71510000D01*
G04 #@! TO.C,J5*
X132520000Y-35300000D02*
X133900000Y-35300000D01*
X132520000Y-36680000D02*
X132520000Y-35300000D01*
X132520000Y-37950000D02*
X132520000Y-60920000D01*
X132520000Y-37950000D02*
X135170000Y-37950000D01*
X132520000Y-60920000D02*
X137820000Y-60920000D01*
X135170000Y-35300000D02*
X137820000Y-35300000D01*
X135170000Y-37950000D02*
X135170000Y-35300000D01*
X137820000Y-35300000D02*
X137820000Y-60920000D01*
G04 #@! TO.C,D65*
X111450000Y-44425000D02*
X111450000Y-48425000D01*
X111450000Y-44425000D02*
X117050000Y-44425000D01*
X111450000Y-48425000D02*
X116450000Y-48425000D01*
X117050000Y-47825000D02*
X116450000Y-48425000D01*
X117050000Y-47825000D02*
X117050000Y-44425000D01*
G04 #@! TO.C,X6*
X194400000Y-122400000D02*
X196400000Y-122400000D01*
X194400000Y-131800000D02*
X196400000Y-131800000D01*
X198300000Y-122400000D02*
X200200000Y-122400000D01*
X198300000Y-131800000D02*
X200200000Y-131800000D01*
X200200000Y-131800000D02*
X200200000Y-122400000D01*
G04 #@! TO.C,C75*
X121109420Y-93915000D02*
X121390580Y-93915000D01*
X121109420Y-94935000D02*
X121390580Y-94935000D01*
G04 #@! TO.C,C66*
X121109420Y-50715000D02*
X121390580Y-50715000D01*
X121109420Y-51735000D02*
X121390580Y-51735000D01*
G04 #@! TO.C,D67*
X111450000Y-54025000D02*
X111450000Y-58025000D01*
X111450000Y-54025000D02*
X117050000Y-54025000D01*
X111450000Y-58025000D02*
X116450000Y-58025000D01*
X117050000Y-57425000D02*
X116450000Y-58025000D01*
X117050000Y-57425000D02*
X117050000Y-54025000D01*
G04 #@! TO.C,C73*
X121109420Y-84315000D02*
X121390580Y-84315000D01*
X121109420Y-85335000D02*
X121390580Y-85335000D01*
G04 #@! TO.C,D63*
X159200000Y-70000000D02*
X159200000Y-74000000D01*
X159200000Y-70000000D02*
X164800000Y-70000000D01*
X159200000Y-74000000D02*
X164200000Y-74000000D01*
X164800000Y-73400000D02*
X164200000Y-74000000D01*
X164800000Y-73400000D02*
X164800000Y-70000000D01*
G04 #@! TO.C,D75*
X111450000Y-92425000D02*
X111450000Y-96425000D01*
X111450000Y-92425000D02*
X117050000Y-92425000D01*
X111450000Y-96425000D02*
X116450000Y-96425000D01*
X117050000Y-95825000D02*
X116450000Y-96425000D01*
X117050000Y-95825000D02*
X117050000Y-92425000D01*
G04 #@! TO.C,R60*
X152662742Y-57877500D02*
X153137258Y-57877500D01*
X152662742Y-58922500D02*
X153137258Y-58922500D01*
G04 #@! TO.C,R33*
X142662742Y-35977500D02*
X143137258Y-35977500D01*
X142662742Y-37022500D02*
X143137258Y-37022500D01*
G04 #@! TO.C,C23*
X187284420Y-47490000D02*
X187565580Y-47490000D01*
X187284420Y-48510000D02*
X187565580Y-48510000D01*
G04 #@! TO.C,U3*
X178240000Y-49290000D02*
X183760000Y-49290000D01*
X178240000Y-49615000D02*
X178240000Y-49290000D01*
X178240000Y-56710000D02*
X178240000Y-56385000D01*
X183760000Y-49290000D02*
X183760000Y-49615000D01*
X183760000Y-56385000D02*
X183760000Y-56710000D01*
X183760000Y-56710000D02*
X178240000Y-56710000D01*
X184500000Y-56390000D02*
X184840000Y-56860000D01*
X184160000Y-56860000D01*
X184500000Y-56390000D01*
G36*
X184840000Y-56860000D02*
G01*
X184160000Y-56860000D01*
X184500000Y-56390000D01*
X184840000Y-56860000D01*
G37*
G04 #@! TO.C,D60*
X149200000Y-60000000D02*
X149200000Y-64000000D01*
X149200000Y-60000000D02*
X154800000Y-60000000D01*
X149200000Y-64000000D02*
X154200000Y-64000000D01*
X154800000Y-63400000D02*
X154200000Y-64000000D01*
X154800000Y-63400000D02*
X154800000Y-60000000D01*
G04 #@! TO.C,C82*
X121109420Y-127515000D02*
X121390580Y-127515000D01*
X121109420Y-128535000D02*
X121390580Y-128535000D01*
G04 #@! TO.C,D76*
X111450000Y-97225000D02*
X111450000Y-101225000D01*
X111450000Y-97225000D02*
X117050000Y-97225000D01*
X111450000Y-101225000D02*
X116450000Y-101225000D01*
X117050000Y-100625000D02*
X116450000Y-101225000D01*
X117050000Y-100625000D02*
X117050000Y-97225000D01*
G04 #@! TO.C,D66*
X111450000Y-49225000D02*
X111450000Y-53225000D01*
X111450000Y-49225000D02*
X117050000Y-49225000D01*
X111450000Y-53225000D02*
X116450000Y-53225000D01*
X117050000Y-52625000D02*
X116450000Y-53225000D01*
X117050000Y-52625000D02*
X117050000Y-49225000D01*
G04 #@! TO.C,C70*
X121109420Y-69915000D02*
X121390580Y-69915000D01*
X121109420Y-70935000D02*
X121390580Y-70935000D01*
G04 #@! TO.C,D70*
X111450000Y-68425000D02*
X111450000Y-72425000D01*
X111450000Y-68425000D02*
X117050000Y-68425000D01*
X111450000Y-72425000D02*
X116450000Y-72425000D01*
X117050000Y-71825000D02*
X116450000Y-72425000D01*
X117050000Y-71825000D02*
X117050000Y-68425000D01*
G04 #@! TO.C,C63*
X167359420Y-60490000D02*
X167640580Y-60490000D01*
X167359420Y-61510000D02*
X167640580Y-61510000D01*
G04 #@! TO.C,C65*
X121109420Y-45915000D02*
X121390580Y-45915000D01*
X121109420Y-46935000D02*
X121390580Y-46935000D01*
G04 #@! TO.C,J1*
X184770000Y-72025000D02*
X184770000Y-87545000D01*
X184770000Y-72025000D02*
X202730000Y-72025000D01*
X184770000Y-87545000D02*
X202730000Y-87545000D01*
X188150000Y-88230000D02*
X189150000Y-88230000D01*
X188650000Y-87730000D02*
X188150000Y-88230000D01*
X189150000Y-88230000D02*
X188650000Y-87730000D01*
X202730000Y-87545000D02*
X202730000Y-72025000D01*
G04 #@! TO.C,C60*
X156634420Y-70490000D02*
X156915580Y-70490000D01*
X156634420Y-71510000D02*
X156915580Y-71510000D01*
G04 #@! TO.C,J2*
X184770000Y-89025000D02*
X184770000Y-104545000D01*
X184770000Y-89025000D02*
X202730000Y-89025000D01*
X184770000Y-104545000D02*
X202730000Y-104545000D01*
X188150000Y-105230000D02*
X189150000Y-105230000D01*
X188650000Y-104730000D02*
X188150000Y-105230000D01*
X189150000Y-105230000D02*
X188650000Y-104730000D01*
X202730000Y-104545000D02*
X202730000Y-89025000D01*
G04 #@! TO.C,D69*
X111450000Y-63625000D02*
X111450000Y-67625000D01*
X111450000Y-63625000D02*
X117050000Y-63625000D01*
X111450000Y-67625000D02*
X116450000Y-67625000D01*
X117050000Y-67025000D02*
X116450000Y-67625000D01*
X117050000Y-67025000D02*
X117050000Y-63625000D01*
G04 #@! TO.C,C78*
X121109420Y-108315000D02*
X121390580Y-108315000D01*
X121109420Y-109335000D02*
X121390580Y-109335000D01*
G04 #@! TO.C,C83*
X121109420Y-132315000D02*
X121390580Y-132315000D01*
X121109420Y-133335000D02*
X121390580Y-133335000D01*
G04 #@! TO.C,D83*
X111450000Y-130825000D02*
X111450000Y-134825000D01*
X111450000Y-130825000D02*
X117050000Y-130825000D01*
X111450000Y-134825000D02*
X116450000Y-134825000D01*
X117050000Y-134225000D02*
X116450000Y-134825000D01*
X117050000Y-134225000D02*
X117050000Y-130825000D01*
G04 #@! TO.C,C79*
X121109420Y-113115000D02*
X121390580Y-113115000D01*
X121109420Y-114135000D02*
X121390580Y-114135000D01*
G04 #@! TO.C,SW1*
X133950000Y-74319000D02*
X135100000Y-73150000D01*
X133950000Y-75000000D02*
X133950000Y-74319000D01*
X133950000Y-77600000D02*
X133950000Y-78300000D01*
X133950000Y-78300000D02*
X135100000Y-79450000D01*
X135100000Y-73150000D02*
X139100000Y-73150000D01*
X135100000Y-79450000D02*
X139100000Y-79450000D01*
X139100000Y-73150000D02*
X140250000Y-74300000D01*
X139100000Y-79450000D02*
X140250000Y-78300000D01*
X140250000Y-74300000D02*
X140250000Y-75000000D01*
X140250000Y-78300000D02*
X140250000Y-77600000D01*
G04 #@! TO.C,D81*
X111450000Y-121225000D02*
X111450000Y-125225000D01*
X111450000Y-121225000D02*
X117050000Y-121225000D01*
X111450000Y-125225000D02*
X116450000Y-125225000D01*
X117050000Y-124625000D02*
X116450000Y-125225000D01*
X117050000Y-124625000D02*
X117050000Y-121225000D01*
G04 #@! TO.C,C22*
X184059420Y-34990000D02*
X184340580Y-34990000D01*
X184059420Y-36010000D02*
X184340580Y-36010000D01*
G04 #@! TO.C,C76*
X121109420Y-98715000D02*
X121390580Y-98715000D01*
X121109420Y-99735000D02*
X121390580Y-99735000D01*
G04 #@! TO.C,C74*
X121109420Y-89115000D02*
X121390580Y-89115000D01*
X121109420Y-90135000D02*
X121390580Y-90135000D01*
G04 #@! TO.C,C69*
X121109420Y-65115000D02*
X121390580Y-65115000D01*
X121109420Y-66135000D02*
X121390580Y-66135000D01*
G04 #@! TO.C,C77*
X121109420Y-103515000D02*
X121390580Y-103515000D01*
X121109420Y-104535000D02*
X121390580Y-104535000D01*
G04 #@! TO.C,D62*
X149200000Y-70000000D02*
X149200000Y-74000000D01*
X149200000Y-70000000D02*
X154800000Y-70000000D01*
X149200000Y-74000000D02*
X154200000Y-74000000D01*
X154800000Y-73400000D02*
X154200000Y-74000000D01*
X154800000Y-73400000D02*
X154800000Y-70000000D01*
G04 #@! TO.C,K1*
X69600000Y-75200000D02*
X89400000Y-75200000D01*
X69600000Y-90800000D02*
X69600000Y-75200000D01*
X73850000Y-78800000D02*
X73850000Y-81250000D01*
X73850000Y-87200000D02*
X73850000Y-84700000D01*
X77050000Y-82950000D02*
X72450000Y-85450000D01*
X78550000Y-79350000D02*
X85350000Y-79350000D01*
X78550000Y-82950000D02*
X77050000Y-82950000D01*
X78550000Y-82950000D02*
X78550000Y-79350000D01*
X79950000Y-81150000D02*
X83950000Y-81150000D01*
X79950000Y-81150000D02*
X83950000Y-84750000D01*
X79950000Y-84750000D02*
X79950000Y-81150000D01*
X81950000Y-81150000D02*
X81950000Y-76950000D01*
X81950000Y-88950000D02*
X81950000Y-84750000D01*
X81950000Y-88950000D02*
X84450000Y-88950000D01*
X83950000Y-81150000D02*
X83950000Y-84750000D01*
X83950000Y-84750000D02*
X79950000Y-84750000D01*
X84450000Y-76950000D02*
X81950000Y-76950000D01*
X85350000Y-82950000D02*
X85350000Y-79350000D01*
X85350000Y-82950000D02*
X86150000Y-82950000D01*
X89400000Y-81800000D02*
X89400000Y-75200000D01*
X89400000Y-90800000D02*
X69600000Y-90800000D01*
X89400000Y-90800000D02*
X89400000Y-84200000D01*
G04 #@! TO.C,R23*
X187877500Y-51437258D02*
X187877500Y-50962742D01*
X188922500Y-51437258D02*
X188922500Y-50962742D01*
G04 #@! TO.C,D61*
X159200000Y-60000000D02*
X159200000Y-64000000D01*
X159200000Y-60000000D02*
X164800000Y-60000000D01*
X159200000Y-64000000D02*
X164200000Y-64000000D01*
X164800000Y-63400000D02*
X164200000Y-64000000D01*
X164800000Y-63400000D02*
X164800000Y-60000000D01*
G04 #@! TO.C,C80*
X121109420Y-117915000D02*
X121390580Y-117915000D01*
X121109420Y-118935000D02*
X121390580Y-118935000D01*
G04 #@! TO.C,K2*
X69600000Y-97200000D02*
X89400000Y-97200000D01*
X69600000Y-112800000D02*
X69600000Y-97200000D01*
X73850000Y-100800000D02*
X73850000Y-103250000D01*
X73850000Y-109200000D02*
X73850000Y-106700000D01*
X77050000Y-104950000D02*
X72450000Y-107450000D01*
X78550000Y-101350000D02*
X85350000Y-101350000D01*
X78550000Y-104950000D02*
X77050000Y-104950000D01*
X78550000Y-104950000D02*
X78550000Y-101350000D01*
X79950000Y-103150000D02*
X83950000Y-103150000D01*
X79950000Y-103150000D02*
X83950000Y-106750000D01*
X79950000Y-106750000D02*
X79950000Y-103150000D01*
X81950000Y-103150000D02*
X81950000Y-98950000D01*
X81950000Y-110950000D02*
X81950000Y-106750000D01*
X81950000Y-110950000D02*
X84450000Y-110950000D01*
X83950000Y-103150000D02*
X83950000Y-106750000D01*
X83950000Y-106750000D02*
X79950000Y-106750000D01*
X84450000Y-98950000D02*
X81950000Y-98950000D01*
X85350000Y-104950000D02*
X85350000Y-101350000D01*
X85350000Y-104950000D02*
X86150000Y-104950000D01*
X89400000Y-103800000D02*
X89400000Y-97200000D01*
X89400000Y-112800000D02*
X69600000Y-112800000D01*
X89400000Y-112800000D02*
X89400000Y-106200000D01*
G04 #@! TO.C,D68*
X111450000Y-58825000D02*
X111450000Y-62825000D01*
X111450000Y-58825000D02*
X117050000Y-58825000D01*
X111450000Y-62825000D02*
X116450000Y-62825000D01*
X117050000Y-62225000D02*
X116450000Y-62825000D01*
X117050000Y-62225000D02*
X117050000Y-58825000D01*
G04 #@! TO.C,D80*
X111450000Y-116425000D02*
X111450000Y-120425000D01*
X111450000Y-116425000D02*
X117050000Y-116425000D01*
X111450000Y-120425000D02*
X116450000Y-120425000D01*
X117050000Y-119825000D02*
X116450000Y-120425000D01*
X117050000Y-119825000D02*
X117050000Y-116425000D01*
G04 #@! TO.C,C67*
X121109420Y-55515000D02*
X121390580Y-55515000D01*
X121109420Y-56535000D02*
X121390580Y-56535000D01*
G04 #@! TO.C,D74*
X111450000Y-87625000D02*
X111450000Y-91625000D01*
X111450000Y-87625000D02*
X117050000Y-87625000D01*
X111450000Y-91625000D02*
X116450000Y-91625000D01*
X117050000Y-91025000D02*
X116450000Y-91625000D01*
X117050000Y-91025000D02*
X117050000Y-87625000D01*
G04 #@! TO.C,D79*
X111450000Y-111625000D02*
X111450000Y-115625000D01*
X111450000Y-111625000D02*
X117050000Y-111625000D01*
X111450000Y-115625000D02*
X116450000Y-115625000D01*
X117050000Y-115025000D02*
X116450000Y-115625000D01*
X117050000Y-115025000D02*
X117050000Y-111625000D01*
G04 #@! TO.C,C64*
X121109420Y-41115000D02*
X121390580Y-41115000D01*
X121109420Y-42135000D02*
X121390580Y-42135000D01*
G04 #@! TO.C,U2*
X178240000Y-39290000D02*
X183760000Y-39290000D01*
X178240000Y-39615000D02*
X178240000Y-39290000D01*
X178240000Y-46710000D02*
X178240000Y-46385000D01*
X183760000Y-39290000D02*
X183760000Y-39615000D01*
X183760000Y-46385000D02*
X183760000Y-46710000D01*
X183760000Y-46710000D02*
X178240000Y-46710000D01*
X184500000Y-46390000D02*
X184840000Y-46860000D01*
X184160000Y-46860000D01*
X184500000Y-46390000D01*
G36*
X184840000Y-46860000D02*
G01*
X184160000Y-46860000D01*
X184500000Y-46390000D01*
X184840000Y-46860000D01*
G37*
G04 #@! TO.C,C68*
X121109420Y-60315000D02*
X121390580Y-60315000D01*
X121109420Y-61335000D02*
X121390580Y-61335000D01*
G04 #@! TO.C,D73*
X111450000Y-82825000D02*
X111450000Y-86825000D01*
X111450000Y-82825000D02*
X117050000Y-82825000D01*
X111450000Y-86825000D02*
X116450000Y-86825000D01*
X117050000Y-86225000D02*
X116450000Y-86825000D01*
X117050000Y-86225000D02*
X117050000Y-82825000D01*
G04 #@! TO.C,D72*
X111450000Y-78025000D02*
X111450000Y-82025000D01*
X111450000Y-78025000D02*
X117050000Y-78025000D01*
X111450000Y-82025000D02*
X116450000Y-82025000D01*
X117050000Y-81425000D02*
X116450000Y-82025000D01*
X117050000Y-81425000D02*
X117050000Y-78025000D01*
G04 #@! TO.C,D64*
X111450000Y-39625000D02*
X111450000Y-43625000D01*
X111450000Y-39625000D02*
X117050000Y-39625000D01*
X111450000Y-43625000D02*
X116450000Y-43625000D01*
X117050000Y-43025000D02*
X116450000Y-43625000D01*
X117050000Y-43025000D02*
X117050000Y-39625000D01*
G04 #@! TD*
M02*
