G04 #@! TF.GenerationSoftware,KiCad,Pcbnew,10.0.4*
G04 #@! TF.CreationDate,2026-07-09T13:00:24+02:00*
G04 #@! TF.ProjectId,pumpengruppe-rs485,70756d70-656e-4677-9275-7070652d7273,A-preliminary*
G04 #@! TF.SameCoordinates,Original*
G04 #@! TF.FileFunction,OtherDrawing,Comment*
%FSLAX46Y46*%
G04 Gerber Fmt 4.6, Leading zero omitted, Abs format (unit mm)*
G04 Created by KiCad (PCBNEW 10.0.4) date 2026-07-09 13:00:24*
%MOMM*%
%LPD*%
G01*
G04 APERTURE LIST*
%ADD10C,0.300000*%
G04 APERTURE END LIST*
D10*
X110000000Y-32500000D02*
X110000000Y-35800000D01*
X110000000Y-37000000D02*
X110000000Y-40300000D01*
X110000000Y-41500000D02*
X110000000Y-44800000D01*
X110000000Y-46000000D02*
X110000000Y-49300000D01*
X110000000Y-50500000D02*
X110000000Y-53800000D01*
X110000000Y-55000000D02*
X110000000Y-58300000D01*
X110000000Y-59500000D02*
X110000000Y-62800000D01*
X110000000Y-64000000D02*
X110000000Y-67300000D01*
X110000000Y-68500000D02*
X110000000Y-71800000D01*
X110000000Y-73000000D02*
X110000000Y-76300000D01*
X110000000Y-77500000D02*
X110000000Y-80800000D01*
X110000000Y-82000000D02*
X110000000Y-85300000D01*
X110000000Y-86500000D02*
X110000000Y-89800000D01*
X110000000Y-91000000D02*
X110000000Y-94300000D01*
X110000000Y-95500000D02*
X110000000Y-98800000D01*
X110000000Y-100000000D02*
X110000000Y-103300000D01*
X110000000Y-104500000D02*
X110000000Y-107800000D01*
X110000000Y-109000000D02*
X110000000Y-112300000D01*
X110000000Y-113500000D02*
X110000000Y-116800000D01*
X110000000Y-118000000D02*
X110000000Y-121300000D01*
X110000000Y-122500000D02*
X110000000Y-125800000D01*
X110000000Y-127000000D02*
X110000000Y-130300000D01*
X110000000Y-131500000D02*
X110000000Y-134800000D01*
X110000000Y-136000000D02*
X110000000Y-139300000D01*
M02*
