G04 #@! TF.GenerationSoftware,KiCad,Pcbnew,10.0.4*
G04 #@! TF.CreationDate,2026-07-11T13:27:09+02:00*
G04 #@! TF.ProjectId,pumpengruppe-rs485,70756d70-656e-4677-9275-7070652d7273,A-preliminary*
G04 #@! TF.SameCoordinates,Original*
G04 #@! TF.FileFunction,Soldermask,Bot*
G04 #@! TF.FilePolarity,Negative*
%FSLAX46Y46*%
G04 Gerber Fmt 4.6, Leading zero omitted, Abs format (unit mm)*
G04 Created by KiCad (PCBNEW 10.0.4) date 2026-07-11 13:27:09*
%MOMM*%
%LPD*%
G01*
G04 APERTURE LIST*
G04 Aperture macros list*
%AMRoundRect*
0 Rectangle with rounded corners*
0 $1 Rounding radius*
0 $2 $3 $4 $5 $6 $7 $8 $9 X,Y pos of 4 corners*
0 Add a 4 corners polygon primitive as box body*
4,1,4,$2,$3,$4,$5,$6,$7,$8,$9,$2,$3,0*
0 Add four circle primitives for the rounded corners*
1,1,$1+$1,$2,$3*
1,1,$1+$1,$4,$5*
1,1,$1+$1,$6,$7*
1,1,$1+$1,$8,$9*
0 Add four rect primitives between the rounded corners*
20,1,$1+$1,$2,$3,$4,$5,0*
20,1,$1+$1,$4,$5,$6,$7,0*
20,1,$1+$1,$6,$7,$8,$9,0*
20,1,$1+$1,$8,$9,$2,$3,0*%
G04 Aperture macros list end*
%ADD10C,2.500000*%
%ADD11RoundRect,0.600000X-0.550000X0.550000X-0.550000X-0.550000X0.550000X-0.550000X0.550000X0.550000X0*%
%ADD12C,2.300000*%
%ADD13RoundRect,0.300000X-0.600000X-0.750000X0.600000X-0.750000X0.600000X0.750000X-0.600000X0.750000X0*%
%ADD14O,1.800000X2.100000*%
%ADD15C,2.100000*%
%ADD16RoundRect,0.050000X0.850000X0.850000X-0.850000X0.850000X-0.850000X-0.850000X0.850000X-0.850000X0*%
%ADD17C,1.800000*%
%ADD18C,1.900000*%
%ADD19C,0.800000*%
%ADD20C,3.100000*%
%ADD21C,2.600000*%
%ADD22RoundRect,0.050000X-0.850000X-0.850000X0.850000X-0.850000X0.850000X0.850000X-0.850000X0.850000X0*%
%ADD23C,0.750000*%
%ADD24O,2.200000X1.100000*%
%ADD25O,1.700000X1.100000*%
%ADD26C,3.300000*%
%ADD27RoundRect,0.050000X0.750000X-0.750000X0.750000X0.750000X-0.750000X0.750000X-0.750000X-0.750000X0*%
%ADD28C,1.600000*%
G04 APERTURE END LIST*
D10*
G04 #@! TO.C,X1*
X44900000Y-46820000D03*
X44900000Y-51900000D03*
X44900000Y-56980000D03*
G04 #@! TD*
D11*
G04 #@! TO.C,F1*
X59100000Y-50100000D03*
X54100000Y-50100000D03*
D12*
X59100000Y-67900000D03*
X54100000Y-67900000D03*
G04 #@! TD*
D13*
G04 #@! TO.C,PSU1*
X67100000Y-57300000D03*
D14*
X67100000Y-63300000D03*
X100700000Y-51300000D03*
X100700000Y-69300000D03*
G04 #@! TD*
D10*
G04 #@! TO.C,X2*
X44600000Y-87000000D03*
X44600000Y-92080000D03*
X44600000Y-97160000D03*
G04 #@! TD*
G04 #@! TO.C,X3*
X44700000Y-108900000D03*
X44700000Y-113980000D03*
X44700000Y-119060000D03*
X44700000Y-124140000D03*
G04 #@! TD*
D15*
G04 #@! TO.C,X4*
X194800000Y-46750000D03*
X194800000Y-43250000D03*
G04 #@! TD*
G04 #@! TO.C,X5*
X194800000Y-55250000D03*
X194800000Y-51750000D03*
G04 #@! TD*
G04 #@! TO.C,J3*
X194800000Y-68000000D03*
X194800000Y-64500000D03*
X194800000Y-61000000D03*
G04 #@! TD*
G04 #@! TO.C,J4*
X194800000Y-115500000D03*
X194800000Y-112000000D03*
X194800000Y-108500000D03*
G04 #@! TD*
D16*
G04 #@! TO.C,JP1*
X176100000Y-98900000D03*
D17*
X176100000Y-96360000D03*
X176100000Y-93820000D03*
G04 #@! TD*
D18*
G04 #@! TO.C,RV1*
X45200000Y-65200000D03*
X43800000Y-72700000D03*
G04 #@! TD*
D19*
G04 #@! TO.C,MB1*
X83500000Y-33200000D03*
X83500000Y-34500000D03*
X83500000Y-35800000D03*
X83500000Y-37100000D03*
X83500000Y-138500000D03*
X83500000Y-139800000D03*
X83500000Y-141100000D03*
G04 #@! TD*
D20*
G04 #@! TO.C,K3*
X88000000Y-125000000D03*
D21*
X86050000Y-118950000D03*
D20*
X73850000Y-118950000D03*
X73800000Y-131000000D03*
D21*
X86050000Y-130950000D03*
G04 #@! TD*
D22*
G04 #@! TO.C,J5*
X133900000Y-36680000D03*
D17*
X136440000Y-36680000D03*
X133900000Y-39220000D03*
X136440000Y-39220000D03*
X133900000Y-41760000D03*
X136440000Y-41760000D03*
X133900000Y-44300000D03*
X136440000Y-44300000D03*
X133900000Y-46840000D03*
X136440000Y-46840000D03*
X133900000Y-49380000D03*
X136440000Y-49380000D03*
X133900000Y-51920000D03*
X136440000Y-51920000D03*
X133900000Y-54460000D03*
X136440000Y-54460000D03*
X133900000Y-57000000D03*
X136440000Y-57000000D03*
X133900000Y-59540000D03*
X136440000Y-59540000D03*
G04 #@! TD*
D23*
G04 #@! TO.C,X6*
X193700000Y-129990000D03*
X193700000Y-124210000D03*
D24*
X193170000Y-131420000D03*
D25*
X197350000Y-131420000D03*
D24*
X193170000Y-122780000D03*
D25*
X197350000Y-122780000D03*
G04 #@! TD*
D26*
G04 #@! TO.C,H1*
X44500000Y-37000000D03*
G04 #@! TD*
G04 #@! TO.C,H2*
X195500000Y-36200000D03*
G04 #@! TD*
G04 #@! TO.C,J1*
X195000000Y-85500000D03*
X195000000Y-74070000D03*
D27*
X188650000Y-84230000D03*
D28*
X186110000Y-82960000D03*
X188650000Y-81690000D03*
X186110000Y-80420000D03*
X188650000Y-79150000D03*
X186110000Y-77880000D03*
X188650000Y-76610000D03*
X186110000Y-75340000D03*
G04 #@! TD*
D26*
G04 #@! TO.C,J2*
X195000000Y-102500000D03*
X195000000Y-91070000D03*
D27*
X188650000Y-101230000D03*
D28*
X186110000Y-99960000D03*
X188650000Y-98690000D03*
X186110000Y-97420000D03*
X188650000Y-96150000D03*
X186110000Y-94880000D03*
X188650000Y-93610000D03*
X186110000Y-92340000D03*
G04 #@! TD*
D26*
G04 #@! TO.C,H3*
X45900000Y-136600000D03*
G04 #@! TD*
G04 #@! TO.C,H4*
X194500000Y-137900000D03*
G04 #@! TD*
D20*
G04 #@! TO.C,K1*
X88000000Y-83000000D03*
D21*
X86050000Y-76950000D03*
D20*
X73850000Y-76950000D03*
X73800000Y-89000000D03*
D21*
X86050000Y-88950000D03*
G04 #@! TD*
D20*
G04 #@! TO.C,K2*
X88000000Y-105000000D03*
D21*
X86050000Y-98950000D03*
D20*
X73850000Y-98950000D03*
X73800000Y-111000000D03*
D21*
X86050000Y-110950000D03*
G04 #@! TD*
M02*
