G04 #@! TF.GenerationSoftware,KiCad,Pcbnew,10.0.4*
G04 #@! TF.CreationDate,2026-07-09T13:00:24+02:00*
G04 #@! TF.ProjectId,pumpengruppe-rs485,70756d70-656e-4677-9275-7070652d7273,A-preliminary*
G04 #@! TF.SameCoordinates,Original*
G04 #@! TF.FileFunction,Paste,Top*
G04 #@! TF.FilePolarity,Positive*
%FSLAX46Y46*%
G04 Gerber Fmt 4.6, Leading zero omitted, Abs format (unit mm)*
G04 Created by KiCad (PCBNEW 10.0.4) date 2026-07-09 13:00:24*
%MOMM*%
%LPD*%
G01*
G04 APERTURE LIST*
G04 Aperture macros list*
%AMRoundRect*
0 Rectangle with rounded corners*
0 $1 Rounding radius*
0 $2 $3 $4 $5 $6 $7 $8 $9 X,Y pos of 4 corners*
0 Add a 4 corners polygon primitive as box body*
4,1,4,$2,$3,$4,$5,$6,$7,$8,$9,$2,$3,0*
0 Add four circle primitives for the rounded corners*
1,1,$1+$1,$2,$3*
1,1,$1+$1,$4,$5*
1,1,$1+$1,$6,$7*
1,1,$1+$1,$8,$9*
0 Add four rect primitives between the rounded corners*
20,1,$1+$1,$2,$3,$4,$5,0*
20,1,$1+$1,$4,$5,$6,$7,0*
20,1,$1+$1,$6,$7,$8,$9,0*
20,1,$1+$1,$8,$9,$2,$3,0*%
G04 Aperture macros list end*
%ADD10RoundRect,0.225000X-0.225000X-0.250000X0.225000X-0.250000X0.225000X0.250000X-0.225000X0.250000X0*%
%ADD11RoundRect,0.150000X-0.825000X-0.150000X0.825000X-0.150000X0.825000X0.150000X-0.825000X0.150000X0*%
%ADD12RoundRect,0.375000X-0.375000X0.625000X-0.375000X-0.625000X0.375000X-0.625000X0.375000X0.625000X0*%
%ADD13RoundRect,0.500000X-1.400000X0.500000X-1.400000X-0.500000X1.400000X-0.500000X1.400000X0.500000X0*%
%ADD14R,1.600000X0.850000*%
%ADD15RoundRect,0.200000X0.200000X0.275000X-0.200000X0.275000X-0.200000X-0.275000X0.200000X-0.275000X0*%
%ADD16RoundRect,0.250000X0.312500X0.625000X-0.312500X0.625000X-0.312500X-0.625000X0.312500X-0.625000X0*%
%ADD17RoundRect,0.250000X0.312500X1.450000X-0.312500X1.450000X-0.312500X-1.450000X0.312500X-1.450000X0*%
%ADD18RoundRect,0.225000X-0.225000X-0.375000X0.225000X-0.375000X0.225000X0.375000X-0.225000X0.375000X0*%
%ADD19RoundRect,0.200000X-0.200000X-0.275000X0.200000X-0.275000X0.200000X0.275000X-0.200000X0.275000X0*%
%ADD20RoundRect,0.150000X-0.587500X-0.150000X0.587500X-0.150000X0.587500X0.150000X-0.587500X0.150000X0*%
%ADD21RoundRect,0.218750X-0.218750X-0.256250X0.218750X-0.256250X0.218750X0.256250X-0.218750X0.256250X0*%
%ADD22RoundRect,0.243750X0.456250X-0.243750X0.456250X0.243750X-0.456250X0.243750X-0.456250X-0.243750X0*%
%ADD23RoundRect,0.225000X-0.375000X0.225000X-0.375000X-0.225000X0.375000X-0.225000X0.375000X0.225000X0*%
%ADD24RoundRect,0.200000X0.275000X-0.200000X0.275000X0.200000X-0.275000X0.200000X-0.275000X-0.200000X0*%
%ADD25R,0.900000X0.900000*%
%ADD26R,1.500000X0.900000*%
%ADD27R,0.900000X1.500000*%
%ADD28RoundRect,0.150000X0.575000X-0.150000X0.575000X0.150000X-0.575000X0.150000X-0.575000X-0.150000X0*%
%ADD29RoundRect,0.075000X0.650000X-0.075000X0.650000X0.075000X-0.650000X0.075000X-0.650000X-0.075000X0*%
%ADD30RoundRect,0.100000X0.850000X0.100000X-0.850000X0.100000X-0.850000X-0.100000X0.850000X-0.100000X0*%
%ADD31RoundRect,0.500000X-0.500000X-0.500000X0.500000X-0.500000X0.500000X0.500000X-0.500000X0.500000X0*%
G04 APERTURE END LIST*
D10*
G04 #@! TO.C,C81*
X120475000Y-123225000D03*
X122025000Y-123225000D03*
G04 #@! TD*
D11*
G04 #@! TO.C,U4*
X143025000Y-102595000D03*
X143025000Y-103865000D03*
X143025000Y-105135000D03*
X143025000Y-106405000D03*
X147975000Y-106405000D03*
X147975000Y-105135000D03*
X147975000Y-103865000D03*
X147975000Y-102595000D03*
G04 #@! TD*
D10*
G04 #@! TO.C,C62*
X155950000Y-61000000D03*
X157500000Y-61000000D03*
G04 #@! TD*
D12*
G04 #@! TO.C,U5*
X105300000Y-38850000D03*
X103000000Y-38850000D03*
D13*
X103000000Y-45150000D03*
D12*
X100700000Y-38850000D03*
G04 #@! TD*
D14*
G04 #@! TO.C,D77*
X112500000Y-103150000D03*
X112500000Y-104900000D03*
X116000000Y-104900000D03*
X116000000Y-103150000D03*
G04 #@! TD*
D10*
G04 #@! TO.C,R90*
X126225000Y-43500000D03*
X127775000Y-43500000D03*
G04 #@! TD*
D15*
G04 #@! TO.C,R1*
X177325000Y-132000000D03*
X175675000Y-132000000D03*
G04 #@! TD*
G04 #@! TO.C,R2*
X184525000Y-132000000D03*
X182875000Y-132000000D03*
G04 #@! TD*
G04 #@! TO.C,R3*
X172325000Y-102000000D03*
X170675000Y-102000000D03*
G04 #@! TD*
D16*
G04 #@! TO.C,R40*
X74962500Y-41000000D03*
X72037500Y-41000000D03*
G04 #@! TD*
D17*
G04 #@! TO.C,F2*
X173137500Y-88500000D03*
X168862500Y-88500000D03*
G04 #@! TD*
D18*
G04 #@! TO.C,D4*
X132350000Y-135800000D03*
X135650000Y-135800000D03*
G04 #@! TD*
D19*
G04 #@! TO.C,R4*
X98400000Y-78300000D03*
X100050000Y-78300000D03*
G04 #@! TD*
G04 #@! TO.C,R7*
X103200000Y-78300000D03*
X104850000Y-78300000D03*
G04 #@! TD*
D20*
G04 #@! TO.C,Q1*
X104162500Y-80550000D03*
X104162500Y-82450000D03*
X106037500Y-81500000D03*
G04 #@! TD*
D18*
G04 #@! TO.C,D1*
X98150000Y-81800000D03*
X101450000Y-81800000D03*
G04 #@! TD*
D19*
G04 #@! TO.C,R10*
X98275000Y-85300000D03*
X99925000Y-85300000D03*
G04 #@! TD*
D21*
G04 #@! TO.C,D10*
X104312500Y-85300000D03*
X105887500Y-85300000D03*
G04 #@! TD*
D19*
G04 #@! TO.C,R5*
X98975000Y-100000000D03*
X100625000Y-100000000D03*
G04 #@! TD*
G04 #@! TO.C,R8*
X103975000Y-100000000D03*
X105625000Y-100000000D03*
G04 #@! TD*
D20*
G04 #@! TO.C,Q2*
X104125000Y-103250000D03*
X104125000Y-105150000D03*
X106000000Y-104200000D03*
G04 #@! TD*
D18*
G04 #@! TO.C,D2*
X98350000Y-104000000D03*
X101650000Y-104000000D03*
G04 #@! TD*
D19*
G04 #@! TO.C,R11*
X98450000Y-108100000D03*
X100100000Y-108100000D03*
G04 #@! TD*
D21*
G04 #@! TO.C,D11*
X104487500Y-108100000D03*
X106062500Y-108100000D03*
G04 #@! TD*
D19*
G04 #@! TO.C,R6*
X98375000Y-120300000D03*
X100025000Y-120300000D03*
G04 #@! TD*
G04 #@! TO.C,R9*
X104375000Y-120300000D03*
X106025000Y-120300000D03*
G04 #@! TD*
D20*
G04 #@! TO.C,Q3*
X104225000Y-124050000D03*
X104225000Y-125950000D03*
X106100000Y-125000000D03*
G04 #@! TD*
D18*
G04 #@! TO.C,D3*
X97750000Y-125000000D03*
X101050000Y-125000000D03*
G04 #@! TD*
D19*
G04 #@! TO.C,R12*
X98350000Y-129700000D03*
X100000000Y-129700000D03*
G04 #@! TD*
D21*
G04 #@! TO.C,D12*
X104237500Y-129700000D03*
X105812500Y-129700000D03*
G04 #@! TD*
D19*
G04 #@! TO.C,R20*
X168975000Y-75500000D03*
X170625000Y-75500000D03*
G04 #@! TD*
D21*
G04 #@! TO.C,D20*
X174012500Y-75400000D03*
X175587500Y-75400000D03*
G04 #@! TD*
D19*
G04 #@! TO.C,R21*
X168875000Y-80100000D03*
X170525000Y-80100000D03*
G04 #@! TD*
D21*
G04 #@! TO.C,D21*
X174112500Y-80200000D03*
X175687500Y-80200000D03*
G04 #@! TD*
D19*
G04 #@! TO.C,R30*
X157475000Y-99000000D03*
X159125000Y-99000000D03*
G04 #@! TD*
D21*
G04 #@! TO.C,D30*
X163912500Y-99000000D03*
X165487500Y-99000000D03*
G04 #@! TD*
D19*
G04 #@! TO.C,R31*
X157375000Y-103500000D03*
X159025000Y-103500000D03*
G04 #@! TD*
D21*
G04 #@! TO.C,D31*
X163912500Y-103500000D03*
X165487500Y-103500000D03*
G04 #@! TD*
D19*
G04 #@! TO.C,R32*
X167875000Y-132000000D03*
X169525000Y-132000000D03*
G04 #@! TD*
D16*
G04 #@! TO.C,R41*
X69962500Y-41000000D03*
X67037500Y-41000000D03*
G04 #@! TD*
D22*
G04 #@! TO.C,D40*
X62500000Y-43437500D03*
X62500000Y-41562500D03*
G04 #@! TD*
D23*
G04 #@! TO.C,D41*
X57000000Y-40850000D03*
X57000000Y-44150000D03*
G04 #@! TD*
D18*
G04 #@! TO.C,D50*
X166050000Y-118500000D03*
X169350000Y-118500000D03*
G04 #@! TD*
G04 #@! TO.C,D51*
X166050000Y-125000000D03*
X169350000Y-125000000D03*
G04 #@! TD*
G04 #@! TO.C,D52*
X166050000Y-112500000D03*
X169350000Y-112500000D03*
G04 #@! TD*
D14*
G04 #@! TO.C,D82*
X112500000Y-127150000D03*
X112500000Y-128900000D03*
X116000000Y-128900000D03*
X116000000Y-127150000D03*
G04 #@! TD*
D24*
G04 #@! TO.C,R22*
X187900000Y-42625000D03*
X187900000Y-40975000D03*
G04 #@! TD*
D10*
G04 #@! TO.C,C71*
X120475000Y-75225000D03*
X122025000Y-75225000D03*
G04 #@! TD*
G04 #@! TO.C,C72*
X120475000Y-80025000D03*
X122025000Y-80025000D03*
G04 #@! TD*
D14*
G04 #@! TO.C,D78*
X112500000Y-107950000D03*
X112500000Y-109700000D03*
X116000000Y-109700000D03*
X116000000Y-107950000D03*
G04 #@! TD*
G04 #@! TO.C,D71*
X112500000Y-74350000D03*
X112500000Y-76100000D03*
X116000000Y-76100000D03*
X116000000Y-74350000D03*
G04 #@! TD*
D25*
G04 #@! TO.C,U1*
X151800000Y-40260000D03*
X151800000Y-41660000D03*
X151800000Y-43060000D03*
X153200000Y-40260000D03*
X153200000Y-41660000D03*
X153200000Y-43060000D03*
X154600000Y-40260000D03*
X154600000Y-41660000D03*
X154600000Y-43060000D03*
D26*
X145950000Y-33940000D03*
X145950000Y-35210000D03*
X145950000Y-36480000D03*
X145950000Y-37750000D03*
X145950000Y-39020000D03*
X145950000Y-40290000D03*
X145950000Y-41560000D03*
X145950000Y-42830000D03*
X145950000Y-44100000D03*
X145950000Y-45370000D03*
X145950000Y-46640000D03*
X145950000Y-47910000D03*
X145950000Y-49180000D03*
X145950000Y-50450000D03*
D27*
X147715000Y-51700000D03*
X148985000Y-51700000D03*
X150255000Y-51700000D03*
X151525000Y-51700000D03*
X152795000Y-51700000D03*
X154065000Y-51700000D03*
X155335000Y-51700000D03*
X156605000Y-51700000D03*
X157875000Y-51700000D03*
X159145000Y-51700000D03*
X160415000Y-51700000D03*
X161685000Y-51700000D03*
D26*
X163450000Y-50450000D03*
X163450000Y-49180000D03*
X163450000Y-47910000D03*
X163450000Y-46640000D03*
X163450000Y-45370000D03*
X163450000Y-44100000D03*
X163450000Y-42830000D03*
X163450000Y-41560000D03*
X163450000Y-40290000D03*
X163450000Y-39020000D03*
X163450000Y-37750000D03*
X163450000Y-36480000D03*
X163450000Y-35210000D03*
X163450000Y-33940000D03*
G04 #@! TD*
D10*
G04 #@! TO.C,C61*
X167000000Y-71000000D03*
X168550000Y-71000000D03*
G04 #@! TD*
D14*
G04 #@! TO.C,D65*
X112500000Y-45550000D03*
X112500000Y-47300000D03*
X116000000Y-47300000D03*
X116000000Y-45550000D03*
G04 #@! TD*
D28*
G04 #@! TO.C,X6*
X192255000Y-130350000D03*
X192255000Y-129550000D03*
D29*
X192255000Y-128350000D03*
X192255000Y-127350000D03*
X192255000Y-126850000D03*
X192255000Y-125850000D03*
D28*
X192255000Y-124650000D03*
X192255000Y-123850000D03*
X192255000Y-123850000D03*
X192255000Y-124650000D03*
D29*
X192255000Y-125350000D03*
X192255000Y-126350000D03*
X192255000Y-127850000D03*
X192255000Y-128850000D03*
D28*
X192255000Y-129550000D03*
X192255000Y-130350000D03*
G04 #@! TD*
D10*
G04 #@! TO.C,C75*
X120475000Y-94425000D03*
X122025000Y-94425000D03*
G04 #@! TD*
G04 #@! TO.C,C66*
X120475000Y-51225000D03*
X122025000Y-51225000D03*
G04 #@! TD*
D14*
G04 #@! TO.C,D67*
X112500000Y-55150000D03*
X112500000Y-56900000D03*
X116000000Y-56900000D03*
X116000000Y-55150000D03*
G04 #@! TD*
D10*
G04 #@! TO.C,C73*
X120475000Y-84825000D03*
X122025000Y-84825000D03*
G04 #@! TD*
D14*
G04 #@! TO.C,D63*
X160250000Y-71125000D03*
X160250000Y-72875000D03*
X163750000Y-72875000D03*
X163750000Y-71125000D03*
G04 #@! TD*
G04 #@! TO.C,D75*
X112500000Y-93550000D03*
X112500000Y-95300000D03*
X116000000Y-95300000D03*
X116000000Y-93550000D03*
G04 #@! TD*
D19*
G04 #@! TO.C,R60*
X152075000Y-58400000D03*
X153725000Y-58400000D03*
G04 #@! TD*
D15*
G04 #@! TO.C,R33*
X142075000Y-36500000D03*
X143725000Y-36500000D03*
G04 #@! TD*
D10*
G04 #@! TO.C,C23*
X186650000Y-48000000D03*
X188200000Y-48000000D03*
G04 #@! TD*
D30*
G04 #@! TO.C,U3*
X184500000Y-55925000D03*
X184500000Y-55275000D03*
X184500000Y-54625000D03*
X184500000Y-53975000D03*
X184500000Y-53325000D03*
X184500000Y-52675000D03*
X184500000Y-52025000D03*
X184500000Y-51375000D03*
X184500000Y-50725000D03*
X184500000Y-50075000D03*
X177500000Y-50075000D03*
X177500000Y-50725000D03*
X177500000Y-51375000D03*
X177500000Y-52025000D03*
X177500000Y-52675000D03*
X177500000Y-53325000D03*
X177500000Y-53975000D03*
X177500000Y-54625000D03*
X177500000Y-55275000D03*
X177500000Y-55925000D03*
G04 #@! TD*
D14*
G04 #@! TO.C,D60*
X150250000Y-61125000D03*
X150250000Y-62875000D03*
X153750000Y-62875000D03*
X153750000Y-61125000D03*
G04 #@! TD*
D10*
G04 #@! TO.C,C82*
X120475000Y-128025000D03*
X122025000Y-128025000D03*
G04 #@! TD*
D14*
G04 #@! TO.C,D76*
X112500000Y-98350000D03*
X112500000Y-100100000D03*
X116000000Y-100100000D03*
X116000000Y-98350000D03*
G04 #@! TD*
G04 #@! TO.C,D66*
X112500000Y-50350000D03*
X112500000Y-52100000D03*
X116000000Y-52100000D03*
X116000000Y-50350000D03*
G04 #@! TD*
D10*
G04 #@! TO.C,C70*
X120475000Y-70425000D03*
X122025000Y-70425000D03*
G04 #@! TD*
D14*
G04 #@! TO.C,D70*
X112500000Y-69550000D03*
X112500000Y-71300000D03*
X116000000Y-71300000D03*
X116000000Y-69550000D03*
G04 #@! TD*
D10*
G04 #@! TO.C,C63*
X166725000Y-61000000D03*
X168275000Y-61000000D03*
G04 #@! TD*
G04 #@! TO.C,C65*
X120475000Y-46425000D03*
X122025000Y-46425000D03*
G04 #@! TD*
G04 #@! TO.C,C60*
X156000000Y-71000000D03*
X157550000Y-71000000D03*
G04 #@! TD*
D14*
G04 #@! TO.C,D69*
X112500000Y-64750000D03*
X112500000Y-66500000D03*
X116000000Y-66500000D03*
X116000000Y-64750000D03*
G04 #@! TD*
D10*
G04 #@! TO.C,C78*
X120475000Y-108825000D03*
X122025000Y-108825000D03*
G04 #@! TD*
G04 #@! TO.C,C83*
X120475000Y-132825000D03*
X122025000Y-132825000D03*
G04 #@! TD*
D14*
G04 #@! TO.C,D83*
X112500000Y-131950000D03*
X112500000Y-133700000D03*
X116000000Y-133700000D03*
X116000000Y-131950000D03*
G04 #@! TD*
D10*
G04 #@! TO.C,C79*
X120475000Y-113625000D03*
X122025000Y-113625000D03*
G04 #@! TD*
D31*
G04 #@! TO.C,SW1*
X134100000Y-76300000D03*
X140100000Y-76300000D03*
G04 #@! TD*
D14*
G04 #@! TO.C,D81*
X112500000Y-122350000D03*
X112500000Y-124100000D03*
X116000000Y-124100000D03*
X116000000Y-122350000D03*
G04 #@! TD*
D10*
G04 #@! TO.C,C22*
X183425000Y-35500000D03*
X184975000Y-35500000D03*
G04 #@! TD*
G04 #@! TO.C,C76*
X120475000Y-99225000D03*
X122025000Y-99225000D03*
G04 #@! TD*
G04 #@! TO.C,C74*
X120475000Y-89625000D03*
X122025000Y-89625000D03*
G04 #@! TD*
G04 #@! TO.C,C69*
X120475000Y-65625000D03*
X122025000Y-65625000D03*
G04 #@! TD*
G04 #@! TO.C,C77*
X120475000Y-104025000D03*
X122025000Y-104025000D03*
G04 #@! TD*
D14*
G04 #@! TO.C,D62*
X150250000Y-71125000D03*
X150250000Y-72875000D03*
X153750000Y-72875000D03*
X153750000Y-71125000D03*
G04 #@! TD*
D24*
G04 #@! TO.C,R23*
X188400000Y-52025000D03*
X188400000Y-50375000D03*
G04 #@! TD*
D14*
G04 #@! TO.C,D61*
X160250000Y-61125000D03*
X160250000Y-62875000D03*
X163750000Y-62875000D03*
X163750000Y-61125000D03*
G04 #@! TD*
D10*
G04 #@! TO.C,C80*
X120475000Y-118425000D03*
X122025000Y-118425000D03*
G04 #@! TD*
D14*
G04 #@! TO.C,D68*
X112500000Y-59950000D03*
X112500000Y-61700000D03*
X116000000Y-61700000D03*
X116000000Y-59950000D03*
G04 #@! TD*
G04 #@! TO.C,D80*
X112500000Y-117550000D03*
X112500000Y-119300000D03*
X116000000Y-119300000D03*
X116000000Y-117550000D03*
G04 #@! TD*
D10*
G04 #@! TO.C,C67*
X120475000Y-56025000D03*
X122025000Y-56025000D03*
G04 #@! TD*
D14*
G04 #@! TO.C,D74*
X112500000Y-88750000D03*
X112500000Y-90500000D03*
X116000000Y-90500000D03*
X116000000Y-88750000D03*
G04 #@! TD*
G04 #@! TO.C,D79*
X112500000Y-112750000D03*
X112500000Y-114500000D03*
X116000000Y-114500000D03*
X116000000Y-112750000D03*
G04 #@! TD*
D10*
G04 #@! TO.C,C64*
X120475000Y-41625000D03*
X122025000Y-41625000D03*
G04 #@! TD*
D30*
G04 #@! TO.C,U2*
X184500000Y-45925000D03*
X184500000Y-45275000D03*
X184500000Y-44625000D03*
X184500000Y-43975000D03*
X184500000Y-43325000D03*
X184500000Y-42675000D03*
X184500000Y-42025000D03*
X184500000Y-41375000D03*
X184500000Y-40725000D03*
X184500000Y-40075000D03*
X177500000Y-40075000D03*
X177500000Y-40725000D03*
X177500000Y-41375000D03*
X177500000Y-42025000D03*
X177500000Y-42675000D03*
X177500000Y-43325000D03*
X177500000Y-43975000D03*
X177500000Y-44625000D03*
X177500000Y-45275000D03*
X177500000Y-45925000D03*
G04 #@! TD*
D10*
G04 #@! TO.C,C68*
X120475000Y-60825000D03*
X122025000Y-60825000D03*
G04 #@! TD*
D14*
G04 #@! TO.C,D73*
X112500000Y-83950000D03*
X112500000Y-85700000D03*
X116000000Y-85700000D03*
X116000000Y-83950000D03*
G04 #@! TD*
G04 #@! TO.C,D72*
X112500000Y-79150000D03*
X112500000Y-80900000D03*
X116000000Y-80900000D03*
X116000000Y-79150000D03*
G04 #@! TD*
G04 #@! TO.C,D64*
X112500000Y-40750000D03*
X112500000Y-42500000D03*
X116000000Y-42500000D03*
X116000000Y-40750000D03*
G04 #@! TD*
M02*
