G04 #@! TF.GenerationSoftware,KiCad,Pcbnew,10.0.4*
G04 #@! TF.CreationDate,2026-07-11T13:27:09+02:00*
G04 #@! TF.ProjectId,pumpengruppe-rs485,70756d70-656e-4677-9275-7070652d7273,A-preliminary*
G04 #@! TF.SameCoordinates,Original*
G04 #@! TF.FileFunction,Soldermask,Top*
G04 #@! TF.FilePolarity,Negative*
%FSLAX46Y46*%
G04 Gerber Fmt 4.6, Leading zero omitted, Abs format (unit mm)*
G04 Created by KiCad (PCBNEW 10.0.4) date 2026-07-11 13:27:09*
%MOMM*%
%LPD*%
G01*
G04 APERTURE LIST*
G04 Aperture macros list*
%AMRoundRect*
0 Rectangle with rounded corners*
0 $1 Rounding radius*
0 $2 $3 $4 $5 $6 $7 $8 $9 X,Y pos of 4 corners*
0 Add a 4 corners polygon primitive as box body*
4,1,4,$2,$3,$4,$5,$6,$7,$8,$9,$2,$3,0*
0 Add four circle primitives for the rounded corners*
1,1,$1+$1,$2,$3*
1,1,$1+$1,$4,$5*
1,1,$1+$1,$6,$7*
1,1,$1+$1,$8,$9*
0 Add four rect primitives between the rounded corners*
20,1,$1+$1,$2,$3,$4,$5,0*
20,1,$1+$1,$4,$5,$6,$7,0*
20,1,$1+$1,$6,$7,$8,$9,0*
20,1,$1+$1,$8,$9,$2,$3,0*%
G04 Aperture macros list end*
%ADD10RoundRect,0.275000X-0.225000X-0.250000X0.225000X-0.250000X0.225000X0.250000X-0.225000X0.250000X0*%
%ADD11RoundRect,0.200000X-0.825000X-0.150000X0.825000X-0.150000X0.825000X0.150000X-0.825000X0.150000X0*%
%ADD12RoundRect,0.425000X-0.375000X0.625000X-0.375000X-0.625000X0.375000X-0.625000X0.375000X0.625000X0*%
%ADD13RoundRect,0.550000X-1.400000X0.500000X-1.400000X-0.500000X1.400000X-0.500000X1.400000X0.500000X0*%
%ADD14RoundRect,0.050000X-0.800000X-0.425000X0.800000X-0.425000X0.800000X0.425000X-0.800000X0.425000X0*%
%ADD15RoundRect,0.250000X-0.200000X-0.275000X0.200000X-0.275000X0.200000X0.275000X-0.200000X0.275000X0*%
%ADD16C,2.500000*%
%ADD17RoundRect,0.600000X-0.550000X0.550000X-0.550000X-0.550000X0.550000X-0.550000X0.550000X0.550000X0*%
%ADD18C,2.300000*%
%ADD19RoundRect,0.300000X-0.600000X-0.750000X0.600000X-0.750000X0.600000X0.750000X-0.600000X0.750000X0*%
%ADD20O,1.800000X2.100000*%
%ADD21C,2.100000*%
%ADD22RoundRect,0.250000X0.200000X0.275000X-0.200000X0.275000X-0.200000X-0.275000X0.200000X-0.275000X0*%
%ADD23RoundRect,0.050000X0.850000X0.850000X-0.850000X0.850000X-0.850000X-0.850000X0.850000X-0.850000X0*%
%ADD24C,1.800000*%
%ADD25RoundRect,0.300000X0.312500X0.625000X-0.312500X0.625000X-0.312500X-0.625000X0.312500X-0.625000X0*%
%ADD26RoundRect,0.300000X0.312500X1.450000X-0.312500X1.450000X-0.312500X-1.450000X0.312500X-1.450000X0*%
%ADD27RoundRect,0.275000X-0.225000X-0.375000X0.225000X-0.375000X0.225000X0.375000X-0.225000X0.375000X0*%
%ADD28RoundRect,0.200000X-0.587500X-0.150000X0.587500X-0.150000X0.587500X0.150000X-0.587500X0.150000X0*%
%ADD29RoundRect,0.268750X-0.218750X-0.256250X0.218750X-0.256250X0.218750X0.256250X-0.218750X0.256250X0*%
%ADD30RoundRect,0.293750X0.456250X-0.243750X0.456250X0.243750X-0.456250X0.243750X-0.456250X-0.243750X0*%
%ADD31RoundRect,0.275000X-0.375000X0.225000X-0.375000X-0.225000X0.375000X-0.225000X0.375000X0.225000X0*%
%ADD32C,1.900000*%
%ADD33RoundRect,0.250000X0.275000X-0.200000X0.275000X0.200000X-0.275000X0.200000X-0.275000X-0.200000X0*%
%ADD34C,0.800000*%
%ADD35C,3.100000*%
%ADD36C,2.600000*%
%ADD37RoundRect,0.050000X-0.750000X-0.450000X0.750000X-0.450000X0.750000X0.450000X-0.750000X0.450000X0*%
%ADD38RoundRect,0.050000X0.750000X0.450000X-0.750000X0.450000X-0.750000X-0.450000X0.750000X-0.450000X0*%
%ADD39RoundRect,0.050000X-0.450000X0.750000X-0.450000X-0.750000X0.450000X-0.750000X0.450000X0.750000X0*%
%ADD40C,0.700000*%
%ADD41RoundRect,0.050000X-1.950000X1.950000X-1.950000X-1.950000X1.950000X-1.950000X1.950000X1.950000X0*%
%ADD42C,0.862000*%
%ADD43RoundRect,0.050000X-0.850000X-0.850000X0.850000X-0.850000X0.850000X0.850000X-0.850000X0.850000X0*%
%ADD44C,0.750000*%
%ADD45RoundRect,0.200000X0.575000X-0.150000X0.575000X0.150000X-0.575000X0.150000X-0.575000X-0.150000X0*%
%ADD46RoundRect,0.125000X0.650000X-0.075000X0.650000X0.075000X-0.650000X0.075000X-0.650000X-0.075000X0*%
%ADD47O,2.200000X1.100000*%
%ADD48O,1.700000X1.100000*%
%ADD49C,3.300000*%
%ADD50RoundRect,0.150000X0.850000X0.100000X-0.850000X0.100000X-0.850000X-0.100000X0.850000X-0.100000X0*%
%ADD51RoundRect,0.050000X0.750000X-0.750000X0.750000X0.750000X-0.750000X0.750000X-0.750000X-0.750000X0*%
%ADD52C,1.600000*%
%ADD53RoundRect,0.550000X-0.500000X-0.500000X0.500000X-0.500000X0.500000X0.500000X-0.500000X0.500000X0*%
G04 APERTURE END LIST*
D10*
G04 #@! TO.C,C81*
X120475000Y-123225000D03*
X122025000Y-123225000D03*
G04 #@! TD*
D11*
G04 #@! TO.C,U4*
X143025000Y-102595000D03*
X143025000Y-103865000D03*
X143025000Y-105135000D03*
X143025000Y-106405000D03*
X147975000Y-106405000D03*
X147975000Y-105135000D03*
X147975000Y-103865000D03*
X147975000Y-102595000D03*
G04 #@! TD*
D10*
G04 #@! TO.C,C62*
X155950000Y-61000000D03*
X157500000Y-61000000D03*
G04 #@! TD*
D12*
G04 #@! TO.C,U5*
X105300000Y-38850000D03*
X103000000Y-38850000D03*
D13*
X103000000Y-45150000D03*
D12*
X100700000Y-38850000D03*
G04 #@! TD*
D14*
G04 #@! TO.C,D77*
X112500000Y-103150000D03*
X112500000Y-104900000D03*
X116000000Y-104900000D03*
X116000000Y-103150000D03*
G04 #@! TD*
D15*
G04 #@! TO.C,R90*
X126175000Y-43500000D03*
X127825000Y-43500000D03*
G04 #@! TD*
D16*
G04 #@! TO.C,X1*
X44900000Y-46820000D03*
X44900000Y-51900000D03*
X44900000Y-56980000D03*
G04 #@! TD*
D17*
G04 #@! TO.C,F1*
X59100000Y-50100000D03*
X54100000Y-50100000D03*
D18*
X59100000Y-67900000D03*
X54100000Y-67900000D03*
G04 #@! TD*
D19*
G04 #@! TO.C,PSU1*
X67100000Y-57300000D03*
D20*
X67100000Y-63300000D03*
X100700000Y-51300000D03*
X100700000Y-69300000D03*
G04 #@! TD*
D16*
G04 #@! TO.C,X2*
X44600000Y-87000000D03*
X44600000Y-92080000D03*
X44600000Y-97160000D03*
G04 #@! TD*
G04 #@! TO.C,X3*
X44700000Y-108900000D03*
X44700000Y-113980000D03*
X44700000Y-119060000D03*
X44700000Y-124140000D03*
G04 #@! TD*
D21*
G04 #@! TO.C,X4*
X194800000Y-46750000D03*
X194800000Y-43250000D03*
G04 #@! TD*
G04 #@! TO.C,X5*
X194800000Y-55250000D03*
X194800000Y-51750000D03*
G04 #@! TD*
G04 #@! TO.C,J3*
X194800000Y-68000000D03*
X194800000Y-64500000D03*
X194800000Y-61000000D03*
G04 #@! TD*
G04 #@! TO.C,J4*
X194800000Y-115500000D03*
X194800000Y-112000000D03*
X194800000Y-108500000D03*
G04 #@! TD*
D22*
G04 #@! TO.C,R1*
X177325000Y-132000000D03*
X175675000Y-132000000D03*
G04 #@! TD*
G04 #@! TO.C,R2*
X184525000Y-132000000D03*
X182875000Y-132000000D03*
G04 #@! TD*
G04 #@! TO.C,R3*
X172325000Y-102000000D03*
X170675000Y-102000000D03*
G04 #@! TD*
D23*
G04 #@! TO.C,JP1*
X176100000Y-98900000D03*
D24*
X176100000Y-96360000D03*
X176100000Y-93820000D03*
G04 #@! TD*
D25*
G04 #@! TO.C,R40*
X74962500Y-41000000D03*
X72037500Y-41000000D03*
G04 #@! TD*
D26*
G04 #@! TO.C,F2*
X173137500Y-88500000D03*
X168862500Y-88500000D03*
G04 #@! TD*
D27*
G04 #@! TO.C,D4*
X132350000Y-135800000D03*
X135650000Y-135800000D03*
G04 #@! TD*
D15*
G04 #@! TO.C,R4*
X98400000Y-78300000D03*
X100050000Y-78300000D03*
G04 #@! TD*
G04 #@! TO.C,R7*
X103200000Y-78300000D03*
X104850000Y-78300000D03*
G04 #@! TD*
D28*
G04 #@! TO.C,Q1*
X104162500Y-80550000D03*
X104162500Y-82450000D03*
X106037500Y-81500000D03*
G04 #@! TD*
D27*
G04 #@! TO.C,D1*
X98150000Y-81800000D03*
X101450000Y-81800000D03*
G04 #@! TD*
D15*
G04 #@! TO.C,R10*
X98275000Y-85300000D03*
X99925000Y-85300000D03*
G04 #@! TD*
D29*
G04 #@! TO.C,D10*
X104312500Y-85300000D03*
X105887500Y-85300000D03*
G04 #@! TD*
D15*
G04 #@! TO.C,R5*
X98975000Y-100000000D03*
X100625000Y-100000000D03*
G04 #@! TD*
G04 #@! TO.C,R8*
X103975000Y-100000000D03*
X105625000Y-100000000D03*
G04 #@! TD*
D28*
G04 #@! TO.C,Q2*
X104125000Y-103250000D03*
X104125000Y-105150000D03*
X106000000Y-104200000D03*
G04 #@! TD*
D27*
G04 #@! TO.C,D2*
X98350000Y-104000000D03*
X101650000Y-104000000D03*
G04 #@! TD*
D15*
G04 #@! TO.C,R11*
X98450000Y-108100000D03*
X100100000Y-108100000D03*
G04 #@! TD*
D29*
G04 #@! TO.C,D11*
X104487500Y-108100000D03*
X106062500Y-108100000D03*
G04 #@! TD*
D15*
G04 #@! TO.C,R6*
X98375000Y-120300000D03*
X100025000Y-120300000D03*
G04 #@! TD*
G04 #@! TO.C,R9*
X104375000Y-120300000D03*
X106025000Y-120300000D03*
G04 #@! TD*
D28*
G04 #@! TO.C,Q3*
X104225000Y-124050000D03*
X104225000Y-125950000D03*
X106100000Y-125000000D03*
G04 #@! TD*
D27*
G04 #@! TO.C,D3*
X97750000Y-125000000D03*
X101050000Y-125000000D03*
G04 #@! TD*
D15*
G04 #@! TO.C,R12*
X98350000Y-129700000D03*
X100000000Y-129700000D03*
G04 #@! TD*
D29*
G04 #@! TO.C,D12*
X104237500Y-129700000D03*
X105812500Y-129700000D03*
G04 #@! TD*
D15*
G04 #@! TO.C,R20*
X168975000Y-75500000D03*
X170625000Y-75500000D03*
G04 #@! TD*
D29*
G04 #@! TO.C,D20*
X174012500Y-75400000D03*
X175587500Y-75400000D03*
G04 #@! TD*
D15*
G04 #@! TO.C,R21*
X168875000Y-80100000D03*
X170525000Y-80100000D03*
G04 #@! TD*
D29*
G04 #@! TO.C,D21*
X174112500Y-80200000D03*
X175687500Y-80200000D03*
G04 #@! TD*
D15*
G04 #@! TO.C,R30*
X157475000Y-99000000D03*
X159125000Y-99000000D03*
G04 #@! TD*
D29*
G04 #@! TO.C,D30*
X163912500Y-99000000D03*
X165487500Y-99000000D03*
G04 #@! TD*
D15*
G04 #@! TO.C,R31*
X157375000Y-103500000D03*
X159025000Y-103500000D03*
G04 #@! TD*
D29*
G04 #@! TO.C,D31*
X163912500Y-103500000D03*
X165487500Y-103500000D03*
G04 #@! TD*
D15*
G04 #@! TO.C,R32*
X167875000Y-132000000D03*
X169525000Y-132000000D03*
G04 #@! TD*
D25*
G04 #@! TO.C,R41*
X69962500Y-41000000D03*
X67037500Y-41000000D03*
G04 #@! TD*
D30*
G04 #@! TO.C,D40*
X62500000Y-43437500D03*
X62500000Y-41562500D03*
G04 #@! TD*
D31*
G04 #@! TO.C,D41*
X57000000Y-40850000D03*
X57000000Y-44150000D03*
G04 #@! TD*
D32*
G04 #@! TO.C,RV1*
X45200000Y-65200000D03*
X43800000Y-72700000D03*
G04 #@! TD*
D27*
G04 #@! TO.C,D50*
X166050000Y-118500000D03*
X169350000Y-118500000D03*
G04 #@! TD*
G04 #@! TO.C,D51*
X166050000Y-125000000D03*
X169350000Y-125000000D03*
G04 #@! TD*
G04 #@! TO.C,D52*
X166050000Y-112500000D03*
X169350000Y-112500000D03*
G04 #@! TD*
D14*
G04 #@! TO.C,D82*
X112500000Y-127150000D03*
X112500000Y-128900000D03*
X116000000Y-128900000D03*
X116000000Y-127150000D03*
G04 #@! TD*
D33*
G04 #@! TO.C,R22*
X187900000Y-42625000D03*
X187900000Y-40975000D03*
G04 #@! TD*
D10*
G04 #@! TO.C,C71*
X120475000Y-75225000D03*
X122025000Y-75225000D03*
G04 #@! TD*
G04 #@! TO.C,C72*
X120475000Y-80025000D03*
X122025000Y-80025000D03*
G04 #@! TD*
D14*
G04 #@! TO.C,D78*
X112500000Y-107950000D03*
X112500000Y-109700000D03*
X116000000Y-109700000D03*
X116000000Y-107950000D03*
G04 #@! TD*
D34*
G04 #@! TO.C,MB1*
X83500000Y-33200000D03*
X83500000Y-34500000D03*
X83500000Y-35800000D03*
X83500000Y-37100000D03*
X83500000Y-138500000D03*
X83500000Y-139800000D03*
X83500000Y-141100000D03*
G04 #@! TD*
D35*
G04 #@! TO.C,K3*
X88000000Y-125000000D03*
D36*
X86050000Y-118950000D03*
D35*
X73850000Y-118950000D03*
X73800000Y-131000000D03*
D36*
X86050000Y-130950000D03*
G04 #@! TD*
D14*
G04 #@! TO.C,D71*
X112500000Y-74350000D03*
X112500000Y-76100000D03*
X116000000Y-76100000D03*
X116000000Y-74350000D03*
G04 #@! TD*
D37*
G04 #@! TO.C,U1*
X145950000Y-33940000D03*
X145950000Y-35210000D03*
X145950000Y-36480000D03*
X145950000Y-37750000D03*
X145950000Y-39020000D03*
X145950000Y-40290000D03*
X145950000Y-41560000D03*
X145950000Y-42830000D03*
X145950000Y-44100000D03*
X145950000Y-45370000D03*
X145950000Y-46640000D03*
X145950000Y-47910000D03*
X145950000Y-49180000D03*
D38*
X145950000Y-50450000D03*
D39*
X147715000Y-51700000D03*
X148985000Y-51700000D03*
X150255000Y-51700000D03*
X151525000Y-51700000D03*
X152795000Y-51700000D03*
X154065000Y-51700000D03*
X155335000Y-51700000D03*
X156605000Y-51700000D03*
X157875000Y-51700000D03*
X159145000Y-51700000D03*
X160415000Y-51700000D03*
X161685000Y-51700000D03*
D37*
X163450000Y-50450000D03*
X163450000Y-49180000D03*
X163450000Y-47910000D03*
X163450000Y-46640000D03*
X163450000Y-45370000D03*
X163450000Y-44100000D03*
X163450000Y-42830000D03*
X163450000Y-41560000D03*
X163450000Y-40290000D03*
X163450000Y-39020000D03*
X163450000Y-37750000D03*
X163450000Y-36480000D03*
X163450000Y-35210000D03*
X163450000Y-33940000D03*
D40*
X151800000Y-40960000D03*
X151800000Y-42360000D03*
X152500000Y-40260000D03*
X152500000Y-41660000D03*
X152500000Y-43060000D03*
X153200000Y-40960000D03*
D41*
X153200000Y-41660000D03*
D40*
X153200000Y-42360000D03*
X153900000Y-40260000D03*
X153900000Y-41660000D03*
X153900000Y-43060000D03*
X154600000Y-40960000D03*
D42*
X154600000Y-42360000D03*
G04 #@! TD*
D10*
G04 #@! TO.C,C61*
X167000000Y-71000000D03*
X168550000Y-71000000D03*
G04 #@! TD*
D43*
G04 #@! TO.C,J5*
X133900000Y-36680000D03*
D24*
X136440000Y-36680000D03*
X133900000Y-39220000D03*
X136440000Y-39220000D03*
X133900000Y-41760000D03*
X136440000Y-41760000D03*
X133900000Y-44300000D03*
X136440000Y-44300000D03*
X133900000Y-46840000D03*
X136440000Y-46840000D03*
X133900000Y-49380000D03*
X136440000Y-49380000D03*
X133900000Y-51920000D03*
X136440000Y-51920000D03*
X133900000Y-54460000D03*
X136440000Y-54460000D03*
X133900000Y-57000000D03*
X136440000Y-57000000D03*
X133900000Y-59540000D03*
X136440000Y-59540000D03*
G04 #@! TD*
D14*
G04 #@! TO.C,D65*
X112500000Y-45550000D03*
X112500000Y-47300000D03*
X116000000Y-47300000D03*
X116000000Y-45550000D03*
G04 #@! TD*
D44*
G04 #@! TO.C,X6*
X193700000Y-129990000D03*
X193700000Y-124210000D03*
D45*
X192255000Y-130350000D03*
X192255000Y-129550000D03*
D46*
X192255000Y-128350000D03*
X192255000Y-127350000D03*
X192255000Y-126850000D03*
X192255000Y-125850000D03*
D45*
X192255000Y-124650000D03*
X192255000Y-123850000D03*
X192255000Y-123850000D03*
X192255000Y-124650000D03*
D46*
X192255000Y-125350000D03*
X192255000Y-126350000D03*
X192255000Y-127850000D03*
X192255000Y-128850000D03*
D45*
X192255000Y-129550000D03*
X192255000Y-130350000D03*
D47*
X193170000Y-131420000D03*
D48*
X197350000Y-131420000D03*
D47*
X193170000Y-122780000D03*
D48*
X197350000Y-122780000D03*
G04 #@! TD*
D10*
G04 #@! TO.C,C75*
X120475000Y-94425000D03*
X122025000Y-94425000D03*
G04 #@! TD*
G04 #@! TO.C,C66*
X120475000Y-51225000D03*
X122025000Y-51225000D03*
G04 #@! TD*
D14*
G04 #@! TO.C,D67*
X112500000Y-55150000D03*
X112500000Y-56900000D03*
X116000000Y-56900000D03*
X116000000Y-55150000D03*
G04 #@! TD*
D10*
G04 #@! TO.C,C73*
X120475000Y-84825000D03*
X122025000Y-84825000D03*
G04 #@! TD*
D14*
G04 #@! TO.C,D63*
X160250000Y-71125000D03*
X160250000Y-72875000D03*
X163750000Y-72875000D03*
X163750000Y-71125000D03*
G04 #@! TD*
G04 #@! TO.C,D75*
X112500000Y-93550000D03*
X112500000Y-95300000D03*
X116000000Y-95300000D03*
X116000000Y-93550000D03*
G04 #@! TD*
D15*
G04 #@! TO.C,R60*
X152075000Y-58400000D03*
X153725000Y-58400000D03*
G04 #@! TD*
D49*
G04 #@! TO.C,H1*
X44500000Y-37000000D03*
G04 #@! TD*
D15*
G04 #@! TO.C,R33*
X142075000Y-36500000D03*
X143725000Y-36500000D03*
G04 #@! TD*
D10*
G04 #@! TO.C,C23*
X186650000Y-48000000D03*
X188200000Y-48000000D03*
G04 #@! TD*
D50*
G04 #@! TO.C,U3*
X184500000Y-55925000D03*
X184500000Y-55275000D03*
X184500000Y-54625000D03*
X184500000Y-53975000D03*
X184500000Y-53325000D03*
X184500000Y-52675000D03*
X184500000Y-52025000D03*
X184500000Y-51375000D03*
X184500000Y-50725000D03*
X184500000Y-50075000D03*
X177500000Y-50075000D03*
X177500000Y-50725000D03*
X177500000Y-51375000D03*
X177500000Y-52025000D03*
X177500000Y-52675000D03*
X177500000Y-53325000D03*
X177500000Y-53975000D03*
X177500000Y-54625000D03*
X177500000Y-55275000D03*
X177500000Y-55925000D03*
G04 #@! TD*
D14*
G04 #@! TO.C,D60*
X150250000Y-61125000D03*
X150250000Y-62875000D03*
X153750000Y-62875000D03*
X153750000Y-61125000D03*
G04 #@! TD*
D49*
G04 #@! TO.C,H2*
X195500000Y-36200000D03*
G04 #@! TD*
D10*
G04 #@! TO.C,C82*
X120475000Y-128025000D03*
X122025000Y-128025000D03*
G04 #@! TD*
D14*
G04 #@! TO.C,D76*
X112500000Y-98350000D03*
X112500000Y-100100000D03*
X116000000Y-100100000D03*
X116000000Y-98350000D03*
G04 #@! TD*
G04 #@! TO.C,D66*
X112500000Y-50350000D03*
X112500000Y-52100000D03*
X116000000Y-52100000D03*
X116000000Y-50350000D03*
G04 #@! TD*
D10*
G04 #@! TO.C,C70*
X120475000Y-70425000D03*
X122025000Y-70425000D03*
G04 #@! TD*
D14*
G04 #@! TO.C,D70*
X112500000Y-69550000D03*
X112500000Y-71300000D03*
X116000000Y-71300000D03*
X116000000Y-69550000D03*
G04 #@! TD*
D10*
G04 #@! TO.C,C63*
X166725000Y-61000000D03*
X168275000Y-61000000D03*
G04 #@! TD*
G04 #@! TO.C,C65*
X120475000Y-46425000D03*
X122025000Y-46425000D03*
G04 #@! TD*
D49*
G04 #@! TO.C,J1*
X195000000Y-85500000D03*
X195000000Y-74070000D03*
D51*
X188650000Y-84230000D03*
D52*
X186110000Y-82960000D03*
X188650000Y-81690000D03*
X186110000Y-80420000D03*
X188650000Y-79150000D03*
X186110000Y-77880000D03*
X188650000Y-76610000D03*
X186110000Y-75340000D03*
G04 #@! TD*
D10*
G04 #@! TO.C,C60*
X156000000Y-71000000D03*
X157550000Y-71000000D03*
G04 #@! TD*
D49*
G04 #@! TO.C,J2*
X195000000Y-102500000D03*
X195000000Y-91070000D03*
D51*
X188650000Y-101230000D03*
D52*
X186110000Y-99960000D03*
X188650000Y-98690000D03*
X186110000Y-97420000D03*
X188650000Y-96150000D03*
X186110000Y-94880000D03*
X188650000Y-93610000D03*
X186110000Y-92340000D03*
G04 #@! TD*
D14*
G04 #@! TO.C,D69*
X112500000Y-64750000D03*
X112500000Y-66500000D03*
X116000000Y-66500000D03*
X116000000Y-64750000D03*
G04 #@! TD*
D10*
G04 #@! TO.C,C78*
X120475000Y-108825000D03*
X122025000Y-108825000D03*
G04 #@! TD*
G04 #@! TO.C,C83*
X120475000Y-132825000D03*
X122025000Y-132825000D03*
G04 #@! TD*
D49*
G04 #@! TO.C,H3*
X45900000Y-136600000D03*
G04 #@! TD*
D14*
G04 #@! TO.C,D83*
X112500000Y-131950000D03*
X112500000Y-133700000D03*
X116000000Y-133700000D03*
X116000000Y-131950000D03*
G04 #@! TD*
D10*
G04 #@! TO.C,C79*
X120475000Y-113625000D03*
X122025000Y-113625000D03*
G04 #@! TD*
D53*
G04 #@! TO.C,SW1*
X134100000Y-76300000D03*
X140100000Y-76300000D03*
G04 #@! TD*
D14*
G04 #@! TO.C,D81*
X112500000Y-122350000D03*
X112500000Y-124100000D03*
X116000000Y-124100000D03*
X116000000Y-122350000D03*
G04 #@! TD*
D10*
G04 #@! TO.C,C22*
X183425000Y-35500000D03*
X184975000Y-35500000D03*
G04 #@! TD*
G04 #@! TO.C,C76*
X120475000Y-99225000D03*
X122025000Y-99225000D03*
G04 #@! TD*
G04 #@! TO.C,C74*
X120475000Y-89625000D03*
X122025000Y-89625000D03*
G04 #@! TD*
G04 #@! TO.C,C69*
X120475000Y-65625000D03*
X122025000Y-65625000D03*
G04 #@! TD*
G04 #@! TO.C,C77*
X120475000Y-104025000D03*
X122025000Y-104025000D03*
G04 #@! TD*
D14*
G04 #@! TO.C,D62*
X150250000Y-71125000D03*
X150250000Y-72875000D03*
X153750000Y-72875000D03*
X153750000Y-71125000D03*
G04 #@! TD*
D49*
G04 #@! TO.C,H4*
X194500000Y-137900000D03*
G04 #@! TD*
D35*
G04 #@! TO.C,K1*
X88000000Y-83000000D03*
D36*
X86050000Y-76950000D03*
D35*
X73850000Y-76950000D03*
X73800000Y-89000000D03*
D36*
X86050000Y-88950000D03*
G04 #@! TD*
D33*
G04 #@! TO.C,R23*
X188400000Y-52025000D03*
X188400000Y-50375000D03*
G04 #@! TD*
D14*
G04 #@! TO.C,D61*
X160250000Y-61125000D03*
X160250000Y-62875000D03*
X163750000Y-62875000D03*
X163750000Y-61125000D03*
G04 #@! TD*
D10*
G04 #@! TO.C,C80*
X120475000Y-118425000D03*
X122025000Y-118425000D03*
G04 #@! TD*
D35*
G04 #@! TO.C,K2*
X88000000Y-105000000D03*
D36*
X86050000Y-98950000D03*
D35*
X73850000Y-98950000D03*
X73800000Y-111000000D03*
D36*
X86050000Y-110950000D03*
G04 #@! TD*
D14*
G04 #@! TO.C,D68*
X112500000Y-59950000D03*
X112500000Y-61700000D03*
X116000000Y-61700000D03*
X116000000Y-59950000D03*
G04 #@! TD*
G04 #@! TO.C,D80*
X112500000Y-117550000D03*
X112500000Y-119300000D03*
X116000000Y-119300000D03*
X116000000Y-117550000D03*
G04 #@! TD*
D10*
G04 #@! TO.C,C67*
X120475000Y-56025000D03*
X122025000Y-56025000D03*
G04 #@! TD*
D14*
G04 #@! TO.C,D74*
X112500000Y-88750000D03*
X112500000Y-90500000D03*
X116000000Y-90500000D03*
X116000000Y-88750000D03*
G04 #@! TD*
G04 #@! TO.C,D79*
X112500000Y-112750000D03*
X112500000Y-114500000D03*
X116000000Y-114500000D03*
X116000000Y-112750000D03*
G04 #@! TD*
D10*
G04 #@! TO.C,C64*
X120475000Y-41625000D03*
X122025000Y-41625000D03*
G04 #@! TD*
D50*
G04 #@! TO.C,U2*
X184500000Y-45925000D03*
X184500000Y-45275000D03*
X184500000Y-44625000D03*
X184500000Y-43975000D03*
X184500000Y-43325000D03*
X184500000Y-42675000D03*
X184500000Y-42025000D03*
X184500000Y-41375000D03*
X184500000Y-40725000D03*
X184500000Y-40075000D03*
X177500000Y-40075000D03*
X177500000Y-40725000D03*
X177500000Y-41375000D03*
X177500000Y-42025000D03*
X177500000Y-42675000D03*
X177500000Y-43325000D03*
X177500000Y-43975000D03*
X177500000Y-44625000D03*
X177500000Y-45275000D03*
X177500000Y-45925000D03*
G04 #@! TD*
D10*
G04 #@! TO.C,C68*
X120475000Y-60825000D03*
X122025000Y-60825000D03*
G04 #@! TD*
D14*
G04 #@! TO.C,D73*
X112500000Y-83950000D03*
X112500000Y-85700000D03*
X116000000Y-85700000D03*
X116000000Y-83950000D03*
G04 #@! TD*
G04 #@! TO.C,D72*
X112500000Y-79150000D03*
X112500000Y-80900000D03*
X116000000Y-80900000D03*
X116000000Y-79150000D03*
G04 #@! TD*
G04 #@! TO.C,D64*
X112500000Y-40750000D03*
X112500000Y-42500000D03*
X116000000Y-42500000D03*
X116000000Y-40750000D03*
G04 #@! TD*
M02*
