G04 #@! TF.GenerationSoftware,KiCad,Pcbnew,10.0.4*
G04 #@! TF.CreationDate,2026-06-26T22:22:03+02:00*
G04 #@! TF.ProjectId,pumpengruppe-rs485,70756d70-656e-4677-9275-7070652d7273,A-preliminary*
G04 #@! TF.SameCoordinates,Original*
G04 #@! TF.FileFunction,OtherDrawing,Comment*
%FSLAX46Y46*%
G04 Gerber Fmt 4.6, Leading zero omitted, Abs format (unit mm)*
G04 Created by KiCad (PCBNEW 10.0.4) date 2026-06-26 22:22:03*
%MOMM*%
%LPD*%
G01*
G04 APERTURE LIST*
%ADD10C,0.300000*%
%ADD11C,0.150000*%
G04 APERTURE END LIST*
D10*
X110000000Y-32500000D02*
X110000000Y-35800000D01*
X110000000Y-37000000D02*
X110000000Y-40300000D01*
X110000000Y-41500000D02*
X110000000Y-44800000D01*
X110000000Y-46000000D02*
X110000000Y-49300000D01*
X110000000Y-50500000D02*
X110000000Y-53800000D01*
X110000000Y-55000000D02*
X110000000Y-58300000D01*
X110000000Y-59500000D02*
X110000000Y-62800000D01*
X110000000Y-64000000D02*
X110000000Y-67300000D01*
X110000000Y-68500000D02*
X110000000Y-71800000D01*
X110000000Y-73000000D02*
X110000000Y-76300000D01*
X110000000Y-77500000D02*
X110000000Y-80800000D01*
X110000000Y-82000000D02*
X110000000Y-85300000D01*
X110000000Y-86500000D02*
X110000000Y-89800000D01*
X110000000Y-91000000D02*
X110000000Y-94300000D01*
X110000000Y-95500000D02*
X110000000Y-98800000D01*
X110000000Y-100000000D02*
X110000000Y-103300000D01*
X110000000Y-104500000D02*
X110000000Y-107800000D01*
X110000000Y-109000000D02*
X110000000Y-112300000D01*
X110000000Y-113500000D02*
X110000000Y-116800000D01*
X110000000Y-118000000D02*
X110000000Y-121300000D01*
X110000000Y-122500000D02*
X110000000Y-125800000D01*
X110000000Y-127000000D02*
X110000000Y-130300000D01*
X110000000Y-131500000D02*
X110000000Y-134800000D01*
X110000000Y-136000000D02*
X110000000Y-139300000D01*
D11*
X110847342Y-136787030D02*
X110847342Y-136101316D01*
X112047342Y-136444173D02*
X110847342Y-136444173D01*
X111418771Y-135701315D02*
X111418771Y-135301315D01*
X112047342Y-135129887D02*
X112047342Y-135701315D01*
X112047342Y-135701315D02*
X110847342Y-135701315D01*
X110847342Y-135701315D02*
X110847342Y-135129887D01*
X112047342Y-134615601D02*
X110847342Y-134615601D01*
X110847342Y-134615601D02*
X111704485Y-134215601D01*
X111704485Y-134215601D02*
X110847342Y-133815601D01*
X110847342Y-133815601D02*
X112047342Y-133815601D01*
X112047342Y-133244172D02*
X110847342Y-133244172D01*
X110847342Y-133244172D02*
X110847342Y-132787029D01*
X110847342Y-132787029D02*
X110904485Y-132672744D01*
X110904485Y-132672744D02*
X110961628Y-132615601D01*
X110961628Y-132615601D02*
X111075914Y-132558458D01*
X111075914Y-132558458D02*
X111247342Y-132558458D01*
X111247342Y-132558458D02*
X111361628Y-132615601D01*
X111361628Y-132615601D02*
X111418771Y-132672744D01*
X111418771Y-132672744D02*
X111475914Y-132787029D01*
X111475914Y-132787029D02*
X111475914Y-133244172D01*
X112047342Y-131129886D02*
X110847342Y-131129886D01*
X112047342Y-130558457D02*
X110847342Y-130558457D01*
X110847342Y-130558457D02*
X112047342Y-129872743D01*
X112047342Y-129872743D02*
X110847342Y-129872743D01*
X112047342Y-129301314D02*
X110847342Y-129301314D01*
X110847342Y-129301314D02*
X110847342Y-128844171D01*
X110847342Y-128844171D02*
X110904485Y-128729886D01*
X110904485Y-128729886D02*
X110961628Y-128672743D01*
X110961628Y-128672743D02*
X111075914Y-128615600D01*
X111075914Y-128615600D02*
X111247342Y-128615600D01*
X111247342Y-128615600D02*
X111361628Y-128672743D01*
X111361628Y-128672743D02*
X111418771Y-128729886D01*
X111418771Y-128729886D02*
X111475914Y-128844171D01*
X111475914Y-128844171D02*
X111475914Y-129301314D01*
X110847342Y-128101314D02*
X111818771Y-128101314D01*
X111818771Y-128101314D02*
X111933057Y-128044171D01*
X111933057Y-128044171D02*
X111990200Y-127987029D01*
X111990200Y-127987029D02*
X112047342Y-127872743D01*
X112047342Y-127872743D02*
X112047342Y-127644171D01*
X112047342Y-127644171D02*
X111990200Y-127529886D01*
X111990200Y-127529886D02*
X111933057Y-127472743D01*
X111933057Y-127472743D02*
X111818771Y-127415600D01*
X111818771Y-127415600D02*
X110847342Y-127415600D01*
X110847342Y-127015600D02*
X110847342Y-126329886D01*
X112047342Y-126672743D02*
X110847342Y-126672743D01*
X110847342Y-125187028D02*
X112047342Y-124787028D01*
X112047342Y-124787028D02*
X110847342Y-124387028D01*
X111704485Y-124044171D02*
X111704485Y-123472743D01*
X112047342Y-124158457D02*
X110847342Y-123758457D01*
X110847342Y-123758457D02*
X112047342Y-123358457D01*
X112047342Y-122272743D02*
X111475914Y-122672743D01*
X112047342Y-122958457D02*
X110847342Y-122958457D01*
X110847342Y-122958457D02*
X110847342Y-122501314D01*
X110847342Y-122501314D02*
X110904485Y-122387029D01*
X110904485Y-122387029D02*
X110961628Y-122329886D01*
X110961628Y-122329886D02*
X111075914Y-122272743D01*
X111075914Y-122272743D02*
X111247342Y-122272743D01*
X111247342Y-122272743D02*
X111361628Y-122329886D01*
X111361628Y-122329886D02*
X111418771Y-122387029D01*
X111418771Y-122387029D02*
X111475914Y-122501314D01*
X111475914Y-122501314D02*
X111475914Y-122958457D01*
X112047342Y-121758457D02*
X110847342Y-121758457D01*
X111704485Y-121244171D02*
X111704485Y-120672743D01*
X112047342Y-121358457D02*
X110847342Y-120958457D01*
X110847342Y-120958457D02*
X112047342Y-120558457D01*
X112047342Y-120158457D02*
X110847342Y-120158457D01*
X110847342Y-120158457D02*
X112047342Y-119472743D01*
X112047342Y-119472743D02*
X110847342Y-119472743D01*
X110847342Y-119072743D02*
X110847342Y-118387029D01*
X112047342Y-118729886D02*
X110847342Y-118729886D01*
X111933057Y-117987028D02*
X111990200Y-117929885D01*
X111990200Y-117929885D02*
X112047342Y-117987028D01*
X112047342Y-117987028D02*
X111990200Y-118044171D01*
X111990200Y-118044171D02*
X111933057Y-117987028D01*
X111933057Y-117987028D02*
X112047342Y-117987028D01*
X111304485Y-117987028D02*
X111361628Y-117929885D01*
X111361628Y-117929885D02*
X111418771Y-117987028D01*
X111418771Y-117987028D02*
X111361628Y-118044171D01*
X111361628Y-118044171D02*
X111304485Y-117987028D01*
X111304485Y-117987028D02*
X111418771Y-117987028D01*
X112047342Y-115929885D02*
X112047342Y-116501313D01*
X112047342Y-116501313D02*
X110847342Y-116501313D01*
X111418771Y-115529884D02*
X111418771Y-115129884D01*
X112047342Y-114958456D02*
X112047342Y-115529884D01*
X112047342Y-115529884D02*
X110847342Y-115529884D01*
X110847342Y-115529884D02*
X110847342Y-114958456D01*
X111418771Y-114044170D02*
X111418771Y-114444170D01*
X112047342Y-114444170D02*
X110847342Y-114444170D01*
X110847342Y-114444170D02*
X110847342Y-113872742D01*
X110847342Y-113587028D02*
X110847342Y-112901314D01*
X112047342Y-113244171D02*
X110847342Y-113244171D01*
X110961628Y-111644170D02*
X110904485Y-111587027D01*
X110904485Y-111587027D02*
X110847342Y-111472742D01*
X110847342Y-111472742D02*
X110847342Y-111187027D01*
X110847342Y-111187027D02*
X110904485Y-111072742D01*
X110904485Y-111072742D02*
X110961628Y-111015599D01*
X110961628Y-111015599D02*
X111075914Y-110958456D01*
X111075914Y-110958456D02*
X111190200Y-110958456D01*
X111190200Y-110958456D02*
X111361628Y-111015599D01*
X111361628Y-111015599D02*
X112047342Y-111701313D01*
X112047342Y-111701313D02*
X112047342Y-110958456D01*
X110847342Y-110558456D02*
X110847342Y-109815599D01*
X110847342Y-109815599D02*
X111304485Y-110215599D01*
X111304485Y-110215599D02*
X111304485Y-110044170D01*
X111304485Y-110044170D02*
X111361628Y-109929885D01*
X111361628Y-109929885D02*
X111418771Y-109872742D01*
X111418771Y-109872742D02*
X111533057Y-109815599D01*
X111533057Y-109815599D02*
X111818771Y-109815599D01*
X111818771Y-109815599D02*
X111933057Y-109872742D01*
X111933057Y-109872742D02*
X111990200Y-109929885D01*
X111990200Y-109929885D02*
X112047342Y-110044170D01*
X112047342Y-110044170D02*
X112047342Y-110387027D01*
X112047342Y-110387027D02*
X111990200Y-110501313D01*
X111990200Y-110501313D02*
X111933057Y-110558456D01*
X110847342Y-109072742D02*
X110847342Y-108958456D01*
X110847342Y-108958456D02*
X110904485Y-108844170D01*
X110904485Y-108844170D02*
X110961628Y-108787028D01*
X110961628Y-108787028D02*
X111075914Y-108729885D01*
X111075914Y-108729885D02*
X111304485Y-108672742D01*
X111304485Y-108672742D02*
X111590200Y-108672742D01*
X111590200Y-108672742D02*
X111818771Y-108729885D01*
X111818771Y-108729885D02*
X111933057Y-108787028D01*
X111933057Y-108787028D02*
X111990200Y-108844170D01*
X111990200Y-108844170D02*
X112047342Y-108958456D01*
X112047342Y-108958456D02*
X112047342Y-109072742D01*
X112047342Y-109072742D02*
X111990200Y-109187028D01*
X111990200Y-109187028D02*
X111933057Y-109244170D01*
X111933057Y-109244170D02*
X111818771Y-109301313D01*
X111818771Y-109301313D02*
X111590200Y-109358456D01*
X111590200Y-109358456D02*
X111304485Y-109358456D01*
X111304485Y-109358456D02*
X111075914Y-109301313D01*
X111075914Y-109301313D02*
X110961628Y-109244170D01*
X110961628Y-109244170D02*
X110904485Y-109187028D01*
X110904485Y-109187028D02*
X110847342Y-109072742D01*
X110847342Y-108329885D02*
X112047342Y-107929885D01*
X112047342Y-107929885D02*
X110847342Y-107529885D01*
X110790200Y-106272742D02*
X112333057Y-107301314D01*
X112047342Y-105187028D02*
X111475914Y-105587028D01*
X112047342Y-105872742D02*
X110847342Y-105872742D01*
X110847342Y-105872742D02*
X110847342Y-105415599D01*
X110847342Y-105415599D02*
X110904485Y-105301314D01*
X110904485Y-105301314D02*
X110961628Y-105244171D01*
X110961628Y-105244171D02*
X111075914Y-105187028D01*
X111075914Y-105187028D02*
X111247342Y-105187028D01*
X111247342Y-105187028D02*
X111361628Y-105244171D01*
X111361628Y-105244171D02*
X111418771Y-105301314D01*
X111418771Y-105301314D02*
X111475914Y-105415599D01*
X111475914Y-105415599D02*
X111475914Y-105872742D01*
X111418771Y-104672742D02*
X111418771Y-104272742D01*
X112047342Y-104101314D02*
X112047342Y-104672742D01*
X112047342Y-104672742D02*
X110847342Y-104672742D01*
X110847342Y-104672742D02*
X110847342Y-104101314D01*
X112047342Y-103015600D02*
X112047342Y-103587028D01*
X112047342Y-103587028D02*
X110847342Y-103587028D01*
X111704485Y-102672742D02*
X111704485Y-102101314D01*
X112047342Y-102787028D02*
X110847342Y-102387028D01*
X110847342Y-102387028D02*
X112047342Y-101987028D01*
X111475914Y-101358457D02*
X112047342Y-101358457D01*
X110847342Y-101758457D02*
X111475914Y-101358457D01*
X111475914Y-101358457D02*
X110847342Y-100958457D01*
X111990200Y-99701314D02*
X112047342Y-99529886D01*
X112047342Y-99529886D02*
X112047342Y-99244171D01*
X112047342Y-99244171D02*
X111990200Y-99129886D01*
X111990200Y-99129886D02*
X111933057Y-99072743D01*
X111933057Y-99072743D02*
X111818771Y-99015600D01*
X111818771Y-99015600D02*
X111704485Y-99015600D01*
X111704485Y-99015600D02*
X111590200Y-99072743D01*
X111590200Y-99072743D02*
X111533057Y-99129886D01*
X111533057Y-99129886D02*
X111475914Y-99244171D01*
X111475914Y-99244171D02*
X111418771Y-99472743D01*
X111418771Y-99472743D02*
X111361628Y-99587028D01*
X111361628Y-99587028D02*
X111304485Y-99644171D01*
X111304485Y-99644171D02*
X111190200Y-99701314D01*
X111190200Y-99701314D02*
X111075914Y-99701314D01*
X111075914Y-99701314D02*
X110961628Y-99644171D01*
X110961628Y-99644171D02*
X110904485Y-99587028D01*
X110904485Y-99587028D02*
X110847342Y-99472743D01*
X110847342Y-99472743D02*
X110847342Y-99187028D01*
X110847342Y-99187028D02*
X110904485Y-99015600D01*
X111418771Y-98501314D02*
X111418771Y-98101314D01*
X112047342Y-97929886D02*
X112047342Y-98501314D01*
X112047342Y-98501314D02*
X110847342Y-98501314D01*
X110847342Y-98501314D02*
X110847342Y-97929886D01*
X111933057Y-96729886D02*
X111990200Y-96787029D01*
X111990200Y-96787029D02*
X112047342Y-96958457D01*
X112047342Y-96958457D02*
X112047342Y-97072743D01*
X112047342Y-97072743D02*
X111990200Y-97244172D01*
X111990200Y-97244172D02*
X111875914Y-97358457D01*
X111875914Y-97358457D02*
X111761628Y-97415600D01*
X111761628Y-97415600D02*
X111533057Y-97472743D01*
X111533057Y-97472743D02*
X111361628Y-97472743D01*
X111361628Y-97472743D02*
X111133057Y-97415600D01*
X111133057Y-97415600D02*
X111018771Y-97358457D01*
X111018771Y-97358457D02*
X110904485Y-97244172D01*
X110904485Y-97244172D02*
X110847342Y-97072743D01*
X110847342Y-97072743D02*
X110847342Y-96958457D01*
X110847342Y-96958457D02*
X110904485Y-96787029D01*
X110904485Y-96787029D02*
X110961628Y-96729886D01*
X110847342Y-96387029D02*
X110847342Y-95701315D01*
X112047342Y-96044172D02*
X110847342Y-96044172D01*
X112047342Y-95301314D02*
X110847342Y-95301314D01*
X110847342Y-94501314D02*
X110847342Y-94272742D01*
X110847342Y-94272742D02*
X110904485Y-94158457D01*
X110904485Y-94158457D02*
X111018771Y-94044171D01*
X111018771Y-94044171D02*
X111247342Y-93987028D01*
X111247342Y-93987028D02*
X111647342Y-93987028D01*
X111647342Y-93987028D02*
X111875914Y-94044171D01*
X111875914Y-94044171D02*
X111990200Y-94158457D01*
X111990200Y-94158457D02*
X112047342Y-94272742D01*
X112047342Y-94272742D02*
X112047342Y-94501314D01*
X112047342Y-94501314D02*
X111990200Y-94615600D01*
X111990200Y-94615600D02*
X111875914Y-94729885D01*
X111875914Y-94729885D02*
X111647342Y-94787028D01*
X111647342Y-94787028D02*
X111247342Y-94787028D01*
X111247342Y-94787028D02*
X111018771Y-94729885D01*
X111018771Y-94729885D02*
X110904485Y-94615600D01*
X110904485Y-94615600D02*
X110847342Y-94501314D01*
X112047342Y-93472742D02*
X110847342Y-93472742D01*
X110847342Y-93472742D02*
X112047342Y-92787028D01*
X112047342Y-92787028D02*
X110847342Y-92787028D01*
X112047342Y-91301313D02*
X110847342Y-91301313D01*
X110847342Y-91301313D02*
X110847342Y-91015599D01*
X110847342Y-91015599D02*
X110904485Y-90844170D01*
X110904485Y-90844170D02*
X111018771Y-90729885D01*
X111018771Y-90729885D02*
X111133057Y-90672742D01*
X111133057Y-90672742D02*
X111361628Y-90615599D01*
X111361628Y-90615599D02*
X111533057Y-90615599D01*
X111533057Y-90615599D02*
X111761628Y-90672742D01*
X111761628Y-90672742D02*
X111875914Y-90729885D01*
X111875914Y-90729885D02*
X111990200Y-90844170D01*
X111990200Y-90844170D02*
X112047342Y-91015599D01*
X112047342Y-91015599D02*
X112047342Y-91301313D01*
X112047342Y-90101313D02*
X110847342Y-90101313D01*
X110847342Y-90101313D02*
X112047342Y-89415599D01*
X112047342Y-89415599D02*
X110847342Y-89415599D01*
X112047342Y-88844170D02*
X110847342Y-88844170D01*
X110847342Y-88844170D02*
X110847342Y-88387027D01*
X110847342Y-88387027D02*
X110904485Y-88272742D01*
X110904485Y-88272742D02*
X110961628Y-88215599D01*
X110961628Y-88215599D02*
X111075914Y-88158456D01*
X111075914Y-88158456D02*
X111247342Y-88158456D01*
X111247342Y-88158456D02*
X111361628Y-88215599D01*
X111361628Y-88215599D02*
X111418771Y-88272742D01*
X111418771Y-88272742D02*
X111475914Y-88387027D01*
X111475914Y-88387027D02*
X111475914Y-88844170D01*
X110790200Y-85872741D02*
X112333057Y-86901313D01*
X111418771Y-84158455D02*
X111475914Y-83987027D01*
X111475914Y-83987027D02*
X111533057Y-83929884D01*
X111533057Y-83929884D02*
X111647342Y-83872741D01*
X111647342Y-83872741D02*
X111818771Y-83872741D01*
X111818771Y-83872741D02*
X111933057Y-83929884D01*
X111933057Y-83929884D02*
X111990200Y-83987027D01*
X111990200Y-83987027D02*
X112047342Y-84101312D01*
X112047342Y-84101312D02*
X112047342Y-84558455D01*
X112047342Y-84558455D02*
X110847342Y-84558455D01*
X110847342Y-84558455D02*
X110847342Y-84158455D01*
X110847342Y-84158455D02*
X110904485Y-84044170D01*
X110904485Y-84044170D02*
X110961628Y-83987027D01*
X110961628Y-83987027D02*
X111075914Y-83929884D01*
X111075914Y-83929884D02*
X111190200Y-83929884D01*
X111190200Y-83929884D02*
X111304485Y-83987027D01*
X111304485Y-83987027D02*
X111361628Y-84044170D01*
X111361628Y-84044170D02*
X111418771Y-84158455D01*
X111418771Y-84158455D02*
X111418771Y-84558455D01*
X112047342Y-82672741D02*
X111475914Y-83072741D01*
X112047342Y-83358455D02*
X110847342Y-83358455D01*
X110847342Y-83358455D02*
X110847342Y-82901312D01*
X110847342Y-82901312D02*
X110904485Y-82787027D01*
X110904485Y-82787027D02*
X110961628Y-82729884D01*
X110961628Y-82729884D02*
X111075914Y-82672741D01*
X111075914Y-82672741D02*
X111247342Y-82672741D01*
X111247342Y-82672741D02*
X111361628Y-82729884D01*
X111361628Y-82729884D02*
X111418771Y-82787027D01*
X111418771Y-82787027D02*
X111475914Y-82901312D01*
X111475914Y-82901312D02*
X111475914Y-83358455D01*
X111418771Y-82158455D02*
X111418771Y-81758455D01*
X112047342Y-81587027D02*
X112047342Y-82158455D01*
X112047342Y-82158455D02*
X110847342Y-82158455D01*
X110847342Y-82158455D02*
X110847342Y-81587027D01*
X111704485Y-81129884D02*
X111704485Y-80558456D01*
X112047342Y-81244170D02*
X110847342Y-80844170D01*
X110847342Y-80844170D02*
X112047342Y-80444170D01*
X112047342Y-80044170D02*
X110847342Y-80044170D01*
X112047342Y-79358456D02*
X111361628Y-79872742D01*
X110847342Y-79358456D02*
X111533057Y-80044170D01*
X111704485Y-78901313D02*
X111704485Y-78329885D01*
X112047342Y-79015599D02*
X110847342Y-78615599D01*
X110847342Y-78615599D02*
X112047342Y-78215599D01*
X110847342Y-77929885D02*
X112047342Y-77644171D01*
X112047342Y-77644171D02*
X111190200Y-77415599D01*
X111190200Y-77415599D02*
X112047342Y-77187028D01*
X112047342Y-77187028D02*
X110847342Y-76901314D01*
X111704485Y-76501313D02*
X111704485Y-75929885D01*
X112047342Y-76615599D02*
X110847342Y-76215599D01*
X110847342Y-76215599D02*
X112047342Y-75815599D01*
X111475914Y-75187028D02*
X112047342Y-75187028D01*
X110847342Y-75587028D02*
X111475914Y-75187028D01*
X111475914Y-75187028D02*
X110847342Y-74787028D01*
X112047342Y-72901314D02*
X112047342Y-73472742D01*
X112047342Y-73472742D02*
X110847342Y-73472742D01*
X112047342Y-72501313D02*
X110847342Y-72501313D01*
X112047342Y-71929884D02*
X110847342Y-71929884D01*
X110847342Y-71929884D02*
X112047342Y-71244170D01*
X112047342Y-71244170D02*
X110847342Y-71244170D01*
X111418771Y-70672741D02*
X111418771Y-70272741D01*
X112047342Y-70101313D02*
X112047342Y-70672741D01*
X112047342Y-70672741D02*
X110847342Y-70672741D01*
X110847342Y-70672741D02*
X110847342Y-70101313D01*
M02*
