G04 #@! TF.GenerationSoftware,KiCad,Pcbnew,10.0.4*
G04 #@! TF.CreationDate,2026-06-25T12:03:32+02:00*
G04 #@! TF.ProjectId,pumpengruppe-rs485,70756d70-656e-4677-9275-7070652d7273,A-preliminary*
G04 #@! TF.SameCoordinates,Original*
G04 #@! TF.FileFunction,Paste,Top*
G04 #@! TF.FilePolarity,Positive*
%FSLAX46Y46*%
G04 Gerber Fmt 4.6, Leading zero omitted, Abs format (unit mm)*
G04 Created by KiCad (PCBNEW 10.0.4) date 2026-06-25 12:03:32*
%MOMM*%
%LPD*%
G01*
G04 APERTURE LIST*
%ADD10R,2.000000X1.000000*%
%ADD11R,1.200000X2.000000*%
%ADD12R,3.500000X2.500000*%
%ADD13R,1.500000X0.550000*%
%ADD14R,1.500000X0.600000*%
%ADD15R,0.450000X1.200000*%
%ADD16R,1.000000X0.400000*%
%ADD17R,0.800000X0.800000*%
%ADD18R,1.200000X1.600000*%
%ADD19R,1.800000X2.500000*%
%ADD20R,1.200000X1.200000*%
%ADD21R,0.800000X0.550000*%
%ADD22R,0.800000X0.650000*%
%ADD23R,0.900000X1.200000*%
G04 APERTURE END LIST*
D10*
G04 #@! TO.C,U1*
X146000000Y-50500000D03*
X146000000Y-53000000D03*
X172000000Y-42500000D03*
X172000000Y-45000000D03*
X172000000Y-47500000D03*
X146000000Y-55500000D03*
X146000000Y-58000000D03*
X146000000Y-60500000D03*
X172000000Y-54500000D03*
X172000000Y-57000000D03*
X172000000Y-59500000D03*
G04 #@! TD*
D11*
G04 #@! TO.C,U5*
X137000000Y-59800000D03*
X139300000Y-59800000D03*
X141600000Y-59800000D03*
D12*
X139300000Y-55200000D03*
G04 #@! TD*
D13*
G04 #@! TO.C,U2*
X146700000Y-96000000D03*
X146700000Y-97000000D03*
X146700000Y-103000000D03*
X156900000Y-103000000D03*
X156900000Y-102000000D03*
X156900000Y-101000000D03*
X156900000Y-96000000D03*
G04 #@! TD*
G04 #@! TO.C,U3*
X146700000Y-114000000D03*
X146700000Y-115000000D03*
X146700000Y-121000000D03*
X156900000Y-121000000D03*
X156900000Y-120000000D03*
X156900000Y-119000000D03*
X156900000Y-114000000D03*
G04 #@! TD*
D14*
G04 #@! TO.C,U4*
X169100000Y-104595000D03*
X169100000Y-105865000D03*
X169100000Y-107135000D03*
X169100000Y-108405000D03*
X174500000Y-108405000D03*
X174500000Y-107135000D03*
X174500000Y-105865000D03*
X174500000Y-104595000D03*
G04 #@! TD*
D15*
G04 #@! TO.C,X6*
X194300000Y-132000000D03*
X194300000Y-130500000D03*
X194300000Y-129000000D03*
X194300000Y-127500000D03*
X194300000Y-126000000D03*
X198300000Y-132000000D03*
X198300000Y-130500000D03*
X198300000Y-129000000D03*
X198300000Y-127500000D03*
X198300000Y-126000000D03*
G04 #@! TD*
D16*
G04 #@! TO.C,U6*
X167300000Y-130500000D03*
X167300000Y-131500000D03*
X167300000Y-132500000D03*
X167300000Y-133500000D03*
X173300000Y-131000000D03*
X173300000Y-132000000D03*
X173300000Y-133000000D03*
X173300000Y-134000000D03*
G04 #@! TD*
D17*
G04 #@! TO.C,R1*
X182000000Y-125500000D03*
X183600000Y-125500000D03*
G04 #@! TD*
G04 #@! TO.C,R2*
X184300000Y-133500000D03*
X185900000Y-133500000D03*
G04 #@! TD*
G04 #@! TO.C,R3*
X170000000Y-124500000D03*
X171600000Y-124500000D03*
G04 #@! TD*
D18*
G04 #@! TO.C,R40*
X67250000Y-60500000D03*
X70350000Y-60500000D03*
G04 #@! TD*
D19*
G04 #@! TO.C,F2*
X178200000Y-90500000D03*
X182400000Y-90500000D03*
G04 #@! TD*
D20*
G04 #@! TO.C,D4*
X176000000Y-52500000D03*
X179600000Y-52500000D03*
G04 #@! TD*
D17*
G04 #@! TO.C,R4*
X134200000Y-82500000D03*
X135800000Y-82500000D03*
G04 #@! TD*
G04 #@! TO.C,R7*
X139000000Y-82500000D03*
X140600000Y-82500000D03*
G04 #@! TD*
D21*
G04 #@! TO.C,Q1*
X135850000Y-85550000D03*
X135850000Y-87450000D03*
D22*
X137750000Y-86500000D03*
G04 #@! TD*
D20*
G04 #@! TO.C,D1*
X135000000Y-79500000D03*
X138600000Y-79500000D03*
G04 #@! TD*
D17*
G04 #@! TO.C,R10*
X135000000Y-90500000D03*
X136600000Y-90500000D03*
G04 #@! TD*
G04 #@! TO.C,D10*
X141000000Y-90500000D03*
X142600000Y-90500000D03*
G04 #@! TD*
G04 #@! TO.C,R5*
X134000000Y-104500000D03*
X135600000Y-104500000D03*
G04 #@! TD*
G04 #@! TO.C,R8*
X139000000Y-104500000D03*
X140600000Y-104500000D03*
G04 #@! TD*
D21*
G04 #@! TO.C,Q2*
X135850000Y-107550000D03*
X135850000Y-109450000D03*
D22*
X137750000Y-108500000D03*
G04 #@! TD*
D20*
G04 #@! TO.C,D2*
X135000000Y-101500000D03*
X138600000Y-101500000D03*
G04 #@! TD*
D17*
G04 #@! TO.C,R11*
X135000000Y-112500000D03*
X136600000Y-112500000D03*
G04 #@! TD*
G04 #@! TO.C,D11*
X141000000Y-112500000D03*
X142600000Y-112500000D03*
G04 #@! TD*
G04 #@! TO.C,R6*
X133000000Y-124500000D03*
X134600000Y-124500000D03*
G04 #@! TD*
G04 #@! TO.C,R9*
X139000000Y-124500000D03*
X140600000Y-124500000D03*
G04 #@! TD*
D21*
G04 #@! TO.C,Q3*
X135850000Y-127550000D03*
X135850000Y-129450000D03*
D22*
X137750000Y-128500000D03*
G04 #@! TD*
D20*
G04 #@! TO.C,D3*
X135000000Y-121500000D03*
X138600000Y-121500000D03*
G04 #@! TD*
D17*
G04 #@! TO.C,R12*
X135000000Y-135500000D03*
X136600000Y-135500000D03*
G04 #@! TD*
G04 #@! TO.C,D12*
X141000000Y-135500000D03*
X142600000Y-135500000D03*
G04 #@! TD*
G04 #@! TO.C,R20*
X175000000Y-74500000D03*
X176600000Y-74500000D03*
G04 #@! TD*
G04 #@! TO.C,D20*
X181000000Y-74500000D03*
X182600000Y-74500000D03*
G04 #@! TD*
G04 #@! TO.C,R21*
X175000000Y-79500000D03*
X176600000Y-79500000D03*
G04 #@! TD*
G04 #@! TO.C,D21*
X181000000Y-79500000D03*
X182600000Y-79500000D03*
G04 #@! TD*
G04 #@! TO.C,R30*
X164000000Y-116500000D03*
X165600000Y-116500000D03*
G04 #@! TD*
G04 #@! TO.C,D30*
X170000000Y-116500000D03*
X171600000Y-116500000D03*
G04 #@! TD*
G04 #@! TO.C,R31*
X164000000Y-121500000D03*
X165600000Y-121500000D03*
G04 #@! TD*
G04 #@! TO.C,D31*
X170000000Y-121500000D03*
X171600000Y-121500000D03*
G04 #@! TD*
G04 #@! TO.C,R32*
X186000000Y-112500000D03*
X187600000Y-112500000D03*
G04 #@! TD*
D18*
G04 #@! TO.C,R41*
X74250000Y-60500000D03*
X77350000Y-60500000D03*
G04 #@! TD*
D23*
G04 #@! TO.C,D40*
X81900000Y-60500000D03*
X83700000Y-60500000D03*
G04 #@! TD*
D20*
G04 #@! TO.C,D41*
X81000000Y-65500000D03*
X84600000Y-65500000D03*
G04 #@! TD*
G04 #@! TO.C,D50*
X180000000Y-107500000D03*
X183600000Y-107500000D03*
G04 #@! TD*
G04 #@! TO.C,D51*
X180000000Y-112500000D03*
X183600000Y-112500000D03*
G04 #@! TD*
G04 #@! TO.C,D52*
X180000000Y-117500000D03*
X183600000Y-117500000D03*
G04 #@! TD*
M02*
