G04 #@! TF.GenerationSoftware,KiCad,Pcbnew,10.0.4*
G04 #@! TF.CreationDate,2026-07-09T13:00:24+02:00*
G04 #@! TF.ProjectId,pumpengruppe-rs485,70756d70-656e-4677-9275-7070652d7273,A-preliminary*
G04 #@! TF.SameCoordinates,Original*
G04 #@! TF.FileFunction,Profile,NP*
%FSLAX46Y46*%
G04 Gerber Fmt 4.6, Leading zero omitted, Abs format (unit mm)*
G04 Created by KiCad (PCBNEW 10.0.4) date 2026-07-09 13:00:24*
%MOMM*%
%LPD*%
G01*
G04 APERTURE LIST*
G04 #@! TA.AperFunction,Profile*
%ADD10C,0.100000*%
G04 #@! TD*
G04 APERTURE END LIST*
D10*
X39800000Y-32500000D02*
X199800000Y-32500000D01*
X199800000Y-142500000D01*
X39800000Y-142500000D01*
X39800000Y-32500000D01*
X81500000Y-38000000D02*
X81500000Y-79000000D01*
X81500000Y-38000000D02*
X82500000Y-38000000D01*
X81500000Y-79000000D02*
X81500000Y-80000000D01*
X81500000Y-80000000D02*
X82500000Y-80000000D01*
X81500000Y-86000000D02*
X81500000Y-87000000D01*
X81500000Y-86000000D02*
X82500000Y-86000000D01*
X81500000Y-87000000D02*
X81500000Y-101000000D01*
X81500000Y-101000000D02*
X81500000Y-102000000D01*
X81500000Y-102000000D02*
X82500000Y-102000000D01*
X81500000Y-108000000D02*
X81500000Y-109000000D01*
X81500000Y-108000000D02*
X82500000Y-108000000D01*
X81500000Y-109000000D02*
X81500000Y-121000000D01*
X81500000Y-121000000D02*
X81500000Y-122000000D01*
X81500000Y-122000000D02*
X82500000Y-122000000D01*
X81500000Y-128000000D02*
X81500000Y-129000000D01*
X81500000Y-128000000D02*
X82500000Y-128000000D01*
X81500000Y-129000000D02*
X81500000Y-137000000D01*
X81500000Y-137000000D02*
X82500000Y-137000000D01*
X82500000Y-38000000D02*
X83500000Y-38000000D01*
X82500000Y-80000000D02*
X82500000Y-81000000D01*
X82500000Y-81000000D02*
X83500000Y-81000000D01*
X82500000Y-85000000D02*
X82500000Y-86000000D01*
X82500000Y-85000000D02*
X83500000Y-85000000D01*
X82500000Y-102000000D02*
X82500000Y-103000000D01*
X82500000Y-103000000D02*
X83500000Y-103000000D01*
X82500000Y-107000000D02*
X82500000Y-108000000D01*
X82500000Y-107000000D02*
X83500000Y-107000000D01*
X82500000Y-122000000D02*
X82500000Y-123000000D01*
X82500000Y-123000000D02*
X83500000Y-123000000D01*
X82500000Y-127000000D02*
X82500000Y-128000000D01*
X82500000Y-127000000D02*
X83500000Y-127000000D01*
X82500000Y-137000000D02*
X83500000Y-137000000D01*
X83500000Y-38000000D02*
X83500000Y-79000000D01*
X83500000Y-79000000D02*
X90000000Y-79000000D01*
X83500000Y-81000000D02*
X90000000Y-81000000D01*
X83500000Y-85000000D02*
X90000000Y-85000000D01*
X83500000Y-87000000D02*
X83500000Y-101000000D01*
X83500000Y-87000000D02*
X90000000Y-87000000D01*
X83500000Y-101000000D02*
X90000000Y-101000000D01*
X83500000Y-103000000D02*
X90000000Y-103000000D01*
X83500000Y-107000000D02*
X90000000Y-107000000D01*
X83500000Y-109000000D02*
X83500000Y-121000000D01*
X83500000Y-109000000D02*
X90000000Y-109000000D01*
X83500000Y-121000000D02*
X90000000Y-121000000D01*
X83500000Y-123000000D02*
X90000000Y-123000000D01*
X83500000Y-127000000D02*
X90000000Y-127000000D01*
X83500000Y-129000000D02*
X83500000Y-137000000D01*
X83500000Y-129000000D02*
X90000000Y-129000000D01*
X90000000Y-79000000D02*
X92000000Y-79000000D01*
X90000000Y-81000000D02*
X90000000Y-85000000D01*
X90000000Y-87000000D02*
X92000000Y-87000000D01*
X90000000Y-101000000D02*
X92000000Y-101000000D01*
X90000000Y-103000000D02*
X90000000Y-107000000D01*
X90000000Y-109000000D02*
X92000000Y-109000000D01*
X90000000Y-121000000D02*
X92000000Y-121000000D01*
X90000000Y-123000000D02*
X90000000Y-127000000D01*
X90000000Y-129000000D02*
X92000000Y-129000000D01*
X92000000Y-79000000D02*
X92000000Y-80000000D01*
X92000000Y-80000000D02*
X92000000Y-81000000D01*
X92000000Y-81000000D02*
X92000000Y-85000000D01*
X92000000Y-85000000D02*
X92000000Y-86000000D01*
X92000000Y-86000000D02*
X92000000Y-87000000D01*
X92000000Y-101000000D02*
X92000000Y-102000000D01*
X92000000Y-102000000D02*
X92000000Y-103000000D01*
X92000000Y-103000000D02*
X92000000Y-107000000D01*
X92000000Y-107000000D02*
X92000000Y-108000000D01*
X92000000Y-108000000D02*
X92000000Y-109000000D01*
X92000000Y-121000000D02*
X92000000Y-122000000D01*
X92000000Y-122000000D02*
X92000000Y-123000000D01*
X92000000Y-123000000D02*
X92000000Y-127000000D01*
X92000000Y-127000000D02*
X92000000Y-128000000D01*
X92000000Y-128000000D02*
X92000000Y-129000000D01*
M02*
