G04 #@! TF.GenerationSoftware,KiCad,Pcbnew,10.0.4*
G04 #@! TF.CreationDate,2026-06-25T10:54:04+02:00*
G04 #@! TF.ProjectId,pumpengruppe-rs485,70756d70-656e-4677-9275-7070652d7273,A-preliminary*
G04 #@! TF.SameCoordinates,Original*
G04 #@! TF.FileFunction,Paste,Top*
G04 #@! TF.FilePolarity,Positive*
%FSLAX46Y46*%
G04 Gerber Fmt 4.6, Leading zero omitted, Abs format (unit mm)*
G04 Created by KiCad (PCBNEW 10.0.4) date 2026-06-25 10:54:04*
%MOMM*%
%LPD*%
G01*
G04 APERTURE LIST*
%ADD10R,2.000000X1.000000*%
%ADD11R,1.200000X0.450000*%
%ADD12R,1.000000X0.400000*%
%ADD13R,0.800000X0.800000*%
%ADD14R,1.200000X2.000000*%
%ADD15R,3.500000X2.500000*%
%ADD16R,1.500000X0.550000*%
G04 APERTURE END LIST*
D10*
G04 #@! TO.C,U1*
X105000000Y-39000000D03*
X105000000Y-41500000D03*
X131000000Y-31000000D03*
X131000000Y-33500000D03*
X131000000Y-36000000D03*
X105000000Y-44000000D03*
X105000000Y-46500000D03*
X105000000Y-49000000D03*
X131000000Y-43000000D03*
X131000000Y-45500000D03*
G04 #@! TD*
D11*
G04 #@! TO.C,X6*
X142000000Y-20000000D03*
X143500000Y-20000000D03*
X145000000Y-20000000D03*
X146500000Y-20000000D03*
X148000000Y-20000000D03*
X142000000Y-24000000D03*
X143500000Y-24000000D03*
X145000000Y-24000000D03*
X146500000Y-24000000D03*
X148000000Y-24000000D03*
G04 #@! TD*
D12*
G04 #@! TO.C,U6*
X129000000Y-21000000D03*
X129000000Y-22000000D03*
X129000000Y-23000000D03*
X129000000Y-24000000D03*
X135000000Y-21500000D03*
X135000000Y-22500000D03*
X135000000Y-23500000D03*
X135000000Y-24500000D03*
G04 #@! TD*
D13*
G04 #@! TO.C,R1*
X153200000Y-17000000D03*
X154800000Y-17000000D03*
G04 #@! TD*
G04 #@! TO.C,R2*
X153200000Y-27000000D03*
X154800000Y-27000000D03*
G04 #@! TD*
D14*
G04 #@! TO.C,U5*
X91700000Y-26300000D03*
X94000000Y-26300000D03*
X96300000Y-26300000D03*
D15*
X94000000Y-21700000D03*
G04 #@! TD*
D16*
G04 #@! TO.C,U2*
X106900000Y-63500000D03*
X106900000Y-64500000D03*
X106900000Y-70500000D03*
X117100000Y-70500000D03*
X117100000Y-69500000D03*
X117100000Y-68500000D03*
X117100000Y-63500000D03*
G04 #@! TD*
G04 #@! TO.C,U3*
X106900000Y-81500000D03*
X106900000Y-82500000D03*
X106900000Y-88500000D03*
X117100000Y-88500000D03*
X117100000Y-87500000D03*
X117100000Y-86500000D03*
X117100000Y-81500000D03*
G04 #@! TD*
M02*
