%TF.GenerationSoftware,KiCad,Pcbnew,10.0.4*%
%TF.CreationDate,2026-06-30T13:41:11+02:00*%
%TF.ProjectId,pumpengruppe-rs485,70756d70-656e-4677-9275-7070652d7273,A-preliminary*%
%TF.SameCoordinates,Original*%
%TF.FileFunction,Other,Comment*%
%FSLAX46Y46*%
G04 Gerber Fmt 4.6, Leading zero omitted, Abs format (unit mm)*
G04 Created by KiCad (PCBNEW 10.0.4) date 2026-06-30 13:41:11*
%MOMM*%
%LPD*%
G01*
G04 APERTURE LIST*
%ADD10C,0.100000*%
%ADD11C,0.150000*%
G04 APERTURE END LIST*
D10*
X142061904Y-27851109D02*
X141823809Y-27851109D01*
X141823809Y-27851109D02*
X141800000Y-28089204D01*
X141800000Y-28089204D02*
X141823809Y-28065395D01*
X141823809Y-28065395D02*
X141871428Y-28041585D01*
X141871428Y-28041585D02*
X141990476Y-28041585D01*
X141990476Y-28041585D02*
X142038095Y-28065395D01*
X142038095Y-28065395D02*
X142061904Y-28089204D01*
X142061904Y-28089204D02*
X142085714Y-28136823D01*
X142085714Y-28136823D02*
X142085714Y-28255871D01*
X142085714Y-28255871D02*
X142061904Y-28303490D01*
X142061904Y-28303490D02*
X142038095Y-28327300D01*
X142038095Y-28327300D02*
X141990476Y-28351109D01*
X141990476Y-28351109D02*
X141871428Y-28351109D01*
X141871428Y-28351109D02*
X141823809Y-28327300D01*
X141823809Y-28327300D02*
X141800000Y-28303490D01*
X142680951Y-28351109D02*
X142680951Y-28017776D01*
X142680951Y-28065395D02*
X142704761Y-28041585D01*
X142704761Y-28041585D02*
X142752380Y-28017776D01*
X142752380Y-28017776D02*
X142823808Y-28017776D01*
X142823808Y-28017776D02*
X142871427Y-28041585D01*
X142871427Y-28041585D02*
X142895237Y-28089204D01*
X142895237Y-28089204D02*
X142895237Y-28351109D01*
X142895237Y-28089204D02*
X142919046Y-28041585D01*
X142919046Y-28041585D02*
X142966665Y-28017776D01*
X142966665Y-28017776D02*
X143038094Y-28017776D01*
X143038094Y-28017776D02*
X143085713Y-28041585D01*
X143085713Y-28041585D02*
X143109523Y-28089204D01*
X143109523Y-28089204D02*
X143109523Y-28351109D01*
X143347618Y-28351109D02*
X143347618Y-28017776D01*
X143347618Y-28065395D02*
X143371428Y-28041585D01*
X143371428Y-28041585D02*
X143419047Y-28017776D01*
X143419047Y-28017776D02*
X143490475Y-28017776D01*
X143490475Y-28017776D02*
X143538094Y-28041585D01*
X143538094Y-28041585D02*
X143561904Y-28089204D01*
X143561904Y-28089204D02*
X143561904Y-28351109D01*
X143561904Y-28089204D02*
X143585713Y-28041585D01*
X143585713Y-28041585D02*
X143633332Y-28017776D01*
X143633332Y-28017776D02*
X143704761Y-28017776D01*
X143704761Y-28017776D02*
X143752380Y-28041585D01*
X143752380Y-28041585D02*
X143776190Y-28089204D01*
X143776190Y-28089204D02*
X143776190Y-28351109D01*
D11*
X152928571Y-23954819D02*
X152928571Y-22954819D01*
X153499999Y-23954819D02*
X153071428Y-23383390D01*
X153499999Y-22954819D02*
X152928571Y-23526247D01*
X153928571Y-23431009D02*
X154261904Y-23431009D01*
X154404761Y-23954819D02*
X153928571Y-23954819D01*
X153928571Y-23954819D02*
X153928571Y-22954819D01*
X153928571Y-22954819D02*
X154404761Y-22954819D01*
X154833333Y-23431009D02*
X155166666Y-23431009D01*
X155309523Y-23954819D02*
X154833333Y-23954819D01*
X154833333Y-23954819D02*
X154833333Y-22954819D01*
X154833333Y-22954819D02*
X155309523Y-22954819D01*
X155738095Y-23954819D02*
X155738095Y-22954819D01*
X155738095Y-22954819D02*
X156119047Y-22954819D01*
X156119047Y-22954819D02*
X156214285Y-23002438D01*
X156214285Y-23002438D02*
X156261904Y-23050057D01*
X156261904Y-23050057D02*
X156309523Y-23145295D01*
X156309523Y-23145295D02*
X156309523Y-23288152D01*
X156309523Y-23288152D02*
X156261904Y-23383390D01*
X156261904Y-23383390D02*
X156214285Y-23431009D01*
X156214285Y-23431009D02*
X156119047Y-23478628D01*
X156119047Y-23478628D02*
X155738095Y-23478628D01*
X156738095Y-23573866D02*
X157500000Y-23573866D01*
X158166666Y-22954819D02*
X158357142Y-22954819D01*
X158357142Y-22954819D02*
X158452380Y-23002438D01*
X158452380Y-23002438D02*
X158547618Y-23097676D01*
X158547618Y-23097676D02*
X158595237Y-23288152D01*
X158595237Y-23288152D02*
X158595237Y-23621485D01*
X158595237Y-23621485D02*
X158547618Y-23811961D01*
X158547618Y-23811961D02*
X158452380Y-23907200D01*
X158452380Y-23907200D02*
X158357142Y-23954819D01*
X158357142Y-23954819D02*
X158166666Y-23954819D01*
X158166666Y-23954819D02*
X158071428Y-23907200D01*
X158071428Y-23907200D02*
X157976190Y-23811961D01*
X157976190Y-23811961D02*
X157928571Y-23621485D01*
X157928571Y-23621485D02*
X157928571Y-23288152D01*
X157928571Y-23288152D02*
X157976190Y-23097676D01*
X157976190Y-23097676D02*
X158071428Y-23002438D01*
X158071428Y-23002438D02*
X158166666Y-22954819D01*
X159023809Y-22954819D02*
X159023809Y-23764342D01*
X159023809Y-23764342D02*
X159071428Y-23859580D01*
X159071428Y-23859580D02*
X159119047Y-23907200D01*
X159119047Y-23907200D02*
X159214285Y-23954819D01*
X159214285Y-23954819D02*
X159404761Y-23954819D01*
X159404761Y-23954819D02*
X159499999Y-23907200D01*
X159499999Y-23907200D02*
X159547618Y-23859580D01*
X159547618Y-23859580D02*
X159595237Y-23764342D01*
X159595237Y-23764342D02*
X159595237Y-22954819D01*
X159928571Y-22954819D02*
X160499999Y-22954819D01*
X160214285Y-23954819D02*
X160214285Y-22954819D01*
X161500000Y-22954819D02*
X162166666Y-22954819D01*
X162166666Y-22954819D02*
X161500000Y-23954819D01*
X161500000Y-23954819D02*
X162166666Y-23954819D01*
X162738095Y-22954819D02*
X162928571Y-22954819D01*
X162928571Y-22954819D02*
X163023809Y-23002438D01*
X163023809Y-23002438D02*
X163119047Y-23097676D01*
X163119047Y-23097676D02*
X163166666Y-23288152D01*
X163166666Y-23288152D02*
X163166666Y-23621485D01*
X163166666Y-23621485D02*
X163119047Y-23811961D01*
X163119047Y-23811961D02*
X163023809Y-23907200D01*
X163023809Y-23907200D02*
X162928571Y-23954819D01*
X162928571Y-23954819D02*
X162738095Y-23954819D01*
X162738095Y-23954819D02*
X162642857Y-23907200D01*
X162642857Y-23907200D02*
X162547619Y-23811961D01*
X162547619Y-23811961D02*
X162500000Y-23621485D01*
X162500000Y-23621485D02*
X162500000Y-23288152D01*
X162500000Y-23288152D02*
X162547619Y-23097676D01*
X162547619Y-23097676D02*
X162642857Y-23002438D01*
X162642857Y-23002438D02*
X162738095Y-22954819D01*
X163595238Y-23954819D02*
X163595238Y-22954819D01*
X163595238Y-22954819D02*
X164166666Y-23954819D01*
X164166666Y-23954819D02*
X164166666Y-22954819D01*
X164642857Y-23431009D02*
X164976190Y-23431009D01*
X165119047Y-23954819D02*
X164642857Y-23954819D01*
X164642857Y-23954819D02*
X164642857Y-22954819D01*
X164642857Y-22954819D02*
X165119047Y-22954819D01*
X156238095Y-29669104D02*
X156714285Y-29669104D01*
X156142857Y-29954819D02*
X156476190Y-28954819D01*
X156476190Y-28954819D02*
X156809523Y-29954819D01*
X157142857Y-29288152D02*
X157142857Y-29954819D01*
X157142857Y-29383390D02*
X157190476Y-29335771D01*
X157190476Y-29335771D02*
X157285714Y-29288152D01*
X157285714Y-29288152D02*
X157428571Y-29288152D01*
X157428571Y-29288152D02*
X157523809Y-29335771D01*
X157523809Y-29335771D02*
X157571428Y-29431009D01*
X157571428Y-29431009D02*
X157571428Y-29954819D01*
X157904762Y-29288152D02*
X158285714Y-29288152D01*
X158047619Y-28954819D02*
X158047619Y-29811961D01*
X158047619Y-29811961D02*
X158095238Y-29907200D01*
X158095238Y-29907200D02*
X158190476Y-29954819D01*
X158190476Y-29954819D02*
X158285714Y-29954819D01*
X159000000Y-29907200D02*
X158904762Y-29954819D01*
X158904762Y-29954819D02*
X158714286Y-29954819D01*
X158714286Y-29954819D02*
X158619048Y-29907200D01*
X158619048Y-29907200D02*
X158571429Y-29811961D01*
X158571429Y-29811961D02*
X158571429Y-29431009D01*
X158571429Y-29431009D02*
X158619048Y-29335771D01*
X158619048Y-29335771D02*
X158714286Y-29288152D01*
X158714286Y-29288152D02*
X158904762Y-29288152D01*
X158904762Y-29288152D02*
X159000000Y-29335771D01*
X159000000Y-29335771D02*
X159047619Y-29431009D01*
X159047619Y-29431009D02*
X159047619Y-29526247D01*
X159047619Y-29526247D02*
X158571429Y-29621485D01*
X159476191Y-29288152D02*
X159476191Y-29954819D01*
X159476191Y-29383390D02*
X159523810Y-29335771D01*
X159523810Y-29335771D02*
X159619048Y-29288152D01*
X159619048Y-29288152D02*
X159761905Y-29288152D01*
X159761905Y-29288152D02*
X159857143Y-29335771D01*
X159857143Y-29335771D02*
X159904762Y-29431009D01*
X159904762Y-29431009D02*
X159904762Y-29954819D01*
X160380953Y-29288152D02*
X160380953Y-29954819D01*
X160380953Y-29383390D02*
X160428572Y-29335771D01*
X160428572Y-29335771D02*
X160523810Y-29288152D01*
X160523810Y-29288152D02*
X160666667Y-29288152D01*
X160666667Y-29288152D02*
X160761905Y-29335771D01*
X160761905Y-29335771D02*
X160809524Y-29431009D01*
X160809524Y-29431009D02*
X160809524Y-29954819D01*
X161714286Y-29954819D02*
X161714286Y-29431009D01*
X161714286Y-29431009D02*
X161666667Y-29335771D01*
X161666667Y-29335771D02*
X161571429Y-29288152D01*
X161571429Y-29288152D02*
X161380953Y-29288152D01*
X161380953Y-29288152D02*
X161285715Y-29335771D01*
X161714286Y-29907200D02*
X161619048Y-29954819D01*
X161619048Y-29954819D02*
X161380953Y-29954819D01*
X161380953Y-29954819D02*
X161285715Y-29907200D01*
X161285715Y-29907200D02*
X161238096Y-29811961D01*
X161238096Y-29811961D02*
X161238096Y-29716723D01*
X161238096Y-29716723D02*
X161285715Y-29621485D01*
X161285715Y-29621485D02*
X161380953Y-29573866D01*
X161380953Y-29573866D02*
X161619048Y-29573866D01*
X161619048Y-29573866D02*
X161714286Y-29526247D01*
D10*
X166526109Y-19238095D02*
X166526109Y-19476190D01*
X166526109Y-19476190D02*
X166764204Y-19499999D01*
X166764204Y-19499999D02*
X166740395Y-19476190D01*
X166740395Y-19476190D02*
X166716585Y-19428571D01*
X166716585Y-19428571D02*
X166716585Y-19309523D01*
X166716585Y-19309523D02*
X166740395Y-19261904D01*
X166740395Y-19261904D02*
X166764204Y-19238095D01*
X166764204Y-19238095D02*
X166811823Y-19214285D01*
X166811823Y-19214285D02*
X166930871Y-19214285D01*
X166930871Y-19214285D02*
X166978490Y-19238095D01*
X166978490Y-19238095D02*
X167002300Y-19261904D01*
X167002300Y-19261904D02*
X167026109Y-19309523D01*
X167026109Y-19309523D02*
X167026109Y-19428571D01*
X167026109Y-19428571D02*
X167002300Y-19476190D01*
X167002300Y-19476190D02*
X166978490Y-19499999D01*
X167026109Y-18619048D02*
X166692776Y-18619048D01*
X166740395Y-18619048D02*
X166716585Y-18595238D01*
X166716585Y-18595238D02*
X166692776Y-18547619D01*
X166692776Y-18547619D02*
X166692776Y-18476191D01*
X166692776Y-18476191D02*
X166716585Y-18428572D01*
X166716585Y-18428572D02*
X166764204Y-18404762D01*
X166764204Y-18404762D02*
X167026109Y-18404762D01*
X166764204Y-18404762D02*
X166716585Y-18380953D01*
X166716585Y-18380953D02*
X166692776Y-18333334D01*
X166692776Y-18333334D02*
X166692776Y-18261905D01*
X166692776Y-18261905D02*
X166716585Y-18214286D01*
X166716585Y-18214286D02*
X166764204Y-18190476D01*
X166764204Y-18190476D02*
X167026109Y-18190476D01*
X167026109Y-17952381D02*
X166692776Y-17952381D01*
X166740395Y-17952381D02*
X166716585Y-17928571D01*
X166716585Y-17928571D02*
X166692776Y-17880952D01*
X166692776Y-17880952D02*
X166692776Y-17809524D01*
X166692776Y-17809524D02*
X166716585Y-17761905D01*
X166716585Y-17761905D02*
X166764204Y-17738095D01*
X166764204Y-17738095D02*
X167026109Y-17738095D01*
X166764204Y-17738095D02*
X166716585Y-17714286D01*
X166716585Y-17714286D02*
X166692776Y-17666667D01*
X166692776Y-17666667D02*
X166692776Y-17595238D01*
X166692776Y-17595238D02*
X166716585Y-17547619D01*
X166716585Y-17547619D02*
X166764204Y-17523809D01*
X166764204Y-17523809D02*
X167026109Y-17523809D01*
X174461904Y-27851109D02*
X174223809Y-27851109D01*
X174223809Y-27851109D02*
X174200000Y-28089204D01*
X174200000Y-28089204D02*
X174223809Y-28065395D01*
X174223809Y-28065395D02*
X174271428Y-28041585D01*
X174271428Y-28041585D02*
X174390476Y-28041585D01*
X174390476Y-28041585D02*
X174438095Y-28065395D01*
X174438095Y-28065395D02*
X174461904Y-28089204D01*
X174461904Y-28089204D02*
X174485714Y-28136823D01*
X174485714Y-28136823D02*
X174485714Y-28255871D01*
X174485714Y-28255871D02*
X174461904Y-28303490D01*
X174461904Y-28303490D02*
X174438095Y-28327300D01*
X174438095Y-28327300D02*
X174390476Y-28351109D01*
X174390476Y-28351109D02*
X174271428Y-28351109D01*
X174271428Y-28351109D02*
X174223809Y-28327300D01*
X174223809Y-28327300D02*
X174200000Y-28303490D01*
X175080951Y-28351109D02*
X175080951Y-28017776D01*
X175080951Y-28065395D02*
X175104761Y-28041585D01*
X175104761Y-28041585D02*
X175152380Y-28017776D01*
X175152380Y-28017776D02*
X175223808Y-28017776D01*
X175223808Y-28017776D02*
X175271427Y-28041585D01*
X175271427Y-28041585D02*
X175295237Y-28089204D01*
X175295237Y-28089204D02*
X175295237Y-28351109D01*
X175295237Y-28089204D02*
X175319046Y-28041585D01*
X175319046Y-28041585D02*
X175366665Y-28017776D01*
X175366665Y-28017776D02*
X175438094Y-28017776D01*
X175438094Y-28017776D02*
X175485713Y-28041585D01*
X175485713Y-28041585D02*
X175509523Y-28089204D01*
X175509523Y-28089204D02*
X175509523Y-28351109D01*
X175747618Y-28351109D02*
X175747618Y-28017776D01*
X175747618Y-28065395D02*
X175771428Y-28041585D01*
X175771428Y-28041585D02*
X175819047Y-28017776D01*
X175819047Y-28017776D02*
X175890475Y-28017776D01*
X175890475Y-28017776D02*
X175938094Y-28041585D01*
X175938094Y-28041585D02*
X175961904Y-28089204D01*
X175961904Y-28089204D02*
X175961904Y-28351109D01*
X175961904Y-28089204D02*
X175985713Y-28041585D01*
X175985713Y-28041585D02*
X176033332Y-28017776D01*
X176033332Y-28017776D02*
X176104761Y-28017776D01*
X176104761Y-28017776D02*
X176152380Y-28041585D01*
X176152380Y-28041585D02*
X176176190Y-28089204D01*
X176176190Y-28089204D02*
X176176190Y-28351109D01*
%TO.C,U1*%
X135060000Y-28625000D02*
X135260000Y-28425000D01*
X135060000Y-28625000D02*
X135260000Y-28825000D01*
X135060000Y-28625000D02*
X149800000Y-28625000D01*
X149800000Y-28625000D02*
X149600000Y-28425000D01*
X149800000Y-28625000D02*
X149600000Y-28825000D01*
X167400000Y-11820000D02*
X167200000Y-12020000D01*
X167400000Y-11820000D02*
X167600000Y-12020000D01*
X167400000Y-26500000D02*
X167200000Y-26300000D01*
X167400000Y-26500000D02*
X167400000Y-11820000D01*
X167400000Y-26500000D02*
X167600000Y-26300000D01*
X168200000Y-28625000D02*
X168400000Y-28425000D01*
X168200000Y-28625000D02*
X168400000Y-28825000D01*
X168200000Y-28625000D02*
X182940000Y-28625000D01*
X182940000Y-28625000D02*
X182740000Y-28425000D01*
X182940000Y-28625000D02*
X182740000Y-28825000D01*
%TD*%
M02*
