M48
; DRILL file KiCad 10.0.4 date 2026-06-30T13:41:11
; FORMAT={-:-/ absolute / inch / decimal}
; #@! TF.CreationDate,2026-06-30T13:41:11+02:00
; #@! TF.GenerationSoftware,Kicad,Pcbnew,10.0.4
; #@! TF.FileFunction,Plated,1,2,PTH
FMAT,2
INCH
; #@! TA.AperFunction,Plated,PTH,ViaDrill
T1C0.0118
; #@! TA.AperFunction,Plated,PTH,ComponentDrill
T2C0.0118
; #@! TA.AperFunction,Plated,PTH,ComponentDrill
T3C0.0299
; #@! TA.AperFunction,Plated,PTH,ComponentDrill
T4C0.0315
; #@! TA.AperFunction,Plated,PTH,ComponentDrill
T5C0.0354
; #@! TA.AperFunction,Plated,PTH,ComponentDrill
T6C0.0394
; #@! TA.AperFunction,Plated,PTH,ComponentDrill
T7C0.0433
; #@! TA.AperFunction,Plated,PTH,ComponentDrill
T8C0.0472
; #@! TA.AperFunction,Plated,PTH,ComponentDrill
T9C0.0512
; #@! TA.AperFunction,Plated,PTH,ComponentDrill
T10C0.0551
; #@! TA.AperFunction,Plated,PTH,ComponentDrill
T11C0.0591
%
G90
G05
T1
X3.7598Y-3.1693
X3.7795Y-4.8031
X3.8976Y-4.1142
X4.2717Y-4.8031
X4.7047Y-1.6732
X4.7047Y-1.7323
X4.8041Y-2.6772
X4.8041Y-4.9606
X4.8425Y-1.752
X4.8622Y-1.6929
X5.4528Y-4.2126
X5.7283Y-3.8976
X5.7677Y-1.7913
X5.7677Y-1.8504
X5.7677Y-1.9094
X5.8071Y-2.3031
X5.9252Y-4.2913
X6.1024Y-2.5394
X6.1024Y-2.7165
X6.1614Y-2.4606
X6.1811Y-2.5394
X6.2402Y-2.7598
X6.378Y-2.7598
X6.437Y-2.5787
X6.4567Y-1.9291
X6.5551Y-2.5394
X6.5945Y-4.1142
X6.6339Y-3.2874
X6.6339Y-4.3307
X6.6535Y-2.9134
X6.6732Y-1.5945
X6.6929Y-1.6929
X6.6929Y-1.752
X6.7126Y-4.3307
X6.7323Y-5.1969
X6.7717Y-5.2756
X6.811Y-1.8307
X6.8504Y-3.3661
X6.9094Y-1.8898
X6.9291Y-1.6732
X6.9291Y-5.0197
X6.9902Y-1.752
X7.0866Y-2.7559
X7.1535Y-2.4528
X7.1535Y-5.2992
X7.1654Y-5.0591
X7.185Y-2.7559
X7.2047Y-5.0984
X7.5Y-4.9803
T2
X6.1457Y-1.6248
X6.1457Y-1.6799
X6.1732Y-1.5972
X6.1732Y-1.6524
X6.1732Y-1.7075
X6.1998Y-1.6248
X6.1998Y-1.6799
X6.2283Y-1.5972
X6.2283Y-1.6524
X6.2283Y-1.7075
X6.2559Y-1.6248
X6.2559Y-1.6799
T3
X7.3272Y-2.9661
X7.3272Y-3.0661
X7.3272Y-3.1661
X7.3272Y-3.2661
X7.3272Y-3.6354
X7.3272Y-3.7354
X7.3272Y-3.8354
X7.3272Y-3.9354
X7.4272Y-3.0161
X7.4272Y-3.1161
X7.4272Y-3.2161
X7.4272Y-3.3161
X7.4272Y-3.6854
X7.4272Y-3.7854
X7.4272Y-3.8854
X7.4272Y-3.9854
T4
X6.9291Y-3.6992
X6.9291Y-3.7992
X6.9291Y-3.8992
T5
X3.5827Y-3.1299
X3.5827Y-3.4055
X3.5827Y-3.9961
X3.5827Y-4.2717
X3.5827Y-4.7835
X3.5827Y-5.0591
T6
X2.4016Y-4.311
X2.4016Y-4.6063
X7.6693Y-1.7028
X7.6693Y-1.8406
X7.6693Y-2.0374
X7.6693Y-2.1752
X7.6693Y-2.4016
X7.6693Y-2.5394
X7.6693Y-2.6772
X7.6693Y-4.2717
X7.6693Y-4.4094
X7.6693Y-4.5472
T7
X7.7283Y-4.8819
X7.7283Y-5.2756
T8
X2.7953Y-3.9961
X2.7953Y-4.2717
X2.7953Y-4.7441
X2.7953Y-4.9213
X2.7953Y-5.0984
T9
X2.3819Y-3.0709
X2.3819Y-3.8583
X2.7953Y-3.1299
X2.7953Y-3.4055
T10
X1.9606Y-1.7669
X1.9606Y-2.0669
X1.9606Y-2.3669
X1.9606Y-3.1449
X1.9606Y-3.4449
X1.9606Y-3.7449
X1.9606Y-4.3728
X1.9606Y-4.6728
X1.9606Y-4.9728
X1.9606Y-5.2728
T11
X2.5197Y-2.2835
X2.5197Y-2.7067
X4.0354Y-2.3917
X4.0354Y-2.7067
M30
