%TF.GenerationSoftware,KiCad,Pcbnew,10.0.4*%
%TF.CreationDate,2026-06-30T13:41:11+02:00*%
%TF.ProjectId,pumpengruppe-rs485,70756d70-656e-4677-9275-7070652d7273,A-preliminary*%
%TF.SameCoordinates,Original*%
%TF.FileFunction,Copper,L1,Top*%
%TF.FilePolarity,Positive*%
%FSLAX46Y46*%
G04 Gerber Fmt 4.6, Leading zero omitted, Abs format (unit mm)*
G04 Created by KiCad (PCBNEW 10.0.4) date 2026-06-30 13:41:11*
%MOMM*%
%LPD*%
G01*
G04 APERTURE LIST*
G04 Aperture macros list*
%AMRoundRect*
0 Rectangle with rounded corners*
0 $1 Rounding radius*
0 $2 $3 $4 $5 $6 $7 $8 $9 X,Y pos of 4 corners*
0 Add a 4 corners polygon primitive as box body*
4,1,4,$2,$3,$4,$5,$6,$7,$8,$9,$2,$3,0*
0 Add four circle primitives for the rounded corners*
1,1,$1+$1,$2,$3*
1,1,$1+$1,$4,$5*
1,1,$1+$1,$6,$7*
1,1,$1+$1,$8,$9*
0 Add four rect primitives between the rounded corners*
20,1,$1+$1,$2,$3,$4,$5,0*
20,1,$1+$1,$4,$5,$6,$7,0*
20,1,$1+$1,$6,$7,$8,$9,0*
20,1,$1+$1,$8,$9,$2,$3,0*%
G04 Aperture macros list end*
%TA.AperFunction,SMDPad,CuDef*%
%ADD10RoundRect,0.225000X-0.225000X-0.250000X0.225000X-0.250000X0.225000X0.250000X-0.225000X0.250000X0*%
%TD*%
%TA.AperFunction,SMDPad,CuDef*%
%ADD11R,1.600000X0.850000*%
%TD*%
%TA.AperFunction,ComponentPad*%
%ADD12C,2.800000*%
%TD*%
%TA.AperFunction,ComponentPad*%
%ADD13C,3.000000*%
%TD*%
%TA.AperFunction,ComponentPad*%
%ADD14R,3.000000X3.000000*%
%TD*%
%TA.AperFunction,ComponentPad*%
%ADD15C,2.000000*%
%TD*%
%TA.AperFunction,ComponentPad*%
%ADD16C,2.600000*%
%TD*%
%TA.AperFunction,SMDPad,CuDef*%
%ADD17R,1.500000X0.900000*%
%TD*%
%TA.AperFunction,SMDPad,CuDef*%
%ADD18R,0.900000X1.500000*%
%TD*%
%TA.AperFunction,SMDPad,CuDef*%
%ADD19R,0.900000X0.900000*%
%TD*%
%TA.AperFunction,HeatsinkPad*%
%ADD20C,0.600000*%
%TD*%
%TA.AperFunction,HeatsinkPad*%
%ADD21R,3.800000X3.800000*%
%TD*%
%TA.AperFunction,SMDPad,CuDef*%
%ADD22R,2.000000X1.200000*%
%TD*%
%TA.AperFunction,SMDPad,CuDef*%
%ADD23R,2.500000X3.500000*%
%TD*%
%TA.AperFunction,SMDPad,CuDef*%
%ADD24R,1.500000X0.550000*%
%TD*%
%TA.AperFunction,SMDPad,CuDef*%
%ADD25R,1.500000X0.600000*%
%TD*%
%TA.AperFunction,SMDPad,CuDef*%
%ADD26R,0.450000X1.200000*%
%TD*%
%TA.AperFunction,ComponentPad*%
%ADD27C,2.400000*%
%TD*%
%TA.AperFunction,SMDPad,CuDef*%
%ADD28R,1.000000X0.400000*%
%TD*%
%TA.AperFunction,SMDPad,CuDef*%
%ADD29R,0.800000X0.800000*%
%TD*%
%TA.AperFunction,ComponentPad*%
%ADD30C,1.600000*%
%TD*%
%TA.AperFunction,SMDPad,CuDef*%
%ADD31R,1.200000X1.600000*%
%TD*%
%TA.AperFunction,SMDPad,CuDef*%
%ADD32R,1.800000X2.500000*%
%TD*%
%TA.AperFunction,SMDPad,CuDef*%
%ADD33R,1.200000X1.200000*%
%TD*%
%TA.AperFunction,SMDPad,CuDef*%
%ADD34R,0.800000X0.550000*%
%TD*%
%TA.AperFunction,SMDPad,CuDef*%
%ADD35R,0.800000X0.650000*%
%TD*%
%TA.AperFunction,SMDPad,CuDef*%
%ADD36R,1.200000X0.900000*%
%TD*%
%TA.AperFunction,SMDPad,CuDef*%
%ADD37RoundRect,0.200000X-0.200000X-0.275000X0.200000X-0.275000X0.200000X0.275000X-0.200000X0.275000X0*%
%TD*%
%TA.AperFunction,ComponentPad*%
%ADD38R,1.500000X1.500000*%
%TD*%
%TA.AperFunction,ComponentPad*%
%ADD39C,1.500000*%
%TD*%
%TA.AperFunction,ViaPad*%
%ADD40C,0.600000*%
%TD*%
%TA.AperFunction,Conductor*%
%ADD41C,0.780000*%
%TD*%
%TA.AperFunction,Conductor*%
%ADD42C,0.200000*%
%TD*%
%TA.AperFunction,Conductor*%
%ADD43C,0.800000*%
%TD*%
%TA.AperFunction,Conductor*%
%ADD44C,0.400000*%
%TD*%
%TA.AperFunction,Conductor*%
%ADD45C,1.500000*%
%TD*%
G04 APERTURE END LIST*
D10*
%TO.P,C81,1,1*%
%TO.N,+5V*%
X120475000Y-123225000D03*
%TO.P,C81,2,2*%
%TO.N,GND*%
X122025000Y-123225000D03*
%TD*%
%TO.P,C62,1,1*%
%TO.N,+5V*%
X155950000Y-61000000D03*
%TO.P,C62,2,2*%
%TO.N,GND*%
X157500000Y-61000000D03*
%TD*%
D11*
%TO.P,D77,1,DOUT*%
%TO.N,RGB_DOUT_18*%
X112500000Y-103150000D03*
%TO.P,D77,2,VSS*%
%TO.N,GND*%
X112500000Y-104900000D03*
%TO.P,D77,3,DIN*%
%TO.N,RGB_DOUT_17*%
X116000000Y-104900000D03*
%TO.P,D77,4,VDD*%
%TO.N,+5V*%
X116000000Y-103150000D03*
%TD*%
D12*
%TO.P,X1,1,L*%
%TO.N,L_IN*%
X49800000Y-44880000D03*
%TO.P,X1,2,N*%
%TO.N,N*%
X49800000Y-52500000D03*
%TO.P,X1,3,PE*%
%TO.N,PE*%
X49800000Y-60120000D03*
%TD*%
D13*
%TO.P,F1,1,1*%
%TO.N,L_IN*%
X60500000Y-78000000D03*
%TO.P,F1,2,2*%
%TO.N,L_FUSED*%
X60500000Y-98000000D03*
%TD*%
D14*
%TO.P,PSU1,1,AC/L*%
%TO.N,L_FUSED*%
X64000000Y-58000000D03*
D13*
%TO.P,PSU1,2,AC/N*%
%TO.N,N*%
X64000000Y-68750000D03*
%TO.P,PSU1,3,-Vout*%
%TO.N,GND*%
X102500000Y-68750000D03*
%TO.P,PSU1,4,+Vout*%
%TO.N,+5V*%
X102500000Y-60750000D03*
%TD*%
D12*
%TO.P,X2,1,L_SW*%
%TO.N,L_PUMP*%
X49800000Y-79880000D03*
%TO.P,X2,2,N*%
%TO.N,N*%
X49800000Y-87500000D03*
%TO.P,X2,3,PE*%
%TO.N,PE*%
X49800000Y-95120000D03*
%TD*%
%TO.P,X3,1,L_AUF*%
%TO.N,L_OPEN*%
X49800000Y-111070000D03*
%TO.P,X3,2,L_ZU*%
%TO.N,L_CLOSE*%
X49800000Y-118690000D03*
%TO.P,X3,3,N*%
%TO.N,N*%
X49800000Y-126310000D03*
%TO.P,X3,4,PE*%
%TO.N,PE*%
X49800000Y-133930000D03*
%TD*%
%TO.P,K1,1,COM*%
%TO.N,L_FUSED*%
X71000000Y-79500000D03*
%TO.P,K1,2,NO*%
%TO.N,L_PUMP*%
X71000000Y-86500000D03*
D15*
%TO.P,K1,A1,A1*%
%TO.N,+5V*%
X91000000Y-79500000D03*
%TO.P,K1,A2,A2*%
%TO.N,PUMP_COIL_L*%
X91000000Y-86500000D03*
%TD*%
D16*
%TO.P,K2,1,COM*%
%TO.N,L_FUSED*%
X71000000Y-101500000D03*
%TO.P,K2,2,NO*%
%TO.N,MIX_L_EN*%
X71000000Y-108500000D03*
D15*
%TO.P,K2,A1,A1*%
%TO.N,+5V*%
X91000000Y-101500000D03*
%TO.P,K2,A2,A2*%
%TO.N,MIX_ENABLE_COIL_L*%
X91000000Y-108500000D03*
%TD*%
%TO.P,K3,A1,A1*%
%TO.N,+5V*%
X91000000Y-121500000D03*
%TO.P,K3,A2,A2*%
%TO.N,MIX_DIR_COIL_L*%
X91000000Y-128500000D03*
D16*
%TO.P,K3,C,COM*%
%TO.N,MIX_L_EN*%
X71000000Y-120500000D03*
%TO.P,K3,NC,NC_ZU*%
%TO.N,L_CLOSE*%
X71000000Y-125000000D03*
%TO.P,K3,NO,NO_AUF*%
%TO.N,L_OPEN*%
X71000000Y-129500000D03*
%TD*%
D17*
%TO.P,U1,1,GND*%
%TO.N,GND*%
X150250000Y-34250000D03*
%TO.P,U1,2,VDD*%
%TO.N,+3V3*%
X150250000Y-35520000D03*
%TO.P,U1,3*%
%TO.N,N/C*%
X150250000Y-36790000D03*
%TO.P,U1,4*%
X150250000Y-38060000D03*
%TO.P,U1,5*%
X150250000Y-39330000D03*
%TO.P,U1,6*%
X150250000Y-40600000D03*
%TO.P,U1,7*%
X150250000Y-41870000D03*
%TO.P,U1,8*%
X150250000Y-43140000D03*
%TO.P,U1,9*%
X150250000Y-44410000D03*
%TO.P,U1,10,IO25*%
%TO.N,PUMP_DRV*%
X150250000Y-45680000D03*
%TO.P,U1,11,IO26*%
%TO.N,MIX_ENABLE_DRV*%
X150250000Y-46950000D03*
%TO.P,U1,12,IO27*%
%TO.N,MIX_DIR_DRV*%
X150250000Y-48220000D03*
%TO.P,U1,13*%
%TO.N,N/C*%
X150250000Y-49490000D03*
%TO.P,U1,14*%
X150250000Y-50760000D03*
D18*
%TO.P,U1,15,GND*%
%TO.N,GND*%
X153290000Y-52010000D03*
%TO.P,U1,16*%
%TO.N,N/C*%
X154560000Y-52010000D03*
%TO.P,U1,17*%
X155830000Y-52010000D03*
%TO.P,U1,18*%
X157100000Y-52010000D03*
%TO.P,U1,19*%
X158370000Y-52010000D03*
%TO.P,U1,20*%
X159640000Y-52010000D03*
%TO.P,U1,21*%
X160910000Y-52010000D03*
%TO.P,U1,22*%
X162180000Y-52010000D03*
%TO.P,U1,23*%
X163450000Y-52010000D03*
%TO.P,U1,24*%
X164720000Y-52010000D03*
D17*
%TO.P,U1,25*%
X167750000Y-50760000D03*
%TO.P,U1,26,IO4*%
%TO.N,RS485_DE*%
X167750000Y-49490000D03*
%TO.P,U1,27*%
%TO.N,N/C*%
X167750000Y-48220000D03*
%TO.P,U1,28*%
X167750000Y-46950000D03*
%TO.P,U1,29*%
X167750000Y-45680000D03*
%TO.P,U1,30,IO18*%
%TO.N,SPI_SCK*%
X167750000Y-44410000D03*
%TO.P,U1,31,IO19*%
%TO.N,SPI_MISO*%
X167750000Y-43140000D03*
%TO.P,U1,32*%
%TO.N,N/C*%
X167750000Y-41870000D03*
%TO.P,U1,33,IO21*%
%TO.N,RGB_DATA*%
X167750000Y-40600000D03*
%TO.P,U1,34,RXD0/IO3*%
%TO.N,UART_RX*%
X167750000Y-39330000D03*
%TO.P,U1,35,TXD0/IO1*%
%TO.N,UART_TX*%
X167750000Y-38060000D03*
%TO.P,U1,36*%
%TO.N,N/C*%
X167750000Y-36790000D03*
%TO.P,U1,37,IO23*%
%TO.N,SPI_MOSI*%
X167750000Y-35520000D03*
%TO.P,U1,38,GND*%
%TO.N,GND*%
X167750000Y-34250000D03*
D19*
%TO.P,U1,39,GND*%
X156100000Y-40570000D03*
D20*
X156100000Y-41270000D03*
D19*
X156100000Y-41970000D03*
D20*
X156100000Y-42670000D03*
D19*
X156100000Y-43370000D03*
D20*
X156800000Y-40570000D03*
X156800000Y-41970000D03*
X156800000Y-43370000D03*
X157475000Y-41270000D03*
X157475000Y-42670000D03*
D19*
X157500000Y-40570000D03*
X157500000Y-41970000D03*
D21*
X157500000Y-41970000D03*
D19*
X157500000Y-43370000D03*
D20*
X158200000Y-40570000D03*
X158200000Y-41970000D03*
X158200000Y-43370000D03*
D19*
X158900000Y-40570000D03*
D20*
X158900000Y-41270000D03*
D19*
X158900000Y-41970000D03*
D20*
X158900000Y-42670000D03*
D19*
X158900000Y-43370000D03*
%TD*%
D22*
%TO.P,U5,1,GND*%
%TO.N,GND*%
X135200000Y-38700000D03*
D23*
%TO.P,U5,2,TAB*%
%TO.N,+3V3*%
X139800000Y-41000000D03*
D22*
%TO.P,U5,2,OUT*%
X135200000Y-41000000D03*
%TO.P,U5,3,IN*%
%TO.N,+5V*%
X135200000Y-43300000D03*
%TD*%
D24*
%TO.P,U2,1,RTD+*%
%TO.N,RTD_VL_P*%
X186100000Y-46500000D03*
%TO.P,U2,2,RTD-*%
%TO.N,RTD_VL_N*%
X186100000Y-45500000D03*
%TO.P,U2,8,GND*%
%TO.N,GND*%
X186100000Y-39500000D03*
%TO.P,U2,9,SCK*%
%TO.N,SPI_SCK*%
X175900000Y-39500000D03*
%TO.P,U2,10,MOSI*%
%TO.N,SPI_MOSI*%
X175900000Y-40500000D03*
%TO.P,U2,11,MISO*%
%TO.N,SPI_MISO*%
X175900000Y-41500000D03*
%TO.P,U2,16,VCC*%
%TO.N,+3V3*%
X175900000Y-46500000D03*
%TD*%
%TO.P,U3,1,RTD+*%
%TO.N,RTD_RL_P*%
X186100000Y-56500000D03*
%TO.P,U3,2,RTD-*%
%TO.N,RTD_RL_N*%
X186100000Y-55500000D03*
%TO.P,U3,8,GND*%
%TO.N,GND*%
X186100000Y-49500000D03*
%TO.P,U3,9,SCK*%
%TO.N,SPI_SCK*%
X175900000Y-49500000D03*
%TO.P,U3,10,MOSI*%
%TO.N,SPI_MOSI*%
X175900000Y-50500000D03*
%TO.P,U3,11,MISO*%
%TO.N,SPI_MISO*%
X175900000Y-51500000D03*
%TO.P,U3,16,VCC*%
%TO.N,+3V3*%
X175900000Y-56500000D03*
%TD*%
D15*
%TO.P,X4,1,+*%
%TO.N,RTD_VL_P*%
X194800000Y-46750000D03*
%TO.P,X4,2,-*%
%TO.N,RTD_VL_N*%
X194800000Y-43250000D03*
%TD*%
%TO.P,X5,1,+*%
%TO.N,RTD_RL_P*%
X194800000Y-55250000D03*
%TO.P,X5,2,-*%
%TO.N,RTD_RL_N*%
X194800000Y-51750000D03*
%TD*%
D25*
%TO.P,U4,1,RO*%
%TO.N,UART_RX*%
X142800000Y-102595000D03*
%TO.P,U4,2,~{RE}*%
%TO.N,RS485_DE*%
X142800000Y-103865000D03*
%TO.P,U4,3,DE*%
X142800000Y-105135000D03*
%TO.P,U4,4,DI*%
%TO.N,UART_TX*%
X142800000Y-106405000D03*
%TO.P,U4,5,GND*%
%TO.N,GND*%
X148200000Y-106405000D03*
%TO.P,U4,6,A*%
%TO.N,RS485_A*%
X148200000Y-105135000D03*
%TO.P,U4,7,B*%
%TO.N,RS485_B*%
X148200000Y-103865000D03*
%TO.P,U4,8,VCC*%
%TO.N,+3V3*%
X148200000Y-102595000D03*
%TD*%
D15*
%TO.P,J3,1,D+*%
%TO.N,RS485_A*%
X194800000Y-68000000D03*
%TO.P,J3,2,D-*%
%TO.N,RS485_B*%
X194800000Y-64500000D03*
%TO.P,J3,3,GND*%
%TO.N,RS485_GND*%
X194800000Y-61000000D03*
%TD*%
%TO.P,J4,1,D+*%
%TO.N,RS485_A*%
X194800000Y-115500000D03*
%TO.P,J4,2,D-*%
%TO.N,RS485_B*%
X194800000Y-112000000D03*
%TO.P,J4,3,GND*%
%TO.N,RS485_GND*%
X194800000Y-108500000D03*
%TD*%
D26*
%TO.P,X6,A4,VBUS*%
%TO.N,USB_VBUS*%
X194300000Y-132000000D03*
%TO.P,X6,A5,CC1*%
%TO.N,USB_CC1*%
X194300000Y-130500000D03*
%TO.P,X6,A6,D+*%
%TO.N,USB_D+*%
X194300000Y-129000000D03*
%TO.P,X6,A7,D-*%
%TO.N,USB_D-*%
X194300000Y-127500000D03*
%TO.P,X6,A8,SBU1*%
%TO.N,GND*%
X194300000Y-126000000D03*
%TO.P,X6,B4,VBUS*%
%TO.N,USB_VBUS*%
X198300000Y-132000000D03*
%TO.P,X6,B5,CC2*%
%TO.N,USB_CC2*%
X198300000Y-130500000D03*
%TO.P,X6,B6,D+*%
%TO.N,USB_D+*%
X198300000Y-129000000D03*
%TO.P,X6,B7,D-*%
%TO.N,USB_D-*%
X198300000Y-127500000D03*
%TO.P,X6,B8,SBU2*%
%TO.N,GND*%
X198300000Y-126000000D03*
D27*
%TO.P,X6,SH,SHIELD*%
X196300000Y-134000000D03*
X196300000Y-124000000D03*
%TD*%
D28*
%TO.P,U6,1,VBUS*%
%TO.N,USB_VBUS*%
X184500000Y-126500000D03*
%TO.P,U6,2,D+*%
%TO.N,USB_D+*%
X184500000Y-125500000D03*
%TO.P,U6,3,D-*%
%TO.N,USB_D-*%
X184500000Y-124500000D03*
%TO.P,U6,4,GND*%
%TO.N,GND*%
X184500000Y-123500000D03*
%TO.P,U6,5,TXD*%
%TO.N,UART_RX*%
X178500000Y-126000000D03*
%TO.P,U6,6,RXD*%
%TO.N,UART_TX*%
X178500000Y-125000000D03*
%TO.P,U6,7,DTR*%
%TO.N,N/C*%
X178500000Y-124000000D03*
%TO.P,U6,8,RTS*%
X178500000Y-123000000D03*
%TD*%
D29*
%TO.P,R1,1,1*%
%TO.N,USB_CC1*%
X177300000Y-132000000D03*
%TO.P,R1,2,2*%
%TO.N,GND*%
X175700000Y-132000000D03*
%TD*%
%TO.P,R2,1,1*%
%TO.N,USB_CC2*%
X184500000Y-132000000D03*
%TO.P,R2,2,2*%
%TO.N,GND*%
X182900000Y-132000000D03*
%TD*%
%TO.P,R3,1,1*%
%TO.N,RS485_A*%
X172300000Y-102000000D03*
%TO.P,R3,2,2*%
%TO.N,RS485_TERM*%
X170700000Y-102000000D03*
%TD*%
D30*
%TO.P,JP1,1,1*%
%TO.N,RS485_TERM*%
X176000000Y-99040000D03*
%TO.P,JP1,2,2*%
%TO.N,RS485_B*%
X176000000Y-96500000D03*
%TO.P,JP1,3,PARK_NC*%
%TO.N,N/C*%
X176000000Y-93960000D03*
%TD*%
D31*
%TO.P,R40,1,1*%
%TO.N,L_FUSED*%
X75050000Y-41000000D03*
%TO.P,R40,2,2*%
%TO.N,LED230_DROP*%
X71950000Y-41000000D03*
%TD*%
D32*
%TO.P,F2,1,BUS*%
%TO.N,BUS_5V*%
X173100000Y-88500000D03*
%TO.P,F2,2,LOCAL_5V*%
%TO.N,+5V*%
X168900000Y-88500000D03*
%TD*%
D33*
%TO.P,D4,1,K*%
%TO.N,+5V*%
X135700000Y-125000000D03*
%TO.P,D4,2,A*%
%TO.N,USB_VBUS*%
X139300000Y-125000000D03*
%TD*%
D29*
%TO.P,R4,1,1*%
%TO.N,PUMP_DRV*%
X98350000Y-81450000D03*
%TO.P,R4,2,2*%
%TO.N,PUMP_GATE*%
X99950000Y-81450000D03*
%TD*%
%TO.P,R7,1,1*%
%TO.N,PUMP_GATE*%
X103150000Y-81450000D03*
%TO.P,R7,2,2*%
%TO.N,GND*%
X104750000Y-81450000D03*
%TD*%
D34*
%TO.P,Q1,1,G*%
%TO.N,PUMP_GATE*%
X100000000Y-84500000D03*
%TO.P,Q1,2,S*%
%TO.N,GND*%
X100000000Y-86400000D03*
D35*
%TO.P,Q1,3,D*%
%TO.N,PUMP_COIL_L*%
X101900000Y-85450000D03*
%TD*%
D33*
%TO.P,D1,1,K*%
%TO.N,+5V*%
X100200000Y-78450000D03*
%TO.P,D1,2,A*%
%TO.N,PUMP_COIL_L*%
X103800000Y-78450000D03*
%TD*%
D29*
%TO.P,R10,1,1*%
%TO.N,+5V*%
X99150000Y-89450000D03*
%TO.P,R10,2,2*%
%TO.N,LED_PUMP_A*%
X100750000Y-89450000D03*
%TD*%
%TO.P,D10,1,A*%
%TO.N,LED_PUMP_A*%
X105150000Y-89450000D03*
%TO.P,D10,2,K*%
%TO.N,PUMP_COIL_L*%
X106750000Y-89450000D03*
%TD*%
%TO.P,R5,1,1*%
%TO.N,MIX_ENABLE_DRV*%
X98900000Y-103000000D03*
%TO.P,R5,2,2*%
%TO.N,MIX_ENABLE_GATE*%
X100500000Y-103000000D03*
%TD*%
%TO.P,R8,1,1*%
%TO.N,MIX_ENABLE_GATE*%
X103900000Y-103000000D03*
%TO.P,R8,2,2*%
%TO.N,GND*%
X105500000Y-103000000D03*
%TD*%
D34*
%TO.P,Q2,1,G*%
%TO.N,MIX_ENABLE_GATE*%
X100750000Y-106050000D03*
%TO.P,Q2,2,S*%
%TO.N,GND*%
X100750000Y-107950000D03*
D35*
%TO.P,Q2,3,D*%
%TO.N,MIX_ENABLE_COIL_L*%
X102650000Y-107000000D03*
%TD*%
D33*
%TO.P,D2,1,K*%
%TO.N,+5V*%
X100200000Y-98500000D03*
%TO.P,D2,2,A*%
%TO.N,MIX_ENABLE_COIL_L*%
X103800000Y-98500000D03*
%TD*%
D29*
%TO.P,R11,1,1*%
%TO.N,+5V*%
X99900000Y-111000000D03*
%TO.P,R11,2,2*%
%TO.N,LED_OPEN_A*%
X101500000Y-111000000D03*
%TD*%
%TO.P,D11,1,A*%
%TO.N,LED_OPEN_A*%
X105900000Y-111000000D03*
%TO.P,D11,2,K*%
%TO.N,MIX_ENABLE_COIL_L*%
X107500000Y-111000000D03*
%TD*%
%TO.P,R6,1,1*%
%TO.N,MIX_DIR_DRV*%
X98250000Y-122000000D03*
%TO.P,R6,2,2*%
%TO.N,MIX_DIR_GATE*%
X99850000Y-122000000D03*
%TD*%
%TO.P,R9,1,1*%
%TO.N,MIX_DIR_GATE*%
X104250000Y-122000000D03*
%TO.P,R9,2,2*%
%TO.N,GND*%
X105850000Y-122000000D03*
%TD*%
D34*
%TO.P,Q3,1,G*%
%TO.N,MIX_DIR_GATE*%
X101100000Y-125050000D03*
%TO.P,Q3,2,S*%
%TO.N,GND*%
X101100000Y-126950000D03*
D35*
%TO.P,Q3,3,D*%
%TO.N,MIX_DIR_COIL_L*%
X103000000Y-126000000D03*
%TD*%
D33*
%TO.P,D3,1,K*%
%TO.N,+5V*%
X100250000Y-118000000D03*
%TO.P,D3,2,A*%
%TO.N,MIX_DIR_COIL_L*%
X103850000Y-118000000D03*
%TD*%
D29*
%TO.P,R12,1,1*%
%TO.N,+5V*%
X100250000Y-133000000D03*
%TO.P,R12,2,2*%
%TO.N,LED_CLOSE_A*%
X101850000Y-133000000D03*
%TD*%
%TO.P,D12,1,A*%
%TO.N,LED_CLOSE_A*%
X106250000Y-133000000D03*
%TO.P,D12,2,K*%
%TO.N,MIX_DIR_COIL_L*%
X107850000Y-133000000D03*
%TD*%
%TO.P,R20,1,1*%
%TO.N,+5V*%
X175000000Y-74500000D03*
%TO.P,R20,2,2*%
%TO.N,LED_5V_A*%
X176600000Y-74500000D03*
%TD*%
%TO.P,D20,1,A*%
%TO.N,LED_5V_A*%
X181000000Y-72500000D03*
%TO.P,D20,2,K*%
%TO.N,GND*%
X182600000Y-72500000D03*
%TD*%
%TO.P,R21,1,1*%
%TO.N,+3V3*%
X175000000Y-79500000D03*
%TO.P,R21,2,2*%
%TO.N,LED_3V3_A*%
X176600000Y-79500000D03*
%TD*%
%TO.P,D21,1,A*%
%TO.N,LED_3V3_A*%
X181000000Y-79500000D03*
%TO.P,D21,2,K*%
%TO.N,GND*%
X182600000Y-79500000D03*
%TD*%
%TO.P,R30,1,1*%
%TO.N,+3V3*%
X157500000Y-99000000D03*
%TO.P,R30,2,2*%
%TO.N,LED_TX_A*%
X159100000Y-99000000D03*
%TD*%
%TO.P,D30,1,A*%
%TO.N,LED_TX_A*%
X163900000Y-99000000D03*
%TO.P,D30,2,K*%
%TO.N,UART_TX*%
X165500000Y-99000000D03*
%TD*%
%TO.P,R31,1,1*%
%TO.N,+3V3*%
X157400000Y-103500000D03*
%TO.P,R31,2,2*%
%TO.N,LED_RX_A*%
X159000000Y-103500000D03*
%TD*%
%TO.P,D31,1,A*%
%TO.N,LED_RX_A*%
X163900000Y-103500000D03*
%TO.P,D31,2,K*%
%TO.N,UART_RX*%
X165500000Y-103500000D03*
%TD*%
%TO.P,R32,1,BUS_COM*%
%TO.N,RS485_GND*%
X167900000Y-132000000D03*
%TO.P,R32,2,LOCAL_GND*%
%TO.N,GND*%
X169500000Y-132000000D03*
%TD*%
D31*
%TO.P,R41,1,1*%
%TO.N,LED230_DROP*%
X70050000Y-41000000D03*
%TO.P,R41,2,2*%
%TO.N,LED230_A*%
X66950000Y-41000000D03*
%TD*%
D36*
%TO.P,D40,1,A*%
%TO.N,LED230_A*%
X62500000Y-43400000D03*
%TO.P,D40,2,K*%
%TO.N,N*%
X62500000Y-41600000D03*
%TD*%
D33*
%TO.P,D41,1,A*%
%TO.N,N*%
X57000000Y-40700000D03*
%TO.P,D41,2,K*%
%TO.N,LED230_A*%
X57000000Y-44300000D03*
%TD*%
D15*
%TO.P,RV1,1,1*%
%TO.N,L_FUSED*%
X61000000Y-109500000D03*
%TO.P,RV1,2,2*%
%TO.N,N*%
X61000000Y-117000000D03*
%TD*%
D33*
%TO.P,D50,1,A*%
%TO.N,RS485_A*%
X165900000Y-118500000D03*
%TO.P,D50,2,K*%
%TO.N,RS485_GND*%
X169500000Y-118500000D03*
%TD*%
%TO.P,D51,1,A*%
%TO.N,RS485_B*%
X165900000Y-125000000D03*
%TO.P,D51,2,K*%
%TO.N,RS485_GND*%
X169500000Y-125000000D03*
%TD*%
%TO.P,D52,1,A*%
%TO.N,RS485_A*%
X165900000Y-112500000D03*
%TO.P,D52,2,K*%
%TO.N,RS485_B*%
X169500000Y-112500000D03*
%TD*%
D11*
%TO.P,D82,1,DOUT*%
%TO.N,RGB_DOUT_23*%
X112500000Y-127150000D03*
%TO.P,D82,2,VSS*%
%TO.N,GND*%
X112500000Y-128900000D03*
%TO.P,D82,3,DIN*%
%TO.N,RGB_DOUT_22*%
X116000000Y-128900000D03*
%TO.P,D82,4,VDD*%
%TO.N,+5V*%
X116000000Y-127150000D03*
%TD*%
D10*
%TO.P,C71,1,1*%
%TO.N,+5V*%
X120475000Y-75225000D03*
%TO.P,C71,2,2*%
%TO.N,GND*%
X122025000Y-75225000D03*
%TD*%
%TO.P,C72,1,1*%
%TO.N,+5V*%
X120475000Y-80025000D03*
%TO.P,C72,2,2*%
%TO.N,GND*%
X122025000Y-80025000D03*
%TD*%
D11*
%TO.P,D78,1,DOUT*%
%TO.N,RGB_DOUT_19*%
X112500000Y-107950000D03*
%TO.P,D78,2,VSS*%
%TO.N,GND*%
X112500000Y-109700000D03*
%TO.P,D78,3,DIN*%
%TO.N,RGB_DOUT_18*%
X116000000Y-109700000D03*
%TO.P,D78,4,VDD*%
%TO.N,+5V*%
X116000000Y-107950000D03*
%TD*%
%TO.P,D71,1,DOUT*%
%TO.N,RGB_DOUT_12*%
X112500000Y-74350000D03*
%TO.P,D71,2,VSS*%
%TO.N,GND*%
X112500000Y-76100000D03*
%TO.P,D71,3,DIN*%
%TO.N,RGB_DOUT_11*%
X116000000Y-76100000D03*
%TO.P,D71,4,VDD*%
%TO.N,+5V*%
X116000000Y-74350000D03*
%TD*%
D10*
%TO.P,C61,1,1*%
%TO.N,+5V*%
X167000000Y-71000000D03*
%TO.P,C61,2,2*%
%TO.N,GND*%
X168550000Y-71000000D03*
%TD*%
D11*
%TO.P,D65,1,DOUT*%
%TO.N,RGB_DOUT_6*%
X112500000Y-45550000D03*
%TO.P,D65,2,VSS*%
%TO.N,GND*%
X112500000Y-47300000D03*
%TO.P,D65,3,DIN*%
%TO.N,RGB_DOUT_5*%
X116000000Y-47300000D03*
%TO.P,D65,4,VDD*%
%TO.N,+5V*%
X116000000Y-45550000D03*
%TD*%
D10*
%TO.P,C75,1,1*%
%TO.N,+5V*%
X120475000Y-94425000D03*
%TO.P,C75,2,2*%
%TO.N,GND*%
X122025000Y-94425000D03*
%TD*%
%TO.P,C66,1,1*%
%TO.N,+5V*%
X120475000Y-51225000D03*
%TO.P,C66,2,2*%
%TO.N,GND*%
X122025000Y-51225000D03*
%TD*%
D11*
%TO.P,D67,1,DOUT*%
%TO.N,RGB_DOUT_8*%
X112500000Y-55150000D03*
%TO.P,D67,2,VSS*%
%TO.N,GND*%
X112500000Y-56900000D03*
%TO.P,D67,3,DIN*%
%TO.N,RGB_DOUT_7*%
X116000000Y-56900000D03*
%TO.P,D67,4,VDD*%
%TO.N,+5V*%
X116000000Y-55150000D03*
%TD*%
D10*
%TO.P,C73,1,1*%
%TO.N,+5V*%
X120475000Y-84825000D03*
%TO.P,C73,2,2*%
%TO.N,GND*%
X122025000Y-84825000D03*
%TD*%
D11*
%TO.P,D63,1,DOUT*%
%TO.N,RGB_DOUT_4*%
X160250000Y-71125000D03*
%TO.P,D63,2,VSS*%
%TO.N,GND*%
X160250000Y-72875000D03*
%TO.P,D63,3,DIN*%
%TO.N,RGB_DOUT_3*%
X163750000Y-72875000D03*
%TO.P,D63,4,VDD*%
%TO.N,+5V*%
X163750000Y-71125000D03*
%TD*%
%TO.P,D75,1,DOUT*%
%TO.N,RGB_DOUT_16*%
X112500000Y-93550000D03*
%TO.P,D75,2,VSS*%
%TO.N,GND*%
X112500000Y-95300000D03*
%TO.P,D75,3,DIN*%
%TO.N,RGB_DOUT_15*%
X116000000Y-95300000D03*
%TO.P,D75,4,VDD*%
%TO.N,+5V*%
X116000000Y-93550000D03*
%TD*%
D37*
%TO.P,R60,1,1*%
%TO.N,RGB_DATA*%
X170850000Y-57000000D03*
%TO.P,R60,2,2*%
%TO.N,RGB_DIN_1*%
X172500000Y-57000000D03*
%TD*%
D11*
%TO.P,D60,1,DOUT*%
%TO.N,RGB_DOUT_1*%
X150250000Y-61125000D03*
%TO.P,D60,2,VSS*%
%TO.N,GND*%
X150250000Y-62875000D03*
%TO.P,D60,3,DIN*%
%TO.N,RGB_DIN_1*%
X153750000Y-62875000D03*
%TO.P,D60,4,VDD*%
%TO.N,+5V*%
X153750000Y-61125000D03*
%TD*%
D10*
%TO.P,C82,1,1*%
%TO.N,+5V*%
X120475000Y-128025000D03*
%TO.P,C82,2,2*%
%TO.N,GND*%
X122025000Y-128025000D03*
%TD*%
D11*
%TO.P,D76,1,DOUT*%
%TO.N,RGB_DOUT_17*%
X112500000Y-98350000D03*
%TO.P,D76,2,VSS*%
%TO.N,GND*%
X112500000Y-100100000D03*
%TO.P,D76,3,DIN*%
%TO.N,RGB_DOUT_16*%
X116000000Y-100100000D03*
%TO.P,D76,4,VDD*%
%TO.N,+5V*%
X116000000Y-98350000D03*
%TD*%
%TO.P,D66,1,DOUT*%
%TO.N,RGB_DOUT_7*%
X112500000Y-50350000D03*
%TO.P,D66,2,VSS*%
%TO.N,GND*%
X112500000Y-52100000D03*
%TO.P,D66,3,DIN*%
%TO.N,RGB_DOUT_6*%
X116000000Y-52100000D03*
%TO.P,D66,4,VDD*%
%TO.N,+5V*%
X116000000Y-50350000D03*
%TD*%
D10*
%TO.P,C70,1,1*%
%TO.N,+5V*%
X120475000Y-70425000D03*
%TO.P,C70,2,2*%
%TO.N,GND*%
X122025000Y-70425000D03*
%TD*%
D11*
%TO.P,D70,1,DOUT*%
%TO.N,RGB_DOUT_11*%
X112500000Y-69550000D03*
%TO.P,D70,2,VSS*%
%TO.N,GND*%
X112500000Y-71300000D03*
%TO.P,D70,3,DIN*%
%TO.N,RGB_DOUT_10*%
X116000000Y-71300000D03*
%TO.P,D70,4,VDD*%
%TO.N,+5V*%
X116000000Y-69550000D03*
%TD*%
D10*
%TO.P,C63,1,1*%
%TO.N,+5V*%
X166725000Y-61000000D03*
%TO.P,C63,2,2*%
%TO.N,GND*%
X168275000Y-61000000D03*
%TD*%
%TO.P,C65,1,1*%
%TO.N,+5V*%
X120475000Y-46425000D03*
%TO.P,C65,2,2*%
%TO.N,GND*%
X122025000Y-46425000D03*
%TD*%
D38*
%TO.P,J1,1,BUS_5V*%
%TO.N,BUS_5V*%
X188650000Y-84230000D03*
D39*
%TO.P,J1,2,BUS_5V*%
X186110000Y-82960000D03*
%TO.P,J1,3,3*%
%TO.N,N/C*%
X188650000Y-81690000D03*
%TO.P,J1,4,RS485_A*%
%TO.N,RS485_A*%
X186110000Y-80420000D03*
%TO.P,J1,5,RS485_B*%
%TO.N,RS485_B*%
X188650000Y-79150000D03*
%TO.P,J1,6,6*%
%TO.N,N/C*%
X186110000Y-77880000D03*
%TO.P,J1,7,RS485_GND*%
%TO.N,RS485_GND*%
X188650000Y-76610000D03*
%TO.P,J1,8,RS485_GND*%
X186110000Y-75340000D03*
%TD*%
D10*
%TO.P,C60,1,1*%
%TO.N,+5V*%
X156000000Y-71000000D03*
%TO.P,C60,2,2*%
%TO.N,GND*%
X157550000Y-71000000D03*
%TD*%
D38*
%TO.P,J2,1,BUS_5V*%
%TO.N,BUS_5V*%
X188650000Y-101230000D03*
D39*
%TO.P,J2,2,BUS_5V*%
X186110000Y-99960000D03*
%TO.P,J2,3,3*%
%TO.N,N/C*%
X188650000Y-98690000D03*
%TO.P,J2,4,RS485_A*%
%TO.N,RS485_A*%
X186110000Y-97420000D03*
%TO.P,J2,5,RS485_B*%
%TO.N,RS485_B*%
X188650000Y-96150000D03*
%TO.P,J2,6,6*%
%TO.N,N/C*%
X186110000Y-94880000D03*
%TO.P,J2,7,RS485_GND*%
%TO.N,RS485_GND*%
X188650000Y-93610000D03*
%TO.P,J2,8,RS485_GND*%
X186110000Y-92340000D03*
%TD*%
D11*
%TO.P,D69,1,DOUT*%
%TO.N,RGB_DOUT_10*%
X112500000Y-64750000D03*
%TO.P,D69,2,VSS*%
%TO.N,GND*%
X112500000Y-66500000D03*
%TO.P,D69,3,DIN*%
%TO.N,RGB_DOUT_9*%
X116000000Y-66500000D03*
%TO.P,D69,4,VDD*%
%TO.N,+5V*%
X116000000Y-64750000D03*
%TD*%
D10*
%TO.P,C78,1,1*%
%TO.N,+5V*%
X120475000Y-108825000D03*
%TO.P,C78,2,2*%
%TO.N,GND*%
X122025000Y-108825000D03*
%TD*%
%TO.P,C83,1,1*%
%TO.N,+5V*%
X120475000Y-132825000D03*
%TO.P,C83,2,2*%
%TO.N,GND*%
X122025000Y-132825000D03*
%TD*%
D11*
%TO.P,D83,1,DOUT*%
%TO.N,RGB_DOUT_24*%
X112500000Y-131950000D03*
%TO.P,D83,2,VSS*%
%TO.N,GND*%
X112500000Y-133700000D03*
%TO.P,D83,3,DIN*%
%TO.N,RGB_DOUT_23*%
X116000000Y-133700000D03*
%TO.P,D83,4,VDD*%
%TO.N,+5V*%
X116000000Y-131950000D03*
%TD*%
D10*
%TO.P,C79,1,1*%
%TO.N,+5V*%
X120475000Y-113625000D03*
%TO.P,C79,2,2*%
%TO.N,GND*%
X122025000Y-113625000D03*
%TD*%
D11*
%TO.P,D81,1,DOUT*%
%TO.N,RGB_DOUT_22*%
X112500000Y-122350000D03*
%TO.P,D81,2,VSS*%
%TO.N,GND*%
X112500000Y-124100000D03*
%TO.P,D81,3,DIN*%
%TO.N,RGB_DOUT_21*%
X116000000Y-124100000D03*
%TO.P,D81,4,VDD*%
%TO.N,+5V*%
X116000000Y-122350000D03*
%TD*%
D10*
%TO.P,C76,1,1*%
%TO.N,+5V*%
X120475000Y-99225000D03*
%TO.P,C76,2,2*%
%TO.N,GND*%
X122025000Y-99225000D03*
%TD*%
%TO.P,C74,1,1*%
%TO.N,+5V*%
X120475000Y-89625000D03*
%TO.P,C74,2,2*%
%TO.N,GND*%
X122025000Y-89625000D03*
%TD*%
%TO.P,C69,1,1*%
%TO.N,+5V*%
X120475000Y-65625000D03*
%TO.P,C69,2,2*%
%TO.N,GND*%
X122025000Y-65625000D03*
%TD*%
%TO.P,C77,1,1*%
%TO.N,+5V*%
X120475000Y-104025000D03*
%TO.P,C77,2,2*%
%TO.N,GND*%
X122025000Y-104025000D03*
%TD*%
D11*
%TO.P,D62,1,DOUT*%
%TO.N,RGB_DOUT_3*%
X150250000Y-71125000D03*
%TO.P,D62,2,VSS*%
%TO.N,GND*%
X150250000Y-72875000D03*
%TO.P,D62,3,DIN*%
%TO.N,RGB_DOUT_2*%
X153750000Y-72875000D03*
%TO.P,D62,4,VDD*%
%TO.N,+5V*%
X153750000Y-71125000D03*
%TD*%
%TO.P,D61,1,DOUT*%
%TO.N,RGB_DOUT_2*%
X160250000Y-61125000D03*
%TO.P,D61,2,VSS*%
%TO.N,GND*%
X160250000Y-62875000D03*
%TO.P,D61,3,DIN*%
%TO.N,RGB_DOUT_1*%
X163750000Y-62875000D03*
%TO.P,D61,4,VDD*%
%TO.N,+5V*%
X163750000Y-61125000D03*
%TD*%
D10*
%TO.P,C80,1,1*%
%TO.N,+5V*%
X120475000Y-118425000D03*
%TO.P,C80,2,2*%
%TO.N,GND*%
X122025000Y-118425000D03*
%TD*%
D11*
%TO.P,D68,1,DOUT*%
%TO.N,RGB_DOUT_9*%
X112500000Y-59950000D03*
%TO.P,D68,2,VSS*%
%TO.N,GND*%
X112500000Y-61700000D03*
%TO.P,D68,3,DIN*%
%TO.N,RGB_DOUT_8*%
X116000000Y-61700000D03*
%TO.P,D68,4,VDD*%
%TO.N,+5V*%
X116000000Y-59950000D03*
%TD*%
%TO.P,D80,1,DOUT*%
%TO.N,RGB_DOUT_21*%
X112500000Y-117550000D03*
%TO.P,D80,2,VSS*%
%TO.N,GND*%
X112500000Y-119300000D03*
%TO.P,D80,3,DIN*%
%TO.N,RGB_DOUT_20*%
X116000000Y-119300000D03*
%TO.P,D80,4,VDD*%
%TO.N,+5V*%
X116000000Y-117550000D03*
%TD*%
D10*
%TO.P,C67,1,1*%
%TO.N,+5V*%
X120475000Y-56025000D03*
%TO.P,C67,2,2*%
%TO.N,GND*%
X122025000Y-56025000D03*
%TD*%
D11*
%TO.P,D74,1,DOUT*%
%TO.N,RGB_DOUT_15*%
X112500000Y-88750000D03*
%TO.P,D74,2,VSS*%
%TO.N,GND*%
X112500000Y-90500000D03*
%TO.P,D74,3,DIN*%
%TO.N,RGB_DOUT_14*%
X116000000Y-90500000D03*
%TO.P,D74,4,VDD*%
%TO.N,+5V*%
X116000000Y-88750000D03*
%TD*%
%TO.P,D79,1,DOUT*%
%TO.N,RGB_DOUT_20*%
X112500000Y-112750000D03*
%TO.P,D79,2,VSS*%
%TO.N,GND*%
X112500000Y-114500000D03*
%TO.P,D79,3,DIN*%
%TO.N,RGB_DOUT_19*%
X116000000Y-114500000D03*
%TO.P,D79,4,VDD*%
%TO.N,+5V*%
X116000000Y-112750000D03*
%TD*%
D10*
%TO.P,C64,1,1*%
%TO.N,+5V*%
X120475000Y-41625000D03*
%TO.P,C64,2,2*%
%TO.N,GND*%
X122025000Y-41625000D03*
%TD*%
%TO.P,C68,1,1*%
%TO.N,+5V*%
X120475000Y-60825000D03*
%TO.P,C68,2,2*%
%TO.N,GND*%
X122025000Y-60825000D03*
%TD*%
D11*
%TO.P,D73,1,DOUT*%
%TO.N,RGB_DOUT_14*%
X112500000Y-83950000D03*
%TO.P,D73,2,VSS*%
%TO.N,GND*%
X112500000Y-85700000D03*
%TO.P,D73,3,DIN*%
%TO.N,RGB_DOUT_13*%
X116000000Y-85700000D03*
%TO.P,D73,4,VDD*%
%TO.N,+5V*%
X116000000Y-83950000D03*
%TD*%
%TO.P,D72,1,DOUT*%
%TO.N,RGB_DOUT_13*%
X112500000Y-79150000D03*
%TO.P,D72,2,VSS*%
%TO.N,GND*%
X112500000Y-80900000D03*
%TO.P,D72,3,DIN*%
%TO.N,RGB_DOUT_12*%
X116000000Y-80900000D03*
%TO.P,D72,4,VDD*%
%TO.N,+5V*%
X116000000Y-79150000D03*
%TD*%
%TO.P,D64,1,DOUT*%
%TO.N,RGB_DOUT_5*%
X112500000Y-40750000D03*
%TO.P,D64,2,VSS*%
%TO.N,GND*%
X112500000Y-42500000D03*
%TO.P,D64,3,DIN*%
%TO.N,RGB_DOUT_4*%
X116000000Y-42500000D03*
%TO.P,D64,4,VDD*%
%TO.N,+5V*%
X116000000Y-40750000D03*
%TD*%
D40*
%TO.N,+5V*%
X169000000Y-74000000D03*
X156500000Y-62500000D03*
X168500000Y-83500000D03*
X147500000Y-58500000D03*
X123500000Y-43000000D03*
X119500000Y-42500000D03*
%TO.N,GND*%
X180000000Y-70000000D03*
X108500000Y-122000000D03*
X138500000Y-107000000D03*
X122025000Y-126000000D03*
X122025000Y-68000000D03*
X182500000Y-70000000D03*
X171000000Y-132000000D03*
X162000000Y-70100000D03*
X163500000Y-65500000D03*
X166500000Y-64500000D03*
X155000000Y-64500000D03*
X150500000Y-109000000D03*
X157000000Y-64500000D03*
%TO.N,+3V3*%
X181700000Y-62300000D03*
X175500000Y-48000000D03*
%TO.N,PUMP_DRV*%
X95500000Y-80500000D03*
X146500000Y-45500000D03*
%TO.N,MIX_ENABLE_DRV*%
X146500000Y-47000000D03*
X99000000Y-104500000D03*
%TO.N,MIX_DIR_DRV*%
X96000000Y-122000000D03*
X146500000Y-48500000D03*
%TO.N,RS485_DE*%
X164000000Y-49000000D03*
X145500000Y-99000000D03*
%TO.N,SPI_SCK*%
X170000000Y-44500000D03*
X173000000Y-46500000D03*
%TO.N,SPI_MISO*%
X170000000Y-43000000D03*
X177550000Y-44500000D03*
X176000000Y-42500000D03*
%TO.N,UART_RX*%
X172000000Y-134000000D03*
X176000000Y-127500000D03*
X167500000Y-104500000D03*
X169500000Y-40500000D03*
%TO.N,RS485_A*%
X170500000Y-110000000D03*
X168500000Y-110000000D03*
%TO.N,USB_VBUS*%
X181700000Y-134600000D03*
X183000000Y-129500000D03*
%TO.N,USB_CC1*%
X182000000Y-128500000D03*
X190500000Y-126500000D03*
%TO.N,BUS_5V*%
X174000000Y-85500000D03*
%TO.N,RGB_DOUT_4*%
X123000000Y-44500000D03*
X155000000Y-69000000D03*
X158500000Y-70100000D03*
X119500000Y-44000000D03*
%TD*%
%TO.N,+5V*%
D41*
X103975000Y-40025000D02*
X104500000Y-39500000D01*
D42*
X156725000Y-60225000D02*
X165950000Y-60225000D01*
D43*
X91000000Y-53000000D02*
X91000000Y-37000000D01*
X91000000Y-37000000D02*
X120475000Y-37000000D01*
X120475000Y-37000000D02*
X120475000Y-41625000D01*
X168500000Y-88100000D02*
X168900000Y-88500000D01*
X116000000Y-131950000D02*
X119600000Y-131950000D01*
X120475000Y-104025000D02*
X120475000Y-108825000D01*
X119600000Y-59950000D02*
X120475000Y-60825000D01*
X116000000Y-64750000D02*
X119600000Y-64750000D01*
D42*
X89500000Y-85761522D02*
X89700000Y-85961522D01*
D43*
X119600000Y-69550000D02*
X120475000Y-70425000D01*
D42*
X156000000Y-61050000D02*
X155950000Y-61000000D01*
X169250000Y-73750000D02*
X169000000Y-74000000D01*
X89700000Y-85961522D02*
X89700000Y-88000000D01*
X153750000Y-61125000D02*
X155825000Y-61125000D01*
D41*
X104500000Y-39500000D02*
X114750000Y-39500000D01*
D42*
X165950000Y-60225000D02*
X166725000Y-61000000D01*
D43*
X120475000Y-80025000D02*
X120475000Y-84825000D01*
X120475000Y-123225000D02*
X120475000Y-128025000D01*
X116000000Y-112750000D02*
X119600000Y-112750000D01*
X119600000Y-64750000D02*
X120475000Y-65625000D01*
X119600000Y-55150000D02*
X120475000Y-56025000D01*
X120475000Y-89625000D02*
X120475000Y-94425000D01*
X120475000Y-65625000D02*
X120475000Y-70425000D01*
X119600000Y-103150000D02*
X120475000Y-104025000D01*
X120475000Y-51225000D02*
X120475000Y-56025000D01*
D42*
X100250000Y-133000000D02*
X100250000Y-130750000D01*
X89500000Y-54500000D02*
X89500000Y-78000000D01*
D43*
X169750000Y-73750000D02*
X169250000Y-73750000D01*
D42*
X156000000Y-71000000D02*
X157500000Y-69500000D01*
X166500000Y-71000000D02*
X166375000Y-71125000D01*
X155375000Y-71125000D02*
X153750000Y-71125000D01*
D43*
X116000000Y-127150000D02*
X119600000Y-127150000D01*
X116000000Y-79150000D02*
X119600000Y-79150000D01*
D42*
X156000000Y-71000000D02*
X156000000Y-63000000D01*
D43*
X119600000Y-93550000D02*
X120475000Y-94425000D01*
X119600000Y-74350000D02*
X120475000Y-75225000D01*
X116000000Y-83950000D02*
X119600000Y-83950000D01*
X120475000Y-136000000D02*
X120475000Y-132825000D01*
D42*
X98661522Y-118000000D02*
X100250000Y-118000000D01*
X91000000Y-121500000D02*
X94500000Y-118000000D01*
X96100000Y-107200000D02*
X90461522Y-107200000D01*
X91000000Y-101500000D02*
X94000000Y-98500000D01*
X156000000Y-71000000D02*
X155500000Y-71000000D01*
D43*
X91000000Y-53000000D02*
X91250000Y-52750000D01*
D42*
X155825000Y-61125000D02*
X155950000Y-61000000D01*
D43*
X119600000Y-122350000D02*
X120475000Y-123225000D01*
D42*
X92050000Y-78450000D02*
X100200000Y-78450000D01*
X100200000Y-98500000D02*
X98200000Y-100500000D01*
D43*
X135700000Y-125000000D02*
X127100000Y-133600000D01*
X119600000Y-45550000D02*
X120475000Y-46425000D01*
D42*
X94900000Y-85200000D02*
X90461522Y-85200000D01*
X100250000Y-111350000D02*
X99900000Y-111000000D01*
X89500000Y-78000000D02*
X91000000Y-79500000D01*
X98200000Y-100500000D02*
X98200000Y-109300000D01*
D43*
X99250000Y-60750000D02*
X102500000Y-60750000D01*
D42*
X90461522Y-107200000D02*
X89700000Y-107961522D01*
D43*
X119600000Y-98350000D02*
X120475000Y-99225000D01*
X168500000Y-83500000D02*
X168500000Y-86000000D01*
X119600000Y-117550000D02*
X120475000Y-118425000D01*
D42*
X157500000Y-69500000D02*
X170000000Y-69500000D01*
D43*
X116000000Y-93550000D02*
X119600000Y-93550000D01*
X135200000Y-43300000D02*
X123800000Y-43300000D01*
X120475000Y-94425000D02*
X120475000Y-99225000D01*
X119600000Y-127150000D02*
X120475000Y-128025000D01*
D42*
X99900000Y-111000000D02*
X96100000Y-107200000D01*
D43*
X119600000Y-79150000D02*
X120475000Y-80025000D01*
X116000000Y-50350000D02*
X119600000Y-50350000D01*
X119600000Y-40750000D02*
X120475000Y-41625000D01*
X116000000Y-40750000D02*
X119600000Y-40750000D01*
X116000000Y-74350000D02*
X119600000Y-74350000D01*
D42*
X156000000Y-63000000D02*
X156400000Y-63000000D01*
X94500000Y-118000000D02*
X100250000Y-118000000D01*
D43*
X119600000Y-42500000D02*
X120475000Y-41625000D01*
X120475000Y-118425000D02*
X120475000Y-123225000D01*
X91250000Y-52750000D02*
X103975000Y-40025000D01*
X170500000Y-74500000D02*
X170000000Y-74000000D01*
D42*
X156400000Y-63000000D02*
X156500000Y-62900000D01*
D43*
X116000000Y-69550000D02*
X119600000Y-69550000D01*
X120475000Y-84825000D02*
X120475000Y-89625000D01*
X120475000Y-56025000D02*
X120475000Y-60825000D01*
D42*
X163750000Y-61125000D02*
X166600000Y-61125000D01*
D43*
X120475000Y-113625000D02*
X120475000Y-118425000D01*
X120475000Y-46425000D02*
X120475000Y-51225000D01*
D42*
X170000000Y-74000000D02*
X167000000Y-71000000D01*
X98200000Y-109300000D02*
X99900000Y-111000000D01*
D43*
X119600000Y-112750000D02*
X120475000Y-113625000D01*
D41*
X114750000Y-39500000D02*
X115275000Y-40025000D01*
D42*
X167000000Y-71000000D02*
X166500000Y-71000000D01*
D43*
X127100000Y-136000000D02*
X120475000Y-136000000D01*
D42*
X156500000Y-62900000D02*
X156500000Y-62500000D01*
D43*
X120475000Y-108825000D02*
X120475000Y-113625000D01*
D42*
X170000000Y-74000000D02*
X169750000Y-73750000D01*
X91000000Y-79500000D02*
X92050000Y-78450000D01*
D43*
X123800000Y-43300000D02*
X123500000Y-43000000D01*
X147500000Y-58500000D02*
X135200000Y-46200000D01*
X120475000Y-128025000D02*
X120475000Y-132825000D01*
X120475000Y-41625000D02*
X120475000Y-46425000D01*
D42*
X155500000Y-71000000D02*
X155375000Y-71125000D01*
X89500000Y-78000000D02*
X89500000Y-85761522D01*
D43*
X119600000Y-50350000D02*
X120475000Y-51225000D01*
X119600000Y-88750000D02*
X120475000Y-89625000D01*
X119600000Y-107950000D02*
X120475000Y-108825000D01*
X116000000Y-98350000D02*
X119600000Y-98350000D01*
D42*
X90461522Y-85200000D02*
X89700000Y-85961522D01*
D43*
X135200000Y-46200000D02*
X135200000Y-43300000D01*
D42*
X166375000Y-71125000D02*
X163750000Y-71125000D01*
D43*
X91250000Y-52750000D02*
X99250000Y-60750000D01*
X120475000Y-70425000D02*
X120475000Y-75225000D01*
X116000000Y-103150000D02*
X119600000Y-103150000D01*
X120475000Y-75225000D02*
X120475000Y-80025000D01*
X120475000Y-60825000D02*
X120475000Y-65625000D01*
X120475000Y-99225000D02*
X120475000Y-104025000D01*
X116000000Y-122350000D02*
X119600000Y-122350000D01*
D42*
X170000000Y-69500000D02*
X175000000Y-74500000D01*
D43*
X175000000Y-74500000D02*
X170500000Y-74500000D01*
D42*
X99150000Y-89450000D02*
X94900000Y-85200000D01*
D43*
X115275000Y-40025000D02*
X116000000Y-40750000D01*
D42*
X94000000Y-98500000D02*
X100200000Y-98500000D01*
X89700000Y-107961522D02*
X89700000Y-109038478D01*
X155950000Y-61000000D02*
X156725000Y-60225000D01*
X91000000Y-53000000D02*
X89500000Y-54500000D01*
D43*
X116000000Y-107950000D02*
X119600000Y-107950000D01*
D42*
X89700000Y-109038478D02*
X98661522Y-118000000D01*
D43*
X119500000Y-42500000D02*
X119600000Y-42500000D01*
D42*
X166600000Y-61125000D02*
X166725000Y-61000000D01*
D43*
X116000000Y-45550000D02*
X119600000Y-45550000D01*
X119600000Y-83950000D02*
X120475000Y-84825000D01*
X127100000Y-133600000D02*
X127100000Y-136000000D01*
X116000000Y-55150000D02*
X119600000Y-55150000D01*
X119600000Y-131950000D02*
X120475000Y-132825000D01*
D42*
X89700000Y-88000000D02*
X100200000Y-98500000D01*
D43*
X116000000Y-117550000D02*
X119600000Y-117550000D01*
X116000000Y-59950000D02*
X119600000Y-59950000D01*
D42*
X156000000Y-63000000D02*
X156000000Y-61050000D01*
D43*
X168500000Y-86000000D02*
X168500000Y-88100000D01*
X116000000Y-88750000D02*
X119600000Y-88750000D01*
D42*
X100250000Y-130750000D02*
X91000000Y-121500000D01*
%TO.N,GND*%
X151875000Y-64500000D02*
X155000000Y-64500000D01*
X107450000Y-84150000D02*
X107450000Y-101050000D01*
D43*
X110000000Y-100500000D02*
X110400000Y-100100000D01*
X122025000Y-41625000D02*
X122025000Y-46425000D01*
X110300000Y-85700000D02*
X112500000Y-85700000D01*
D42*
X105500000Y-103000000D02*
X100750000Y-107750000D01*
D43*
X109000000Y-119500000D02*
X109200000Y-119300000D01*
D42*
X158900000Y-40570000D02*
X165220000Y-34250000D01*
D43*
X122025000Y-123225000D02*
X122025000Y-128025000D01*
D42*
X182600000Y-70100000D02*
X182600000Y-72500000D01*
D43*
X122025000Y-113625000D02*
X122025000Y-118425000D01*
D42*
X148750000Y-56550000D02*
X153290000Y-52010000D01*
X157500000Y-64000000D02*
X157500000Y-61000000D01*
D43*
X109000000Y-71500000D02*
X109200000Y-71300000D01*
D42*
X162125000Y-70225000D02*
X162000000Y-70100000D01*
D43*
X109500000Y-57500000D02*
X110100000Y-56900000D01*
X109000000Y-71500000D02*
X109000000Y-76000000D01*
D44*
X198300000Y-126000000D02*
X194300000Y-126000000D01*
D42*
X167750000Y-34250000D02*
X180850000Y-34250000D01*
D43*
X122025000Y-108825000D02*
X122025000Y-113625000D01*
X122025000Y-65625000D02*
X122025000Y-70425000D01*
X109000000Y-100500000D02*
X110000000Y-100500000D01*
X138500000Y-107000000D02*
X136675000Y-108825000D01*
X109000000Y-90500000D02*
X109000000Y-95500000D01*
X109000000Y-57500000D02*
X109000000Y-52000000D01*
X122025000Y-51225000D02*
X122025000Y-56025000D01*
X136675000Y-108825000D02*
X122025000Y-108825000D01*
D42*
X162900000Y-70225000D02*
X162125000Y-70225000D01*
X150250000Y-62875000D02*
X149250000Y-62875000D01*
D43*
X105850000Y-122000000D02*
X110400000Y-122000000D01*
D42*
X185050000Y-48450000D02*
X186100000Y-49500000D01*
D43*
X122025000Y-128025000D02*
X122025000Y-132825000D01*
D42*
X105200000Y-81000000D02*
X112400000Y-81000000D01*
X182900000Y-132000000D02*
X182200000Y-132700000D01*
X160975000Y-72150000D02*
X160250000Y-72875000D01*
X157000000Y-64500000D02*
X157500000Y-64000000D01*
X168275000Y-61000000D02*
X171000000Y-61000000D01*
X168275000Y-62725000D02*
X168275000Y-61000000D01*
X167775000Y-70225000D02*
X162900000Y-70225000D01*
D43*
X109000000Y-66500000D02*
X112500000Y-66500000D01*
X122025000Y-80025000D02*
X122025000Y-84825000D01*
X109000000Y-95500000D02*
X109200000Y-95300000D01*
X110100000Y-128900000D02*
X112500000Y-128900000D01*
X122025000Y-56025000D02*
X122025000Y-60825000D01*
X110400000Y-100100000D02*
X112500000Y-100100000D01*
D42*
X104750000Y-81450000D02*
X105200000Y-81000000D01*
D43*
X110000000Y-129000000D02*
X110100000Y-128900000D01*
D42*
X164850000Y-72150000D02*
X160975000Y-72150000D01*
X160250000Y-62875000D02*
X162875000Y-65500000D01*
X176400000Y-132700000D02*
X175700000Y-132000000D01*
X112400000Y-81000000D02*
X112500000Y-80900000D01*
X150250000Y-34250000D02*
X139650000Y-34250000D01*
X107450000Y-101050000D02*
X105500000Y-103000000D01*
D43*
X109000000Y-52000000D02*
X109000000Y-48000000D01*
X109000000Y-81000000D02*
X109000000Y-86000000D01*
D42*
X166500000Y-64500000D02*
X168275000Y-62725000D01*
X111400000Y-43600000D02*
X112500000Y-42500000D01*
D43*
X109000000Y-57500000D02*
X109500000Y-57500000D01*
D42*
X165220000Y-34250000D02*
X167750000Y-34250000D01*
X156100000Y-40570000D02*
X156100000Y-39150000D01*
D43*
X109000000Y-62000000D02*
X109000000Y-57500000D01*
D42*
X105500000Y-103000000D02*
X108200000Y-105700000D01*
D43*
X122025000Y-46425000D02*
X122025000Y-51225000D01*
X109000000Y-76000000D02*
X109000000Y-81000000D01*
D42*
X100750000Y-107750000D02*
X100750000Y-107950000D01*
X153290000Y-45480000D02*
X156800000Y-41970000D01*
D43*
X109000000Y-90500000D02*
X112500000Y-90500000D01*
X122025000Y-126000000D02*
X122025000Y-123225000D01*
D42*
X182200000Y-132700000D02*
X176400000Y-132700000D01*
X185050000Y-40550000D02*
X185050000Y-48450000D01*
D43*
X122025000Y-89625000D02*
X122025000Y-94425000D01*
X109000000Y-95500000D02*
X109000000Y-100500000D01*
X109000000Y-86000000D02*
X110000000Y-86000000D01*
X109200000Y-119300000D02*
X112500000Y-119300000D01*
X109000000Y-109500000D02*
X109000000Y-114500000D01*
X110000000Y-86000000D02*
X110300000Y-85700000D01*
X109000000Y-48000000D02*
X109500000Y-48000000D01*
X109000000Y-81000000D02*
X109100000Y-80900000D01*
D42*
X184500000Y-123500000D02*
X184200000Y-123500000D01*
X186100000Y-39500000D02*
X185050000Y-40550000D01*
D43*
X109000000Y-62000000D02*
X109300000Y-61700000D01*
X109000000Y-66500000D02*
X109000000Y-62000000D01*
X109000000Y-122000000D02*
X109000000Y-129000000D01*
X122025000Y-118425000D02*
X122025000Y-123225000D01*
D42*
X162875000Y-65500000D02*
X163500000Y-65500000D01*
X160250000Y-62875000D02*
X158625000Y-62875000D01*
D43*
X184200000Y-123500000D02*
X175700000Y-132000000D01*
D42*
X108200000Y-119650000D02*
X105850000Y-122000000D01*
D43*
X109000000Y-100500000D02*
X109000000Y-105000000D01*
D42*
X101100000Y-126750000D02*
X101100000Y-126950000D01*
D43*
X109000000Y-129000000D02*
X109000000Y-130575000D01*
D42*
X112500000Y-133700000D02*
X111400000Y-132600000D01*
X160250000Y-72875000D02*
X159875000Y-72875000D01*
D43*
X109000000Y-122000000D02*
X108500000Y-122000000D01*
X135200000Y-38700000D02*
X124950000Y-38700000D01*
D42*
X180850000Y-34250000D02*
X186100000Y-39500000D01*
X150250000Y-72875000D02*
X151875000Y-74500000D01*
D43*
X109000000Y-86000000D02*
X109000000Y-90500000D01*
D42*
X158625000Y-62875000D02*
X157000000Y-64500000D01*
X105850000Y-122000000D02*
X101100000Y-126750000D01*
D43*
X122025000Y-84825000D02*
X122025000Y-89625000D01*
X110000000Y-76000000D02*
X110100000Y-76100000D01*
X122025000Y-70425000D02*
X122025000Y-75225000D01*
X109500000Y-48000000D02*
X110200000Y-47300000D01*
X194300000Y-126000000D02*
X196300000Y-124000000D01*
D42*
X151875000Y-74500000D02*
X163950000Y-74500000D01*
D43*
X109000000Y-109500000D02*
X109200000Y-109700000D01*
D42*
X163950000Y-74500000D02*
X164850000Y-73600000D01*
X151200000Y-34250000D02*
X150250000Y-34250000D01*
X162900000Y-70225000D02*
X160250000Y-72875000D01*
D43*
X124950000Y-38700000D02*
X122025000Y-41625000D01*
X109000000Y-76000000D02*
X110000000Y-76000000D01*
X104500000Y-66750000D02*
X102500000Y-68750000D01*
D42*
X148750000Y-62375000D02*
X148750000Y-56550000D01*
X100000000Y-86200000D02*
X104750000Y-81450000D01*
D43*
X175700000Y-132000000D02*
X169500000Y-132000000D01*
X104500000Y-66500000D02*
X104500000Y-66750000D01*
X109100000Y-52100000D02*
X112500000Y-52100000D01*
X191800000Y-123500000D02*
X194300000Y-126000000D01*
X109000000Y-114500000D02*
X109000000Y-119500000D01*
X109000000Y-105000000D02*
X109000000Y-109500000D01*
X109100000Y-80900000D02*
X112500000Y-80900000D01*
D42*
X149250000Y-62875000D02*
X148750000Y-62375000D01*
D43*
X109000000Y-48000000D02*
X109000000Y-46000000D01*
X109100000Y-104900000D02*
X112500000Y-104900000D01*
X110400000Y-122000000D02*
X109500000Y-122000000D01*
X184500000Y-123500000D02*
X191800000Y-123500000D01*
X110200000Y-47300000D02*
X112500000Y-47300000D01*
D42*
X168550000Y-71000000D02*
X167775000Y-70225000D01*
X148200000Y-106405000D02*
X150500000Y-108705000D01*
X182500000Y-70000000D02*
X182600000Y-70100000D01*
D43*
X109300000Y-61700000D02*
X112500000Y-61700000D01*
X122025000Y-75225000D02*
X122025000Y-80025000D01*
D42*
X104750000Y-81450000D02*
X107450000Y-84150000D01*
X153290000Y-52010000D02*
X153290000Y-45480000D01*
X182600000Y-79500000D02*
X182600000Y-72500000D01*
X159875000Y-72875000D02*
X158000000Y-71000000D01*
D43*
X122025000Y-99225000D02*
X122025000Y-104025000D01*
X109200000Y-109700000D02*
X112500000Y-109700000D01*
D42*
X150500000Y-108705000D02*
X150500000Y-109000000D01*
D43*
X109200000Y-71300000D02*
X112500000Y-71300000D01*
X122025000Y-94425000D02*
X122025000Y-99225000D01*
X109000000Y-66500000D02*
X109000000Y-71500000D01*
X111600000Y-124100000D02*
X112500000Y-124100000D01*
X109000000Y-46000000D02*
X112500000Y-42500000D01*
D42*
X164850000Y-73600000D02*
X164850000Y-72150000D01*
X171000000Y-61000000D02*
X180000000Y-70000000D01*
D43*
X109500000Y-122000000D02*
X109000000Y-122000000D01*
X110100000Y-76100000D02*
X112500000Y-76100000D01*
X122025000Y-104025000D02*
X122025000Y-108825000D01*
X109000000Y-119500000D02*
X109000000Y-122000000D01*
D42*
X139650000Y-34250000D02*
X135200000Y-38700000D01*
D43*
X109000000Y-130575000D02*
X112125000Y-133700000D01*
X109200000Y-95300000D02*
X112500000Y-95300000D01*
X112125000Y-133700000D02*
X112500000Y-133700000D01*
D42*
X150250000Y-62875000D02*
X151875000Y-64500000D01*
D43*
X109500000Y-122000000D02*
X111600000Y-124100000D01*
D42*
X158000000Y-71000000D02*
X157550000Y-71000000D01*
D43*
X109000000Y-114500000D02*
X112500000Y-114500000D01*
D42*
X156100000Y-39150000D02*
X151200000Y-34250000D01*
D43*
X122025000Y-60825000D02*
X122025000Y-65625000D01*
D42*
X100000000Y-86400000D02*
X100000000Y-86200000D01*
X108200000Y-105700000D02*
X108200000Y-119650000D01*
D43*
X104500000Y-66500000D02*
X109000000Y-66500000D01*
X109000000Y-129000000D02*
X110000000Y-129000000D01*
X110100000Y-56900000D02*
X112500000Y-56900000D01*
X109000000Y-52000000D02*
X109100000Y-52100000D01*
X109000000Y-105000000D02*
X109100000Y-104900000D01*
%TO.N,RGB_DOUT_18*%
D42*
X112500000Y-103150000D02*
X114000000Y-104650000D01*
X114000000Y-107700000D02*
X116000000Y-109700000D01*
X114000000Y-104650000D02*
X114000000Y-107700000D01*
%TO.N,RGB_DOUT_17*%
X112500000Y-98350000D02*
X114000000Y-99850000D01*
X114000000Y-99850000D02*
X114000000Y-102900000D01*
X114000000Y-102900000D02*
X116000000Y-104900000D01*
%TO.N,N*%
D45*
X57000000Y-40700000D02*
X52750000Y-44950000D01*
X49800000Y-52500000D02*
X45650000Y-56650000D01*
X45650000Y-56650000D02*
X45650000Y-83350000D01*
X61800000Y-40700000D02*
X62500000Y-41400000D01*
X49800000Y-87500000D02*
X42500000Y-94800000D01*
X57000000Y-40700000D02*
X61800000Y-40700000D01*
X45650000Y-83350000D02*
X49800000Y-87500000D01*
X52750000Y-44950000D02*
X52750000Y-49550000D01*
X49800000Y-52500000D02*
X50200000Y-52500000D01*
X49800000Y-52500000D02*
X49800000Y-54550000D01*
X49800000Y-126310000D02*
X59110000Y-117000000D01*
X52750000Y-49550000D02*
X49800000Y-52500000D01*
X49800000Y-54550000D02*
X64000000Y-68750000D01*
X42500000Y-119010000D02*
X49800000Y-126310000D01*
X59110000Y-117000000D02*
X61000000Y-117000000D01*
X42500000Y-94800000D02*
X42500000Y-119010000D01*
%TO.N,L_FUSED*%
X71000000Y-59000000D02*
X71000000Y-79500000D01*
X67500000Y-98000000D02*
X71000000Y-101500000D01*
X64000000Y-58000000D02*
X70000000Y-58000000D01*
X71000000Y-79500000D02*
X60500000Y-90000000D01*
X70000000Y-58000000D02*
X71000000Y-59000000D01*
X75050000Y-42950000D02*
X64000000Y-54000000D01*
X75050000Y-41000000D02*
X75050000Y-42950000D01*
X61000000Y-109500000D02*
X61000000Y-98500000D01*
X60500000Y-90000000D02*
X60500000Y-98000000D01*
X61000000Y-98500000D02*
X60500000Y-98000000D01*
X64000000Y-54000000D02*
X64000000Y-58000000D01*
X60500000Y-98000000D02*
X67500000Y-98000000D01*
%TO.N,L_OPEN*%
X68150000Y-120543755D02*
X68150000Y-126650000D01*
X58676245Y-111070000D02*
X68150000Y-120543755D01*
X49800000Y-111070000D02*
X58676245Y-111070000D01*
X68150000Y-126650000D02*
X71000000Y-129500000D01*
%TO.N,PUMP_COIL_L*%
D42*
X99250000Y-86925000D02*
X99300000Y-86975000D01*
X99250000Y-80750000D02*
X99250000Y-86925000D01*
X101975000Y-85450000D02*
X101900000Y-85450000D01*
X102750000Y-85450000D02*
X101900000Y-85450000D01*
X94650000Y-90150000D02*
X106050000Y-90150000D01*
X103800000Y-78450000D02*
X102250000Y-80000000D01*
X106050000Y-90150000D02*
X106750000Y-89450000D01*
X99300000Y-86975000D02*
X100900000Y-86975000D01*
X101900000Y-85975000D02*
X101900000Y-85450000D01*
X102250000Y-80000000D02*
X100000000Y-80000000D01*
X100900000Y-86975000D02*
X101900000Y-85975000D01*
X100000000Y-80000000D02*
X99250000Y-80750000D01*
X106750000Y-89450000D02*
X102750000Y-85450000D01*
X91000000Y-86500000D02*
X94650000Y-90150000D01*
%TO.N,MIX_ENABLE_COIL_L*%
X99500000Y-102000000D02*
X103000000Y-98500000D01*
X99600000Y-108075000D02*
X99600000Y-102100000D01*
X91000000Y-108500000D02*
X94250000Y-111750000D01*
X102650000Y-107000000D02*
X103500000Y-107000000D01*
X101450000Y-108525000D02*
X100050000Y-108525000D01*
X94250000Y-111750000D02*
X106750000Y-111750000D01*
X99600000Y-102100000D02*
X99500000Y-102000000D01*
X100050000Y-108525000D02*
X99600000Y-108075000D01*
X106750000Y-111750000D02*
X107500000Y-111000000D01*
X103000000Y-98500000D02*
X103800000Y-98500000D01*
X103500000Y-107000000D02*
X107500000Y-111000000D01*
X102650000Y-107325000D02*
X101450000Y-108525000D01*
X102650000Y-107000000D02*
X102650000Y-107325000D01*
%TO.N,MIX_DIR_COIL_L*%
X103000000Y-126000000D02*
X103000000Y-126325000D01*
X102450000Y-118000000D02*
X103850000Y-118000000D01*
X99150000Y-126275000D02*
X99150000Y-121300000D01*
X99150000Y-121300000D02*
X102450000Y-118000000D01*
X103000000Y-128150000D02*
X107850000Y-133000000D01*
X103000000Y-126325000D02*
X101800000Y-127525000D01*
X96200000Y-133700000D02*
X107150000Y-133700000D01*
X107150000Y-133700000D02*
X107850000Y-133000000D01*
X91000000Y-128500000D02*
X96200000Y-133700000D01*
X103000000Y-126000000D02*
X103000000Y-128150000D01*
X101800000Y-127525000D02*
X100400000Y-127525000D01*
X100400000Y-127525000D02*
X99150000Y-126275000D01*
%TO.N,+3V3*%
X157500000Y-80000000D02*
X157000000Y-79500000D01*
X181300000Y-73200000D02*
X175000000Y-79500000D01*
X150250000Y-35520000D02*
X150780000Y-35520000D01*
X175900000Y-46500000D02*
X175900000Y-47600000D01*
X150250000Y-35520000D02*
X145280000Y-35520000D01*
X157500000Y-99500000D02*
X157400000Y-99600000D01*
X155248529Y-65100000D02*
X155600000Y-65451471D01*
X148750000Y-73765686D02*
X154484314Y-79500000D01*
X150780000Y-35520000D02*
X152540000Y-37280000D01*
X148984315Y-70000000D02*
X148750000Y-70234315D01*
X155600000Y-69775000D02*
X155375000Y-70000000D01*
X175900000Y-47600000D02*
X175500000Y-48000000D01*
D44*
X175900000Y-56500000D02*
X181700000Y-62300000D01*
D42*
X157400000Y-99600000D02*
X157400000Y-103500000D01*
D44*
X157500000Y-99000000D02*
X157500000Y-80000000D01*
X152540000Y-37280000D02*
X152540000Y-50960000D01*
D42*
X157500000Y-99000000D02*
X157500000Y-99500000D01*
X156495000Y-102595000D02*
X148200000Y-102595000D01*
X135200000Y-41000000D02*
X139800000Y-41000000D01*
X157400000Y-103500000D02*
X156495000Y-102595000D01*
X181700000Y-73200000D02*
X181300000Y-73200000D01*
X148350000Y-62800000D02*
X150650000Y-65100000D01*
X155600000Y-65451471D02*
X155600000Y-69775000D01*
X181700000Y-62300000D02*
X181700000Y-73200000D01*
X154484314Y-79500000D02*
X157000000Y-79500000D01*
X152540000Y-50960000D02*
X148350000Y-55150000D01*
X148350000Y-55150000D02*
X148350000Y-62800000D01*
D44*
X145280000Y-35520000D02*
X139800000Y-41000000D01*
D42*
X148750000Y-70234315D02*
X148750000Y-73765686D01*
X155375000Y-70000000D02*
X148984315Y-70000000D01*
D44*
X157000000Y-79500000D02*
X175000000Y-79500000D01*
D42*
X150650000Y-65100000D02*
X155248529Y-65100000D01*
%TO.N,PUMP_DRV*%
X96000000Y-80500000D02*
X96950000Y-81450000D01*
X95500000Y-80500000D02*
X96000000Y-80500000D01*
X146680000Y-45680000D02*
X146500000Y-45500000D01*
X96950000Y-81450000D02*
X98350000Y-81450000D01*
X150250000Y-45680000D02*
X146680000Y-45680000D01*
%TO.N,MIX_ENABLE_DRV*%
X146550000Y-46950000D02*
X150250000Y-46950000D01*
X146500000Y-47000000D02*
X146550000Y-46950000D01*
X98900000Y-104400000D02*
X99000000Y-104500000D01*
X98900000Y-103000000D02*
X98900000Y-104400000D01*
%TO.N,MIX_DIR_DRV*%
X146500000Y-48500000D02*
X147500000Y-48500000D01*
X147500000Y-48500000D02*
X147780000Y-48220000D01*
X147780000Y-48220000D02*
X150250000Y-48220000D01*
X98250000Y-122000000D02*
X96000000Y-122000000D01*
%TO.N,RS485_DE*%
X143180000Y-103865000D02*
X142800000Y-103865000D01*
X145500000Y-99000000D02*
X145500000Y-101545000D01*
X145500000Y-101545000D02*
X143180000Y-103865000D01*
X167750000Y-49490000D02*
X164490000Y-49490000D01*
X164490000Y-49490000D02*
X164000000Y-49000000D01*
X142800000Y-105135000D02*
X142800000Y-103865000D01*
%TO.N,SPI_SCK*%
X173000000Y-46600000D02*
X173000000Y-46500000D01*
X174850000Y-39925000D02*
X174850000Y-48450000D01*
X174850000Y-48450000D02*
X175900000Y-49500000D01*
X175900000Y-49500000D02*
X173000000Y-46600000D01*
X169910000Y-44410000D02*
X167750000Y-44410000D01*
X170000000Y-44500000D02*
X169910000Y-44410000D01*
X175275000Y-39500000D02*
X174850000Y-39925000D01*
X175900000Y-39500000D02*
X175275000Y-39500000D01*
%TO.N,SPI_MISO*%
X177550000Y-50475000D02*
X177550000Y-44500000D01*
X170000000Y-43000000D02*
X169860000Y-43140000D01*
X169860000Y-43140000D02*
X167750000Y-43140000D01*
X176000000Y-41600000D02*
X175900000Y-41500000D01*
X176525000Y-51500000D02*
X177550000Y-50475000D01*
X175900000Y-51500000D02*
X176525000Y-51500000D01*
X176000000Y-42500000D02*
X176000000Y-41600000D01*
%TO.N,RGB_DATA*%
X170850000Y-42750000D02*
X168700000Y-40600000D01*
X170850000Y-57000000D02*
X170850000Y-42750000D01*
X168700000Y-40600000D02*
X167750000Y-40600000D01*
%TO.N,UART_RX*%
X142800000Y-102595000D02*
X142350000Y-102595000D01*
X176000000Y-127500000D02*
X177500000Y-126000000D01*
X167750000Y-39330000D02*
X168330000Y-39330000D01*
X168330000Y-39330000D02*
X169500000Y-40500000D01*
X142350000Y-102595000D02*
X141750000Y-103195000D01*
X177500000Y-126000000D02*
X178500000Y-126000000D01*
X167934314Y-134000000D02*
X172000000Y-134000000D01*
X141750000Y-103195000D02*
X141750000Y-107815686D01*
X166500000Y-103500000D02*
X165500000Y-103500000D01*
X141750000Y-107815686D02*
X167934314Y-134000000D01*
X167500000Y-104500000D02*
X166500000Y-103500000D01*
%TO.N,UART_TX*%
X142800000Y-108300000D02*
X167200000Y-132700000D01*
X168600000Y-131300000D02*
X168600000Y-132700000D01*
X165500000Y-99000000D02*
X165500000Y-98000000D01*
X165500000Y-98000000D02*
X164000000Y-98000000D01*
X164000000Y-98000000D02*
X164000000Y-80200000D01*
X164000000Y-80200000D02*
X183300000Y-80200000D01*
X142800000Y-106405000D02*
X142800000Y-108300000D01*
X183300000Y-80200000D02*
X183300000Y-62275000D01*
X147150000Y-103265000D02*
X149250000Y-103265000D01*
X168280000Y-38060000D02*
X167750000Y-38060000D01*
X178500000Y-125000000D02*
X174900000Y-125000000D01*
X161700000Y-102800000D02*
X165500000Y-99000000D01*
X171250000Y-50225000D02*
X171250000Y-41030000D01*
X158300000Y-102800000D02*
X161700000Y-102800000D01*
X183300000Y-62275000D02*
X171250000Y-50225000D01*
X146750000Y-103665000D02*
X147150000Y-103265000D01*
X149250000Y-103265000D02*
X150185000Y-104200000D01*
X168600000Y-132700000D02*
X167200000Y-132700000D01*
X167200000Y-132700000D02*
X146750000Y-112250000D01*
X171250000Y-41030000D02*
X168280000Y-38060000D01*
X158300000Y-104200000D02*
X158300000Y-102800000D01*
X146750000Y-112250000D02*
X146750000Y-103665000D01*
X174900000Y-125000000D02*
X168600000Y-131300000D01*
X150185000Y-104200000D02*
X158300000Y-104200000D01*
%TO.N,SPI_MOSI*%
X173545000Y-35520000D02*
X176950000Y-38925000D01*
X176375000Y-50500000D02*
X175900000Y-50500000D01*
X176375000Y-40500000D02*
X175900000Y-40500000D01*
X167750000Y-35520000D02*
X173545000Y-35520000D01*
X176950000Y-41075000D02*
X176950000Y-49925000D01*
X176950000Y-39925000D02*
X176375000Y-40500000D01*
X176375000Y-40500000D02*
X176950000Y-41075000D01*
X176950000Y-49925000D02*
X176375000Y-50500000D01*
X176950000Y-38925000D02*
X176950000Y-39925000D01*
%TO.N,RTD_VL_P*%
X186100000Y-46500000D02*
X194550000Y-46500000D01*
X194550000Y-46500000D02*
X194800000Y-46750000D01*
%TO.N,RTD_VL_N*%
X186100000Y-45500000D02*
X192550000Y-45500000D01*
X192550000Y-45500000D02*
X194800000Y-43250000D01*
%TO.N,RTD_RL_P*%
X193550000Y-56500000D02*
X186100000Y-56500000D01*
X194800000Y-55250000D02*
X193550000Y-56500000D01*
%TO.N,RTD_RL_N*%
X191050000Y-55500000D02*
X194800000Y-51750000D01*
X186100000Y-55500000D02*
X191050000Y-55500000D01*
%TO.N,RS485_A*%
X166000000Y-112500000D02*
X168500000Y-110000000D01*
X181530000Y-102000000D02*
X172300000Y-102000000D01*
X172300000Y-108200000D02*
X170500000Y-110000000D01*
X158535000Y-105135000D02*
X148200000Y-105135000D01*
X186110000Y-97420000D02*
X181530000Y-102000000D01*
X194800000Y-68000000D02*
X190100000Y-72700000D01*
X165900000Y-112500000D02*
X165900000Y-118500000D01*
X188864925Y-80420000D02*
X186110000Y-80420000D01*
X190100000Y-72700000D02*
X190100000Y-79184925D01*
X172300000Y-102000000D02*
X172300000Y-108200000D01*
X190100000Y-79184925D02*
X188864925Y-80420000D01*
X165900000Y-112500000D02*
X158535000Y-105135000D01*
X165900000Y-112500000D02*
X166000000Y-112500000D01*
%TO.N,RS485_B*%
X165900000Y-125000000D02*
X165100000Y-125000000D01*
X147820000Y-103865000D02*
X148200000Y-103865000D01*
X188650000Y-96150000D02*
X176350000Y-96150000D01*
X174800000Y-96500000D02*
X169500000Y-101800000D01*
X165900000Y-125000000D02*
X165900000Y-120300000D01*
X176000000Y-96500000D02*
X174800000Y-96500000D01*
X169500000Y-101800000D02*
X169500000Y-112500000D01*
X165100000Y-125000000D02*
X147150000Y-107050000D01*
X165900000Y-120300000D02*
X169500000Y-116700000D01*
X147150000Y-104535000D02*
X147820000Y-103865000D01*
X169500000Y-116700000D02*
X169500000Y-112500000D01*
X147150000Y-107050000D02*
X147150000Y-104535000D01*
X176350000Y-96150000D02*
X176000000Y-96500000D01*
X194800000Y-64500000D02*
X189700000Y-69600000D01*
X189700000Y-78100000D02*
X188650000Y-79150000D01*
X189700000Y-69600000D02*
X189700000Y-78100000D01*
%TO.N,RS485_GND*%
D43*
X187380000Y-93610000D02*
X186110000Y-92340000D01*
D42*
X194800000Y-108500000D02*
X193100000Y-110200000D01*
D43*
X188650000Y-93610000D02*
X187380000Y-93610000D01*
X192900000Y-110400000D02*
X184800000Y-118500000D01*
X192900000Y-110400000D02*
X192750000Y-110250000D01*
X192750000Y-110250000D02*
X192750000Y-97710000D01*
X194800000Y-108500000D02*
X192900000Y-110400000D01*
X184760000Y-90990000D02*
X184760000Y-76690000D01*
X186110000Y-75340000D02*
X186110000Y-69690000D01*
X169500000Y-118500000D02*
X169500000Y-125000000D01*
X184800000Y-118500000D02*
X169500000Y-118500000D01*
X167900000Y-126600000D02*
X169500000Y-125000000D01*
X186110000Y-92340000D02*
X184760000Y-90990000D01*
X184760000Y-76690000D02*
X186110000Y-75340000D01*
X187380000Y-75340000D02*
X188650000Y-76610000D01*
X186110000Y-75340000D02*
X187380000Y-75340000D01*
X186110000Y-69690000D02*
X194800000Y-61000000D01*
X192750000Y-97710000D02*
X188650000Y-93610000D01*
X167900000Y-132000000D02*
X167900000Y-126600000D01*
%TO.N,USB_VBUS*%
X148900000Y-134600000D02*
X139300000Y-125000000D01*
X184500000Y-126500000D02*
X188800000Y-126500000D01*
X184500000Y-126500000D02*
X183000000Y-128000000D01*
X194300000Y-132000000D02*
X198300000Y-132000000D01*
X181700000Y-134600000D02*
X181700000Y-137000000D01*
X181700000Y-137000000D02*
X148900000Y-137000000D01*
X148900000Y-137000000D02*
X148900000Y-134600000D01*
X183000000Y-128000000D02*
X183000000Y-129500000D01*
X188800000Y-126500000D02*
X194300000Y-132000000D01*
%TO.N,USB_CC1*%
D42*
X182000000Y-128500000D02*
X180800000Y-128500000D01*
X194300000Y-130300000D02*
X190500000Y-126500000D01*
X194300000Y-130500000D02*
X194300000Y-130300000D01*
X180800000Y-128500000D02*
X177300000Y-132000000D01*
%TO.N,USB_D+*%
X184500000Y-125500000D02*
X190800000Y-125500000D01*
X190800000Y-125500000D02*
X194300000Y-129000000D01*
X198300000Y-129000000D02*
X194300000Y-129000000D01*
%TO.N,USB_D-*%
X191300000Y-124500000D02*
X184500000Y-124500000D01*
X194300000Y-127500000D02*
X191300000Y-124500000D01*
X194300000Y-127500000D02*
X198300000Y-127500000D01*
%TO.N,USB_CC2*%
X196921321Y-135500000D02*
X188000000Y-135500000D01*
X198300000Y-130500000D02*
X199200000Y-131400000D01*
X188000000Y-135500000D02*
X184500000Y-132000000D01*
X199200000Y-133221321D02*
X196921321Y-135500000D01*
X199200000Y-131400000D02*
X199200000Y-133221321D01*
%TO.N,RS485_TERM*%
X173660000Y-99040000D02*
X170700000Y-102000000D01*
X176000000Y-99040000D02*
X173660000Y-99040000D01*
%TO.N,LED230_DROP*%
D43*
X70050000Y-41000000D02*
X71950000Y-41000000D01*
%TO.N,BUS_5V*%
X173100000Y-88500000D02*
X173100000Y-85600000D01*
X173200000Y-85500000D02*
X174000000Y-85500000D01*
X173100000Y-85600000D02*
X173200000Y-85500000D01*
%TO.N,PUMP_GATE*%
D42*
X100000000Y-84000000D02*
X99950000Y-83950000D01*
X99950000Y-83950000D02*
X99950000Y-81450000D01*
X99950000Y-81450000D02*
X103150000Y-81450000D01*
X100000000Y-84500000D02*
X100000000Y-84000000D01*
%TO.N,LED_PUMP_A*%
X100750000Y-89450000D02*
X105150000Y-89450000D01*
%TO.N,MIX_ENABLE_GATE*%
X100750000Y-106050000D02*
X100750000Y-103250000D01*
X100750000Y-103250000D02*
X100500000Y-103000000D01*
X103900000Y-103000000D02*
X100500000Y-103000000D01*
%TO.N,LED_OPEN_A*%
X101500000Y-111000000D02*
X105900000Y-111000000D01*
%TO.N,MIX_DIR_GATE*%
X99850000Y-123800000D02*
X101100000Y-125050000D01*
X101200000Y-125050000D02*
X104250000Y-122000000D01*
X99850000Y-122000000D02*
X99850000Y-123800000D01*
X101100000Y-125050000D02*
X101200000Y-125050000D01*
%TO.N,LED_CLOSE_A*%
X106250000Y-133000000D02*
X101850000Y-133000000D01*
%TO.N,LED_5V_A*%
X176600000Y-74500000D02*
X179000000Y-74500000D01*
X179000000Y-74500000D02*
X181000000Y-72500000D01*
%TO.N,LED_3V3_A*%
X181000000Y-79500000D02*
X176600000Y-79500000D01*
%TO.N,LED_TX_A*%
X159100000Y-99000000D02*
X163900000Y-99000000D01*
%TO.N,LED_RX_A*%
X159000000Y-103500000D02*
X163900000Y-103500000D01*
%TO.N,LED230_A*%
D43*
X62500000Y-43400000D02*
X64550000Y-43400000D01*
X64550000Y-43400000D02*
X66950000Y-41000000D01*
X57000000Y-44300000D02*
X61600000Y-44300000D01*
X61600000Y-44300000D02*
X62500000Y-43400000D01*
%TO.N,RGB_DOUT_23*%
D42*
X112500000Y-127150000D02*
X114000000Y-128650000D01*
X114000000Y-131700000D02*
X116000000Y-133700000D01*
X114000000Y-128650000D02*
X114000000Y-131700000D01*
%TO.N,RGB_DOUT_22*%
X114000000Y-123850000D02*
X114000000Y-126900000D01*
X114000000Y-126900000D02*
X116000000Y-128900000D01*
X112500000Y-122350000D02*
X114000000Y-123850000D01*
%TO.N,RGB_DOUT_19*%
X114900000Y-110350000D02*
X114900000Y-113400000D01*
X114900000Y-113400000D02*
X116000000Y-114500000D01*
X112500000Y-107950000D02*
X114900000Y-110350000D01*
%TO.N,RGB_DOUT_12*%
X112500000Y-74350000D02*
X113600000Y-75450000D01*
X113600000Y-78500000D02*
X116000000Y-80900000D01*
X113600000Y-75450000D02*
X113600000Y-78500000D01*
%TO.N,RGB_DOUT_11*%
X114000000Y-71050000D02*
X114000000Y-74100000D01*
X114000000Y-74100000D02*
X116000000Y-76100000D01*
X112500000Y-69550000D02*
X114000000Y-71050000D01*
%TO.N,RGB_DOUT_6*%
X114000000Y-47050000D02*
X114000000Y-50100000D01*
X114000000Y-50100000D02*
X116000000Y-52100000D01*
X112500000Y-45550000D02*
X114000000Y-47050000D01*
%TO.N,RGB_DOUT_5*%
X112500000Y-40750000D02*
X113750000Y-42000000D01*
X113750000Y-42000000D02*
X113750000Y-45050000D01*
X113750000Y-45050000D02*
X116000000Y-47300000D01*
%TO.N,RGB_DOUT_8*%
X114000000Y-56650000D02*
X114000000Y-59700000D01*
X112500000Y-55150000D02*
X114000000Y-56650000D01*
X114000000Y-59700000D02*
X116000000Y-61700000D01*
%TO.N,RGB_DOUT_7*%
X114900000Y-52750000D02*
X114900000Y-55800000D01*
X112500000Y-50350000D02*
X114900000Y-52750000D01*
X114900000Y-55800000D02*
X116000000Y-56900000D01*
%TO.N,RGB_DOUT_4*%
X119500000Y-44000000D02*
X118000000Y-42500000D01*
X118000000Y-42500000D02*
X116000000Y-42500000D01*
X127000000Y-68000000D02*
X127000000Y-48500000D01*
X155000000Y-69000000D02*
X128000000Y-69000000D01*
X160250000Y-71125000D02*
X159225000Y-70100000D01*
X159225000Y-70100000D02*
X158500000Y-70100000D01*
X127000000Y-48500000D02*
X123000000Y-44500000D01*
X128000000Y-69000000D02*
X127000000Y-68000000D01*
%TO.N,RGB_DOUT_3*%
X152725000Y-73600000D02*
X163025000Y-73600000D01*
X150250000Y-71125000D02*
X152725000Y-73600000D01*
X163025000Y-73600000D02*
X163750000Y-72875000D01*
%TO.N,RGB_DOUT_16*%
X114900000Y-99000000D02*
X116000000Y-100100000D01*
X112500000Y-93550000D02*
X114900000Y-95950000D01*
X114900000Y-95950000D02*
X114900000Y-99000000D01*
%TO.N,RGB_DOUT_15*%
X114000000Y-90250000D02*
X114000000Y-93300000D01*
X112500000Y-88750000D02*
X114000000Y-90250000D01*
X114000000Y-93300000D02*
X116000000Y-95300000D01*
%TO.N,RGB_DIN_1*%
X149150000Y-60400000D02*
X151775000Y-57775000D01*
X149150000Y-61850000D02*
X149150000Y-60400000D01*
X151775000Y-57775000D02*
X171725000Y-57775000D01*
X152725000Y-61850000D02*
X149150000Y-61850000D01*
X171725000Y-57775000D02*
X172500000Y-57000000D01*
X153750000Y-62875000D02*
X152725000Y-61850000D01*
%TO.N,RGB_DOUT_1*%
X166073696Y-62875000D02*
X163750000Y-62875000D01*
X167475000Y-61473696D02*
X166073696Y-62875000D01*
X150250000Y-61125000D02*
X151550000Y-59825000D01*
X167475000Y-60526304D02*
X167475000Y-61473696D01*
X151550000Y-59825000D02*
X166773696Y-59825000D01*
X166773696Y-59825000D02*
X167475000Y-60526304D01*
%TO.N,RGB_DOUT_10*%
X112500000Y-64750000D02*
X114000000Y-66250000D01*
X114000000Y-66250000D02*
X114000000Y-69300000D01*
X114000000Y-69300000D02*
X116000000Y-71300000D01*
%TO.N,RGB_DOUT_9*%
X114000000Y-61450000D02*
X114000000Y-64500000D01*
X114000000Y-64500000D02*
X116000000Y-66500000D01*
X112500000Y-59950000D02*
X114000000Y-61450000D01*
%TO.N,RGB_DOUT_21*%
X114000000Y-119050000D02*
X114000000Y-122100000D01*
X114000000Y-122100000D02*
X116000000Y-124100000D01*
X112500000Y-117550000D02*
X114000000Y-119050000D01*
%TO.N,RGB_DOUT_2*%
X153750000Y-72875000D02*
X151275000Y-70400000D01*
X149150000Y-73600000D02*
X150750000Y-75200000D01*
X150750000Y-75200000D02*
X175700000Y-75200000D01*
X168225000Y-69100000D02*
X160250000Y-61125000D01*
X175700000Y-73800000D02*
X171000000Y-69100000D01*
X149150000Y-70400000D02*
X149150000Y-73600000D01*
X171000000Y-69100000D02*
X168225000Y-69100000D01*
X175700000Y-75200000D02*
X175700000Y-73800000D01*
X151275000Y-70400000D02*
X149150000Y-70400000D01*
%TO.N,RGB_DOUT_20*%
X112500000Y-112750000D02*
X114900000Y-115150000D01*
X114900000Y-118200000D02*
X116000000Y-119300000D01*
X114900000Y-115150000D02*
X114900000Y-118200000D01*
%TO.N,RGB_DOUT_14*%
X113600000Y-88100000D02*
X116000000Y-90500000D01*
X113600000Y-85050000D02*
X113600000Y-88100000D01*
X112500000Y-83950000D02*
X113600000Y-85050000D01*
%TO.N,RGB_DOUT_13*%
X112500000Y-79150000D02*
X114900000Y-81550000D01*
X114900000Y-81550000D02*
X114900000Y-84600000D01*
X114900000Y-84600000D02*
X116000000Y-85700000D01*
%TD*%
M02*
